<svg width="24" height="24" viewBox="0 0 24 24" fill="none" xmlns="http://www.w3.org/2000/svg">
<g clip-path="url(#clip0_18_17023)">
<path d="M2.66667 10.8335L4.66667 4.8335H19.3333L21.3333 10.8335M19.3333 17.5002C18.8029 17.5002 18.2942 17.2894 17.9191 16.9144C17.544 16.5393 17.3333 16.0306 17.3333 15.5002C17.3333 14.9697 17.544 14.461 17.9191 14.0859C18.2942 13.7109 18.8029 13.5002 19.3333 13.5002C19.8638 13.5002 20.3725 13.7109 20.7475 14.0859C21.1226 14.461 21.3333 14.9697 21.3333 15.5002C21.3333 16.0306 21.1226 16.5393 20.7475 16.9144C20.3725 17.2894 19.8638 17.5002 19.3333 17.5002ZM4.66667 17.5002C4.13623 17.5002 3.62753 17.2894 3.25245 16.9144C2.87738 16.5393 2.66667 16.0306 2.66667 15.5002C2.66667 14.9697 2.87738 14.461 3.25245 14.0859C3.62753 13.7109 4.13623 13.5002 4.66667 13.5002C5.1971 13.5002 5.70581 13.7109 6.08088 14.0859C6.45595 14.461 6.66667 14.9697 6.66667 15.5002C6.66667 16.0306 6.45595 16.5393 6.08088 16.9144C5.70581 17.2894 5.1971 17.5002 4.66667 17.5002ZM21.2267 4.16683C20.96 3.3935 20.2133 2.8335 19.3333 2.8335H4.66667C3.78667 2.8335 3.04 3.3935 2.77333 4.16683L0 12.1668V22.8335C0 23.1871 0.140476 23.5263 0.390524 23.7763C0.640573 24.0264 0.979711 24.1668 1.33333 24.1668H2.66667C3.02029 24.1668 3.35943 24.0264 3.60948 23.7763C3.85952 23.5263 4 23.1871 4 22.8335V21.5002H20V22.8335C20 23.1871 20.1405 23.5263 20.3905 23.7763C20.6406 24.0264 20.9797 24.1668 21.3333 24.1668H22.6667C23.0203 24.1668 23.3594 24.0264 23.6095 23.7763C23.8595 23.5263 24 23.1871 24 22.8335V12.1668L21.2267 4.16683Z" fill="#E1002A"/>
</g>
<defs>
<clipPath id="clip0_18_17023">
<rect width="24" height="24" fill="white"/>
</clipPath>
</defs>
</svg>
