<svg width="156" height="34" viewBox="0 0 156 34" fill="none" xmlns="http://www.w3.org/2000/svg">
<g clip-path="url(#clip0_20_17843)">
<path d="M123.739 17.0466C123.739 8.18336 130.901 0.999512 139.737 0.999512C148.572 0.999512 155.734 8.18336 155.734 17.0466C155.734 25.9097 148.572 33.0936 139.737 33.0936C130.901 33.0936 123.739 25.9097 123.739 17.0466Z" fill="#211613"/>
<path d="M149.569 17.2997C151.217 17.2997 152.545 18.6459 152.545 20.2852C152.545 21.9246 151.203 23.2707 149.569 23.2707C147.935 23.2707 146.593 21.9246 146.593 20.2852C146.593 19.6588 146.792 19.0724 147.124 18.5792H148.2C147.961 18.7658 147.842 19.0057 147.842 19.2856C147.842 19.4856 147.895 19.6455 148.014 19.7921C148.134 19.9387 148.293 20.0587 148.506 20.1386C148.785 20.2453 149.077 20.3252 149.343 20.3785V21.858C149.091 21.8446 148.865 21.7513 148.692 21.5781C148.573 21.4581 148.479 21.2715 148.426 21.0316L147.749 21.1249C147.775 21.3648 147.855 21.5781 148.014 21.738C148.161 21.9113 148.347 22.0312 148.546 22.0979C148.759 22.1778 149.011 22.2312 149.343 22.2578V22.7243H149.728V22.2445C150.193 22.2312 150.566 22.1112 150.858 21.8979C151.15 21.6847 151.296 21.4048 151.296 21.0849C151.296 20.9383 151.256 20.805 151.19 20.6718C151.124 20.5518 151.017 20.4319 150.898 20.3386C150.765 20.2453 150.605 20.1653 150.393 20.0987C150.286 20.072 150.074 20.0187 149.742 19.952V18.6059C149.954 18.6326 150.127 18.6992 150.247 18.7925C150.366 18.8858 150.446 19.0324 150.486 19.2057L151.163 19.139C151.097 18.8325 150.938 18.6059 150.645 18.4326C150.419 18.2994 150.114 18.2194 149.742 18.1927V17.9795H149.356V18.1927C149.038 18.2194 148.772 18.2727 148.559 18.3527V17.4464C148.878 17.3264 149.237 17.2598 149.596 17.2598L149.569 17.2997Z" fill="white"/>
<path d="M139.484 0.42627C148.599 0.42627 156 7.86335 156 16.9931C156 26.1229 148.586 33.5599 139.484 33.5599C130.383 33.5599 122.969 26.1229 122.969 16.9931C122.969 7.86335 130.383 0.42627 139.484 0.42627ZM154.737 16.9931C154.737 8.55641 147.895 1.70577 139.497 1.70577C131.1 1.70577 124.258 8.56974 124.258 16.9931C124.258 25.4165 131.1 32.2804 139.497 32.2804C147.895 32.2804 154.737 25.4165 154.737 16.9931Z" fill="white"/>
<path d="M150.42 20.7117C150.539 20.8184 150.592 20.9516 150.592 21.1249C150.592 21.3248 150.513 21.4981 150.34 21.6314C150.167 21.7646 149.968 21.8446 149.702 21.8713V20.4585C150.061 20.5251 150.287 20.6051 150.406 20.7117H150.42Z" fill="white"/>
<path d="M149.329 18.6193V19.9121C149.024 19.8588 148.811 19.7788 148.691 19.6589C148.559 19.5523 148.492 19.419 148.492 19.259C148.492 19.0991 148.572 18.9525 148.718 18.8325C148.864 18.7126 149.077 18.6326 149.329 18.606V18.6193Z" fill="white"/>
<path d="M148.532 17.4863V18.3926C148.452 18.4193 148.399 18.4593 148.333 18.4859C148.28 18.5126 148.24 18.5526 148.187 18.5926H147.11C147.456 18.0994 147.947 17.6996 148.532 17.4863Z" fill="white"/>
<path d="M148.532 11.2354V16.8198C147.602 17.0997 146.818 17.7528 146.367 18.5925H144.692V11.2354H148.532ZM147.23 16.0468V13.0613C147.23 12.888 147.164 12.7414 147.057 12.6215C146.951 12.5148 146.792 12.4482 146.619 12.4482C146.287 12.4482 146.008 12.7281 146.008 13.0613V16.0468C146.008 16.2201 146.074 16.3667 146.194 16.4866C146.3 16.5932 146.46 16.6732 146.632 16.6732C146.964 16.6732 147.243 16.3933 147.243 16.0601L147.23 16.0468Z" fill="white"/>
<path d="M143.763 6.19727V27.5622H130.968V6.19727H143.763ZM143.072 22.9374V21.1914H141.464V22.9374H143.072ZM143.072 19.5654V17.8194H141.464V19.5654H143.072ZM143.072 17.0597V15.3137H141.464V17.0597H143.072ZM143.072 14.5673V12.8213H141.464V14.5673H143.072ZM143.072 12.0616V10.3156H141.464V12.0616H143.072ZM143.072 9.56928V7.82329H141.464V9.56928H143.072ZM140.627 26.5493V6.94364H131.818V26.5493H140.627Z" fill="white"/>
<path d="M139.843 7.63672V25.7496H132.469V7.63672H139.843ZM139.059 25.1765V21.8045H133.372V25.1765H139.059Z" fill="white"/>
<path fill-rule="evenodd" clip-rule="evenodd" d="M115.223 16.9936C115.223 26.2033 107.836 33.707 98.6943 33.707C89.553 33.707 82.2188 26.2033 82.2188 16.9936C82.2188 7.78385 89.6062 0.293457 98.7076 0.293457C107.809 0.293457 115.236 7.77052 115.236 16.9936H115.223Z" fill="#211613"/>
<path d="M81.8203 17.02C81.8203 7.67704 89.3938 0.0400391 98.7211 0.0400391C108.022 0.0400391 115.635 7.67704 115.635 17.02C115.635 26.3364 108.022 33.9601 98.7211 33.9601V32.7206C107.344 32.7072 114.413 25.63 114.413 17.0067C114.413 8.37011 107.344 1.26622 98.7211 1.23957C90.0847 1.26622 83.0693 8.37011 83.0294 17.0067C83.056 25.63 90.0847 32.6939 98.7211 32.7206V33.9601C89.3938 33.9601 81.8203 26.3364 81.8203 17.02Z" fill="white"/>
<path d="M88.6367 15.5005V27.0693H108.833V15.5005H88.6367ZM98.7081 25.19C96.5291 25.19 94.8151 23.4174 94.8151 21.2449C94.8151 19.0724 96.5424 17.3264 98.7081 17.3264C100.874 17.3264 102.668 19.0724 102.668 21.2449C102.668 23.4174 100.834 25.19 98.7081 25.19Z" fill="white"/>
<path d="M98.5222 24.3902V23.8571C98.1369 23.8304 97.7516 23.6438 97.4725 23.6172C97.2334 23.5105 96.9544 23.3106 96.7551 23.1107C96.5823 22.8708 96.3564 22.6042 96.3564 22.2843L97.3131 22.1377C97.446 22.5243 97.5655 22.7108 97.6453 22.8708C97.9509 23.1373 98.2697 23.2173 98.5222 23.2306V21.3514C98.2033 21.2048 97.818 21.1648 97.4725 20.9382C97.1537 20.8716 96.9544 20.6983 96.8481 20.5384C96.662 20.3118 96.5823 20.0719 96.5823 19.872C96.5823 19.4588 96.8481 19.0456 97.2334 18.6991C97.5655 18.5658 97.9774 18.4858 98.5355 18.4858V18.126H99.0537V18.4858C99.6117 18.4858 99.9439 18.5658 100.276 18.6991C100.635 18.9523 100.914 19.2855 101.007 19.7253L100.077 19.792C100.037 19.4988 99.8907 19.3655 99.7047 19.2322C99.5984 19.1256 99.3194 19.0056 99.0404 18.9656V20.7649C99.4656 20.8716 99.7047 20.9382 99.9306 20.9382C100.196 21.0315 100.449 21.1648 100.608 21.1914C100.715 21.3647 100.901 21.4847 100.994 21.6713C101.06 21.8045 101.113 22.0844 101.113 22.271C101.113 22.6842 100.901 22.9774 100.542 23.3106C100.21 23.6172 99.6649 23.8171 99.0404 23.8171V24.3902H98.5222ZM98.5222 18.9656C98.2166 18.9656 97.9509 19.1256 97.7516 19.2988C97.5655 19.3788 97.4725 19.5921 97.4725 19.832C97.4725 20.0186 97.5655 20.2052 97.6453 20.3651C97.8711 20.5384 98.1502 20.5783 98.5222 20.685V18.9656ZM99.0404 23.2306C99.3858 23.2173 99.6649 23.1373 99.8907 22.9108C100.077 22.7775 100.21 22.5509 100.21 22.2843C100.21 22.0844 100.21 21.8045 100.037 21.7379C99.8774 21.578 99.532 21.418 99.0537 21.4047V23.2173L99.0404 23.2306Z" fill="white"/>
<path d="M93.0882 11.8221H91.0554L90.7763 12.7684H88.9561L91.1484 6.9707H93.075L95.254 12.7684H93.3673L93.0882 11.8221ZM92.7029 10.6093L92.0785 8.49011L91.4407 10.6093H92.7029Z" fill="white"/>
<path d="M95.5996 6.98389H101.034V8.42332H99.2269V12.7683H97.4465V8.42332H95.6129V6.98389H95.5996Z" fill="white"/>
<path d="M102.044 6.98389H104.396L105.312 10.5292L106.203 6.98389H108.554V12.7816H107.093V8.37001L105.95 12.7816H104.635L103.519 8.37001V12.7816H102.071V6.98389H102.044Z" fill="white"/>
<path fill-rule="evenodd" clip-rule="evenodd" d="M74.4191 16.7136C74.4191 25.8033 67.045 33.2138 57.9436 33.2138C48.8421 33.2138 41.5078 25.8033 41.5078 16.7136C41.5078 7.62381 48.882 0.213379 57.9436 0.213379C67.0051 0.213379 74.4191 7.59715 74.4191 16.7136Z" fill="#211613"/>
<path d="M64.4943 16.2205C65.1453 16.2205 65.7033 15.674 65.7033 15.0076C65.7033 14.3412 65.1453 13.8081 64.4943 13.8081C63.8432 13.8081 63.2852 14.3412 63.2852 15.0076C63.2852 15.674 63.8166 16.2205 64.4943 16.2205Z" fill="#F8B616"/>
<path d="M65.9026 21.8182V18.2462C65.9026 18.033 66.2481 18.033 66.2481 18.2462V20.9252C66.2481 21.2051 66.4739 21.4316 66.7397 21.4316C67.0187 21.4316 67.2712 21.2051 67.2712 20.9252V17.8864C67.2712 17.2599 66.5802 16.5136 65.7565 16.5136H63.3383C62.8467 16.5669 62.4879 16.6069 62.262 16.4736L59.432 15.514C59.0998 15.4073 58.7676 15.434 58.5816 15.8205C58.4222 16.167 58.6082 16.5136 59.0599 16.6469L62.3019 17.8331C63.0327 18.1263 62.9795 18.4861 62.9795 18.6994V21.5249V26.9362C62.9795 27.2827 63.2187 27.5759 63.5641 27.5759C63.9229 27.5759 64.2019 27.2827 64.2019 26.9362V22.5112C64.2019 22.218 64.6537 22.2047 64.6537 22.5112V26.9362C64.6537 27.2827 64.9327 27.5759 65.2914 27.5759C65.6635 27.5759 65.9026 27.2827 65.9026 26.9362V21.8315V21.8182Z" fill="#F8B616"/>
<path fill-rule="evenodd" clip-rule="evenodd" d="M55.5255 6.18439C55.5255 7.07737 54.808 7.78376 53.9444 7.78376C53.0808 7.78376 52.3633 7.07737 52.3633 6.18439C52.3633 5.29141 53.0675 4.625 53.9444 4.625C54.8213 4.625 55.5255 5.33139 55.5255 6.18439Z" fill="#EB6B8D"/>
<path d="M59.6969 16.367L57.5578 11.3156C56.7473 8.90322 54.5417 8.92988 54.5417 8.92988C54.5417 8.92988 53.5186 8.8899 53.3591 8.92988L52.057 9.32972C51.0605 9.82286 49.8913 11.3289 49.8913 12.3019V16.1004C49.8913 16.5402 50.2367 16.8868 50.6353 16.8868C51.0074 16.8868 51.3661 16.5536 51.3661 16.1271V12.4618C51.3661 12.142 51.871 12.142 51.871 12.4885V12.6884C51.8577 12.9416 51.8179 13.1549 51.8179 13.4215C51.8179 13.848 51.7647 16.247 51.8179 16.6335C50.7018 17.3133 49.2402 18.4861 49.2402 19.7123C49.2402 19.8856 49.2402 20.0588 49.2801 20.2188H52.0969V26.6296C52.0969 27.0428 52.4556 27.3627 52.8675 27.3627C53.2794 27.3627 53.6514 27.0428 53.6514 26.6296V20.2188H54.3025V26.563C54.3025 26.9628 54.6479 27.296 55.0731 27.296C55.4983 27.296 55.8438 26.9628 55.8438 26.563V20.2188H58.5808C58.6074 20.0588 58.6207 19.8723 58.6207 19.7123C58.6207 18.5794 57.9962 17.5798 57.0263 16.8868C57.0927 16.5002 57.1459 14.7942 57.1591 13.9946L58.3948 16.9134C58.5011 17.18 58.7668 17.3532 59.0459 17.3532C59.1389 17.3532 59.2319 17.3266 59.3116 17.2866C59.6703 17.14 59.8298 16.7135 59.6836 16.367H59.6969Z" fill="#EB6D8E"/>
<path d="M40.8838 17.0067C40.8838 7.74365 48.537 0.133301 57.9706 0.133301C67.351 0.133301 75.0441 7.74365 75.0441 17.0067C75.0441 26.2564 67.351 33.8667 57.9706 33.8667V32.6539C66.6601 32.6406 73.7951 25.59 73.8217 17.0067C73.8084 8.41006 66.6601 1.35949 57.9706 1.34616C49.2279 1.35949 42.1327 8.41006 42.1195 17.0067C42.146 25.59 49.2279 32.6406 57.9706 32.6539V33.8667C48.5503 33.8667 40.8838 26.2564 40.8838 17.0067Z" fill="white"/>
<path fill-rule="evenodd" clip-rule="evenodd" d="M34.2405 16.9931C34.2405 26.1762 26.76 33.6533 17.5124 33.6533C8.26481 33.6533 0.824219 26.1762 0.824219 16.9931C0.824219 7.81008 8.29139 0.333008 17.5124 0.333008C26.7334 0.333008 34.2405 7.78342 34.2405 16.9931Z" fill="#211613"/>
<path fill-rule="evenodd" clip-rule="evenodd" d="M13.1142 9.48951C13.9247 9.48951 14.589 8.83643 14.589 8.03675C14.589 7.23706 13.9247 6.58398 13.1142 6.58398C12.3037 6.58398 11.6526 7.23706 11.6526 8.03675C11.6526 8.83643 12.3037 9.48951 13.1142 9.48951ZM15.9708 16.3535C16.0638 15.927 16.1037 15.4738 16.1037 14.994C16.1037 12.4617 14.8016 10.3958 13.1806 10.3958C11.5596 10.3958 10.2575 12.4617 10.2575 14.994C10.2575 15.4072 10.2841 15.807 10.3638 16.1935C9.27431 16.8466 8.59668 17.8995 8.59668 19.0591C8.59668 19.2457 8.60997 19.419 8.63654 19.5922H11.2939V27.5091C11.2939 27.909 11.6261 28.2288 12.0247 28.2288C12.4233 28.2288 12.7554 27.909 12.7554 27.5091V19.5922H13.3799V27.4425C13.3799 27.829 13.6988 28.1622 14.1107 28.1622C14.496 28.1622 14.8282 27.8423 14.8282 27.4425V19.5922H17.4191C17.4457 19.419 17.4722 19.2457 17.4722 19.0591C17.4722 17.9795 16.8876 17.0199 15.9443 16.3402L15.9708 16.3535Z" fill="#EB6B8D"/>
<path fill-rule="evenodd" clip-rule="evenodd" d="M23.6243 7.9303C23.6243 8.72999 22.9466 9.38307 22.1627 9.38307C21.3788 9.38307 20.7012 8.72999 20.7012 7.9303C20.7012 7.13062 21.3522 6.47754 22.1627 6.47754C22.9732 6.47754 23.6243 7.14394 23.6243 7.9303Z" fill="#22B2E9"/>
<path fill-rule="evenodd" clip-rule="evenodd" d="M24.3148 10.3429H19.8504C19.0266 10.3429 18.3623 10.9827 18.3623 11.7824V17.5534C18.3623 17.78 18.4155 17.9666 18.4952 18.1399C18.6945 18.8329 19.2924 19.0195 19.6511 19.4593V27.4296C19.6511 27.8161 20.0497 28.1493 20.528 28.1493C21.0064 28.1493 21.4183 27.8161 21.4183 27.4296V21.1653H22.7469V27.4296C22.7469 27.8161 23.1455 28.1493 23.6239 28.1493C24.1022 28.1493 24.5008 27.8161 24.5008 27.4296V19.406C24.9791 19.0328 25.4309 18.7396 25.6169 18.1932C25.7232 18.0066 25.8029 17.78 25.8029 17.5401V11.769C25.8029 10.9693 25.1253 10.3296 24.3015 10.3296L24.3148 10.3429Z" fill="#22B2E9"/>
<path d="M0 17.0067C0 7.65033 7.69304 0 17.2064 0C26.6533 0 34.4127 7.65033 34.4127 17.0067C34.4127 26.3363 26.6665 33.9733 17.2064 34V32.6005C25.8826 32.6005 33.0043 25.55 33.0176 16.9933C32.9911 8.42336 25.8826 1.38612 17.2064 1.37279C8.47696 1.38612 1.39511 8.42336 1.39511 16.9933C1.39511 25.55 8.49025 32.5872 17.2064 32.6005V34C7.70633 33.9733 0 26.323 0 17.0067Z" fill="white"/>
</g>
<defs>
<clipPath id="clip0_20_17843">
<rect width="156" height="34" fill="white"/>
</clipPath>
</defs>
</svg>
