<svg width="214" height="36" viewBox="0 0 214 36" fill="none" xmlns="http://www.w3.org/2000/svg">
<g clip-path="url(#clip0_20_18065)">
<path fill-rule="evenodd" clip-rule="evenodd" d="M109.798 19.2343C109.798 28.0501 102.625 35.2372 93.7725 35.2372C84.9199 35.2372 77.7861 28.0501 77.7861 19.2343C77.7861 10.4185 84.9457 3.23145 93.7725 3.23145C102.599 3.23145 109.798 10.3927 109.798 19.2343Z" fill="#211613"/>
<path d="M100.144 18.7562C100.777 18.7562 101.32 18.2262 101.32 17.5799C101.32 16.9336 100.777 16.4165 100.144 16.4165C99.5106 16.4165 98.9678 16.9336 98.9678 17.5799C98.9678 18.2262 99.4847 18.7562 100.144 18.7562Z" fill="#F8B616"/>
<path d="M101.513 24.1851V20.7208C101.513 20.514 101.849 20.514 101.849 20.7208V23.319C101.849 23.5905 102.069 23.8102 102.328 23.8102C102.599 23.8102 102.845 23.5905 102.845 23.319V20.3718C102.845 19.7643 102.173 19.0404 101.371 19.0404H99.0192C98.541 19.0921 98.1921 19.1309 97.9724 19.0016L95.2197 18.0709C94.8966 17.9675 94.5735 17.9934 94.3926 18.3682C94.2375 18.7043 94.4184 19.0404 94.8578 19.1697L98.0111 20.3201C98.7219 20.6045 98.6702 20.9535 98.6702 21.1603V23.9007V29.1488C98.6702 29.4849 98.9029 29.7693 99.2389 29.7693C99.5878 29.7693 99.8592 29.4849 99.8592 29.1488V24.8573C99.8592 24.5729 100.299 24.56 100.299 24.8573V29.1488C100.299 29.4849 100.57 29.7693 100.919 29.7693C101.281 29.7693 101.513 29.4849 101.513 29.1488V24.198V24.1851Z" fill="#F8B616"/>
<path fill-rule="evenodd" clip-rule="evenodd" d="M91.4332 9.02264C91.4332 9.88871 90.7353 10.5738 89.8953 10.5738C89.0553 10.5738 88.3574 9.88871 88.3574 9.02264C88.3574 8.15657 89.0424 7.51025 89.8953 7.51025C90.7483 7.51025 91.4332 8.19535 91.4332 9.02264Z" fill="#EB6B8D"/>
<path d="M95.4911 18.8854L93.4104 13.9863C92.6221 11.6467 90.4768 11.6725 90.4768 11.6725C90.4768 11.6725 89.4817 11.6337 89.3266 11.6725L88.0601 12.0603C87.0908 12.5386 85.9536 13.9993 85.9536 14.9429V18.6269C85.9536 19.0535 86.2896 19.3896 86.6773 19.3896C87.0391 19.3896 87.3881 19.0664 87.3881 18.6528V15.098C87.3881 14.7878 87.8792 14.7878 87.8792 15.1239V15.3178C87.8662 15.5634 87.8275 15.7702 87.8275 16.0287C87.8275 16.4423 87.7758 18.7691 87.8275 19.144C86.7419 19.8032 85.3203 20.9407 85.3203 22.13C85.3203 22.298 85.3203 22.466 85.3591 22.6212H88.0989V28.8388C88.0989 29.2395 88.4478 29.5497 88.8484 29.5497C89.2491 29.5497 89.6109 29.2395 89.6109 28.8388V22.6212H90.2442V28.7741C90.2442 29.1619 90.5802 29.4851 90.9937 29.4851C91.4073 29.4851 91.7433 29.1619 91.7433 28.7741V22.6212H94.4055C94.4314 22.466 94.4443 22.2851 94.4443 22.13C94.4443 21.0312 93.8369 20.0617 92.8935 19.3896C92.9581 19.0147 93.0098 17.3601 93.0227 16.5845L94.2246 19.4154C94.328 19.6739 94.5865 19.842 94.8579 19.842C94.9483 19.842 95.0388 19.8161 95.1163 19.7774C95.4653 19.6352 95.6203 19.2215 95.4782 18.8854H95.4911Z" fill="#EB6D8E"/>
<path d="M77.1787 19.5186C77.1787 10.5348 84.6356 3.15381 93.7983 3.15381C102.922 3.15381 110.405 10.5348 110.405 19.5186C110.405 28.4895 102.922 35.8705 93.7983 35.8705V34.6942C102.25 34.6813 109.19 27.8432 109.216 19.5186C109.203 11.1811 102.25 4.34304 93.7983 4.33011C85.2947 4.34304 78.3935 11.1811 78.3806 19.5186C78.4064 27.8432 85.2947 34.6813 93.7983 34.6942V35.8705C84.6356 35.8705 77.1787 28.4895 77.1787 19.5186Z" fill="white"/>
<path fill-rule="evenodd" clip-rule="evenodd" d="M71.8932 19.5056C71.8932 28.4119 64.6173 35.6636 55.6225 35.6636C46.6278 35.6636 39.3906 28.4119 39.3906 19.5056C39.3906 10.5994 46.6665 3.34766 55.6225 3.34766C64.5785 3.34766 71.8932 10.5735 71.8932 19.5056Z" fill="#211613"/>
<path fill-rule="evenodd" clip-rule="evenodd" d="M51.3452 12.2281C52.1335 12.2281 52.7797 11.5947 52.7797 10.8191C52.7797 10.0435 52.1335 9.41016 51.3452 9.41016C50.5568 9.41016 49.9236 10.0435 49.9236 10.8191C49.9236 11.5947 50.5568 12.2281 51.3452 12.2281ZM54.1237 18.8852C54.2142 18.4716 54.2529 18.0321 54.2529 17.5667C54.2529 15.1107 52.9864 13.1071 51.4098 13.1071C49.8331 13.1071 48.5666 15.1107 48.5666 17.5667C48.5666 17.9674 48.5925 18.3552 48.67 18.7301C47.6103 19.3635 46.9512 20.3847 46.9512 21.5093C46.9512 21.6902 46.9641 21.8583 46.9899 22.0263H49.5746V29.7046C49.5746 30.0924 49.8977 30.4026 50.2854 30.4026C50.6731 30.4026 50.9962 30.0924 50.9962 29.7046V22.0263H51.6036V29.64C51.6036 30.0148 51.9138 30.338 52.3144 30.338C52.6892 30.338 53.0123 30.0278 53.0123 29.64V22.0263H55.5324C55.5582 21.8583 55.5841 21.6902 55.5841 21.5093C55.5841 20.4622 55.0154 19.5315 54.0979 18.8723L54.1237 18.8852Z" fill="#EB6B8D"/>
<path fill-rule="evenodd" clip-rule="evenodd" d="M61.5668 10.7156C61.5668 11.4912 60.9077 12.1246 60.1452 12.1246C59.3827 12.1246 58.7236 11.4912 58.7236 10.7156C58.7236 9.94003 59.3569 9.30664 60.1452 9.30664C60.9336 9.30664 61.5668 9.95296 61.5668 10.7156Z" fill="#22B2E9"/>
<path fill-rule="evenodd" clip-rule="evenodd" d="M62.2262 13.0554H57.884C57.0827 13.0554 56.4365 13.6759 56.4365 14.4515V20.0486C56.4365 20.2683 56.4882 20.4493 56.5658 20.6173C56.7596 21.2895 57.3412 21.4705 57.6901 21.8971V29.627C57.6901 30.0019 58.0778 30.3251 58.5431 30.3251C59.0083 30.3251 59.4089 30.0019 59.4089 29.627V23.5516H60.7013V29.627C60.7013 30.0019 61.089 30.3251 61.5542 30.3251C62.0195 30.3251 62.4072 30.0019 62.4072 29.627V21.8454C62.8724 21.4834 63.3118 21.199 63.4928 20.6691C63.5961 20.4881 63.6737 20.2683 63.6737 20.0357V14.4385C63.6737 13.6629 63.0146 13.0425 62.2133 13.0425L62.2262 13.0554Z" fill="#22B2E9"/>
<path d="M38.5898 19.5058C38.5898 10.4315 46.0725 3.02465 55.3258 3.01172C64.5144 3.01172 72.0617 10.4315 72.0617 19.5058C72.0617 28.5543 64.5273 35.9611 55.3258 35.9869V34.6297C63.7648 34.6297 70.6918 27.7916 70.7047 19.4929C70.6789 11.1812 63.7648 4.35606 55.3258 4.34314C46.835 4.35606 39.9468 11.1812 39.9468 19.4929C39.9468 27.7916 46.848 34.6167 55.3258 34.6297V35.9869C46.0855 35.9611 38.5898 28.5413 38.5898 19.5058Z" fill="white"/>
<path fill-rule="evenodd" clip-rule="evenodd" d="M160.419 1.20215C160.419 1.8614 159.928 2.40431 159.308 2.40431C158.687 2.40431 158.196 1.8614 158.196 1.20215C158.196 0.542908 158.7 0 159.308 0C159.915 0 160.419 0.542908 160.419 1.20215Z" fill="#E1002A"/>
<path d="M164.142 18.0195C165.512 18.0195 165.68 19.4673 165.706 19.8809V20.036H151.296V18.0195H164.155H164.142Z" fill="#E1002A"/>
<path d="M151.386 32.29C152.756 32.29 152.924 31.1525 152.95 30.7259V30.5708H144.188V32.29H151.386Z" fill="#E1002A"/>
<path d="M146.087 32.303V26.3698H151.024V29.33H152.937V26.5379C152.937 24.6248 151.089 24.6377 151.089 24.6377H144.175V32.303H146.087Z" fill="#E1002A"/>
<path d="M151.14 13.3271C152.51 13.3271 152.678 12.1896 152.704 11.763V11.6079H144.148V13.3271H151.14Z" fill="#E1002A"/>
<path d="M151.14 23.0867C152.51 23.0867 152.678 21.8329 152.704 21.3804V21.2124H144.097V23.0997H151.14V23.0867Z" fill="#E1002A"/>
<path d="M152.174 16.7915C153.544 16.7915 153.712 15.654 153.738 15.2274V15.0723H144.175V16.7915H152.174Z" fill="#E1002A"/>
<path d="M160.316 3.43848H158.378V32.3419H160.316V3.43848Z" fill="#E1002A"/>
<path d="M137.933 9.10011V1.86133H140.647C141.306 1.86133 141.926 1.95181 142.469 2.13278C143.024 2.31375 143.503 2.55935 143.903 2.88251C144.304 3.20567 144.614 3.58054 144.834 4.02004C145.053 4.45953 145.17 4.93781 145.17 5.45486C145.17 6.02363 145.053 6.52776 144.821 6.98018C144.588 7.4326 144.265 7.82039 143.852 8.13063C143.438 8.44086 142.947 8.68646 142.391 8.85451C141.836 9.02255 141.215 9.10011 140.556 9.10011H137.933ZM139.367 2.93422V8.02722H140.323C140.815 8.02722 141.267 7.96258 141.668 7.83332C142.081 7.70406 142.43 7.52309 142.74 7.30334C143.037 7.07066 143.283 6.81214 143.451 6.48898C143.619 6.17874 143.709 5.82973 143.709 5.46779C143.709 5.10585 143.619 4.74391 143.451 4.43368C143.283 4.12345 143.05 3.85199 142.74 3.63224C142.443 3.41249 142.081 3.23153 141.668 3.11519C141.254 2.99885 140.815 2.93422 140.323 2.93422H139.367Z" fill="black"/>
<path d="M147.341 6.94171C147.341 7.10975 147.393 7.27779 147.496 7.40706C147.6 7.54925 147.729 7.66559 147.884 7.75607C148.039 7.84656 148.22 7.92411 148.414 7.97582C148.608 8.02752 148.802 8.05338 148.995 8.05338C149.254 8.05338 149.474 8.02752 149.667 7.97582C149.861 7.92411 150.029 7.83363 150.171 7.70437L151.128 8.37654C150.843 8.66092 150.52 8.85481 150.159 8.97115C149.797 9.08749 149.383 9.15212 148.944 9.15212C147.923 9.15212 147.147 8.89359 146.643 8.41532C146.139 7.93704 145.881 7.23901 145.881 6.34709C145.881 5.89467 145.945 5.48103 146.088 5.11909C146.23 4.74422 146.437 4.43399 146.695 4.17546C146.966 3.91693 147.29 3.71011 147.677 3.58085C148.065 3.43866 148.491 3.37402 148.97 3.37402C149.861 3.37402 150.559 3.61963 151.102 4.11083C151.632 4.60203 151.903 5.32591 151.89 6.26954C151.89 6.37295 151.89 6.47636 151.89 6.5927C151.89 6.69611 151.89 6.81244 151.89 6.92878H147.367V6.95463L147.341 6.94171ZM148.957 4.43399C148.491 4.43399 148.104 4.57618 147.819 4.84763C147.522 5.11909 147.367 5.45517 147.341 5.85589H150.456C150.43 5.45517 150.288 5.11909 150.016 4.84763C149.745 4.57618 149.396 4.43399 148.957 4.43399Z" fill="black"/>
<path d="M153.015 7.70395C153.26 7.85907 153.558 7.96248 153.894 8.01419C154.242 8.06589 154.578 8.09175 154.902 8.09175C155.263 8.09175 155.561 8.04004 155.806 7.93663C156.052 7.83322 156.168 7.6781 156.168 7.44543C156.168 7.27738 156.078 7.13519 155.91 7.00593C155.742 6.87667 155.457 6.78618 155.044 6.73447C154.721 6.6957 154.398 6.63106 154.1 6.56643C153.803 6.5018 153.532 6.41132 153.299 6.28205C153.066 6.15279 152.886 5.99767 152.743 5.80377C152.601 5.60988 152.537 5.36428 152.537 5.05404C152.537 4.76966 152.601 4.53699 152.743 4.33017C152.873 4.12334 153.066 3.9553 153.312 3.82604C153.558 3.69677 153.842 3.59336 154.178 3.54166C154.514 3.47702 154.876 3.45117 155.276 3.45117C156.052 3.45117 156.711 3.59336 157.241 3.87774L156.801 4.98941C156.569 4.80844 156.323 4.69211 156.052 4.6404C155.78 4.57577 155.483 4.54991 155.147 4.54991C154.876 4.54991 154.63 4.57577 154.41 4.62747C154.191 4.67918 154.062 4.79552 154.023 5.00234C153.984 5.20916 154.126 5.36428 154.423 5.46769C154.721 5.5711 155.134 5.66158 155.664 5.75207C156.259 5.84255 156.737 6.02352 157.086 6.26912C157.435 6.51473 157.616 6.88959 157.616 7.36787C157.616 7.69103 157.538 7.96248 157.383 8.19516C157.228 8.42783 157.021 8.6088 156.763 8.75099C156.504 8.89318 156.194 8.99659 155.832 9.06123C155.47 9.12586 155.095 9.16464 154.708 9.16464C154.372 9.16464 154.01 9.12586 153.635 9.0483C153.26 8.97074 152.886 8.8544 152.511 8.68636L153.041 7.69103L153.015 7.70395Z" fill="black"/>
<path d="M164.09 10.3668C165.085 10.1858 165.576 9.61709 165.576 8.67346C165.434 8.8415 165.253 8.95784 165.046 9.0354C164.839 9.11296 164.516 9.15174 164.09 9.15174C163.637 9.15174 163.237 9.07418 162.913 8.91906C162.59 8.76395 162.306 8.55712 162.099 8.28567C161.88 8.01421 161.725 7.71691 161.608 7.35497C161.492 6.99303 161.453 6.61816 161.453 6.21745C161.453 5.84258 161.518 5.49357 161.66 5.15748C161.802 4.8214 161.983 4.52409 162.229 4.27849C162.461 4.03289 162.758 3.83899 163.081 3.6968C163.405 3.55461 163.766 3.47705 164.154 3.47705C164.451 3.47705 164.723 3.51583 164.968 3.58046C165.214 3.64509 165.421 3.77436 165.614 3.9424V3.51583H166.984V8.24689C166.984 8.66053 166.92 9.06125 166.803 9.43612C166.687 9.81098 166.519 10.1341 166.287 10.4185C166.054 10.7029 165.77 10.9485 165.434 11.1424C165.098 11.3363 164.697 11.4656 164.258 11.5302L164.09 10.3668ZM165.614 5.59698C165.614 5.40308 165.563 5.23504 165.485 5.09285C165.408 4.95066 165.317 4.84725 165.201 4.75676C165.085 4.67921 164.968 4.61457 164.839 4.57579C164.71 4.53701 164.594 4.51116 164.477 4.51116C163.909 4.51116 163.495 4.65335 163.249 4.95066C163.004 5.24797 162.875 5.67454 162.875 6.21745C162.875 6.76035 162.991 7.23863 163.211 7.56179C163.43 7.88495 163.779 8.05299 164.245 8.05299C164.671 8.05299 165.007 7.97543 165.253 7.80739C165.498 7.63935 165.627 7.40667 165.627 7.09644V5.57113L165.614 5.59698Z" fill="black"/>
<path d="M172.116 5.64892C172.116 5.28698 171.999 5.0026 171.793 4.82163C171.573 4.64066 171.276 4.53725 170.875 4.53725C170.474 4.53725 170.164 4.62773 169.906 4.82163C169.647 5.01552 169.518 5.28698 169.518 5.64892V9.10026H168.109V3.51606H169.518V4.21409C169.686 3.95556 169.932 3.77459 170.255 3.64532C170.565 3.52899 170.94 3.46436 171.366 3.46436C172.025 3.46436 172.542 3.64532 172.943 3.99434C173.343 4.34335 173.537 4.82163 173.537 5.42917V9.10026H172.129V5.64892H172.116Z" fill="black"/>
<path d="M152.692 18.0195H150.908V21.3675H152.692V18.0195Z" fill="#E1002A"/>
<path d="M149.331 18.0581H144.097V19.7773H149.331V18.0581Z" fill="#E1002A"/>
<path d="M150.907 18.0581V19.7773H151.127C152.497 19.7773 152.665 18.6398 152.691 18.2132V18.0581H150.907Z" fill="#E1002A"/>
<path d="M211.829 14.7104C213.238 14.7104 213.419 16.0806 213.445 16.4814V16.6365H193.284V14.7104H211.829Z" fill="black"/>
<path d="M210.02 26.6282C211.429 26.6282 211.61 27.9984 211.635 28.3991V28.5413H195.339V26.6152H210.02V26.6282Z" fill="black"/>
<path d="M212.385 30.6355C213.806 30.6355 213.987 32.0057 214 32.4064V32.5486H192.754V30.6226H212.385V30.6355Z" fill="black"/>
<path d="M207.797 25.0254C209.206 25.0254 209.387 23.8878 209.412 23.4613V23.3062H197.058V25.0254H207.81H207.797Z" fill="black"/>
<path d="M199.035 24.0431V19.855H207.435V22.1171H209.425V20.023C209.425 18.1228 207.512 18.1357 207.512 18.1357H197.07V24.0431H199.061H199.035Z" fill="black"/>
<path d="M195.352 14.9302H193.284V20.7083H195.352V14.9302Z" fill="black"/>
<path d="M213.457 16.5977H211.39V20.6953H213.457V16.5977Z" fill="black"/>
<path d="M204.489 11.3623H202.421V16.5975H204.489V11.3623Z" fill="black"/>
<path d="M204.178 23.332H202.11V30.6742H204.178V23.332Z" fill="black"/>
<path d="M208.521 11.5303H210.692C210.692 11.5303 209.025 14.2577 208.844 14.7489H206.414C206.414 14.7489 207.629 12.7324 208.508 11.5303H208.521Z" fill="black"/>
<path d="M198.182 11.5303H196.011C196.011 11.5303 197.678 14.2577 197.859 14.7489H200.288C200.288 14.7489 199.074 12.7324 198.195 11.5303H198.182Z" fill="black"/>
<path d="M209.413 20.7471H204.075V22.2982H209.413V20.7471Z" fill="black"/>
<path d="M173.705 13.5727C175.062 13.5727 175.243 12.4352 175.256 12.0086V11.8535H168.381V13.5727H173.692H173.705Z" fill="black"/>
<path d="M173.705 19.7641C175.062 19.7641 175.243 18.6266 175.256 18.2V18.0449H168.381V19.7641H173.692H173.705Z" fill="black"/>
<path d="M173.705 22.9052C175.062 22.9052 175.243 21.7677 175.256 21.3412V21.186H168.381V22.9052H173.692H173.705Z" fill="black"/>
<path d="M174.752 16.4424C176.109 16.4424 176.29 15.3048 176.303 14.8783V14.7231H168.394V16.4424H174.739H174.752Z" fill="black"/>
<path d="M174.184 31.9023C175.54 31.9023 175.721 30.7777 175.734 30.3641V30.209H168.381V31.9023H174.171H174.184Z" fill="black"/>
<path d="M170.254 30.5192V26.0466H173.834V28.8904H175.747V26.2147C175.747 24.3274 173.899 24.3403 173.899 24.3403H168.406V30.5192H170.267H170.254Z" fill="black"/>
<path d="M187.339 14.6196C188.658 14.6196 188.826 13.495 188.852 13.0814V12.9263H176.962V14.6196H187.352H187.339Z" fill="black"/>
<path d="M187.34 17.3857C188.658 17.3857 188.826 16.2611 188.852 15.8475V15.6924H177.001V17.3857H187.353H187.34Z" fill="black"/>
<path d="M187.339 20.3721C188.658 20.3721 188.826 19.2475 188.852 18.8338V18.6787H176.962V20.3721H187.352H187.339Z" fill="black"/>
<path d="M188.451 28.8389C189.769 28.8389 189.937 27.7143 189.963 27.3006V27.1455H178.073V28.8389H188.464H188.451Z" fill="black"/>
<path d="M187.339 21.5742C188.658 21.5742 188.826 22.6988 188.851 23.1125V23.2676H177.078V21.5742H187.339Z" fill="black"/>
<path d="M181.614 11.5044H179.676V20.1651H181.614V11.5044Z" fill="black"/>
<path d="M186.409 11.5044H184.471V20.1651H186.409V11.5044Z" fill="black"/>
<path d="M183.889 19.9839H181.95V28.1663H183.889V19.9839Z" fill="black"/>
<path d="M178.952 21.5869H177.014V32.1348H178.952V21.5869Z" fill="black"/>
<path d="M188.864 23.2026H186.926V28.1664H188.864V23.2026Z" fill="black"/>
<path d="M187.301 32.1348C188.619 32.1348 188.787 31.0102 188.813 30.5965V30.4414H183.954V32.1348H187.314H187.301Z" fill="black"/>
<path d="M188.813 27.1969V24.4307H177.091V27.1969H175.515V28.9032H177.091V32.1477H179.03V28.9032H186.861V30.6095H188.8V27.2098L188.813 27.1969ZM181.951 27.1969H179.043V26.0465H181.951V27.1969ZM183.889 27.1969V26.0465H186.861V27.1969H183.889Z" fill="black"/>
<path d="M181.769 9.22949C181.201 9.22949 180.684 9.13901 180.218 8.93219C179.753 8.73829 179.353 8.46684 179.017 8.11782C178.681 7.76881 178.422 7.36809 178.241 6.90274C178.06 6.43739 177.97 5.92034 177.97 5.3645C177.97 4.16235 178.293 3.21872 178.952 2.53362C179.598 1.84852 180.541 1.49951 181.769 1.49951C182.48 1.49951 183.1 1.60292 183.617 1.82267C184.134 2.04242 184.587 2.39143 184.948 2.89556L183.591 3.63237C183.423 3.36091 183.152 3.14116 182.803 2.97312C182.441 2.80508 182.105 2.72752 181.769 2.72752C181.02 2.72752 180.451 2.94727 180.05 3.37384C179.65 3.80041 179.456 4.47258 179.456 5.37743C179.456 5.76522 179.508 6.12716 179.611 6.45032C179.714 6.77348 179.869 7.05786 180.076 7.30346C180.283 7.54906 180.529 7.73003 180.813 7.87222C181.097 8.01441 181.407 8.07905 181.769 8.07905C182.273 8.07905 182.726 7.93685 183.1 7.6654C183.475 7.39395 183.682 6.99323 183.721 6.47617H181.898V5.3645H185.401V5.85571C185.401 6.2952 185.31 6.70885 185.116 7.12249C184.923 7.52321 184.677 7.88515 184.354 8.19538C184.031 8.50562 183.643 8.76414 183.204 8.94511C182.751 9.13901 182.273 9.22949 181.769 9.22949Z" fill="black"/>
<path d="M190.079 8.64791C189.963 8.7901 189.756 8.90644 189.459 9.0357C189.162 9.15204 188.8 9.21667 188.386 9.21667C188.063 9.21667 187.766 9.16497 187.495 9.07448C187.21 8.984 186.978 8.85473 186.758 8.67377C186.551 8.4928 186.383 8.28597 186.267 8.04037C186.151 7.79477 186.086 7.51039 186.086 7.18723C186.086 6.52798 186.319 6.03678 186.797 5.68777C187.275 5.33876 187.882 5.17071 188.645 5.17071C188.916 5.17071 189.175 5.19657 189.407 5.24827C189.653 5.29998 189.86 5.40339 190.053 5.58436C190.053 5.33876 190.015 5.13193 189.963 4.98974C189.898 4.83463 189.808 4.71829 189.692 4.64073C189.575 4.56317 189.433 4.49854 189.252 4.47269C189.071 4.43391 188.877 4.42098 188.658 4.42098C188.399 4.42098 188.167 4.45976 187.973 4.52439C187.779 4.58903 187.611 4.67951 187.469 4.77L186.836 3.91685C187.055 3.72296 187.34 3.56784 187.688 3.46443C188.024 3.36102 188.412 3.29639 188.826 3.29639C189.614 3.29639 190.247 3.49028 190.725 3.86515C191.204 4.24001 191.436 4.75707 191.436 5.41632V9.1779H190.053V8.67377L190.079 8.64791ZM190.066 6.72188C190.066 6.64432 190.028 6.57969 189.95 6.51506C189.873 6.45043 189.782 6.38579 189.666 6.33409C189.549 6.28238 189.433 6.2436 189.304 6.21775C189.175 6.1919 189.058 6.17897 188.942 6.17897C187.96 6.17897 187.482 6.50213 187.482 7.14845C187.482 7.41991 187.611 7.63965 187.869 7.8077C188.128 7.97574 188.438 8.0533 188.787 8.0533C188.903 8.0533 189.032 8.04037 189.175 8.01452C189.317 7.98867 189.459 7.94989 189.588 7.89818C189.717 7.84648 189.834 7.78184 189.924 7.71721C190.015 7.63965 190.066 7.5621 190.066 7.45868V6.72188Z" fill="black"/>
<path d="M192.857 2.08107L194.253 1.37012V9.1518H192.857V2.08107Z" fill="black"/>
<path d="M195.145 2.08107L196.54 1.37012V9.1518H195.145V2.08107Z" fill="black"/>
<path d="M198.893 6.90249C198.893 7.08346 198.944 7.2515 199.035 7.39369C199.125 7.53588 199.254 7.66515 199.409 7.75563C199.565 7.85904 199.733 7.9366 199.913 7.9883C200.094 8.04001 200.288 8.06586 200.482 8.06586C200.728 8.06586 200.947 8.04001 201.141 7.9883C201.322 7.9366 201.49 7.83319 201.619 7.70392L202.55 8.40195C202.278 8.69926 201.968 8.90608 201.606 9.02242C201.245 9.15168 200.857 9.21631 200.43 9.21631C199.435 9.21631 198.686 8.94486 198.195 8.45366C197.704 7.94953 197.458 7.22565 197.458 6.29495C197.458 5.8296 197.523 5.3901 197.665 5.00231C197.794 4.61452 198.001 4.29136 198.259 4.0199C198.518 3.74845 198.841 3.54163 199.216 3.39944C199.59 3.25725 200.004 3.17969 200.469 3.17969C201.335 3.17969 202.02 3.43822 202.537 3.94234C203.054 4.4594 203.312 5.20913 203.299 6.19154C203.299 6.29495 203.299 6.41129 203.299 6.52762C203.299 6.64396 203.299 6.7603 203.299 6.87664H198.893V6.90249ZM200.456 4.29136C200.004 4.29136 199.629 4.43355 199.345 4.71793C199.061 5.00231 198.905 5.35132 198.88 5.76497H201.904C201.878 5.35132 201.736 5.00231 201.477 4.71793C201.219 4.43355 200.87 4.29136 200.456 4.29136Z" fill="black"/>
<path d="M207.151 4.56317C206.919 4.45976 206.751 4.40806 206.647 4.40806C206.285 4.40806 206.027 4.52439 205.859 4.74414C205.704 4.96389 205.626 5.23535 205.626 5.57143V9.15204H204.23V3.33517H205.626V4.03319C205.704 3.80052 205.872 3.61955 206.104 3.49028C206.35 3.36102 206.621 3.29639 206.931 3.29639C207.203 3.29639 207.435 3.34809 207.629 3.4515L207.151 4.56317Z" fill="black"/>
<path d="M209.18 9.17795H210.666L213.781 3.34814H212.346L210.963 5.95928L209.593 3.34814H208.12L210.188 7.30362L209.18 9.17795Z" fill="black"/>
<path d="M126.108 13.3271C127.477 13.3271 127.645 12.1896 127.671 11.763V11.6079H120.292V13.3271H126.12H126.108Z" fill="black"/>
<path d="M136.123 11.6079C137.545 11.6079 137.725 12.7842 137.738 13.2237V13.3918H130.708V11.6079H136.123Z" fill="black"/>
<path d="M126.108 19.8164C127.477 19.8164 127.645 18.6789 127.671 18.2523V18.0972H120.292V19.8164H126.12H126.108Z" fill="black"/>
<path d="M126.108 22.9572C127.477 22.9572 127.645 21.9748 127.671 21.5482V21.3931H120.292V22.9572H126.12H126.108Z" fill="black"/>
<path d="M127.142 16.5068C128.512 16.5068 128.68 15.3693 128.693 14.9427V14.7876H120.215V16.5068H127.129H127.142Z" fill="black"/>
<path d="M126.586 32.29C127.956 32.29 128.124 31.1525 128.149 30.7259V30.5708H120.292V32.29H126.599H126.586Z" fill="black"/>
<path d="M122.179 32.2644V26.0339H126.224V29.3301H128.137V26.2019C128.137 24.2888 126.289 24.3018 126.289 24.3018H120.279V32.2515H122.192L122.179 32.2644Z" fill="black"/>
<path d="M130.153 16.52C129.843 17.2697 129.235 18.0453 128.305 18.8338L129.907 20.1394C130.889 19.1311 131.587 18.1229 131.988 17.1275C132.35 16.3132 132.569 15.0722 132.621 13.4047H135.994V11.6597H130.683C130.683 14.2449 130.515 15.8607 130.153 16.5071V16.52Z" fill="black"/>
<path d="M138.94 14.9302V18.0971H138.178V19.8293H138.992C138.992 19.8293 140.556 19.8293 140.556 17.9291V14.9302H138.927H138.94Z" fill="black"/>
<path d="M137.739 13.3657V18.0968H138.799V19.8289H137.687C137.687 19.8289 135.826 19.8289 135.826 17.9287V13.3657H137.739Z" fill="black"/>
<path d="M136.266 28.6192C136.266 28.6192 136.343 28.5287 136.382 28.49C137.118 27.6497 137.765 26.7061 138.295 25.6849C138.631 25.0386 138.928 24.3664 139.16 23.6684C139.354 23.0738 139.432 22.6214 139.16 22.0268C138.889 21.458 138.372 21.2124 137.816 21.2124H120.176V23.0867H137.429C136.847 24.793 135.8 26.1115 135.128 26.9517C134.986 27.1715 134.65 27.3395 134.495 27.5205C133.319 26.6156 132.492 26.0469 131.419 24.3277H129.326C130.45 26.1632 131.884 27.779 132.905 28.7356C132.595 28.9812 132.233 29.2009 131.807 29.3819C130.98 29.7438 129.881 30.0928 128.499 30.416L129.894 32.3032C131.807 31.7216 133.397 30.9977 134.637 30.1187C136.02 30.9848 137.816 31.7216 140.013 32.3032L141.357 30.2609C139.251 29.8085 137.545 29.2655 136.266 28.6322V28.6192Z" fill="black"/>
<path fill-rule="evenodd" clip-rule="evenodd" d="M33.3033 19.5061C33.3033 28.4124 26.0274 35.6641 17.0327 35.6641C8.03793 35.6641 0.800781 28.4124 0.800781 19.5061C0.800781 10.5999 8.06378 3.34814 17.0327 3.34814C26.0016 3.34814 33.3033 10.574 33.3033 19.5061Z" fill="#211613"/>
<path d="M0 19.5061C0 10.4317 7.4827 3.0249 16.7359 3.0249C25.9245 3.0249 33.4718 10.4447 33.4718 19.519C33.4718 28.5675 25.9374 35.9743 16.7359 36.0001V34.6429C25.175 34.6429 32.1019 27.8048 32.1149 19.5061C32.089 11.1944 25.175 4.36925 16.7359 4.35632C8.24518 4.36925 1.35697 11.1944 1.35697 19.5061C1.35697 27.8048 8.25811 34.6299 16.7359 34.6429V36.0001C7.49562 35.9743 0 28.5545 0 19.519L0 19.5061Z" fill="white"/>
<path d="M27.1262 28.0762H6.97852V29.4076H27.1262V28.0762Z" fill="white"/>
<path d="M19.7862 13.4823C21.1638 13.4823 22.2805 12.3653 22.2805 10.9875C22.2805 9.60963 21.1638 8.49268 19.7862 8.49268C18.4087 8.49268 17.292 9.60963 17.292 10.9875C17.292 12.3653 18.4087 13.4823 19.7862 13.4823Z" fill="white"/>
<path d="M20.2252 24.1593L17.0848 22.1816L19.6824 16.7913C20.2382 15.6537 19.7471 14.2577 18.6098 13.7148C17.4725 13.159 16.0768 13.6502 15.534 14.7877L12.5875 20.9277C12.1222 21.6774 12.2385 22.9184 12.9881 23.3967L15.1592 24.7669H13.0398C12.3807 24.7669 11.8379 25.3098 11.8379 25.969C11.8379 26.6283 12.3807 27.1712 13.0398 27.1712H19.6049C20.2899 27.1195 20.8843 26.6283 21.0523 25.9302C21.2203 25.2063 20.8714 24.4825 20.2382 24.1464L20.2252 24.1593Z" fill="white"/>
</g>
<defs>
<clipPath id="clip0_20_18065">
<rect width="214" height="36" fill="white"/>
</clipPath>
</defs>
</svg>
