<svg width="37" height="36" viewBox="0 0 37 36" fill="none" xmlns="http://www.w3.org/2000/svg">
<g clip-path="url(#clip0_20_18373)">
<path fill-rule="evenodd" clip-rule="evenodd" d="M36.8282 17.9932C36.8282 27.7164 28.7822 35.6333 18.8355 35.6333C8.88883 35.6333 0.885742 27.7164 0.885742 17.9932C0.885742 8.26992 8.91741 0.353027 18.8355 0.353027C28.7536 0.353027 36.8282 8.2417 36.8282 17.9932Z" fill="#211613"/>
<path fill-rule="evenodd" clip-rule="evenodd" d="M14.1051 10.0476C14.9769 10.0476 15.6914 9.35614 15.6914 8.50941C15.6914 7.66269 14.9769 6.97119 14.1051 6.97119C13.2333 6.97119 12.5331 7.66269 12.5331 8.50941C12.5331 9.35614 13.2333 10.0476 14.1051 10.0476ZM17.1777 17.3154C17.2778 16.8638 17.3206 16.384 17.3206 15.8759C17.3206 13.1946 15.9201 11.0073 14.1766 11.0073C12.433 11.0073 11.0325 13.1946 11.0325 15.8759C11.0325 16.3134 11.0611 16.7368 11.1468 17.146C9.97495 17.8375 9.24609 18.9524 9.24609 20.1801C9.24609 20.3777 9.26039 20.5612 9.28897 20.7446H12.1472V29.1272C12.1472 29.5506 12.5045 29.8893 12.9332 29.8893C13.362 29.8893 13.7193 29.5506 13.7193 29.1272V20.7446H14.3909V29.0566C14.3909 29.4659 14.7339 29.8187 15.177 29.8187C15.5914 29.8187 15.9487 29.48 15.9487 29.0566V20.7446H18.7355C18.7641 20.5612 18.7926 20.3777 18.7926 20.1801C18.7926 19.037 18.1638 18.021 17.1491 17.3013L17.1777 17.3154Z" fill="#EB6B8D"/>
<path fill-rule="evenodd" clip-rule="evenodd" d="M25.4097 8.39662C25.4097 9.24335 24.6808 9.93484 23.8377 9.93484C22.9945 9.93484 22.2656 9.24335 22.2656 8.39662C22.2656 7.54989 22.9659 6.8584 23.8377 6.8584C24.7094 6.8584 25.4097 7.564 25.4097 8.39662Z" fill="#22B2E9"/>
<path fill-rule="evenodd" clip-rule="evenodd" d="M26.1525 10.9511H21.3506C20.4646 10.9511 19.75 11.6285 19.75 12.4752V18.5858C19.75 18.8257 19.8072 19.0233 19.8929 19.2067C20.1073 19.9405 20.7504 20.1381 21.1363 20.6038V29.0429C21.1363 29.4521 21.565 29.8049 22.0795 29.8049C22.594 29.8049 23.037 29.4521 23.037 29.0429V22.4102H24.4661V29.0429C24.4661 29.4521 24.8948 29.8049 25.4093 29.8049C25.9238 29.8049 26.3526 29.4521 26.3526 29.0429V20.5474C26.867 20.1522 27.3529 19.8418 27.553 19.2632C27.6673 19.0656 27.7531 18.8257 27.7531 18.5717V12.4611C27.7531 11.6144 27.0242 10.937 26.1382 10.937L26.1525 10.9511Z" fill="#22B2E9"/>
<path d="M0 18.0071C0 8.10035 8.27462 0 18.5071 0C28.6682 0 37.0143 8.10035 37.0143 18.0071C37.0143 27.8855 28.6825 35.9718 18.5071 36V34.5182C27.8393 34.5182 35.4994 27.0529 35.5137 17.9929C35.4851 8.91886 27.8393 1.46766 18.5071 1.45355C9.11781 1.46766 1.50058 8.91886 1.50058 17.9929C1.50058 27.0529 9.1321 34.5041 18.5071 34.5182V36C8.28891 35.9718 0 27.8714 0 18.0071Z" fill="white"/>
</g>
<defs>
<clipPath id="clip0_20_18373">
<rect width="37" height="36" fill="white"/>
</clipPath>
</defs>
</svg>
