<svg width="64" height="64" viewBox="0 0 64 64" fill="none" xmlns="http://www.w3.org/2000/svg">
<circle cx="32" cy="32" r="32" fill="#074E9A"/>
<path d="M18.4474 55V9.90909H35.3565C38.8206 9.90909 41.7268 10.5549 44.0753 11.8466C46.4384 13.1383 48.2218 14.9143 49.4254 17.1747C50.6437 19.4205 51.2528 21.9744 51.2528 24.8366C51.2528 27.7282 50.6437 30.2969 49.4254 32.5426C48.2072 34.7884 46.4091 36.5571 44.0312 37.8487C41.6534 39.1257 38.7251 39.7642 35.2464 39.7642H24.0398V33.049H34.1456C36.1712 33.049 37.8298 32.6967 39.1214 31.9922C40.4131 31.2876 41.3672 30.3189 41.9837 29.0859C42.6148 27.853 42.9304 26.4366 42.9304 24.8366C42.9304 23.2367 42.6148 21.8277 41.9837 20.6094C41.3672 19.3911 40.4058 18.4444 39.0994 17.7692C37.8078 17.0793 36.1418 16.7344 34.1016 16.7344H26.6158V55H18.4474Z" fill="white"/>
</svg>
