<svg width="158" height="36" viewBox="0 0 158 36" fill="none" xmlns="http://www.w3.org/2000/svg">
<g clip-path="url(#clip0_20_17973)">
<path fill-rule="evenodd" clip-rule="evenodd" d="M116.603 17.8321C116.603 27.3639 108.818 35.1322 99.2028 35.1322C89.5872 35.1322 81.8584 27.3639 81.8584 17.8321C81.8584 8.30018 89.6291 0.545898 99.2028 0.545898C108.776 0.545898 116.603 8.28618 116.603 17.8321Z" fill="#211613"/>
<path fill-rule="evenodd" clip-rule="evenodd" d="M95.0098 10.1335C95.8344 10.1335 96.5332 9.44767 96.5332 8.62185C96.5332 7.79604 95.8484 7.09619 95.0098 7.09619C94.1713 7.09619 93.4864 7.78204 93.4864 8.62185C93.4864 9.46167 94.1713 10.1335 95.0098 10.1335ZM97.9728 17.3279C98.0706 16.88 98.0985 16.4041 98.0985 15.9142C98.0985 13.2548 96.7568 11.0993 95.0797 11.0993C93.4026 11.0993 92.0748 13.2688 92.0748 15.9142C92.0748 16.3481 92.1028 16.768 92.1866 17.174C91.0546 17.8458 90.3418 18.9516 90.3418 20.1833C90.3418 20.3792 90.3558 20.5612 90.3977 20.7292H93.151V29.0293C93.151 29.4492 93.4864 29.7852 93.9057 29.7852C94.325 29.7852 94.6604 29.4492 94.6604 29.0293V20.7292H95.3173V28.9593C95.3173 29.3652 95.6387 29.7152 96.072 29.7152C96.4633 29.7152 96.8127 29.3792 96.8127 28.9593V20.7292H99.4822C99.5241 20.5612 99.5381 20.3792 99.5381 20.1833C99.5381 19.0495 98.9371 18.0558 97.9588 17.3419L97.9728 17.3279Z" fill="#EB6B8D"/>
<path fill-rule="evenodd" clip-rule="evenodd" d="M105.883 8.49604C105.883 9.33585 105.199 10.0217 104.36 10.0217C103.521 10.0217 102.851 9.33585 102.851 8.49604C102.851 7.65623 103.521 6.98438 104.36 6.98438C105.199 6.98438 105.883 7.68422 105.883 8.49604Z" fill="#22B2E9"/>
<path fill-rule="evenodd" clip-rule="evenodd" d="M106.596 11.0293H101.984C101.131 11.0293 100.446 11.7011 100.446 12.541V18.5876C100.446 18.8256 100.502 19.0215 100.572 19.2035C100.782 19.9313 101.411 20.1273 101.774 20.5892V28.9453C101.774 29.3512 102.193 29.7011 102.682 29.7011C103.172 29.7011 103.605 29.3652 103.605 28.9453V22.3808H104.989V28.9453C104.989 29.3512 105.394 29.7011 105.897 29.7011C106.4 29.7011 106.805 29.3652 106.805 28.9453V20.5472C107.309 20.1553 107.756 19.8473 107.965 19.2875C108.091 19.0915 108.161 18.8536 108.161 18.6016V12.555C108.161 11.7151 107.462 11.0433 106.61 11.0433L106.596 11.0293Z" fill="#22B2E9"/>
<path d="M81.4531 18.0002C81.4531 8.20235 89.4055 0.196126 99.2447 0.182129C109.014 0.182129 117.022 8.18835 117.022 18.0002C117.022 27.77 109.014 35.7762 99.2447 35.8042V34.3345C108.203 34.3345 115.569 26.9582 115.597 17.9862C115.569 9.00017 108.203 1.63781 99.2447 1.62381C90.2301 1.63781 82.9066 9.00017 82.8927 17.9862C82.8927 26.9442 90.2162 34.3205 99.2447 34.3345V35.8042C89.4055 35.7622 81.4531 27.77 81.4531 18.0002Z" fill="white"/>
<path fill-rule="evenodd" clip-rule="evenodd" d="M75.8347 17.9999C75.8347 27.6297 68.092 35.468 58.5183 35.468C48.9447 35.468 41.2578 27.6157 41.2578 17.9999C41.2578 8.38399 48.9866 0.531738 58.5183 0.531738C68.05 0.531738 75.8347 8.342 75.8347 17.9999Z" fill="#211613"/>
<path d="M40.7402 18C40.7402 8.18819 48.7066 0.181966 58.5318 0.167969C68.3151 0.167969 76.3234 8.18819 76.3234 17.986C76.3234 27.7698 68.3011 35.7621 58.5318 35.8041V34.3344C67.5045 34.3344 74.8839 26.944 74.8979 17.972C74.8699 8.98601 67.5045 1.60965 58.5318 1.59565C49.5172 1.60965 42.1798 8.98601 42.1658 17.972C42.1658 26.93 49.5033 34.3204 58.5318 34.3344V35.8041C48.6926 35.7621 40.7402 27.7558 40.7402 17.986V18Z" fill="white"/>
<path d="M66.6519 20.4214C66.1627 19.0497 65.6456 17.9439 64.849 17.2441C63.8986 16.4322 63.074 16.1943 63.074 16.1943C63.8706 16.0543 64.5135 15.4385 64.6673 14.6546C64.4576 14.8086 64.1921 14.9066 63.9126 14.9066C63.2976 14.9066 62.7945 14.4587 62.6827 13.8848H62.6547V10.3856C62.6547 10.3856 62.6547 10.3436 62.6547 10.3296C62.6547 8.04811 60.8099 6.18652 58.5178 6.18652C56.2257 6.18652 54.3809 8.03411 54.3809 10.3296C54.3809 10.6235 54.4088 10.9175 54.4647 11.1974H54.9958V12.3731C54.9958 14.0808 56.3794 15.4805 58.0985 15.4805C58.1684 15.4805 58.2243 15.4805 58.2942 15.4805V16.1943C58.2942 16.1943 57.3717 16.2643 56.3794 16.8801C55.3871 17.496 54.6883 18.2378 54.6883 18.2378C54.6883 18.2378 55.1076 18.9377 55.2474 19.4136C55.443 20.1134 55.2474 20.8413 55.2474 20.8413C55.2474 20.8413 55.7365 20.8133 56.1838 20.9252C56.645 21.0372 56.7009 21.3871 57.0783 21.4291C57.8749 21.5131 58.1684 21.1072 58.1684 21.1072C58.1684 21.1072 58.2662 21.6671 58.7274 22.143C59.1886 22.6329 60.5583 22.9408 61.3969 22.3249C62.2215 21.7091 62.5289 21.0232 62.6268 20.8133C62.7246 20.6033 62.9342 19.9595 62.9342 19.9595C62.9342 19.9595 63.4514 20.6873 63.8706 21.3731C64.2899 22.059 64.835 22.8568 64.835 22.8568C64.835 22.8568 63.3396 24.2565 62.5429 25.0263C61.7463 25.7962 60.74 27.4478 60.125 27.9797C59.5101 28.4976 58.2243 28.6795 58.2243 28.6795C58.2243 28.6795 58.6016 29.1974 59.3843 29.5753C60.167 29.9532 61.2152 29.8833 61.886 29.3654C62.5569 28.8475 62.6827 27.9377 62.7386 27.6018C62.7805 27.2798 63.0041 26.608 63.3955 26.384C63.7868 26.1601 65.2263 25.5022 65.7714 24.9704C66.3165 24.4385 67.0851 23.4587 67.0851 23.4587C67.0851 23.4587 67.155 21.8071 66.6659 20.4494L66.6519 20.4214Z" fill="#EB6B8D"/>
<path d="M60.6563 24.8443C60.3768 24.3404 59.664 24.0885 58.7276 23.6126C57.7912 23.1227 57.6095 22.5768 56.8269 21.849C56.0442 21.1351 55.4432 21.3591 55.0379 21.3451C54.6326 21.3311 54.6047 21.2191 54.6047 21.2191C54.7864 20.8832 54.8842 20.4913 54.8842 20.0854C54.8842 18.7417 53.7941 17.6499 52.4523 17.6499C51.1106 17.6499 50.0205 18.7417 50.0205 20.0854C50.0205 21.4291 51.1106 22.5208 52.4523 22.5208C52.7039 22.5208 52.9555 22.4788 53.1791 22.4088C53.1512 23.0667 53.1791 24.3124 53.7382 24.9143C54.5208 25.7681 56.0302 26.426 57.358 26.7899C58.6857 27.1538 59.706 26.9158 60.3489 26.5099C61.0057 26.104 60.9498 25.3342 60.6703 24.8303L60.6563 24.8443Z" fill="#EB6B8D"/>
<path d="M51.1668 22.6326C51.1668 22.6326 51.4882 22.9406 51.8795 22.9826C52.2709 23.0246 52.76 22.9826 52.76 22.9826C52.76 22.9826 52.6622 24.0183 52.9837 24.5922C53.3051 25.1661 53.4728 25.558 54.4651 26.0619C55.4574 26.5658 55.9746 26.7337 56.1842 26.8457C56.3938 26.9577 56.3519 27.1676 56.8411 27.4336C57.3302 27.6995 58.057 27.7555 58.057 27.7555C58.057 27.7555 57.7355 28.3574 57.0787 28.6233C56.4218 28.8893 55.5273 28.9592 55.0661 28.5253C54.5909 28.0914 54.4372 27.7275 54.3952 27.4476C54.3533 27.1676 54.3953 26.6218 53.976 26.2718C53.5567 25.9359 52.4945 25.474 51.9634 24.9981C51.4323 24.5222 50.9012 23.9064 50.8313 23.5984C50.7615 23.2905 51.1668 22.6187 51.1668 22.6187V22.6326Z" fill="#EB6B8D"/>
<path d="M58.5318 35.8182C68.3579 35.8182 76.3234 27.8408 76.3234 18.0002C76.3234 8.15954 68.3579 0.182129 58.5318 0.182129C48.7058 0.182129 40.7402 8.15954 40.7402 18.0002C40.7402 27.8408 48.7058 35.8182 58.5318 35.8182Z" stroke="#888888" stroke-width="0.25" stroke-miterlimit="10"/>
<path fill-rule="evenodd" clip-rule="evenodd" d="M33.9342 17.7757C33.9342 27.4336 26.5548 35.2998 17.4424 35.2998C8.32995 35.2998 0.978516 27.4336 0.978516 17.7757C0.978516 8.11788 8.34393 0.265625 17.4424 0.265625C26.5408 0.265625 33.9342 8.10388 33.9342 17.7757Z" fill="#211613"/>
<path d="M0 18.0418C0 8.21602 8.00832 0.167805 17.8475 0.153809C27.6587 0.153809 35.695 8.21602 35.695 18.0278C35.695 27.8397 27.6587 35.8739 17.8475 35.8879V34.6001C26.932 34.5862 34.3812 27.1118 34.4092 18.0278C34.3952 8.92986 26.932 1.45552 17.8475 1.44152C8.7211 1.44152 1.31375 8.92986 1.29978 18.0278C1.31375 27.1118 8.7211 34.5862 17.8475 34.6001V35.8879C8.00832 35.8739 0 27.8257 0 18.0278L0 18.0418Z" fill="white"/>
<path d="M21.0058 11.0715C20.4747 11.0715 19.9995 11.1834 19.6222 11.4914C19.4265 11.6173 19.2169 11.7853 19.0911 12.0372C19.0212 12.1632 19.0212 12.3452 19.0212 12.5131V15.3825L16.9807 17.2301C16.785 17.3421 16.7012 17.58 16.7012 17.8319V18.1119C16.9108 18.3638 17.1764 18.4758 17.4279 18.5878C17.5118 18.6578 17.6236 18.6578 17.7494 18.6578C17.959 18.6578 18.2246 18.5878 18.3504 18.4058L20.6564 16.3203V14.5987L23.8709 17.398C24.2623 17.818 24.4579 18.3638 24.5418 18.8817C24.5977 19.1757 24.5977 19.4836 24.5977 19.7775V27.5598C24.5977 27.7417 24.7374 27.9097 24.8632 28.0357C24.9331 28.1477 25.0589 28.2036 25.1987 28.2736C25.5341 28.4976 25.8555 28.6375 26.191 28.6375H26.2469C26.4984 28.6375 26.764 28.6376 27.0435 28.4976C27.3649 28.3856 27.5746 28.1477 27.6445 27.8537C27.6445 27.7278 27.7144 27.6018 27.7144 27.4898V18.8817C27.7144 17.8739 27.5187 16.9082 27.0575 16.0124C26.722 15.4805 26.2608 14.9906 25.7437 14.6267L22.2497 11.4634C21.9143 11.1554 21.467 11.0435 20.9359 11.0435H21.0058V11.0715Z" fill="white"/>
<path d="M18.2389 8.02002C18.77 8.02002 19.3011 8.20198 19.6366 8.5659C20.0139 8.85983 20.2096 9.27974 20.2096 9.76963C20.2096 10.2595 20.0139 10.7074 19.6366 11.0154C19.3011 11.3793 18.77 11.5612 18.2389 11.5612C17.7079 11.5612 17.2466 11.3793 16.9252 11.0154C16.5199 10.7074 16.3242 10.2455 16.3242 9.82562V9.78363C16.3242 9.30773 16.5199 8.87383 16.9252 8.5799C17.2466 8.21598 17.7079 8.03402 18.2389 8.03402V8.02002Z" fill="white"/>
<path d="M11.0694 8.48193H9.62988V29.1693H11.0694V8.48193Z" fill="white"/>
<path d="M20.6152 18.042H20.9506C21.0764 18.112 21.2022 18.224 21.342 18.3359C21.342 18.4619 21.4119 18.5879 21.4119 18.7138C21.4119 18.7558 21.4119 18.8258 21.342 18.8258C21.342 19.0078 21.2721 19.0638 21.1323 19.1897L20.0142 20.2115L21.1323 21.5132C21.2721 21.6392 21.342 21.7512 21.342 21.9471C21.342 22.0591 21.342 22.2411 21.2721 22.353C21.1323 22.591 20.8808 22.7869 20.6152 22.8289H15.9332C15.6677 22.8289 15.4021 22.7729 15.2065 22.661C15.1366 22.661 15.0946 22.591 15.0946 22.591C15.0248 22.465 14.899 22.409 14.899 22.297C14.899 22.297 14.8757 22.2597 14.8291 22.1851V19.1897C14.8291 19.0638 14.899 19.0218 14.899 18.8958C14.9689 18.7698 15.0248 18.7278 15.1506 18.6579C15.2204 18.6019 15.3462 18.6019 15.486 18.6019H15.8214C15.8214 18.6019 16.0171 18.7278 16.087 18.8258C16.1568 18.9378 16.1568 19.0638 16.1568 19.1337V21.1073H18.7145L18.3231 20.6314C18.1973 20.5054 18.1275 20.3235 18.1275 20.1555V20.0995C18.2113 20.0295 18.2113 19.9736 18.2672 19.9176L20.1121 18.2379C20.2379 18.126 20.4475 18.056 20.6432 18.056L20.6152 18.042Z" fill="white"/>
<path d="M13.1651 20.1973C12.9136 20.1973 12.634 20.2393 12.4523 20.3092C12.1169 20.4352 11.9213 20.6732 11.7955 20.9811C11.7955 21.1491 11.7256 21.331 11.7256 21.457V21.513C11.7256 21.7509 11.7955 21.9889 11.9213 22.1848C12.061 22.4788 12.3266 22.6607 12.634 22.7167C12.7738 22.7867 12.9695 22.7867 13.1651 22.7867C13.4307 22.8427 13.6962 22.7867 13.9618 22.6747C14.2273 22.5347 14.4929 22.3108 14.5627 22.0029C14.6186 21.8209 14.6186 21.7089 14.6186 21.527C14.6186 21.289 14.5627 21.0511 14.4929 20.8131C14.3531 20.5892 14.1015 20.3372 13.7661 20.2672C13.5704 20.2253 13.3748 20.2253 13.1651 20.2253V20.1973Z" fill="white"/>
<path d="M21.677 23.5005V24.6482H11.7959V23.5005H21.677Z" fill="white"/>
<path fill-rule="evenodd" clip-rule="evenodd" d="M157.371 18.5601C157.371 27.966 149.558 35.6363 139.915 35.6363C130.271 35.6363 122.486 27.966 122.486 18.5601C122.486 9.15418 130.299 1.48389 139.915 1.48389C149.53 1.48389 157.371 9.12619 157.371 18.5601Z" fill="#211613"/>
<path d="M148.944 18.0284C149.586 18.0284 150.131 17.4825 150.131 16.8107C150.131 16.1388 149.6 15.6069 148.944 15.6069C148.287 15.6069 147.77 16.1388 147.77 16.8107C147.77 17.4825 148.287 18.0284 148.944 18.0284Z" fill="#F8B616"/>
<path d="M150.313 23.6833V20.0861C150.313 19.8622 150.649 19.8622 150.649 20.0861V22.7735C150.649 23.0535 150.872 23.2774 151.138 23.2774C151.417 23.2774 151.655 23.0535 151.655 22.7595V19.7082C151.655 19.0784 150.97 18.3225 150.187 18.3225H147.839C147.336 18.3645 147.015 18.4065 146.777 18.2805L144.024 17.3147C143.716 17.2168 143.367 17.2448 143.199 17.6227C143.06 17.9726 143.213 18.3225 143.661 18.4485L146.819 19.6522C147.532 19.9462 147.476 20.3101 147.476 20.506V23.3614V28.7922C147.476 29.1421 147.7 29.4361 148.049 29.4361C148.398 29.4361 148.664 29.1421 148.664 28.7922V24.3412C148.678 24.0472 149.097 24.0193 149.097 24.3412V28.7922C149.097 29.1421 149.377 29.4361 149.712 29.4361C150.076 29.4361 150.299 29.1421 150.299 28.7922V23.6553L150.313 23.6833Z" fill="#F8B616"/>
<path fill-rule="evenodd" clip-rule="evenodd" d="M135.344 16.8661C135.428 16.4182 135.484 15.9284 135.484 15.4245C135.484 12.7791 134.128 10.6235 132.479 10.6235C130.83 10.6235 129.474 12.7651 129.474 15.4245C129.474 15.8584 129.502 16.3063 129.572 16.6842C128.482 17.37 127.755 18.4758 127.755 19.7075C127.755 19.8755 127.755 20.0714 127.797 20.2114H130.55V28.5116C130.55 28.9315 130.9 29.2534 131.291 29.2534C131.71 29.2534 132.046 28.9315 132.046 28.5116V20.2114H132.688V28.4416C132.688 28.8475 133.038 29.1834 133.443 29.1834C133.848 29.1834 134.184 28.8475 134.184 28.4416V20.2114H136.853C136.881 20.0574 136.895 19.8615 136.895 19.7075C136.895 18.5598 136.294 17.552 135.344 16.8522V16.8661Z" fill="#EB6B8D"/>
<path fill-rule="evenodd" clip-rule="evenodd" d="M133.877 7.9503C133.877 8.8321 133.178 9.54595 132.339 9.54595C131.501 9.54595 130.802 8.8321 130.802 7.9503C130.802 7.0685 131.487 6.36865 132.339 6.36865C133.192 6.36865 133.877 7.09649 133.877 7.9503Z" fill="#EB6B8D"/>
<path fill-rule="evenodd" clip-rule="evenodd" d="M140.893 9.46229C141.689 9.46229 142.36 8.77644 142.36 7.92263C142.36 7.06882 141.689 6.39697 140.893 6.39697C140.096 6.39697 139.425 7.09682 139.425 7.92263C139.425 8.74845 140.082 9.46229 140.893 9.46229ZM143.24 10.736H138.698C137.888 10.736 137.217 11.4359 137.217 12.2897V18.3783C137.217 18.6023 137.273 18.8262 137.343 19.0082C137.524 19.736 138.125 19.96 138.503 20.4219V28.834C138.503 29.2539 138.908 29.6038 139.411 29.6038C139.914 29.6038 140.306 29.2539 140.306 28.834V22.2135H141.661V28.834C141.661 29.2539 142.039 29.6038 142.528 29.6038C143.017 29.6038 143.408 29.2539 143.408 28.834V20.3659C143.897 19.974 144.373 19.68 144.554 19.0782C144.666 18.8822 144.736 18.6442 144.736 18.3783V18.0984C144.736 17.8044 144.736 17.4965 144.736 17.1886V12.2897C144.736 11.4359 144.065 10.736 143.254 10.736H143.24Z" fill="#22B2E9"/>
<path d="M121.857 18.042C121.857 8.24418 129.964 0.209961 139.943 0.209961C149.88 0.209961 158 8.24418 158 18.042C158 27.8258 149.866 35.846 139.943 35.86V34.5723C149.125 34.5583 156.686 27.098 156.7 18.042C156.686 8.95802 149.125 1.51167 139.943 1.49767C130.69 1.51167 123.185 8.95802 123.171 18.042C123.199 27.098 130.69 34.5583 139.943 34.5723V35.86C129.964 35.846 121.857 27.8118 121.857 18.042Z" fill="white"/>
</g>
<defs>
<clipPath id="clip0_20_17973">
<rect width="158" height="36" fill="white"/>
</clipPath>
</defs>
</svg>
