<svg width="156" height="36" viewBox="0 0 156 36" fill="none" xmlns="http://www.w3.org/2000/svg">
<g clip-path="url(#clip0_20_18162)">
<path fill-rule="evenodd" clip-rule="evenodd" d="M115.37 17.5527C115.37 26.7967 107.801 34.3193 98.4378 34.3193C89.0751 34.3193 81.5469 26.7967 81.5469 17.5527C81.5469 8.30872 89.1159 0.786133 98.4378 0.786133C107.76 0.786133 115.37 8.28161 115.37 17.5527Z" fill="#211613"/>
<path fill-rule="evenodd" clip-rule="evenodd" d="M93.9936 10.0029C94.8089 10.0029 95.4748 9.33875 95.4748 8.53905C95.4748 7.73935 94.8089 7.0752 93.9936 7.0752C93.1783 7.0752 92.4988 7.7258 92.4988 8.53905C92.4988 9.3523 93.1647 10.0029 93.9936 10.0029ZM96.888 16.902C96.9831 16.4683 97.0103 16.021 97.0103 15.533C97.0103 12.9848 95.6922 10.911 94.0615 10.911C92.4309 10.911 91.1128 12.9984 91.1128 15.533C91.1128 15.9397 91.1399 16.3463 91.2215 16.7394C90.1208 17.39 89.4277 18.4472 89.4277 19.6264C89.4277 19.8162 89.4413 19.9924 89.4821 20.155H92.1727V28.1249C92.1727 28.5315 92.4988 28.8568 92.9065 28.8568C93.3142 28.8568 93.6403 28.5315 93.6403 28.1249V20.155H94.279V28.0571C94.279 28.4502 94.6051 28.7755 95.0263 28.7755C95.4068 28.7755 95.7466 28.4502 95.7466 28.0571V20.155H98.3692C98.41 19.9924 98.4236 19.8162 98.4236 19.6264C98.4236 18.5421 97.8392 17.5797 96.8744 16.8884L96.888 16.902Z" fill="#EB6B8D"/>
<path fill-rule="evenodd" clip-rule="evenodd" d="M104.633 8.43065C104.633 9.24391 103.954 9.89451 103.138 9.89451C102.323 9.89451 101.657 9.24391 101.657 8.43065C101.657 7.6174 102.309 6.9668 103.138 6.9668C103.967 6.9668 104.633 7.63095 104.633 8.43065Z" fill="#22B2E9"/>
<path fill-rule="evenodd" clip-rule="evenodd" d="M105.327 10.8568H100.815C99.9861 10.8568 99.3066 11.5074 99.3066 12.3071V18.1219C99.3066 18.3387 99.361 18.5285 99.4289 18.7047C99.6328 19.4095 100.244 19.5993 100.611 20.033V28.0571C100.611 28.4502 101.019 28.789 101.494 28.789C101.97 28.789 102.391 28.4637 102.391 28.0571V21.7544H103.737V28.0571C103.737 28.4502 104.144 28.789 104.633 28.789C105.123 28.789 105.517 28.4637 105.517 28.0571V19.9924C106.006 19.6264 106.454 19.3282 106.645 18.7725C106.767 18.5963 106.848 18.3523 106.848 18.1083V12.2936C106.848 11.4939 106.169 10.8433 105.327 10.8433V10.8568Z" fill="#22B2E9"/>
<path d="M80.7178 17.5527C80.7178 8.13251 88.5042 0.46082 98.1387 0.447266C107.705 0.447266 115.532 8.14606 115.532 17.5527C115.532 26.9322 107.692 34.6174 98.1387 34.6581V33.2485C106.917 33.2485 114.119 26.1596 114.146 17.5527C114.119 8.93221 106.917 1.8569 98.1387 1.84335C89.3059 1.8569 82.1446 8.93221 82.131 17.5527C82.131 26.1596 89.3059 33.2485 98.1387 33.2485V34.6581C88.5178 34.6174 80.7178 26.9458 80.7178 17.5527Z" fill="white"/>
<path fill-rule="evenodd" clip-rule="evenodd" d="M155.361 17.2685C155.361 26.5125 147.833 34.0351 138.524 34.0351C129.216 34.0351 121.742 26.5125 121.742 17.2685C121.742 8.02454 129.257 0.501953 138.524 0.501953C147.792 0.501953 155.361 7.99744 155.361 17.2685Z" fill="#211613"/>
<path d="M145.21 16.7536C145.876 16.7536 146.447 16.1979 146.447 15.5202C146.447 14.8425 145.876 14.3003 145.21 14.3003C144.544 14.3003 143.974 14.8425 143.974 15.5202C143.974 16.1979 144.517 16.7536 145.21 16.7536Z" fill="#F8B616"/>
<path d="M146.65 22.4597V18.8272C146.65 18.6103 147.004 18.6103 147.004 18.8272V21.5516C147.004 21.8362 147.235 22.0666 147.506 22.0666C147.792 22.0666 148.036 21.8362 148.036 21.5516V18.4612C148.036 17.8242 147.33 17.0651 146.487 17.0651H144.014C143.511 17.1194 143.144 17.16 142.913 17.0245L140.019 16.0486C139.679 15.9401 139.34 15.9672 139.149 16.3603C138.986 16.7127 139.176 17.0651 139.638 17.2007L142.954 18.407C143.702 18.7052 143.634 19.0712 143.634 19.288V22.1615V27.651C143.634 28.0034 143.878 28.3016 144.232 28.3016C144.598 28.3016 144.884 28.0034 144.884 27.651V23.1645C144.884 22.8663 145.346 22.8528 145.346 23.1645V27.651C145.346 28.0034 145.631 28.3016 145.998 28.3016C146.379 28.3016 146.61 28.0034 146.61 27.651V22.4597H146.65Z" fill="#F8B616"/>
<path fill-rule="evenodd" clip-rule="evenodd" d="M136.065 6.57412C136.065 7.48226 135.331 8.20063 134.462 8.20063C133.592 8.20063 132.845 7.48226 132.845 6.57412C132.845 5.66599 133.565 4.98828 134.462 4.98828C135.359 4.98828 136.065 5.70665 136.065 6.57412Z" fill="#EB6B8D"/>
<path d="M140.319 16.9026L138.131 11.7656C137.302 9.32581 135.046 9.33936 135.046 9.33936C135.046 9.33936 134 9.2987 133.837 9.33936L132.505 9.74599C131.486 10.2475 130.304 11.7791 130.304 12.7686V16.6315C130.304 17.0788 130.657 17.4312 131.065 17.4312C131.445 17.4312 131.812 17.0924 131.812 16.6586V12.9448C131.812 12.6195 132.328 12.6195 132.328 12.9719V13.1752C132.315 13.4327 132.274 13.6496 132.274 13.9207C132.274 14.3544 132.22 16.7942 132.274 17.1873C131.132 17.8785 129.638 19.0713 129.638 20.3183C129.638 20.4945 129.638 20.6707 129.678 20.8333H132.559V27.3529C132.559 27.7731 132.926 28.0984 133.347 28.0984C133.769 28.0984 134.149 27.7731 134.149 27.3529V20.8333H134.815V27.2716C134.815 27.6782 135.168 28.0171 135.603 28.0171C136.038 28.0171 136.391 27.6782 136.391 27.2716V20.8333H139.191C139.218 20.6707 139.231 20.4945 139.231 20.3183C139.231 19.1662 138.593 18.1496 137.601 17.4448C137.669 17.0517 137.723 15.3168 137.737 14.5035L139 17.4719C139.109 17.743 139.381 17.9192 139.666 17.9192C139.761 17.9192 139.857 17.8921 139.938 17.8514C140.305 17.7023 140.468 17.2686 140.319 16.9162V16.9026Z" fill="#EB6D8E"/>
<path d="M121.09 17.5665C121.09 8.14631 128.917 0.42041 138.552 0.42041C148.145 0.42041 156 8.14631 156 17.5665C156 26.9731 148.132 34.699 138.552 34.699V33.4656C147.425 33.452 154.722 26.2819 154.749 17.5665C154.736 8.83758 147.439 1.6674 138.552 1.65384C129.61 1.6674 122.381 8.83758 122.354 17.5665C122.381 26.2819 129.61 33.452 138.552 33.4656V34.699C128.917 34.699 121.09 26.9731 121.09 17.5665Z" fill="white"/>
<path fill-rule="evenodd" clip-rule="evenodd" d="M74.5897 17.4172C74.5897 26.729 67.0615 34.3194 57.7667 34.3194C48.4719 34.3194 40.998 26.729 40.998 17.4172C40.998 8.1055 48.5127 0.515137 57.7667 0.515137C67.0207 0.515137 74.5897 8.07839 74.5897 17.4172Z" fill="#211613"/>
<path d="M40.5088 17.4171C40.5088 7.92916 48.2408 0.176152 57.7938 0.162598C67.2924 0.162598 75.0788 7.91561 75.0788 17.4036C75.0788 26.8644 67.2924 34.6039 57.7938 34.6445V33.2213C66.5178 33.2213 73.6792 26.0647 73.6928 17.39C73.6656 8.6882 66.5043 1.55868 57.7938 1.54513C49.029 1.55868 41.9084 8.6882 41.8949 17.39C41.8949 26.0647 49.029 33.2078 57.7938 33.2213V34.6445C48.2408 34.6039 40.5088 26.8644 40.5088 17.4036V17.4171Z" fill="white"/>
<path d="M65.6616 19.762C65.186 18.4337 64.6832 17.3629 63.9087 16.6988C62.9846 15.9126 62.1829 15.6822 62.1829 15.6822C62.9575 15.5467 63.5826 14.9503 63.732 14.1913C63.5282 14.3404 63.27 14.4352 62.9982 14.4352C62.4003 14.4352 61.9111 14.0015 61.8024 13.4458H61.7752V10.0708C61.7752 10.0708 61.7752 10.0301 61.7752 10.0166C61.7752 7.80722 59.9815 6.01807 57.7665 6.01807C55.5515 6.01807 53.7578 7.80722 53.7578 10.0166C53.7578 10.3012 53.785 10.5858 53.8393 10.8569H54.3557V11.9955C54.3557 13.6491 55.701 14.991 57.3589 14.991C57.4268 14.991 57.4812 14.991 57.5491 14.991V15.6822C57.5491 15.6822 56.6522 15.75 55.6874 16.3464C54.7226 16.9428 54.0432 17.6476 54.0432 17.6476C54.0432 17.6476 54.4508 18.3253 54.5867 18.7861C54.777 19.4638 54.5867 20.1687 54.5867 20.1687C54.5867 20.1687 55.0623 20.1416 55.4972 20.25C55.9456 20.3584 56 20.6973 56.3669 20.7379C57.1414 20.8193 57.4268 20.4262 57.4268 20.4262C57.4268 20.4262 57.5219 20.9684 57.9704 21.4292C58.4188 21.9036 59.7505 22.2018 60.5658 21.6054C61.3676 21.009 61.6665 20.3449 61.7616 20.1416C61.8568 19.9382 62.0606 19.3283 62.0606 19.3283C62.0606 19.3283 62.5634 20.0331 62.9711 20.6973C63.3787 21.3614 63.9087 22.134 63.9087 22.134C63.9087 22.134 62.4547 23.4895 61.6801 24.2349C60.9055 24.9804 59.9271 26.5798 59.3292 27.0813C58.7313 27.5828 57.4812 27.759 57.4812 27.759C57.4812 27.759 57.8481 28.2605 58.609 28.6265C59.37 28.9925 60.3892 28.9247 61.0414 28.4232C61.6937 27.9217 61.816 27.0407 61.8568 26.7154C61.8975 26.4036 62.115 25.753 62.4954 25.5361C62.8759 25.3193 64.2756 24.6822 64.8055 24.1672C65.3355 23.6521 66.0829 22.7033 66.0829 22.7033C66.0829 22.7033 66.1508 21.1175 65.6752 19.7892L65.6616 19.762Z" fill="#EB6B8D"/>
<path d="M59.8597 24.045C59.5879 23.557 58.8949 23.3266 57.9844 22.8522C57.074 22.3778 56.8973 21.8492 56.1363 21.1444C55.3754 20.4531 54.791 20.67 54.397 20.6564C54.0029 20.6429 53.9757 20.5344 53.9757 20.5344C54.1524 20.2091 54.2475 19.8432 54.2475 19.4366C54.2475 18.1354 53.1875 17.0781 51.883 17.0781C50.5785 17.0781 49.5186 18.1354 49.5186 19.4366C49.5186 20.7378 50.5785 21.795 51.883 21.795C52.1276 21.795 52.3586 21.7543 52.5896 21.6866C52.5625 22.3236 52.5896 23.5299 53.1332 24.1128C53.8942 24.926 55.3618 25.5766 56.6527 25.929C57.9436 26.2814 58.922 26.051 59.5607 25.6579C60.1994 25.2649 60.145 24.5194 59.8733 24.0314L59.8597 24.045Z" fill="#EB6B8D"/>
<path d="M50.6328 21.9037C50.6328 21.9037 50.9454 22.2019 51.3259 22.2425C51.7064 22.2832 52.182 22.2425 52.182 22.2425C52.182 22.2425 52.0868 23.232 52.3994 23.8013C52.7119 24.3706 52.875 24.7365 53.8398 25.2245C54.8046 25.7124 55.3074 25.8751 55.5112 25.9835C55.7151 26.0919 55.6743 26.2953 56.1499 26.5528C56.6255 26.8103 57.3321 26.8645 57.3321 26.8645C57.3321 26.8645 57.0196 27.4474 56.3809 27.7049C55.7422 27.9624 54.8861 28.0302 54.4241 27.61C53.9621 27.1898 53.8126 26.8374 53.7719 26.5663C53.7311 26.2953 53.7719 25.7666 53.3642 25.4278C52.9565 25.0889 51.9238 24.6552 51.4074 24.1944C50.891 23.7335 50.3746 23.1371 50.3067 22.8389C50.2388 22.5407 50.6328 21.8901 50.6328 21.8901V21.9037Z" fill="#EB6B8D"/>
<path d="M57.7938 34.6582C67.3401 34.6582 75.0788 26.9392 75.0788 17.4172C75.0788 7.89531 67.3401 0.17627 57.7938 0.17627C48.2476 0.17627 40.5088 7.89531 40.5088 17.4172C40.5088 26.9392 48.2476 34.6582 57.7938 34.6582Z" stroke="#888888" stroke-width="0.25" stroke-miterlimit="10"/>
<path fill-rule="evenodd" clip-rule="evenodd" d="M32.9665 18.4744C32.9665 27.8132 25.7916 35.4307 16.9452 35.4307C8.09891 35.4307 0.951172 27.8132 0.951172 18.4744C0.951172 9.13554 8.1125 1.51807 16.9317 1.51807C25.7508 1.51807 32.9529 9.09487 32.9529 18.4608L32.9665 18.4744Z" fill="#211613"/>
<path d="M0 18.7185C0 9.21702 7.77282 1.42334 17.3258 1.42334C26.8516 1.42334 34.6652 9.21702 34.6652 18.7185C34.6652 28.22 26.8516 35.9866 17.3258 36.0001V34.7532C26.1449 34.7396 33.3878 27.5017 33.415 18.7185C33.4014 9.92183 26.1585 2.68388 17.3258 2.67033C8.46585 2.67033 1.26376 9.90828 1.25017 18.7185C1.26376 27.5017 8.46585 34.7396 17.3258 34.7532V36.0001C7.77282 35.9866 0 28.2065 0 18.7185Z" fill="white"/>
<path d="M20.4101 11.9685C19.8937 11.9685 19.4452 12.0769 19.0784 12.3751C18.8881 12.4971 18.6843 12.6598 18.562 12.9038C18.494 13.0257 18.494 13.2019 18.494 13.3646V16.1432L16.5101 17.9324C16.3198 18.0408 16.2383 18.2712 16.2383 18.5152V18.7863C16.4421 19.0303 16.7003 19.1387 16.9449 19.2471C17.0264 19.3149 17.1351 19.3149 17.2574 19.3149C17.4613 19.3149 17.7059 19.2471 17.8418 19.0709L20.0703 17.0513V15.3842L23.1958 18.095C23.5763 18.5016 23.7665 19.0303 23.848 19.5318C23.9024 19.8164 23.9024 20.1146 23.9024 20.3992V27.9354C23.9024 28.1116 24.0383 28.2742 24.1606 28.3962C24.2285 28.5047 24.3508 28.5589 24.4867 28.6266C24.8128 28.8435 25.1254 28.9791 25.4515 28.9791H25.5059C25.7505 28.9791 26.0087 28.9791 26.2804 28.8435C26.593 28.7351 26.7968 28.5047 26.8648 28.22C26.8648 28.098 26.9327 27.976 26.9327 27.8676V19.5318C26.9327 18.5559 26.7425 17.6206 26.294 16.7532C25.9679 16.2381 25.5195 15.7637 25.0167 15.4113L21.6195 12.348C21.2933 12.0498 20.8585 11.9414 20.3421 11.9414H20.4101V11.9685Z" fill="white"/>
<path d="M17.7201 9.01367C18.2364 9.01367 18.7528 9.18988 19.079 9.54229C19.4459 9.82692 19.6361 10.2336 19.6361 10.6944C19.6361 11.1552 19.4459 11.6025 19.079 11.9007C18.7528 12.2531 18.2364 12.4293 17.7201 12.4293C17.2037 12.4293 16.7553 12.2531 16.4427 11.9007C16.0486 11.6025 15.8584 11.1552 15.8584 10.7486V10.7079C15.8584 10.2471 16.0486 9.82693 16.4427 9.55584C16.7553 9.20343 17.2037 9.02723 17.7201 9.02723V9.01367Z" fill="white"/>
<path d="M10.7628 9.46094H9.34961V29.4941H10.7628V9.46094Z" fill="white"/>
<path d="M20.0165 18.7188H20.3426C20.4649 18.7865 20.5872 18.895 20.7231 19.0034C20.7231 19.1254 20.7911 19.2474 20.7911 19.3694C20.7911 19.41 20.7911 19.4778 20.7231 19.4778C20.7231 19.654 20.6552 19.7082 20.5193 19.8302L19.4322 20.8197L20.5193 22.0802C20.6552 22.2022 20.7231 22.3106 20.7231 22.4868C20.7231 22.5953 20.7231 22.7715 20.6552 22.8799C20.5193 23.1103 20.2747 23.3001 20.0165 23.3407H15.4778C15.2196 23.3407 14.9614 23.2865 14.7712 23.1781C14.7033 23.1781 14.6625 23.1103 14.6625 23.1103C14.5945 22.9883 14.4722 22.9341 14.4722 22.8257C14.4722 22.8257 14.4496 22.7895 14.4043 22.7172V19.8166C14.4043 19.6947 14.4722 19.654 14.4722 19.532C14.5402 19.41 14.5945 19.3694 14.7168 19.3016C14.7848 19.2474 14.9071 19.2474 15.043 19.2474H15.3691C15.3691 19.2474 15.5593 19.3694 15.6273 19.4642C15.6952 19.5727 15.6952 19.6947 15.6952 19.7624V21.6736H18.182L17.8015 21.2127C17.6792 21.0907 17.6113 20.9145 17.6113 20.7519V20.6977C17.6928 20.6299 17.6928 20.5757 17.7472 20.5215L19.5409 18.895C19.6632 18.7865 19.867 18.7188 20.0573 18.7188H20.0165Z" fill="white"/>
<path d="M12.7873 20.8057C12.5427 20.8057 12.271 20.8463 12.0943 20.9141C11.7682 21.0361 11.5779 21.2665 11.4556 21.5647C11.4556 21.7274 11.3877 21.9036 11.3877 22.0255V22.0798C11.3877 22.3102 11.4556 22.5406 11.5779 22.7304C11.7138 23.015 11.972 23.1912 12.271 23.2454C12.4069 23.3132 12.5971 23.3132 12.7873 23.3132C13.0455 23.3674 13.3037 23.3132 13.5619 23.2048C13.8201 23.0692 14.0783 22.8523 14.1462 22.5542C14.2006 22.378 14.2006 22.2695 14.2006 22.0933C14.2006 21.8629 14.1462 21.6325 14.0783 21.402C13.9424 21.1852 13.6978 20.9412 13.3717 20.8734C13.1814 20.8328 12.9912 20.8328 12.7873 20.8328V20.8057Z" fill="white"/>
<path d="M21.0488 24.0049V25.1028H11.4551V24.0049H21.0488Z" fill="white"/>
</g>
<defs>
<clipPath id="clip0_20_18162">
<rect width="156" height="36" fill="white"/>
</clipPath>
</defs>
</svg>
