<svg width="326" height="36" viewBox="0 0 326 36" fill="none" xmlns="http://www.w3.org/2000/svg">
<g clip-path="url(#clip0_20_18287)">
<path d="M167.179 18.0415C167.179 8.76629 174.698 1.23877 183.963 1.23877C193.227 1.23877 200.746 8.75253 200.746 18.0415C200.746 27.3305 193.241 34.8443 183.963 34.8443C174.684 34.8443 167.179 27.3305 167.179 18.0415Z" fill="#211613"/>
<path d="M194.259 18.3166C195.977 18.3166 197.379 19.7203 197.379 21.4404C197.379 23.1606 195.977 24.5643 194.259 24.5643C192.541 24.5643 191.139 23.1606 191.139 21.4404C191.139 20.7799 191.345 20.1606 191.689 19.6652H192.816C192.568 19.8716 192.445 20.1193 192.445 20.4083C192.445 20.6148 192.513 20.7799 192.623 20.945C192.747 21.0964 192.912 21.2203 193.132 21.3028C193.434 21.4129 193.723 21.5092 194.012 21.5505V23.1056C193.737 23.0918 193.517 22.9955 193.324 22.8166C193.187 22.6927 193.104 22.5001 193.049 22.2386L192.335 22.3349C192.362 22.5964 192.445 22.8028 192.609 22.9817C192.761 23.1606 192.953 23.2845 193.173 23.367C193.393 23.4496 193.668 23.5047 194.012 23.5322V24.0276H194.41V23.5322C194.891 23.5184 195.29 23.3946 195.592 23.1606C195.895 22.9267 196.046 22.6514 196.046 22.3074C196.046 22.156 196.005 22.0047 195.936 21.867C195.867 21.7432 195.757 21.6193 195.62 21.523C195.482 21.4267 195.304 21.3441 195.098 21.2753C194.988 21.2478 194.754 21.1927 194.41 21.1239V19.7065C194.63 19.734 194.809 19.8028 194.946 19.8992C195.07 19.9955 195.166 20.1469 195.207 20.3258L195.922 20.257C195.854 19.9404 195.675 19.7065 195.372 19.5138C195.139 19.3762 194.823 19.2936 194.424 19.2661V19.0322H194.025V19.2661C193.682 19.2936 193.407 19.3487 193.187 19.4313V18.4817C193.53 18.3579 193.888 18.2891 194.273 18.2891L194.259 18.3166Z" fill="white"/>
<path d="M183.688 0.660645C193.242 0.660645 201.008 8.43587 201.008 18.0001C201.008 27.5643 193.242 35.3395 183.688 35.3395C174.135 35.3395 166.368 27.5643 166.368 18.0001C166.368 8.43587 174.148 0.660645 183.688 0.660645ZM199.675 18.0001C199.675 9.17899 192.499 1.99551 183.688 1.99551C174.877 1.99551 167.702 9.17899 167.702 18.0001C167.702 26.8212 174.877 34.0047 183.688 34.0047C192.499 34.0047 199.675 26.8212 199.675 18.0001Z" fill="white"/>
<path d="M195.166 21.8947C195.29 22.0048 195.345 22.1561 195.345 22.335C195.345 22.5415 195.262 22.7204 195.084 22.8717C194.905 23.0094 194.685 23.0919 194.424 23.1194V21.647C194.795 21.7158 195.042 21.7983 195.166 21.9084V21.8947Z" fill="white"/>
<path d="M194.012 19.6929V21.0553C193.695 21.0002 193.475 20.9176 193.338 20.7938C193.201 20.6837 193.132 20.5323 193.132 20.3672C193.132 20.202 193.214 20.0507 193.366 19.9268C193.517 19.803 193.737 19.7204 194.012 19.6929Z" fill="white"/>
<path d="M193.187 18.5093V19.4588C193.104 19.4863 193.035 19.5276 192.981 19.5551C192.926 19.5827 192.871 19.624 192.829 19.6652H191.702C192.06 19.1423 192.582 18.7295 193.187 18.5093Z" fill="white"/>
<path d="M193.187 11.9586V17.7934C192.211 18.0824 191.386 18.7705 190.919 19.6512H189.159V11.9448H193.187V11.9586ZM191.812 17.009V13.8852C191.812 13.7063 191.743 13.5549 191.62 13.4311C191.51 13.321 191.345 13.2384 191.166 13.2384C190.809 13.2384 190.52 13.5274 190.52 13.8852V17.009C190.52 17.1879 190.589 17.3531 190.712 17.4632C190.822 17.5733 190.987 17.6558 191.166 17.6558C191.523 17.6558 191.812 17.3668 191.812 17.009Z" fill="white"/>
<path d="M188.183 6.68799V29.0366H174.767V6.68799H188.183ZM187.454 24.2063V22.3761H185.777V24.2063H187.454ZM187.454 20.6834V18.8531H185.777V20.6834H187.454ZM187.454 18.0687V16.2384H185.777V18.0687H187.454ZM187.454 15.454V13.6238H185.777V15.454H187.454ZM187.454 12.8394V11.0091H185.777V12.8394H187.454ZM187.454 10.2247V8.39441H185.777V10.2247H187.454ZM184.884 28.0045V7.47239H175.646V27.9907H184.884V28.0045Z" fill="white"/>
<path d="M184.059 8.18799V27.1513H176.32V8.18799H184.059ZM183.248 26.5595V23.0366H177.296V26.5595H183.248Z" fill="white"/>
<path fill-rule="evenodd" clip-rule="evenodd" d="M118.009 17.8349C118.009 27.3303 110.256 35.0643 100.662 35.0643C91.0669 35.0643 83.3691 27.3303 83.3691 17.8349C83.3691 8.3395 91.1219 0.591797 100.662 0.591797C110.201 0.591797 118.009 8.29822 118.009 17.8212V17.8349Z" fill="#211613"/>
<path fill-rule="evenodd" clip-rule="evenodd" d="M96.4831 10.1555C97.3078 10.1555 97.9951 9.48114 97.9951 8.64169C97.9951 7.80224 97.3078 7.12793 96.4831 7.12793C95.6583 7.12793 94.971 7.80224 94.971 8.64169C94.971 9.48114 95.6446 10.1555 96.4831 10.1555ZM99.4384 17.3252C99.5347 16.8848 99.5622 16.4169 99.5622 15.9077C99.5622 13.2655 98.2288 11.105 96.5518 11.105C94.8748 11.105 93.5552 13.2655 93.5552 15.9077C93.5552 16.3344 93.5827 16.761 93.6651 17.16C92.538 17.8344 91.8369 18.9353 91.8369 20.16C91.8369 20.3527 91.8507 20.5454 91.8919 20.7105H94.6273V28.9811C94.6273 29.394 94.9573 29.738 95.3696 29.738C95.782 29.738 96.1119 29.394 96.1119 28.9811V20.7105H96.7717V28.9123C96.7717 29.3252 97.0879 29.6555 97.5278 29.6555C97.9126 29.6555 98.27 29.3114 98.27 28.9123V20.7105H100.937C100.978 20.5454 100.992 20.3527 100.992 20.16C100.992 19.0316 100.387 18.0408 99.4247 17.3252H99.4384Z" fill="#EB6B8D"/>
<path fill-rule="evenodd" clip-rule="evenodd" d="M107.314 8.53183C107.314 9.37128 106.627 10.0456 105.802 10.0456C104.977 10.0456 104.304 9.37128 104.304 8.53183C104.304 7.69238 104.977 7.01807 105.802 7.01807C106.627 7.01807 107.314 7.70614 107.314 8.53183Z" fill="#22B2E9"/>
<path fill-rule="evenodd" clip-rule="evenodd" d="M108.029 11.0503H103.424C102.572 11.0503 101.885 11.7246 101.885 12.5503V18.5778C101.885 18.8118 101.94 19.0044 102.008 19.1833C102.228 19.9127 102.847 20.1053 103.204 20.5732V28.8989C103.204 29.3118 103.617 29.642 104.112 29.642C104.606 29.642 105.033 29.298 105.033 28.8989V22.3622H106.407V28.8989C106.407 29.3118 106.806 29.642 107.314 29.642C107.823 29.642 108.222 29.298 108.222 28.8989V20.5319C108.717 20.1466 109.17 19.8439 109.376 19.2659C109.5 19.0732 109.569 18.8255 109.569 18.5778V12.5503C109.569 11.7108 108.868 11.0503 108.029 11.0503Z" fill="#22B2E9"/>
<path d="M82.9707 17.9999C82.9707 8.22921 90.9021 0.26132 100.703 0.247559C110.449 0.247559 118.422 8.22921 118.422 17.9999C118.422 27.743 110.449 35.7109 100.703 35.7521V34.2934C109.638 34.2934 116.978 26.931 117.006 17.9999C116.978 9.0549 109.638 1.70627 100.703 1.69251C91.7132 1.70627 84.414 9.0549 84.4003 17.9999C84.4003 26.931 91.7132 34.2797 100.703 34.2934V35.7521C90.9021 35.7109 82.9707 27.743 82.9707 17.9999Z" fill="white"/>
<path fill-rule="evenodd" clip-rule="evenodd" d="M283.209 17.6009C283.209 27.3028 275.773 35.2018 266.59 35.2018C257.408 35.2018 250.013 27.3028 250.013 17.6009C250.013 7.89908 257.436 0 266.59 0C275.745 0 283.209 7.87156 283.209 17.6009Z" fill="#211613"/>
<path d="M248.624 18.0411C248.624 8.18793 256.693 0.0961914 266.604 0.0961914C276.473 0.0961914 284.584 8.2017 284.584 18.0411C284.584 27.8806 276.473 35.9861 266.604 35.9861V34.6788C275.759 34.665 283.278 27.1512 283.278 18.0411C283.278 8.90353 275.759 1.40353 266.604 1.38977C257.408 1.40353 249.944 8.90353 249.93 18.0411C249.944 27.1788 257.408 34.665 266.604 34.6788V35.9861C256.693 35.9861 248.624 27.8806 248.624 18.0411Z" fill="white"/>
<path d="M265.779 5.10556V12.6331C265.518 12.6331 265.312 12.7845 265.092 13.0046C264.886 13.156 264.721 13.4175 264.68 13.734C264.473 14.2707 264.363 14.7386 264.363 15.3028C264.198 16.1423 264.198 17.0505 264.198 17.9312C264.198 18.812 264.198 19.6652 264.363 20.5459C264.418 21.179 264.473 21.867 264.57 22.5826C264.68 22.8991 264.776 23.2157 264.996 23.4909C265.092 23.6423 265.202 23.8074 265.408 23.8487C265.518 23.9037 265.669 23.9037 265.766 23.9037V31.2523C265.298 31.3074 264.762 31.101 264.35 30.8395C263.621 30.3716 263.03 29.7936 262.549 29.1056C262.494 28.9542 262.398 28.8441 262.288 28.734C261.133 26.9588 260.46 24.9083 260.185 22.7478C259.937 21.1101 259.868 19.5001 259.868 17.8212C259.827 15.0413 260.35 12.2065 261.353 9.52299C261.655 8.84868 261.972 8.21565 262.398 7.63767C262.92 6.8395 263.539 6.20648 264.391 5.62849C264.748 5.36703 265.284 5.1606 265.752 5.0918L265.779 5.10556Z" fill="white"/>
<path d="M269.986 5.05029H266.811V12.5641H269.986V5.05029Z" fill="white"/>
<path d="M269.986 23.876H266.811V31.3897H269.986V23.876Z" fill="white"/>
<path fill-rule="evenodd" clip-rule="evenodd" d="M159.44 17.697C159.44 27.2612 151.797 35.0639 142.354 35.0639C132.91 35.0639 125.309 27.2749 125.309 17.697C125.309 8.11898 132.938 0.34375 142.34 0.34375C151.742 0.34375 159.426 8.10522 159.426 17.7107L159.44 17.697Z" fill="#211613"/>
<path d="M149.13 17.1742C149.803 17.1742 150.381 16.5962 150.381 15.8944C150.381 15.1925 149.803 14.6421 149.13 14.6421C148.456 14.6421 147.879 15.2063 147.879 15.8944C147.879 16.5825 148.442 17.1742 149.13 17.1742Z" fill="#F8B616"/>
<path d="M150.587 23.078V19.3211C150.587 19.0872 150.958 19.0872 150.958 19.3211V22.1422C150.958 22.445 151.192 22.6652 151.481 22.6652C151.769 22.6652 152.017 22.4175 152.017 22.1285V18.9358C152.017 18.289 151.302 17.4909 150.45 17.4909H147.948C147.426 17.5459 147.068 17.5872 146.834 17.4496L143.893 16.445C143.549 16.3349 143.192 16.3624 143.013 16.7753C142.848 17.1468 143.027 17.4909 143.508 17.656L146.876 18.9083C147.632 19.211 147.577 19.5964 147.577 19.8165V22.789V28.4725C147.577 28.8303 147.824 29.1468 148.182 29.1468C148.566 29.1468 148.855 28.8441 148.855 28.4725V23.8211C148.855 23.5184 149.322 23.4909 149.322 23.8211V28.4725C149.322 28.8303 149.625 29.1468 149.982 29.1468C150.367 29.1468 150.615 28.8441 150.615 28.4725V23.1055L150.587 23.078Z" fill="#F8B616"/>
<path fill-rule="evenodd" clip-rule="evenodd" d="M139.838 6.61906C139.838 7.55484 139.096 8.29796 138.202 8.29796C137.309 8.29796 136.566 7.55484 136.566 6.61906C136.566 5.68328 137.295 4.98145 138.202 4.98145C139.109 4.98145 139.838 5.72456 139.838 6.61906Z" fill="#EB6B8D"/>
<path d="M144.168 17.3253L141.955 11.9996C141.103 9.46748 138.821 9.48124 138.821 9.48124C138.821 9.48124 137.749 9.43995 137.597 9.48124L136.236 9.90784C135.206 10.417 133.996 12.0133 133.996 13.0317V17.0225C133.996 17.4904 134.353 17.862 134.766 17.862C135.164 17.862 135.522 17.5042 135.522 17.0638V13.2106C135.522 12.8666 136.044 12.8666 136.044 13.2381V13.4583C136.03 13.7198 135.989 13.9537 135.989 14.2289C135.989 14.6693 135.92 17.2014 135.989 17.6005C134.834 18.3161 133.309 19.5546 133.309 20.8345C133.309 21.0133 133.309 21.206 133.35 21.3711H136.278V28.1143C136.278 28.5546 136.649 28.8849 137.075 28.8849C137.501 28.8849 137.886 28.5546 137.886 28.1143V21.3711H138.573V28.0455C138.573 28.4583 138.931 28.8161 139.371 28.8161C139.81 28.8161 140.168 28.4583 140.168 28.0455V21.3711H143.013C143.054 21.206 143.068 21.0133 143.068 20.8345C143.068 19.6372 142.408 18.5913 141.405 17.862C141.487 17.4491 141.529 15.6601 141.542 14.8207L142.821 17.8895C142.945 18.1785 143.219 18.3436 143.494 18.3436C143.591 18.3436 143.687 18.3161 143.783 18.2748C144.154 18.1234 144.319 17.6831 144.168 17.2978V17.3253Z" fill="#EB6D8E"/>
<path d="M124.635 17.9999C124.635 8.25673 132.58 0.247559 142.367 0.247559C152.099 0.247559 160.086 8.24297 160.099 17.9999C160.099 27.743 152.113 35.7384 142.367 35.7384V34.4586C151.384 34.4448 158.794 27.0274 158.807 17.9999C158.794 8.95857 151.384 1.54114 142.367 1.51361C133.295 1.52738 125.941 8.95857 125.913 17.9999C125.927 27.0274 133.281 34.4448 142.367 34.4586V35.7384C132.58 35.7384 124.635 27.7292 124.635 17.9999Z" fill="white"/>
<path fill-rule="evenodd" clip-rule="evenodd" d="M242.521 18C242.521 27.633 234.768 35.4908 225.187 35.4908C215.606 35.4908 207.908 27.633 207.908 18C207.908 8.36699 215.647 0.522949 225.187 0.522949C234.727 0.522949 242.521 8.33946 242.521 18Z" fill="#211613"/>
<path d="M207.482 18.0136C207.482 8.24297 215.428 0.247559 225.201 0.247559C234.947 0.247559 242.933 8.24297 242.933 18.0136C242.933 27.7705 234.947 35.7384 225.201 35.7384V34.4448C234.246 34.431 241.655 27.0274 241.655 17.9999C241.655 8.95857 234.246 1.52738 225.201 1.49985C216.142 1.52738 208.788 8.95857 208.747 17.9999C208.775 27.0274 216.142 34.4173 225.201 34.4448V35.7384C215.428 35.7384 207.482 27.7567 207.482 18.0136Z" fill="white"/>
<path d="M214.63 16.4312V28.5412H235.812V16.4312H214.63ZM225.187 26.5734C222.905 26.5734 221.104 24.7293 221.104 22.4449C221.104 20.1605 222.905 18.344 225.187 18.344C227.469 18.344 229.338 20.1605 229.338 22.4449C229.338 24.7293 227.414 26.5734 225.187 26.5734Z" fill="white"/>
<path d="M224.995 25.7339V25.1697C224.596 25.1284 224.184 24.9495 223.881 24.9219C223.634 24.8119 223.331 24.6054 223.139 24.3852C222.96 24.1375 222.727 23.8486 222.727 23.532L223.73 23.3807C223.867 23.7797 223.991 23.9862 224.074 24.1513C224.404 24.4403 224.733 24.5229 224.995 24.5366V22.5687C224.665 22.4036 224.252 22.3761 223.881 22.1421C223.551 22.0733 223.331 21.8944 223.235 21.7293C223.043 21.4953 222.947 21.2476 222.947 21.0412C222.947 20.6146 223.235 20.1742 223.62 19.8164C223.977 19.6788 224.404 19.5963 224.981 19.5963V19.2109H225.517V19.5963C226.108 19.5963 226.452 19.6788 226.795 19.8164C227.18 20.0779 227.469 20.4219 227.565 20.8898L226.589 20.9586C226.548 20.6421 226.397 20.5183 226.204 20.3669C226.094 20.2568 225.806 20.133 225.503 20.0779V21.9632C225.943 22.0733 226.204 22.1559 226.438 22.1559C226.727 22.2522 226.974 22.3898 227.139 22.4174C227.263 22.5963 227.441 22.7201 227.551 22.9128C227.62 23.0641 227.675 23.3394 227.675 23.5458C227.675 23.9724 227.455 24.2889 227.07 24.633C226.713 24.9495 226.149 25.1697 225.503 25.1697V25.7614H224.967L224.995 25.7339ZM224.995 20.0504C224.678 20.0504 224.404 20.2155 224.184 20.3944C223.991 20.477 223.895 20.7109 223.895 20.9586C223.895 21.1513 223.991 21.3577 224.087 21.5229C224.321 21.7018 224.61 21.743 225.008 21.8531V20.0504H224.995ZM225.544 24.5229C225.902 24.5091 226.191 24.4265 226.438 24.1926C226.63 24.055 226.768 23.8073 226.768 23.532C226.768 23.3119 226.768 23.0366 226.589 22.9678C226.424 22.8027 226.053 22.6375 225.558 22.6238V24.5229H225.544Z" fill="white"/>
<path d="M219.29 12.5916H217.159L216.857 13.5824H214.946L217.242 7.52734H219.263L221.544 13.5824H219.565L219.276 12.5916H219.29ZM218.891 11.3117L218.232 9.09615L217.572 11.3117H218.891Z" fill="white"/>
<path d="M221.943 7.51367H227.634V9.02743H225.737V13.5825H223.868V9.02743H221.943V7.51367Z" fill="white"/>
<path d="M228.692 7.51367H231.153L232.115 11.2293L233.036 7.51367H235.497V13.5687H233.957V8.95863L232.761 13.5687H231.387L230.218 8.95863V13.5687H228.692V7.51367Z" fill="white"/>
<path d="M308.02 35.7248C317.669 35.7248 325.615 27.6743 325.615 17.8624C325.615 8.05046 317.683 0 308.02 0C298.356 0 290.425 8.05046 290.425 17.8624C290.425 27.6743 298.301 35.7248 308.02 35.7248Z" fill="#211613"/>
<path d="M319.896 21.1787C319.828 20.931 319.69 20.7383 319.429 20.5319C319.223 20.4081 318.948 20.353 318.742 20.353L317.505 17.5044C317.505 17.5044 317.505 17.4356 317.436 17.4356C317.298 17.1191 317.092 16.8576 316.831 16.7337C316.542 16.6099 316.281 16.4723 315.937 16.5411H314.219V15.5778C314.219 15.5778 314.096 15.4539 314.013 15.3851C313.944 15.3301 313.876 15.3301 313.807 15.3301H311.759C311.621 15.3851 311.484 15.4677 311.484 15.5365C311.415 15.6604 311.415 15.7292 311.415 15.853V16.5548H309.573C309.243 16.5548 308.955 16.6237 308.68 16.8163C308.405 17.009 308.212 17.2704 308.13 17.5182L306.975 20.3668H306.631C306.288 20.4906 305.944 20.6833 305.82 20.9998C305.683 21.3301 305.614 21.5778 305.614 21.8943V25.4448H306.783V26.5319C306.783 26.7246 306.851 26.8622 306.92 27.0411C306.989 27.2475 307.126 27.4264 307.333 27.4952C307.539 27.564 307.662 27.6328 307.882 27.6328C308.02 27.6328 308.144 27.5778 308.281 27.5778C308.556 27.509 308.762 27.3714 308.831 27.1237C308.9 26.986 308.968 26.8071 308.968 26.6145V25.4448H316.707V26.5319C316.707 26.7246 316.762 26.8622 316.762 27.0411C316.845 27.2475 317.051 27.4264 317.243 27.4952C317.395 27.564 317.587 27.6328 317.793 27.6328C317.944 27.6328 318.068 27.5778 318.206 27.5778C318.412 27.509 318.618 27.3714 318.755 27.1237C318.81 26.986 318.879 26.8071 318.879 26.6145V25.4448H320.048V21.8255C320.048 21.6328 319.979 21.3851 319.91 21.1787H319.896ZM308.886 22.3484C308.886 22.3484 308.886 22.5411 308.817 22.6649C308.817 22.8576 308.625 23.0503 308.405 23.1191C308.267 23.2016 308.13 23.2567 307.937 23.2567H307.869C307.731 23.2567 307.58 23.2016 307.442 23.2016C307.236 23.1191 307.099 22.9952 306.975 22.8026C306.906 22.6649 306.906 22.4723 306.906 22.3484V22.2796C306.906 22.1558 306.906 22.0182 306.975 21.8943C306.975 21.7016 307.181 21.509 307.387 21.4402C307.525 21.3714 307.731 21.3163 307.869 21.3163H307.937C308.075 21.3163 308.212 21.3714 308.267 21.3714C308.473 21.4402 308.68 21.564 308.817 21.7567C308.886 21.8805 308.886 22.0732 308.886 22.2796V22.3484ZM308.13 20.2292L309.023 18.0824C309.023 18.0824 309.078 17.8897 309.161 17.8484C309.298 17.6558 309.491 17.587 309.697 17.587H315.924C316.061 17.587 316.199 17.642 316.322 17.7108C316.391 17.8484 316.529 17.9585 316.529 18.0824L317.491 20.2292H308.116H308.13ZM318.742 22.3484C318.742 22.3484 318.673 22.5411 318.673 22.6649C318.604 22.8576 318.467 23.0503 318.261 23.1191C318.123 23.2016 317.917 23.2567 317.779 23.2567H317.724C317.573 23.2567 317.436 23.2016 317.381 23.2016C317.106 23.1191 316.968 22.9952 316.831 22.8026C316.831 22.6649 316.748 22.4723 316.748 22.3484V22.2796C316.748 22.1558 316.749 22.0182 316.831 21.8943C316.9 21.7016 317.037 21.509 317.23 21.4402C317.381 21.3714 317.505 21.3163 317.724 21.3163H317.779C317.848 21.3163 317.986 21.3714 318.123 21.3714C318.329 21.4402 318.535 21.564 318.604 21.7567C318.673 21.8805 318.742 22.0732 318.742 22.2796V22.3484Z" fill="#F8B616"/>
<path d="M305.284 8.93115H308.941V9.97702H307.717V13.1559H306.521V9.97702H305.284V8.93115Z" fill="#F8B616"/>
<path d="M311.415 12.4679H310.055L309.862 13.1559H308.639L310.096 8.93115H311.415L312.872 13.1559H311.608L311.415 12.4679ZM311.168 11.5458L310.742 10.0321L310.316 11.5458H311.168Z" fill="#F8B616"/>
<path d="M313.133 8.93124H314.467L315.154 10.2386L315.814 8.93124H317.12L315.91 10.9679L317.244 13.156H315.883L315.127 11.8074L314.357 13.156H313.01L314.357 10.9542L313.133 8.91748V8.93124Z" fill="#F8B616"/>
<path d="M318.137 8.93115H319.346V13.1559H318.137V8.93115Z" fill="#F8B616"/>
<path d="M299.277 9.05518V14.3258C299.085 14.3258 298.92 14.4359 298.769 14.5873C298.604 14.6974 298.494 14.8763 298.453 15.1102C298.288 15.4818 298.219 15.7983 298.219 16.2111C298.095 16.8029 298.095 17.4221 298.095 18.0689C298.095 18.6607 298.095 19.2662 298.219 19.8992C298.247 20.3533 298.288 20.835 298.37 21.3442C298.453 21.5506 298.535 21.7845 298.686 21.9772C298.769 22.0735 298.851 22.1974 299.003 22.2249C299.085 22.2662 299.209 22.2662 299.277 22.2662V27.413C298.92 27.4543 298.535 27.3029 298.233 27.124C297.669 26.7937 297.243 26.3809 296.899 25.913C296.858 25.8029 296.789 25.7341 296.707 25.6515C295.841 24.3992 295.346 22.9543 295.14 21.4543C294.947 20.3121 294.906 19.1699 294.906 18.0001C294.865 16.046 295.264 14.0506 295.992 12.1653C296.226 11.6836 296.46 11.257 296.776 10.8442C297.161 10.2937 297.628 9.85334 298.247 9.4405C298.521 9.2616 298.906 9.11022 299.264 9.06894L299.277 9.05518Z" fill="#F8B616"/>
<path d="M302.411 9H300.047V14.2706H302.411V9Z" fill="#F8B616"/>
<path d="M302.411 22.2246H300.047V27.509H302.411V22.2246Z" fill="#F8B616"/>
<path d="M290.04 18.014C290.04 8.14701 298.095 0.0415039 308.02 0.0415039C317.889 0.0415039 326 8.14701 326 18.014C326 27.881 317.889 35.9865 308.02 36.0002V34.6929C317.175 34.6791 324.68 27.1654 324.694 18.014C324.666 8.86261 317.175 1.34884 308.02 1.32132C298.837 1.34884 291.36 8.86261 291.346 18.014C291.36 27.1654 298.837 34.6791 308.02 34.6929V36.0002C298.109 36.0002 290.04 27.881 290.04 18.014Z" fill="white"/>
<path fill-rule="evenodd" clip-rule="evenodd" d="M76.5375 18.0001C76.5375 27.5918 68.8122 35.4083 59.2725 35.4083C49.7328 35.4083 42.0625 27.5918 42.0625 18.0001C42.0625 8.40831 49.774 0.591797 59.2862 0.591797C68.7985 0.591797 76.5512 8.38079 76.5512 18.0001H76.5375Z" fill="#211613"/>
<path d="M41.5675 17.9999C41.5675 8.2293 49.4989 0.247648 59.2998 0.233887C69.0457 0.233887 77.0459 8.21554 77.0459 17.9999C77.0459 27.7431 69.0594 35.7247 59.2998 35.766V34.3073C68.2484 34.3073 75.6025 26.9449 75.6163 18.0137C75.5888 9.05499 68.2484 1.70636 59.2998 1.6926C50.3099 1.70636 42.997 9.05499 42.9833 18.0137C42.9833 26.9449 50.2962 34.3073 59.2998 34.3073V35.766C49.4989 35.7247 41.5537 27.7568 41.5537 17.9999H41.5675Z" fill="white"/>
<path d="M67.3824 20.4083C66.9013 19.0459 66.3789 17.9312 65.5816 17.2432C64.6332 16.4312 63.8084 16.1973 63.8084 16.1973C64.6057 16.0597 65.238 15.4404 65.403 14.656C65.1968 14.8074 64.9356 14.9037 64.6469 14.9037C64.0421 14.9037 63.5335 14.4633 63.4235 13.8854H63.396V10.4037C63.396 10.4037 63.396 10.3624 63.396 10.3487C63.396 8.07801 61.5541 6.22021 59.2722 6.22021C56.9904 6.22021 55.1484 8.06425 55.1484 10.3487C55.1484 10.6376 55.1759 10.9266 55.2447 11.2019H55.767V12.3716C55.767 14.078 57.1554 15.4679 58.8599 15.4679C58.9286 15.4679 58.9836 15.4679 59.0523 15.4679V16.1835C59.0523 16.1835 58.1313 16.2523 57.1416 16.8716C56.1519 17.4909 55.4509 18.2202 55.4509 18.2202C55.4509 18.2202 55.877 18.922 56.0007 19.3899C56.1931 20.0918 56.0007 20.8211 56.0007 20.8211C56.0007 20.8211 56.4818 20.7936 56.9354 20.9037C57.389 21.0138 57.4578 21.3716 57.8289 21.4129C58.6262 21.4954 58.9148 21.0826 58.9148 21.0826C58.9148 21.0826 59.0111 21.6331 59.4647 22.1147C59.9183 22.5964 61.2929 22.9129 62.1177 22.2936C62.9424 21.6743 63.2586 21 63.3548 20.7798C63.451 20.5734 63.6572 19.9404 63.6572 19.9404C63.6572 19.9404 64.1796 20.6698 64.5919 21.3578C65.0181 22.0459 65.5542 22.8303 65.5542 22.8303C65.5542 22.8303 64.0558 24.2202 63.2723 24.9909C62.4888 25.7615 61.4716 27.4129 60.853 27.9221C60.2345 28.445 58.9561 28.6239 58.9561 28.6239C58.9561 28.6239 59.3272 29.1468 60.1107 29.5184C60.8943 29.8899 61.939 29.8211 62.6125 29.312C63.2723 28.789 63.4098 27.8808 63.451 27.5643C63.506 27.234 63.7122 26.5734 64.0971 26.3532C64.482 26.1193 65.9253 25.4725 66.4614 24.9358C66.9975 24.3991 67.781 23.4221 67.781 23.4221C67.781 23.4221 67.8497 21.7844 67.3549 20.422L67.3824 20.4083Z" fill="#EB6B8D"/>
<path d="M61.4167 24.8256C61.1418 24.3164 60.427 24.0825 59.4923 23.587C58.5576 23.1054 58.3789 22.5549 57.5954 21.8393C56.8118 21.1237 56.2208 21.3577 55.8084 21.3302C55.396 21.3026 55.3685 21.2063 55.3685 21.2063C55.5472 20.876 55.6434 20.4907 55.6434 20.0779C55.6434 18.743 54.5575 17.6421 53.2104 17.6421C51.8633 17.6421 50.7773 18.7292 50.7773 20.0779C50.7773 21.4265 51.8633 22.5137 53.2104 22.5137C53.4578 22.5137 53.7052 22.4724 53.9389 22.4036C53.9114 23.0503 53.9389 24.3026 54.4888 24.9081C55.2723 25.7476 56.7706 26.4219 58.104 26.7797C59.4373 27.1375 60.4408 26.9036 61.0868 26.5045C61.7329 26.1054 61.6917 25.3347 61.4167 24.8393V24.8256Z" fill="#EB6B8D"/>
<path d="M51.9597 22.624C51.9597 22.624 52.2896 22.9268 52.6745 22.9818C53.0594 23.0369 53.5542 22.9818 53.5542 22.9818C53.5542 22.9818 53.458 24.0139 53.7879 24.5919C54.1178 25.1699 54.269 25.5552 55.2588 26.0506C56.2485 26.546 56.7708 26.7112 56.977 26.835C57.1832 26.9589 57.142 27.1653 57.6231 27.413C58.1042 27.6607 58.8327 27.7433 58.8327 27.7433C58.8327 27.7433 58.5028 28.3488 57.8567 28.6103C57.2107 28.8717 56.3172 28.9543 55.8498 28.5139C55.3825 28.0736 55.2313 27.7158 55.1763 27.4405C55.1213 27.1653 55.1763 26.6148 54.7639 26.2708C54.3378 25.9268 53.2931 25.4726 52.757 25.0048C52.2209 24.5369 51.6985 23.9176 51.6161 23.6148C51.5336 23.3121 51.9597 22.6378 51.9597 22.6378V22.624Z" fill="#EB6B8D"/>
<path d="M59.2998 35.766C69.1007 35.766 77.0459 27.8119 77.0459 17.9999C77.0459 8.18802 69.1007 0.233887 59.2998 0.233887C49.4989 0.233887 41.5537 8.18802 41.5537 17.9999C41.5537 27.8119 49.4989 35.766 59.2998 35.766Z" stroke="#888888" stroke-width="0.25" stroke-miterlimit="10"/>
<path fill-rule="evenodd" clip-rule="evenodd" d="M33.8285 17.7523C33.8285 27.3715 26.4744 35.2156 17.3883 35.2156C8.3022 35.2156 0.975586 27.3715 0.975586 17.7523C0.975586 8.13301 8.31595 0.302734 17.3746 0.302734C26.4332 0.302734 33.8148 8.10549 33.8148 17.7523H33.8285Z" fill="#211613"/>
<path d="M0 18.0002C0 8.21581 7.97268 0.192871 17.7873 0.192871C27.5607 0.192871 35.5746 8.21581 35.5746 18.014C35.5746 27.7984 27.5607 35.8076 17.7873 35.8213V34.5277C26.8459 34.514 34.2825 27.0553 34.2963 18.014C34.2825 8.94516 26.8459 1.50021 17.7873 1.48645C8.68747 1.48645 1.30587 8.94516 1.29212 18.014C1.30587 27.069 8.68747 34.514 17.7873 34.5277V35.8213C7.97268 35.8076 0 27.7984 0 18.014V18.0002Z" fill="white"/>
<path d="M20.9489 11.0645C20.4128 11.0645 19.9592 11.1745 19.5743 11.4773C19.3681 11.6149 19.1619 11.7663 19.0382 12.014C18.9695 12.1378 18.9695 12.3167 18.9695 12.4956V15.358L16.9351 17.2021C16.7426 17.3122 16.6602 17.5461 16.6602 17.8076V18.0966C16.8663 18.3443 17.1275 18.4544 17.3749 18.5782C17.4574 18.647 17.5811 18.647 17.7049 18.647C17.911 18.647 18.1722 18.5782 18.3097 18.3993L20.6053 16.3213V14.6012L23.8218 17.3947C24.2067 17.8213 24.4129 18.358 24.4816 18.881C24.5366 19.1837 24.5366 19.4727 24.5366 19.7755V27.5369C24.5366 27.7158 24.6741 27.881 24.7978 28.0186C24.8665 28.1287 24.9902 28.1837 25.1277 28.2525C25.4576 28.4865 25.7738 28.6103 26.1174 28.6103H26.1724C26.4336 28.6103 26.6947 28.6103 26.9559 28.4727C27.2858 28.3626 27.4783 28.1287 27.547 27.8259C27.547 27.7021 27.6157 27.5782 27.6157 27.4681V18.881C27.6157 17.8764 27.4095 16.9131 26.9559 16.0186C26.626 15.4819 26.1724 15.0002 25.65 14.6424L22.1723 11.4911C21.8424 11.1883 21.3888 11.0782 20.8664 11.0782H20.9352L20.9489 11.0645Z" fill="white"/>
<path d="M18.186 8.02295C18.7084 8.02295 19.2445 8.20185 19.5744 8.57341C19.9455 8.8624 20.1517 9.289 20.1517 9.77066C20.1517 10.2523 19.9455 10.7064 19.5744 11.0092C19.2445 11.3807 18.7084 11.5459 18.186 11.5459C17.6637 11.5459 17.1963 11.367 16.8801 11.0092C16.4815 10.7064 16.2891 10.2385 16.2891 9.81194V9.77066C16.2891 9.289 16.4815 8.8624 16.8801 8.57341C17.1963 8.21561 17.6637 8.02295 18.186 8.02295Z" fill="white"/>
<path d="M11.0381 8.47705H9.59473V29.1055H11.0381V8.47705Z" fill="white"/>
<path d="M20.5506 18H20.8805C21.0042 18.0688 21.1279 18.1789 21.2791 18.289C21.2791 18.4128 21.3479 18.5367 21.3479 18.6606C21.3479 18.7018 21.3479 18.7706 21.2791 18.7706C21.2791 18.9633 21.2104 19.0046 21.0729 19.1284L19.9595 20.1468L21.0729 21.4404C21.2104 21.5642 21.2791 21.6743 21.2791 21.867C21.2791 21.9771 21.2791 22.1697 21.2104 22.2798C21.0729 22.5275 20.8255 22.7064 20.5506 22.7615H15.8907C15.6295 22.7615 15.3683 22.7064 15.1622 22.5963C15.0934 22.5963 15.0522 22.5275 15.0522 22.5275C14.9835 22.4037 14.8597 22.3349 14.8597 22.2385C14.8597 22.2385 14.8368 22.2018 14.791 22.1284V19.1422C14.791 19.0183 14.8597 18.9771 14.8597 18.8394C14.9285 18.7156 14.9835 18.6743 15.1072 18.6055C15.1759 18.5505 15.2996 18.5505 15.4371 18.5505H15.767C15.767 18.5505 15.9594 18.6743 16.0282 18.7844C16.0969 18.8945 16.0969 19.0183 16.0969 19.0872V21.055H18.6536L18.2688 20.5734C18.145 20.4495 18.0626 20.2706 18.0626 20.0917V20.0367C18.145 19.9679 18.145 19.9128 18.2 19.8578L20.0282 18.1927C20.1657 18.0826 20.3581 18.0138 20.5506 18.0138V18Z" fill="white"/>
<path d="M13.1279 20.1606C12.8667 20.1606 12.6056 20.2019 12.4131 20.2707C12.0695 20.3946 11.8908 20.6423 11.7533 20.945C11.7533 21.1102 11.6846 21.2891 11.6846 21.4129V21.468C11.6846 21.7019 11.7533 21.9496 11.877 22.1285C12.0145 22.4175 12.2756 22.6102 12.5918 22.6515C12.7293 22.7203 12.9217 22.7203 13.1142 22.7203C13.3753 22.7753 13.6502 22.7203 13.9114 22.6102C14.1726 22.4726 14.4338 22.2524 14.5025 21.9496C14.5575 21.7707 14.5575 21.6606 14.5575 21.468C14.5575 21.234 14.5025 21.0001 14.4338 20.7524C14.2963 20.5322 14.0351 20.2707 13.7052 20.2157C13.5128 20.1744 13.3066 20.1744 13.1142 20.1744L13.1279 20.1606Z" fill="white"/>
<path d="M21.6088 23.4634V24.5918H11.7529V23.4634H21.6088Z" fill="white"/>
</g>
<defs>
<clipPath id="clip0_20_18287">
<rect width="326" height="36" fill="white"/>
</clipPath>
</defs>
</svg>
