<svg width="24" height="24" viewBox="0 0 24 24" fill="none" xmlns="http://www.w3.org/2000/svg">
<circle cx="12" cy="12" r="12" fill="#E1002A"/>
<path d="M6.9151 20V3.11818H13.2458C14.5427 3.11818 15.6308 3.35998 16.51 3.84357C17.3948 4.32716 18.0625 4.99211 18.5131 5.8384C18.9692 6.67919 19.1973 7.63539 19.1973 8.70699C19.1973 9.78958 18.9692 10.7513 18.5131 11.5921C18.057 12.4329 17.3838 13.095 16.4936 13.5786C15.6033 14.0567 14.507 14.2958 13.2046 14.2958H9.00884V11.7817H12.7924C13.5508 11.7817 14.1718 11.6498 14.6553 11.386C15.1389 11.1222 15.4961 10.7595 15.7269 10.2979C15.9633 9.83629 16.0814 9.30598 16.0814 8.70699C16.0814 8.10799 15.9633 7.58043 15.7269 7.12432C15.4961 6.6682 15.1362 6.31375 14.6471 6.06096C14.1635 5.80268 13.5398 5.67353 12.7759 5.67353H9.97328V20H6.9151Z" fill="white"/>
</svg>
