<svg width="21" height="24" viewBox="0 0 21 24" fill="none" xmlns="http://www.w3.org/2000/svg">
<path d="M0 3.69231C0 1.66154 1.71818 0 3.81818 0H17.1818C19.2818 0 21 1.66154 21 3.69231V18.4615C21 20.3077 19.0909 20.3077 19.0909 20.3077V22.1538C19.0909 23.1692 18.2318 24 17.1818 24C16.1318 24 15.2727 23.1692 15.2727 22.1538V20.3077H5.72727V22.1538C5.72727 23.1692 4.86818 24 3.81818 24C2.76818 24 1.90909 23.1692 1.90909 22.1538V20.3077C0 20.3077 0 18.4615 0 18.4615V3.69231ZM2.86364 5.53846C2.32909 5.53846 1.90909 5.94462 1.90909 6.46154V12C1.90909 12.5169 2.32909 12.9231 2.86364 12.9231H18.1364C18.6709 12.9231 19.0909 12.5169 19.0909 12V6.46154C19.0909 5.94462 18.6709 5.53846 18.1364 5.53846H2.86364ZM3.81818 14.7692C2.76818 14.7692 1.90909 15.6 1.90909 16.6154C1.90909 17.6308 2.76818 18.4615 3.81818 18.4615C4.86818 18.4615 5.72727 17.6308 5.72727 16.6154C5.72727 15.6 4.86818 14.7692 3.81818 14.7692ZM17.1818 14.7692C16.1318 14.7692 15.2727 15.6 15.2727 16.6154C15.2727 17.6308 16.1318 18.4615 17.1818 18.4615C18.2318 18.4615 19.0909 17.6308 19.0909 16.6154C19.0909 15.6 18.2318 14.7692 17.1818 14.7692ZM3.81818 2.76923C3.81818 3.28615 4.23818 3.69231 4.77273 3.69231H16.2273C16.7618 3.69231 17.1818 3.28615 17.1818 2.76923C17.1818 2.25231 16.7618 1.84615 16.2273 1.84615H4.77273C4.23818 1.84615 3.81818 2.25231 3.81818 2.76923Z" fill="#E1002A"/>
</svg>
