<svg width="17" height="24" viewBox="0 0 17 24" fill="none" xmlns="http://www.w3.org/2000/svg">
<g clip-path="url(#clip0_19_17076)">
<path d="M8.63139 15.5259C8.07334 15.5269 7.53844 15.749 7.14374 16.1435C6.74905 16.538 6.52671 17.0728 6.52539 17.6309V21.9359C6.52539 22.4944 6.74727 23.0301 7.14222 23.425C7.53718 23.82 8.07284 24.0419 8.63139 24.0419C9.18994 24.0419 9.72561 23.82 10.1206 23.425C10.5155 23.0301 10.7374 22.4944 10.7374 21.9359V21.8929V21.8949V17.6319C10.7363 17.074 10.5144 16.5392 10.1201 16.1446C9.72581 15.7499 9.19126 15.5275 8.63339 15.5259H8.63139Z" fill="#E1002A"/>
<path d="M16.263 2.631H12.21C11.719 1.094 10.303 0 8.631 0C6.959 0 5.544 1.094 5.06 2.604L5.053 2.631H1.053C0.773727 2.631 0.505892 2.74194 0.308417 2.93942C0.110941 3.13689 0 3.40473 0 3.684C0 3.96327 0.110941 4.23111 0.308417 4.42858C0.505892 4.62606 0.773727 4.737 1.053 4.737H5.106C5.374 5.636 5.956 6.372 6.721 6.833L6.737 6.842C3.866 7.709 1.808 10.322 1.79 13.419V18.947C1.79417 19.4062 1.97838 19.8455 2.30301 20.1703C2.62765 20.4951 3.06679 20.6796 3.526 20.684H4.948V17.684C4.948 16.6929 5.34172 15.7424 6.04254 15.0415C6.74337 14.3407 7.69389 13.947 8.685 13.947C9.67611 13.947 10.6266 14.3407 11.3275 15.0415C12.0283 15.7424 12.422 16.6929 12.422 17.684V20.684H13.843C14.3028 20.6809 14.7429 20.4969 15.0681 20.1718C15.3934 19.8468 15.5776 19.4068 15.581 18.947V13.473C15.5804 11.9968 15.1032 10.5603 14.2205 9.37708C13.3378 8.19388 12.0968 7.32721 10.682 6.906L10.634 6.894C11.4162 6.42765 11.9958 5.68577 12.259 4.814L12.266 4.788H16.319C16.598 4.78721 16.8654 4.67601 17.0627 4.47871C17.26 4.2814 17.3712 4.01403 17.372 3.735C17.3609 3.44566 17.241 3.17115 17.0364 2.96631C16.8317 2.76147 16.5573 2.64137 16.268 2.63H16.266L16.263 2.631ZM8.631 5.84C8.21447 5.84 7.8073 5.71649 7.46097 5.48507C7.11464 5.25366 6.84471 4.92475 6.68531 4.53993C6.52591 4.15511 6.48421 3.73166 6.56547 3.32314C6.64673 2.91462 6.8473 2.53936 7.14183 2.24483C7.43636 1.9503 7.81162 1.74973 8.22014 1.66847C8.62866 1.58721 9.05211 1.62891 9.43693 1.78831C9.82175 1.94771 10.1507 2.21764 10.3821 2.56397C10.6135 2.9103 10.737 3.31747 10.737 3.734L10.738 3.794C10.738 4.924 9.822 5.84 8.692 5.84L8.629 5.839H8.632L8.631 5.84Z" fill="#E1002A"/>
</g>
<defs>
<clipPath id="clip0_19_17076">
<rect width="17" height="24" fill="white"/>
</clipPath>
</defs>
</svg>
