<svg width="202" height="36" viewBox="0 0 202 36" fill="none" xmlns="http://www.w3.org/2000/svg">
<g clip-path="url(#clip0_20_18013)">
<path fill-rule="evenodd" clip-rule="evenodd" d="M77.2291 18.2647C77.2291 27.8424 69.5076 35.6382 59.9602 35.6382C50.4128 35.6382 42.7471 27.8285 42.7471 18.2647C42.7471 8.70086 50.4547 0.891113 59.9602 0.891113C69.4658 0.891113 77.2291 8.65909 77.2291 18.2647Z" fill="#211613"/>
<path fill-rule="evenodd" clip-rule="evenodd" d="M55.4303 10.4408C56.2666 10.4408 56.9496 9.75867 56.9496 8.9234C56.9496 8.08814 56.2666 7.41992 55.4303 7.41992C54.5941 7.41992 53.9111 8.08814 53.9111 8.9234C53.9111 9.75867 54.5801 10.4408 55.4303 10.4408ZM58.3712 17.5963C58.4688 17.1508 58.5106 16.6775 58.5106 16.1902C58.5106 13.5452 57.1726 11.3874 55.5 11.3874C53.8275 11.3874 52.5034 13.5452 52.5034 16.1902C52.5034 16.6079 52.5313 17.0394 52.6149 17.4431C51.4999 18.1253 50.7891 19.225 50.7891 20.4362C50.7891 20.6311 50.803 20.812 50.8448 20.9791H53.5906V29.2343C53.5906 29.6519 53.9251 29.986 54.3432 29.986C54.7613 29.986 55.0958 29.6519 55.0958 29.2343V20.9791H55.7509V29.1647C55.7509 29.5684 56.0854 29.9164 56.5175 29.9164C56.9077 29.9164 57.2562 29.5823 57.2562 29.1647V20.9791H59.9183C59.9462 20.812 59.974 20.6311 59.974 20.4362C59.974 19.3086 59.3747 18.3062 58.3991 17.5963H58.3712Z" fill="#EB6B8D"/>
<path fill-rule="evenodd" clip-rule="evenodd" d="M66.2735 8.81207C66.2735 9.64734 65.5766 10.3295 64.7543 10.3295C63.932 10.3295 63.249 9.64734 63.249 8.81207C63.249 7.97681 63.918 7.30859 64.7543 7.30859C65.5906 7.30859 66.2735 8.00465 66.2735 8.81207Z" fill="#22B2E9"/>
<path fill-rule="evenodd" clip-rule="evenodd" d="M66.9844 11.3176H62.371C61.5208 11.3176 60.8379 11.9858 60.8379 12.8211V18.849C60.8379 19.0717 60.8936 19.2666 60.9773 19.4615C61.1863 20.1854 61.8135 20.3803 62.1759 20.8397V29.1506C62.1759 29.5543 62.594 29.9023 63.0819 29.9023C63.5697 29.9023 64.0018 29.5682 64.0018 29.1506V22.6216H65.3816V29.1506C65.3816 29.5543 65.7858 29.9023 66.2876 29.9023C66.7893 29.9023 67.1935 29.5682 67.1935 29.1506V20.784C67.6953 20.3942 68.1552 20.0879 68.3503 19.5172C68.4618 19.3362 68.5455 19.0856 68.5455 18.835V12.8072C68.5455 11.9719 67.8486 11.3037 66.9984 11.3037L66.9844 11.3176Z" fill="#22B2E9"/>
<path d="M41.8965 18.2645C41.8965 8.50584 49.841 0.542969 59.6393 0.542969C69.3957 0.542969 77.382 8.51977 77.382 18.2645C77.382 27.9954 69.3818 35.9444 59.6393 35.9861V34.5244C68.5873 34.5244 75.9464 27.1741 75.9604 18.2506C75.9325 9.31327 68.5873 1.97684 59.6393 1.96292C50.6494 1.97684 43.3321 9.31327 43.3181 18.2506C43.3181 27.1601 50.6355 34.5105 59.6393 34.5244V35.9861C49.8271 35.9444 41.8965 27.9815 41.8965 18.2645Z" fill="white"/>
<path d="M167.184 17.9722C167.184 8.70075 174.71 1.19727 183.979 1.19727C193.247 1.19727 200.774 8.71467 200.774 17.9722C200.774 27.2297 193.247 34.7471 183.979 34.7471C174.71 34.7471 167.184 27.2297 167.184 17.9722Z" fill="#211613"/>
<path d="M181.721 7.82373C182.181 7.82373 182.655 8.0047 182.948 8.33881C183.282 8.61723 183.477 9.03487 183.477 9.46642V9.50819C183.477 9.96758 183.282 10.3991 182.948 10.7193C182.669 11.0534 182.195 11.2344 181.721 11.2344C181.289 11.2344 180.815 11.0534 180.523 10.7193C180.188 10.3991 180.007 9.92582 180.007 9.50819C180.007 9.03487 180.202 8.61723 180.523 8.33881C180.815 8.0047 181.289 7.82373 181.721 7.82373Z" fill="white"/>
<path d="M179.198 16.7749L179.31 18.6403C177.874 19.6705 177.052 21.3271 177.052 23.109V23.3317C177.052 24.8631 177.651 26.3387 178.766 27.4246C179.881 28.5243 181.386 29.1229 182.92 29.1229H183.143C184.522 29.1229 185.86 28.6357 186.906 27.703C188.021 26.7703 188.746 25.4756 188.913 24.0835L190.084 25.9489C189.526 27.3132 188.578 28.5243 187.296 29.3874C186.083 30.2088 184.578 30.7099 183.017 30.7099C181.024 30.7099 179.073 29.9443 177.623 28.5243C176.174 27.1601 175.393 25.1833 175.393 23.2204C175.337 20.5475 176.787 18.0417 179.226 16.7749H179.17H179.198Z" fill="white"/>
<path d="M181.763 12.4453C181.261 12.5149 180.759 12.7377 180.425 13.1135C180.369 13.1553 180.313 13.2249 180.313 13.2249C180.034 13.6008 179.923 14.0462 179.923 14.4917L180.313 20.4917C180.313 21.0346 180.522 21.4801 180.926 21.8142C181.317 22.1344 181.818 22.3015 182.32 22.3015H188.871L191.756 27.1042C191.993 27.4244 192.369 27.6611 192.829 27.6611C192.996 27.6611 193.108 27.6611 193.261 27.6054C193.554 27.5497 193.763 27.327 193.875 27.1182C193.93 26.9511 193.986 26.7284 193.986 26.5752V26.5335C193.986 26.2968 193.93 26.088 193.763 25.921L190.111 19.8653C189.944 19.5451 189.554 19.3223 189.15 19.3223H184.09V18.1808H187.77C187.881 18.1808 187.979 18.1251 188.09 18.1251C188.313 18.0834 188.481 17.9163 188.536 17.7493C188.592 17.5822 188.634 17.4708 188.634 17.3038V17.2481C188.634 17.1367 188.634 17.0254 188.592 16.914C188.536 16.6913 188.425 16.5381 188.216 16.4685C188.035 16.4128 187.937 16.3571 187.77 16.3571H183.979L183.825 14.269C183.825 13.7817 183.602 13.2945 183.156 12.9604C182.766 12.6263 182.264 12.4592 181.763 12.4592V12.4453Z" fill="white"/>
<path d="M165.957 18.2645C165.957 8.51977 174.041 0.542969 183.979 0.542969C193.874 0.542969 201.986 8.53369 201.986 18.2645C201.986 27.9954 193.874 35.9722 183.979 35.9861V34.7054C193.15 34.6775 200.676 27.2715 200.69 18.2645C200.676 9.22974 193.136 1.82371 183.979 1.80979C174.752 1.82371 167.267 9.22974 167.253 18.2645C167.281 27.2715 174.752 34.6915 183.979 34.7054V35.9861C174.027 35.9722 165.957 27.9954 165.957 18.2645Z" fill="white"/>
<path fill-rule="evenodd" clip-rule="evenodd" d="M118.568 18.8075C118.568 28.1625 110.777 35.7912 101.16 35.7912C91.5426 35.7912 83.7793 28.1625 83.7793 18.8075C83.7793 9.4525 91.5705 1.82373 101.16 1.82373C110.749 1.82373 118.568 9.42466 118.568 18.8075Z" fill="#211613"/>
<path d="M110.164 18.2648C110.805 18.2648 111.349 17.7219 111.349 17.0537C111.349 16.3854 110.819 15.8564 110.164 15.8564C109.509 15.8564 108.993 16.3854 108.993 17.0537C108.993 17.7219 109.509 18.2648 110.164 18.2648Z" fill="#F8B616"/>
<path d="M111.544 23.8888V20.3111C111.544 20.0884 111.878 20.0884 111.878 20.3111V22.984C111.878 23.2624 112.101 23.4851 112.366 23.4851C112.645 23.4851 112.882 23.2624 112.882 22.97V19.9352C112.882 19.3088 112.199 18.557 111.418 18.557H109.077C108.575 18.5988 108.254 18.6406 108.017 18.5153L105.272 17.5547C104.965 17.4573 104.616 17.4851 104.449 17.861C104.31 18.209 104.463 18.557 104.909 18.6823L108.059 19.8795C108.77 20.1719 108.714 20.5338 108.714 20.7287V23.5686V28.97C108.714 29.3181 108.937 29.6104 109.286 29.6104C109.634 29.6104 109.899 29.3181 109.899 28.97V24.5431C109.913 24.2508 110.331 24.2229 110.331 24.5431V28.97C110.331 29.3181 110.61 29.6104 110.944 29.6104C111.307 29.6104 111.53 29.3181 111.53 28.97V23.861L111.544 23.8888Z" fill="#F8B616"/>
<path fill-rule="evenodd" clip-rule="evenodd" d="M96.6161 17.1092C96.6997 16.6637 96.7554 16.1765 96.7554 15.6753C96.7554 13.0442 95.4035 10.9004 93.7588 10.9004C92.1142 10.9004 90.7622 13.0303 90.7622 15.6753C90.7622 16.1069 90.7901 16.5524 90.8598 16.9282C89.7726 17.6104 89.0479 18.7101 89.0479 19.9352C89.0479 20.1022 89.0478 20.2971 89.0897 20.4364H91.8354V28.6916C91.8354 29.1092 92.1838 29.4294 92.5741 29.4294C92.9922 29.4294 93.3267 29.1092 93.3267 28.6916V20.4364H93.9679V28.622C93.9679 29.0257 94.3163 29.3598 94.7205 29.3598C95.1247 29.3598 95.4592 29.0257 95.4592 28.622V20.4364H98.1213C98.1492 20.2832 98.1631 20.0883 98.1631 19.9352C98.1631 18.7937 97.5638 17.7913 96.6161 17.0953V17.1092Z" fill="#EB6B8D"/>
<path fill-rule="evenodd" clip-rule="evenodd" d="M95.1386 8.24154C95.1386 9.11857 94.4417 9.82855 93.6054 9.82855C92.7692 9.82855 92.0723 9.11857 92.0723 8.24154C92.0723 7.36451 92.7552 6.66846 93.6054 6.66846C94.4556 6.66846 95.1386 7.39236 95.1386 8.24154Z" fill="#EB6B8D"/>
<path fill-rule="evenodd" clip-rule="evenodd" d="M102.149 9.74501C102.943 9.74501 103.612 9.06288 103.612 8.21369C103.612 7.3645 102.943 6.69629 102.149 6.69629C101.355 6.69629 100.686 7.39234 100.686 8.21369C100.686 9.03504 101.341 9.74501 102.149 9.74501ZM104.491 11.0118H99.9608C99.1524 11.0118 98.4834 11.7079 98.4834 12.5571V18.6128C98.4834 18.8355 98.5391 19.0582 98.6088 19.2392C98.79 19.9631 99.3894 20.1858 99.7657 20.6452V29.0118C99.7657 29.4295 100.17 29.7775 100.672 29.7775C101.173 29.7775 101.564 29.4295 101.564 29.0118V22.4271H102.916V29.0118C102.916 29.4295 103.292 29.7775 103.78 29.7775C104.268 29.7775 104.658 29.4295 104.658 29.0118V20.5896C105.146 20.1998 105.62 19.9074 105.801 19.3088C105.912 19.1139 105.982 18.8773 105.982 18.6128V18.3343C105.982 18.042 105.982 17.7357 105.982 17.4295V12.5571C105.982 11.7079 105.313 11.0118 104.505 11.0118H104.491Z" fill="#22B2E9"/>
<path d="M83.1523 18.2785C83.1523 8.53369 91.2362 0.542969 101.188 0.542969C111.098 0.542969 119.195 8.53369 119.195 18.2785C119.195 28.0093 111.084 35.9861 101.188 36V34.7193C110.345 34.7054 117.885 27.2854 117.899 18.2785C117.885 9.24366 110.345 1.83763 101.188 1.82371C91.961 1.83763 84.4764 9.24366 84.4625 18.2785C84.4904 27.2854 91.961 34.7054 101.188 34.7193V36C91.2362 35.9861 83.1523 27.9954 83.1523 18.2785Z" fill="white"/>
<path fill-rule="evenodd" clip-rule="evenodd" d="M158.612 18.4873C158.612 28.065 151.281 35.8609 142.221 35.8609C133.162 35.8609 125.858 28.0511 125.858 18.4873C125.858 8.92351 133.19 1.11377 142.221 1.11377C151.253 1.11377 158.612 8.88175 158.612 18.4873Z" fill="#211613"/>
<path d="M124.841 18.2924C124.841 8.56152 132.785 0.584722 142.57 0.570801C152.312 0.570801 160.298 8.56152 160.312 18.2924C160.312 28.0093 152.312 36 142.57 36V34.7193C151.601 34.7054 159.016 27.2993 159.016 18.2924C159.016 9.28542 151.587 1.86546 142.57 1.85154C133.51 1.87939 126.151 9.2715 126.137 18.2924C126.151 27.2993 133.51 34.7054 142.57 34.7193V36C132.799 36 124.841 28.0093 124.841 18.2924Z" fill="white"/>
<path d="M139.81 29.9582V14.8955H145.329V29.9582H139.81Z" fill="white"/>
<path d="M145.706 9.89788C145.706 11.6241 144.298 13.0162 142.57 13.0162C140.841 13.0162 139.434 11.6241 139.434 9.89788C139.434 8.17166 140.841 6.76562 142.57 6.76562C144.298 6.76562 145.706 8.17166 145.706 9.89788Z" fill="white"/>
<path d="M17.9801 35.652C27.639 35.652 35.5695 27.6056 35.5695 17.8329C35.5695 8.06033 27.639 0 17.9801 0C8.32121 0 0.390625 8.03248 0.390625 17.8329C0.390625 27.6334 8.2794 35.652 17.9801 35.652Z" fill="#211613"/>
<path d="M29.869 21.1459C29.8133 20.8954 29.6739 20.7005 29.3952 20.5056C29.1861 20.3803 28.9213 20.3246 28.7122 20.3246L27.4717 17.4847C27.4717 17.4847 27.4717 17.429 27.4021 17.429C27.2627 17.1088 27.0675 16.8582 26.7888 16.719C26.51 16.5937 26.2452 16.4684 25.8968 16.5241H24.1824V15.5636C24.1824 15.5636 24.057 15.4383 23.9734 15.3687C23.9176 15.313 23.834 15.313 23.7643 15.313H21.7154C21.5761 15.3687 21.4367 15.4522 21.4367 15.5079C21.367 15.6332 21.367 15.6889 21.367 15.8281V16.5241H19.5133C19.1788 16.5241 18.9 16.5937 18.6213 16.7886C18.3564 16.9835 18.1474 17.2341 18.0777 17.4986L16.9209 20.3385H16.5724C16.224 20.4638 15.8895 20.6448 15.7501 20.9789C15.6107 21.2991 15.541 21.5636 15.541 21.8698V25.4197H16.7118V26.5056C16.7118 26.7005 16.7815 26.8257 16.8372 27.0206C16.9069 27.2155 17.0463 27.4104 17.2554 27.4661C17.4644 27.5357 17.5899 27.5914 17.7989 27.5914C17.9244 27.5914 18.0638 27.5357 18.2031 27.5357C18.4819 27.4661 18.677 27.3269 18.7467 27.0763C18.8164 26.951 18.8861 26.7561 18.8861 26.5752V25.4058H26.6215V26.4916C26.6215 26.6865 26.6773 26.8118 26.6773 27.0067C26.7609 27.2016 26.956 27.3965 27.1512 27.4522C27.3045 27.5218 27.4996 27.5775 27.6947 27.5775C27.8481 27.5775 27.9735 27.5218 28.1129 27.5218C28.3219 27.4522 28.5171 27.313 28.6704 27.0624C28.7261 26.9371 28.7958 26.7422 28.7958 26.5612V25.3919H29.9666V21.7863C29.9666 21.6053 29.9109 21.3408 29.8272 21.1459H29.869ZM18.8582 22.3014C18.8582 22.3014 18.8582 22.4824 18.7885 22.6216C18.7885 22.8165 18.5934 23.0114 18.3843 23.067C18.2449 23.1506 18.1056 23.1923 17.9104 23.1923H17.8407C17.7014 23.1923 17.562 23.1367 17.4226 23.1367C17.2275 23.0531 17.0881 22.9278 16.9487 22.7469C16.879 22.6216 16.879 22.4267 16.879 22.3014V22.2318C16.879 22.1065 16.879 21.9673 16.9487 21.842C16.9487 21.661 17.1439 21.4522 17.3529 21.3965C17.4923 21.3408 17.7014 21.2712 17.8407 21.2712H17.9104C18.0498 21.2712 18.1753 21.3269 18.2449 21.3269C18.454 21.3826 18.6491 21.5218 18.7885 21.7167C18.8582 21.842 18.8582 22.0369 18.8582 22.2318V22.3014ZM18.1056 20.1854L18.9976 18.0415C18.9976 18.0415 19.0533 17.8606 19.137 17.8049C19.2624 17.61 19.4715 17.5404 19.6805 17.5404H25.9107C26.0501 17.5404 26.1895 17.5961 26.3149 17.6657C26.3846 17.7909 26.524 17.9162 26.524 18.0415L27.4857 20.1854H18.1056ZM28.7122 22.3014C28.7122 22.3014 28.6425 22.4824 28.6425 22.6216C28.5728 22.8165 28.4474 23.0114 28.2383 23.067C28.0989 23.1506 27.9038 23.1923 27.7505 23.1923H27.6947C27.5414 23.1923 27.416 23.1367 27.3463 23.1367C27.0675 23.0531 26.9282 22.9278 26.8027 22.7469C26.8027 22.6216 26.7191 22.4267 26.7191 22.3014V22.2318C26.7191 22.1065 26.7191 21.9673 26.8027 21.842C26.8724 21.661 26.9979 21.4522 27.2069 21.3965C27.3602 21.3408 27.4857 21.2712 27.6947 21.2712H27.7505C27.8202 21.2712 27.9596 21.3269 28.0989 21.3269C28.308 21.3826 28.5031 21.5218 28.5728 21.7167C28.6425 21.842 28.7122 22.0369 28.7122 22.2318V22.3014Z" fill="#F8B616"/>
<path d="M15.2627 8.90967H18.9283V9.95375H17.7018V13.1278H16.5032V9.95375H15.2766V8.90967H15.2627Z" fill="#F8B616"/>
<path d="M21.3813 12.4456H20.0154L19.8203 13.1278H18.5938L20.0433 8.90967H21.3674L22.8308 13.1278H21.5764L21.3813 12.4456ZM21.1304 11.5268L20.6984 10.0094L20.2802 11.5268H21.1304Z" fill="#F8B616"/>
<path d="M23.0961 8.90967H24.4342L25.1171 10.2043L25.7861 8.90967H27.0963L25.8837 10.9422L27.2217 13.1278H25.8558L25.1032 11.7774L24.3227 13.1278H22.9707L24.3227 10.9422L23.0961 8.90967Z" fill="#F8B616"/>
<path d="M28.1133 8.90967H29.3259V13.1278H28.1133V8.90967Z" fill="#F8B616"/>
<path d="M9.24154 9.03467V14.2968C9.04641 14.2968 8.8931 14.4082 8.73978 14.5614C8.58647 14.6727 8.46103 14.8537 8.43315 15.0764C8.2659 15.4384 8.19621 15.7586 8.19621 16.1762C8.07077 16.7748 8.07077 17.3873 8.07077 18.0277C8.07077 18.6124 8.07077 19.2249 8.19621 19.8514C8.22408 20.2968 8.2659 20.7841 8.34952 21.2992C8.43315 21.508 8.50284 21.7307 8.65615 21.9256C8.73978 22.0231 8.82341 22.1484 8.96279 22.1762C9.04641 22.218 9.15791 22.218 9.24154 22.218V27.3549C8.8931 27.3966 8.50284 27.2435 8.19621 27.0625C7.62476 26.7284 7.20663 26.3247 6.85818 25.8514C6.81637 25.74 6.74668 25.6704 6.66306 25.6008C5.79891 24.3479 5.29715 22.914 5.10203 21.4105C4.9069 20.269 4.87902 19.1275 4.87902 17.9581C4.83721 16.0091 5.22747 14.0184 5.96617 12.1391C6.20311 11.6658 6.42611 11.2342 6.76062 10.8305C7.15088 10.2736 7.61082 9.84209 8.23802 9.43838C8.51678 9.25741 8.90703 9.10427 9.25548 9.06251L9.24154 9.03467Z" fill="#F8B616"/>
<path d="M12.3633 8.979H10.0078V14.2412H12.3633V8.979Z" fill="#F8B616"/>
<path d="M12.3633 22.1763H10.0078V27.4384H12.3633V22.1763Z" fill="#F8B616"/>
<path d="M0 17.9863C0 8.13016 8.05603 0.0419922 17.9797 0.0419922C27.8616 0.0419922 35.9594 8.13016 35.9734 17.9863C35.9734 27.8285 27.8616 35.9306 17.9797 35.9306V34.622C27.1368 34.6081 34.6353 27.1046 34.6632 17.9863C34.6353 8.85406 27.1368 1.3645 17.9797 1.33666C8.79473 1.35058 1.32409 8.85406 1.29621 17.9863C1.31015 27.1186 8.79473 34.6081 17.9797 34.622V35.9306C8.05603 35.9306 0 27.8285 0 17.9863Z" fill="white"/>
</g>
<defs>
<clipPath id="clip0_20_18013">
<rect width="202" height="36" fill="white"/>
</clipPath>
</defs>
</svg>
