<svg width="205" height="36" viewBox="0 0 205 36" fill="none" xmlns="http://www.w3.org/2000/svg">
<g clip-path="url(#clip0_20_18383)">
<path fill-rule="evenodd" clip-rule="evenodd" d="M79.9573 17.9931C79.9573 27.5732 72.175 35.3881 62.5574 35.3881C52.9398 35.3881 45.2002 27.5732 45.2002 17.9931C45.2002 8.41302 52.9683 0.612305 62.5432 0.612305C72.1181 0.612305 79.9431 8.38454 79.9431 18.0073L79.9573 17.9931Z" fill="#211613"/>
<path fill-rule="evenodd" clip-rule="evenodd" d="M57.8049 10.0922C58.6443 10.0922 59.3272 9.40896 59.3272 8.55487C59.3272 7.70078 58.6301 7.03174 57.8049 7.03174C56.9797 7.03174 56.2684 7.72925 56.2684 8.55487C56.2684 9.38049 56.9655 10.0922 57.8049 10.0922ZM60.7784 17.3236C60.8638 16.868 60.9064 16.3841 60.9064 15.8716C60.9064 13.2097 59.5549 11.0317 57.876 11.0317C56.1972 11.0317 54.8457 13.2097 54.8457 15.8716C54.8457 16.3129 54.8741 16.7399 54.9452 17.1385C53.8213 17.836 53.0957 18.9463 53.0957 20.1705C53.0957 20.3698 53.1242 20.5549 53.1526 20.7399H55.9269V29.0673C55.9269 29.4944 56.2684 29.836 56.6952 29.836C57.0936 29.836 57.4492 29.4944 57.4492 29.0673V20.7399H58.0895V28.9962C58.0895 29.4232 58.4309 29.7648 58.8577 29.7648C59.2561 29.7648 59.6118 29.4232 59.6118 28.9962V20.7399H62.3007C62.3292 20.5549 62.3719 20.3698 62.3719 20.1705C62.3719 19.046 61.7601 18.0353 60.7784 17.3236Z" fill="#EB6B8D"/>
<path fill-rule="evenodd" clip-rule="evenodd" d="M68.7464 8.4411C68.7464 9.28096 68.0492 9.97847 67.2098 9.97847C66.3704 9.97847 65.6875 9.29519 65.6875 8.4411C65.6875 7.58701 66.3704 6.91797 67.2098 6.91797C68.0492 6.91797 68.7464 7.60124 68.7464 8.4411Z" fill="#22B2E9"/>
<path fill-rule="evenodd" clip-rule="evenodd" d="M69.4574 10.9751H64.8051C63.9372 10.9751 63.2686 11.6726 63.2686 12.5125V18.5908C63.2686 18.8185 63.3255 19.032 63.3966 19.2029C63.6242 19.9288 64.236 20.1281 64.6201 20.5979V29.0107C64.6201 29.4093 65.0327 29.7794 65.5307 29.7794C66.0286 29.7794 66.4412 29.4235 66.4412 29.0107V22.3915H67.8355V29.0107C67.8355 29.4093 68.2481 29.7794 68.7603 29.7794C69.2724 29.7794 69.685 29.4235 69.685 29.0107V20.5552C70.1688 20.1708 70.6383 19.8577 70.8374 19.2883C70.9513 19.089 71.0082 18.847 71.0082 18.5908V18.3061C71.0224 18.0071 71.0224 17.7224 71.0082 17.4093V12.5125C71.0082 11.6868 70.311 10.9751 69.4574 10.9751Z" fill="#22B2E9"/>
<path d="M44.1611 18.0072C44.1611 8.15662 52.1711 0.0854492 62.059 0.0854492C71.89 0.0854492 79.9568 8.15662 79.9568 18.0072C79.9568 27.8435 71.89 35.9004 62.059 35.9146V34.4627C71.0933 34.4342 78.4914 27.0321 78.5056 18.0072C78.4914 8.96801 71.0933 1.55164 62.059 1.53741C52.982 1.53741 45.6123 8.96801 45.6123 18.0072C45.6123 27.0321 52.9962 34.4342 62.059 34.4627V35.9146C52.1711 35.9004 44.1611 27.8435 44.1611 18.0072Z" fill="white"/>
<path d="M87.0703 17.6939C87.0703 8.28468 94.5823 0.654785 103.83 0.654785C113.078 0.654785 120.59 8.28468 120.59 17.6939C120.59 27.1032 113.092 34.7188 103.83 34.7188C94.5681 34.7188 87.0703 27.0889 87.0703 17.6939Z" fill="#211613"/>
<path d="M101.583 7.3877C102.052 7.3877 102.522 7.57275 102.806 7.91439C103.148 8.19908 103.333 8.61189 103.333 9.05318V9.09588C103.333 9.56563 103.148 9.99268 102.806 10.3343C102.522 10.676 102.052 10.861 101.583 10.861C101.156 10.861 100.672 10.676 100.388 10.3343C100.061 10.0069 99.8613 9.52293 99.8613 9.09588C99.8613 8.61189 100.046 8.19908 100.388 7.91439C100.672 7.57275 101.156 7.3877 101.583 7.3877Z" fill="white"/>
<path d="M99.0785 16.484L99.1923 18.3772C97.7553 19.4163 96.9302 21.0961 96.9302 22.9039V23.1316C96.9302 24.6975 97.5419 26.1921 98.6516 27.2882C99.7614 28.4128 101.255 29.0107 102.806 29.0107H103.034C104.414 29.0107 105.751 28.5124 106.804 27.5729C107.914 26.6334 108.639 25.3096 108.81 23.9003L109.977 25.7936C109.422 27.1744 108.468 28.3986 107.188 29.2811C105.964 30.121 104.471 30.6192 102.92 30.6192C100.928 30.6192 98.9931 29.8505 97.5419 28.3986C96.105 27.0035 95.3083 25.0107 95.3083 23.0178C95.2513 20.2989 96.7025 17.7509 99.1496 16.4697H99.0785V16.484Z" fill="white"/>
<path d="M101.625 12.085C101.127 12.1561 100.629 12.3697 100.302 12.7682C100.245 12.8109 100.188 12.8821 100.188 12.8821C99.9033 13.2665 99.8037 13.7077 99.8037 14.1633L100.188 20.2558C100.188 20.8109 100.401 21.2522 100.8 21.5939C101.184 21.9213 101.696 22.0921 102.194 22.0921H108.738L111.612 26.9746C111.84 27.302 112.224 27.5298 112.679 27.5298C112.836 27.5298 112.95 27.5298 113.106 27.4729C113.391 27.4159 113.604 27.1882 113.732 26.9746C113.789 26.8038 113.846 26.5903 113.846 26.4195V26.3768C113.846 26.1348 113.789 25.9213 113.618 25.7504L109.976 19.601C109.805 19.2736 109.421 19.0458 109.023 19.0458H103.987V17.8786H107.657C107.771 17.8786 107.871 17.8216 107.984 17.8216C108.198 17.7789 108.368 17.6081 108.44 17.4373C108.497 17.2807 108.539 17.1526 108.539 16.996V16.9391C108.539 16.8252 108.539 16.7113 108.497 16.6117C108.44 16.3839 108.326 16.2273 108.112 16.1704C107.942 16.1134 107.828 16.0565 107.671 16.0565H103.887L103.73 13.9355C103.73 13.4373 103.503 12.9391 103.062 12.6117C102.678 12.2842 102.18 12.0992 101.667 12.0992L101.625 12.085Z" fill="white"/>
<path d="M85.8613 18.0071C85.8613 8.11388 93.9282 0 103.859 0C113.747 0 121.842 8.11388 121.842 18.0071C121.842 27.8861 113.747 35.9858 103.859 36V34.7046C113.007 34.6762 120.519 27.1601 120.547 18.0071C120.533 8.83986 113.021 1.32384 103.859 1.29537C94.6538 1.30961 87.1845 8.82562 87.156 18.0071C87.1702 27.1601 94.6395 34.6762 103.859 34.7046V36C93.9282 35.9858 85.8613 27.8861 85.8613 18.0071Z" fill="white"/>
<path fill-rule="evenodd" clip-rule="evenodd" d="M204.474 17.865C204.474 27.5875 196.706 35.502 187.103 35.502C177.499 35.502 169.76 27.5732 169.76 17.865C169.76 8.15685 177.528 0.228027 187.103 0.228027C196.678 0.228027 204.474 8.11415 204.474 17.865Z" fill="#211613"/>
<path d="M169.19 18.0072C169.19 8.15662 177.229 0.0854492 187.088 0.0854492C196.934 0.0854492 204.986 8.15662 204.986 18.0072C204.986 27.8435 196.934 35.9004 187.088 35.9004V34.5908C196.222 34.5623 203.691 27.1032 203.691 17.9929C203.691 8.86837 196.222 1.39506 187.088 1.33812C177.954 1.39506 170.499 8.86837 170.471 17.9929C170.499 27.089 177.954 34.5623 187.088 34.5908V35.9004C177.229 35.9004 169.19 27.8435 169.19 18.0072Z" fill="white"/>
<path d="M176.418 16.3989V28.6124H197.801V16.3989H176.418ZM187.074 26.6623C184.769 26.6623 182.962 24.769 182.962 22.4487C182.962 20.1285 184.769 18.3206 187.074 18.3206C189.379 18.3206 191.271 20.1569 191.271 22.4487C191.271 24.7406 189.336 26.6623 187.074 26.6623Z" fill="white"/>
<path d="M186.875 25.8224V25.2246C186.476 25.1961 186.064 25.011 185.765 24.9826C185.537 24.8687 185.238 24.6552 185.011 24.4416C184.826 24.1996 184.584 23.9149 184.584 23.5875L185.608 23.431C185.751 23.8295 185.893 24.0288 185.964 24.1996C186.291 24.4843 186.633 24.584 186.875 24.584V22.5911C186.547 22.4203 186.135 22.406 185.765 22.1641C185.438 22.0786 185.238 21.9078 185.11 21.7512C184.897 21.5092 184.826 21.2673 184.826 21.0537C184.826 20.6125 185.11 20.1712 185.523 19.8011C185.879 19.673 186.305 19.5875 186.875 19.5875V19.189H187.415V19.5875C187.999 19.5875 188.354 19.673 188.696 19.8011C189.08 20.0715 189.379 20.4274 189.478 20.8829L188.511 20.9541C188.454 20.6552 188.297 20.527 188.127 20.3562C187.999 20.2281 187.7 20.1285 187.415 20.0715V21.9932C187.87 22.0929 188.127 22.1783 188.354 22.1783C188.639 22.2779 188.923 22.4203 189.066 22.4345C189.179 22.6196 189.379 22.7762 189.478 22.947C189.549 23.0893 189.606 23.374 189.606 23.5591C189.606 24.0004 189.379 24.3278 189.009 24.6694C188.639 24.9968 188.07 25.1961 187.415 25.1961V25.8224H186.875ZM186.875 20.0573C186.562 20.0573 186.277 20.2281 186.064 20.4132C185.893 20.5128 185.765 20.7263 185.765 20.9968C185.765 21.1676 185.893 21.3669 185.964 21.5377C186.192 21.7228 186.476 21.7512 186.875 21.8794V20.0573ZM187.429 24.584C187.785 24.584 188.084 24.4843 188.312 24.2566C188.525 24.1142 188.653 23.858 188.653 23.5875C188.653 23.374 188.653 23.0893 188.468 23.0181C188.297 22.8473 187.927 22.6765 187.429 22.6623V24.584Z" fill="white"/>
<path d="M181.128 12.5268H178.979L178.681 13.5233H176.731L179.05 7.4165H181.113L183.418 13.5233H181.426L181.128 12.5268ZM180.715 11.2457L180.046 9.01081L179.392 11.2457H180.715Z" fill="white"/>
<path d="M183.803 7.4165H189.551V8.93964H187.63V13.5233H185.738V8.93964H183.803V7.4165Z" fill="white"/>
<path d="M190.603 7.4165H193.093L194.06 11.1603L194.999 7.4165H197.475V13.5233H195.924V8.85423L194.715 13.5233H193.32L192.125 8.85423V13.5233H190.589V7.4165H190.603Z" fill="white"/>
<path d="M0.810547 18.0496C0.810547 8.71155 8.3652 1.15283 17.6983 1.15283C27.0313 1.15283 34.586 8.71155 34.586 18.0496C34.586 27.3877 27.0313 34.9464 17.6983 34.9464C8.3652 34.9464 0.810547 27.3735 0.810547 18.0496Z" fill="#211613"/>
<path d="M28.07 18.3203C29.8057 18.3203 31.2142 19.7296 31.2142 21.4662C31.2142 23.2029 29.8057 24.6121 28.07 24.6121C26.3343 24.6121 24.9258 23.2029 24.9258 21.4662C24.9258 20.7972 25.1392 20.1851 25.4806 19.6726H26.6188C26.3627 19.8719 26.2489 20.1281 26.2489 20.4271C26.2489 20.6264 26.3058 20.7972 26.4339 20.968C26.5619 21.1246 26.7326 21.2385 26.946 21.3381C27.2448 21.452 27.5436 21.5374 27.8281 21.5943V23.1602C27.5578 23.1459 27.3302 23.0463 27.131 22.8755C27.003 22.7474 26.9034 22.5623 26.8465 22.2918L26.1351 22.3773C26.1635 22.6335 26.2489 22.847 26.4054 23.0321C26.5619 23.2029 26.7469 23.331 26.9745 23.4164C27.1879 23.4876 27.4725 23.5587 27.8281 23.5872V24.0854H28.2407V23.5872C28.7244 23.573 29.1228 23.4449 29.4216 23.2171C29.7346 22.9894 29.8769 22.7047 29.8769 22.363C29.8769 22.2064 29.8342 22.0641 29.763 21.9217C29.6919 21.7936 29.5781 21.6797 29.45 21.5801C29.322 21.4805 29.137 21.395 28.9236 21.3381C28.8098 21.3096 28.5822 21.2527 28.2265 21.1815V19.758C28.4541 19.7865 28.6249 19.8577 28.7671 19.9573C28.8952 20.057 28.9805 20.1993 29.0232 20.3986L29.7346 20.3417C29.6634 20.0285 29.4927 19.7865 29.1797 19.6015C28.9379 19.4591 28.6249 19.3879 28.2265 19.3452V19.1175H27.8139V19.3452C27.4725 19.3737 27.1879 19.4306 26.9745 19.516V18.5623C27.316 18.4342 27.6859 18.363 28.07 18.363V18.3203Z" fill="white"/>
<path d="M17.4283 0.555176C27.0459 0.555176 34.8567 8.38436 34.8567 17.9929C34.8567 27.6014 27.0317 35.4306 17.4283 35.4306C7.82497 35.4306 0 27.6157 0 17.9929C0 8.37012 7.82497 0.555176 17.4283 0.555176ZM33.5193 17.9929C33.5193 9.11034 26.3061 1.89325 17.4283 1.89325C8.55056 1.89325 1.33736 9.12457 1.33736 17.9929C1.33736 26.8612 8.55056 34.0925 17.4283 34.0925C26.3061 34.0925 33.5193 26.8755 33.5193 17.9929Z" fill="white"/>
<path d="M28.9669 21.9076C29.095 22.0215 29.1519 22.1638 29.1519 22.3489C29.1519 22.5624 29.0665 22.7332 28.8816 22.8898C28.7108 23.0321 28.4832 23.1176 28.2129 23.1318V21.6514C28.5828 21.7225 28.8389 21.808 28.9669 21.9218V21.9076Z" fill="white"/>
<path d="M27.8137 19.7012V21.0677C27.5007 21.0108 27.2731 20.9254 27.1308 20.8115C26.9885 20.6976 26.9316 20.5553 26.9316 20.3844C26.9316 20.2136 27.017 20.057 27.1735 19.9432C27.33 19.8151 27.5434 19.7439 27.828 19.7154L27.8137 19.7012Z" fill="white"/>
<path d="M26.9749 18.5054V19.4591C26.9037 19.4876 26.8326 19.5303 26.7615 19.5588C26.7046 19.5872 26.6619 19.6299 26.605 19.6726H25.4668C25.8367 19.1459 26.3489 18.7331 26.9607 18.5054H26.9749Z" fill="white"/>
<path d="M26.9751 11.9287V17.8077C25.9934 18.1066 25.1682 18.7899 24.6987 19.6725H22.9346V11.9287H26.9893H26.9751ZM25.5951 16.9963V13.8647C25.5951 13.6938 25.5239 13.523 25.4101 13.4091C25.2963 13.2953 25.1256 13.2241 24.9548 13.2241C24.5992 13.2241 24.3146 13.5088 24.3146 13.8647V16.9963C24.3146 17.1671 24.3857 17.338 24.4996 17.4518C24.6134 17.5657 24.7841 17.6369 24.9548 17.6369C25.3105 17.6369 25.5951 17.3522 25.5951 16.9963Z" fill="white"/>
<path d="M21.9524 6.6333V29.1102H8.43652V6.6333H21.9382H21.9524ZM21.2126 24.2418V22.4055H19.5195V24.2418H21.2126ZM21.2126 20.6974V18.8611H19.5195V20.6974H21.2126ZM21.2126 18.0639V16.2276H19.5195V18.0639H21.2126ZM21.2126 15.4305V13.5942H19.5195V15.4305H21.2126ZM21.2126 12.8112V10.9749H19.5195V12.8112H21.2126ZM21.2126 10.1778V8.34149H19.5195V10.1778H21.2126ZM18.6374 28.0568V7.41622H9.34707V28.0568H18.6374Z" fill="white"/>
<path d="M17.7979 8.14258V27.2173H10.0156V8.14258H17.7979ZM16.987 26.6052V23.0607H10.9973V26.6052H16.987Z" fill="white"/>
<path fill-rule="evenodd" clip-rule="evenodd" d="M162.091 18.5196C162.091 27.758 154.536 35.274 145.203 35.274C135.87 35.274 128.344 27.7438 128.344 18.5196C128.344 9.29539 135.884 1.76514 145.203 1.76514C154.522 1.76514 162.091 9.25268 162.091 18.5196Z" fill="#211613"/>
<path d="M153.939 17.9929C154.551 17.9929 155.077 17.452 155.077 16.7972C155.077 16.1424 154.551 15.6157 153.939 15.6157C153.327 15.6157 152.801 16.1424 152.801 16.7972C152.801 17.452 153.299 17.9929 153.939 17.9929Z" fill="#F8B616"/>
<path d="M155.276 23.5444V20.0142C155.262 19.7864 155.589 19.7864 155.589 20.0142V22.6619C155.589 22.9323 155.816 23.1459 156.058 23.1459C156.329 23.1459 156.556 22.9181 156.556 22.6476V19.6583C156.556 19.032 155.902 18.306 155.148 18.306H152.871C152.388 18.3487 152.075 18.3914 151.847 18.2633L149.187 17.3238C148.874 17.2241 148.546 17.2526 148.39 17.6227C148.248 17.9644 148.404 18.306 148.845 18.4341L151.904 19.6156C152.601 19.9003 152.53 20.2562 152.53 20.4555V23.2597V28.5978C152.53 28.9394 152.743 29.2241 153.085 29.2241C153.426 29.2241 153.697 28.9394 153.697 28.5978V24.2277C153.697 23.9288 154.109 23.9145 154.109 24.2277V28.5978C154.109 28.9394 154.38 29.2241 154.707 29.2241C155.062 29.2241 155.276 28.9394 155.276 28.5978V23.5587H155.29L155.276 23.5444Z" fill="#F8B616"/>
<path fill-rule="evenodd" clip-rule="evenodd" d="M140.792 16.8544C140.864 16.4131 140.935 15.9291 140.935 15.4451C140.935 12.8402 139.626 10.7334 138.032 10.7334C136.439 10.7334 135.116 12.8402 135.116 15.4451C135.116 15.8722 135.144 16.3135 135.215 16.6836C134.148 17.3526 133.451 18.4345 133.451 19.6444C133.451 19.801 133.451 20.0003 133.494 20.1427H136.154V28.285C136.154 28.6978 136.482 29.011 136.88 29.011C137.278 29.011 137.62 28.6978 137.62 28.285V20.1427H138.246V28.2138C138.246 28.6124 138.573 28.9398 138.971 28.9398C139.37 28.9398 139.697 28.6124 139.697 28.2138V20.1427H142.272C142.3 19.9861 142.315 19.801 142.315 19.6444C142.315 18.5199 141.731 17.5377 140.807 16.8402L140.792 16.8544Z" fill="#EB6B8D"/>
<path fill-rule="evenodd" clip-rule="evenodd" d="M139.356 8.1141C139.356 8.98243 138.673 9.67994 137.876 9.67994C137.079 9.67994 136.396 8.98243 136.396 8.1141C136.396 7.24577 137.065 6.5625 137.876 6.5625C138.687 6.5625 139.356 7.27424 139.356 8.1141Z" fill="#EB6B8D"/>
<path fill-rule="evenodd" clip-rule="evenodd" d="M146.156 9.59445C146.925 9.59445 147.579 8.92541 147.579 8.07132C147.579 7.21723 146.925 6.57666 146.156 6.57666C145.388 6.57666 144.719 7.25993 144.719 8.07132C144.719 8.88271 145.36 9.59445 146.156 9.59445ZM148.419 10.8471H144.037C143.254 10.8471 142.6 11.5304 142.6 12.3703V18.3347C142.6 18.5624 142.642 18.7759 142.728 18.9468C142.913 19.6727 143.496 19.8863 143.852 20.3418V28.598C143.852 29.0108 144.25 29.3525 144.719 29.3525C145.189 29.3525 145.587 29.0108 145.587 28.598V22.1069H146.896V28.598C146.896 29.0108 147.266 29.3525 147.736 29.3525C148.205 29.3525 148.589 29.0108 148.589 28.598V20.2848C149.059 19.9005 149.528 19.6158 149.699 19.0179C149.799 18.8329 149.87 18.5909 149.87 18.3347V18.0642C149.87 17.7795 149.87 17.4663 149.87 17.1674V12.3703C149.87 11.5304 149.229 10.8471 148.433 10.8471H148.419Z" fill="#22B2E9"/>
<path d="M127.732 18.0074C127.732 8.39882 135.557 0.512695 145.218 0.512695C154.821 0.512695 162.689 8.39882 162.689 18.0074C162.689 27.6159 154.821 35.4735 145.218 35.4878V34.2209C154.11 34.2066 161.408 26.8899 161.437 17.9931C161.422 9.08209 154.11 1.7796 145.218 1.76536C136.269 1.7796 129.013 9.08209 128.984 17.9931C129.013 26.8899 136.269 34.1924 145.218 34.2209V35.4878C135.557 35.4735 127.732 27.6017 127.732 18.0074Z" fill="white"/>
</g>
<defs>
<clipPath id="clip0_20_18383">
<rect width="205" height="36" fill="white"/>
</clipPath>
</defs>
</svg>
