<svg width="507" height="123" viewBox="0 0 507 123" fill="none" xmlns="http://www.w3.org/2000/svg">
<g clip-path="url(#clip0_19_17104)">
<path d="M500.351 5.4126H5.65234V55.3127H500.351V5.4126Z" fill="#CE0E2D"/>
<path d="M108.629 59.3169V112.567" stroke="#CE0E2D" stroke-width="0.764001" stroke-miterlimit="10"/>
<path d="M204.93 59.3169V112.567" stroke="#CE0E2D" stroke-width="0.764001" stroke-miterlimit="10"/>
<path d="M301.225 59.3169V112.567" stroke="#CE0E2D" stroke-width="0.764001" stroke-miterlimit="10"/>
<path d="M505.727 0.76123H0.761719V121.641H505.727V0.76123Z" stroke="#CE0E2D" stroke-width="1.528" stroke-miterlimit="10"/>
<path d="M23.4188 27.1481H32.0867V28.8939H23.4188V27.1481ZM22.5256 27.1481H24.312V33.0756C24.312 33.8199 24.2781 34.6386 24.2105 35.5318C24.1563 36.4115 24.0345 37.2708 23.8451 38.1098C23.6556 38.9489 23.3579 39.7 22.9519 40.3631C22.8572 40.2548 22.7151 40.1263 22.5256 39.9774C22.3497 39.8421 22.1602 39.7067 21.9572 39.5714C21.7678 39.4361 21.6054 39.3346 21.47 39.2669C21.7948 38.685 22.0317 38.0422 22.1805 37.3385C22.3429 36.6212 22.4376 35.8972 22.4647 35.1664C22.5053 34.4221 22.5256 33.7184 22.5256 33.0553V27.1481ZM24.4541 34.6183C25.0766 34.4965 25.7938 34.3477 26.6058 34.1717C27.4178 33.9958 28.2704 33.8064 29.1635 33.6034C30.0702 33.3868 30.977 33.1771 31.8837 32.9741L32.0664 34.4762C30.8484 34.801 29.6237 35.1191 28.3922 35.4303C27.1742 35.728 26.0645 35.9987 25.063 36.2423L24.4541 34.6183ZM24.7788 31.1674L25.5502 29.9697C26.1186 30.078 26.7141 30.2269 27.3366 30.4163C27.9591 30.6058 28.5546 30.8088 29.1229 31.0253C29.6913 31.2283 30.1582 31.4313 30.5236 31.6343L29.7319 32.9741C29.3665 32.7711 28.8996 32.5545 28.3313 32.3245C27.7764 32.0944 27.1877 31.8779 26.5652 31.6749C25.9427 31.4584 25.3472 31.2892 24.7788 31.1674ZM32.2491 21.9108L34.1166 22.6213C33.7783 23.3115 33.4129 24.0017 33.0204 24.6919C32.628 25.3685 32.2626 25.9572 31.9243 26.4579L30.2597 25.7881C30.4898 25.4362 30.7266 25.0437 30.9702 24.6107C31.2138 24.1641 31.4506 23.704 31.6807 23.2303C31.9107 22.7567 32.1002 22.3168 32.2491 21.9108ZM21.9978 22.7634L23.6218 22.0529C23.8924 22.4183 24.1699 22.8243 24.4541 23.2709C24.7382 23.7175 24.9886 24.1573 25.2051 24.5904C25.4217 25.0099 25.5841 25.3956 25.6923 25.7475L23.9466 26.5797C23.8518 26.2279 23.703 25.8354 23.5 25.4024C23.297 24.9558 23.0669 24.5024 22.8098 24.0423C22.5527 23.5822 22.282 23.1559 21.9978 22.7634ZM31.498 27.1481H33.3655V38.0286C33.3655 38.5158 33.3046 38.9015 33.1828 39.1857C33.0746 39.4699 32.8445 39.6932 32.4927 39.8556C32.1679 40.0045 31.7348 40.0924 31.1935 40.1195C30.6522 40.1466 29.9958 40.1601 29.2244 40.1601C29.1974 39.9165 29.1229 39.612 29.0011 39.2466C28.8929 38.8948 28.7711 38.597 28.6358 38.3534C29.1635 38.367 29.6643 38.3805 30.1379 38.394C30.6116 38.394 30.9296 38.394 31.092 38.394C31.3627 38.3805 31.498 38.2519 31.498 38.0083V27.1481ZM27.0321 21.3831H28.9808V28.3052H27.0321V21.3831ZM16.6996 23.0273L17.8364 21.6876C18.2289 21.9041 18.6552 22.1477 19.1153 22.4183C19.5889 22.6755 20.0423 22.9326 20.4754 23.1897C20.9084 23.4468 21.267 23.6769 21.5512 23.8799L20.3739 25.4227C20.1167 25.2061 19.7716 24.9625 19.3386 24.6919C18.9191 24.4077 18.4725 24.1235 17.9988 23.8393C17.5387 23.5416 17.1056 23.2709 16.6996 23.0273ZM15.5629 28.63L16.6185 27.2293C17.0109 27.4052 17.444 27.6218 17.9176 27.8789C18.3913 28.1225 18.8514 28.3661 19.298 28.6097C19.7581 28.8397 20.1303 29.0563 20.4145 29.2593L19.3386 30.8426C19.0679 30.6396 18.7093 30.4096 18.2627 30.1524C17.8297 29.8953 17.3763 29.6314 16.9026 29.3608C16.429 29.0901 15.9824 28.8465 15.5629 28.63ZM16.2531 38.6985C16.6185 38.1843 17.0244 37.5685 17.471 36.8513C17.9312 36.134 18.3913 35.3762 18.8514 34.5777C19.3115 33.7658 19.7378 32.9741 20.1303 32.2027L21.5309 33.4816C21.1791 34.1853 20.7934 34.9228 20.3739 35.6942C19.9679 36.4521 19.5483 37.1964 19.1153 37.9271C18.6958 38.6579 18.283 39.3481 17.877 39.9977L16.2531 38.6985ZM38.8058 24.6107H51.2697V23.616H37.4051V22.4183H53.0357V25.8083H38.8058V24.6107ZM38.2374 24.6107H39.9426C39.8614 25.2061 39.7734 25.8219 39.6787 26.4579C39.5839 27.0805 39.4824 27.6218 39.3742 28.0819H37.6893C37.7976 27.5947 37.8991 27.0399 37.9938 26.4173C38.1021 25.7813 38.1833 25.1791 38.2374 24.6107ZM38.481 26.8842H53.1169V28.0819H38.1156L38.481 26.8842ZM52.508 26.8842H54.3146C54.3146 26.8842 54.3078 26.9519 54.2943 27.0872C54.2943 27.2225 54.2875 27.3376 54.274 27.4323C54.2199 28.0278 54.1522 28.4946 54.071 28.833C54.0034 29.1713 53.8883 29.4217 53.7259 29.5841C53.5906 29.7194 53.4282 29.8209 53.2387 29.8885C53.0628 29.9562 52.8733 29.9968 52.6704 30.0103C52.4809 30.0103 52.217 30.0103 51.8787 30.0103C51.5539 30.0103 51.202 30.0036 50.8231 29.99C50.8096 29.8141 50.769 29.6111 50.7013 29.3811C50.6336 29.151 50.5592 28.9548 50.478 28.7924C50.7622 28.8194 51.0193 28.8397 51.2494 28.8533C51.4795 28.8668 51.6486 28.8668 51.7569 28.8533C51.8651 28.8533 51.9531 28.8465 52.0208 28.833C52.0884 28.8194 52.1493 28.7856 52.2035 28.7315C52.2847 28.6503 52.3456 28.4879 52.3862 28.2443C52.4403 27.9872 52.4809 27.6015 52.508 27.0872V26.8842ZM42.2364 21.4034H43.9822V25.3009C43.9822 25.991 43.901 26.6406 43.7386 27.2496C43.5762 27.8586 43.2582 28.4202 42.7845 28.9345C42.3244 29.4352 41.641 29.8818 40.7343 30.2742C39.8275 30.6667 38.6299 30.9983 37.1412 31.2689C37.1006 31.1201 37.0262 30.9577 36.9179 30.7817C36.8097 30.5923 36.6947 30.4096 36.5729 30.2336C36.4646 30.0442 36.3563 29.8885 36.2481 29.7668C37.5743 29.5502 38.6299 29.2931 39.4148 28.9954C40.2132 28.6841 40.8154 28.339 41.2214 27.9601C41.6274 27.5676 41.8981 27.1481 42.0334 26.7015C42.1687 26.2549 42.2364 25.7745 42.2364 25.2603V21.4034ZM46.7632 21.4034H48.5699V29.442H46.7632V21.4034ZM40.714 32.7711V33.8267H50.275V32.7711H40.714ZM40.714 34.9431V36.019H50.275V34.9431H40.714ZM40.714 30.6193V31.6749H50.275V30.6193H40.714ZM38.8464 29.4623H52.2238V37.1761H38.8464V29.4623ZM47.088 37.9474L48.2045 36.831C48.9623 37.061 49.7202 37.3046 50.478 37.5618C51.2494 37.8189 51.9802 38.076 52.6704 38.3331C53.3605 38.5767 53.9492 38.8068 54.4364 39.0233L53.0154 40.2007C52.5689 39.9842 52.0275 39.7406 51.3915 39.4699C50.7554 39.2128 50.0653 38.9489 49.3209 38.6782C48.5902 38.4211 47.8458 38.1775 47.088 37.9474ZM42.2161 37.0543L43.9416 37.8459C43.3867 38.1572 42.7439 38.4617 42.0131 38.7594C41.2959 39.0707 40.5516 39.3549 39.7802 39.612C39.0223 39.8691 38.2983 40.0857 37.6081 40.2616C37.5134 40.1263 37.3781 39.9706 37.2021 39.7947C37.0397 39.6188 36.8706 39.4428 36.6947 39.2669C36.5187 39.1045 36.3631 38.9692 36.2278 38.8609C36.9315 38.7256 37.6555 38.57 38.3998 38.394C39.1441 38.2046 39.8478 38.0016 40.511 37.7851C41.1741 37.555 41.7425 37.3114 42.2161 37.0543ZM60.3233 27.3917H70.9805V29.1781H60.3233V27.3917ZM57.8467 31.6546H73.5179V33.4004H57.8467V31.6546ZM56.8926 37.9474H74.5126V39.7135H56.8926V37.9474ZM64.6065 28.2037H66.6567V38.8H64.6065V28.2037ZM59.3895 34.2326L60.9525 33.6034C61.2232 33.9552 61.4803 34.3477 61.7239 34.7807C61.9811 35.2002 62.2111 35.6198 62.4141 36.0393C62.6306 36.4453 62.7863 36.8107 62.881 37.1355L61.2164 37.8662C61.1217 37.5415 60.9796 37.1693 60.7902 36.7498C60.6007 36.3303 60.3842 35.8972 60.1406 35.4506C59.897 35.004 59.6466 34.598 59.3895 34.2326ZM70.2091 33.6034L72.0361 34.2935C71.6571 34.9296 71.2579 35.5724 70.8384 36.222C70.4189 36.8716 70.0332 37.4264 69.6813 37.8865L68.2198 37.2573C68.4498 36.9325 68.6867 36.5603 68.9302 36.1408C69.1738 35.7077 69.4107 35.2679 69.6407 34.8213C69.8708 34.3747 70.0603 33.9687 70.2091 33.6034ZM66.4131 22.3574C66.8868 22.8852 67.4619 23.413 68.1386 23.9408C68.8288 24.4686 69.5731 24.9693 70.3715 25.443C71.17 25.9031 71.9955 26.3226 72.8481 26.7015C73.7142 27.0805 74.5532 27.3917 75.3652 27.6353C75.2299 27.7706 75.0742 27.9398 74.8983 28.1428C74.7224 28.3458 74.56 28.5488 74.4111 28.7518C74.2622 28.9548 74.1337 29.1442 74.0254 29.3202C73.1999 29.0224 72.3609 28.657 71.5083 28.224C70.6692 27.7909 69.837 27.3037 69.0114 26.7624C68.1995 26.2076 67.4349 25.6257 66.7176 25.0167C66.0004 24.4077 65.3643 23.7784 64.8095 23.1288L66.4131 22.3574ZM65.5605 21.2004L67.3469 22.0123C66.6026 23.1491 65.7094 24.1912 64.6674 25.1385C63.6253 26.0722 62.4818 26.8978 61.2367 27.615C59.9917 28.3187 58.6993 28.9142 57.3595 29.4014C57.2242 29.1307 57.0347 28.833 56.7911 28.5082C56.5476 28.1699 56.304 27.8789 56.0604 27.6353C57.346 27.2428 58.591 26.7354 59.7955 26.1128C60.9999 25.4903 62.0961 24.7663 63.084 23.9408C64.0854 23.1153 64.9109 22.2018 65.5605 21.2004ZM76.9485 23.3724H85.7585V26.9045H84.2564V24.9152H78.3695V26.9045H76.9485V23.3724ZM78.2274 33.9484H84.7842V40.1804H83.079V35.4709H79.8717V40.2007H78.2274V33.9484ZM78.8161 38.0895H84.2158V39.5917H78.8161V38.0895ZM79.8108 25.443L81.3129 25.7069C80.9881 26.6406 80.5416 27.5338 79.9732 28.3864C79.4048 29.2254 78.674 29.9833 77.7808 30.6599C77.6861 30.4569 77.5372 30.2269 77.3342 29.9697C77.1448 29.7126 76.9621 29.5164 76.7862 29.3811C77.5846 28.8397 78.2274 28.224 78.7146 27.5338C79.2153 26.8301 79.5807 26.1331 79.8108 25.443ZM80.1965 26.803H83.7692V28.2443H79.5875L80.1965 26.803ZM83.3632 26.803H83.688L83.9519 26.7421L84.9263 27.412C84.4526 28.6435 83.8165 29.7329 83.0181 30.6802C82.2332 31.614 81.3468 32.4125 80.3589 33.0756C79.3845 33.7252 78.3763 34.2529 77.3342 34.6589C77.2666 34.5101 77.1786 34.3341 77.0703 34.1311C76.9621 33.9281 76.8471 33.7319 76.7253 33.5425C76.6035 33.353 76.4884 33.2041 76.3802 33.0959C77.3816 32.7711 78.3424 32.3313 79.2627 31.7764C80.1965 31.208 81.0152 30.5314 81.7189 29.7465C82.4362 28.9615 82.9843 28.0819 83.3632 27.1075V26.803ZM80.0544 21.9717L81.5971 21.4237C81.7731 21.8026 81.9558 22.2221 82.1452 22.6822C82.3347 23.1423 82.4835 23.5348 82.5918 23.8596L80.9678 24.5092C80.8867 24.1844 80.7581 23.7784 80.5822 23.2912C80.4062 22.804 80.2303 22.3642 80.0544 21.9717ZM86.3066 22.2965H95.279V23.9408H86.3066V22.2965ZM88.6005 30.2133V31.7764H92.8837V30.2133H88.6005ZM88.6005 33.1974V34.8213H92.8837V33.1974H88.6005ZM88.6005 27.1887V28.7721H92.8837V27.1887H88.6005ZM86.875 25.6663H94.7106V36.3235H86.875V25.6663ZM89.9199 23.1694L91.7469 23.4536C91.5845 24.022 91.4153 24.5904 91.2394 25.1588C91.077 25.7136 90.9281 26.2008 90.7928 26.6203L89.3718 26.2549C89.4666 25.8219 89.5681 25.3144 89.6763 24.7325C89.7846 24.137 89.8658 23.616 89.9199 23.1694ZM89.0673 36.5062L90.3056 37.7039C89.7102 38.191 89.0132 38.6715 88.2148 39.1451C87.4299 39.6188 86.6991 40.018 86.0224 40.3428C85.9277 40.1398 85.7991 39.903 85.6367 39.6323C85.4743 39.3616 85.3255 39.1316 85.1901 38.9421C85.6097 38.7391 86.063 38.5023 86.5502 38.2316C87.0374 37.9474 87.5043 37.6565 87.9509 37.3588C88.3975 37.0475 88.7696 36.7633 89.0673 36.5062ZM91.0567 37.6227L92.092 36.425C92.4709 36.655 92.8701 36.9189 93.2896 37.2167C93.7227 37.5144 94.1355 37.8189 94.5279 38.1301C94.9339 38.4279 95.2587 38.6985 95.5023 38.9421L94.4061 40.2819C94.1625 40.0248 93.8513 39.7338 93.4723 39.409C93.0934 39.0978 92.6942 38.7865 92.2747 38.4752C91.8551 38.1504 91.4492 37.8662 91.0567 37.6227ZM78.8161 30.3554L79.9123 29.2187C80.3724 29.4893 80.8731 29.7803 81.4144 30.0915C81.9558 30.4028 82.4971 30.7208 83.0384 31.0456C83.5933 31.3704 84.1075 31.6884 84.5812 31.9997C85.0683 32.311 85.4879 32.5816 85.8397 32.8117L84.703 34.1717C84.2699 33.8334 83.715 33.441 83.0384 32.9944C82.3617 32.5478 81.6513 32.0944 80.907 31.6343C80.1626 31.1606 79.4657 30.7344 78.8161 30.3554Z" fill="white"/>
<path d="M123.67 23.3507H140.329V25.1975H123.67V23.3507ZM133.038 29.3143L134.424 28.1408C134.975 28.5127 135.552 28.9167 136.155 29.3528C136.771 29.7888 137.38 30.2441 137.983 30.7187C138.585 31.1804 139.143 31.6356 139.656 32.0845C140.182 32.5334 140.618 32.9438 140.964 33.3157L139.445 34.7201C139.124 34.3353 138.714 33.9185 138.213 33.4696C137.713 33.0079 137.168 32.5334 136.578 32.046C136.001 31.5587 135.405 31.0842 134.789 30.6225C134.186 30.1479 133.603 29.7119 133.038 29.3143ZM132.5 24.0048L134.501 24.7358C133.782 26.0568 132.91 27.3521 131.884 28.6218C130.871 29.8914 129.73 31.0649 128.46 32.1422C127.203 33.2067 125.844 34.1237 124.382 34.8932C124.292 34.7393 124.17 34.5662 124.016 34.3738C123.862 34.1686 123.708 33.9698 123.554 33.7774C123.413 33.5722 123.272 33.4055 123.131 33.2772C124.183 32.7642 125.177 32.1615 126.113 31.4689C127.049 30.7764 127.921 30.0261 128.729 29.2181C129.55 28.3973 130.275 27.5445 130.903 26.6595C131.544 25.7746 132.077 24.8897 132.5 24.0048ZM130.999 28.1985L132.981 26.2363V26.2555V39.8372H130.999V28.1985ZM143.254 22.7928H147.89V24.428H144.85V39.8372H143.254V22.7928ZM147.563 22.7928H147.851L148.121 22.7351L149.313 23.4084C149.044 24.2035 148.749 25.05 148.428 25.9477C148.121 26.8455 147.813 27.6727 147.505 28.4294C148.159 29.2245 148.589 29.9684 148.794 30.6609C148.999 31.3407 149.102 31.9755 149.102 32.5655C149.102 33.1298 149.038 33.6171 148.909 34.0275C148.781 34.4251 148.57 34.7329 148.275 34.9509C148.146 35.0535 147.992 35.1369 147.813 35.201C147.633 35.2523 147.441 35.2972 147.236 35.3357C147.056 35.3485 146.851 35.3613 146.62 35.3741C146.402 35.3741 146.184 35.3677 145.966 35.3549C145.966 35.1497 145.928 34.8932 145.851 34.5854C145.774 34.2776 145.671 34.0083 145.543 33.7774C145.735 33.7902 145.915 33.8031 146.082 33.8159C146.261 33.8159 146.415 33.8095 146.543 33.7967C146.774 33.7838 146.96 33.7325 147.101 33.6428C147.242 33.5402 147.338 33.3798 147.39 33.1618C147.441 32.931 147.467 32.6681 147.467 32.3731C147.467 31.8729 147.364 31.3086 147.159 30.6802C146.966 30.0389 146.556 29.3528 145.928 28.6218C146.082 28.1985 146.235 27.7432 146.389 27.2559C146.556 26.7685 146.71 26.2812 146.851 25.7938C146.992 25.3065 147.12 24.8448 147.236 24.4087C147.364 23.9727 147.473 23.6008 147.563 23.293V22.7928ZM150.987 22.8313H158.701V31.4689H150.987V29.8914H156.951V24.428H150.987V22.8313ZM151.122 26.371H157.913V27.8715H151.122V26.371ZM154.777 30.5455C155.046 31.7126 155.418 32.8027 155.893 33.8159C156.38 34.8162 156.983 35.6948 157.701 36.4514C158.432 37.1953 159.291 37.7788 160.279 38.2021C160.138 38.3175 159.99 38.465 159.836 38.6445C159.682 38.8369 159.535 39.0293 159.394 39.2216C159.253 39.414 159.137 39.5936 159.048 39.7603C157.996 39.2345 157.098 38.5355 156.354 37.6634C155.61 36.7913 154.988 35.7781 154.488 34.6239C154.001 33.4568 153.603 32.1871 153.296 30.8148L154.777 30.5455ZM158.663 31.9114L159.856 33.1811C159.484 33.476 159.086 33.7774 158.663 34.0852C158.252 34.3802 157.836 34.6623 157.412 34.9317C157.002 35.201 156.624 35.4383 156.277 35.6435L155.296 34.4892C155.643 34.2712 156.021 34.0211 156.431 33.7389C156.842 33.444 157.246 33.1362 157.643 32.8155C158.041 32.4949 158.381 32.1935 158.663 31.9114ZM150.102 39.895L149.967 38.3175L150.756 37.6826L154.988 36.7208C154.976 36.9773 154.976 37.2658 154.988 37.5865C155.001 37.9071 155.027 38.1636 155.065 38.356C154.091 38.6253 153.302 38.8433 152.699 39.01C152.096 39.1768 151.622 39.3114 151.276 39.414C150.942 39.5166 150.692 39.6064 150.525 39.6833C150.359 39.7603 150.218 39.8308 150.102 39.895ZM150.102 39.895C150.064 39.7667 150 39.6064 149.91 39.414C149.82 39.2345 149.724 39.0549 149.621 38.8754C149.519 38.6958 149.416 38.5483 149.313 38.4329C149.493 38.3431 149.666 38.1828 149.833 37.952C150.012 37.7083 150.102 37.3684 150.102 36.9324V22.8313H151.891V38.2021C151.891 38.2021 151.827 38.2405 151.699 38.3175C151.583 38.3944 151.436 38.4906 151.256 38.606C151.09 38.7343 150.917 38.869 150.737 39.01C150.557 39.1639 150.404 39.3178 150.275 39.4717C150.16 39.6256 150.102 39.7667 150.102 39.895ZM165.396 27.6984H175.496V29.3913H165.396V27.6984ZM163.049 31.7382H177.9V33.3927H163.049V31.7382ZM162.145 37.7019H178.843V39.3755H162.145V37.7019ZM169.455 28.4679H171.398V38.5099H169.455V28.4679ZM164.511 34.1814L165.992 33.585C166.249 33.9185 166.493 34.2904 166.723 34.7008C166.967 35.0984 167.185 35.496 167.377 35.8935C167.583 36.2783 167.73 36.6246 167.82 36.9324L166.242 37.6249C166.153 37.3171 166.018 36.9644 165.838 36.5669C165.659 36.1693 165.454 35.7589 165.223 35.3357C164.992 34.9124 164.755 34.5277 164.511 34.1814ZM174.765 33.585L176.496 34.2391C176.137 34.8419 175.759 35.4511 175.361 36.0667C174.963 36.6823 174.598 37.2081 174.264 37.6442L172.879 37.0478C173.097 36.74 173.322 36.3873 173.553 35.9897C173.784 35.5793 174.008 35.1625 174.226 34.7393C174.444 34.3161 174.624 33.9313 174.765 33.585ZM171.167 22.9275C171.616 23.4276 172.161 23.9278 172.802 24.428C173.457 24.9282 174.162 25.4027 174.919 25.8516C175.675 26.2876 176.458 26.6852 177.266 27.0443C178.086 27.4034 178.881 27.6984 179.651 27.9292C179.523 28.0575 179.375 28.2178 179.209 28.4101C179.042 28.6025 178.888 28.7949 178.747 28.9873C178.606 29.1796 178.484 29.3592 178.381 29.5259C177.599 29.2438 176.804 28.8975 175.996 28.4871C175.201 28.0767 174.412 27.615 173.63 27.102C172.86 26.5762 172.136 26.0247 171.456 25.4476C170.776 24.8704 170.173 24.2741 169.647 23.6585L171.167 22.9275ZM170.359 21.8309L172.052 22.6004C171.347 23.6777 170.5 24.6652 169.513 25.563C168.525 26.4479 167.442 27.2302 166.262 27.91C165.082 28.5769 163.857 29.1412 162.587 29.6029C162.459 29.3464 162.28 29.0642 162.049 28.7564C161.818 28.4358 161.587 28.1601 161.356 27.9292C162.574 27.5573 163.754 27.0763 164.896 26.4864C166.037 25.8964 167.076 25.2103 168.012 24.428C168.961 23.6457 169.744 22.78 170.359 21.8309ZM181.152 23.8893H189.501V27.2367H188.077V25.3514H182.498V27.2367H181.152V23.8893ZM182.363 33.9121H188.577V39.818H186.961V35.3549H183.922V39.8372H182.363V33.9121ZM182.921 37.8365H188.039V39.2601H182.921V37.8365ZM183.864 25.8516L185.288 26.1016C184.98 26.9866 184.557 27.833 184.018 28.641C183.479 29.4361 182.787 30.1544 181.94 30.7956C181.85 30.6032 181.709 30.3852 181.517 30.1415C181.337 29.8979 181.164 29.7119 180.998 29.5836C181.754 29.0706 182.363 28.4871 182.825 27.833C183.3 27.1661 183.646 26.5056 183.864 25.8516ZM184.23 27.1405H187.615V28.5063H183.652L184.23 27.1405ZM187.231 27.1405H187.538L187.788 27.0828L188.712 27.7176C188.263 28.8847 187.66 29.9171 186.904 30.8148C186.16 31.6998 185.32 32.4564 184.383 33.0849C183.46 33.7005 182.505 34.2006 181.517 34.5854C181.453 34.4443 181.37 34.2776 181.267 34.0852C181.164 33.8928 181.055 33.7069 180.94 33.5273C180.824 33.3478 180.715 33.2067 180.613 33.1041C181.562 32.7963 182.473 32.3795 183.345 31.8537C184.23 31.315 185.005 30.6738 185.672 29.9299C186.352 29.1861 186.871 28.3524 187.231 27.429V27.1405ZM184.095 22.5619L185.557 22.0425C185.724 22.4016 185.897 22.7992 186.076 23.2353C186.256 23.6713 186.397 24.0432 186.5 24.351L184.961 24.9666C184.884 24.6588 184.762 24.2741 184.595 23.8124C184.428 23.3507 184.262 22.9339 184.095 22.5619ZM190.02 22.8697H198.523V24.428H190.02V22.8697ZM192.194 30.3724V31.8537H196.253V30.3724H192.194ZM192.194 33.2003V34.7393H196.253V33.2003H192.194ZM192.194 27.506V29.0065H196.253V27.506H192.194ZM190.559 26.0632H197.984V36.1629H190.559V26.0632ZM193.444 23.697L195.176 23.9663C195.022 24.5049 194.861 25.0436 194.695 25.5822C194.541 26.1081 194.4 26.5698 194.272 26.9673L192.925 26.6211C193.015 26.2107 193.111 25.7297 193.213 25.1782C193.316 24.6139 193.393 24.1202 193.444 23.697ZM192.636 36.336L193.81 37.471C193.246 37.9327 192.585 38.388 191.828 38.8369C191.085 39.2858 190.392 39.6641 189.751 39.9719C189.661 39.7795 189.539 39.5551 189.385 39.2986C189.231 39.0421 189.09 38.8241 188.962 38.6445C189.36 38.4521 189.789 38.2277 190.251 37.9712C190.713 37.7019 191.155 37.4261 191.578 37.144C192.001 36.849 192.354 36.5797 192.636 36.336ZM194.522 37.3941L195.503 36.2591C195.862 36.4771 196.24 36.7272 196.638 37.0093C197.048 37.2915 197.439 37.58 197.811 37.875C198.196 38.1572 198.504 38.4137 198.735 38.6445L197.696 39.9142C197.465 39.6705 197.17 39.3948 196.811 39.087C196.452 38.792 196.073 38.497 195.676 38.2021C195.278 37.8943 194.894 37.6249 194.522 37.3941ZM182.921 30.507L183.96 29.4297C184.396 29.6862 184.871 29.962 185.384 30.257C185.897 30.5519 186.41 30.8533 186.923 31.1611C187.449 31.4689 187.936 31.7703 188.385 32.0653C188.847 32.3603 189.244 32.6168 189.578 32.8348L188.5 34.1237C188.09 33.8031 187.564 33.4311 186.923 33.0079C186.282 32.5847 185.608 32.1551 184.903 31.719C184.197 31.2701 183.537 30.8661 182.921 30.507Z" fill="white"/>
<path d="M244.163 38.5291C243.432 38.5291 242.778 38.4393 242.201 38.2598C241.624 38.0802 241.118 37.843 240.681 37.548C240.245 37.253 239.861 36.9452 239.527 36.6246L240.585 35.1818C240.855 35.4511 241.15 35.7012 241.47 35.932C241.791 36.15 242.15 36.3296 242.548 36.4707C242.958 36.6118 243.413 36.6823 243.913 36.6823C244.439 36.6823 244.914 36.5669 245.337 36.336C245.76 36.0923 246.094 35.7461 246.337 35.2972C246.581 34.8355 246.703 34.2904 246.703 33.662C246.703 32.7386 246.453 32.0204 245.953 31.5074C245.465 30.9944 244.818 30.7379 244.01 30.7379C243.561 30.7379 243.176 30.802 242.855 30.9303C242.535 31.0585 242.169 31.2573 241.759 31.5266L240.662 30.8148L241.085 24.0817H248.261V25.967H243.009L242.682 29.5836C242.99 29.4297 243.298 29.3143 243.606 29.2374C243.913 29.1476 244.253 29.1027 244.625 29.1027C245.42 29.1027 246.145 29.263 246.799 29.5836C247.453 29.9043 247.973 30.398 248.357 31.0649C248.742 31.719 248.934 32.5655 248.934 33.6043C248.934 34.6431 248.71 35.5344 248.261 36.2783C247.812 37.0093 247.222 37.5672 246.491 37.952C245.773 38.3367 244.997 38.5291 244.163 38.5291ZM255.481 38.5291C254.558 38.5291 253.75 38.2534 253.057 37.7019C252.365 37.1504 251.826 36.3296 251.441 35.2395C251.069 34.1365 250.883 32.7642 250.883 31.1226C250.883 29.481 251.069 28.1216 251.441 27.0443C251.826 25.967 252.365 25.1654 253.057 24.6396C253.75 24.1009 254.558 23.8316 255.481 23.8316C256.405 23.8316 257.206 24.1009 257.886 24.6396C258.566 25.1782 259.091 25.9862 259.463 27.0635C259.848 28.128 260.04 29.481 260.04 31.1226C260.04 32.7642 259.848 34.1365 259.463 35.2395C259.091 36.3296 258.566 37.1504 257.886 37.7019C257.206 38.2534 256.405 38.5291 255.481 38.5291ZM255.481 36.7592C255.956 36.7592 256.379 36.5733 256.751 36.2013C257.123 35.8294 257.411 35.2331 257.617 34.4123C257.822 33.5786 257.924 32.4821 257.924 31.1226C257.924 29.7632 257.822 28.6795 257.617 27.8715C257.411 27.0635 257.123 26.48 256.751 26.1209C256.379 25.7618 255.956 25.5822 255.481 25.5822C255.007 25.5822 254.583 25.7618 254.211 26.1209C253.84 26.48 253.545 27.0635 253.327 27.8715C253.121 28.6795 253.019 29.7632 253.019 31.1226C253.019 32.4821 253.121 33.5786 253.327 34.4123C253.545 35.2331 253.84 35.8294 254.211 36.2013C254.583 36.5733 255.007 36.7592 255.481 36.7592ZM266.453 38.5291C265.529 38.5291 264.721 38.2534 264.029 37.7019C263.336 37.1504 262.797 36.3296 262.413 35.2395C262.041 34.1365 261.855 32.7642 261.855 31.1226C261.855 29.481 262.041 28.1216 262.413 27.0443C262.797 25.967 263.336 25.1654 264.029 24.6396C264.721 24.1009 265.529 23.8316 266.453 23.8316C267.376 23.8316 268.178 24.1009 268.857 24.6396C269.537 25.1782 270.063 25.9862 270.435 27.0635C270.819 28.128 271.012 29.481 271.012 31.1226C271.012 32.7642 270.819 34.1365 270.435 35.2395C270.063 36.3296 269.537 37.1504 268.857 37.7019C268.178 38.2534 267.376 38.5291 266.453 38.5291ZM266.453 36.7592C266.927 36.7592 267.35 36.5733 267.722 36.2013C268.094 35.8294 268.383 35.2331 268.588 34.4123C268.793 33.5786 268.896 32.4821 268.896 31.1226C268.896 29.7632 268.793 28.6795 268.588 27.8715C268.383 27.0635 268.094 26.48 267.722 26.1209C267.35 25.7618 266.927 25.5822 266.453 25.5822C265.978 25.5822 265.555 25.7618 265.183 26.1209C264.811 26.48 264.516 27.0635 264.298 27.8715C264.093 28.6795 263.99 29.7632 263.99 31.1226C263.99 32.4821 264.093 33.5786 264.298 34.4123C264.516 35.2331 264.811 35.8294 265.183 36.2013C265.555 36.5733 265.978 36.7592 266.453 36.7592Z" fill="white"/>
<path d="M322.332 38.2598V36.4322H325.449V26.5826H322.91V25.1782C323.576 25.0628 324.154 24.9153 324.641 24.7358C325.141 24.5562 325.596 24.3382 326.007 24.0817H327.68V36.4322H330.431V38.2598H322.332ZM337.171 38.5291C336.247 38.5291 335.439 38.2534 334.747 37.7019C334.054 37.1504 333.515 36.3296 333.131 35.2395C332.759 34.1365 332.573 32.7642 332.573 31.1226C332.573 29.481 332.759 28.1216 333.131 27.0443C333.515 25.967 334.054 25.1654 334.747 24.6396C335.439 24.1009 336.247 23.8316 337.171 23.8316C338.094 23.8316 338.896 24.1009 339.575 24.6396C340.255 25.1782 340.781 25.9862 341.153 27.0635C341.538 28.128 341.73 29.481 341.73 31.1226C341.73 32.7642 341.538 34.1365 341.153 35.2395C340.781 36.3296 340.255 37.1504 339.575 37.7019C338.896 38.2534 338.094 38.5291 337.171 38.5291ZM337.171 36.7592C337.645 36.7592 338.068 36.5733 338.44 36.2013C338.812 35.8294 339.101 35.2331 339.306 34.4123C339.511 33.5786 339.614 32.4821 339.614 31.1226C339.614 29.7632 339.511 28.6795 339.306 27.8715C339.101 27.0635 338.812 26.48 338.44 26.1209C338.068 25.7618 337.645 25.5822 337.171 25.5822C336.696 25.5822 336.273 25.7618 335.901 26.1209C335.529 26.48 335.234 27.0635 335.016 27.8715C334.811 28.6795 334.708 29.7632 334.708 31.1226C334.708 32.4821 334.811 33.5786 335.016 34.4123C335.234 35.2331 335.529 35.8294 335.901 36.2013C336.273 36.5733 336.696 36.7592 337.171 36.7592ZM348.142 38.5291C347.219 38.5291 346.411 38.2534 345.718 37.7019C345.026 37.1504 344.487 36.3296 344.102 35.2395C343.73 34.1365 343.544 32.7642 343.544 31.1226C343.544 29.481 343.73 28.1216 344.102 27.0443C344.487 25.967 345.026 25.1654 345.718 24.6396C346.411 24.1009 347.219 23.8316 348.142 23.8316C349.065 23.8316 349.867 24.1009 350.547 24.6396C351.226 25.1782 351.752 25.9862 352.124 27.0635C352.509 28.128 352.701 29.481 352.701 31.1226C352.701 32.7642 352.509 34.1365 352.124 35.2395C351.752 36.3296 351.226 37.1504 350.547 37.7019C349.867 38.2534 349.065 38.5291 348.142 38.5291ZM348.142 36.7592C348.617 36.7592 349.04 36.5733 349.412 36.2013C349.784 35.8294 350.072 35.2331 350.277 34.4123C350.483 33.5786 350.585 32.4821 350.585 31.1226C350.585 29.7632 350.483 28.6795 350.277 27.8715C350.072 27.0635 349.784 26.48 349.412 26.1209C349.04 25.7618 348.617 25.5822 348.142 25.5822C347.667 25.5822 347.244 25.7618 346.872 26.1209C346.5 26.48 346.205 27.0635 345.987 27.8715C345.782 28.6795 345.68 29.7632 345.68 31.1226C345.68 32.4821 345.782 33.5786 345.987 34.4123C346.205 35.2331 346.5 35.8294 346.872 36.2013C347.244 36.5733 347.667 36.7592 348.142 36.7592ZM359.113 38.5291C358.19 38.5291 357.382 38.2534 356.689 37.7019C355.997 37.1504 355.458 36.3296 355.074 35.2395C354.702 34.1365 354.516 32.7642 354.516 31.1226C354.516 29.481 354.702 28.1216 355.074 27.0443C355.458 25.967 355.997 25.1654 356.689 24.6396C357.382 24.1009 358.19 23.8316 359.113 23.8316C360.037 23.8316 360.838 24.1009 361.518 24.6396C362.198 25.1782 362.724 25.9862 363.096 27.0635C363.48 28.128 363.673 29.481 363.673 31.1226C363.673 32.7642 363.48 34.1365 363.096 35.2395C362.724 36.3296 362.198 37.1504 361.518 37.7019C360.838 38.2534 360.037 38.5291 359.113 38.5291ZM359.113 36.7592C359.588 36.7592 360.011 36.5733 360.383 36.2013C360.755 35.8294 361.044 35.2331 361.249 34.4123C361.454 33.5786 361.557 32.4821 361.557 31.1226C361.557 29.7632 361.454 28.6795 361.249 27.8715C361.044 27.0635 360.755 26.48 360.383 26.1209C360.011 25.7618 359.588 25.5822 359.113 25.5822C358.639 25.5822 358.216 25.7618 357.844 26.1209C357.472 26.48 357.177 27.0635 356.959 27.8715C356.754 28.6795 356.651 29.7632 356.651 31.1226C356.651 32.4821 356.754 33.5786 356.959 34.4123C357.177 35.2331 357.472 35.8294 357.844 36.2013C358.216 36.5733 358.639 36.7592 359.113 36.7592Z" fill="white"/>
<path d="M137.248 91.5776V89.7501H140.365V79.9005H137.826V78.4961C138.492 78.3807 139.07 78.2332 139.557 78.0537C140.057 77.8741 140.512 77.6561 140.923 77.3996H142.597V89.7501H145.347V91.5776H137.248ZM155.28 75.6105H157.262V90.8081C157.262 91.4237 157.178 91.879 157.011 92.174C156.858 92.469 156.582 92.6934 156.184 92.8473C155.799 92.9884 155.286 93.0782 154.645 93.1166C154.004 93.1679 153.228 93.1936 152.317 93.1936C152.279 93.014 152.215 92.8088 152.125 92.578C152.048 92.36 151.958 92.1355 151.856 91.9047C151.766 91.6738 151.67 91.4686 151.567 91.2891C152.029 91.3147 152.471 91.334 152.895 91.3468C153.331 91.3468 153.709 91.3468 154.03 91.3468C154.363 91.334 154.6 91.3275 154.741 91.3275C154.934 91.3147 155.068 91.2762 155.145 91.2121C155.235 91.1352 155.28 91.0005 155.28 90.8081V75.6105ZM159.916 80.5738L161.686 79.9197C162.238 80.8174 162.763 81.7857 163.264 82.8246C163.777 83.8506 164.226 84.8573 164.61 85.8449C165.008 86.8324 165.284 87.7173 165.437 88.4996L163.456 89.2884C163.315 88.5189 163.065 87.6339 162.706 86.6336C162.359 85.6332 161.943 84.6072 161.455 83.5556C160.968 82.4911 160.455 81.4972 159.916 80.5738ZM150.24 80.0736L152.298 80.4199C152.093 81.3689 151.83 82.3693 151.509 83.4209C151.189 84.4726 150.811 85.4793 150.374 86.4412C149.938 87.3903 149.438 88.2239 148.874 88.9421C148.733 88.8395 148.553 88.7305 148.335 88.6151C148.13 88.4868 147.918 88.3714 147.7 88.2688C147.482 88.1534 147.29 88.0572 147.123 87.9802C147.675 87.3133 148.156 86.531 148.566 85.6332C148.977 84.7227 149.323 83.78 149.605 82.8053C149.887 81.8306 150.099 80.92 150.24 80.0736ZM173.998 81.3433H183.732V82.94H173.998V81.3433ZM173.248 77.5342H184.309V79.1502H173.248V77.5342ZM173.306 84.806H184.233V86.4027H173.306V84.806ZM177.884 75.3219H179.673V82.2667H177.884V75.3219ZM180.385 82.6899H182.155V91.1736C182.155 91.6353 182.091 92.0009 181.963 92.2702C181.847 92.5395 181.623 92.7383 181.289 92.8666C180.956 93.0076 180.533 93.091 180.02 93.1166C179.507 93.1551 178.872 93.1744 178.115 93.1744C178.077 92.9307 178 92.6421 177.884 92.3087C177.769 91.988 177.647 91.7059 177.519 91.4622C178.07 91.475 178.577 91.4879 179.038 91.5007C179.513 91.5007 179.827 91.5007 179.981 91.5007C180.135 91.4879 180.238 91.4622 180.289 91.4237C180.353 91.3724 180.385 91.2762 180.385 91.1352V82.6899ZM174.306 87.7301L175.826 86.9029C176.108 87.2107 176.403 87.5634 176.711 87.961C177.031 88.3457 177.326 88.7241 177.596 89.096C177.865 89.4679 178.083 89.8014 178.25 90.0963L176.653 91.0582C176.499 90.7632 176.294 90.4234 176.037 90.0386C175.781 89.6539 175.499 89.2627 175.191 88.8651C174.896 88.4547 174.601 88.0764 174.306 87.7301ZM168.035 76.5531H172.902V89.423H168.035V87.7878H171.209V78.2075H168.035V76.5531ZM168.131 82.0935H172.017V83.7095H168.131V82.0935ZM167.169 76.5531H168.862V91.0775H167.169V76.5531Z" fill="#E1002A"/>
<path d="M232.594 91.5776V90.2887C233.992 89.0447 235.16 87.9097 236.096 86.8837C237.032 85.8449 237.731 84.883 238.193 83.998C238.667 83.1131 238.904 82.2859 238.904 81.5164C238.904 81.0034 238.815 80.5545 238.635 80.1698C238.468 79.7722 238.205 79.4708 237.846 79.2656C237.5 79.0476 237.058 78.9386 236.519 78.9386C235.967 78.9386 235.461 79.0925 234.999 79.4003C234.537 79.6953 234.114 80.0608 233.73 80.4968L232.479 79.2656C233.082 78.5987 233.717 78.0793 234.384 77.7074C235.063 77.3354 235.871 77.1495 236.808 77.1495C237.667 77.1495 238.417 77.329 239.058 77.6881C239.7 78.0344 240.193 78.5282 240.54 79.1694C240.899 79.7979 241.078 80.5417 241.078 81.401C241.078 82.3116 240.854 83.235 240.405 84.1712C239.956 85.0946 239.34 86.0308 238.558 86.9799C237.776 87.9161 236.884 88.8651 235.884 89.827C236.256 89.7885 236.647 89.7565 237.058 89.7308C237.481 89.6924 237.859 89.6731 238.193 89.6731H241.752V91.5776H232.594ZM251.415 75.6105H253.396V90.8081C253.396 91.4237 253.313 91.879 253.146 92.174C252.992 92.469 252.717 92.6934 252.319 92.8473C251.934 92.9884 251.421 93.0782 250.78 93.1166C250.139 93.1679 249.363 93.1936 248.452 93.1936C248.414 93.014 248.35 92.8088 248.26 92.578C248.183 92.36 248.093 92.1355 247.991 91.9047C247.901 91.6738 247.805 91.4686 247.702 91.2891C248.164 91.3147 248.606 91.334 249.029 91.3468C249.465 91.3468 249.844 91.3468 250.164 91.3468C250.498 91.334 250.735 91.3275 250.876 91.3275C251.069 91.3147 251.203 91.2762 251.28 91.2121C251.37 91.1352 251.415 91.0005 251.415 90.8081V75.6105ZM256.051 80.5738L257.821 79.9197C258.372 80.8174 258.898 81.7857 259.398 82.8246C259.911 83.8506 260.36 84.8573 260.745 85.8449C261.143 86.8324 261.418 87.7173 261.572 88.4996L259.591 89.2884C259.45 88.5189 259.2 87.6339 258.841 86.6336C258.494 85.6332 258.077 84.6072 257.59 83.5556C257.103 82.4911 256.59 81.4972 256.051 80.5738ZM246.375 80.0736L248.433 80.4199C248.228 81.3689 247.965 82.3693 247.644 83.4209C247.324 84.4726 246.945 85.4793 246.509 86.4412C246.073 87.3903 245.573 88.2239 245.009 88.9421C244.868 88.8395 244.688 88.7305 244.47 88.6151C244.265 88.4868 244.053 88.3714 243.835 88.2688C243.617 88.1534 243.425 88.0572 243.258 87.9802C243.81 87.3133 244.291 86.531 244.701 85.6332C245.111 84.7227 245.458 83.78 245.74 82.8053C246.022 81.8306 246.234 80.92 246.375 80.0736ZM270.133 81.3433H279.867V82.94H270.133V81.3433ZM269.383 77.5342H280.444V79.1502H269.383V77.5342ZM269.44 84.806H280.367V86.4027H269.44V84.806ZM274.019 75.3219H275.808V82.2667H274.019V75.3219ZM276.52 82.6899H278.29V91.1736C278.29 91.6353 278.226 92.0009 278.097 92.2702C277.982 92.5395 277.757 92.7383 277.424 92.8666C277.091 93.0076 276.667 93.091 276.154 93.1166C275.641 93.1551 275.006 93.1744 274.25 93.1744C274.211 92.9307 274.134 92.6421 274.019 92.3087C273.903 91.988 273.782 91.7059 273.653 91.4622C274.205 91.475 274.711 91.4879 275.173 91.5007C275.648 91.5007 275.962 91.5007 276.116 91.5007C276.27 91.4879 276.372 91.4622 276.424 91.4237C276.488 91.3724 276.52 91.2762 276.52 91.1352V82.6899ZM270.441 87.7301L271.961 86.9029C272.243 87.2107 272.538 87.5634 272.845 87.961C273.166 88.3457 273.461 88.7241 273.73 89.096C274 89.4679 274.218 89.8014 274.384 90.0963L272.788 91.0582C272.634 90.7632 272.429 90.4234 272.172 90.0386C271.916 89.6539 271.633 89.2627 271.326 88.8651C271.031 88.4547 270.736 88.0764 270.441 87.7301ZM264.169 76.5531H269.036V89.423H264.169V87.7878H267.343V78.2075H264.169V76.5531ZM264.265 82.0935H268.151V83.7095H264.265V82.0935ZM263.304 76.5531H264.997V91.0775H263.304V76.5531Z" fill="#E1002A"/>
<path d="M401.828 59.3169V112.567" stroke="#CE0E2D" stroke-width="0.764001" stroke-miterlimit="10"/>
<path d="M431.571 38.2598V36.4322H434.687V26.5826H432.148V25.1782C432.815 25.0628 433.392 24.9153 433.879 24.7358C434.379 24.5562 434.835 24.3382 435.245 24.0817H436.919V36.4322H439.67V38.2598H431.571ZM446.063 38.5291C445.332 38.5291 444.678 38.4393 444.1 38.2598C443.523 38.0802 443.017 37.843 442.581 37.548C442.145 37.253 441.76 36.9452 441.426 36.6246L442.484 35.1818C442.754 35.4511 443.049 35.7012 443.369 35.932C443.69 36.15 444.049 36.3296 444.447 36.4707C444.857 36.6118 445.312 36.6823 445.813 36.6823C446.338 36.6823 446.813 36.5669 447.236 36.336C447.659 36.0923 447.993 35.7461 448.236 35.2972C448.48 34.8355 448.602 34.2904 448.602 33.662C448.602 32.7386 448.352 32.0204 447.852 31.5074C447.364 30.9944 446.717 30.7379 445.909 30.7379C445.46 30.7379 445.075 30.802 444.754 30.9303C444.434 31.0585 444.068 31.2573 443.658 31.5266L442.561 30.8148L442.985 24.0817H450.16V25.967H444.908L444.581 29.5836C444.889 29.4297 445.197 29.3143 445.505 29.2374C445.813 29.1476 446.152 29.1027 446.524 29.1027C447.319 29.1027 448.044 29.263 448.698 29.5836C449.352 29.9043 449.872 30.398 450.256 31.0649C450.641 31.719 450.834 32.5655 450.834 33.6043C450.834 34.6431 450.609 35.5344 450.16 36.2783C449.711 37.0093 449.121 37.5672 448.39 37.952C447.672 38.3367 446.896 38.5291 446.063 38.5291ZM457.38 38.5291C456.457 38.5291 455.649 38.2534 454.956 37.7019C454.264 37.1504 453.725 36.3296 453.34 35.2395C452.968 34.1365 452.783 32.7642 452.783 31.1226C452.783 29.481 452.968 28.1216 453.34 27.0443C453.725 25.967 454.264 25.1654 454.956 24.6396C455.649 24.1009 456.457 23.8316 457.38 23.8316C458.304 23.8316 459.105 24.1009 459.785 24.6396C460.465 25.1782 460.991 25.9862 461.362 27.0635C461.747 28.128 461.94 29.481 461.94 31.1226C461.94 32.7642 461.747 34.1365 461.362 35.2395C460.991 36.3296 460.465 37.1504 459.785 37.7019C459.105 38.2534 458.304 38.5291 457.38 38.5291ZM457.38 36.7592C457.855 36.7592 458.278 36.5733 458.65 36.2013C459.022 35.8294 459.31 35.2331 459.516 34.4123C459.721 33.5786 459.823 32.4821 459.823 31.1226C459.823 29.7632 459.721 28.6795 459.516 27.8715C459.31 27.0635 459.022 26.48 458.65 26.1209C458.278 25.7618 457.855 25.5822 457.38 25.5822C456.906 25.5822 456.483 25.7618 456.111 26.1209C455.739 26.48 455.444 27.0635 455.226 27.8715C455.02 28.6795 454.918 29.7632 454.918 31.1226C454.918 32.4821 455.02 33.5786 455.226 34.4123C455.444 35.2331 455.739 35.8294 456.111 36.2013C456.483 36.5733 456.906 36.7592 457.38 36.7592ZM468.352 38.5291C467.428 38.5291 466.62 38.2534 465.928 37.7019C465.235 37.1504 464.697 36.3296 464.312 35.2395C463.94 34.1365 463.754 32.7642 463.754 31.1226C463.754 29.481 463.94 28.1216 464.312 27.0443C464.697 25.967 465.235 25.1654 465.928 24.6396C466.62 24.1009 467.428 23.8316 468.352 23.8316C469.275 23.8316 470.077 24.1009 470.756 24.6396C471.436 25.1782 471.962 25.9862 472.334 27.0635C472.719 28.128 472.911 29.481 472.911 31.1226C472.911 32.7642 472.719 34.1365 472.334 35.2395C471.962 36.3296 471.436 37.1504 470.756 37.7019C470.077 38.2534 469.275 38.5291 468.352 38.5291ZM468.352 36.7592C468.826 36.7592 469.249 36.5733 469.621 36.2013C469.993 35.8294 470.282 35.2331 470.487 34.4123C470.692 33.5786 470.795 32.4821 470.795 31.1226C470.795 29.7632 470.692 28.6795 470.487 27.8715C470.282 27.0635 469.993 26.48 469.621 26.1209C469.249 25.7618 468.826 25.5822 468.352 25.5822C467.877 25.5822 467.454 25.7618 467.082 26.1209C466.71 26.48 466.415 27.0635 466.197 27.8715C465.992 28.6795 465.889 29.7632 465.889 31.1226C465.889 32.4821 465.992 33.5786 466.197 34.4123C466.415 35.2331 466.71 35.8294 467.082 36.2013C467.454 36.5733 467.877 36.7592 468.352 36.7592Z" fill="white"/>
<path d="M435.168 91.5776V82.3436C435.168 81.9589 435.181 81.5036 435.206 80.9778C435.232 80.4391 435.251 79.9774 435.264 79.5927H435.187C435.008 79.9518 434.822 80.3173 434.629 80.6892C434.45 81.0611 434.257 81.4266 434.052 81.7857L431.282 86.0372H439.035V87.7686H429.031V86.2873L434.668 77.3996H437.246V91.5776H435.168ZM448.313 75.6105H450.295V90.8081C450.295 91.4237 450.211 91.879 450.045 92.174C449.891 92.469 449.615 92.6934 449.217 92.8473C448.833 92.9884 448.32 93.0782 447.678 93.1166C447.037 93.1679 446.261 93.1936 445.351 93.1936C445.312 93.014 445.248 92.8088 445.158 92.578C445.081 92.36 444.992 92.1355 444.889 91.9047C444.799 91.6738 444.703 91.4686 444.6 91.2891C445.062 91.3147 445.505 91.334 445.928 91.3468C446.364 91.3468 446.742 91.3468 447.063 91.3468C447.396 91.334 447.634 91.3275 447.775 91.3275C447.967 91.3147 448.102 91.2762 448.179 91.2121C448.268 91.1352 448.313 91.0005 448.313 90.8081V75.6105ZM452.95 80.5738L454.719 79.9197C455.271 80.8174 455.797 81.7857 456.297 82.8246C456.81 83.8506 457.259 84.8573 457.643 85.8449C458.041 86.8324 458.317 87.7173 458.471 88.4996L456.489 89.2884C456.348 88.5189 456.098 87.6339 455.739 86.6336C455.393 85.6332 454.976 84.6072 454.489 83.5556C454.001 82.4911 453.488 81.4972 452.95 80.5738ZM443.273 80.0736L445.331 80.4199C445.126 81.3689 444.863 82.3693 444.543 83.4209C444.222 84.4726 443.844 85.4793 443.408 86.4412C442.972 87.3903 442.471 88.2239 441.907 88.9421C441.766 88.8395 441.587 88.7305 441.369 88.6151C441.163 88.4868 440.952 88.3714 440.734 88.2688C440.516 88.1534 440.323 88.0572 440.157 87.9802C440.708 87.3133 441.189 86.531 441.599 85.6332C442.01 84.7227 442.356 83.78 442.638 82.8053C442.92 81.8306 443.132 80.92 443.273 80.0736ZM467.031 81.3433H476.766V82.94H467.031V81.3433ZM466.281 77.5342H477.343V79.1502H466.281V77.5342ZM466.339 84.806H477.266V86.4027H466.339V84.806ZM470.917 75.3219H472.706V82.2667H470.917V75.3219ZM473.418 82.6899H475.188V91.1736C475.188 91.6353 475.124 92.0009 474.996 92.2702C474.88 92.5395 474.656 92.7383 474.322 92.8666C473.989 93.0076 473.566 93.091 473.053 93.1166C472.54 93.1551 471.905 93.1744 471.148 93.1744C471.11 92.9307 471.033 92.6421 470.917 92.3087C470.802 91.988 470.68 91.7059 470.552 91.4622C471.103 91.475 471.61 91.4879 472.072 91.5007C472.546 91.5007 472.86 91.5007 473.014 91.5007C473.168 91.4879 473.271 91.4622 473.322 91.4237C473.386 91.3724 473.418 91.2762 473.418 91.1352V82.6899ZM467.339 87.7301L468.859 86.9029C469.141 87.2107 469.436 87.5634 469.744 87.961C470.064 88.3457 470.359 88.7241 470.629 89.096C470.898 89.4679 471.116 89.8014 471.283 90.0963L469.686 91.0582C469.532 90.7632 469.327 90.4234 469.071 90.0386C468.814 89.6539 468.532 89.2627 468.224 88.8651C467.929 88.4547 467.634 88.0764 467.339 87.7301ZM461.068 76.5531H465.935V89.423H461.068V87.7878H464.242V78.2075H461.068V76.5531ZM461.164 82.0935H465.05V83.7095H461.164V82.0935ZM460.202 76.5531H461.895V91.0775H460.202V76.5531Z" fill="#E1002A"/>
<path d="M417.067 106.375H417.883V109.436H417.067V106.375ZM415.38 103.672V104.733H419.603V103.672H415.38ZM414.599 103.035H420.429V105.381H414.599V103.035ZM413.571 106.017H421.535V110.05H420.697V106.677H414.375V110.072H413.571V106.017ZM414.029 107.57H420.999V108.184H414.029V107.57ZM414.029 109.1H420.999V109.748H414.029V109.1ZM417.011 99.7734H417.86V101.873H417.011V99.7734ZM412.8 101.482H422.228V103.806H421.401V102.22H413.604V103.806H412.8V101.482ZM413.716 100.22L414.464 99.9075C414.651 100.123 414.833 100.362 415.012 100.622C415.198 100.876 415.339 101.099 415.436 101.293L414.666 101.661C414.576 101.46 414.438 101.222 414.252 100.946C414.074 100.671 413.895 100.429 413.716 100.22ZM420.418 99.874L421.289 100.164C421.096 100.425 420.895 100.689 420.686 100.957C420.485 101.218 420.299 101.442 420.128 101.628L419.435 101.36C419.547 101.226 419.662 101.073 419.781 100.902C419.908 100.723 420.027 100.544 420.139 100.365C420.258 100.179 420.351 100.015 420.418 99.874ZM425.009 100.533H432.336V109.871H431.443V101.371H425.869V109.927H425.009V100.533ZM425.59 104.398H431.823V105.224H425.59V104.398ZM425.567 108.363H431.834V109.201H425.567V108.363ZM437.006 102.063V102.856H442.613V102.063H437.006ZM437.006 100.723V101.505H442.613V100.723H437.006ZM436.201 100.131H443.451V103.448H436.201V100.131ZM434.861 104.074H444.713V104.778H434.861V104.074ZM439.832 105.47H443.797V106.152H439.832V105.47ZM436.324 105.537H439.072V106.174H436.324V105.537ZM436.324 106.956H439.072V107.581H436.324V106.956ZM440.993 106.096C441.321 106.9 441.827 107.592 442.512 108.173C443.205 108.747 444.024 109.153 444.97 109.391C444.918 109.443 444.858 109.506 444.791 109.581C444.724 109.663 444.661 109.741 444.601 109.815C444.549 109.897 444.504 109.972 444.467 110.039C443.484 109.748 442.639 109.283 441.932 108.642C441.232 107.995 440.695 107.213 440.323 106.297L440.993 106.096ZM443.54 105.47H443.696L443.842 105.437L444.355 105.649C444.11 106.408 443.76 107.071 443.305 107.637C442.851 108.203 442.33 108.683 441.742 109.078C441.153 109.465 440.535 109.767 439.887 109.983C439.843 109.886 439.772 109.771 439.675 109.637C439.586 109.503 439.5 109.398 439.418 109.324C439.865 109.197 440.301 109.018 440.725 108.788C441.157 108.557 441.555 108.285 441.92 107.972C442.293 107.659 442.617 107.306 442.892 106.911C443.175 106.509 443.391 106.073 443.54 105.604V105.47ZM434.76 108.665C435.125 108.628 435.539 108.587 436 108.542C436.469 108.497 436.965 108.445 437.486 108.386C438.007 108.326 438.528 108.266 439.05 108.207L439.061 108.899C438.301 108.996 437.553 109.089 436.816 109.179C436.078 109.268 435.419 109.346 434.839 109.413L434.76 108.665ZM438.636 104.297H439.441V110.05H438.636V104.297ZM435.833 104.32H436.603V108.855H435.833V104.32ZM446.109 100.835H455.816V101.572H446.109V100.835ZM450.477 99.7623H451.337V101.192H450.477V99.7623ZM446.612 105.202H454.911V105.917H447.427V110.05H446.612V105.202ZM454.565 105.202H455.403V109.045C455.403 109.275 455.369 109.458 455.302 109.592C455.242 109.726 455.123 109.826 454.945 109.893C454.766 109.96 454.52 109.998 454.207 110.005C453.902 110.02 453.515 110.028 453.046 110.028C453.031 109.908 452.997 109.774 452.945 109.625C452.893 109.476 452.837 109.346 452.778 109.234C453.142 109.242 453.466 109.246 453.749 109.246C454.04 109.253 454.23 109.253 454.319 109.246C454.416 109.238 454.479 109.22 454.509 109.19C454.546 109.16 454.565 109.108 454.565 109.033V105.202ZM448.846 106.643H449.583V109.581H448.846V106.643ZM449.237 106.643H453.102V109.011H449.237V108.397H452.353V107.257H449.237V106.643ZM448.768 102.812V103.884H453.146V102.812H448.768ZM447.963 102.197H453.984V104.51H447.963V102.197ZM466.226 99.8963L466.874 100.567C466.45 100.708 465.966 100.842 465.422 100.969C464.886 101.088 464.331 101.196 463.758 101.293C463.184 101.382 462.63 101.456 462.093 101.516C462.071 101.427 462.034 101.315 461.982 101.181C461.93 101.047 461.877 100.935 461.825 100.846C462.347 100.771 462.879 100.686 463.423 100.589C463.974 100.485 464.491 100.377 464.975 100.265C465.467 100.146 465.884 100.023 466.226 99.8963ZM461.535 100.634L462.607 100.812C462.592 100.902 462.514 100.957 462.373 100.98V104.208C462.373 104.64 462.354 105.105 462.317 105.604C462.28 106.103 462.201 106.613 462.082 107.134C461.97 107.648 461.799 108.151 461.568 108.642C461.345 109.126 461.04 109.577 460.652 109.994C460.623 109.927 460.571 109.853 460.496 109.771C460.429 109.696 460.351 109.622 460.261 109.547C460.18 109.48 460.105 109.432 460.038 109.402C460.381 109.022 460.649 108.616 460.842 108.184C461.043 107.753 461.192 107.309 461.289 106.855C461.393 106.401 461.46 105.95 461.49 105.504C461.52 105.049 461.535 104.618 461.535 104.208V100.634ZM462.004 103.549H467.299V104.353H462.004V103.549ZM464.584 103.985H465.422V110.039H464.584V103.985ZM456.866 105.694C457.201 105.612 457.581 105.511 458.005 105.392C458.43 105.273 458.876 105.146 459.346 105.012C459.822 104.871 460.299 104.729 460.775 104.588L460.876 105.37C460.221 105.571 459.562 105.772 458.899 105.973C458.236 106.174 457.64 106.353 457.112 106.509L456.866 105.694ZM457.045 102.03H460.753V102.823H457.045V102.03ZM458.642 99.7734H459.457V109.056C459.457 109.294 459.427 109.476 459.368 109.603C459.316 109.73 459.215 109.826 459.066 109.893C458.917 109.953 458.724 109.994 458.485 110.016C458.247 110.039 457.942 110.046 457.57 110.039C457.555 109.934 457.521 109.808 457.469 109.659C457.417 109.51 457.365 109.38 457.313 109.268C457.566 109.275 457.797 109.279 458.005 109.279C458.214 109.279 458.355 109.279 458.43 109.279C458.504 109.272 458.556 109.253 458.586 109.223C458.623 109.193 458.642 109.141 458.642 109.067V99.7734ZM472.761 103.56H478.279V104.342H472.761V103.56ZM471.499 108.911H475.922V109.67H471.499V108.911ZM472.392 100.645L473.442 100.98C473.405 101.047 473.327 101.088 473.208 101.103V107.604H472.392V100.645ZM477.262 100.053L477.865 100.723C477.426 100.849 476.927 100.969 476.369 101.08C475.81 101.185 475.233 101.278 474.637 101.36C474.042 101.442 473.464 101.512 472.906 101.572C472.891 101.475 472.858 101.363 472.805 101.237C472.761 101.103 472.712 100.991 472.66 100.902C473.204 100.842 473.759 100.771 474.325 100.689C474.898 100.6 475.442 100.503 475.955 100.399C476.469 100.287 476.905 100.172 477.262 100.053ZM471.342 107.425C471.848 107.358 472.455 107.269 473.163 107.157C473.878 107.038 474.604 106.919 475.341 106.799L475.397 107.548C474.712 107.667 474.027 107.786 473.342 107.905C472.664 108.017 472.061 108.121 471.532 108.218L471.342 107.425ZM468.036 105.694C468.371 105.612 468.751 105.511 469.175 105.392C469.6 105.273 470.046 105.146 470.516 105.012C470.992 104.871 471.469 104.729 471.945 104.588L472.046 105.37C471.391 105.571 470.731 105.772 470.069 105.973C469.406 106.174 468.81 106.353 468.282 106.509L468.036 105.694ZM468.215 102.03H471.923V102.823H468.215V102.03ZM469.812 99.7734H470.627V109.056C470.627 109.294 470.597 109.476 470.538 109.603C470.486 109.73 470.385 109.826 470.236 109.893C470.087 109.953 469.894 109.994 469.655 110.016C469.417 110.039 469.112 110.046 468.74 110.039C468.725 109.934 468.691 109.808 468.639 109.659C468.587 109.51 468.535 109.38 468.483 109.268C468.736 109.275 468.967 109.279 469.175 109.279C469.384 109.279 469.525 109.279 469.6 109.279C469.674 109.272 469.726 109.253 469.756 109.223C469.793 109.193 469.812 109.141 469.812 109.067V99.7734ZM475.252 101.013H476.067C476.082 102.078 476.123 103.076 476.19 104.007C476.264 104.938 476.365 105.761 476.491 106.475C476.626 107.183 476.778 107.741 476.949 108.151C477.128 108.553 477.333 108.762 477.564 108.776C477.668 108.784 477.754 108.65 477.821 108.374C477.888 108.091 477.94 107.697 477.977 107.19C478.029 107.242 478.093 107.298 478.167 107.358C478.249 107.41 478.327 107.462 478.402 107.514C478.483 107.559 478.55 107.592 478.603 107.615C478.528 108.181 478.435 108.62 478.323 108.933C478.219 109.238 478.104 109.454 477.977 109.581C477.851 109.707 477.713 109.771 477.564 109.771C477.229 109.763 476.938 109.61 476.693 109.313C476.447 109.022 476.238 108.613 476.067 108.084C475.896 107.555 475.754 106.93 475.643 106.207C475.531 105.485 475.445 104.685 475.386 103.806C475.326 102.927 475.281 101.996 475.252 101.013ZM484.143 103.393H488.734V104.23H484.143V103.393ZM479.463 108.676H489.505V109.514H479.463V108.676ZM483.663 99.941H484.545V109.123H483.663V99.941ZM495.503 102.376H499.669V103.091H495.503V102.376ZM493.76 109.078C494.11 109.011 494.512 108.937 494.967 108.855C495.421 108.765 495.905 108.672 496.419 108.575C496.933 108.471 497.45 108.367 497.971 108.263L498.038 108.989C497.331 109.153 496.624 109.313 495.916 109.469C495.216 109.625 494.591 109.767 494.04 109.893L493.76 109.078ZM495.023 100.265H495.838V109.145H495.023V100.265ZM495.503 100.265H500.071V105.224H495.503V104.487H499.245V101.002H495.503V100.265ZM497.67 104.755C497.826 105.448 498.046 106.096 498.329 106.699C498.612 107.295 498.962 107.82 499.379 108.274C499.796 108.728 500.28 109.078 500.831 109.324C500.771 109.376 500.704 109.443 500.63 109.525C500.555 109.607 500.488 109.692 500.429 109.782C500.369 109.871 500.317 109.949 500.272 110.016C499.684 109.718 499.174 109.32 498.742 108.821C498.318 108.315 497.96 107.73 497.67 107.067C497.379 106.397 497.145 105.667 496.966 104.878L497.67 104.755ZM499.893 105.481L500.541 105.962C500.235 106.252 499.896 106.546 499.524 106.844C499.152 107.134 498.809 107.384 498.496 107.592L497.971 107.157C498.172 107.015 498.388 106.852 498.619 106.665C498.858 106.472 499.088 106.271 499.312 106.062C499.543 105.854 499.736 105.66 499.893 105.481ZM490.979 100.254H493.839V101.013H491.772V110.05H490.979V100.254ZM493.593 100.254H493.738L493.872 100.22L494.431 100.567C494.319 100.872 494.192 101.199 494.051 101.549C493.909 101.892 493.764 102.235 493.615 102.577C493.474 102.92 493.332 103.236 493.191 103.527C493.645 103.988 493.943 104.42 494.084 104.822C494.233 105.224 494.308 105.597 494.308 105.939C494.315 106.252 494.278 106.52 494.196 106.744C494.121 106.959 494.002 107.127 493.839 107.246C493.757 107.306 493.66 107.35 493.548 107.38C493.444 107.41 493.332 107.436 493.213 107.458C493.094 107.473 492.96 107.481 492.811 107.481C492.662 107.481 492.517 107.477 492.375 107.47C492.368 107.365 492.345 107.239 492.308 107.09C492.271 106.941 492.219 106.811 492.152 106.699C492.301 106.721 492.435 106.732 492.554 106.732C492.681 106.732 492.792 106.732 492.889 106.732C492.964 106.717 493.034 106.703 493.101 106.688C493.168 106.673 493.232 106.647 493.291 106.609C493.381 106.55 493.444 106.453 493.481 106.319C493.518 106.185 493.537 106.032 493.537 105.861C493.537 105.556 493.462 105.217 493.314 104.845C493.165 104.472 492.867 104.066 492.42 103.627C492.532 103.374 492.643 103.106 492.755 102.823C492.867 102.54 492.971 102.257 493.068 101.974C493.172 101.691 493.269 101.423 493.358 101.17C493.448 100.917 493.526 100.689 493.593 100.488V100.254Z" fill="#4D4D4D"/>
<path d="M324.564 91.847C323.82 91.847 323.16 91.7572 322.582 91.5776C322.018 91.3981 321.518 91.1608 321.082 90.8658C320.646 90.558 320.267 90.231 319.947 89.8847L321.024 88.4612C321.447 88.8716 321.928 89.2307 322.467 89.5385C323.006 89.8463 323.64 90.0002 324.371 90.0002C324.91 90.0002 325.378 89.9104 325.776 89.7308C326.173 89.5385 326.481 89.2691 326.699 88.9229C326.93 88.5766 327.046 88.1534 327.046 87.6532C327.046 87.1402 326.917 86.6913 326.661 86.3066C326.417 85.909 325.987 85.6076 325.372 85.4024C324.769 85.1844 323.935 85.0753 322.871 85.0753V83.4209C323.807 83.4209 324.538 83.3183 325.064 83.1131C325.603 82.8951 325.987 82.6001 326.218 82.2282C326.462 81.8563 326.584 81.433 326.584 80.9585C326.584 80.3429 326.391 79.8556 326.007 79.4965C325.622 79.1245 325.09 78.9386 324.41 78.9386C323.871 78.9386 323.365 79.0604 322.89 79.3041C322.428 79.5349 321.992 79.8492 321.582 80.2467L320.428 78.8616C320.992 78.3486 321.608 77.9382 322.275 77.6304C322.941 77.3098 323.679 77.1495 324.487 77.1495C325.333 77.1495 326.084 77.297 326.738 77.5919C327.392 77.8741 327.905 78.2845 328.277 78.8232C328.649 79.3618 328.835 80.0223 328.835 80.8046C328.835 81.6126 328.61 82.2987 328.161 82.863C327.725 83.4273 327.135 83.8506 326.391 84.1327V84.2097C326.93 84.3507 327.417 84.5816 327.853 84.9022C328.302 85.21 328.655 85.6076 328.912 86.0949C329.168 86.5823 329.296 87.1402 329.296 87.7686C329.296 88.6151 329.078 89.3461 328.642 89.9617C328.219 90.5645 327.648 91.0326 326.93 91.366C326.212 91.6866 325.423 91.847 324.564 91.847ZM339.075 75.6105H341.056V90.8081C341.056 91.4237 340.973 91.879 340.806 92.174C340.652 92.469 340.377 92.6934 339.979 92.8473C339.594 92.9884 339.081 93.0782 338.44 93.1166C337.799 93.1679 337.023 93.1936 336.112 93.1936C336.074 93.014 336.01 92.8088 335.92 92.578C335.843 92.36 335.753 92.1355 335.651 91.9047C335.561 91.6738 335.465 91.4686 335.362 91.2891C335.824 91.3147 336.266 91.334 336.69 91.3468C337.126 91.3468 337.504 91.3468 337.825 91.3468C338.158 91.334 338.395 91.3275 338.536 91.3275C338.729 91.3147 338.863 91.2762 338.94 91.2121C339.03 91.1352 339.075 91.0005 339.075 90.8081V75.6105ZM343.711 80.5738L345.481 79.9197C346.033 80.8174 346.558 81.7857 347.059 82.8246C347.572 83.8506 348.02 84.8573 348.405 85.8449C348.803 86.8324 349.078 87.7173 349.232 88.4996L347.251 89.2884C347.11 88.5189 346.86 87.6339 346.501 86.6336C346.154 85.6332 345.738 84.6072 345.25 83.5556C344.763 82.4911 344.25 81.4972 343.711 80.5738ZM334.035 80.0736L336.093 80.4199C335.888 81.3689 335.625 82.3693 335.304 83.4209C334.984 84.4726 334.605 85.4793 334.169 86.4412C333.733 87.3903 333.233 88.2239 332.669 88.9421C332.528 88.8395 332.348 88.7305 332.13 88.6151C331.925 88.4868 331.713 88.3714 331.495 88.2688C331.277 88.1534 331.085 88.0572 330.918 87.9802C331.47 87.3133 331.951 86.531 332.361 85.6332C332.771 84.7227 333.118 83.78 333.4 82.8053C333.682 81.8306 333.894 80.92 334.035 80.0736ZM357.793 81.3433H367.527V82.94H357.793V81.3433ZM357.043 77.5342H368.104V79.1502H357.043V77.5342ZM357.101 84.806H368.027V86.4027H357.101V84.806ZM361.679 75.3219H363.468V82.2667H361.679V75.3219ZM364.18 82.6899H365.95V91.1736C365.95 91.6353 365.886 92.0009 365.757 92.2702C365.642 92.5395 365.418 92.7383 365.084 92.8666C364.751 93.0076 364.327 93.091 363.814 93.1166C363.301 93.1551 362.667 93.1744 361.91 93.1744C361.871 92.9307 361.795 92.6421 361.679 92.3087C361.564 91.988 361.442 91.7059 361.314 91.4622C361.865 91.475 362.372 91.4879 362.833 91.5007C363.308 91.5007 363.622 91.5007 363.776 91.5007C363.93 91.4879 364.032 91.4622 364.084 91.4237C364.148 91.3724 364.18 91.2762 364.18 91.1352V82.6899ZM358.101 87.7301L359.621 86.9029C359.903 87.2107 360.198 87.5634 360.506 87.961C360.826 88.3457 361.121 88.7241 361.391 89.096C361.66 89.4679 361.878 89.8014 362.045 90.0963L360.448 91.0582C360.294 90.7632 360.089 90.4234 359.832 90.0386C359.576 89.6539 359.294 89.2627 358.986 88.8651C358.691 88.4547 358.396 88.0764 358.101 87.7301ZM351.829 76.5531H356.697V89.423H351.829V87.7878H355.004V78.2075H351.829V76.5531ZM351.926 82.0935H355.812V83.7095H351.926V82.0935ZM350.964 76.5531H352.657V91.0775H350.964V76.5531Z" fill="#E1002A"/>
<path d="M32.5942 73.4478L33.7512 75.0718C32.9257 75.3289 31.9919 75.5657 30.9499 75.7822C29.9214 75.9852 28.859 76.1679 27.7629 76.3303C26.6802 76.4792 25.6382 76.6078 24.6368 76.716C24.5962 76.486 24.5217 76.2221 24.4135 75.9243C24.3052 75.6131 24.1969 75.3492 24.0887 75.1327C24.833 75.0515 25.5908 74.95 26.3622 74.8282C27.1471 74.6928 27.9117 74.5575 28.6561 74.4222C29.4139 74.2733 30.1244 74.1177 30.7875 73.9553C31.4641 73.7929 32.0664 73.6237 32.5942 73.4478ZM25.063 80.0654H34.482V81.8924H25.063V80.0654ZM29.3665 81.0601H31.2747V92.0421H29.3665V81.0601ZM15.6035 83.8817C16.2395 83.7329 16.9568 83.5569 17.7552 83.354C18.5672 83.1374 19.4265 82.9074 20.3333 82.6638C21.24 82.4066 22.1399 82.1563 23.0331 81.9127L23.2564 83.6787C22.0249 84.0577 20.7731 84.4298 19.501 84.7952C18.2424 85.1471 17.1124 85.4583 16.111 85.729L15.6035 83.8817ZM15.908 77.2844H23.1143V79.0708H15.908V77.2844ZM18.6078 73.3057H20.4957V89.931C20.4957 90.4182 20.4348 90.7971 20.313 91.0678C20.2047 91.3384 19.9949 91.5549 19.6837 91.7173C19.3859 91.8527 19.007 91.9406 18.5469 91.9812C18.0868 92.0354 17.5049 92.0624 16.8011 92.0624C16.7741 91.8053 16.7064 91.5076 16.5982 91.1693C16.4899 90.8309 16.3749 90.5332 16.2531 90.2761C16.6726 90.2896 17.0718 90.3031 17.4507 90.3167C17.8297 90.3167 18.0868 90.3167 18.2221 90.3167C18.3574 90.3031 18.4522 90.2693 18.5063 90.2152C18.574 90.1611 18.6078 90.0663 18.6078 89.931V73.3057ZM24.0887 75.1327H25.9765V81.4255C25.9765 82.6705 25.9156 83.9088 25.7938 85.1403C25.6856 86.3718 25.4487 87.5762 25.0833 88.7536C24.7315 89.931 24.1902 91.061 23.4594 92.1436C23.2699 91.9406 23.0263 91.7241 22.7286 91.4941C22.4309 91.264 22.1602 91.0678 21.9166 90.9054C22.5662 89.9039 23.0399 88.8754 23.3376 87.8198C23.6488 86.7507 23.8518 85.6816 23.9466 84.6125C24.0413 83.5299 24.0887 82.4675 24.0887 81.4255V75.1327ZM35.8624 83.8817C36.6608 83.6787 37.6217 83.4149 38.7449 83.0901C39.8681 82.7653 41.0117 82.4269 42.1755 82.0751L42.4191 83.8208C41.3635 84.1592 40.3012 84.4975 39.2321 84.8358C38.163 85.1606 37.1954 85.4583 36.3293 85.729L35.8624 83.8817ZM36.1669 77.2844H42.3582V79.0708H36.1669V77.2844ZM38.5419 73.326H40.308V89.8295C40.308 90.3031 40.2538 90.6753 40.1456 90.946C40.0373 91.2166 39.8411 91.4332 39.5569 91.5955C39.2998 91.7444 38.9547 91.8391 38.5216 91.8797C38.0885 91.9339 37.5472 91.9542 36.8976 91.9406C36.8706 91.7106 36.8097 91.4196 36.715 91.0678C36.6202 90.7294 36.512 90.4317 36.3902 90.1746C36.7961 90.1881 37.1683 90.1949 37.5066 90.1949C37.845 90.1949 38.075 90.1949 38.1968 90.1949C38.3186 90.1949 38.4066 90.1678 38.4607 90.1137C38.5148 90.0596 38.5419 89.9648 38.5419 89.8295V73.326ZM44.8144 80.3496H54.5582V82.1157H44.8144V80.3496ZM52.3456 73.3869L53.8274 74.8282C52.9478 75.1394 51.9599 75.4371 50.8637 75.7213C49.7675 75.992 48.6375 76.2356 47.4737 76.4521C46.3234 76.6687 45.2001 76.8581 44.104 77.0205C44.0634 76.804 43.9822 76.5469 43.8604 76.2491C43.7521 75.9514 43.6506 75.7078 43.5559 75.5183C44.6115 75.3424 45.6806 75.1462 46.7632 74.9297C47.8594 74.6996 48.8879 74.456 49.8487 74.1989C50.8231 73.9282 51.6554 73.6576 52.3456 73.3869ZM48.5496 75.6401H50.2953C50.3359 77.1423 50.4036 78.5903 50.4983 79.9842C50.6066 81.3646 50.7419 82.6435 50.9043 83.8208C51.0667 84.9847 51.2494 86.0132 51.4524 86.9064C51.6689 87.786 51.8922 88.4694 52.1223 88.9566C52.3659 89.4438 52.623 89.6942 52.8936 89.7077C53.056 89.7077 53.1914 89.4709 53.2996 88.9972C53.4214 88.5236 53.5162 87.8469 53.5838 86.9673C53.6786 87.0755 53.8071 87.1973 53.9695 87.3327C54.1455 87.468 54.3146 87.5898 54.477 87.698C54.6529 87.7928 54.795 87.8672 54.9033 87.9213C54.7544 88.9498 54.5717 89.7551 54.3552 90.337C54.1522 90.9054 53.9222 91.2978 53.665 91.5143C53.4214 91.7444 53.1643 91.8594 52.8936 91.8594C52.2982 91.8459 51.7772 91.5685 51.3306 91.0272C50.884 90.4858 50.4983 89.728 50.1735 88.7536C49.8487 87.7657 49.5781 86.6019 49.3615 85.2621C49.145 83.9088 48.9691 82.4202 48.8337 80.7962C48.712 79.1723 48.6172 77.4536 48.5496 75.6401ZM43.3123 90.2964L43.1296 88.7942L43.7995 88.1649L48.1436 86.6831C48.1571 86.9131 48.1774 87.177 48.2045 87.4748C48.2451 87.7589 48.2857 87.989 48.3263 88.1649C47.3248 88.5439 46.5128 88.8551 45.8903 89.0987C45.2678 89.3288 44.7874 89.525 44.4491 89.6874C44.1107 89.8363 43.8536 89.9581 43.6777 90.0528C43.5153 90.134 43.3935 90.2152 43.3123 90.2964ZM43.3123 90.2964C43.2852 90.1475 43.2311 89.9784 43.1499 89.7889C43.0687 89.5859 42.9807 89.3964 42.886 89.2205C42.7913 89.031 42.6965 88.8754 42.6018 88.7536C42.7913 88.6589 42.9943 88.51 43.2108 88.307C43.4273 88.0905 43.5356 87.7792 43.5356 87.3733V75.5386L45.3422 76.0664V88.7536C45.3422 88.7536 45.2746 88.7875 45.1392 88.8551C45.0039 88.9228 44.8347 89.0107 44.6318 89.119C44.4288 89.2137 44.2258 89.3355 44.0228 89.4844C43.8198 89.6197 43.6506 89.7551 43.5153 89.8904C43.38 90.0257 43.3123 90.1611 43.3123 90.2964ZM45.0174 90.0731H50.1735V91.6564H45.0174V90.0731ZM64.1599 79.6391H74.4314V81.324H64.1599V79.6391ZM63.3682 75.6198H75.0404V77.325H63.3682V75.6198ZM63.4291 83.2931H74.9592V84.9779H63.4291V83.2931ZM68.2604 73.2854H70.1482V80.6135H68.2604V73.2854ZM70.8993 81.0601H72.7669V90.0122C72.7669 90.4994 72.6992 90.8851 72.5639 91.1693C72.4421 91.4535 72.2052 91.6632 71.8534 91.7985C71.5015 91.9474 71.0549 92.0354 70.5136 92.0624C69.9723 92.103 69.3024 92.1233 68.504 92.1233C68.4634 91.8662 68.3822 91.5617 68.2604 91.2099C68.1386 90.8715 68.01 90.5738 67.8747 90.3167C68.4566 90.3302 68.9911 90.3437 69.4783 90.3573C69.9791 90.3573 70.3106 90.3573 70.473 90.3573C70.6354 90.3437 70.7437 90.3167 70.7978 90.2761C70.8655 90.2219 70.8993 90.1205 70.8993 89.9716V81.0601ZM64.4847 86.3786L66.0883 85.5057C66.386 85.8305 66.6973 86.2026 67.0221 86.6222C67.3604 87.0282 67.6717 87.4274 67.9559 87.8198C68.2401 88.2123 68.4701 88.5642 68.6461 88.8754L66.9612 89.8904C66.7988 89.5791 66.5823 89.2205 66.3116 88.8145C66.041 88.4085 65.7432 87.9958 65.4184 87.5762C65.1072 87.1432 64.7959 86.744 64.4847 86.3786ZM57.867 74.5846H63.0028V88.1649H57.867V86.4395H61.2164V76.3303H57.867V74.5846ZM57.9685 80.4308H62.069V82.136H57.9685V80.4308ZM56.9535 74.5846H58.7399V89.9107H56.9535V74.5846ZM88.8441 77.2032H95.4211V78.9084H88.8441V77.2032ZM89.4327 73.2854L91.0567 73.5899C90.8266 74.8485 90.5424 76.0935 90.2041 77.325C89.8793 78.5565 89.5139 79.7203 89.1079 80.8165C88.702 81.9127 88.2554 82.8803 87.7682 83.7193C87.687 83.6246 87.5652 83.5028 87.4028 83.354C87.2539 83.1916 87.0915 83.0359 86.9156 82.8871C86.7532 82.7382 86.6111 82.6164 86.4893 82.5217C86.9494 81.7638 87.3622 80.8909 87.7276 79.903C88.1065 78.9151 88.4381 77.8528 88.7223 76.716C89.0064 75.5792 89.2433 74.4357 89.4327 73.2854ZM92.3356 78.2791L93.9798 78.4212C93.7362 80.7353 93.3302 82.772 92.7619 84.5313C92.207 86.2771 91.4221 87.7792 90.4071 89.0378C89.3921 90.2964 88.0591 91.3452 86.4081 92.1842C86.354 92.0624 86.266 91.9068 86.1442 91.7173C86.036 91.5414 85.9142 91.3587 85.7788 91.1693C85.657 90.9933 85.5488 90.8512 85.454 90.743C86.9968 90.0257 88.2351 89.1055 89.1688 87.9822C90.1026 86.8455 90.8131 85.4719 91.3003 83.8614C91.7875 82.251 92.1326 80.3902 92.3356 78.2791ZM89.6966 78.8475C89.9538 80.6068 90.3191 82.2578 90.7928 83.8005C91.2665 85.3433 91.8957 86.7034 92.6807 87.8807C93.4656 89.0446 94.4399 89.9513 95.6038 90.6009C95.482 90.7091 95.3399 90.8445 95.1775 91.0069C95.0151 91.1828 94.8662 91.3655 94.7309 91.5549C94.5956 91.7444 94.4805 91.9203 94.3858 92.0827C93.1678 91.3114 92.1596 90.2828 91.3612 88.9972C90.5763 87.7116 89.9402 86.2297 89.453 84.5516C88.9794 82.86 88.6072 81.0263 88.3366 79.0505L89.6966 78.8475ZM81.3535 73.3057H82.8354V84.0441H81.3535V73.3057ZM79.486 75.8431V79.0911H84.8248V75.8431H79.486ZM78.0244 74.5643H86.3675V80.3699H78.0244V74.5643ZM79.2221 82.2781V83.4352H85.048V82.2781H79.2221ZM77.5981 81.121H86.7329V84.5719H77.5981V81.121ZM76.6238 76.6754H78.5725V76.7769H85.3728V76.6754H87.5043V78.0964H85.3728V78.0152H78.5725V78.0964H76.6238V76.6754ZM77.9635 88.7333C78.2883 88.3138 78.6266 87.8334 78.9785 87.2921C79.3439 86.7372 79.689 86.1688 80.0138 85.5869C80.3521 85.005 80.6295 84.4501 80.8461 83.9223L82.3888 84.2674C82.1452 84.8358 81.8543 85.411 81.5159 85.9929C81.1911 86.5748 80.8528 87.1364 80.501 87.6777C80.1626 88.2055 79.8446 88.6724 79.5469 89.0784L77.9635 88.7333ZM77.9635 88.7333L79.1815 87.7183C80.007 87.9213 80.8664 88.1785 81.7595 88.4897C82.6527 88.801 83.5053 89.1325 84.3173 89.4844C85.1292 89.8363 85.8262 90.1678 86.4081 90.4791L85.1698 91.5955C84.615 91.2572 83.9316 90.9054 83.1196 90.54C82.3211 90.1881 81.4686 89.8566 80.5619 89.5453C79.6551 89.2205 78.789 88.9498 77.9635 88.7333ZM83.9316 84.9779H85.454V85.8305C85.454 86.25 85.3999 86.6966 85.2916 87.1703C85.1969 87.6304 84.9939 88.0973 84.6827 88.5709C84.3714 89.031 83.9113 89.4844 83.3023 89.931C82.7068 90.364 81.9152 90.7633 80.9273 91.1287C79.9393 91.5076 78.7078 91.8391 77.2327 92.1233C77.1651 91.9474 77.05 91.7309 76.8877 91.4738C76.7388 91.2302 76.5899 91.0272 76.4411 90.8648C77.8079 90.6347 78.9447 90.3573 79.8514 90.0325C80.7581 89.7077 81.4821 89.3694 82.0234 89.0175C82.5783 88.6521 82.991 88.28 83.2617 87.901C83.5324 87.5221 83.7083 87.15 83.7895 86.7846C83.8842 86.4192 83.9316 86.0809 83.9316 85.7696V84.9779ZM76.7253 85.7087H87.3419V87.0485H76.7253V85.7087Z" fill="#E1002A"/>
</g>
<defs>
<clipPath id="clip0_19_17104">
<rect width="506.49" height="122.402" fill="white"/>
</clipPath>
</defs>
</svg>
