<svg width="239" height="160" viewBox="0 0 239 160" fill="none" xmlns="http://www.w3.org/2000/svg">
<g filter="url(#filter0_d_226_19632)">
<g clip-path="url(#clip0_226_19632)">
<rect x="20.4746" y="19" width="198" height="120" rx="7.02062" fill="white"/>
<rect x="20.4746" y="19" width="198" height="198.333" fill="white"/>
<g clip-path="url(#clip1_226_19632)">
<path fill-rule="evenodd" clip-rule="evenodd" d="M77.3194 79.96C77.2994 80.02 77.1894 79.81 77.1494 79.73C75.3294 76.63 73.5094 73.4 71.6894 70.3C69.8694 73.51 68.1094 76.78 66.2994 80H60.3094C60.2994 79.89 60.3894 79.81 60.4394 79.73C63.9494 73.94 67.4394 68.05 70.9494 62.21C71.1994 61.8 71.4894 61.31 71.7294 61C73.5794 64.11 75.4594 67.19 77.3094 70.3V79.96H77.3194Z" fill="black"/>
<path fill-rule="evenodd" clip-rule="evenodd" d="M92.7202 61.2305C92.7702 62.7505 92.7202 64.3705 92.7402 65.9305C94.1302 65.9805 95.6202 65.9305 97.0402 65.9505V70.2805H92.7602C92.7602 71.1905 92.6802 72.1005 92.7402 72.9405C92.8102 73.8905 93.4102 75.0705 94.1002 75.4305C94.2402 75.5005 94.4102 75.5105 94.5602 75.5605V80.0105C91.5002 79.9005 89.8502 78.0905 89.0802 75.5405C88.8902 74.9205 88.7402 74.2305 88.6802 73.4505C88.5602 71.8805 88.6602 70.1505 88.6602 68.5005V67.2505C88.6602 66.8405 88.5902 66.3505 88.6602 66.0205C88.7002 65.8505 89.0002 65.6005 89.1602 65.4105C90.3302 64.0705 91.6002 62.5505 92.7102 61.2505L92.7202 61.2305Z" fill="black"/>
<path fill-rule="evenodd" clip-rule="evenodd" d="M115.93 65.6C118.29 65.57 120.08 66.57 121.28 67.75C122.52 68.96 123.48 70.66 123.52 73.02C123.56 75.36 122.5 77.15 121.32 78.33C120.08 79.57 118.33 80.53 116.03 80.53C113.73 80.53 111.92 79.62 110.68 78.37C109.45 77.14 108.47 75.44 108.44 73.14C108.41 70.76 109.42 69.05 110.61 67.81C111.76 66.61 113.57 65.62 115.92 65.59L115.93 65.6ZM113.57 70.87C113.08 71.41 112.7 72.19 112.71 73.13C112.73 75.04 114.28 76.45 116.12 76.39C117.02 76.36 117.84 75.93 118.4 75.32C118.93 74.75 119.36 73.95 119.28 72.83C119.24 72.34 119.07 71.83 118.84 71.43C118.3 70.49 117.22 69.66 115.66 69.82C114.71 69.92 114.02 70.36 113.57 70.87Z" fill="black"/>
<path fill-rule="evenodd" clip-rule="evenodd" d="M87.1787 65.9495V70.2795H82.9987V79.9995H78.8587V72.4895C78.8587 71.6295 78.7987 70.7895 78.8587 69.9995C78.9387 68.9295 79.5987 67.9695 80.1787 67.3395C80.7887 66.6895 81.7087 66.0195 82.8087 65.9395C84.2687 65.8295 85.6887 66.0195 87.1787 65.9395V65.9495Z" fill="black"/>
<path fill-rule="evenodd" clip-rule="evenodd" d="M107.82 65.9509V70.1509C106.12 70.2209 104.98 70.9209 104.45 72.2009C104.16 72.9009 104.19 73.7509 104.1 74.5609C104.01 75.3309 103.84 76.1009 103.57 76.7409C102.52 79.3009 99.6395 79.9709 96.0195 80.0009V75.6109C98.0795 75.4509 99.3395 74.4609 99.8695 72.8109C100.06 72.2209 100.09 71.6009 100.16 70.8909C100.29 69.5909 100.67 68.4809 101.31 67.6109C101.93 66.7809 102.86 66.0509 104.16 65.9609C105.38 65.8809 106.56 66.0209 107.82 65.9609V65.9509Z" fill="black"/>
<path fill-rule="evenodd" clip-rule="evenodd" d="M149.95 69.2607C149.46 69.9407 148.96 70.6007 148.46 71.2707C149.38 71.1807 150.31 71.1107 151.2 70.9907C151.09 70.8407 150.85 70.6107 150.65 70.4307C150.47 70.2707 150.39 70.2707 150.61 70.1007C150.8 69.9507 151.02 69.8107 151.18 69.6607C152.03 70.2807 152.72 71.0407 153.35 71.8807C153.02 72.0807 152.73 72.3307 152.39 72.5007C152.25 72.2507 152.08 72.0307 151.89 71.8307C151.56 71.8907 151.2 71.9207 150.85 71.9607C150.95 72.4407 150.64 73.3907 151.02 73.5907C151.24 73.7007 152.18 73.6707 152.36 73.5507C152.54 73.4307 152.55 73.1607 152.61 72.8807C152.94 72.9807 153.29 73.0707 153.61 73.1707C153.54 73.8707 153.27 74.5107 152.52 74.5907C151.8 74.6707 150.22 74.6707 149.95 74.2107C149.67 73.7407 149.95 72.8707 149.85 72.0807C149.47 72.1007 149.13 72.1607 148.76 72.1807C148.72 73.7107 147.81 74.3807 146.69 74.8307C146.42 74.5807 146.15 74.3107 145.92 74.0207C146.79 73.7107 147.68 73.4207 147.74 72.3007C147.45 72.2907 147.07 72.3707 146.76 72.4007C146.63 72.4407 146.62 72.6307 146.47 72.5907C146.26 72.5407 146.23 71.5707 146.13 71.3707C146.47 71.3707 146.78 71.3507 147.09 71.3307C147.74 70.5807 148.23 69.6507 148.7 68.7207C149.12 68.8907 149.61 68.9907 149.95 69.2407V69.2607Z" fill="black"/>
<path fill-rule="evenodd" clip-rule="evenodd" d="M144.761 68.9595C144.831 69.1295 144.611 69.1795 144.571 69.3195C144.501 69.5895 144.571 70.0395 144.571 70.4095V71.4995H145.641V72.5695H144.571C144.961 73.6295 145.521 74.5095 146.181 75.3095C145.921 75.5495 145.681 75.9295 145.411 76.0795C145.121 75.5795 144.861 75.0495 144.601 74.5095C144.551 76.3395 144.601 78.2595 144.581 80.1295H143.471V75.1095C143.151 75.9895 142.891 76.9395 142.511 77.7695C142.151 77.5395 141.811 77.2795 141.441 77.0595C142.301 75.7995 142.881 74.2495 143.341 72.5795C142.871 72.5295 142.301 72.5795 141.791 72.5595V71.4895H143.461V68.7695C143.881 68.8395 144.451 68.7695 144.761 68.9595Z" fill="black"/>
<path fill-rule="evenodd" clip-rule="evenodd" d="M169.31 69.8001C169.22 70.0801 169.13 70.3801 169.02 70.7001C168.92 70.9901 168.75 71.2901 168.71 71.5601C168.65 71.9001 168.71 72.3001 168.71 72.6901V80.5301H167.62V74.1301C167.41 74.3701 167.23 74.8301 167.03 75.1501C166.73 74.9501 166.42 74.6001 166.15 74.2901C167.17 72.7301 167.83 70.8201 168.43 68.8301C168.58 68.9101 168.8 69.0001 169.06 69.1201C169.23 69.2001 169.6 69.3301 169.62 69.4501C169.65 69.6301 169.45 69.7101 169.31 69.7801V69.8001Z" fill="black"/>
<path fill-rule="evenodd" clip-rule="evenodd" d="M157.39 69.8995C157.25 70.2995 157.07 70.7795 156.89 71.2195C156.83 71.3595 156.72 71.5095 156.7 71.6395C156.64 71.9695 156.7 72.3895 156.7 72.7695C156.7 75.2895 156.7 78.0395 156.7 80.5295H155.59V73.8995C155.28 74.2895 155.06 74.7695 154.77 75.1695C154.45 74.9195 154.19 74.6195 153.91 74.3395C155.01 72.7795 155.84 70.9395 156.5 68.9395C156.61 69.0795 157.65 69.3295 157.69 69.5695C157.72 69.7595 157.52 69.8195 157.37 69.8995H157.39Z" fill="black"/>
<path fill-rule="evenodd" clip-rule="evenodd" d="M162.3 69.2005C162.3 69.3805 162.14 69.4005 162.09 69.5305V70.0905H165.54V72.6005H164.45V71.1105C162.55 71.0605 160.55 71.1105 158.62 71.0905V72.6005H157.51V70.0905H160.98C160.99 69.7305 160.95 69.3105 161 68.9805C161.41 69.0705 162.02 68.9705 162.3 69.1905V69.2005Z" fill="black"/>
<path fill-rule="evenodd" clip-rule="evenodd" d="M174.03 70.22C173.87 70.3 173.74 70.18 173.59 70.18C173.36 70.18 173.14 70.33 172.92 70.41C172.68 70.49 172.45 70.55 172.23 70.62V72.25C172.81 72.3 173.48 72.25 174.09 72.27V73.25H172.42C172.82 74.29 173.39 75.18 174.09 75.93C173.8 76.23 173.55 76.57 173.21 76.83C172.87 76.24 172.53 75.66 172.25 75.01C172.2 76.81 172.25 78.7 172.23 80.53H171.12V75.68C170.72 76.57 170.31 77.43 169.8 78.21C169.47 77.92 169.13 77.65 168.84 77.33C169.8 76.23 170.48 74.86 170.95 73.27C170.42 73.22 169.8 73.27 169.23 73.25V72.27H171.09C171.14 71.87 171.09 71.39 171.11 70.95C170.94 70.95 170.76 71 170.57 71.03C170.4 71.06 170.16 71.16 170.03 71.14C169.88 71.11 169.73 70.78 169.65 70.68C169.51 70.49 169.38 70.37 169.29 70.2C170.81 70.11 172.05 69.74 173.16 69.24H173.2C173.34 69.39 173.5 69.54 173.66 69.7C173.8 69.84 174.07 69.96 174.01 70.22H174.03Z" fill="black"/>
<path fill-rule="evenodd" clip-rule="evenodd" d="M175.409 69.24C175.559 69.28 175.809 69.39 176.119 69.51C176.339 69.6 176.739 69.68 176.769 69.8C176.819 70.01 176.539 70.01 176.479 70.18C176.029 72.95 175.539 75.66 174.979 78.31C175.549 78.26 176.039 78.13 176.589 78.06C176.449 77.03 176.179 75.95 175.939 74.95C176.259 74.87 176.609 74.82 176.949 74.74C177.369 76.38 177.729 78.07 177.949 79.91C177.609 79.96 177.269 80.03 176.949 80.1C176.909 79.75 176.839 79.41 176.799 79.06C176.129 79.2 175.189 79.4 174.419 79.56C174.139 79.62 173.809 79.64 173.629 79.73C173.529 79.77 173.439 80.03 173.289 80C173.139 79.97 173.069 79.46 173.039 79.33C172.969 79.04 172.919 78.86 172.869 78.6C173.199 78.56 173.539 78.53 173.879 78.5C174.539 75.57 175.059 72.49 175.429 69.26L175.409 69.24Z" fill="black"/>
<path fill-rule="evenodd" clip-rule="evenodd" d="M129.709 69.49H140.669V70.58H137.349V72.23H140.129V77H137.349V78.84C138.499 78.89 139.739 78.84 140.929 78.86V79.97H129.449C129.449 79.68 129.449 79.22 129.449 78.86H133.169V77H130.349V72.23H133.149C133.199 71.72 133.149 71.12 133.169 70.58H129.699V69.55C129.699 69.55 129.699 69.49 129.719 69.49H129.709ZM134.329 70.64C134.319 71.53 134.359 72.48 134.309 73.34H131.509V75.91C132.439 75.92 133.439 75.88 134.339 75.93V78.83H136.199C136.209 77.86 136.169 76.84 136.219 75.9H138.959C139.009 75.09 138.959 74.18 138.979 73.33H136.199V70.57H134.359C134.359 70.57 134.339 70.6 134.339 70.63L134.329 70.64Z" fill="black"/>
<path fill-rule="evenodd" clip-rule="evenodd" d="M164.021 71.9102V72.9502H162.951C162.591 72.9502 162.161 72.8802 161.881 72.9502C161.631 73.0202 161.551 73.3402 161.361 73.4502C161.821 73.8302 162.251 74.2302 162.571 74.7502C163.231 74.4002 163.841 74.0002 164.411 73.5602C164.721 73.8702 165.121 74.0902 165.291 74.5402C165.201 74.6402 165.071 74.5702 164.961 74.6002C164.801 74.6402 164.621 74.7902 164.461 74.8702C163.971 75.1302 163.471 75.3902 162.951 75.6202C163.131 76.3502 163.731 76.9702 164.251 77.4002C164.771 77.8302 165.341 78.1802 165.951 78.4302C165.621 78.7202 165.251 78.9702 164.901 79.2502C164.241 78.8802 163.691 78.4102 163.191 77.8902C163.081 78.7102 163.031 79.4302 162.601 79.9002C162.091 80.4702 161.121 80.4402 160.131 80.5702C160.021 80.1402 159.881 79.7502 159.691 79.4002C160.431 79.2802 161.281 79.4302 161.641 78.9402C161.941 78.5202 161.911 77.7602 161.971 77.0802C161.671 77.2502 161.441 77.5102 161.161 77.7302C160.321 78.3602 159.331 78.9102 158.361 79.4202C157.941 79.1902 157.591 78.9102 157.191 78.6702C158.961 78.0002 160.571 77.1702 161.861 76.0202C161.801 75.7602 161.691 75.5402 161.611 75.3102C160.701 76.1002 159.701 76.7902 158.561 77.3402C158.151 77.1202 157.801 76.8302 157.391 76.6102C158.801 76.1202 160.051 75.4602 161.111 74.6202C161.011 74.4002 160.791 74.2902 160.631 74.1202C159.921 74.6002 159.141 75.0102 158.311 75.3702C158.141 75.2502 157.971 75.1002 157.811 74.9502C157.651 74.8102 157.461 74.6702 157.371 74.5102C158.561 74.1202 159.691 73.6702 160.571 72.9602H159.071V71.9202H164.041L164.021 71.9102Z" fill="black"/>
<path fill-rule="evenodd" clip-rule="evenodd" d="M149.32 74.7802C149.27 74.9202 149.06 74.8802 148.94 74.9502C148.83 75.1102 148.77 75.3102 148.69 75.4902C149.04 75.5302 149.54 75.5102 150.07 75.5102C150.55 75.5102 151.12 75.5902 151.47 75.5102C151.6 75.4802 151.67 75.3602 151.78 75.3602C151.98 75.3602 152.12 75.5902 152.26 75.7202C152.39 75.8402 152.66 75.9702 152.63 76.1802C152.61 76.3502 152.43 76.3602 152.3 76.4502C151.88 77.3302 151.37 78.1302 150.71 78.7702C151.45 79.2702 152.47 79.4802 153.57 79.6302C153.39 79.9802 153.04 80.3502 152.8 80.7002C151.67 80.4202 150.66 80.0302 149.81 79.4702C148.83 80.0502 147.63 80.4202 146.36 80.7002C146.1 80.4002 145.86 80.0802 145.65 79.7402C146.92 79.5702 148.05 79.2702 148.99 78.7802C148.54 78.2502 148.13 77.6702 147.84 76.9802C147.46 77.3802 147.13 77.8302 146.69 78.1702C146.34 77.9802 146.04 77.7402 145.69 77.5402C146.72 76.6802 147.56 75.6302 148.05 74.2402C148.07 74.2402 148.07 74.2402 148.07 74.2602C148.28 74.3102 148.5 74.4102 148.72 74.4902C148.93 74.5602 149.21 74.5602 149.3 74.7802H149.32ZM149.82 78.1402C150.36 77.7102 150.72 77.1002 151.05 76.4702H148.71C148.97 77.1402 149.35 77.6802 149.82 78.1402Z" fill="black"/>
<path fill-rule="evenodd" clip-rule="evenodd" d="M60.02 83.5806H177.56C177.66 83.5806 177.74 83.5706 177.79 83.5806C177.93 83.6106 177.94 83.6806 177.89 83.9006C177.86 84.0606 177.94 84.0706 177.58 84.0706C167.88 84.1206 158.17 84.0706 148.53 84.0706H60V83.6506C60 83.6506 60 83.5906 60.02 83.5806Z" fill="black"/>
<path fill-rule="evenodd" clip-rule="evenodd" d="M103.2 86.1098H106.38V87.7598H105.63V86.8198C103.83 86.7698 101.93 86.8198 100.09 86.7998C100.04 87.0798 100.09 87.4498 100.07 87.7598H99.3203V86.1098H102.35C102.32 85.9198 102.15 85.7598 102.14 85.6298C102.39 85.6098 102.71 85.5398 102.91 85.5498C103.02 85.7198 103.12 85.9098 103.2 86.1098Z" fill="black"/>
<path fill-rule="evenodd" clip-rule="evenodd" d="M144.139 86.0292H146.859V86.6392H145.539C145.429 86.7892 145.389 87.0192 145.289 87.1792H147.289V87.7892H139.949V87.1792H141.919C141.859 86.9592 141.759 86.7992 141.639 86.6392H140.329V86.0292H143.229C143.259 85.8992 143.039 85.7292 143.049 85.6292C143.329 85.6292 143.569 85.5092 143.799 85.5492C143.999 85.5792 144.019 85.8292 144.139 86.0292ZM142.779 87.1692H144.409C144.529 87.0192 144.619 86.8292 144.689 86.6292C143.979 86.6392 143.209 86.5992 142.539 86.6492C142.639 86.8092 142.699 86.9992 142.789 87.1692H142.779Z" fill="black"/>
<path fill-rule="evenodd" clip-rule="evenodd" d="M155.239 86.11H158.439V87.76H157.679V86.82C155.879 86.77 153.979 86.82 152.139 86.8C152.089 87.08 152.129 87.45 152.119 87.76H151.369V86.11H154.379C154.379 85.96 154.219 85.79 154.169 85.63C154.429 85.61 154.729 85.54 154.939 85.55C155.059 85.71 155.159 85.9 155.229 86.11H155.239Z" fill="black"/>
<path fill-rule="evenodd" clip-rule="evenodd" d="M132.359 85.5493C132.489 85.7393 132.679 85.9993 132.759 86.1693C132.099 86.4193 131.289 86.5293 130.499 86.6493V87.3993C131.139 87.4493 131.869 87.3993 132.549 87.4193V88.1293H130.499V89.1293H135.219C135.269 88.8393 135.219 88.4693 135.239 88.1493C134.589 88.0993 133.849 88.1493 133.169 88.1293V87.4193H135.239V86.5193C134.589 86.4693 133.849 86.5193 133.169 86.4993V85.8093H135.969V89.8293H134.019V90.8993C134.019 91.1793 133.949 91.7693 134.079 91.8993C134.199 92.0193 135.129 92.0193 135.339 91.9393C135.739 91.7993 135.569 91.0293 135.629 90.5793C135.899 90.6493 136.149 90.7293 136.409 90.8093C136.299 91.3393 136.469 92.1193 136.139 92.4593C136.039 92.5593 135.799 92.6293 135.639 92.6493C135.089 92.7093 133.799 92.7393 133.509 92.4993C133.009 92.0993 133.409 90.6793 133.279 89.8393C132.989 89.7893 132.619 89.8393 132.299 89.8193C132.069 91.4793 131.139 92.4593 129.619 92.8293C129.489 92.5793 129.379 92.2993 129.219 92.0793C130.469 91.8193 131.369 91.2193 131.499 89.8393C130.959 89.7893 130.339 89.8393 129.769 89.8193V86.0093C130.709 85.9293 131.589 85.7793 132.359 85.5293V85.5493Z" fill="black"/>
<path fill-rule="evenodd" clip-rule="evenodd" d="M116.54 85.7695V90.4695C116.77 90.5195 117.09 90.4695 117.35 90.4895V91.1995H112.33C112.42 91.3895 112.76 91.5295 112.89 91.7495C112.19 92.2295 111.37 92.5995 110.44 92.8595C110.26 92.6695 110.12 92.3295 110.02 92.1295C110.87 91.9395 111.65 91.6695 112.24 91.2095H110V90.4995H110.73C110.79 88.9695 110.71 87.2995 110.77 85.7695H116.52H116.54ZM111.54 86.4795C111.55 86.6395 111.52 86.8595 111.56 86.9795H115.74C115.79 86.8395 115.74 86.6095 115.76 86.4395C114.57 86.3895 112.91 86.4395 111.58 86.4195C111.56 86.4195 111.54 86.4495 111.54 86.4795ZM111.54 87.6195V88.1395H115.76V87.5495H111.56C111.56 87.5495 111.54 87.5795 111.54 87.6195ZM111.56 89.2895C112.92 89.2795 114.58 89.3195 115.76 89.2695V88.7095H111.56C111.52 88.8595 111.53 89.1495 111.56 89.2995V89.2895ZM111.54 89.9395V90.4795H115.76V89.8695H111.56C111.56 89.8695 111.54 89.8995 111.54 89.9295V89.9395Z" fill="black"/>
<path fill-rule="evenodd" clip-rule="evenodd" d="M169.02 85.7695V90.4695C169.25 90.5195 169.57 90.4695 169.83 90.4895V91.1995H164.81C164.91 91.3895 165.24 91.5295 165.37 91.7495C164.67 92.2295 163.85 92.5995 162.93 92.8595C162.75 92.6695 162.6 92.3295 162.51 92.1295C163.36 91.9395 164.14 91.6695 164.73 91.2095H162.5V90.4995H163.23C163.29 88.9695 163.21 87.2995 163.27 85.7695H169.02ZM164.02 86.4795V86.9595C165.35 86.9895 167.06 86.9895 168.24 86.9595V86.4395C167.04 86.3895 165.39 86.4395 164.06 86.4195C164.04 86.4195 164.02 86.4495 164.02 86.4795ZM164.02 87.6195V88.1395H168.24V87.5495H164.04C164.04 87.5495 164.02 87.5795 164.02 87.6195ZM164.02 88.7595V89.2595C165.37 89.2995 166.97 89.2895 168.24 89.2595V88.6995H164.04C164.04 88.6995 164.02 88.7295 164.02 88.7595ZM164.02 89.9395V90.4795H168.24V89.8695H164.04C164.04 89.8695 164.02 89.8995 164.02 89.9295V89.9395Z" fill="black"/>
<path fill-rule="evenodd" clip-rule="evenodd" d="M71.7694 87.9302C71.4694 87.9302 71.2094 87.9802 70.8894 87.9702C70.8894 87.0602 69.5794 86.7402 68.7994 87.1802C68.5694 87.3002 68.3694 87.5202 68.3994 87.8502C68.4494 88.3402 69.1594 88.5002 69.6794 88.6202C70.7994 88.8902 72.0794 89.1502 71.9394 90.6502C71.8594 91.5602 71.0094 92.0902 70.0794 92.1602C68.6394 92.2602 67.4094 91.6602 67.3594 90.2802C67.6494 90.2502 67.9394 90.2302 68.2194 90.2002C68.2194 91.3502 69.8494 91.7502 70.6894 91.2002C70.9194 91.0502 71.1694 90.6802 71.0294 90.2602C70.8594 89.7702 70.1494 89.6802 69.4994 89.5002C68.8094 89.3202 67.9894 89.0702 67.6994 88.4602C67.4694 87.9802 67.5994 87.2602 67.9094 86.8902C68.2094 86.5402 68.6794 86.3102 69.3694 86.2602C70.7694 86.1702 71.5994 86.6702 71.7694 87.9302Z" fill="black"/>
<path fill-rule="evenodd" clip-rule="evenodd" d="M77.5001 86.2791C79.3801 86.1291 80.3601 87.2491 80.4901 88.8291C80.6501 90.6491 79.8101 91.9391 78.2101 92.1291C76.5001 92.3391 75.2901 91.3591 75.0501 89.8491C74.9401 89.1591 75.0501 88.2091 75.3201 87.6691C75.6601 86.9691 76.3901 86.3491 77.4901 86.2691L77.5001 86.2791ZM76.9201 87.1691C76.0401 87.6091 75.6001 89.2991 76.1901 90.4691C76.3501 90.7891 76.6601 91.0791 76.9201 91.2191C77.6001 91.5791 78.5201 91.4091 78.9701 90.9891C79.4701 90.5191 79.6601 89.6491 79.6001 88.8591C79.5101 87.7391 78.8301 86.9591 77.7201 86.9991C77.3701 87.0091 77.1501 87.0491 76.9201 87.1691Z" fill="black"/>
<path fill-rule="evenodd" clip-rule="evenodd" d="M93.2006 86.2795C95.1306 86.1295 96.2606 87.4095 96.2106 89.2895C96.1606 91.1395 95.0306 92.2995 93.1006 92.1495C91.8606 92.0495 91.0806 91.1795 90.8206 90.0995C90.5006 88.7495 90.8806 87.4895 91.6606 86.8395C92.0506 86.5095 92.4806 86.3295 93.2106 86.2695L93.2006 86.2795ZM91.6106 89.1995C91.6106 90.0095 91.9006 90.8095 92.5306 91.1895C92.9506 91.4395 93.6106 91.5395 94.2006 91.2895C94.9006 90.9995 95.2806 90.2095 95.2906 89.2195C95.3006 87.8595 94.6406 86.9495 93.3906 86.9995C92.1706 87.0495 91.6106 87.9295 91.6106 89.1895V89.1995Z" fill="black"/>
<path fill-rule="evenodd" clip-rule="evenodd" d="M83.3598 86.3594H84.2198V88.6794C85.0998 88.7294 86.0598 88.6794 86.9798 88.6994C87.0298 87.9594 86.9798 87.1294 86.9998 86.3594H87.8598V92.0694H86.9998V89.4594C86.1198 89.4094 85.1498 89.4594 84.2398 89.4394C84.1898 90.2794 84.2398 91.1994 84.2198 92.0694H83.3398V86.4194C83.3398 86.4194 83.3398 86.3594 83.3598 86.3594Z" fill="black"/>
<path fill-rule="evenodd" clip-rule="evenodd" d="M105.29 87.2991V87.9691C104.76 88.0391 104.26 87.8691 103.79 87.9691C103.5 88.0391 103.3 88.3591 103.06 88.4291C103.27 88.7491 103.49 89.0791 103.64 89.4491C104.06 89.2891 104.57 88.9891 104.98 88.6591C105.04 88.6091 105.29 88.3291 105.33 88.3191C105.41 88.3191 105.56 88.5591 105.6 88.5891C105.72 88.7091 105.79 88.7691 105.89 88.8391C105.58 89.1691 105.15 89.3891 104.8 89.6791C105.2 90.5591 105.8 91.2591 106.49 91.8491C106.36 92.0991 106.18 92.2991 106.05 92.5391C105.23 91.8891 104.65 90.9991 104.17 90.0091C104.04 90.0191 103.99 90.1191 103.86 90.1391C103.95 90.9291 104.09 92.0391 103.63 92.5191C103.28 92.8791 102.65 92.8291 101.98 92.8091C101.91 92.5791 101.83 92.3591 101.77 92.1191C102.24 92.1191 102.81 92.2391 103.02 91.9291C103.2 91.6791 103.11 91.2891 103.15 90.8391C102.09 91.5391 100.91 92.1291 99.5699 92.5591C99.4499 92.2991 99.2699 92.1091 99.1699 91.8291C100.66 91.4491 101.93 90.8391 103.02 90.0491C102.98 89.9191 102.95 89.7791 102.89 89.6491C101.99 90.1891 100.84 90.6591 99.7199 91.0291C99.5599 90.8091 99.4299 90.5591 99.2999 90.3191C100.54 90.0491 101.64 89.6391 102.58 89.0691C102.53 88.9391 102.47 88.8191 102.37 88.7291C101.61 89.0691 100.75 89.3091 99.8399 89.5091C99.7599 89.2691 99.5599 89.0491 99.5299 88.8391C100.64 88.6891 101.67 88.4491 102.48 87.9791C101.83 87.9291 101.1 87.9791 100.41 87.9591V87.2891H105.28L105.29 87.2991Z" fill="black"/>
<path fill-rule="evenodd" clip-rule="evenodd" d="M157.331 87.3008V87.9708C156.801 88.0508 156.291 87.8608 155.821 87.9708C155.541 88.0408 155.351 88.3608 155.111 88.4308C155.311 88.7608 155.531 89.0908 155.701 89.4508C156.371 89.1808 156.911 88.7808 157.391 88.3208C157.581 88.5108 157.781 88.6708 157.931 88.8908C157.581 89.1608 157.231 89.4308 156.841 89.6608C157.251 90.5508 157.841 91.2708 158.551 91.8608C158.411 92.1008 158.241 92.3008 158.111 92.5508C157.291 91.9008 156.701 91.0208 156.231 90.0208C156.151 90.0208 156.011 90.1208 155.921 90.1708C155.991 90.9408 156.121 91.9308 155.751 92.4508C155.441 92.9008 154.731 92.8508 154.011 92.8308C153.961 92.5908 153.881 92.3808 153.801 92.1608C154.251 92.1208 154.861 92.2808 155.081 91.9308C155.241 91.6808 155.191 91.2808 155.181 90.8808C154.171 91.5308 152.941 92.1508 151.651 92.5808C151.481 92.3708 151.371 92.1108 151.211 91.8908C152.641 91.4308 154.001 90.9008 155.061 90.0708C155.041 89.9108 154.991 89.7808 154.941 89.6508C154.011 90.2508 152.901 90.6708 151.741 91.0508C151.641 90.7908 151.461 90.6008 151.361 90.3408C152.581 90.0508 153.731 89.6808 154.621 89.0608C154.581 88.9308 154.511 88.8208 154.411 88.7508C153.661 89.1008 152.801 89.3308 151.901 89.5308C151.801 89.3008 151.651 89.1008 151.561 88.8608C152.691 88.7108 153.711 88.4608 154.531 88.0008C153.881 87.9508 153.141 88.0008 152.461 87.9808V87.3108H157.311L157.331 87.3008Z" fill="black"/>
<path fill-rule="evenodd" clip-rule="evenodd" d="M140.729 88.1406H146.669V90.6106H144.069C144.019 90.7106 144.069 90.8906 144.049 91.0306H146.849V91.5906H144.069C144.019 91.7206 144.069 91.9406 144.049 92.1106H147.269V92.6506H140.059V92.1106H143.299C143.339 91.9806 143.299 91.7706 143.319 91.6106C142.439 91.5606 141.459 91.6106 140.539 91.5906V91.0306H143.299C143.339 90.9306 143.299 90.7606 143.319 90.6306C142.489 90.5806 141.569 90.6306 140.709 90.6106C140.719 89.7906 140.679 88.9206 140.729 88.1406ZM141.479 88.6806C141.389 88.7406 141.459 88.9706 141.439 89.1006H143.299V88.6806C142.859 88.6806 141.989 88.6806 141.479 88.6806ZM144.049 88.6806V89.1006H145.909V88.6806C145.299 88.6806 144.589 88.6806 144.049 88.6806ZM141.439 89.6206V90.0606H143.299V89.6206H141.439ZM144.049 89.6206V90.0606H145.909V89.6206H144.049Z" fill="black"/>
<path fill-rule="evenodd" clip-rule="evenodd" d="M123.81 88.41V89.6H122.66V88.41H123.81Z" fill="black"/>
<path fill-rule="evenodd" clip-rule="evenodd" d="M117.331 92.17C117.181 92.39 117.061 92.64 116.911 92.86C116.111 92.52 115.291 92.21 114.461 91.9C114.591 91.67 114.761 91.48 114.901 91.25C115.731 91.54 116.531 91.85 117.331 92.17Z" fill="black"/>
<path fill-rule="evenodd" clip-rule="evenodd" d="M169.811 92.17C169.671 92.39 169.541 92.64 169.391 92.86C168.591 92.52 167.771 92.21 166.941 91.9C167.081 91.67 167.241 91.48 167.381 91.25C168.201 91.54 169.011 91.85 169.811 92.17Z" fill="black"/>
<path fill-rule="evenodd" clip-rule="evenodd" d="M71.8597 64.8008L68.6797 70.1208H75.2197L71.8597 64.8008Z" fill="#D61518"/>
</g>
</g>
</g>
<defs>
<filter id="filter0_d_226_19632" x="0.474609" y="0" width="238" height="160" filterUnits="userSpaceOnUse" color-interpolation-filters="sRGB">
<feFlood flood-opacity="0" result="BackgroundImageFix"/>
<feColorMatrix in="SourceAlpha" type="matrix" values="0 0 0 0 0 0 0 0 0 0 0 0 0 0 0 0 0 0 127 0" result="hardAlpha"/>
<feOffset dy="1"/>
<feGaussianBlur stdDeviation="10"/>
<feComposite in2="hardAlpha" operator="out"/>
<feColorMatrix type="matrix" values="0 0 0 0 0 0 0 0 0 0 0 0 0 0 0 0 0 0 0.08 0"/>
<feBlend mode="normal" in2="BackgroundImageFix" result="effect1_dropShadow_226_19632"/>
<feBlend mode="normal" in="SourceGraphic" in2="effect1_dropShadow_226_19632" result="shape"/>
</filter>
<clipPath id="clip0_226_19632">
<rect x="20.4746" y="19" width="198" height="120" rx="7.02062" fill="white"/>
</clipPath>
<clipPath id="clip1_226_19632">
<rect width="117.94" height="31.86" fill="white" transform="translate(60 61)"/>
</clipPath>
</defs>
</svg>
