<svg width="240" height="160" viewBox="0 0 240 160" fill="none" xmlns="http://www.w3.org/2000/svg">
<g filter="url(#filter0_d_226_20930)">
<g clip-path="url(#clip0_226_20930)">
<rect x="20.4746" y="19" width="199" height="120" rx="7.02062" fill="white"/>
<rect x="20.4746" y="19" width="199" height="120" fill="white"/>
<g clip-path="url(#clip1_226_20930)">
<g filter="url(#filter1_d_226_20930)">
<g clip-path="url(#clip2_226_20930)">
<rect x="35" y="35" width="175" height="93" rx="7.02062" fill="white"/>
<rect x="35" y="35" width="175" height="120" fill="white"/>
<g clip-path="url(#clip3_226_20930)">
<path d="M87.867 74.3699C88.627 74.5699 89.357 74.7699 90.067 74.9799C90.747 75.1799 91.087 75.3899 91.087 75.6099C91.087 75.8299 90.897 75.9699 90.507 76.0199C90.137 76.0899 89.927 76.1599 89.887 76.2399C89.687 76.7499 89.477 77.2299 89.247 77.6799H92.687V76.1099C92.687 74.8999 92.607 73.8199 92.447 72.8599C93.087 72.9399 93.907 73.0699 94.907 73.2499C95.717 73.3699 96.127 73.4999 96.127 73.6399C96.127 73.8599 95.897 74.0599 95.447 74.2299C95.157 74.3199 95.007 74.4899 95.007 74.7399V77.6699H97.567C97.567 77.6699 97.817 77.4199 98.247 76.9199C98.837 76.2099 99.217 75.8599 99.407 75.8599C99.577 75.8599 100.097 76.2399 100.947 76.9999C101.457 77.4699 101.707 77.7699 101.707 77.8899C101.707 78.0999 101.557 78.1999 101.247 78.1999H94.997V83.3399H96.997C97.047 83.3099 97.297 83.0199 97.737 82.4499C98.267 81.7699 98.587 81.4299 98.677 81.4299C98.947 81.4299 99.387 81.7499 99.997 82.3899C100.607 83.0299 100.917 83.4299 100.917 83.5699C100.917 83.7699 100.777 83.8699 100.497 83.8699H94.987V89.6999H98.747C98.797 89.6699 99.067 89.3699 99.547 88.7899C100.137 88.0899 100.477 87.7499 100.567 87.7499C100.877 87.7499 101.337 88.0799 101.947 88.7299C102.587 89.3899 102.907 89.7899 102.907 89.9299C102.907 90.1499 102.767 90.2599 102.487 90.2599H87.447C86.277 90.2599 85.447 90.2899 84.967 90.3399L84.627 89.5499C85.277 89.6399 86.217 89.6899 87.447 89.6899H92.657V83.8599H89.597C88.437 83.8599 87.607 83.8899 87.117 83.9399L86.797 83.1499C87.447 83.2699 88.387 83.3299 89.597 83.3299H92.657V78.1899H88.957C88.627 78.8199 88.267 79.3799 87.897 79.8599C87.207 80.8299 86.277 81.8199 85.117 82.8299L84.817 82.5299C85.647 81.1499 86.277 79.8899 86.717 78.7299C87.167 77.5099 87.547 76.0499 87.837 74.3399L87.867 74.3699Z" fill="#231815"/>
<path d="M114.176 76.81C114.656 77.69 114.896 78.45 114.896 79.09C114.896 80 114.706 80.59 114.316 80.88C114.036 81.14 113.666 81.27 113.216 81.27C112.966 81.27 112.756 81.19 112.596 81.03C112.476 80.86 112.416 80.68 112.416 80.48C112.416 80.35 112.646 80 113.116 79.44C113.546 78.76 113.786 77.9 113.856 76.88L114.176 76.8V76.81ZM114.976 72.72C115.586 72.76 116.356 72.86 117.276 73.02C117.926 73.1 118.256 73.24 118.256 73.43C118.256 73.62 118.046 73.78 117.636 73.9C117.346 73.98 117.196 74.14 117.196 74.37V75.55C117.886 75.85 118.416 76.15 118.776 76.44C119.266 76.85 119.516 77.23 119.516 77.6C119.516 78.07 119.346 78.45 119.016 78.72C118.816 78.9 118.566 79 118.256 79C118.086 79 117.946 78.93 117.836 78.8C117.726 78.69 117.636 78.41 117.556 77.95C117.486 77.58 117.366 77.18 117.196 76.73V90.49C117.196 90.75 116.886 90.95 116.276 91.08C116.006 91.12 115.816 91.14 115.696 91.14C115.216 91.14 114.976 90.92 114.976 90.49C115.066 89.3 115.116 88.19 115.116 87.18V76.11C115.116 74.81 115.066 73.68 114.976 72.72ZM121.126 74.22C121.856 74.43 122.496 74.61 123.026 74.75C123.746 74.96 124.106 75.14 124.106 75.3C124.106 75.47 123.896 75.58 123.486 75.63C123.156 75.67 122.956 75.75 122.886 75.87C122.406 76.85 121.906 77.63 121.386 78.21C121.786 78.35 122.186 78.51 122.586 78.68H126.666C126.876 78.42 127.056 78.19 127.206 78.01C127.356 77.87 127.476 77.79 127.586 77.77C127.156 76.98 126.796 75.95 126.486 74.66C125.206 74.66 124.266 74.69 123.686 74.74L123.386 73.95C124.356 74.07 125.156 74.13 125.766 74.13C125.956 73.85 126.126 73.61 126.286 73.38C126.576 73.03 126.816 72.85 126.986 72.85C127.156 72.85 127.496 73.07 127.986 73.5C128.536 73.92 128.806 74.23 128.806 74.44C128.806 74.6 128.546 74.78 128.026 74.99C127.586 75.13 127.366 75.29 127.366 75.44C127.556 75.83 127.886 76.19 128.366 76.5C128.766 76.79 129.256 77.02 129.826 77.21C130.306 77.39 130.846 77.54 131.446 77.66L131.366 78.11C130.936 78.25 130.656 78.6 130.526 79.15C130.406 79.73 130.296 80.02 130.186 80.02C129.996 80.02 129.736 79.9 129.406 79.65C129.206 79.77 129.086 79.89 129.046 80.02V83.48C129.046 83.69 128.736 83.85 128.126 83.95C127.856 83.99 127.666 84.01 127.546 84.01C127.396 84.01 127.286 83.98 127.206 83.93V88.36C127.206 88.73 127.316 88.94 127.526 88.99C127.716 89.03 128.006 89.05 128.406 89.05C128.686 89.04 128.886 88.92 129.006 88.72C129.176 88.3 129.406 87.31 129.686 85.75L130.106 85.85L130.186 87.66C130.186 88.11 130.396 88.49 130.806 88.8C131.176 89.09 131.366 89.36 131.366 89.61C131.366 89.98 131.206 90.23 130.886 90.36C130.406 90.65 129.576 90.79 128.406 90.79H127.226C126.816 90.79 126.436 90.74 126.106 90.65C125.416 90.52 125.066 90.05 125.066 89.23V83.48H124.166C124.046 84.84 123.846 85.88 123.566 86.59C123.296 87.27 122.976 87.87 122.606 88.38C122.196 88.89 121.666 89.34 121.026 89.72C120.196 90.23 119.276 90.67 118.266 91.04L118.006 90.63C118.536 90.37 119.056 89.99 119.566 89.51C120.076 89.02 120.516 88.47 120.886 87.86C121.216 87.28 121.456 86.68 121.606 86.05C121.776 85.43 121.886 84.72 121.926 83.92C121.796 83.96 121.626 84 121.426 84.04C121.156 84.09 120.956 84.12 120.826 84.12C120.396 84.12 120.186 83.94 120.186 83.57C120.226 83.19 120.246 82.76 120.246 82.29V79.42C119.836 79.79 119.376 80.14 118.886 80.48L118.646 80.18C119.086 79.55 119.556 78.68 120.046 77.58C120.446 76.66 120.806 75.53 121.126 74.19V74.22ZM122.426 82.94H126.976V79.26H122.426V82.94Z" fill="#231815"/>
<path d="M148.766 72.72C149.766 72.81 150.736 72.94 151.666 73.11C152.256 73.14 152.546 73.29 152.546 73.58C152.546 73.67 152.376 73.79 152.026 73.93C151.666 74.1 151.486 74.29 151.486 74.5V75.29H156.376C156.646 75.05 156.866 74.86 157.056 74.7C157.326 74.42 157.526 74.29 157.676 74.29C157.866 74.29 158.306 74.58 159.016 75.16C159.656 75.67 159.976 76.03 159.976 76.24C159.976 76.41 159.826 76.52 159.516 76.57C159.146 76.57 158.926 76.6 158.856 76.65C158.306 76.98 157.676 77.31 156.956 77.63C157.206 77.93 157.336 78.12 157.336 78.2C157.336 78.42 157.236 78.53 157.036 78.53H151.106C150.396 79.11 149.746 79.58 149.166 79.95C150.246 80.75 150.996 81.52 151.406 82.25C151.516 82.41 151.596 82.55 151.646 82.66C152.316 82.27 152.916 81.84 153.466 81.38C154.276 80.7 154.856 80.06 155.186 79.47C155.796 79.81 156.336 80.11 156.806 80.36C157.436 80.69 157.746 80.94 157.746 81.13C157.746 81.29 157.576 81.38 157.246 81.41C156.886 81.41 156.676 81.48 156.606 81.61C156.016 81.91 155.396 82.19 154.746 82.44C154.116 82.68 153.216 82.91 152.046 83.15C152.916 84 153.786 84.69 154.666 85.22C156.236 86.09 157.806 86.7 159.356 87.05L159.276 87.52C158.686 87.7 158.266 88.1 158.016 88.72C157.886 89.18 157.716 89.41 157.516 89.41C157.226 89.41 156.556 89.03 155.516 88.27C154.426 87.52 153.396 86.56 152.436 85.4C152.466 85.58 152.476 85.77 152.476 85.95C152.476 87.39 152.326 88.46 152.016 89.14C151.706 89.89 151.316 90.44 150.836 90.79C150.406 91.12 150.076 91.28 149.836 91.28C149.666 91.28 149.496 91.05 149.336 90.59C149.096 90.06 148.326 89.62 147.016 89.25L147.096 88.92C148.056 88.97 148.706 89 149.036 89C149.526 89 149.846 88.81 149.996 88.43C150.146 88.09 150.226 87.42 150.236 86.42C149.206 87 148.156 87.49 147.096 87.9C145.666 88.44 143.776 88.97 141.426 89.49L141.246 89.08C142.926 88.44 144.366 87.77 145.566 87.09C146.926 86.41 148.446 85.4 150.116 84.06C150.076 83.76 150.026 83.45 149.976 83.14C148.906 83.82 147.796 84.39 146.656 84.83C145.376 85.34 143.686 85.84 141.586 86.33L141.426 85.96C142.896 85.34 144.156 84.7 145.206 84.03C146.416 83.36 147.786 82.38 149.286 81.08C149.116 80.75 148.916 80.48 148.706 80.25C148.556 80.33 148.426 80.4 148.306 80.47C147.416 80.93 146.386 81.34 145.226 81.69C144.066 82.03 142.796 82.33 141.426 82.58L141.246 82.17C142.616 81.76 143.896 81.24 145.066 80.6C146.146 80 147.066 79.32 147.806 78.57H146.366C145.206 78.57 144.386 78.6 143.906 78.65L143.566 77.84C144.216 77.95 145.156 78 146.366 78H153.976C154.026 77.97 154.246 77.73 154.616 77.27C155.086 76.71 155.346 76.42 155.416 76.42C155.606 76.42 155.876 76.58 156.236 76.91C156.406 76.57 156.566 76.23 156.716 75.89H143.896C143.896 76.99 143.666 77.72 143.216 78.07C142.866 78.4 142.426 78.56 141.876 78.56C141.596 78.56 141.356 78.45 141.156 78.23C140.996 78.05 140.916 77.84 140.916 77.62C140.916 77.5 141.266 77.18 141.976 76.66C142.646 76.06 143.016 75.3 143.096 74.4L143.476 74.32C143.646 74.71 143.766 75.05 143.836 75.32H149.026V74.69C149.026 74.06 148.936 73.41 148.766 72.74V72.72Z" fill="#231815"/>
<path d="M182.686 72.8599C182.916 72.8599 183.316 73.0999 183.906 73.5699C184.576 74.0699 184.906 74.3799 184.906 74.5099C184.906 74.7299 184.776 74.9399 184.526 75.1399C184.256 75.3099 184.116 75.4899 184.106 75.6899V85.3699H184.366C184.416 85.3599 184.636 85.0999 185.026 84.5999C185.506 84.0099 185.796 83.7099 185.886 83.7099C186.136 83.7099 186.536 83.9999 187.066 84.5799C187.616 85.1399 187.886 85.4899 187.886 85.5999C187.886 85.8199 187.746 85.9299 187.466 85.9299H172.266C171.096 85.9299 170.266 85.9599 169.786 86.0099L169.446 85.2199C170.096 85.3099 171.036 85.3599 172.266 85.3599H172.426V77.1899C172.426 75.4199 172.336 74.0799 172.166 73.1699C172.966 73.3499 173.906 73.6799 174.986 74.1299H181.296C181.566 73.8699 181.796 73.6199 181.996 73.3799C182.306 73.0299 182.526 72.8499 182.676 72.8499L182.686 72.8599ZM174.196 86.1799C174.806 86.5199 175.346 86.8199 175.816 87.0699C176.446 87.3999 176.756 87.6499 176.756 87.8399C176.756 87.9999 176.586 88.0899 176.256 88.1199C175.896 88.1199 175.686 88.1799 175.636 88.2999C175.006 88.8099 174.336 89.2599 173.636 89.6599C172.846 90.1499 171.596 90.6399 169.876 91.1599L169.716 90.8299C170.706 90.1899 171.586 89.4899 172.356 88.7399C173.236 87.8299 173.846 86.9899 174.196 86.1999V86.1799ZM174.736 74.6699V76.9699H181.806V74.6699H174.736ZM174.736 77.5199V79.8599H181.806V77.5199H174.736ZM174.736 80.4199V82.9399H181.806V80.4199H174.736ZM174.736 83.5099V85.3799H181.806V83.5099H174.736ZM179.866 86.5599C181.466 86.8899 182.756 87.2599 183.726 87.6799C185.096 88.2199 185.786 88.7999 185.786 89.4099C185.786 89.8599 185.666 90.1999 185.426 90.4299C185.096 90.7999 184.766 90.9799 184.446 90.9799C184.126 90.9799 183.806 90.7599 183.486 90.3299C183.076 89.7799 182.496 89.1399 181.766 88.4199C181.406 88.0499 180.696 87.5399 179.626 86.8799L179.866 86.5499V86.5599Z" fill="#231815"/>
<path d="M65.0071 87.7999C65.0871 88.0999 65.2371 89.0499 64.9171 89.4399C64.8471 89.5199 64.7171 89.6399 64.3871 89.6199C64.1571 89.6099 63.8571 89.5299 63.7671 89.2299C63.7071 89.0199 63.7771 88.7899 63.8871 88.7199C63.9071 88.7099 63.9571 88.6699 64.0971 88.7699C64.2771 88.8999 64.5171 88.8599 64.6471 88.6799C64.7771 88.4999 64.7371 88.2499 64.5571 88.1199C64.1871 87.8499 63.7671 87.8299 63.4371 88.0599C63.2871 88.1599 63.1771 88.2999 63.0971 88.4699C63.0171 88.2999 62.8971 88.1599 62.7571 88.0599C62.4271 87.8299 62.0071 87.8499 61.6371 88.1199C61.4571 88.2499 61.4171 88.4999 61.5471 88.6799C61.6771 88.8499 61.9171 88.8899 62.0971 88.7699C62.2371 88.6699 62.2871 88.7099 62.3071 88.7199C62.4171 88.7899 62.4871 89.0199 62.4271 89.2299C62.3471 89.5299 62.0471 89.6099 61.8071 89.6199C61.4771 89.6399 61.3471 89.5299 61.2771 89.4399C60.9571 89.0499 61.1071 88.0999 61.1871 87.7999C61.2071 87.7399 61.1971 87.6699 61.1871 87.6099C61.9971 87.0099 62.7071 86.1199 63.1371 84.9999C63.5471 86.0899 64.2371 86.9699 65.0271 87.5699C64.9971 87.6399 64.9971 87.7199 65.0171 87.7999H65.0071ZM61.1571 77.9199C61.1771 77.8599 61.1771 77.7799 61.1571 77.7099C61.0571 77.3299 60.9471 76.4299 61.2471 76.0699C61.3171 75.9799 61.4471 75.8699 61.7771 75.8899C62.0071 75.8999 62.3071 75.9799 62.3971 76.2799C62.4571 76.4899 62.3871 76.7199 62.2771 76.7899C62.2571 76.8099 62.2071 76.8399 62.0671 76.7399C61.8871 76.6099 61.6471 76.6499 61.5171 76.8299C61.3871 77.0099 61.4271 77.2499 61.6071 77.3799C61.9771 77.6499 62.4071 77.6699 62.7271 77.4399C62.8771 77.3399 62.9871 77.1999 63.0671 77.0299C63.1471 77.1999 63.2671 77.3399 63.4071 77.4399C63.7371 77.6699 64.1571 77.6499 64.5371 77.3799C64.7071 77.2499 64.7571 76.9999 64.6271 76.8299C64.4971 76.6499 64.2571 76.6099 64.0771 76.7399C63.9371 76.8399 63.8871 76.7999 63.8671 76.7899C63.7571 76.7199 63.6871 76.4899 63.7471 76.2799C63.8271 75.9799 64.1271 75.8999 64.3671 75.8899C64.6971 75.8699 64.8271 75.9799 64.8971 76.0699C65.2171 76.4599 65.0671 77.4099 64.9871 77.7099C64.9671 77.7999 64.9771 77.8899 65.0071 77.9699C64.2171 78.5699 63.5371 79.4499 63.1171 80.5399C62.6871 79.4099 61.9771 78.5199 61.1571 77.9199ZM69.2971 84.1299C68.4771 83.4099 67.3271 83.3799 66.5771 84.0599C65.9271 84.6499 65.8271 85.2299 65.8571 85.6099C65.9071 86.2499 66.3371 86.7499 66.6971 86.9799C67.1271 87.2599 67.8471 87.1599 68.2971 86.7699C68.5271 86.5699 68.9971 86.0199 68.5471 85.0499C68.4571 84.8499 68.2171 84.7599 68.0171 84.8499C67.8171 84.9399 67.7271 85.1799 67.8271 85.3799C67.9871 85.7299 67.9671 85.9999 67.7771 86.1699C67.5671 86.3499 67.2271 86.3699 67.1271 86.3099C66.9171 86.1699 66.6671 85.8699 66.6471 85.5399C66.6171 85.2399 66.7771 84.9399 67.1071 84.6399C67.6371 84.1599 68.3471 84.3399 68.7771 84.7199C69.2971 85.1699 69.5971 86.0299 68.8771 87.0899C68.4271 87.7599 67.4571 87.9099 66.4171 87.4699C65.0571 86.8999 63.8171 85.4499 63.5471 83.3799C63.5471 83.2799 63.5471 83.1699 63.5471 83.0699C63.5671 82.7199 63.5671 82.3599 63.5471 81.9799C63.8571 79.9899 65.0771 78.6199 66.3871 78.0599C67.4271 77.6199 68.3971 77.7699 68.8571 78.4299C69.5771 79.4999 69.2771 80.3599 68.7571 80.8099C68.3271 81.1899 67.6271 81.3699 67.0871 80.8899C66.7571 80.5899 66.6071 80.2899 66.6271 79.9899C66.6571 79.6599 66.8971 79.3599 67.1171 79.2199C67.2071 79.1599 67.5471 79.1799 67.7671 79.3599C67.9671 79.5399 67.9871 79.7999 67.8171 80.1499C67.7271 80.3499 67.8171 80.5799 68.0071 80.6799C68.2071 80.7699 68.4471 80.6799 68.5371 80.4899C68.9871 79.5299 68.5071 78.9699 68.2871 78.7699C67.8371 78.3799 67.1171 78.2799 66.6871 78.5599C66.3371 78.7899 65.8971 79.2899 65.8471 79.9299C65.8171 80.3099 65.9171 80.8899 66.5671 81.4799C67.3171 82.1599 68.4571 82.1299 69.2871 81.4099C70.0271 80.7699 70.5271 79.4899 69.5171 77.9999C68.8471 76.9999 67.4971 76.7399 66.0971 77.3399C66.0171 77.3699 65.9371 77.4099 65.8471 77.4499C65.9171 76.9299 65.9471 76.0999 65.5171 75.5699C65.3271 75.3399 64.9671 75.0699 64.3271 75.1099C63.7471 75.1399 63.2971 75.4199 63.0771 75.8599C62.8671 75.4199 62.4171 75.1499 61.8371 75.1099C61.1971 75.0699 60.8371 75.3399 60.6471 75.5699C60.2271 76.0799 60.2371 76.8799 60.3071 77.3999C60.2571 77.3799 60.2071 77.3599 60.1571 77.3299C58.7471 76.7299 57.4071 76.9899 56.7271 77.9899C55.7171 79.4799 56.2271 80.7599 56.9671 81.3999C57.7871 82.1199 58.9271 82.1499 59.6871 81.4699C60.3371 80.8799 60.4371 80.2999 60.4071 79.9199C60.3571 79.2799 59.9171 78.7799 59.5671 78.5499C59.1371 78.2699 58.4171 78.3699 57.9671 78.7599C57.7371 78.9599 57.2671 79.5099 57.7171 80.4799C57.8071 80.6799 58.0471 80.7599 58.2471 80.6699C58.4471 80.5799 58.5271 80.3399 58.4371 80.1399C58.2771 79.7899 58.2871 79.5199 58.4871 79.3499C58.7071 79.1699 59.0371 79.1499 59.1371 79.2099C59.3571 79.3499 59.5971 79.6499 59.6271 79.9799C59.6471 80.2799 59.4971 80.5799 59.1671 80.8799C58.6371 81.3599 57.9271 81.1699 57.4971 80.7999C56.9771 80.3499 56.6771 79.4899 57.3971 78.4199C57.8471 77.7599 58.8171 77.6099 59.8671 78.0499C61.2171 78.6199 62.4671 80.0699 62.7371 82.1399C62.7371 82.2399 62.7371 82.3499 62.7371 82.4399C62.7071 82.7899 62.7071 83.1599 62.7371 83.5299C62.4271 85.5099 61.2071 86.8899 59.8971 87.4499C58.8571 87.8899 57.8871 87.7499 57.4371 87.0699C56.7171 86.0099 57.0171 85.1499 57.5371 84.6999C57.9671 84.3199 58.6671 84.1399 59.2071 84.6199C59.5371 84.9199 59.6971 85.2199 59.6671 85.5199C59.6471 85.8499 59.3971 86.1499 59.1871 86.2899C59.0971 86.3499 58.7571 86.3299 58.5371 86.1499C58.3371 85.9699 58.3171 85.7099 58.4871 85.3599C58.5771 85.1599 58.4871 84.9199 58.2971 84.8299C58.0971 84.7399 57.8671 84.8299 57.7671 85.0299C57.3171 85.9999 57.7971 86.5499 58.0171 86.7499C58.4671 87.1399 59.1871 87.2399 59.6071 86.9599C59.9671 86.7299 60.3971 86.2399 60.4471 85.5899C60.4771 85.2099 60.3771 84.6299 59.7271 84.0399C58.9771 83.3599 57.8371 83.3899 57.0171 84.1099C56.2771 84.7499 55.7771 86.0299 56.7871 87.5199C57.2171 88.1599 57.9271 88.4999 58.7571 88.4999C59.2171 88.4999 59.7071 88.3999 60.2171 88.1799C60.2671 88.1599 60.3171 88.1299 60.3671 88.1099C60.3071 88.6299 60.2971 89.4099 60.7071 89.9199C60.8871 90.1399 61.2171 90.3899 61.7771 90.3899C61.8171 90.3899 61.8571 90.3899 61.8971 90.3899C62.4771 90.3599 62.9271 90.0799 63.1471 89.6499C63.3571 90.0899 63.8071 90.3599 64.3871 90.3899C64.4271 90.3899 64.4671 90.3899 64.5071 90.3899C65.0771 90.3899 65.3971 90.1399 65.5771 89.9199C65.9971 89.3999 65.9871 88.5899 65.9171 88.0699C65.9971 88.1099 66.0671 88.1499 66.1471 88.1799C66.6471 88.3899 67.1471 88.4999 67.6071 88.4999C68.4371 88.4999 69.1371 88.1599 69.5771 87.5199C70.5871 86.0299 70.0771 84.7499 69.3471 84.1099L69.2971 84.1299Z" fill="#F4CD34"/>
</g>
</g>
</g>
</g>
</g>
</g>
<defs>
<filter id="filter0_d_226_20930" x="0.474609" y="0" width="239" height="160" filterUnits="userSpaceOnUse" color-interpolation-filters="sRGB">
<feFlood flood-opacity="0" result="BackgroundImageFix"/>
<feColorMatrix in="SourceAlpha" type="matrix" values="0 0 0 0 0 0 0 0 0 0 0 0 0 0 0 0 0 0 127 0" result="hardAlpha"/>
<feOffset dy="1"/>
<feGaussianBlur stdDeviation="10"/>
<feComposite in2="hardAlpha" operator="out"/>
<feColorMatrix type="matrix" values="0 0 0 0 0 0 0 0 0 0 0 0 0 0 0 0 0 0 0.08 0"/>
<feBlend mode="normal" in2="BackgroundImageFix" result="effect1_dropShadow_226_20930"/>
<feBlend mode="normal" in="SourceGraphic" in2="effect1_dropShadow_226_20930" result="shape"/>
</filter>
<filter id="filter1_d_226_20930" x="15" y="16" width="215" height="133" filterUnits="userSpaceOnUse" color-interpolation-filters="sRGB">
<feFlood flood-opacity="0" result="BackgroundImageFix"/>
<feColorMatrix in="SourceAlpha" type="matrix" values="0 0 0 0 0 0 0 0 0 0 0 0 0 0 0 0 0 0 127 0" result="hardAlpha"/>
<feOffset dy="1"/>
<feGaussianBlur stdDeviation="10"/>
<feComposite in2="hardAlpha" operator="out"/>
<feColorMatrix type="matrix" values="0 0 0 0 0 0 0 0 0 0 0 0 0 0 0 0 0 0 0.08 0"/>
<feBlend mode="normal" in2="BackgroundImageFix" result="effect1_dropShadow_226_20930"/>
<feBlend mode="normal" in="SourceGraphic" in2="effect1_dropShadow_226_20930" result="shape"/>
</filter>
<clipPath id="clip0_226_20930">
<rect x="20.4746" y="19" width="199" height="120" rx="7.02062" fill="white"/>
</clipPath>
<clipPath id="clip1_226_20930">
<rect width="169" height="88" fill="white" transform="translate(35 35)"/>
</clipPath>
<clipPath id="clip2_226_20930">
<rect x="35" y="35" width="175" height="93" rx="7.02062" fill="white"/>
</clipPath>
<clipPath id="clip3_226_20930">
<rect width="131.74" height="18.56" fill="white" transform="translate(56.1562 72.72)"/>
</clipPath>
</defs>
</svg>
