<svg width="240" height="160" viewBox="0 0 240 160" fill="none" xmlns="http://www.w3.org/2000/svg">
<g filter="url(#filter0_d_226_21134)">
<g clip-path="url(#clip0_226_21134)">
<rect x="20.4736" y="19" width="199" height="120" rx="7.02062" fill="white"/>
<rect x="20.4736" y="19" width="199" height="120" fill="white"/>
<g clip-path="url(#clip1_226_21134)">
<path d="M185.29 55H54V103.36H185.29V55Z" fill="#0B3E7E"/>
<path d="M64.6399 83.52C64.6399 83.52 64.9099 86.62 69.0699 88.49C73.2399 90.36 76.5699 89.75 76.5699 89.75C76.5699 89.75 71.5999 91.36 68.4099 89.63C65.2199 87.9 64.8599 86.19 64.6299 83.51" fill="white"/>
<path d="M65.55 89.3601C65.55 89.3601 69.03 92.0501 73.86 91.3201C78.69 90.6001 81.62 89.1701 82.46 88.9101C83.31 88.6501 88.23 86.8001 92.25 86.7901C96.53 86.7801 100.21 89.2801 100.21 89.2801C100.21 89.2801 98.09 88.4801 95.48 88.3501C93.08 88.2301 91.06 88.6401 89.73 89.0401C87.06 89.8401 85.03 90.7601 84.01 91.2601C83.02 91.7401 77.7 93.8901 74.35 93.6101C71.01 93.3301 68.82 92.2701 65.54 89.3701" fill="#717B80"/>
<path d="M89.04 90.43C89.04 90.43 91.45 88.81 94.93 88.99C97.71 89.13 98.83 89.85 98.83 89.85C98.83 89.85 96.06 89.5 94.49 89.54C93.17 89.58 91.88 89.46 89.04 90.42" fill="white"/>
<path d="M82.4299 64.74C74.2799 64.74 67.6699 71.35 67.6699 79.5C67.6699 82.2 68.3999 84.72 69.6599 86.9C69.8899 87.02 70.1299 87.14 70.3899 87.26C71.0999 87.58 71.7399 87.83 72.4199 87.87C73.8899 87.95 75.3199 86.93 74.9999 84.49C74.9099 83.81 74.8499 83.13 74.7699 82.44C74.6899 81.77 74.9499 81.25 75.5099 80.9C75.8599 80.69 76.2599 80.59 76.6699 80.61C76.8699 80.61 77.0699 80.64 77.2699 80.64C77.5999 80.64 77.8599 80.48 77.9499 80.16C78.0299 79.87 78.2699 79.75 78.5199 79.8C78.7599 79.85 78.9199 79.98 79.0999 80.16C79.1899 80.25 79.2299 80.2 79.2499 80.11C79.2999 79.94 79.3799 79.79 79.4899 79.66C79.7299 79.38 80.0999 79.33 80.4099 79.53C80.8099 79.79 81.3299 79.67 81.5599 79.26C81.7699 78.88 81.8999 78.56 82.2699 78.33C82.6299 78.11 83.1199 78.25 83.4099 78.5C83.9999 79.01 84.3199 79.42 84.8099 79.84C85.2399 80.21 85.6999 80.55 86.2799 80.66C86.6299 80.73 86.8799 80.73 87.0899 80.71C87.3499 80.13 87.7399 80.05 87.7399 80.05C87.4799 80.24 87.3199 80.53 87.2699 80.74C87.2699 80.74 87.7899 80.8 88.1599 80.6C88.5399 80.4 89.0099 80.48 89.3199 80.56C89.4099 80.6 89.5499 80.64 89.5799 80.65C89.5799 80.64 92.9099 81.67 94.2199 83.25C95.0299 83.49 95.6299 84.23 96.0299 85.24C96.7699 83.48 97.1899 81.54 97.1899 79.51C97.1899 71.36 90.5799 64.75 82.4299 64.75" fill="white"/>
<path d="M85.0295 69.2299L84.8295 69.1999H84.8195L84.3895 69.1399C84.3795 69.1399 84.3695 69.1399 84.3695 69.1199L84.0795 68.5399C84.0795 68.5399 84.0295 68.5199 84.0195 68.5399L83.7295 69.1199C83.7295 69.1199 83.7195 69.1399 83.7095 69.1399L83.0695 69.2299C83.0695 69.2299 83.0295 69.2699 83.0495 69.2899L83.5095 69.7399C83.5095 69.7399 83.5195 69.7599 83.5095 69.7699L83.4095 70.3299V70.3999H83.3995C83.3995 70.4199 83.4295 70.4399 83.4495 70.4199L84.0195 70.1199C84.0195 70.1199 84.0295 70.1199 84.0395 70.1199C84.0395 70.1199 84.0395 70.1199 84.0495 70.1199L84.6195 70.4199C84.6195 70.4199 84.6695 70.4199 84.6695 70.3899L84.5595 69.7499C84.5595 69.7499 84.5595 69.7299 84.5595 69.7199L85.0195 69.2699C85.0195 69.2699 85.0195 69.2699 85.0195 69.2499C85.0195 69.2299 85.0095 69.2199 84.9895 69.2199" fill="#0B3E7E"/>
<path d="M90.0802 72.33H89.9802V72.31L89.7702 72.28H89.7602L89.6202 71.99C89.6202 71.99 89.6002 71.98 89.5902 71.99L89.4502 72.28C89.4502 72.28 89.4502 72.28 89.4402 72.28L89.1202 72.33C89.1202 72.33 89.1002 72.35 89.1202 72.36L89.3502 72.59C89.3502 72.59 89.3502 72.59 89.3502 72.6L89.3002 72.88V72.92C89.3002 72.93 89.3102 72.94 89.3202 72.93L89.6102 72.78L89.9002 72.93C89.9002 72.93 89.9302 72.93 89.9202 72.91L89.8602 72.59V72.58L90.0902 72.35C90.0902 72.35 90.0902 72.33 90.0802 72.33Z" fill="#0B3E7E"/>
<path d="M73.13 75.1799H73.03V75.1599L72.82 75.1299H72.81L72.67 74.8399C72.67 74.8399 72.65 74.8299 72.64 74.8399L72.5 75.1299C72.5 75.1299 72.5 75.1299 72.49 75.1299L72.17 75.1799C72.17 75.1799 72.15 75.1999 72.17 75.2099L72.4 75.4399C72.4 75.4399 72.4 75.4399 72.4 75.4499L72.35 75.7299V75.7699C72.35 75.7799 72.36 75.7899 72.37 75.7799L72.66 75.6299L72.95 75.7799C72.95 75.7799 72.98 75.7799 72.97 75.7599L72.91 75.4399V75.4299L73.14 75.1999C73.14 75.1999 73.14 75.1799 73.13 75.1799Z" fill="#0B3E7E"/>
<path d="M112.649 72.6299C112.649 72.6299 113.119 78.0399 120.379 81.2999C127.639 84.5599 133.459 83.4999 133.459 83.4999C133.459 83.4999 124.789 86.3099 119.239 83.2999C113.689 80.2899 113.059 77.2999 112.649 72.6399" fill="#4F98D2"/>
<path d="M114.229 82.8099C114.229 82.8099 120.289 87.4899 128.719 86.2299C137.139 84.9699 142.239 82.4899 143.719 82.0399C145.199 81.5899 153.779 78.3599 160.779 78.3399C168.249 78.3199 174.659 82.6699 174.659 82.6699C174.659 82.6699 170.969 81.2699 166.409 81.0499C162.229 80.8399 158.709 81.5499 156.389 82.2499C151.729 83.6399 148.189 85.2499 146.419 86.1099C144.699 86.9499 135.409 90.6999 129.589 90.2099C123.759 89.7199 119.949 87.8699 114.239 82.8099" fill="#717B80"/>
<path d="M155.18 84.68C155.18 84.68 159.38 81.86 165.44 82.17C170.29 82.42 172.23 83.68 172.23 83.68C172.23 83.68 167.41 83.06 164.67 83.15C162.38 83.22 160.12 83.01 155.17 84.69" fill="#4F98D2"/>
<path d="M125.13 77.7699V76.5299H117.54V77.7699H116.3V75.3999H117.54V75.8999H125.13V75.3399H126.37V77.5799C126.37 77.5799 126.21 77.4599 125.95 77.3299C125.69 77.2099 125.41 77.3499 125.13 77.7699ZM120.77 81.6199C120.77 81.6199 120.62 81.3599 120.38 80.8999C120.14 80.4399 119.92 79.9099 119.71 79.3199C119.7 79.3399 119.52 79.5599 119.17 79.9699C118.82 80.3799 118.34 80.8899 117.72 81.4999H117.04C117.11 81.4799 117.47 81.0499 118.1 80.1999C118.73 79.3599 119.17 78.2299 119.41 76.8299H121.09C121.09 76.8299 121.01 77.0399 120.78 77.5199C120.78 77.5799 120.73 77.7099 120.66 77.8899H123.09C123.09 77.8899 123.13 77.6699 123.15 77.3299H124.77C124.8 77.4299 124.61 77.9699 124.2 78.9599C123.78 79.9499 122.96 80.8599 121.72 81.6799C121.68 81.6999 121.23 81.9199 120.37 82.3299C119.51 82.7499 118.49 83.1699 117.3 83.5999L116.3 83.5399C116.37 83.5099 116.89 83.2899 117.86 82.8899C118.82 82.4899 119.8 82.0699 120.78 81.6199M121.95 71.1099V70.2399H120.64V71.1699H119.39V70.2399H116.34V69.6199H119.33V68.4399H120.64V69.6799H121.95V68.4399H123.13V69.6199H126.3V70.2399H123.13V71.1099H121.95ZM118.59 71.6699H123.94V71.2399H125.18V75.2899H123.94V74.9199H118.65V75.3499H117.41V71.2399H118.59V71.6699ZM119.65 72.3499H118.65V74.2199H119.65V72.3499ZM121.45 80.3199C121.43 80.3899 121.41 80.4299 121.39 80.4399C121.38 80.4699 121.33 80.6099 121.24 80.8599C121.15 81.0999 121.08 81.2899 121.02 81.4399C121.07 81.4399 121.35 81.1799 121.87 80.6799C122.39 80.1699 122.77 79.4299 123.01 78.4499H120.33C120.33 78.4499 120.24 78.6099 119.96 79.0099C119.96 79.0299 120.11 79.1599 120.4 79.4099C120.68 79.6599 121.03 79.9599 121.46 80.3099M121.76 72.3499H120.7V74.2199H121.76V72.3499ZM123.94 72.3499H122.88V74.2199H123.94V72.3499Z" fill="white"/>
<path d="M135.08 83.4099C135.17 83.4099 135.54 83.2699 136.19 83.0099C136.84 82.7499 137.15 82.3899 137.13 81.9199V79.5699H132.09V78.9499H137.13V78.2599H136.51L139.93 76.6999H133.46V76.0799H140.62C140.66 76.1499 140.89 76.0099 141.31 75.6499V76.8899C141.31 76.8899 141.09 76.8699 140.75 76.9499L137.82 78.1899H138.38V78.9399H143.05V79.5599H138.38V81.9099C138.38 81.9099 138.35 82.1799 138.16 82.5899C137.97 83.0099 137.36 83.3599 136.32 83.6499C136.38 83.5799 136.26 83.5399 135.95 83.5299L135.14 83.5899L135.08 83.3999V83.4099ZM137.01 68.1199H137.07C137.07 68.1199 137.62 68.3999 138.69 69.0499C138.69 69.0999 138.5 69.3699 138.13 69.8599H142.93V70.4799H132.47V69.8599H137.57C137.57 69.8599 137.47 69.6799 137.33 69.3599C137.19 69.0399 137.09 68.6199 137.01 68.1199ZM133.96 75.3399V71.2299H135.2V71.7299H140.06V71.3599H141.3V75.4599H140.06V74.8399H135.2V75.3399H133.96ZM140.07 72.3499H135.21V74.2199H140.07V72.3499Z" fill="white"/>
<path d="M157.489 82.6699H150.639V83.4199H149.329V73.2299H147.649V72.4799H149.329V68.8699H150.639V72.4799H152.129V68.1199H153.439V72.4799H155.249V68.1199H156.559V72.4799H158.489V73.2299H156.559V80.0699H155.249V79.1999H153.439V80.0699H152.129V73.2299H150.639V81.9299H157.489V82.6799V82.6699ZM155.249 73.2199H153.439V78.4499H155.249V73.2199Z" fill="white"/>
<path d="M164.4 78.8199C164.4 78.8199 164.31 78.8999 164.21 78.9499H163.59C163.68 78.9299 164.2 78.5299 165.15 77.7499C166.1 76.9699 166.9 75.9599 167.57 74.7199H166.45V75.3399H165.2V68.3699H166.45V68.8699H171.93V68.4999H173.17V75.4699H171.93V74.7199H170.06C170.03 74.7999 170.34 75.1699 170.99 75.8199C171.64 76.4799 172.83 76.9799 174.54 77.3299C174.51 77.3499 174.4 77.5199 174.21 77.8199C174.02 78.1299 173.94 78.4999 173.98 78.9499V79.0699C173.98 79.0699 173.71 78.9699 173.28 78.7699C172.84 78.5799 172.39 78.2999 171.93 77.9399V83.6499H170.69V77.0699H170.94C170.94 77.0699 170.75 76.8099 170.47 76.3499C170.19 75.8999 169.93 75.3399 169.69 74.6999H169.19C169.16 74.7499 168.95 75.0299 168.58 75.5499C168.2 76.0699 167.78 76.5299 167.33 76.9499H167.95V78.8199C168.03 78.8799 167.95 79.3999 167.7 80.3599C167.45 81.3199 166.52 82.3799 164.9 83.5299H164.34C164.39 83.4899 164.65 83.2599 165.1 82.8299C165.56 82.4099 165.9 81.9799 166.14 81.5599C166.15 81.5599 166.22 81.3299 166.35 80.8399C166.48 80.3499 166.56 79.5999 166.58 78.5699V77.5799C166.58 77.5799 165.81 78.0299 164.4 78.8199ZM166.45 71.5399H168.57V69.4899H166.45V71.5399ZM166.45 74.0899H168.57V72.1599H166.45V74.0899ZM169.81 71.5399H171.93V69.4899H169.81V71.5399ZM171.93 72.1699H169.81V74.0999H171.93V72.1699Z" fill="white"/>
<path d="M153.77 87.6001C153.77 87.8801 153.71 88.1201 153.58 88.3401C153.45 88.5601 153.29 88.7301 153.1 88.8401C152.96 88.9301 152.8 88.9901 152.62 89.0201C152.45 89.0501 152.24 89.0701 152.01 89.0701H150.96V86.1001H152.04C152.28 86.1001 152.49 86.1201 152.67 86.1601C152.85 86.2001 152.99 86.2601 153.11 86.3301C153.31 86.4501 153.48 86.6201 153.59 86.8401C153.71 87.0501 153.77 87.3001 153.77 87.5901M152.98 87.6001C152.98 87.4001 152.94 87.2401 152.87 87.1001C152.8 86.9601 152.69 86.8501 152.53 86.7701C152.45 86.7301 152.37 86.7101 152.29 86.6901C152.21 86.6801 152.08 86.6701 151.92 86.6701H151.73V88.5301H151.92C152.1 88.5301 152.24 88.5301 152.32 88.5101C152.41 88.4901 152.49 88.4601 152.57 88.4201C152.71 88.3401 152.81 88.2301 152.88 88.1001C152.95 87.9701 152.98 87.8001 152.98 87.6001Z" fill="#FCFDFD"/>
<path d="M155.94 87.5301H155.88C155.88 87.5301 155.8 87.5101 155.73 87.5101C155.66 87.5101 155.61 87.5101 155.56 87.5101C155.46 87.5101 155.37 87.5101 155.29 87.5301C155.21 87.5401 155.13 87.5701 155.04 87.6001V89.1001H154.32V86.8601H155.04V87.1901C155.2 87.0501 155.34 86.9601 155.45 86.9201C155.56 86.8801 155.67 86.8501 155.77 86.8501C155.8 86.8501 155.82 86.8501 155.86 86.8501C155.89 86.8501 155.92 86.8501 155.94 86.8501V87.5301Z" fill="#FCFDFD"/>
<path d="M158.55 88.1H156.91C156.92 88.28 156.99 88.41 157.11 88.5C157.23 88.59 157.41 88.64 157.65 88.64C157.8 88.64 157.95 88.61 158.09 88.56C158.23 88.5 158.34 88.45 158.43 88.38H158.51V88.96C158.35 89.03 158.19 89.07 158.05 89.1C157.91 89.13 157.75 89.14 157.57 89.14C157.12 89.14 156.78 89.04 156.54 88.84C156.3 88.64 156.18 88.35 156.18 87.98C156.18 87.61 156.29 87.32 156.52 87.1C156.75 86.88 157.06 86.78 157.45 86.78C157.81 86.78 158.09 86.87 158.27 87.06C158.45 87.24 158.54 87.51 158.54 87.85V88.1H158.55ZM157.84 87.68C157.84 87.53 157.8 87.42 157.73 87.34C157.66 87.26 157.55 87.23 157.4 87.23C157.26 87.23 157.15 87.27 157.06 87.34C156.97 87.41 156.92 87.53 156.91 87.68H157.84Z" fill="#FCFDFD"/>
<path d="M160.41 88.85C160.41 88.85 160.32 88.91 160.27 88.96C160.21 89 160.16 89.03 160.11 89.06C160.04 89.09 159.97 89.12 159.89 89.13C159.81 89.15 159.73 89.15 159.64 89.15C159.43 89.15 159.25 89.08 159.11 88.95C158.97 88.82 158.89 88.65 158.89 88.45C158.89 88.29 158.93 88.15 159 88.05C159.07 87.95 159.18 87.87 159.31 87.81C159.44 87.75 159.61 87.71 159.8 87.68C160 87.65 160.2 87.64 160.41 87.62C160.41 87.49 160.36 87.4 160.26 87.35C160.16 87.3 160.01 87.28 159.81 87.28C159.69 87.28 159.57 87.3 159.43 87.34C159.3 87.38 159.2 87.41 159.14 87.44H159.07V86.9C159.15 86.88 159.27 86.86 159.44 86.83C159.61 86.8 159.78 86.79 159.95 86.79C160.36 86.79 160.65 86.85 160.83 86.98C161.01 87.11 161.1 87.3 161.1 87.57V89.09H160.39V88.85H160.41ZM160.41 88.5V88.04C160.31 88.04 160.21 88.06 160.1 88.07C159.99 88.08 159.9 88.1 159.84 88.12C159.77 88.14 159.71 88.18 159.68 88.22C159.64 88.26 159.62 88.32 159.62 88.39C159.62 88.44 159.62 88.47 159.63 88.5C159.63 88.53 159.66 88.56 159.69 88.58C159.72 88.61 159.76 88.63 159.8 88.64C159.84 88.65 159.91 88.66 160 88.66C160.07 88.66 160.14 88.65 160.22 88.62C160.29 88.59 160.36 88.55 160.41 88.5Z" fill="#FCFDFD"/>
<path d="M163.97 87.5V89.09H163.25V87.97C163.25 87.86 163.25 87.77 163.25 87.69C163.25 87.61 163.23 87.55 163.21 87.5C163.19 87.45 163.15 87.42 163.1 87.4C163.05 87.38 162.98 87.37 162.9 87.37C162.83 87.37 162.76 87.38 162.69 87.41C162.62 87.44 162.56 87.47 162.51 87.5V89.09H161.79V86.85H162.51V87.1C162.63 87 162.75 86.93 162.86 86.87C162.97 86.82 163.1 86.79 163.23 86.79C163.38 86.79 163.51 86.82 163.62 86.89C163.73 86.96 163.82 87.05 163.89 87.18C164.03 87.06 164.17 86.96 164.31 86.9C164.45 86.83 164.58 86.8 164.71 86.8C164.95 86.8 165.13 86.87 165.26 87.02C165.39 87.16 165.45 87.37 165.45 87.65V89.11H164.73V87.99C164.73 87.88 164.73 87.79 164.73 87.71C164.73 87.63 164.71 87.57 164.69 87.52C164.67 87.47 164.63 87.44 164.58 87.42C164.53 87.4 164.46 87.39 164.37 87.39C164.31 87.39 164.25 87.4 164.19 87.42C164.13 87.44 164.06 87.47 163.98 87.52" fill="#FCFDFD"/>
<path d="M168.309 88.1H166.669C166.679 88.28 166.749 88.41 166.869 88.5C166.989 88.59 167.169 88.64 167.409 88.64C167.559 88.64 167.709 88.61 167.849 88.56C167.989 88.5 168.099 88.45 168.189 88.38H168.269V88.96C168.109 89.03 167.949 89.07 167.809 89.1C167.669 89.13 167.509 89.14 167.329 89.14C166.879 89.14 166.539 89.04 166.299 88.84C166.059 88.64 165.939 88.35 165.939 87.98C165.939 87.61 166.049 87.32 166.279 87.1C166.509 86.88 166.819 86.78 167.209 86.78C167.569 86.78 167.849 86.87 168.029 87.06C168.209 87.24 168.309 87.51 168.309 87.85V88.1ZM167.599 87.68C167.599 87.53 167.559 87.42 167.489 87.34C167.419 87.26 167.309 87.23 167.159 87.23C167.019 87.23 166.909 87.27 166.819 87.34C166.729 87.41 166.679 87.53 166.669 87.68H167.599Z" fill="#FCFDFD"/>
<path d="M170.44 87.5301H170.38C170.38 87.5301 170.3 87.5101 170.23 87.5101C170.16 87.5101 170.11 87.5101 170.06 87.5101C169.96 87.5101 169.87 87.5101 169.79 87.5301C169.71 87.5401 169.63 87.5701 169.54 87.6001V89.1001H168.82V86.8601H169.54V87.1901C169.7 87.0501 169.84 86.9601 169.95 86.9201C170.07 86.8801 170.17 86.8501 170.27 86.8501C170.3 86.8501 170.32 86.8501 170.36 86.8501C170.39 86.8501 170.42 86.8501 170.44 86.8501V87.5301Z" fill="#FCFDFD"/>
<path d="M172.789 88.38C172.789 88.61 172.689 88.8 172.479 88.94C172.269 89.08 171.989 89.15 171.629 89.15C171.429 89.15 171.249 89.13 171.089 89.09C170.929 89.05 170.799 89.01 170.699 88.97V88.38H170.769C170.769 88.38 170.849 88.43 170.889 88.46C170.939 88.49 170.999 88.52 171.089 88.56C171.159 88.59 171.249 88.62 171.339 88.64C171.429 88.66 171.539 88.67 171.639 88.67C171.779 88.67 171.889 88.65 171.949 88.62C172.019 88.59 172.049 88.54 172.049 88.48C172.049 88.43 172.029 88.39 171.989 88.36C171.949 88.34 171.869 88.31 171.759 88.29C171.709 88.28 171.629 88.27 171.539 88.25C171.449 88.24 171.369 88.22 171.289 88.2C171.089 88.15 170.939 88.06 170.839 87.95C170.739 87.84 170.689 87.7 170.689 87.53C170.689 87.31 170.789 87.14 170.999 86.99C171.199 86.85 171.479 86.77 171.839 86.77C172.009 86.77 172.169 86.79 172.319 86.82C172.469 86.85 172.589 86.89 172.679 86.93V87.5H172.619C172.509 87.43 172.389 87.37 172.259 87.32C172.119 87.27 171.989 87.25 171.849 87.25C171.729 87.25 171.639 87.27 171.559 87.3C171.479 87.33 171.439 87.38 171.439 87.44C171.439 87.49 171.459 87.53 171.489 87.56C171.529 87.59 171.609 87.62 171.739 87.64C171.809 87.65 171.889 87.67 171.979 87.68C172.059 87.69 172.149 87.71 172.229 87.73C172.419 87.78 172.559 87.86 172.649 87.96C172.739 88.07 172.789 88.2 172.789 88.36" fill="#FCFDFD"/>
</g>
</g>
</g>
<defs>
<filter id="filter0_d_226_21134" x="0.473633" y="0" width="239" height="160" filterUnits="userSpaceOnUse" color-interpolation-filters="sRGB">
<feFlood flood-opacity="0" result="BackgroundImageFix"/>
<feColorMatrix in="SourceAlpha" type="matrix" values="0 0 0 0 0 0 0 0 0 0 0 0 0 0 0 0 0 0 127 0" result="hardAlpha"/>
<feOffset dy="1"/>
<feGaussianBlur stdDeviation="10"/>
<feComposite in2="hardAlpha" operator="out"/>
<feColorMatrix type="matrix" values="0 0 0 0 0 0 0 0 0 0 0 0 0 0 0 0 0 0 0.08 0"/>
<feBlend mode="normal" in2="BackgroundImageFix" result="effect1_dropShadow_226_21134"/>
<feBlend mode="normal" in="SourceGraphic" in2="effect1_dropShadow_226_21134" result="shape"/>
</filter>
<clipPath id="clip0_226_21134">
<rect x="20.4736" y="19" width="199" height="120" rx="7.02062" fill="white"/>
</clipPath>
<clipPath id="clip1_226_21134">
<rect width="131.29" height="48.36" fill="white" transform="translate(54 55)"/>
</clipPath>
</defs>
</svg>
