<svg width="239" height="160" viewBox="0 0 239 160" fill="none" xmlns="http://www.w3.org/2000/svg">
<g filter="url(#filter0_d_225_18647)">
<g clip-path="url(#clip0_225_18647)">
<rect x="20.4746" y="19" width="198" height="198.333" fill="white"/>
<path d="M133.774 74.0138C136.886 70.9296 138.798 66.7557 138.798 62.1479C138.798 53.0245 131.281 45.5633 121.789 45C121.789 45.314 121.779 45.6279 121.779 45.9419C121.779 57.0321 126.396 67.0235 133.765 74.0046L133.774 74.0138Z" fill="#E50012"/>
<path d="M119.432 45.9512C119.432 45.6372 119.432 45.3232 119.423 45.0093C109.958 45.6003 102.479 53.0522 102.479 62.1479C102.479 66.7373 104.381 70.9019 107.474 73.9861C114.825 67.0051 119.432 57.0322 119.432 45.9512Z" fill="#E50012"/>
<path d="M120.643 68.9993C124.54 68.9993 127.864 71.1231 129.222 74.1335H130.875C129.489 70.3105 125.436 67.5403 120.643 67.5403C115.851 67.5403 111.787 70.3105 110.402 74.1335H112.055C113.413 71.1231 116.746 68.9993 120.634 68.9993H120.643Z" fill="#E50012"/>
<path d="M105.349 77.3936H98.3125V78.5386H105.349V77.3936Z" fill="#E50012"/>
<path d="M142.627 77.3936H135.969V78.5386H142.627V77.3936Z" fill="#E50012"/>
<path d="M109.404 79.7664V76.3313H113.301V76.913H110.466V77.6795H113.107V78.2612H110.466V79.2031H113.403V79.7849H109.404V79.7664Z" fill="#E50012"/>
<path d="M114.029 79.7664V76.3313H115.091V79.7664H114.029Z" fill="#E50012"/>
<path d="M115.869 79.7664V76.3313H119.47V76.913H116.931V77.7257H119.129V78.3074H116.931V79.7664H115.869Z" fill="#E50012"/>
<path d="M120.115 79.7664V76.3313H123.717V76.913H121.177V77.7257H123.366V78.3074H121.177V79.7664H120.115Z" fill="#E50012"/>
<path d="M124.354 79.7664V76.3313H128.25V76.913H125.415V77.6795H128.047V78.2612H125.415V79.2031H128.352V79.7849H124.354V79.7664Z" fill="#E50012"/>
<path d="M129.045 79.7665V76.3499H130.107V79.1847H132.748V79.7665H129.054H129.045Z" fill="#E50012"/>
<path d="M99.285 92.9254H98.1861L97.8906 91.6418H98.1492C98.5001 91.6418 98.7309 91.5126 98.8325 91.2725L99.0911 90.7461H98.2323L97.9368 89.4626H98.5278C98.7402 89.4626 98.8787 89.3425 98.9341 89.1301L99.0449 88.7146H97.9922V86.7293H99.0541L98.6294 86.0275H100.873L101.298 86.7293H103.154L102.84 86.0275H105.075L105.389 86.7293H106.82L107.236 86.0275H109.48L109.064 86.7293H109.877V88.7608H108.685L108.87 89.2964C108.916 89.4441 109.073 89.518 109.323 89.518H109.821V90.8015H108.279C107.587 90.8015 107.162 90.543 107.005 90.0443L106.672 88.7054H107.827V88.1052H100.033V88.7054H101.039L100.596 89.9612C100.458 90.3398 100.208 90.5891 99.8667 90.7H101.261L100.993 91.1801H109.35V92.3529L106.1 93.7934C106.248 93.8765 106.728 93.9227 107.54 93.9227H109.923V95.2155H105.333C105.066 95.2155 104.881 95.1693 104.77 95.0862L103.985 94.7261L103.523 94.92C103.154 95.1139 102.812 95.2155 102.48 95.2155H98.2138L97.946 93.9227H100.956C101.381 93.9227 101.714 93.8765 101.972 93.7842L99.8852 92.8053C99.7005 92.8885 99.4974 92.9346 99.2942 92.9346L99.285 92.9254ZM109.627 83.8759V84.5592C109.627 84.827 109.526 85.0579 109.332 85.2795C109.11 85.5196 108.833 85.6396 108.482 85.6396H98.3246L98.0938 84.2545H107.254C107.411 84.2545 107.513 84.2176 107.577 84.1345C107.642 84.0698 107.679 83.9682 107.679 83.8574L109.627 83.8667V83.8759ZM103.985 92.9716L105.758 92.2698H100.402C100.292 92.4452 100.162 92.5837 100.033 92.6853H103.265L103.985 92.9623V92.9716ZM103.634 88.6038V89.5826C103.634 89.7765 103.736 89.8689 103.939 89.8689H106.349V90.7831H102.739C101.935 90.7831 101.538 90.3952 101.538 89.6473V88.6038H103.634ZM105.527 88.5576C105.564 88.6869 105.666 88.7515 105.823 88.7515H106.248V89.481H105.416C104.862 89.481 104.512 89.2594 104.355 88.8346L104.161 88.5576H105.527Z" fill="#030000"/>
<path d="M118.175 86.0552V86.6555H116.134V86.0552H114.509V84.4854H116.134V83.8206H118.175V84.4854H122.691V83.8206H124.731V84.4854H126.394V86.0552H124.731V86.6555H122.691V86.0552H118.175ZM114.509 93.8027V92.3252H117.852V91.568H114.952V90.0906H117.852V89.2872H114.703V87.8097H117.852V87.0987H119.893V94.2552C119.893 94.4768 119.81 94.68 119.634 94.8739C119.44 95.077 119.2 95.1786 118.923 95.1786H115.571L115.433 94.3568H117.501C117.621 94.3568 117.713 94.3198 117.769 94.2644C117.815 94.1998 117.843 94.1259 117.843 94.0336V93.7935H114.5L114.509 93.8027ZM123.171 95.1971H121.13V87.1264H123.171V87.8374H126.301V89.3149H123.171V90.1183H125.96V91.5957H123.171V92.3991H126.403V93.9689H123.171V95.2248V95.1971Z" fill="#030000"/>
<path d="M134.668 94.2365C134.382 94.495 133.994 94.6243 133.504 94.6243H133.218V95.2061H131.519V87.2277H131.297L131.002 86.3136H131.676C131.925 86.3136 132.11 86.2304 132.239 86.0642L132.424 85.6949H134.76L134.299 86.4613C134.299 86.4613 134.299 86.4613 134.299 86.4705H136.072V85.4178H131.242V84.0327H142.886V85.4178H138.066V86.4705H139.719L139.331 85.6949H141.769L142 86.1104C142.12 86.2397 142.305 86.3043 142.563 86.3043H142.988V87.2185H142.572V94.061C142.572 94.8182 142.166 95.1968 141.372 95.1968H140.236L140.098 94.5227C139.876 94.4489 139.682 94.3473 139.507 94.2365C139.22 94.495 138.833 94.6243 138.343 94.6243H138.066V95.2061H136.072V94.6705C135.481 94.6243 135.01 94.4766 134.668 94.2457V94.2365ZM136.072 87.9849H133.218V88.3358H134.299L134.649 88.8437L135.037 88.3358H136.062V87.9849H136.072ZM133.227 89.9888H133.347C133.597 89.9888 133.781 89.9426 133.883 89.8595L133.218 88.7421V89.9795L133.227 89.9888ZM136.072 91.18C135.49 91.1615 135.019 91.0599 134.649 90.866C134.382 91.0415 134.049 91.1338 133.643 91.1338H133.218V91.577H134.345L134.686 92.0849L135.093 91.577H136.072V91.18ZM133.227 93.4701C133.514 93.4701 133.708 93.3962 133.8 93.2577L133.92 93.0914L133.218 91.9002V93.4701H133.227ZM136.072 88.7791L135.397 89.8687L135.434 89.9057C135.536 89.9888 135.656 90.0349 135.813 90.0349H136.072V88.7791ZM136.072 92.0849L135.425 93.1007L135.638 93.3777C135.739 93.4608 135.859 93.507 136.016 93.507H136.081V92.0849H136.072ZM138.066 88.3266H139.045L139.488 88.8622L139.894 88.3266H140.873V87.9757H138.075V88.3266H138.066ZM138.066 90.0349H138.186C138.454 90.0349 138.639 89.9795 138.749 89.8595L138.066 88.8345V90.0257V90.0349ZM138.066 91.577H139.147L139.534 92.1311L139.987 91.577H140.864V91.18C140.338 91.1523 139.904 91.0415 139.581 90.8568C139.303 91.0784 138.943 91.18 138.491 91.18H138.066V91.577ZM138.066 93.4701C138.352 93.4701 138.546 93.3962 138.639 93.2577L138.759 93.0914L138.066 91.9649V93.4608V93.4701ZM140.873 92.2142L140.282 93.1284L140.476 93.3869C140.578 93.47 140.698 93.5162 140.855 93.5162H140.864V92.2142H140.873ZM140.873 88.8714L140.301 89.8225L140.384 89.9057C140.485 89.9888 140.606 90.0349 140.762 90.0349H140.873V88.8714Z" fill="#030000"/>
<path d="M92.5052 102.871L92.145 103.923C92.0619 104.182 91.868 104.311 91.5818 104.311H91.1293L91 103.609H91.1662C91.277 103.609 91.3417 103.554 91.3694 103.452L91.591 102.88H92.5052V102.871ZM92.8745 102.64H91.0923V102.012L92.6899 101.245H91.2678V100.544L92.339 100.045H91.1662L91.0554 99.3892H95.1369C95.2108 99.3892 95.2662 99.3708 95.2939 99.3338C95.3216 99.2969 95.3401 99.2507 95.3401 99.1953V99.2138H96.2543V99.5277C96.2543 99.6478 96.1988 99.7678 96.1157 99.8694C96.0142 99.9802 95.8849 100.045 95.7187 100.045H93.9272L92.7914 100.636H93.9919L94.5644 100.359H96.3097L92.893 101.947H94.9615C95.1184 101.947 95.1831 101.882 95.1277 101.762L94.7768 101.291H95.7371L96.1619 101.984C96.3189 102.427 96.1711 102.64 95.7094 102.64H94.1489V104.302H93.2162V102.64H92.893H92.8745ZM95.9865 103.471C96.0142 103.554 96.0788 103.6 96.1804 103.6H96.3374V104.302H95.6725C95.3955 104.302 95.22 104.136 95.1369 103.812L94.8691 102.871H95.8018L95.9865 103.471Z" fill="#E50012"/>
<path d="M98.3209 102.64V103.739C98.3209 103.822 98.284 103.895 98.2193 103.969C98.1455 104.052 98.0624 104.089 97.9423 104.089H97.8315L97.7207 103.434H97.7853C97.8407 103.434 97.8777 103.415 97.8962 103.397C97.9146 103.369 97.9331 103.341 97.9331 103.304V102.649H98.3209V102.64ZM98.718 100.83H97.8407V100.128L98.718 99.2692H99.8538L98.9766 100.128H99.9184V100.765L99.0043 101.689H99.3736C99.466 101.689 99.5121 101.642 99.5121 101.559V101.31H99.9923V101.882C99.9923 102.224 99.8076 102.39 99.4567 102.39H99.4198V104.302H98.5056V102.39H97.8223V101.744L98.7272 100.83H98.718ZM100.066 103.6C100.177 103.6 100.242 103.545 100.269 103.443L100.472 102.289H101.387L101.045 103.923C100.953 104.182 100.768 104.311 100.482 104.311H100.011L99.9646 104.071L99.5768 104.08V102.649H99.9646V103.609H100.066V103.6ZM100.168 101.975V101.356L100.851 100.331H100.112V99.6478H101.147V99.2415H102.061V99.6478H103.095V100.331H101.895L101.257 101.282H101.922C102.107 101.282 102.172 101.245 102.116 101.171L101.913 100.774H102.744L103.012 101.365C103.178 101.781 103.021 101.984 102.541 101.984H100.168V101.975ZM102.726 102.289V103.471C102.726 103.554 102.772 103.6 102.864 103.6H103.123V104.302H102.347C101.987 104.302 101.811 104.126 101.811 103.794V102.289H102.726Z" fill="#E50012"/>
<path d="M104.621 101.374L104.492 100.673H104.585C104.668 100.673 104.714 100.617 104.723 100.525L104.991 99.2413H105.905L105.563 100.922C105.563 100.922 105.545 100.977 105.545 101.014H105.739V104.32H104.825V101.393H104.631L104.621 101.374ZM107.715 103.517V102.141H107.069C106.93 102.252 106.764 102.307 106.561 102.307H106.108L105.979 101.735H106.256C106.348 101.735 106.422 101.698 106.468 101.642L106.671 101.31H106.117V100.645H109.802V101.31H107.623L107.456 101.568H108.638V103.794C108.638 104.135 108.454 104.302 108.103 104.302H107.558L107.438 103.646H107.586C107.678 103.646 107.724 103.6 107.724 103.517H107.715ZM106.127 103.258L105.997 102.741H106.247C106.394 102.741 106.487 102.686 106.533 102.584L106.635 102.381H107.549L107.244 102.916C107.161 103.073 107.059 103.184 106.921 103.23H107.53L107.207 103.877C107.087 104.108 106.912 104.228 106.671 104.228H106.117L105.988 103.692H106.21C106.357 103.692 106.45 103.637 106.505 103.535L106.607 103.258H106.145H106.127ZM106.939 100.165V100.432H106.025V99.4998H107.512V99.2043H108.426V99.4998H109.811V100.432H108.897V100.165H106.939ZM109.848 101.605L109.7 102.39C109.645 102.639 109.451 102.769 109.119 102.769H108.915L108.786 102.196H108.897C108.971 102.196 109.008 102.15 109.026 102.076L109.119 101.605H109.857H109.848ZM109.654 103.452C109.673 103.526 109.728 103.554 109.839 103.554H109.876V104.219H109.525C109.229 104.219 109.045 104.08 108.952 103.803L108.851 103.009H109.589L109.654 103.452Z" fill="#E50012"/>
<path d="M111.379 101.328L111.25 100.627H111.305C111.416 100.627 111.481 100.571 111.509 100.47L111.906 99.2322H112.82L112.312 100.83H112.487V104.302H111.573V101.328H111.379ZM114.5 103.6L114.279 103.951C114.094 104.182 113.836 104.302 113.503 104.302H112.811L112.681 103.812H113.023C113.143 103.812 113.235 103.775 113.3 103.711L113.402 103.6H114.491H114.5ZM112.995 99.9432V99.3245H116.366V102.713H116.606V103.369H112.727V102.713H112.995V99.9432ZM115.452 100.239V99.9432H113.909V100.239H115.452ZM115.452 101.07V100.774H113.909V101.07H115.452ZM115.452 101.901V101.605H113.909V101.901H115.452ZM113.909 102.436V102.713H115.452V102.436H113.909ZM116.107 103.729C116.163 103.785 116.246 103.812 116.366 103.812H116.624V104.302H115.701C115.442 104.302 115.258 104.228 115.138 104.089L114.888 103.572H115.978L116.089 103.72L116.107 103.729Z" fill="#E50012"/>
<path d="M126.331 103.221H124.263V102.556H126.331V102.196H124.318V101.605L125.057 101.033H124.355V100.488H124.143V99.4352H126.331V99.2043H127.245V99.4352H129.415V100.506H129.222V101.023H126.22L125.5 101.568H127.892C128.049 101.568 128.104 101.513 128.03 101.411L127.901 101.19H128.815L129.018 101.578C129.24 101.984 129.102 102.187 128.594 102.187H127.236V102.547H129.295V103.212H127.236V103.572H129.452V104.274H124.078V103.572H126.322V103.212L126.331 103.221ZM128.501 100.423V100.109H125.057V100.423H128.501Z" fill="#E50012"/>
<path d="M133.36 100.959H131.956V104.302H131.061V100.257H133.212L133.138 99.9156H132.206V99.2969H133.886L134.08 100.257H136.01V103.794C136.01 104.136 135.825 104.302 135.474 104.302H134.856L134.773 103.84H134.523C134.182 103.84 133.969 103.711 133.877 103.452L133.545 101.846L133.129 103.443C133.046 103.692 132.861 103.822 132.556 103.822H132.196L132.067 103.12H132.187C132.298 103.12 132.363 103.074 132.39 102.972L132.787 101.412H133.452L133.36 100.959ZM134.92 103.6H134.976C135.068 103.6 135.114 103.554 135.114 103.471V100.959H134.228L134.662 103.046C134.699 103.111 134.754 103.148 134.828 103.148H134.92V103.609V103.6Z" fill="#E50012"/>
<path d="M139.979 99.4814V100.165H137.615V99.4814H138.391V99.2136H139.305V99.4814H139.988H139.979ZM137.698 103.6V102.104H139.905V103.794C139.905 104.135 139.721 104.302 139.37 104.302H137.698V103.6ZM139.868 100.359V101.014H137.698V100.359H139.868ZM139.868 101.208V101.864H137.698V101.208H139.868ZM138.917 103.6C139.01 103.6 139.056 103.554 139.056 103.471V102.806H138.548V103.6H138.917ZM140.182 102.058V101.402H142.86V102.104L142.057 103.194L142.352 103.535C142.417 103.6 142.5 103.637 142.592 103.637H142.971V104.339H142.158C141.9 104.339 141.697 104.219 141.54 103.978L141.521 103.951L141.475 104.025C141.318 104.219 141.097 104.32 140.819 104.32H140.192L140.072 103.618H140.376C140.589 103.618 140.755 103.563 140.856 103.443L140.986 103.267L140.247 102.344H141.337L141.503 102.538L141.826 102.076H140.201L140.182 102.058ZM140.349 100.294V99.2783H142.777V100.294C142.777 100.377 142.823 100.423 142.916 100.423H142.962V101.125H142.417C142.057 101.125 141.881 100.95 141.881 100.617V99.9801H141.244V100.617C141.244 100.959 141.06 101.125 140.709 101.125H140.201L140.081 100.423H140.219C140.312 100.423 140.358 100.377 140.358 100.294H140.349Z" fill="#E50012"/>
<path d="M146.894 99.4814V100.165H144.373V99.4814H145.213V99.2136H146.128V99.4814H146.894ZM146.802 100.359V101.014H144.456V100.359H146.802ZM146.802 101.208V101.864H144.456V101.208H146.802ZM144.465 103.6V102.104H146.802V103.794C146.802 104.135 146.617 104.302 146.266 104.302H144.465V103.6ZM145.795 103.6C145.887 103.6 145.934 103.554 145.934 103.471V102.806H145.333V103.6H145.795ZM147.042 101.374V100.673H147.947V99.2321H148.861V100.673H149.72V101.374H148.861V104.302H147.947V101.374H147.042Z" fill="#E50012"/>
<path d="M120.771 101.799C120.771 102.067 120.559 102.279 120.291 102.279C120.023 102.279 119.811 102.067 119.811 101.799C119.811 101.531 120.023 101.319 120.291 101.319C120.559 101.319 120.771 101.531 120.771 101.799Z" fill="#E50012"/>
</g>
</g>
<defs>
<filter id="filter0_d_225_18647" x="0.474609" y="0" width="238" height="160" filterUnits="userSpaceOnUse" color-interpolation-filters="sRGB">
<feFlood flood-opacity="0" result="BackgroundImageFix"/>
<feColorMatrix in="SourceAlpha" type="matrix" values="0 0 0 0 0 0 0 0 0 0 0 0 0 0 0 0 0 0 127 0" result="hardAlpha"/>
<feOffset dy="1"/>
<feGaussianBlur stdDeviation="10"/>
<feComposite in2="hardAlpha" operator="out"/>
<feColorMatrix type="matrix" values="0 0 0 0 0 0 0 0 0 0 0 0 0 0 0 0 0 0 0.08 0"/>
<feBlend mode="normal" in2="BackgroundImageFix" result="effect1_dropShadow_225_18647"/>
<feBlend mode="normal" in="SourceGraphic" in2="effect1_dropShadow_225_18647" result="shape"/>
</filter>
<clipPath id="clip0_225_18647">
<rect x="20.4746" y="19" width="198" height="120" rx="7.02062" fill="white"/>
</clipPath>
</defs>
</svg>
