<svg width="239" height="160" viewBox="0 0 239 160" fill="none" xmlns="http://www.w3.org/2000/svg">
<g filter="url(#filter0_d_226_20863)">
<g clip-path="url(#clip0_226_20863)">
<rect x="20.4736" y="19" width="198" height="120" rx="7.02062" fill="white"/>
<rect x="20.4736" y="19" width="198" height="120" fill="white"/>
<rect width="133.3" height="39.38" transform="translate(54 59)" fill="#040000"/>
<path d="M61.7695 66.4395H86.2795V90.9495H61.7695V70.2595V66.4395Z" fill="#0C6FB1"/>
<path d="M69.9096 83.9992L69.7096 84.1292C69.4896 84.2092 69.2696 84.2492 69.0496 84.2492C68.8296 84.2492 68.6396 84.2092 68.4596 84.1292C68.2796 84.0492 68.1296 83.9192 68.0196 83.7492C67.9296 83.5892 67.8896 83.4292 67.8896 83.2392C67.8896 83.0792 67.9296 82.9092 68.0096 82.7492C68.1196 82.5792 68.2496 82.4392 68.3896 82.3492C68.5396 82.2492 68.7096 82.2092 68.9296 82.2092C69.0796 82.2092 69.2296 82.2192 69.3696 82.2492C69.5096 82.2692 69.6296 82.3092 69.7196 82.3492C69.7796 82.3792 69.8296 82.4092 69.8696 82.4392C69.8996 82.4692 69.9096 82.5092 69.8896 82.5492L69.7996 82.7592C69.7496 82.5992 69.6496 82.4792 69.5096 82.3992C69.3696 82.3092 69.2096 82.2692 69.0296 82.2692C68.8796 82.2692 68.7396 82.3092 68.6096 82.3792C68.4696 82.4692 68.3696 82.5892 68.2996 82.7492C68.2296 82.8992 68.1896 83.0692 68.1896 83.2392C68.1896 83.3792 68.2096 83.5092 68.2496 83.6292C68.2896 83.7492 68.3596 83.8592 68.4496 83.9692C68.5296 84.0492 68.6296 84.1092 68.7296 84.1592C68.8296 84.1992 68.9396 84.2192 69.0596 84.2192C69.2196 84.2192 69.3696 84.1792 69.4996 84.0992C69.6396 84.0192 69.7396 83.9092 69.8096 83.7592H69.8296C69.8496 83.8192 69.8596 83.8692 69.8696 83.9092C69.8696 83.9492 69.8796 83.9892 69.8796 84.0292L69.9096 83.9992Z" fill="white"/>
<path d="M72.1199 83.78L71.9899 84.2H70.1699C70.2299 84.17 70.2799 84.12 70.3099 84.05C70.3399 83.98 70.3599 83.91 70.3599 83.83V82.46C70.3599 82.46 70.3599 82.43 70.3499 82.41C70.3499 82.39 70.3399 82.37 70.3299 82.35L70.2499 82.3V82.26H71.8999L71.9899 82.62H71.9699C71.8999 82.53 71.7999 82.45 71.6899 82.4C71.5799 82.35 71.4599 82.32 71.3399 82.32H70.6299V83.1H71.3799C71.4499 83.1 71.5099 83.08 71.5599 83.04C71.6099 83 71.6599 82.95 71.6899 82.88V83.41C71.6699 83.35 71.6199 83.29 71.5599 83.25C71.4899 83.21 71.4199 83.19 71.3499 83.19H70.6199V83.92C70.6199 83.92 70.6399 84 70.6799 84.04C70.7099 84.07 70.7499 84.09 70.7999 84.1H71.0099C71.2499 84.1 71.4299 84.09 71.5499 84.06C71.6699 84.03 71.7799 84 71.8799 83.95C71.9499 83.9 71.9999 83.85 72.0499 83.77H72.1099L72.1199 83.78Z" fill="white"/>
<path d="M74.2696 83.79L74.1396 84.2H72.3096C72.3896 84.18 72.4396 84.13 72.4796 84.06C72.5196 83.99 72.5396 83.91 72.5396 83.82V82.46C72.5396 82.4 72.5196 82.35 72.4896 82.33C72.4596 82.31 72.4296 82.29 72.4096 82.28L72.3896 82.26H72.9696V82.28C72.9196 82.3 72.8796 82.33 72.8496 82.36C72.8196 82.39 72.7996 82.43 72.7996 82.47V83.83C72.7996 83.88 72.7996 83.93 72.8196 83.98C72.8396 84.02 72.8596 84.05 72.8996 84.08C72.9396 84.1 72.9796 84.11 73.0296 84.11H73.5396C73.6696 84.1 73.7896 84.07 73.8896 84.04C73.9896 84.01 74.0796 83.96 74.1496 83.89L74.2396 83.8H74.2696V83.79Z" fill="white"/>
<path d="M76.3291 83.79L76.1991 84.2H74.3691C74.4391 84.18 74.4991 84.13 74.5391 84.06C74.5791 83.99 74.5991 83.91 74.5991 83.82V82.46C74.5991 82.4 74.5791 82.35 74.5491 82.33C74.5191 82.31 74.4891 82.29 74.4791 82.28L74.4591 82.26H75.0391V82.28C74.9891 82.3 74.9391 82.33 74.9091 82.36C74.8791 82.39 74.8591 82.43 74.8591 82.47V83.83C74.8591 83.88 74.8591 83.93 74.8791 83.98C74.8891 84.02 74.9191 84.05 74.9591 84.08C74.9991 84.1 75.0391 84.11 75.0791 84.11H75.5891C75.7191 84.1 75.8391 84.07 75.9391 84.04C76.0391 84.01 76.1291 83.96 76.2091 83.89L76.2991 83.8H76.3291V83.79Z" fill="white"/>
<path d="M77.1198 84.1805V84.2005H76.5098V84.1805C76.5598 84.1605 76.6098 84.1105 76.6498 84.0405C76.6798 83.9705 76.6998 83.8905 76.6998 83.8205V82.5105C76.6998 82.5105 76.6898 82.4305 76.6598 82.3805C76.6298 82.3305 76.6098 82.3005 76.5798 82.2805V82.2405H77.0698V82.2605C77.0698 82.2605 76.9998 82.3005 76.9798 82.3405C76.9598 82.3805 76.9498 82.4405 76.9498 82.5005V83.8105C76.9498 83.8905 76.9598 83.9705 76.9898 84.0405C77.0198 84.1105 77.0598 84.1505 77.1198 84.1705V84.1805Z" fill="white"/>
<path d="M69.9096 83.9992L69.7096 84.1292C69.4896 84.2092 69.2696 84.2492 69.0496 84.2492C68.8296 84.2492 68.6396 84.2092 68.4596 84.1292C68.2796 84.0492 68.1296 83.9192 68.0196 83.7492C67.9296 83.5892 67.8896 83.4292 67.8896 83.2392C67.8896 83.0792 67.9296 82.9092 68.0096 82.7492C68.1196 82.5792 68.2496 82.4392 68.3896 82.3492C68.5396 82.2492 68.7096 82.2092 68.9296 82.2092C69.0796 82.2092 69.2296 82.2192 69.3696 82.2492C69.5096 82.2692 69.6296 82.3092 69.7196 82.3492C69.7796 82.3792 69.8296 82.4092 69.8696 82.4392C69.8996 82.4692 69.9096 82.5092 69.8896 82.5492L69.7996 82.7592C69.7496 82.5992 69.6496 82.4792 69.5096 82.3992C69.3696 82.3092 69.2096 82.2692 69.0296 82.2692C68.8796 82.2692 68.7396 82.3092 68.6096 82.3792C68.4696 82.4692 68.3696 82.5892 68.2996 82.7492C68.2296 82.8992 68.1896 83.0692 68.1896 83.2392C68.1896 83.3792 68.2096 83.5092 68.2496 83.6292C68.2896 83.7492 68.3596 83.8592 68.4496 83.9692C68.5296 84.0492 68.6296 84.1092 68.7296 84.1592C68.8296 84.1992 68.9396 84.2192 69.0596 84.2192C69.2196 84.2192 69.3696 84.1792 69.4996 84.0992C69.6396 84.0192 69.7396 83.9092 69.8096 83.7592H69.8296C69.8496 83.8192 69.8596 83.8692 69.8696 83.9092C69.8696 83.9492 69.8796 83.9892 69.8796 84.0292L69.9096 83.9992Z" fill="white"/>
<path d="M72.1199 83.78L71.9899 84.2H70.1699C70.2299 84.17 70.2799 84.12 70.3099 84.05C70.3399 83.98 70.3599 83.91 70.3599 83.83V82.46C70.3599 82.46 70.3599 82.43 70.3499 82.41C70.3499 82.39 70.3399 82.37 70.3299 82.35L70.2499 82.3V82.26H71.8999L71.9899 82.62H71.9699C71.8999 82.53 71.7999 82.45 71.6899 82.4C71.5799 82.35 71.4599 82.32 71.3399 82.32H70.6299V83.1H71.3799C71.4499 83.1 71.5099 83.08 71.5599 83.04C71.6099 83 71.6599 82.95 71.6899 82.88V83.41C71.6699 83.35 71.6199 83.29 71.5599 83.25C71.4899 83.21 71.4199 83.19 71.3499 83.19H70.6199V83.92C70.6199 83.92 70.6399 84.01 70.6799 84.04C70.7099 84.07 70.7499 84.09 70.7999 84.1H71.0099C71.2499 84.1 71.4299 84.09 71.5499 84.06C71.6699 84.03 71.7799 84 71.8799 83.95C71.9499 83.9 71.9999 83.85 72.0499 83.77H72.1099L72.1199 83.78Z" fill="white"/>
<path d="M74.2696 83.79L74.1396 84.2H72.3096C72.3896 84.18 72.4396 84.13 72.4796 84.06C72.5196 83.99 72.5396 83.91 72.5396 83.82V82.46C72.5396 82.4 72.5196 82.35 72.4896 82.33C72.4596 82.31 72.4296 82.29 72.4096 82.28L72.3896 82.26H72.9696V82.28C72.9196 82.3 72.8796 82.33 72.8396 82.36C72.8096 82.39 72.7896 82.43 72.7896 82.47V83.83C72.7896 83.89 72.7896 83.95 72.8096 83.99C72.8096 84.02 72.8396 84.04 72.8596 84.06C72.9096 84.09 72.9596 84.11 73.0096 84.11H73.5196C73.6496 84.1 73.7696 84.07 73.8696 84.04C73.9696 84.01 74.0596 83.96 74.1296 83.89L74.2196 83.8H74.2496L74.2696 83.79Z" fill="white"/>
<path d="M72.0695 88.1395C71.3195 88.4895 70.5495 88.7195 69.6595 88.7195C66.5195 88.7195 63.9795 86.2695 63.9795 83.2495C63.9795 80.2295 66.5195 77.7795 69.6595 77.7795C70.5795 77.7795 71.5995 78.1595 72.1195 78.4295C72.1195 78.4295 72.7095 78.7595 72.9995 78.6695C73.1095 78.6395 73.2495 78.5095 73.3595 78.4195C73.5095 78.2995 73.6195 78.1295 73.6195 78.1295V80.4695C72.8195 79.7195 71.6595 79.2195 70.4295 79.2195C68.0095 79.2195 66.0495 81.0195 66.0495 83.2395C66.0495 85.4595 68.0095 87.2595 70.4295 87.2595C71.6695 87.2595 72.8195 86.7495 73.6195 85.9895V88.4495C73.6195 88.4495 73.2895 87.8995 73.0195 87.8695C72.9595 87.8695 72.6595 87.8695 72.5395 87.9095C72.2095 88.0695 72.0695 88.1295 72.0695 88.1295V88.1395Z" fill="white" stroke="white" stroke-width="1.46" stroke-miterlimit="3.86"/>
<path d="M76.3299 83.79L76.2099 84.2H74.3799C74.4499 84.18 74.5099 84.13 74.5499 84.06C74.5899 83.99 74.6099 83.91 74.6099 83.82V82.46C74.6099 82.4 74.5899 82.35 74.5599 82.33C74.5299 82.31 74.4999 82.29 74.4899 82.28L74.4699 82.26H75.0499V82.28C74.9999 82.3 74.9499 82.33 74.9199 82.36C74.8899 82.39 74.8699 82.43 74.8699 82.47V83.83C74.8699 83.88 74.8699 83.93 74.8899 83.98C74.8999 84.02 74.9299 84.05 74.9699 84.08C75.0099 84.1 75.0499 84.11 75.0899 84.11H75.5999C75.7299 84.1 75.8499 84.07 75.9499 84.04C76.0499 84.01 76.1399 83.96 76.2199 83.89L76.3099 83.8H76.3299V83.79Z" fill="white"/>
<path d="M77.1198 84.1805V84.2005H76.5098V84.1805C76.5598 84.1605 76.6098 84.1105 76.6498 84.0405C76.6798 83.9705 76.6998 83.8905 76.6998 83.8205V82.5105C76.6998 82.5105 76.6898 82.4305 76.6598 82.3805C76.6298 82.3305 76.6098 82.3005 76.5798 82.2805V82.2405H77.0698V82.2605C77.0698 82.2605 76.9998 82.3005 76.9798 82.3405C76.9598 82.3805 76.9498 82.4405 76.9498 82.5005V83.8105C76.9498 83.8905 76.9598 83.9705 76.9898 84.0405C77.0198 84.1105 77.0598 84.1505 77.1198 84.1705V84.1805Z" fill="white"/>
<path d="M79.5003 82.26V82.29C79.4203 82.31 79.3603 82.36 79.3303 82.45L79.2803 82.56V84.21L79.2503 84.25C78.9903 83.95 78.7403 83.66 78.4803 83.38C78.2303 83.1 77.9603 82.82 77.6803 82.54L77.6303 82.49V83.76C77.6303 83.83 77.6303 83.9 77.6603 83.96C77.6803 84.02 77.7103 84.08 77.7503 84.13L77.8503 84.19V84.21H77.2803C77.3503 84.18 77.4103 84.13 77.4603 84.07C77.5003 84 77.5303 83.93 77.5303 83.85V82.54C77.5303 82.48 77.5003 82.43 77.4803 82.39C77.4503 82.35 77.4103 82.32 77.3603 82.3V82.28H77.8403C78.2503 82.79 78.6903 83.28 79.1703 83.74H79.1903V82.59C79.1803 82.54 79.1603 82.49 79.1403 82.45C79.1203 82.41 79.1003 82.38 79.0603 82.34C79.0303 82.33 79.0003 82.31 78.9703 82.29L79.5003 82.28V82.26Z" fill="white"/>
<path d="M80.3395 84.1805V84.2005H79.7295V84.1805C79.7795 84.1605 79.8295 84.1105 79.8595 84.0405C79.8895 83.9705 79.9095 83.8905 79.9095 83.8205V82.5105C79.9095 82.5105 79.8995 82.4305 79.8695 82.3805C79.8395 82.3305 79.8195 82.3005 79.7895 82.2805V82.2405H80.2795V82.2605C80.2795 82.2605 80.1995 82.3005 80.1895 82.3405C80.1695 82.3805 80.1595 82.4405 80.1595 82.5005V83.8105C80.1595 83.8905 80.1695 83.9705 80.1995 84.0405C80.2295 84.1105 80.2695 84.1505 80.3295 84.1705L80.3395 84.1805Z" fill="white"/>
<path d="M75.8998 88.1395C76.6498 88.4895 77.4198 88.7195 78.3098 88.7195C81.4498 88.7195 83.9898 86.2695 83.9898 83.2495C83.9898 80.2295 81.4398 77.7795 78.3098 77.7795C77.3898 77.7795 76.3698 78.1595 75.8498 78.4295C75.8498 78.4295 75.2698 78.7595 74.9598 78.6695C74.8498 78.6395 74.7098 78.5095 74.5998 78.4295C74.4498 78.3095 74.3398 78.1395 74.3398 78.1395V80.4795C75.1398 79.7295 76.2998 79.2295 77.5298 79.2295C79.9498 79.2295 81.9098 81.0295 81.9098 83.2395C81.9098 85.4495 79.9498 87.2595 77.5298 87.2595C76.2898 87.2595 75.1398 86.7495 74.3398 85.9995V88.4595C74.3398 88.4595 74.6698 87.9095 74.9398 87.8795C74.9998 87.8795 75.2998 87.8795 75.4198 87.9195C75.7498 88.0795 75.8898 88.1495 75.8898 88.1495L75.8998 88.1395Z" fill="white" stroke="white" stroke-width="1.46" stroke-miterlimit="3.86"/>
<path d="M106.84 72.4509C106.77 72.5509 106.68 72.6609 106.57 72.7609C108.17 74.5709 110.37 75.8009 113.02 76.8409C112.84 77.0009 112.63 77.2409 112.54 77.4509C111.52 77.0209 110.59 76.5509 109.73 76.0609V76.6009H106.51V78.3809H112.15V79.0509H106.51V80.9409H110.76V85.7109H110.04V84.9309H102.32V85.7109H101.6V80.9409H105.79V79.0509H100.22V78.3809H105.79V76.6009H102.63V76.0609C101.72 76.6409 100.79 77.1709 99.8804 77.5609C99.7604 77.4009 99.5704 77.1609 99.4004 77.0209C101.93 75.9409 104.7 74.0409 106.24 72.1309L106.84 72.4409V72.4509ZM110.04 81.6209H102.32V84.2709H110.04V81.6209ZM109.53 75.9509C108.24 75.1909 107.14 74.2909 106.15 73.2309C105.22 74.1909 104.04 75.1509 102.81 75.9509H109.53Z" fill="white"/>
<path d="M132.98 84.6108V85.2808H119.75V84.6108H125.99V82.0208H120.75V81.3308H125.99V79.3208H121.25V72.8008H131.63V79.3208H126.74V81.3308H132.14V82.0208H126.74V84.6108H132.98ZM121.97 75.7208H126.03V73.4608H121.97V75.7208ZM121.97 78.6708H126.03V76.3708H121.97V78.6708ZM130.91 73.4608H126.71V75.7208H130.91V73.4608ZM130.91 76.3708H126.71V78.6708H130.91V76.3708Z" fill="white"/>
<path d="M147.27 76.6716C148.69 79.3516 151.18 82.1016 153.43 83.3916C153.25 83.5416 153.03 83.7916 152.89 83.9916C150.74 82.6616 148.42 80.0416 146.9 77.3916V85.7216H146.17V77.3716C144.7 80.1116 142.38 82.6816 140.15 84.0116C140.02 83.8216 139.79 83.5816 139.61 83.4316C141.97 82.1616 144.4 79.4016 145.8 76.6716H140.13V75.9716H146.16V72.1816H146.89V75.9716H152.98V76.6716H147.25H147.27Z" fill="white"/>
<path d="M168.111 78.9415V81.0015H172.051V85.6715H171.351V85.1315H164.331V85.7015H163.631V81.0015H167.421V78.9415H162.231C162.131 81.1715 161.751 83.7915 160.491 85.7215C160.371 85.5915 160.061 85.4215 159.881 85.3515C161.411 82.9915 161.541 79.7215 161.541 77.3315V73.0215H172.341V76.3615H168.121V78.2915H173.251V78.9515H168.121L168.111 78.9415ZM167.411 78.2815V76.3515H162.251V77.3215C162.251 77.6315 162.251 77.9315 162.241 78.2815H167.421H167.411ZM162.251 73.6715V75.6915H171.621V73.6715H162.251ZM171.351 81.6615H164.331V84.4715H171.351V81.6615Z" fill="white"/>
</g>
</g>
<defs>
<filter id="filter0_d_226_20863" x="0.473633" y="0" width="238" height="160" filterUnits="userSpaceOnUse" color-interpolation-filters="sRGB">
<feFlood flood-opacity="0" result="BackgroundImageFix"/>
<feColorMatrix in="SourceAlpha" type="matrix" values="0 0 0 0 0 0 0 0 0 0 0 0 0 0 0 0 0 0 127 0" result="hardAlpha"/>
<feOffset dy="1"/>
<feGaussianBlur stdDeviation="10"/>
<feComposite in2="hardAlpha" operator="out"/>
<feColorMatrix type="matrix" values="0 0 0 0 0 0 0 0 0 0 0 0 0 0 0 0 0 0 0.08 0"/>
<feBlend mode="normal" in2="BackgroundImageFix" result="effect1_dropShadow_226_20863"/>
<feBlend mode="normal" in="SourceGraphic" in2="effect1_dropShadow_226_20863" result="shape"/>
</filter>
<clipPath id="clip0_226_20863">
<rect x="20.4736" y="19" width="198" height="120" rx="7.02062" fill="white"/>
</clipPath>
</defs>
</svg>
