<svg width="239" height="160" viewBox="0 0 239 160" fill="none" xmlns="http://www.w3.org/2000/svg">
<g filter="url(#filter0_d_225_18652)">
<g clip-path="url(#clip0_225_18652)">
<g clip-path="url(#clip1_225_18652)">
<rect x="20.7109" y="19" width="198" height="198.333" fill="white"/>
<path d="M185.67 59H54V104.321H185.67V59Z" fill="#E7E2D8"/>
<path d="M58.0439 67.8277V93.508L78.1929 101.92V60.7358L58.0439 67.8277Z" fill="white"/>
<path d="M58.0439 67.8277V74.2455L78.1929 71.0412V60.7358L58.0439 67.8277Z" fill="#E09215"/>
<path d="M58.0439 75.5752V82.3254H78.1929V73.0266L58.0439 75.5752Z" fill="#E09215"/>
<path d="M58.0439 83.655V93.5079L78.1929 101.92V84.7631L58.0439 83.655Z" fill="#E09215"/>
<path d="M58.5977 69.8132C58.5977 69.3238 58.9947 68.9268 59.4841 68.9268C59.9736 68.9268 60.3706 69.3238 60.3706 69.8132C60.3706 70.3027 59.9736 70.6997 59.4841 70.6997C58.9947 70.6997 58.5977 70.3027 58.5977 69.8132Z" fill="white"/>
<path d="M58.5977 77.4312C58.5977 76.9417 58.9947 76.5447 59.4841 76.5447C59.9736 76.5447 60.3706 76.9417 60.3706 77.4312C60.3706 77.9206 59.9736 78.3176 59.4841 78.3176C58.9947 78.3176 58.5977 77.9206 58.5977 77.4312Z" fill="white"/>
<path d="M58.5977 85.3171C58.5977 84.8277 58.9947 84.4307 59.4841 84.4307C59.9736 84.4307 60.3706 84.8277 60.3706 85.3171C60.3706 85.8066 59.9736 86.2036 59.4841 86.2036C58.9947 86.2036 58.5977 85.8066 58.5977 85.3171Z" fill="white"/>
<path d="M78.1934 60.7358L99.2196 67.4953V93.6188L78.1934 101.92V60.7358Z" fill="white"/>
<path d="M78.1934 60.7358V101.92L87.3721 63.58L78.1934 60.7358Z" fill="#635E43"/>
<path d="M90.585 64.688C90.4742 65.0204 99.219 93.6187 99.219 93.6187V67.4952L90.585 64.688Z" fill="#635E43"/>
<path d="M89.5881 68.9358L86.3838 82.3254H92.2475L89.5881 68.9358Z" fill="#635E43"/>
<path d="M85.6089 87.7552L93.0239 86.2039L94.8985 95.2811L82.7832 100.702L85.6089 87.7552Z" fill="#635E43"/>
<path d="M104.51 73.8023H106.975C107.28 73.3406 107.548 72.8419 107.788 72.3063L108.453 72.5926C108.508 72.6203 108.536 72.648 108.536 72.6849C108.536 72.7311 108.49 72.768 108.407 72.8142C108.213 73.1651 108.01 73.4975 107.816 73.8023H111.63V74.421H110.069C109.783 75.0396 109.478 75.5383 109.146 75.8984C110.032 76.2031 110.872 76.5356 111.657 76.8865L111.057 77.5144C110.327 77.1173 109.515 76.748 108.61 76.3971C108.222 76.7018 107.788 76.9327 107.326 77.0804C106.837 77.2466 106.024 77.3851 104.889 77.4775C104.778 77.2559 104.621 77.0435 104.445 76.8403C105.581 76.7757 106.394 76.6741 106.883 76.5263C107.234 76.4248 107.548 76.2863 107.825 76.1293C107.373 75.9723 106.902 75.8246 106.421 75.686C106.338 75.7876 106.255 75.88 106.172 75.9631L105.452 75.6306C105.849 75.252 106.209 74.8365 106.541 74.4025H104.519V73.7838L104.51 73.8023ZM107.733 70.6811L108.434 70.7365C108.573 70.7365 108.638 70.7827 108.638 70.8473C108.638 70.8843 108.582 70.9397 108.471 71.0135V71.5214H111.417V73.1836H110.706V72.1401H105.396V73.1836H104.676V71.5214H107.723V70.6719L107.733 70.6811ZM108.434 75.6583C108.767 75.3259 109.053 74.9104 109.312 74.421H107.419C107.234 74.6795 107.049 74.9288 106.865 75.1597C107.419 75.3167 107.936 75.4829 108.444 75.6583H108.434Z" fill="#040000"/>
<path d="M113.976 70.7181L114.558 70.9859C114.631 71.0136 114.668 71.0413 114.668 71.0782C114.668 71.1521 114.604 71.2075 114.465 71.2444C114.197 71.6784 113.957 72.0201 113.736 72.2787C113.514 72.528 113.256 72.7958 112.942 73.1005L112.452 72.6296C112.803 72.3433 113.089 72.0478 113.329 71.7523C113.551 71.4753 113.773 71.1336 113.994 70.7273L113.976 70.7181ZM114.253 72.4079L114.844 72.6573V72.685V72.1863H116.774V71.817H114.687V71.226H116.774V70.6812L117.42 70.7366C117.549 70.7366 117.605 70.7735 117.605 70.8381C117.605 70.8751 117.559 70.9212 117.457 70.9951V71.226H119.646V71.817H117.457V72.1863H119.498V74.107H114.853V72.8604C114.853 72.8604 114.779 72.8974 114.733 72.9158C114.493 73.276 114.262 73.5715 114.05 73.8115V77.5052H113.394V74.4579C113.256 74.5872 113.108 74.7073 112.96 74.8365L112.471 74.3841C112.868 74.0793 113.209 73.7746 113.477 73.4699C113.736 73.1928 113.994 72.8419 114.253 72.4172V72.4079ZM114.816 75.2798L115.435 75.446C115.499 75.446 115.527 75.4829 115.527 75.5291C115.527 75.5753 115.481 75.6307 115.398 75.6953C115.241 76.314 115.047 76.8496 114.816 77.3021L114.188 77.0989C114.327 76.8681 114.447 76.6372 114.53 76.3786C114.659 76.0462 114.761 75.6768 114.816 75.2705V75.2798ZM114.872 74.4579H119.526V75.0305H114.872V74.4579ZM116.238 73.5437V72.7496H115.518V73.5437H116.238ZM117.633 76.8681C117.863 76.8681 118.039 76.8404 118.15 76.7849C118.279 76.7295 118.38 76.5726 118.454 76.3048L118.971 76.5356C118.787 76.1755 118.584 75.8615 118.371 75.5937L118.815 75.2428C119.128 75.5845 119.442 76.0185 119.738 76.5633L119.165 76.9327C119.119 76.8404 119.082 76.748 119.036 76.6464C118.916 76.9789 118.768 77.1912 118.621 77.2836C118.464 77.3852 118.279 77.4406 118.057 77.4406H116.543C116.257 77.4406 116.035 77.3575 115.878 77.1912C115.749 77.0343 115.684 76.8034 115.684 76.5079V75.3629L116.423 75.4645C116.506 75.4645 116.543 75.5106 116.543 75.5753C116.543 75.6307 116.497 75.6861 116.423 75.7507C116.349 75.7969 116.312 75.8708 116.312 75.9723V76.3509C116.312 76.5356 116.34 76.6741 116.395 76.7665C116.46 76.8496 116.598 76.8865 116.811 76.8865H117.623L117.633 76.8681ZM117.078 75.1505C117.439 75.4275 117.799 75.7784 118.15 76.194L117.614 76.5449C117.319 76.1386 117.005 75.7784 116.663 75.4829L117.088 75.1505H117.078ZM117.512 73.5437V72.7496H116.82V73.5437H117.512ZM118.851 73.5437V72.7496H118.103V73.5437H118.851Z" fill="#040000"/>
<path d="M123.958 70.6812L124.669 70.7366C124.789 70.7366 124.853 70.7827 124.853 70.8474C124.853 70.8843 124.807 70.9397 124.706 71.0136V71.1706H127.448V71.7893H124.807C124.807 71.7893 124.798 71.7985 124.779 71.8077V72.2325H126.645V73.1928H127.577V73.7838H126.645V74.7719H124.955C125.186 75.1413 125.435 75.4552 125.721 75.7138C126.118 75.4829 126.46 75.2428 126.737 75.0028L127.263 75.4737C127.263 75.4737 127.31 75.5568 127.31 75.5937C127.31 75.6399 127.226 75.6676 127.07 75.6676C126.802 75.8338 126.534 75.9816 126.248 76.1201C126.617 76.3879 127.079 76.6372 127.614 76.8496L126.922 77.3667C126.377 77.0897 125.915 76.7849 125.527 76.434C125.26 76.2124 125.01 75.9539 124.789 75.6491V76.5818C124.789 76.8865 124.706 77.1174 124.539 77.2651C124.401 77.4129 124.05 77.496 123.477 77.496L123.182 76.8034H123.754C123.958 76.8034 124.068 76.6834 124.078 76.4433V76.2494C123.561 76.5172 122.84 76.8496 121.935 77.2467C121.88 77.3205 121.824 77.3575 121.769 77.3575C121.723 77.3575 121.695 77.3205 121.695 77.2467L121.511 76.5726C122.388 76.3694 123.247 76.0647 124.087 75.6676V74.7904H122.268V74.2271H124.087V73.8023H121.677V73.8854C121.677 74.6241 121.631 75.289 121.52 75.8708C121.455 76.2955 121.317 76.8496 121.104 77.5052L120.421 77.182C120.633 76.628 120.763 76.1293 120.827 75.7045C120.938 75.0859 120.993 74.4764 120.993 73.8946V71.1983H123.995V70.6996L123.958 70.6812ZM124.059 72.2325V71.7985H121.649V73.1928H124.059V72.805H122.24V72.2325H124.059ZM122.175 74.8919C122.683 75.0951 123.108 75.3167 123.459 75.5476L123.034 75.9908C122.628 75.7507 122.194 75.5291 121.723 75.3352L122.185 74.9012L122.175 74.8919ZM124.779 72.805V73.1928H125.961V72.805H124.779ZM124.779 73.7931V74.2178H125.961V73.7931H124.779Z" fill="#040000"/>
<path d="M130.117 75.4181L130.717 75.6398C130.837 75.6582 130.893 75.6952 130.893 75.7598C130.893 75.8152 130.847 75.8521 130.764 75.8798C130.505 76.1938 130.256 76.4524 130.025 76.6463C129.757 76.8587 129.434 77.071 129.055 77.2834L128.455 76.831C128.908 76.5909 129.249 76.3693 129.489 76.1569C129.711 75.963 129.923 75.7136 130.126 75.4181H130.117ZM134.587 71.2997C134.467 71.2997 134.282 71.3182 134.042 71.3551C133.46 71.4382 132.814 71.5028 132.103 71.5398L132.223 71.5859C132.297 71.6229 132.333 71.6598 132.333 71.6875C132.333 71.7522 132.278 71.8076 132.167 71.8537L131.05 72.8695C131.345 73.0357 131.613 73.2019 131.862 73.3589C132.297 72.9249 132.666 72.4909 132.961 72.0661L133.691 72.3339C133.783 72.3709 133.839 72.4078 133.839 72.454C133.839 72.4909 133.774 72.5463 133.654 72.6202C133.137 73.165 132.472 73.7652 131.659 74.4024C132.453 74.3562 133.248 74.3008 134.023 74.2269C133.866 74.033 133.709 73.8483 133.562 73.6913L134.051 73.2943C134.55 73.7837 135.048 74.4116 135.556 75.1596L134.91 75.5751C134.753 75.2889 134.587 75.0303 134.42 74.781C133.876 74.8271 133.211 74.8918 132.398 74.9657V77.4958H131.687V75.0303C130.893 75.0857 130.006 75.1503 129.018 75.2335C128.972 75.3166 128.917 75.3627 128.852 75.3627C128.797 75.3627 128.769 75.3258 128.76 75.2612L128.584 74.5409C129.277 74.5132 129.96 74.4855 130.634 74.4393C130.911 74.2269 131.151 74.0145 131.373 73.8299C130.736 73.4328 130.071 73.0819 129.369 72.7772L129.877 72.2877C130.09 72.3893 130.293 72.4817 130.477 72.574L131.41 71.5767C130.727 71.6044 129.979 71.6136 129.175 71.6136L128.714 71.0504C129.083 71.0504 129.369 71.0596 129.591 71.0596C131.355 71.0596 132.952 70.9396 134.402 70.6995L134.947 71.2258C134.947 71.2258 134.993 71.2904 134.993 71.3459C134.993 71.3736 134.974 71.392 134.937 71.392C134.873 71.392 134.817 71.3736 134.771 71.3459C134.688 71.3274 134.633 71.3182 134.605 71.3182L134.587 71.2997ZM133.672 75.4181C134.153 75.9814 134.808 76.4524 135.63 76.8402L134.937 77.3111C134.236 76.8864 133.617 76.3785 133.1 75.769L133.672 75.4181Z" fill="#040000"/>
<path d="M136.858 75.095L137.477 75.2705C137.541 75.2705 137.578 75.2982 137.578 75.3536C137.578 75.3998 137.532 75.4552 137.431 75.5291C137.329 76.1016 137.191 76.591 137.015 77.0158L136.378 76.8126C136.48 76.6095 136.563 76.3878 136.646 76.157C136.738 75.8338 136.803 75.4829 136.858 75.1043V75.095ZM137.818 70.6811L138.363 70.9304C138.437 70.9674 138.474 71.0043 138.474 71.032C138.474 71.0966 138.428 71.1521 138.336 71.189L137.625 72.1124C137.818 72.214 138.012 72.334 138.188 72.4541L138.723 71.7523L139.241 72.0755C139.296 72.1032 139.324 72.1493 139.324 72.1955C139.324 72.2417 139.268 72.2786 139.157 72.2879L137.837 73.8669C138.188 73.8392 138.511 73.8023 138.816 73.7653C138.76 73.6268 138.714 73.4975 138.659 73.3867L139.305 73.2482C139.536 73.7284 139.693 74.1901 139.776 74.6333L139.13 74.7534C139.084 74.5779 139.047 74.421 139 74.2824C138.816 74.3101 138.603 74.3378 138.373 74.3748V77.4867H137.708V74.4487C137.44 74.4856 137.144 74.5225 136.821 74.5779C136.775 74.6518 136.729 74.6795 136.692 74.6795C136.646 74.6795 136.618 74.6518 136.618 74.5872L136.452 73.9869C136.673 73.9777 136.877 73.9592 137.08 73.95L137.809 72.9619C137.32 72.648 136.858 72.371 136.452 72.1401L136.84 71.6599C136.932 71.7153 137.015 71.7615 137.08 71.7984L137.828 70.6811H137.818ZM139.241 75.095C139.453 75.6122 139.61 76.12 139.693 76.6002L139.037 76.7203C138.917 76.1847 138.77 75.6953 138.603 75.2336L139.241 75.095ZM140.367 74.2732L141.143 74.3563C141.235 74.3748 141.281 74.3933 141.281 74.4302C141.281 74.4856 141.217 74.5595 141.078 74.661C141.078 75.4921 141.032 76.0462 140.94 76.3324C140.857 76.591 140.736 76.8034 140.57 76.9696C140.376 77.1727 140.099 77.3482 139.748 77.5052L139.241 76.9511C139.564 76.8311 139.822 76.7018 139.988 76.5633C140.173 76.3971 140.293 76.2032 140.358 75.9815C140.423 75.7414 140.459 75.3444 140.459 74.8088C140.459 74.698 140.432 74.5318 140.386 74.2917L140.367 74.2732ZM141.078 70.6811L141.761 70.7365C141.891 70.7365 141.955 70.7827 141.955 70.8381C141.955 70.875 141.9 70.9304 141.798 71.0043V71.4291H143.636V71.9554H141.761L140.977 73.3406C141.466 73.2944 141.955 73.239 142.426 73.1836C142.325 73.0266 142.205 72.8604 142.066 72.6942L142.583 72.371C143.082 72.9897 143.433 73.5252 143.636 73.9685L143.017 74.227C142.953 74.0608 142.86 73.8854 142.75 73.6915C142.122 73.7838 141.217 73.8946 140.035 74.0424C139.988 74.1162 139.942 74.1532 139.896 74.1532C139.841 74.1532 139.813 74.1255 139.804 74.0608L139.647 73.4237C139.841 73.4237 140.016 73.4052 140.192 73.3867L141.041 71.9462H139.388V71.4198H141.087V70.6719L141.078 70.6811ZM142.703 76.7849C142.796 76.7849 142.86 76.7664 142.916 76.7295C142.98 76.6741 143.036 76.4894 143.091 76.1662L143.719 76.4063C143.654 76.8772 143.534 77.1635 143.377 77.2466C143.248 77.3297 143.027 77.3759 142.694 77.3759C142.306 77.3759 142.057 77.3297 141.946 77.2281C141.826 77.1266 141.771 76.9696 141.771 76.748V74.2732L142.389 74.3378C142.5 74.3378 142.556 74.3563 142.556 74.4025C142.556 74.4487 142.519 74.5041 142.436 74.5872V76.5356C142.436 76.7018 142.528 76.7757 142.722 76.7757L142.703 76.7849Z" fill="#040000"/>
<path d="M152.482 72.0292H153.387V70.5979L154.033 70.6441C154.153 70.6441 154.218 70.681 154.218 70.7364C154.218 70.7826 154.172 70.8288 154.07 70.9026V72.02H154.753V72.6387H154.098C154.338 73.3497 154.615 73.9407 154.947 74.3932V70.7826H159.629V71.3366H157.976V71.6137H159.214V72.7218H157.976V72.9341H159.537V73.3866H155.778V72.9341H157.339V72.7218H156.074V71.6137H157.339V71.3366H155.631V76.7479H156.249L155.889 76.4154C156.286 76.2954 156.628 76.1199 156.914 75.8983H156.148V73.5528H159.214V75.8983H158.493C158.78 76.1015 159.13 76.2585 159.518 76.3785L159.13 76.7479H159.638V77.3112H155.64V77.542H154.957V74.467L154.467 74.9657C154.329 74.6702 154.199 74.3654 154.079 74.0515V77.4866H153.396V74.3285C153.248 74.7625 153.101 75.1688 152.934 75.5382L152.251 75.0857C152.519 74.6979 152.75 74.2916 152.944 73.8391C153.054 73.5713 153.202 73.1742 153.368 72.6387H152.491V72.02L152.482 72.0292ZM158.881 76.7571C158.567 76.5817 158.299 76.3785 158.069 76.1476L158.327 75.9076H157.108L157.441 76.1476C157.441 76.1476 157.496 76.203 157.496 76.2308C157.496 76.2585 157.441 76.2769 157.339 76.2862C157.071 76.4893 156.822 76.6463 156.573 76.7571H158.872H158.881ZM157.357 72.3062V72.0477H156.683V72.3062H157.357ZM156.803 74.2546H158.558V74.0146H156.803V74.2546ZM156.803 74.8364H158.558V74.6332H156.803V74.8364ZM158.567 75.4551V75.2242H156.813V75.4551H158.567ZM158.623 72.3062V72.0477H157.985V72.3062H158.623Z" fill="#040000"/>
<path d="M108.841 84.4122H108.25L107.724 83.0547H105.646L105.157 84.4122H104.557L106.431 79.6196H106.976L108.851 84.4122H108.841ZM107.539 82.5653L106.764 80.4969C106.745 80.4415 106.717 80.3307 106.69 80.1829H106.671C106.644 80.3214 106.625 80.423 106.588 80.4969L105.822 82.5653H107.53H107.539Z" fill="#F4AA37"/>
<path d="M112.342 84.4123H111.815V82.4547C111.815 81.7159 111.538 81.3466 110.993 81.3466C110.707 81.3466 110.476 81.4574 110.292 81.6605C110.107 81.8729 110.015 82.1407 110.015 82.4547V84.4031H109.488V80.9864H110.015V81.5589H110.033C110.292 81.1249 110.67 80.9033 111.169 80.9033C111.548 80.9033 111.843 81.0234 112.046 81.2635C112.249 81.5035 112.351 81.8544 112.351 82.3161V84.4031L112.342 84.4123Z" fill="#F4AA37"/>
<path d="M113.2 84.126C113.2 84.0244 113.237 83.9413 113.311 83.8674C113.385 83.7935 113.468 83.7566 113.56 83.7566C113.653 83.7566 113.745 83.7935 113.819 83.8674C113.893 83.9413 113.93 84.0244 113.93 84.126C113.93 84.2275 113.893 84.3106 113.819 84.3845C113.745 84.4584 113.662 84.4953 113.56 84.4953C113.459 84.4953 113.376 84.4584 113.311 84.3938C113.237 84.3199 113.2 84.2368 113.2 84.1352V84.126Z" fill="#F4AA37"/>
<path d="M117.216 84.2552C116.949 84.4122 116.635 84.4953 116.275 84.4953C115.785 84.4953 115.388 84.3383 115.083 84.0243C114.779 83.7104 114.631 83.2948 114.631 82.7869C114.631 82.2237 114.797 81.7619 115.12 81.4295C115.443 81.0878 115.877 80.9216 116.422 80.9216C116.718 80.9216 116.986 80.977 117.216 81.0878V81.6327C116.958 81.4572 116.681 81.3649 116.385 81.3649C116.025 81.3649 115.739 81.4941 115.508 81.7435C115.277 81.9928 115.166 82.3345 115.166 82.75C115.166 83.1655 115.268 83.4795 115.49 83.7104C115.711 83.9412 115.998 84.0613 116.358 84.0613C116.662 84.0613 116.949 83.9597 117.216 83.7658V84.2644V84.2552Z" fill="#F4AA37"/>
<path d="M117.835 82.7409C117.835 82.1684 117.992 81.7252 118.306 81.3927C118.62 81.0695 119.045 80.9033 119.589 80.9033C120.097 80.9033 120.494 81.0603 120.79 81.3743C121.076 81.6882 121.224 82.1222 121.224 82.6855C121.224 83.2488 121.067 83.6643 120.753 83.9968C120.439 84.32 120.023 84.4862 119.506 84.4862C118.989 84.4862 118.601 84.3292 118.297 84.006C117.992 83.692 117.835 83.2673 117.835 82.7317V82.7409ZM118.361 82.7225C118.361 83.1288 118.472 83.452 118.685 83.692C118.897 83.9321 119.183 84.0522 119.543 84.0522C119.903 84.0522 120.19 83.9321 120.384 83.7013C120.578 83.4612 120.679 83.138 120.679 82.7132C120.679 82.2884 120.578 81.9375 120.384 81.7067C120.18 81.4666 119.903 81.3558 119.534 81.3558C119.165 81.3558 118.888 81.4758 118.675 81.7252C118.463 81.9653 118.352 82.3069 118.352 82.7317L118.361 82.7225Z" fill="#F4AA37"/>
<path d="M127.005 84.4122H126.479V82.4453C126.479 82.0482 126.423 81.7619 126.294 81.5957C126.174 81.4295 125.971 81.3464 125.685 81.3464C125.444 81.3464 125.241 81.4572 125.075 81.6788C124.909 81.9005 124.816 82.159 124.816 82.4545V84.4122H124.299V82.3806C124.299 81.6973 124.032 81.3556 123.496 81.3556C123.247 81.3556 123.044 81.4572 122.887 81.6696C122.73 81.8727 122.646 82.1405 122.646 82.4637V84.4214H122.12V81.0047H122.646V81.5496H122.665C122.905 81.134 123.265 80.9309 123.736 80.9309C123.958 80.9309 124.17 80.9955 124.346 81.1248C124.521 81.2541 124.65 81.4295 124.715 81.6419C124.973 81.1617 125.361 80.9216 125.869 80.9216C126.636 80.9216 127.014 81.3833 127.014 82.316V84.4214L127.005 84.4122Z" fill="#F4AA37"/>
<path d="M129.518 83.581C129.656 83.701 129.85 83.8026 130.109 83.8857C130.367 83.9688 130.598 84.0058 130.82 84.0058C131.531 84.0058 131.882 83.7472 131.882 83.2393C131.882 83.1008 131.845 82.9715 131.771 82.8607C131.697 82.7499 131.595 82.6483 131.475 82.5745C131.346 82.4914 131.106 82.3621 130.736 82.1774C130.21 81.9096 129.878 81.6787 129.739 81.4848C129.601 81.2817 129.527 81.0601 129.527 80.8107C129.527 80.4229 129.684 80.1182 130.007 79.8873C130.33 79.6565 130.727 79.5457 131.207 79.5457C131.688 79.5457 132.039 79.6011 132.242 79.7119V80.3213C131.955 80.1274 131.595 80.0351 131.143 80.0351C130.838 80.0351 130.589 80.0997 130.395 80.229C130.201 80.3583 130.099 80.5429 130.099 80.7738C130.099 80.9215 130.136 81.0416 130.201 81.1524C130.275 81.2632 130.358 81.3556 130.478 81.4294C130.598 81.5125 130.82 81.6326 131.161 81.7988C131.641 82.0297 131.974 82.2605 132.159 82.4821C132.352 82.7037 132.445 82.9531 132.445 83.2301C132.445 83.6364 132.297 83.9504 131.992 84.1812C131.697 84.4028 131.272 84.5136 130.727 84.5136C130.561 84.5136 130.349 84.4859 130.081 84.4305C129.813 84.3751 129.628 84.3105 129.527 84.2366V83.5995L129.518 83.581Z" fill="#8B8366"/>
<path d="M135.908 80.9863L134.301 84.9755C134.024 85.6773 133.627 86.0189 133.119 86.0189C132.99 86.0189 132.879 86.0097 132.777 85.982V85.511C132.897 85.548 132.999 85.5664 133.101 85.5664C133.378 85.5664 133.59 85.4002 133.738 85.0678L134.024 84.4029L132.676 80.9863H133.258L134.218 83.655C134.218 83.655 134.255 83.775 134.292 83.8951H134.31C134.31 83.8951 134.338 83.775 134.375 83.655L135.381 80.9771H135.926L135.908 80.9863Z" fill="#8B8366"/>
<path d="M136.295 83.7195C136.6 83.9412 136.932 84.052 137.292 84.052C137.791 84.052 138.031 83.8858 138.031 83.5626C138.031 83.4148 137.976 83.2948 137.874 83.2117C137.763 83.1193 137.551 83.0177 137.237 82.8977C136.858 82.75 136.609 82.6022 136.489 82.4545C136.369 82.3067 136.304 82.122 136.304 81.9004C136.304 81.6049 136.433 81.3741 136.683 81.1894C136.932 81.0047 137.246 80.9124 137.615 80.9124C137.911 80.9124 138.179 80.9678 138.41 81.0693V81.6049C138.16 81.4387 137.865 81.3556 137.532 81.3556C137.329 81.3556 137.163 81.4018 137.034 81.4941C136.904 81.5865 136.84 81.7065 136.84 81.8542C136.84 82.002 136.886 82.122 136.969 82.1959C137.061 82.2698 137.255 82.3714 137.569 82.5006C137.966 82.6484 138.234 82.7961 138.363 82.9531C138.502 83.1009 138.567 83.2948 138.567 83.5072C138.567 83.8119 138.437 84.052 138.188 84.2274C137.939 84.4029 137.606 84.486 137.209 84.486C136.849 84.486 136.544 84.4121 136.295 84.2828V83.7103V83.7195Z" fill="#8B8366"/>
<path d="M141.013 84.3754C140.883 84.4493 140.717 84.4863 140.505 84.4863C139.905 84.4863 139.609 84.1538 139.609 83.489V81.4297H139.009V80.9865H139.609V80.1462L140.126 79.98V80.9865H141.003V81.4297H140.126V83.3966C140.126 83.6275 140.163 83.7937 140.246 83.8953C140.329 83.9968 140.459 84.043 140.643 84.043C140.791 84.043 140.911 84.0061 141.003 83.923V84.3662L141.013 84.3754Z" fill="#8B8366"/>
<path d="M144.477 82.824H142.02C142.03 83.2211 142.14 83.5258 142.334 83.729C142.538 83.9414 142.805 84.0429 143.156 84.0429C143.544 84.0429 143.904 83.9137 144.237 83.6551V84.1537C143.932 84.3754 143.535 84.4862 143.036 84.4862C142.538 84.4862 142.177 84.3292 141.891 84.0152C141.614 83.7013 141.476 83.2673 141.476 82.704C141.476 82.1869 141.633 81.7529 141.928 81.4112C142.233 81.0695 142.611 80.9033 143.064 80.9033C143.516 80.9033 143.858 81.0511 144.107 81.3373C144.357 81.6236 144.486 82.0299 144.486 82.547V82.824H144.477ZM143.941 82.3716C143.941 82.0484 143.858 81.799 143.701 81.6236C143.544 81.4481 143.332 81.3558 143.055 81.3558C142.805 81.3558 142.584 81.4481 142.39 81.6236C142.196 81.799 142.076 82.0484 142.03 82.3716H143.941Z" fill="#8B8366"/>
<path d="M150.22 84.4122H149.693V82.4453C149.693 82.0482 149.629 81.7619 149.509 81.5957C149.389 81.4295 149.186 81.3464 148.899 81.3464C148.659 81.3464 148.456 81.4572 148.29 81.6788C148.124 81.9005 148.031 82.159 148.031 82.4545V84.4122H147.514V82.3806C147.514 81.6973 147.246 81.3556 146.711 81.3556C146.462 81.3556 146.258 81.4572 146.101 81.6696C145.944 81.8727 145.861 82.1405 145.861 82.4637V84.4214H145.335V81.0047H145.861V81.5496H145.88C146.12 81.134 146.48 80.9309 146.951 80.9309C147.182 80.9309 147.385 80.9955 147.56 81.1248C147.745 81.2541 147.865 81.4295 147.93 81.6419C148.188 81.1617 148.567 80.9216 149.084 80.9216C149.85 80.9216 150.229 81.3833 150.229 82.316V84.4214L150.22 84.4122Z" fill="#8B8366"/>
<path d="M155.401 80.0998H153.49V81.7897H155.253V82.2698H153.49V84.4122H152.954V79.6196H155.392V80.0998H155.401Z" fill="#8B8366"/>
<path d="M159.02 84.412H158.503V83.8672H158.494C158.263 84.2827 157.912 84.4858 157.423 84.4858C156.592 84.4858 156.186 83.9964 156.186 83.0268V80.9861H156.703V82.9437C156.703 83.6825 156.989 84.0518 157.552 84.0518C157.829 84.0518 158.06 83.9503 158.236 83.7471C158.411 83.544 158.503 83.2762 158.503 82.9622V80.9953H159.02V84.412Z" fill="#8B8366"/>
<path d="M161.938 81.5217C161.846 81.4478 161.698 81.4109 161.523 81.4109C161.283 81.4109 161.08 81.5309 160.923 81.7525C160.766 81.9834 160.683 82.2881 160.683 82.6575V84.412H160.156V80.9953H160.683V81.7064H160.701C160.784 81.4663 160.904 81.2724 161.061 81.1431C161.227 81.0046 161.403 80.9399 161.597 80.9399C161.745 80.9399 161.855 80.9584 161.938 80.9861V81.5309V81.5217Z" fill="#8B8366"/>
<path d="M165.382 84.4123H164.856V82.4547C164.856 81.7159 164.579 81.3466 164.034 81.3466C163.748 81.3466 163.517 81.4574 163.332 81.6605C163.148 81.8729 163.055 82.1407 163.055 82.4547V84.4031H162.538V80.9864H163.055V81.5589H163.074C163.332 81.1249 163.711 80.9033 164.209 80.9033C164.588 80.9033 164.874 81.0234 165.077 81.2635C165.271 81.5035 165.373 81.8544 165.373 82.3161V84.4031L165.382 84.4123Z" fill="#8B8366"/>
<path d="M166.371 79.7584C166.371 79.6568 166.408 79.5737 166.473 79.509C166.537 79.4444 166.62 79.4075 166.713 79.4075C166.814 79.4075 166.897 79.4444 166.962 79.509C167.027 79.5737 167.064 79.6568 167.064 79.7584C167.064 79.8507 167.027 79.9246 166.962 79.9985C166.897 80.0631 166.814 80.1 166.713 80.1C166.611 80.1 166.537 80.0631 166.473 79.9985C166.408 79.9338 166.38 79.8507 166.38 79.7584H166.371ZM166.445 84.4124V80.9958H166.962V84.4124H166.445Z" fill="#8B8366"/>
<path d="M169.676 84.3754C169.547 84.4493 169.381 84.4863 169.178 84.4863C168.577 84.4863 168.282 84.1538 168.282 83.489V81.4297H167.682V80.9865H168.282V80.1462L168.799 79.98V80.9865H169.676V81.4297H168.799V83.3966C168.799 83.6275 168.836 83.7937 168.919 83.8953C168.993 83.9968 169.131 84.043 169.316 84.043C169.464 84.043 169.584 84.0061 169.676 83.923V84.3662V84.3754Z" fill="#8B8366"/>
<path d="M173.204 84.412H172.678V83.8672H172.668C172.438 84.2827 172.087 84.4858 171.597 84.4858C170.766 84.4858 170.351 83.9964 170.351 83.0268V80.9861H170.868V82.9437C170.868 83.6825 171.154 84.0518 171.717 84.0518C171.994 84.0518 172.225 83.9503 172.401 83.7471C172.576 83.544 172.668 83.2762 172.668 82.9622V80.9953H173.195V84.412H173.204Z" fill="#8B8366"/>
<path d="M176.122 81.5217C176.02 81.4478 175.882 81.4109 175.706 81.4109C175.466 81.4109 175.263 81.5309 175.106 81.7525C174.949 81.9834 174.866 82.2881 174.866 82.6575V84.412H174.349V80.9953H174.866V81.7064H174.884C174.967 81.4663 175.087 81.2724 175.244 81.1431C175.411 81.0046 175.586 80.9399 175.78 80.9399C175.928 80.9399 176.038 80.9584 176.122 80.9861V81.5309V81.5217Z" fill="#8B8366"/>
<path d="M179.4 82.824H176.943C176.952 83.2211 177.063 83.5258 177.257 83.729C177.46 83.9414 177.728 84.0429 178.079 84.0429C178.467 84.0429 178.836 83.9137 179.159 83.6551V84.1537C178.855 84.3754 178.458 84.4862 177.959 84.4862C177.46 84.4862 177.091 84.3292 176.814 84.0152C176.537 83.7013 176.398 83.2673 176.398 82.704C176.398 82.1869 176.546 81.7529 176.851 81.4112C177.156 81.0695 177.534 80.9033 177.987 80.9033C178.439 80.9033 178.781 81.0511 179.03 81.3373C179.28 81.6236 179.4 82.0299 179.4 82.547V82.824ZM178.864 82.3716C178.864 82.0484 178.781 81.799 178.624 81.6236C178.467 81.4481 178.255 81.3558 177.977 81.3558C177.728 81.3558 177.497 81.4481 177.313 81.6236C177.119 81.799 176.999 82.0484 176.952 82.3716H178.864Z" fill="#8B8366"/>
<path d="M147.624 73.054V72.6569H148.455V73.1094H147.698V73.6357H149.674V73.1094H148.917V72.6569H149.766V72.0936H148.917V71.8997C148.972 71.8351 149.009 71.7797 149.009 71.7427C149.009 71.6873 148.972 71.6504 148.898 71.6319L148.464 71.5858V72.0936H147.633V71.4657H151.585V70.7824H149.545V70.5054C149.609 70.4222 149.646 70.3668 149.646 70.3207C149.646 70.2468 149.6 70.2099 149.508 70.2006L149.009 70.136V70.7731H146.996V73.4234C146.996 73.5249 146.996 73.6357 146.996 73.7373C146.996 73.8943 146.978 74.042 146.968 74.199C146.673 73.8574 146.423 73.4049 146.23 72.8416H146.793V72.2229H146.119V70.9394C146.211 70.8747 146.257 70.8285 146.257 70.7916C146.257 70.727 146.193 70.6993 146.073 70.69L145.454 70.6439V72.2229H144.669V72.8416H145.278C145.121 73.4234 144.992 73.8481 144.891 74.1252C144.743 74.5315 144.567 74.9193 144.364 75.2702L145.02 75.695C145.168 75.2979 145.288 74.8639 145.389 74.3837C145.408 74.2914 145.435 74.1806 145.454 74.0605V77.4587H146.11V73.922C146.248 74.236 146.387 74.5222 146.544 74.7993L146.941 74.3929C146.922 74.6884 146.885 74.9932 146.83 75.3164C146.756 75.8519 146.608 76.4706 146.396 77.1724L147.024 77.4679C147.024 77.4679 147.024 77.4402 147.033 77.4218L147.061 77.4402C147.098 77.2555 147.135 77.0801 147.162 76.9139C147.301 76.3414 147.402 75.8519 147.448 75.4456C147.559 74.7346 147.615 73.922 147.615 73.0263L147.624 73.054Z" fill="#040000"/>
<path d="M147.994 76.5538L148.465 76.3968C148.391 76.1567 148.262 75.8797 148.059 75.5842L147.671 75.7504C147.846 76.0552 147.957 76.323 147.994 76.5538Z" fill="#040000"/>
<path d="M149.647 73.9314H147.717V75.4735H149.647V73.9314ZM149.204 74.9656H148.151V74.4485H149.204V74.9656Z" fill="#040000"/>
<path d="M150.635 75.5751C150.57 75.1318 150.45 74.6424 150.256 74.1345L149.85 74.2915C150.016 74.8548 150.117 75.3442 150.154 75.7597L150.635 75.5843V75.5751Z" fill="#040000"/>
<path d="M151.254 73.0541V72.0199C151.337 71.946 151.383 71.8721 151.383 71.8167C151.383 71.7613 151.355 71.7336 151.29 71.7244L150.764 71.6228V73.0541H149.822V73.7097H150.764V76.2491C150.764 76.4892 150.672 76.6093 150.515 76.6093H150.062L150.256 77.3295C150.681 77.3295 150.949 77.2557 151.05 77.0987C151.18 76.9417 151.244 76.7108 151.244 76.4061V73.719H151.706V73.0633H151.244L151.254 73.0541Z" fill="#040000"/>
<path d="M149.545 76.0459C149.609 76.009 149.637 75.9536 149.637 75.8889C149.637 75.8612 149.609 75.8335 149.563 75.7966L149.203 75.5288L148.852 76.5169C148.427 76.5723 147.975 76.6092 147.522 76.6369L147.643 77.3202C147.643 77.3849 147.67 77.4218 147.707 77.4218C147.735 77.4218 147.772 77.3756 147.799 77.2925C148.723 77.154 149.388 77.0432 149.822 76.9601V76.4061C149.674 76.4245 149.526 76.443 149.369 76.4707L149.545 76.0459Z" fill="#040000"/>
<path d="M180.666 86.2866H103.486V86.4805H180.666V86.2866Z" fill="#C5C4C0"/>
</g>
</g>
</g>
<defs>
<filter id="filter0_d_225_18652" x="0.710938" y="0" width="238" height="160" filterUnits="userSpaceOnUse" color-interpolation-filters="sRGB">
<feFlood flood-opacity="0" result="BackgroundImageFix"/>
<feColorMatrix in="SourceAlpha" type="matrix" values="0 0 0 0 0 0 0 0 0 0 0 0 0 0 0 0 0 0 127 0" result="hardAlpha"/>
<feOffset dy="1"/>
<feGaussianBlur stdDeviation="10"/>
<feComposite in2="hardAlpha" operator="out"/>
<feColorMatrix type="matrix" values="0 0 0 0 0 0 0 0 0 0 0 0 0 0 0 0 0 0 0.08 0"/>
<feBlend mode="normal" in2="BackgroundImageFix" result="effect1_dropShadow_225_18652"/>
<feBlend mode="normal" in="SourceGraphic" in2="effect1_dropShadow_225_18652" result="shape"/>
</filter>
<clipPath id="clip0_225_18652">
<rect x="20.7109" y="19" width="198" height="120" rx="7.02062" fill="white"/>
</clipPath>
<clipPath id="clip1_225_18652">
<rect x="20.7109" y="19" width="198" height="120" rx="7.02062" fill="white"/>
</clipPath>
</defs>
</svg>
