<svg width="240" height="160" viewBox="0 0 240 160" fill="none" xmlns="http://www.w3.org/2000/svg">
<g filter="url(#filter0_d_226_21087)">
<g clip-path="url(#clip0_226_21087)">
<rect x="20.4746" y="19" width="199" height="120" rx="7.02062" fill="white"/>
<rect x="20.4746" y="19" width="199" height="120" fill="white"/>
<g clip-path="url(#clip1_226_21087)">
<path d="M188.14 102.66V56L55.0096 56V102.66H188.14Z" fill="#040000"/>
<path fill-rule="evenodd" clip-rule="evenodd" d="M74.2991 63.2601H87.1891C87.5191 63.2601 87.7991 63.3701 88.0291 63.6001L91.5791 67.0501C91.8091 67.2701 91.9291 67.5401 91.9291 67.8601V91.1601C91.9291 91.4801 91.8091 91.7501 91.5791 91.9701L88.0291 95.4201C87.7991 95.6401 87.5191 95.7601 87.1891 95.7601H74.2991C73.9691 95.7601 73.6891 95.6501 73.4591 95.4201L69.9091 91.9701C69.6791 91.7501 69.5591 91.4801 69.5591 91.1601V67.8501C69.5591 67.5301 69.6791 67.2601 69.9091 67.0401L73.4591 63.5901C73.6891 63.3701 73.9691 63.2501 74.2991 63.2501M73.9591 62.5701H87.5491C87.8591 62.5701 88.1291 62.6801 88.3491 62.9001L92.1391 66.6201C92.3591 66.8401 92.4691 67.1001 92.4691 67.4101V91.5801C92.4691 91.8901 92.3591 92.1501 92.1391 92.3701L88.3491 96.0901C88.1291 96.3101 87.8591 96.4201 87.5491 96.4201H73.9591C73.6491 96.4201 73.3791 96.3101 73.1591 96.0901L69.3691 92.3701C69.1491 92.1501 69.0391 91.8901 69.0391 91.5801V67.4101C69.0391 67.1001 69.1491 66.8401 69.3691 66.6201L73.1591 62.9001C73.3791 62.6801 73.6491 62.5701 73.9591 62.5701Z" fill="url(#paint0_linear_226_21087)"/>
<path fill-rule="evenodd" clip-rule="evenodd" d="M75.1191 64.8001H86.3891C86.6691 64.8001 86.9191 64.9001 87.1191 65.1001L90.2291 68.2201C90.4291 68.4201 90.5291 68.6701 90.5291 68.9501V90.0101C90.5291 90.3001 90.4291 90.5401 90.2291 90.7401L87.1191 93.8601C86.9191 94.0601 86.6691 94.1601 86.3891 94.1601H75.1191C74.8391 94.1601 74.5891 94.0601 74.3891 93.8601L71.2791 90.7401C71.0791 90.5401 70.9791 90.2901 70.9791 90.0101V68.9601C70.9791 68.6801 71.0791 68.4301 71.2791 68.2301L74.3891 65.1101C74.5891 64.9101 74.8391 64.8101 75.1191 64.8101M75.0091 64.6301H86.4791C86.7691 64.6301 87.0191 64.7301 87.2191 64.9401L90.3791 68.0901C90.5891 68.2901 90.6891 68.5401 90.6891 68.8301V90.1501C90.6891 90.4401 90.5891 90.6901 90.3791 90.8901L87.2191 94.0401C87.0091 94.2401 86.7691 94.3501 86.4791 94.3501H75.0091C74.7191 94.3501 74.4691 94.2501 74.2691 94.0401L71.0991 90.8901C70.8891 90.6901 70.7891 90.4401 70.7891 90.1501V68.8301C70.7891 68.5401 70.8891 68.2901 71.0991 68.0901L74.2691 64.9401C74.4691 64.7401 74.7191 64.6301 75.0091 64.6301Z" fill="url(#paint1_linear_226_21087)"/>
<path d="M75.1797 85.4401C75.3397 85.4401 75.4897 85.4401 75.6397 85.4401C76.0897 85.4501 76.5297 85.4701 76.9797 85.4801C77.0297 85.4801 77.0697 85.4801 77.1197 85.4901C77.3697 85.5301 77.4497 85.5901 77.4997 85.8101C77.5897 86.1901 77.6597 86.5701 77.7597 86.9501C77.9097 87.4801 78.0597 88.0201 78.3697 88.5001C78.8297 89.2001 79.4397 89.7301 80.2997 89.9901C81.3997 90.3101 82.3897 90.0901 83.2397 89.3901C83.9697 88.7901 84.3497 88.0201 84.4697 87.1501C84.6397 85.9201 84.2197 84.8401 83.4697 83.8501C83.0097 83.2401 82.4797 82.6701 81.8997 82.1501C81.0097 81.3501 80.0897 80.5701 79.1797 79.7901C78.9597 79.6001 78.7397 79.4101 78.5197 79.2201C78.3797 79.1001 78.2997 78.9501 78.3297 78.7701C78.4297 78.2101 78.5297 77.6501 78.6297 77.0901C78.6597 76.9301 78.7797 76.8801 78.9297 76.9801C79.1897 77.1701 79.4397 77.3801 79.6897 77.5801C80.0797 77.8901 80.4697 78.2001 80.8497 78.5201C81.7697 79.2901 82.6997 80.0501 83.5897 80.8401C84.5397 81.6901 85.2997 82.6701 85.7797 83.8001C86.0897 84.5401 86.2597 85.3001 86.2097 86.1001C86.1397 87.0601 85.7797 87.9201 85.1297 88.6701C84.4597 89.4401 83.6497 90.0701 82.6397 90.4501C81.4797 90.8901 80.3297 90.8601 79.1997 90.3601C78.4397 90.0301 77.7697 89.6001 77.2497 88.9801C76.7197 88.3601 76.3397 87.6701 76.0797 86.9301C76.0197 86.7701 75.9697 86.6101 75.9097 86.4501C75.7997 86.1901 75.6197 85.9701 75.3297 85.8501C75.2397 85.8101 75.1897 85.7401 75.1797 85.6601C75.1797 85.5901 75.1797 85.5101 75.1797 85.4201" fill="url(#paint2_linear_226_21087)"/>
<path d="M76.2197 79.4401C76.2197 77.5801 76.8397 75.8801 77.9597 74.3301C78.3797 73.7501 78.9397 73.3101 79.6597 73.0601C80.5097 72.7601 81.3097 72.8201 82.0797 73.2601C83.1497 73.8701 83.9697 74.6701 84.3797 75.7701C84.4197 75.8901 84.4597 76.0101 84.4997 76.1301C84.5497 76.2901 84.5297 76.3301 84.3497 76.3401C84.0897 76.3601 83.8297 76.3601 83.5697 76.3601C83.3997 76.3601 83.2397 76.3301 83.0697 76.3301C82.9697 76.3301 82.9397 76.2801 82.9197 76.2001C82.7797 75.6901 82.5997 75.2001 82.3297 74.7401C82.1297 74.3901 81.8897 74.0601 81.5597 73.7901C80.8797 73.2401 80.1097 73.2801 79.4597 73.8601C79.0197 74.2501 78.7397 74.7401 78.5097 75.2501C78.1997 75.9501 78.0497 76.6901 77.8897 77.4201C77.7297 78.1801 77.6697 78.9501 77.6997 79.7201C77.7597 81.1901 78.0597 82.6101 78.7997 83.9401C79.0397 84.3701 79.3397 84.7801 79.7797 85.0701C80.0197 85.2301 80.2797 85.3501 80.5797 85.3601C80.9497 85.3801 81.2597 85.2501 81.5297 85.0301C81.7997 84.8201 81.9997 84.5701 82.1597 84.2801C82.2697 84.0901 82.3797 83.8901 82.4897 83.7001C82.5597 83.5701 82.6497 83.5601 82.7397 83.6701C82.8997 83.8601 83.0497 84.0701 83.1897 84.2701C83.2697 84.3901 83.2497 84.5201 83.1897 84.6501C82.7897 85.4601 82.1097 85.9201 81.1397 86.0401C80.4097 86.1401 79.7297 86.0201 79.1097 85.6501C78.7297 85.4201 78.4297 85.1201 78.1397 84.8001C77.1497 83.6701 76.5897 82.3801 76.3297 80.9601C76.2397 80.4501 76.1797 79.9301 76.1797 79.4101" fill="url(#paint3_linear_226_21087)"/>
<path d="M84.4695 73.6301C84.1795 73.6301 84.0295 73.5301 83.9595 73.2601C83.8595 72.8801 83.7595 72.5001 83.6695 72.1201C83.3995 70.9301 82.7395 69.9501 81.6595 69.2301C80.7095 68.6001 79.4895 68.6701 78.5995 69.3801C77.7895 70.0201 77.3495 70.8301 77.2595 71.8001C77.1995 72.4601 77.2295 73.1201 77.3395 73.7801C77.3795 74.0201 77.3395 74.2301 77.1995 74.4501C76.8295 74.9901 76.4895 75.5501 76.2395 76.1401C76.2295 76.1801 76.1995 76.2101 76.1695 76.2401C76.1095 76.2901 76.0495 76.2901 76.0195 76.2201C75.9895 76.1601 75.9695 76.0901 75.9495 76.0201C75.8095 75.3401 75.6495 74.6501 75.5495 73.9601C75.3795 72.8201 75.4795 71.7001 76.0495 70.6501C76.5295 69.7701 77.1995 69.0701 78.1895 68.6401C78.9995 68.2901 79.8495 68.2001 80.7295 68.2501C81.5795 68.3001 82.3695 68.5501 83.0695 69.0001C83.7595 69.4401 84.2795 70.0301 84.7095 70.6801C85.0595 71.2001 85.3295 71.7501 85.5095 72.3401C85.6195 72.6901 85.8095 72.9901 86.1995 73.1601C86.2295 73.1801 86.2795 73.1801 86.2995 73.2201C86.3095 73.2401 86.3895 73.6801 86.0595 73.6801C85.9495 73.6801 84.7195 73.6701 84.4595 73.6601" fill="url(#paint4_linear_226_21087)"/>
<path d="M102.309 82.4H100.139V83.34H99.6094V75.63H102.299V82.4H102.309ZM101.769 76.16H100.139V78.72H101.769V76.16ZM100.139 81.88H101.769V79.24H100.139V81.88ZM103.069 84.23L102.669 83.86C103.269 83.16 103.579 82.26 103.599 81.17V79.38H107.709V83.46C107.709 83.9 107.459 84.13 106.969 84.13H105.959L105.829 83.64C106.179 83.66 106.509 83.67 106.819 83.67C107.069 83.67 107.199 83.53 107.199 83.28V82.49H103.969C103.789 83.16 103.489 83.74 103.079 84.23M105.909 74.78V75.48H108.229V75.96H105.909V76.81H107.919V77.29H105.909V78.16H108.519V78.63H102.799V78.16H105.349V77.29H103.359V76.81H105.349V75.96H103.039V75.48H105.349V74.78H105.909ZM104.049 82.04H107.189V81.17H104.119C104.109 81.48 104.089 81.77 104.049 82.04ZM107.189 79.84H104.119V80.73H107.189V79.84Z" fill="url(#paint5_linear_226_21087)"/>
<path d="M103.069 84.23L102.669 83.86C103.269 83.16 103.579 82.26 103.599 81.17V79.38H107.709V83.46C107.709 83.9 107.459 84.13 106.969 84.13H105.959L105.829 83.64C106.179 83.66 106.509 83.67 106.819 83.67C107.069 83.67 107.199 83.53 107.199 83.28V82.49H103.969C103.789 83.16 103.489 83.74 103.079 84.23M102.309 82.4H100.139V83.34H99.6094V75.63H102.299V82.4H102.309ZM101.769 76.16H100.139V78.72H101.769V76.16ZM100.139 81.88H101.769V79.24H100.139V81.88ZM105.909 74.78V75.48H108.229V75.96H105.909V76.81H107.919V77.29H105.909V78.16H108.519V78.63H102.799V78.16H105.349V77.29H103.359V76.81H105.349V75.96H103.039V75.48H105.349V74.78H105.909ZM104.049 82.04H107.189V81.17H104.119C104.109 81.48 104.089 81.77 104.049 82.04ZM107.189 79.84H104.119V80.73H107.189V79.84Z" stroke="#D4B294" stroke-linecap="round" stroke-linejoin="round"/>
<path d="M125.369 78.5302C125.509 77.7702 125.619 76.9202 125.669 75.9702H121.849V75.4302H129.939V75.9702H126.229C126.169 76.9302 126.069 77.7902 125.939 78.5302H130.239V79.0802H126.339C127.049 81.1202 128.459 82.7002 130.539 83.8002L130.199 84.2502C127.989 83.0702 126.539 81.3602 125.809 79.1102C125.619 79.9302 125.379 80.6002 125.079 81.1302C124.379 82.3502 123.209 83.3802 121.569 84.2502L121.209 83.8002C122.769 82.9902 123.879 82.0402 124.539 80.9402C124.829 80.4402 125.059 79.8202 125.239 79.0802H121.549V78.5302H125.349H125.369Z" fill="url(#paint6_linear_226_21087)" stroke="#D4B294" stroke-linecap="round" stroke-linejoin="round"/>
<path d="M150.699 77.3601V77.8901H148.329C147.999 78.1201 147.669 78.3201 147.359 78.5101C147.809 78.9801 148.149 79.5001 148.379 80.0601L148.419 80.0001C148.419 80.0001 148.439 80.0301 148.459 80.0501C149.369 79.7001 150.209 79.1501 151.019 78.4101L151.399 78.7901C150.629 79.5201 149.749 80.0801 148.779 80.4501C149.629 81.4401 150.769 82.2701 152.209 82.9501L151.909 83.4601C150.549 82.7701 149.449 81.9301 148.649 80.9401C148.709 81.2701 148.749 81.6101 148.759 81.9601C148.759 82.7401 148.649 83.3001 148.439 83.6101C148.209 83.9401 147.669 84.1201 146.789 84.1201H146.449L146.259 83.6301H146.709C147.349 83.6301 147.759 83.5301 147.929 83.3401C148.119 83.1001 148.219 82.6401 148.219 81.9601C148.209 81.7001 148.189 81.4701 148.149 81.2501C147.009 82.1901 145.459 82.9501 143.489 83.5501L143.209 83.0601C145.319 82.4401 146.919 81.6601 148.029 80.7001C147.939 80.3801 147.809 80.0801 147.669 79.8001C146.689 80.5801 145.339 81.2301 143.609 81.7201L143.339 81.2301C145.109 80.7601 146.469 80.1301 147.419 79.3701C147.259 79.1401 147.099 78.9301 146.919 78.7401C146.799 78.8001 146.679 78.8501 146.579 78.9101C145.839 79.2401 144.919 79.5701 143.799 79.8801L143.499 79.4101C144.519 79.1701 145.419 78.9001 146.189 78.5601C146.659 78.3501 147.109 78.1301 147.509 77.8801H144.469V77.3501H150.679L150.699 77.3601ZM148.009 75.6901H151.909V77.3901H151.349V76.2101H143.829V77.3901H143.269V75.6901H147.449C147.329 75.3401 147.189 75.0301 147.059 74.7501L147.619 74.6501C147.759 74.9601 147.889 75.3101 147.999 75.6901" fill="url(#paint7_linear_226_21087)"/>
<path d="M148.009 75.6901H151.909V77.3901H151.349V76.2101H143.829V77.3901H143.269V75.6901H147.449C147.329 75.3401 147.189 75.0301 147.059 74.7501L147.619 74.6501C147.759 74.9601 147.889 75.3101 147.999 75.6901M150.699 77.3601V77.8901H148.329C147.999 78.1201 147.669 78.3201 147.359 78.5101C147.809 78.9801 148.149 79.5001 148.379 80.0601L148.419 80.0001C148.419 80.0001 148.439 80.0301 148.459 80.0501C149.369 79.7001 150.209 79.1501 151.019 78.4101L151.399 78.7901C150.629 79.5201 149.749 80.0801 148.779 80.4501C149.629 81.4401 150.769 82.2701 152.209 82.9501L151.909 83.4601C150.549 82.7701 149.449 81.9301 148.649 80.9401C148.709 81.2701 148.749 81.6101 148.759 81.9601C148.759 82.7401 148.649 83.3001 148.439 83.6101C148.209 83.9401 147.669 84.1201 146.789 84.1201H146.449L146.259 83.6301H146.709C147.349 83.6301 147.759 83.5301 147.929 83.3401C148.119 83.1001 148.219 82.6401 148.219 81.9601C148.209 81.7001 148.189 81.4701 148.149 81.2501C147.009 82.1901 145.459 82.9501 143.489 83.5501L143.209 83.0601C145.319 82.4401 146.919 81.6601 148.029 80.7001C147.939 80.3801 147.809 80.0801 147.669 79.8001C146.689 80.5801 145.339 81.2301 143.609 81.7201L143.339 81.2301C145.109 80.7601 146.469 80.1301 147.419 79.3701C147.259 79.1401 147.099 78.9301 146.919 78.7401C146.799 78.8001 146.679 78.8501 146.579 78.9101C145.839 79.2401 144.919 79.5701 143.799 79.8801L143.499 79.4101C144.519 79.1701 145.419 78.9001 146.189 78.5601C146.659 78.3501 147.109 78.1301 147.509 77.8801H144.469V77.3501H150.679L150.699 77.3601Z" stroke="#D4B294" stroke-linecap="round" stroke-linejoin="round"/>
<path d="M172.53 81.6801H174.1V82.2101H164.97V81.6801H166.54V75.3501H172.53V81.6801ZM168.48 82.6801C167.69 83.3101 166.72 83.8601 165.58 84.3301L165.25 83.8901C166.36 83.4401 167.3 82.9101 168.07 82.3101L168.48 82.6801ZM171.98 75.8801H167.09V76.9801H171.98V75.8801ZM171.98 77.4501H167.09V78.5401H171.98V77.4501ZM171.98 79.0101H167.09V80.1101H171.98V79.0101ZM171.98 80.5701H167.09V81.6801H171.98V80.5701ZM173.81 83.8301L173.5 84.3201C172.55 83.6401 171.57 83.1101 170.57 82.7201L170.86 82.3001C171.94 82.7201 172.93 83.2401 173.81 83.8401" fill="url(#paint8_linear_226_21087)"/>
<path d="M173.81 83.8301L173.5 84.3201C172.55 83.6401 171.57 83.1101 170.57 82.7201L170.86 82.3001C171.94 82.7201 172.93 83.2401 173.81 83.8401M172.53 81.6801H174.1V82.2101H164.97V81.6801H166.54V75.3501H172.53V81.6801ZM168.48 82.6801C167.69 83.3101 166.72 83.8601 165.58 84.3301L165.25 83.8901C166.36 83.4401 167.3 82.9101 168.07 82.3101L168.48 82.6801ZM171.98 75.8801H167.09V76.9801H171.98V75.8801ZM171.98 77.4501H167.09V78.5401H171.98V77.4501ZM171.98 79.0101H167.09V80.1101H171.98V79.0101ZM171.98 80.5701H167.09V81.6801H171.98V80.5701Z" stroke="#D4B294" stroke-linecap="round" stroke-linejoin="round"/>
</g>
</g>
</g>
<defs>
<filter id="filter0_d_226_21087" x="0.474609" y="0" width="239" height="160" filterUnits="userSpaceOnUse" color-interpolation-filters="sRGB">
<feFlood flood-opacity="0" result="BackgroundImageFix"/>
<feColorMatrix in="SourceAlpha" type="matrix" values="0 0 0 0 0 0 0 0 0 0 0 0 0 0 0 0 0 0 127 0" result="hardAlpha"/>
<feOffset dy="1"/>
<feGaussianBlur stdDeviation="10"/>
<feComposite in2="hardAlpha" operator="out"/>
<feColorMatrix type="matrix" values="0 0 0 0 0 0 0 0 0 0 0 0 0 0 0 0 0 0 0.08 0"/>
<feBlend mode="normal" in2="BackgroundImageFix" result="effect1_dropShadow_226_21087"/>
<feBlend mode="normal" in="SourceGraphic" in2="effect1_dropShadow_226_21087" result="shape"/>
</filter>
<linearGradient id="paint0_linear_226_21087" x1="71.6491" y1="63.7301" x2="89.8491" y2="95.2601" gradientUnits="userSpaceOnUse">
<stop offset="0.11" stop-color="#D4B294"/>
<stop offset="0.35" stop-color="#D2B092"/>
<stop offset="0.5" stop-color="#CFAC8E"/>
<stop offset="0.62" stop-color="#C6A283"/>
<stop offset="0.74" stop-color="#B69070"/>
<stop offset="0.83" stop-color="#A98160"/>
</linearGradient>
<linearGradient id="paint1_linear_226_21087" x1="72.8091" y1="65.7401" x2="88.6891" y2="93.2501" gradientUnits="userSpaceOnUse">
<stop offset="0.11" stop-color="#D4B294"/>
<stop offset="0.35" stop-color="#D2B092"/>
<stop offset="0.5" stop-color="#CFAC8E"/>
<stop offset="0.62" stop-color="#C6A283"/>
<stop offset="0.74" stop-color="#B69070"/>
<stop offset="0.83" stop-color="#A98160"/>
</linearGradient>
<linearGradient id="paint2_linear_226_21087" x1="76.6797" y1="78.1301" x2="83.5497" y2="90.0301" gradientUnits="userSpaceOnUse">
<stop offset="0.11" stop-color="#D4B294"/>
<stop offset="0.35" stop-color="#D2B092"/>
<stop offset="0.5" stop-color="#CFAC8E"/>
<stop offset="0.62" stop-color="#C6A283"/>
<stop offset="0.74" stop-color="#B69070"/>
<stop offset="0.83" stop-color="#A98160"/>
</linearGradient>
<linearGradient id="paint3_linear_226_21087" x1="77.6697" y1="74.1401" x2="83.8297" y2="84.8101" gradientUnits="userSpaceOnUse">
<stop offset="0.11" stop-color="#D4B294"/>
<stop offset="0.35" stop-color="#D2B092"/>
<stop offset="0.5" stop-color="#CFAC8E"/>
<stop offset="0.62" stop-color="#C6A283"/>
<stop offset="0.74" stop-color="#B69070"/>
<stop offset="0.83" stop-color="#A98160"/>
</linearGradient>
<linearGradient id="paint4_linear_226_21087" x1="77.7695" y1="68.8301" x2="81.9495" y2="76.0701" gradientUnits="userSpaceOnUse">
<stop offset="0.11" stop-color="#D4B294"/>
<stop offset="0.35" stop-color="#D2B092"/>
<stop offset="0.5" stop-color="#CFAC8E"/>
<stop offset="0.62" stop-color="#C6A283"/>
<stop offset="0.74" stop-color="#B69070"/>
<stop offset="0.83" stop-color="#A98160"/>
</linearGradient>
<linearGradient id="paint5_linear_226_21087" x1="101.209" y1="74.71" x2="106.799" y2="84.39" gradientUnits="userSpaceOnUse">
<stop offset="0.11" stop-color="#D4B294"/>
<stop offset="0.35" stop-color="#D2B092"/>
<stop offset="0.5" stop-color="#CFAC8E"/>
<stop offset="0.62" stop-color="#C6A283"/>
<stop offset="0.74" stop-color="#B69070"/>
<stop offset="0.83" stop-color="#A98160"/>
</linearGradient>
<linearGradient id="paint6_linear_226_21087" x1="122.839" y1="74.8602" x2="128.749" y2="85.1002" gradientUnits="userSpaceOnUse">
<stop offset="0.11" stop-color="#D4B294"/>
<stop offset="0.35" stop-color="#D2B092"/>
<stop offset="0.5" stop-color="#CFAC8E"/>
<stop offset="0.62" stop-color="#C6A283"/>
<stop offset="0.74" stop-color="#B69070"/>
<stop offset="0.83" stop-color="#A98160"/>
</linearGradient>
<linearGradient id="paint7_linear_226_21087" x1="144.889" y1="74.7601" x2="150.409" y2="84.3101" gradientUnits="userSpaceOnUse">
<stop offset="0.11" stop-color="#D4B294"/>
<stop offset="0.35" stop-color="#D2B092"/>
<stop offset="0.5" stop-color="#CFAC8E"/>
<stop offset="0.62" stop-color="#C6A283"/>
<stop offset="0.74" stop-color="#B69070"/>
<stop offset="0.83" stop-color="#A98160"/>
</linearGradient>
<linearGradient id="paint8_linear_226_21087" x1="166.45" y1="75.4001" x2="172.07" y2="85.1401" gradientUnits="userSpaceOnUse">
<stop offset="0.11" stop-color="#D4B294"/>
<stop offset="0.35" stop-color="#D2B092"/>
<stop offset="0.5" stop-color="#CFAC8E"/>
<stop offset="0.62" stop-color="#C6A283"/>
<stop offset="0.74" stop-color="#B69070"/>
<stop offset="0.83" stop-color="#A98160"/>
</linearGradient>
<clipPath id="clip0_226_21087">
<rect x="20.4746" y="19" width="199" height="120" rx="7.02062" fill="white"/>
</clipPath>
<clipPath id="clip1_226_21087">
<rect width="133.13" height="46.66" fill="white" transform="translate(55 56)"/>
</clipPath>
</defs>
</svg>
