<svg width="240" height="160" viewBox="0 0 240 160" fill="none" xmlns="http://www.w3.org/2000/svg">
<g filter="url(#filter0_d_226_20443)">
<g clip-path="url(#clip0_226_20443)">
<rect x="20.4736" y="19" width="199" height="120" rx="7.02062" fill="white"/>
<rect x="20.4736" y="19" width="199" height="120" fill="white"/>
<g clip-path="url(#clip1_226_20443)">
<path d="M189.6 61H50V97.21H189.6V61Z" fill="#AA182C"/>
<path d="M87.06 77.4598H93.99L94.01 77.1498V76.9798C94.01 76.9798 94.03 76.8798 94.03 76.8198C94.03 75.8798 93.69 75.0698 93.05 74.4898C92.2 73.7098 90.86 73.3898 89.28 73.5998C86.66 73.9398 84.59 75.8598 84.15 78.3698C84.11 78.6498 84.09 78.9498 84.09 79.2598C84.08 80.5398 84.51 81.6098 85.34 82.3298C86.29 83.1698 87.74 83.4998 89.4 83.2698C90.32 83.1398 91.19 82.8298 92.12 82.2898L92.19 82.2498L92.44 82.0898L92.46 82.0498L93.44 79.8698L92.82 80.4198C92.56 80.6298 92.35 80.7898 92.07 80.9598C91.23 81.4198 90.47 81.7098 89.88 81.7998C88.77 81.9498 87.92 81.7198 87.38 81.1398C86.98 80.6998 86.78 80.0598 86.78 79.2598C86.78 78.7998 86.84 78.2898 86.98 77.7298C86.98 77.7298 87.02 77.5698 87.05 77.4698L87.06 77.4598ZM87.44 76.3598C87.87 75.4798 88.63 74.8598 89.46 74.6998C90.46 74.4798 91.27 74.7798 91.52 75.4498L91.55 75.5798V75.6098C91.6 75.8698 91.57 76.0698 91.46 76.1998C91.37 76.3198 91.22 76.3798 91.01 76.3998L90.79 76.4198H87.42C87.42 76.4198 87.43 76.3798 87.44 76.3598Z" fill="white"/>
<path d="M102.92 70.3599C102.606 72.1132 102.403 73.2566 102.31 73.7899C102.14 73.7899 101.87 73.7799 101.87 73.7799C97.7896 73.6599 95.1096 75.3699 94.3196 78.5899C93.9596 80.0599 94.1996 81.3499 94.9896 82.2299C95.7796 83.0999 97.0596 83.4799 98.5096 83.2699C99.4196 83.1399 100.2 82.7999 100.8 82.2899C100.74 82.5899 100.66 83.0999 100.66 83.0999H103.91L103.67 82.7499L103.56 82.5599V82.5399C103.4 82.2599 103.37 82.0999 103.48 81.4799L105.9 67.3999H103.38L102.9 70.3599H102.92ZM101.89 75.9999C101.87 76.3499 101.85 76.6099 101.8 76.8399L101.3 79.5799C101.06 80.9299 100.45 81.6999 99.4196 81.9299C98.6896 82.0799 98.0596 81.9499 97.6096 81.5599C97.0796 81.0999 96.8296 80.2999 96.8896 79.2499C96.9096 78.7199 97.0196 78.2099 97.2096 77.7099C97.5996 76.6399 98.1596 75.8799 98.9296 75.4099C99.3496 75.1699 99.6896 75.0299 99.9896 74.9599C100.72 74.7799 101.27 74.8199 101.58 75.0799C101.81 75.2699 101.9 75.5699 101.88 75.9899L101.89 75.9999Z" fill="white"/>
<path d="M115.3 73.49L113.07 73.59C109.54 73.59 108.43 73.79 106.9 74.96C105.67 75.9 104.91 77.27 104.7 78.91C104.61 79.5 104.64 80.13 104.79 80.74C105.03 81.76 105.68 82.56 106.62 82.98C107.75 83.48 109.12 83.38 110.38 82.69C110.68 82.52 110.93 82.34 111.17 82.14C111.17 82.17 111.17 82.2 111.17 82.23C111.17 82.39 111.19 82.55 111.22 82.71C111.22 82.73 111.26 82.88 111.26 82.88L111.32 83.09H114.13C114.13 83.09 113.91 82.75 113.89 82.73C113.89 82.7 113.85 82.62 113.85 82.62C113.81 82.48 113.79 82.36 113.79 82.21C113.79 82.11 113.79 81.98 113.82 81.84L115.28 73.58M112.31 75.71L112.27 76.05L111.68 79.36C111.5 80.34 111.38 80.59 110.98 81.04C110.51 81.56 109.83 81.83 109.16 81.76C108.59 81.7 108.11 81.41 107.84 80.97C107.56 80.51 107.45 80.01 107.45 79.22L107.49 78.52C107.8 76.23 109.28 74.88 110.53 74.6C111.24 74.44 111.77 74.48 112.04 74.73C112.26 74.92 112.35 75.26 112.31 75.72V75.71Z" fill="white"/>
<path d="M74.6198 88.76C74.6198 88.76 75.4398 83.8 75.5598 83.1C75.6298 83.1 76.0098 83.13 76.0098 83.13C79.7198 83.26 82.4198 81.71 83.3998 78.85C83.5098 78.58 83.5998 78.27 83.6698 77.95C83.9398 76.58 83.6498 75.37 82.8798 74.56C82.0698 73.71 80.8398 73.36 79.3998 73.56C78.5498 73.68 77.7798 74.02 77.1398 74.51C77.1898 74.21 77.2698 73.7 77.2698 73.7H73.9598L74.1798 73.98C74.4798 74.37 74.5298 74.7 74.4098 75.37L72.0498 88.74H74.6298L74.6198 88.76ZM80.9298 78.19C80.6098 80.15 79.5598 81.47 77.9698 81.91C77.2198 82.11 76.6498 82.07 76.3298 81.8C76.0998 81.6 76.0098 81.28 76.0498 80.84C76.0798 80.48 76.0998 80.29 76.1298 80.12L76.6398 77.27C76.8698 75.91 77.5298 75.14 78.5998 74.97C79.3798 74.85 80.0198 75.01 80.4498 75.44C80.9798 75.99 81.1498 76.94 80.9398 78.19H80.9298Z" fill="white"/>
<path d="M73.3103 71.3499C72.5403 70.3799 71.3403 70.1099 69.3503 70.1099H67.0503C67.0203 70.3099 66.6603 72.4699 66.4403 73.7599C66.3603 74.2299 66.3003 74.5899 66.2903 74.6899H71.5603L71.3003 76.1599H67.9303C67.9303 76.1599 66.2503 76.1599 65.9903 76.1599C65.9503 76.4299 65.1203 81.2899 65.0503 81.6599H72.4903L72.4603 81.8199L72.2003 83.0999H61.7803L63.9503 70.7499C64.1203 69.8699 64.0403 69.4199 63.6103 68.9099L63.3703 68.6199H73.7703L73.3003 71.3499H73.3103Z" fill="white"/>
<path d="M77.6904 86.1799H79.2204C79.8004 86.1799 80.2504 86.3099 80.5604 86.5699C80.8704 86.8299 81.0304 87.1899 81.0304 87.6399C81.0304 88.0899 80.8804 88.4599 80.5604 88.7299C80.2504 88.9999 79.7904 89.1299 79.1804 89.1299H78.1204V91.7199H77.6904V86.1799ZM78.1104 86.5399V88.7799H79.1404C79.6004 88.7799 79.9504 88.6799 80.2004 88.4899C80.4404 88.2999 80.5604 88.0199 80.5604 87.6599C80.5604 87.2999 80.4404 87.0499 80.2104 86.8499C79.9704 86.6499 79.6404 86.5499 79.2004 86.5499H78.1204L78.1104 86.5399Z" fill="white"/>
<path d="M83.5703 86.1399L86.1303 91.7199H85.6803L84.8103 89.7999H82.1003L81.2303 91.7199H80.7803L83.3403 86.1399H83.5803H83.5703ZM84.6403 89.4499L83.4503 86.8399L82.2603 89.4499H84.6403Z" fill="white"/>
<path d="M86.8703 86.1799H88.2904C88.8804 86.1799 89.3404 86.3099 89.6504 86.5699C89.9704 86.8299 90.1203 87.1799 90.1203 87.6099C90.1203 88.2499 89.7704 88.6999 89.0704 88.9599C89.2504 89.0499 89.5004 89.3299 89.8104 89.7999L91.0604 91.7199H90.5504L89.5804 90.1999C89.2604 89.6899 89.0104 89.3799 88.8304 89.2499C88.6504 89.1199 88.3804 89.0599 88.0404 89.0599H87.2904V91.7199H86.8604V86.1799H86.8703ZM87.3004 86.5399V88.7099H88.2204C88.6904 88.7099 89.0504 88.6199 89.3004 88.4299C89.5404 88.2399 89.6703 87.9699 89.6703 87.6299C89.6703 87.2899 89.5404 87.0199 89.2904 86.8299C89.0404 86.6399 88.6804 86.5399 88.2104 86.5399H87.3004Z" fill="white"/>
<path d="M92.1204 86.1799V91.7199H91.6904V86.1799H92.1204Z" fill="white"/>
<path d="M96.1007 86.4599V86.9299C95.6207 86.6499 95.2107 86.5099 94.8607 86.5099C94.5107 86.5099 94.2507 86.6099 94.0207 86.8099C93.8007 87.0099 93.6807 87.2599 93.6807 87.5599C93.6807 87.7799 93.7507 87.9699 93.8807 88.1399C94.0107 88.3099 94.2907 88.4799 94.7107 88.6299C95.1307 88.7899 95.4407 88.9199 95.6307 89.0299C95.8207 89.1399 95.9907 89.2899 96.1207 89.4899C96.2507 89.6899 96.3207 89.9499 96.3207 90.2699C96.3207 90.6899 96.1607 91.0499 95.8507 91.3499C95.5407 91.6399 95.1607 91.7899 94.7107 91.7899C94.2607 91.7899 93.7707 91.6299 93.2907 91.3099V90.8099C93.8207 91.1999 94.2907 91.3999 94.6907 91.3999C95.0207 91.3999 95.3007 91.2899 95.5207 91.0799C95.7507 90.8699 95.8607 90.6099 95.8607 90.2999C95.8607 90.0699 95.7907 89.8499 95.6507 89.6599C95.5107 89.4699 95.2207 89.2999 94.8007 89.1299C94.3707 88.9599 94.0607 88.8299 93.8807 88.7299C93.6907 88.6299 93.5407 88.4899 93.4107 88.2999C93.2807 88.1099 93.2207 87.8699 93.2207 87.5799C93.2207 87.1699 93.3707 86.8299 93.6807 86.5399C93.9907 86.2499 94.3707 86.1099 94.8107 86.1099C95.2507 86.1099 95.6707 86.2299 96.0907 86.4599H96.1007Z" fill="white"/>
<path d="M101.15 86.1799V91.7199H100.74V86.1799H101.15Z" fill="white"/>
<path d="M104.15 91.7899L103.92 91.4899C105.14 90.6099 105.83 89.6999 106 88.7499C105.57 89.0299 105.16 89.1699 104.78 89.1699C104.34 89.1699 103.98 89.0199 103.68 88.7299C103.38 88.4399 103.24 88.0799 103.24 87.6499C103.24 87.2199 103.39 86.8299 103.68 86.5399C103.97 86.2499 104.34 86.0999 104.8 86.0999C105.33 86.0999 105.74 86.2699 106.05 86.6199C106.36 86.9699 106.51 87.4399 106.51 88.0399C106.51 89.4199 105.73 90.6699 104.15 91.7799V91.7899ZM106.07 88.2699C106.07 88.1799 106.07 88.0999 106.07 88.0199C106.07 87.5399 105.96 87.1699 105.74 86.8999C105.52 86.6299 105.21 86.4999 104.81 86.4999C104.48 86.4999 104.21 86.6099 103.98 86.8199C103.75 87.0399 103.64 87.3099 103.64 87.6299C103.64 87.9499 103.75 88.2299 103.97 88.4499C104.19 88.6699 104.46 88.7799 104.79 88.7799C105.25 88.7799 105.68 88.6099 106.06 88.2599L106.07 88.2699Z" fill="white"/>
<path d="M107.401 87.0999V86.6099C107.811 86.2699 108.241 86.0999 108.691 86.0999C109.141 86.0999 109.521 86.2599 109.841 86.5599C110.151 86.8699 110.311 87.2499 110.311 87.6899C110.311 88.5699 109.631 89.7799 108.271 91.3299H110.851V91.7099H107.341C109.051 90.0599 109.901 88.7199 109.901 87.6999C109.901 87.3599 109.781 87.0699 109.551 86.8399C109.311 86.6099 109.021 86.4899 108.661 86.4899C108.431 86.4899 108.221 86.5399 108.031 86.6299C107.851 86.7299 107.631 86.8799 107.401 87.0899V87.0999Z" fill="white"/>
<path d="M112.27 91.7899L112.04 91.4899C113.26 90.6099 113.95 89.6999 114.12 88.7499C113.69 89.0299 113.28 89.1699 112.9 89.1699C112.46 89.1699 112.1 89.0199 111.8 88.7299C111.5 88.4399 111.36 88.0799 111.36 87.6499C111.36 87.2199 111.51 86.8299 111.8 86.5399C112.09 86.2499 112.46 86.0999 112.92 86.0999C113.45 86.0999 113.86 86.2699 114.17 86.6199C114.48 86.9699 114.63 87.4399 114.63 88.0399C114.63 89.4199 113.85 90.6699 112.27 91.7799V91.7899ZM114.19 88.2699C114.19 88.1799 114.2 88.0999 114.2 88.0199C114.2 87.5399 114.09 87.1699 113.87 86.8999C113.65 86.6299 113.34 86.4999 112.94 86.4999C112.61 86.4999 112.33 86.6099 112.11 86.8199C111.88 87.0399 111.77 87.3099 111.77 87.6299C111.77 87.9499 111.88 88.2299 112.1 88.4499C112.32 88.6699 112.59 88.7799 112.92 88.7799C113.39 88.7799 113.81 88.6099 114.19 88.2599V88.2699Z" fill="white"/>
<path fill-rule="evenodd" clip-rule="evenodd" d="M156.561 76.37C156.451 76.41 156.401 76.52 156.421 76.61C156.441 76.6767 156.427 76.75 156.381 76.83C156.381 76.83 156.331 76.79 156.301 76.77C156.191 76.83 156.241 76.9 156.271 76.98C156.311 76.98 156.341 76.97 156.401 76.96C156.321 77.02 156.271 77.05 156.221 77.09C156.271 77.12 156.301 77.14 156.351 77.17C156.391 77.14 156.431 77.11 156.441 77.1C156.551 77.15 156.641 77.18 156.731 77.22C156.791 77.25 156.831 77.13 156.911 77.22C156.941 77.25 157.051 77.22 157.131 77.21C157.231 77.21 157.341 77.2 157.441 77.19C157.481 77.19 157.531 77.19 157.551 77.2C157.631 77.29 157.721 77.24 157.811 77.24C157.881 77.24 157.961 77.19 158.031 77.27C158.161 77.22 158.301 77.27 158.431 77.27C158.501 77.27 158.571 77.17 158.651 77.1C158.691 77.12 158.741 77.15 158.801 77.18C158.861 77.15 158.921 77.08 159.001 77.18C159.011 77.2 159.091 77.18 159.141 77.18C159.151 77.22 159.161 77.25 159.171 77.27C159.281 77.3 159.371 77.33 159.461 77.35C159.501 77.35 159.551 77.35 159.601 77.34C159.721 77.31 159.841 77.3 159.921 77.43C160.011 77.39 160.091 77.37 160.171 77.42C160.281 77.48 160.391 77.46 160.521 77.43C160.631 77.41 160.761 77.43 160.881 77.44C160.901 77.44 160.931 77.41 160.951 77.42C161.281 77.56 161.631 77.39 161.971 77.45C161.901 77.57 161.821 77.7 161.751 77.83C161.711 77.9 161.681 77.97 161.661 78.05C161.621 78.16 161.591 78.27 161.471 78.35C161.411 78.39 161.381 78.5 161.331 78.57C161.261 78.67 161.361 78.74 161.391 78.86C161.321 78.82 161.281 78.79 161.231 78.76C161.161 78.82 161.091 78.88 161.011 78.96C161.011 78.97 161.041 79.01 161.071 79.07C160.911 79.12 160.751 79.17 160.591 79.22C160.511 79.39 160.501 79.38 160.311 79.37C160.251 79.37 160.161 79.39 160.141 79.43C160.101 79.51 160.021 79.53 159.981 79.51C159.821 79.44 159.641 79.51 159.491 79.4C159.451 79.37 159.351 79.41 159.301 79.39C159.161 79.34 159.011 79.33 158.881 79.29C158.851 79.29 158.821 79.25 158.791 79.23C158.771 79.21 158.741 79.2 158.721 79.18C158.661 79.14 158.581 79.25 158.521 79.14C158.481 79.08 158.381 79.07 158.321 79.03C158.251 78.99 158.191 78.94 158.141 78.88C158.071 78.8 157.981 78.78 157.881 78.76C157.801 78.74 157.711 78.74 157.671 78.65C157.661 78.62 157.581 78.62 157.541 78.63C157.461 78.63 157.331 78.6 157.251 78.57C157.131 78.52 157.011 78.49 156.891 78.45C156.881 78.45 156.861 78.46 156.841 78.47C156.761 78.5 156.671 78.56 156.581 78.47C156.551 78.44 156.481 78.44 156.421 78.45C156.271 78.46 156.131 78.5 155.991 78.49C155.871 78.49 155.741 78.55 155.621 78.49C155.601 78.49 155.571 78.49 155.551 78.49C155.381 78.49 155.211 78.51 155.031 78.49C154.901 78.49 154.781 78.46 154.661 78.55C154.601 78.52 154.561 78.48 154.471 78.5C154.311 78.53 154.151 78.52 153.981 78.52C153.781 78.52 153.581 78.52 153.381 78.54C153.271 78.54 153.161 78.59 153.051 78.62C153.071 78.65 153.081 78.68 153.101 78.72C153.051 78.72 153.001 78.76 152.961 78.74C152.691 78.65 152.411 78.7 152.161 78.76C151.841 78.83 151.501 78.93 151.381 79.31C151.371 79.35 151.331 79.39 151.301 79.4C151.211 79.42 151.201 79.49 151.181 79.58C150.961 79.61 150.741 79.66 150.531 79.65C150.381 79.65 150.211 79.61 150.121 79.44C150.041 79.3 149.921 79.18 149.851 79.04C149.751 78.85 149.601 78.69 149.601 78.45C149.601 78.27 149.621 78.11 149.731 77.96C149.761 77.92 149.791 77.87 149.811 77.82C149.871 77.7 149.981 77.65 150.111 77.62C150.261 77.58 150.411 77.59 150.561 77.62C150.791 77.66 151.021 77.62 151.241 77.57C151.411 77.54 151.571 77.52 151.741 77.49C151.771 77.49 151.801 77.49 151.831 77.48C152.061 77.37 152.211 77.29 152.521 77.37C152.561 77.38 152.611 77.37 152.661 77.37C152.831 77.37 153.001 77.37 153.171 77.37C153.251 77.37 153.301 77.33 153.291 77.26C153.251 77.09 153.221 76.92 153.221 76.74C153.221 76.71 153.191 76.69 153.171 76.66C153.151 76.7 153.141 76.72 153.121 76.75C153.101 76.74 153.091 76.72 153.091 76.71C153.091 76.66 153.031 76.59 153.141 76.57C153.151 76.57 153.171 76.49 153.161 76.46C153.131 76.36 153.081 76.27 153.041 76.18C153.001 76.08 152.971 75.99 152.931 75.89C152.881 75.75 152.841 75.73 152.701 75.75C152.421 75.79 152.151 75.81 151.891 75.92C151.671 76.01 151.461 76.12 151.251 76.21C151.141 76.26 151.031 76.32 150.911 76.33C150.791 76.35 150.681 76.31 150.561 76.3C150.501 76.3 150.441 76.28 150.371 76.27C150.341 76.24 150.321 76.17 150.291 76.16C150.121 76.09 150.071 75.93 149.991 75.8C149.941 75.72 149.951 75.6 149.991 75.5C150.051 75.38 150.101 75.25 149.991 75.12C150.061 74.99 150.141 74.89 150.271 74.83C150.301 74.82 150.311 74.77 150.341 74.76C150.411 74.72 150.491 74.65 150.561 74.66C150.661 74.66 150.741 74.65 150.811 74.61C150.961 74.52 151.121 74.48 151.291 74.45C151.441 74.42 151.581 74.38 151.731 74.35C151.841 74.33 151.951 74.32 152.061 74.33C152.371 74.35 152.681 74.3 152.981 74.23H152.991C153.291 74.08 153.601 74.16 153.911 74.2C154.081 74.22 154.251 74.25 154.421 74.27C154.471 74.27 154.521 74.25 154.561 74.27C154.791 74.36 155.021 74.31 155.241 74.27C155.371 74.24 155.371 74.24 155.481 74.33C155.521 74.3 155.571 74.27 155.621 74.24C155.641 74.28 155.661 74.32 155.681 74.36C155.791 74.36 155.771 74.26 155.811 74.17C155.891 74.17 155.971 74.19 156.051 74.2C156.051 74.23 156.061 74.27 156.071 74.31C156.091 74.31 156.101 74.32 156.121 74.32C156.331 74.32 156.531 74.32 156.741 74.32C156.811 74.32 156.871 74.37 156.951 74.41C157.011 74.39 157.091 74.29 157.201 74.36C157.351 74.27 157.471 74.39 157.601 74.41C157.831 74.46 158.041 74.55 158.281 74.56C158.451 74.56 158.611 74.64 158.781 74.69C158.811 74.69 158.821 74.74 158.861 74.78C158.981 74.75 159.121 74.75 159.271 74.83C159.361 74.88 159.481 74.9 159.561 74.8C159.681 74.93 159.811 75.01 159.991 75.01C160.091 75.01 160.181 75.04 160.251 75.12C160.281 75.15 160.331 75.17 160.371 75.2V75.33C160.371 75.33 160.301 75.35 160.241 75.37C160.281 75.45 160.321 75.51 160.361 75.59C160.231 75.57 160.101 75.67 159.961 75.56C159.981 75.65 160.001 75.75 160.021 75.84C159.921 75.94 159.871 75.71 159.761 75.8C159.801 75.8733 159.787 75.9467 159.721 76.02C159.631 76.05 159.581 76.07 159.521 76.08C159.521 76.08 159.521 76.09 159.511 76.09C159.361 76.08 159.211 76.07 159.071 76.04C158.951 76.02 158.841 75.99 158.731 75.95C158.561 75.91 158.381 75.88 158.231 75.81C158.121 75.75 157.991 75.72 157.891 75.72C157.671 75.72 157.481 75.62 157.271 75.61C157.241 75.61 157.211 75.61 157.171 75.61C157.161 75.68 157.151 75.74 157.141 75.79C156.971 75.94 156.801 76.09 156.631 76.24C156.621 76.25 156.611 76.28 156.601 76.31C156.571 76.31 156.551 76.31 156.531 76.31C156.541 76.34 156.561 76.37 156.571 76.39L156.561 76.37ZM154.411 76.71C154.411 76.71 154.451 76.62 154.401 76.57C154.321 76.64 154.361 76.67 154.421 76.71C154.421 76.78 154.421 76.84 154.411 76.91C154.411 76.92 154.391 76.93 154.381 76.95C154.371 76.89 154.351 76.87 154.281 76.81C154.311 76.9 154.341 76.97 154.371 77.03C154.421 77 154.461 76.97 154.521 76.93C154.491 77.01 154.481 77.07 154.461 77.12C154.571 77.23 154.661 77.37 154.851 77.27C154.881 77.08 154.911 76.89 154.941 76.7C154.951 76.62 154.961 76.53 154.971 76.41C155.041 76.38 155.131 76.34 155.241 76.29C155.181 76.25 155.141 76.23 155.091 76.2C155.141 76.12 155.161 76.03 155.211 75.97C155.331 75.81 155.371 75.65 155.291 75.46C155.031 75.43 154.771 75.46 154.521 75.51C154.491 75.6 154.451 75.69 154.431 75.77C154.401 75.88 154.361 75.99 154.371 76.11C154.371 76.25 154.421 76.39 154.441 76.53C154.441 76.58 154.421 76.64 154.411 76.7V76.71ZM154.901 77.2C154.991 77.23 155.031 77.24 155.061 77.15C155.101 76.98 155.091 76.82 155.061 76.66C155.011 76.84 154.961 77.02 154.901 77.21V77.2ZM153.341 77.02C153.351 76.92 153.391 76.81 153.271 76.71C153.291 76.83 153.271 76.93 153.341 77.02ZM155.341 76.11C155.281 76.11 155.261 76.11 155.251 76.13C155.221 76.14 155.201 76.16 155.181 76.17V76.2C155.211 76.2 155.231 76.2 155.261 76.2C155.281 76.2 155.291 76.17 155.331 76.12L155.341 76.11Z" fill="white"/>
<path fill-rule="evenodd" clip-rule="evenodd" d="M148.38 83.9201C148.38 83.9201 148.46 83.9501 148.5 83.9601C148.5 84.0901 148.44 84.1701 148.32 84.2401C148.29 84.2101 148.25 84.1801 148.21 84.1501C148.21 84.1701 148.19 84.2101 148.17 84.2401C148.15 84.2401 148.13 84.2401 148.12 84.2301C148.03 84.1301 147.93 84.0501 147.97 83.8901C147.98 83.8401 147.95 83.7701 147.88 83.7101C147.82 83.6601 147.78 83.5601 147.79 83.4901C147.8 83.3901 147.77 83.3001 147.74 83.2101C147.71 83.1101 147.69 83.0101 147.68 82.9101C147.63 82.5401 147.68 82.1701 147.61 81.8001C147.57 81.6101 147.61 81.4001 147.59 81.2001C147.57 81.0101 147.59 80.8301 147.62 80.6401C147.64 80.4701 147.63 80.3001 147.64 80.1301C147.66 79.7501 147.69 79.3601 147.7 78.9801C147.72 78.6201 147.74 78.2601 147.75 77.9001C147.75 77.7901 147.74 77.6801 147.74 77.5701C147.74 77.4401 147.73 77.3001 147.72 77.1701C147.72 76.9501 147.71 76.7301 147.71 76.5101C147.71 76.1701 147.73 75.8301 147.74 75.4901C147.74 75.3901 147.71 75.3201 147.62 75.2801C147.54 75.2501 147.46 75.2701 147.4 75.3501C147.35 75.4101 147.27 75.4501 147.2 75.5001C147.15 75.5401 147.07 75.5401 147.06 75.6301C147.06 75.6401 147.05 75.6501 147.04 75.6601C146.69 75.8301 146.42 76.1401 146.06 76.3001C146.02 76.3201 145.97 76.3601 145.96 76.4001C145.94 76.4501 145.91 76.4501 145.88 76.4701C145.76 76.5201 145.53 76.5401 145.42 76.5001C145.39 76.5001 145.37 76.4801 145.35 76.4801C145.21 76.4801 145.13 76.4201 145.12 76.2601C145.12 76.1901 145.03 76.1301 144.99 76.0701C144.97 76.0401 144.94 76.0001 144.94 75.9801C144.99 75.8401 144.91 75.7201 144.91 75.5901C144.91 75.4501 144.95 75.3101 144.94 75.1801C144.92 75.0001 145 74.8601 145.08 74.7201C145.1 74.6901 145.11 74.6601 145.11 74.6201C145.14 74.4901 145.16 74.3601 145.26 74.2501C145.27 74.2301 145.29 74.2101 145.29 74.1901C145.27 73.9701 145.41 73.8101 145.5 73.6201C145.57 73.4801 145.64 73.3401 145.71 73.2001C145.78 73.0701 145.81 72.9201 145.95 72.8201C146 72.7901 146.01 72.6901 146.04 72.6301C146.11 72.4901 146.23 72.4401 146.39 72.4701C146.35 72.5801 146.21 72.6401 146.25 72.7801C146.33 72.7501 146.42 72.7101 146.51 72.7001C146.6 72.6901 146.7 72.7001 146.8 72.6901C146.86 72.6901 146.92 72.6701 146.97 72.6501C147.17 72.5801 147.35 72.4701 147.56 72.4301C147.71 72.4001 147.86 72.3501 147.97 72.2201C148.07 72.1101 148.23 72.0601 148.39 72.0501C148.41 72.0801 148.44 72.1101 148.48 72.1501C148.53 72.1201 148.59 72.1001 148.63 72.0701C148.76 71.9601 148.89 71.8501 149.02 71.7301C149.25 71.5101 149.53 71.4001 149.84 71.3401C149.86 71.2601 149.89 71.1901 149.92 71.1001C150.06 71.1901 150.18 71.2701 150.18 71.4601C150.18 71.5801 150.23 71.7101 150.26 71.8301C150.29 71.9201 150.29 72.0201 150.24 72.0901C150.2 72.1701 150.19 72.2301 150.2 72.3201C150.22 72.4801 150.18 72.6201 150.03 72.7301C149.95 72.7901 149.9 72.9001 149.84 72.9801C149.75 73.0801 149.67 73.1801 149.58 73.2801C149.49 73.3901 149.41 73.4901 149.31 73.6101C149.36 73.6401 149.39 73.6601 149.43 73.6901C149.35 73.7401 149.26 73.7801 149.27 73.8901C149.27 73.9001 149.25 73.9201 149.24 73.9301C149.14 73.9801 149.15 74.0601 149.17 74.1501C149.2 74.2301 149.19 74.3001 149.13 74.3701C149.1 74.4101 149.09 74.4901 149.09 74.5601C149.11 74.7501 149.06 74.9401 149.05 75.1301C149.05 75.3401 148.87 75.5101 148.96 75.7401C148.99 75.8001 148.93 75.8901 148.92 75.9701C148.91 76.0501 148.87 76.1301 148.87 76.2201C148.87 76.5001 148.8 76.7501 148.71 77.0101C148.66 77.1601 148.63 77.3001 148.7 77.4701C148.76 77.6301 148.75 77.8201 148.7 77.9901C148.68 78.0701 148.67 78.1601 148.65 78.2401C148.63 78.2901 148.57 78.3401 148.58 78.4001C148.58 78.4501 148.65 78.4901 148.66 78.5501C148.69 78.7001 148.71 78.8601 148.73 79.0201C148.73 79.0501 148.73 79.0801 148.73 79.1101C148.68 79.2101 148.62 79.3101 148.58 79.4101C148.56 79.4601 148.55 79.5301 148.58 79.5801C148.65 79.7301 148.67 79.8901 148.68 80.0501C148.68 80.0701 148.68 80.1001 148.68 80.1201C148.6 80.3401 148.64 80.5701 148.64 80.8001C148.64 80.9401 148.57 81.0801 148.59 81.2201C148.6 81.3501 148.59 81.4701 148.59 81.6001C148.59 81.6901 148.57 81.7801 148.57 81.8701C148.57 81.9601 148.6 82.0401 148.59 82.1301C148.59 82.2501 148.56 82.3801 148.55 82.5101C148.55 82.5601 148.54 82.6001 148.58 82.6701C148.64 82.7601 148.65 82.8801 148.62 83.0001C148.59 83.1501 148.57 83.3001 148.56 83.4501C148.55 83.5401 148.5 83.5301 148.43 83.4901C148.41 83.6301 148.39 83.7601 148.36 83.9201H148.38ZM146.41 72.9101C146.49 72.9301 146.55 72.8934 146.59 72.8001C146.53 72.8401 146.46 72.8801 146.41 72.9101Z" fill="white"/>
<path fill-rule="evenodd" clip-rule="evenodd" d="M152.851 83.7301C152.851 83.7301 152.831 83.8101 152.781 83.8401C152.621 83.9401 152.431 83.9401 152.271 84.0401C152.201 84.0901 152.031 83.9801 151.981 83.8801C151.851 83.6301 151.891 83.3701 151.951 83.1001C151.951 83.0801 151.981 83.0501 151.971 83.0301C151.911 82.8801 152.021 82.7701 152.071 82.6501C152.071 82.6501 152.081 82.6401 152.071 82.6301C152.051 82.4601 152.181 82.3401 152.191 82.1801C152.191 82.1301 152.211 82.0901 152.221 82.0401C152.221 81.9901 152.231 81.9401 152.221 81.9001C152.171 81.7501 152.121 81.6001 152.071 81.4601C152.071 81.4301 152.051 81.3901 152.031 81.3801C151.941 81.3401 151.891 81.2401 151.821 81.2001C151.751 81.1501 151.721 81.1001 151.671 81.0501C151.631 81.0001 151.561 80.9701 151.491 80.9201C151.491 80.7001 151.341 80.5801 151.141 80.5101C151.141 80.4601 151.141 80.4201 151.121 80.3701C151.101 80.2801 151.021 80.1901 151.121 80.1001C151.121 80.1001 151.121 80.0901 151.121 80.0801C151.001 79.8601 151.211 79.7801 151.311 79.6601C151.341 79.6201 151.341 79.5601 151.351 79.4701C151.391 79.4401 151.471 79.3801 151.551 79.3201C151.591 79.3701 151.621 79.4001 151.661 79.4501C151.761 79.3501 151.861 79.2601 151.961 79.1801C151.981 79.1601 152.011 79.1201 152.031 79.1201C152.191 79.1201 152.251 78.9901 152.311 78.8501C152.341 78.9001 152.361 78.9401 152.361 78.9701C152.401 79.1001 152.501 79.1501 152.631 79.0901C152.661 79.0801 152.701 79.0701 152.721 79.0901C152.741 79.1001 152.741 79.1501 152.751 79.1801C152.751 79.2101 152.751 79.2501 152.761 79.3301C152.811 79.2701 152.831 79.2501 152.851 79.2301C152.861 79.2101 152.871 79.1901 152.891 79.1601C153.111 79.2301 153.331 79.3001 153.551 79.3601C153.601 79.3701 153.671 79.3401 153.731 79.3301C154.031 79.3101 154.341 79.2801 154.631 79.3401C154.861 79.3901 155.091 79.3801 155.301 79.3501C155.551 79.3101 155.781 79.3801 156.021 79.4201C156.021 79.4201 156.031 79.4201 156.041 79.4201C156.251 79.4901 156.481 79.4801 156.701 79.4701C156.861 79.4601 157.011 79.4501 157.171 79.5001C157.331 79.5401 157.501 79.5401 157.651 79.5801C157.811 79.6101 157.961 79.6601 158.111 79.7101C158.151 79.7301 158.171 79.7901 158.211 79.8401C158.471 79.8401 158.621 79.9501 158.721 80.1501C158.731 80.1801 158.721 80.2301 158.731 80.2701C158.741 80.4201 158.761 80.5601 158.771 80.7301C158.741 80.7701 158.651 80.8001 158.671 80.9101C158.671 80.9601 158.581 81.0201 158.521 81.0801C158.521 81.1101 158.521 81.1601 158.521 81.2101C158.511 81.2701 158.461 81.3301 158.501 81.4001C158.511 81.4201 158.481 81.4601 158.471 81.5001C158.431 81.6301 158.351 81.7701 158.361 81.9001C158.381 82.0501 158.311 82.1701 158.301 82.3001C158.301 82.3401 158.271 82.3901 158.241 82.4201C158.151 82.5101 158.111 82.6201 158.101 82.7501C158.101 82.8401 158.101 82.9101 157.991 82.9501C157.931 82.9701 157.891 83.0701 157.841 83.1301C157.741 83.2701 157.601 83.3601 157.421 83.3901C157.331 83.4101 157.261 83.4801 157.161 83.5401C157.141 83.4601 157.121 83.3901 157.101 83.3001C157.061 83.3001 157.001 83.3001 156.951 83.3001C156.891 83.2901 156.831 83.2601 156.801 83.1801C156.791 83.1301 156.761 83.0901 156.731 83.0601C156.721 83.0501 156.681 83.0401 156.661 83.0601C156.541 83.1101 156.541 83.1201 156.451 83.0701C156.411 83.1101 156.371 83.1501 156.331 83.1701C156.301 83.1801 156.251 83.1801 156.211 83.1701C155.981 83.1001 155.761 83.1401 155.541 83.2201C155.481 83.2401 155.401 83.2101 155.331 83.1901C155.311 83.3401 155.181 83.3401 155.061 83.3501C154.891 83.3701 154.731 83.3701 154.561 83.3801C154.441 83.3801 154.321 83.3801 154.201 83.4001C154.101 83.4101 154.011 83.4301 153.971 83.3001C153.971 83.3401 153.961 83.3701 153.951 83.4201C153.901 83.3901 153.871 83.3601 153.811 83.3301C153.601 83.5801 153.261 83.5901 152.991 83.8001C152.961 83.7901 152.911 83.7701 152.851 83.7401V83.7301ZM156.021 80.1201C156.021 80.1201 155.951 80.1801 155.911 80.2101C155.871 80.2401 155.821 80.2801 155.771 80.2801C155.521 80.3001 155.281 80.3101 155.031 80.2601C154.901 80.2301 154.771 80.2101 154.631 80.2001C154.491 80.2001 154.341 80.1701 154.211 80.2701C154.101 80.3601 153.991 80.4501 153.861 80.5001C153.711 80.5601 153.651 80.7001 153.551 80.7901C153.511 80.8301 153.481 80.8901 153.551 80.9401C153.591 80.9601 153.601 81.0101 153.551 81.0501C153.531 81.0701 153.511 81.1101 153.521 81.1301C153.601 81.3101 153.581 81.4901 153.531 81.6901C153.481 81.8701 153.451 82.0801 153.541 82.2801C153.591 82.2801 153.631 82.2801 153.681 82.3101C153.881 82.3701 154.071 82.3801 154.271 82.3401C154.341 82.3201 154.421 82.3401 154.501 82.3401C154.541 82.3401 154.581 82.3401 154.601 82.3201C154.681 82.2601 154.761 82.2801 154.851 82.2801C154.931 82.2801 155.011 82.3001 155.081 82.2801C155.291 82.2401 155.491 82.2001 155.691 82.1501C155.791 82.1201 155.891 82.0701 155.991 82.0501C156.091 82.0301 156.201 82.1301 156.301 82.0301C156.301 82.0301 156.331 82.0301 156.341 82.0501C156.371 82.1101 156.411 82.0701 156.451 82.0601C156.571 82.0401 156.681 82.0301 156.771 82.1501C156.821 82.2201 156.911 82.2201 156.991 82.1801C157.061 82.1401 157.061 82.0801 157.061 82.0101C157.061 81.9601 157.061 81.9101 157.061 81.8501C157.091 81.6901 157.121 81.5301 157.141 81.3701C157.141 81.3501 157.131 81.3401 157.131 81.3201C157.111 81.2201 157.061 81.1101 157.101 81.0301C157.151 80.9101 157.151 80.7901 157.161 80.6801C156.951 80.5701 156.741 80.4701 156.541 80.3501C156.381 80.2601 156.231 80.2101 156.051 80.2501C156.031 80.2101 156.011 80.1701 155.991 80.1301C156.051 80.1768 156.121 80.1768 156.201 80.1301C156.121 80.1301 156.051 80.1301 155.991 80.1301L156.021 80.1201ZM155.021 83.1801C154.941 83.1801 154.891 83.1801 154.841 83.1801C154.821 83.1801 154.811 83.2301 154.791 83.2501C154.821 83.2501 154.851 83.2801 154.881 83.2701C154.931 83.2501 154.961 83.2101 155.021 83.1701V83.1801ZM156.241 80.0001C156.314 79.9601 156.317 79.9101 156.251 79.8501C156.251 79.8501 156.251 79.9401 156.241 80.0001ZM156.331 82.4401C156.331 82.4401 156.311 82.4201 156.301 82.4101C156.261 82.4401 156.201 82.4401 156.201 82.5601C156.261 82.5001 156.291 82.4701 156.321 82.4401H156.331ZM156.141 83.0401C156.141 83.0401 156.141 83.0501 156.151 83.0601C156.181 83.0301 156.201 83.0101 156.221 82.9801C156.221 82.9801 156.221 82.9801 156.211 82.9801C156.191 83.0001 156.161 83.0301 156.131 83.0501L156.141 83.0401ZM154.731 79.8501C154.731 79.8501 154.701 79.8601 154.691 79.8701C154.701 79.9001 154.721 79.9301 154.741 79.9601C154.741 79.9601 154.751 79.9601 154.761 79.9501C154.751 79.9201 154.741 79.8901 154.731 79.8601V79.8501ZM155.461 82.3401C155.461 82.3401 155.461 82.3601 155.471 82.3801C155.501 82.3801 155.541 82.3601 155.571 82.3501C155.571 82.3401 155.571 82.3201 155.571 82.3101C155.541 82.3101 155.501 82.3301 155.471 82.3401H155.461Z" fill="white"/>
<path fill-rule="evenodd" clip-rule="evenodd" d="M152.51 73.7801C152.27 73.7301 152.07 73.7101 151.87 73.6501C151.76 73.6201 151.65 73.5701 151.56 73.4601C151.4 73.2801 151.49 73.1201 151.56 72.9601C151.64 72.7401 151.76 72.5301 151.86 72.3101C151.9 72.2201 151.94 72.1301 151.99 72.0401C152.04 71.9501 152.13 71.9501 152.21 71.9301C152.33 71.9001 152.46 71.9001 152.58 71.8801C152.59 71.8801 152.61 71.8801 152.62 71.8801C152.79 71.9801 152.98 71.8901 153.15 71.9201C153.21 71.9201 153.28 71.9001 153.34 71.8801C153.61 71.8301 153.89 71.7701 154.16 71.7401C154.41 71.7101 154.66 71.6701 154.92 71.7001C155.21 71.7301 155.51 71.7301 155.8 71.7401C156.13 71.7401 156.44 71.7901 156.75 71.8701C156.91 71.9101 157.07 71.9201 157.23 71.9301C157.39 71.9401 157.56 71.9301 157.69 72.0501C157.79 72.1401 157.88 72.2501 157.97 72.3601C157.99 72.3901 157.98 72.4401 157.98 72.4801C157.9 72.4801 157.83 72.4701 157.77 72.4601C157.76 72.4801 157.75 72.5001 157.74 72.5101C157.8 72.5501 157.87 72.5901 157.93 72.6201C157.88 72.7301 157.84 72.8201 157.8 72.9101C157.73 72.8901 157.66 72.8601 157.56 72.8301C157.59 72.9001 157.66 72.9401 157.58 73.0101C157.53 73.0501 157.49 73.1301 157.54 73.2201C157.56 73.2601 157.52 73.3301 157.51 73.3901H157.36C157.35 73.4601 157.33 73.5001 157.24 73.4801C156.99 73.4201 156.73 73.3601 156.48 73.3201C156.16 73.2701 155.85 73.2101 155.52 73.2101C155.15 73.2101 154.78 73.1801 154.41 73.1601C154.32 73.1601 154.23 73.1601 154.14 73.1601C154.03 73.1801 153.94 73.2401 153.81 73.2201C153.72 73.2101 153.61 73.3001 153.51 73.3301C153.4 73.3701 153.29 73.4201 153.18 73.4201C153.06 73.4201 152.98 73.4701 152.91 73.5501C152.86 73.6201 152.79 73.6501 152.72 73.6401C152.62 73.6201 152.56 73.6701 152.52 73.7201L152.51 73.7801Z" fill="white"/>
<path fill-rule="evenodd" clip-rule="evenodd" d="M141.43 82.2399C141.55 82.1799 141.7 82.1999 141.78 82.0899C141.88 82.0699 141.96 82.0499 142.05 82.0399C142.09 82.0399 142.14 82.0399 142.17 82.0499C142.27 82.1099 142.37 82.1699 142.47 82.2399C142.54 82.2899 142.54 82.2999 142.64 82.3099C142.72 82.1999 142.85 82.1499 142.95 82.2199C143.02 82.2799 143.09 82.2599 143.14 82.2399C143.28 82.1899 143.38 82.2399 143.46 82.3099C143.58 82.2899 143.67 82.2699 143.77 82.2699C143.83 82.2699 143.9 82.3099 143.96 82.3199C144.17 82.3799 144.39 82.3499 144.59 82.4399C144.66 82.4799 144.71 82.5099 144.71 82.5999C144.71 82.7599 144.69 82.9099 144.57 83.0299C144.45 83.1499 144.35 83.2999 144.25 83.4399C144.22 83.4799 144.19 83.5299 144.13 83.5499C144.06 83.5699 144.01 83.6599 143.97 83.7299C143.94 83.7899 143.93 83.8499 143.86 83.8799C143.82 83.8999 143.79 83.9599 143.76 83.9999C143.74 84.0199 143.71 84.0299 143.68 84.0499C143.63 84.0799 143.56 84.0999 143.54 84.1399C143.51 84.1999 143.5 84.2699 143.43 84.2899C143.37 84.2999 143.3 84.2899 143.23 84.2899C143.15 84.4099 143.02 84.4499 142.88 84.4899C142.76 84.5299 142.65 84.6099 142.53 84.6699C142.4 84.6199 142.27 84.5099 142.09 84.5399C142.06 84.5399 142 84.5299 141.98 84.4999C141.88 84.3699 141.78 84.4199 141.67 84.4699C141.65 84.4699 141.64 84.4699 141.61 84.4899C141.53 84.4099 141.45 84.2999 141.35 84.2599C141.19 84.1999 141.06 84.0599 140.89 84.0299C140.76 83.9999 140.7 83.8999 140.59 83.8599C140.45 83.7999 140.34 83.6599 140.16 83.6599C140.15 83.6599 140.13 83.6599 140.13 83.6599C140.03 83.5299 139.91 83.6099 139.79 83.5999C139.59 83.5899 139.38 83.6299 139.18 83.5399C139.09 83.4999 139 83.4899 138.9 83.4899C138.61 83.4599 138.32 83.4399 138.03 83.4199C137.98 83.4199 137.94 83.4099 137.89 83.3899C137.76 83.3499 137.62 83.3299 137.49 83.3699C137.46 83.3699 137.43 83.3799 137.4 83.3799C137.04 83.3399 136.68 83.2999 136.32 83.2699C136.2 83.2699 136.09 83.2999 135.98 83.3199C135.9 83.3299 135.83 83.3599 135.75 83.3699C135.63 83.3899 135.5 83.3999 135.38 83.4299C135.14 83.4799 134.9 83.5099 134.65 83.4699C134.52 83.4499 134.38 83.4899 134.25 83.5099C134.14 83.5199 134.02 83.5799 133.92 83.5499C133.8 83.4999 133.72 83.5799 133.62 83.5899C133.58 83.5899 133.54 83.5899 133.5 83.5899C133.47 83.5899 133.45 83.5799 133.43 83.5899C133.15 83.7499 132.84 83.6199 132.55 83.6499C132.39 83.6699 132.22 83.6799 132.07 83.7499C131.91 83.8199 131.73 83.8799 131.55 83.9199C131.19 83.9999 130.81 84.0299 130.47 84.1999C130.24 84.3099 129.98 84.3499 129.81 84.5599C129.8 84.5799 129.75 84.5799 129.73 84.5899C129.69 84.6199 129.65 84.6399 129.63 84.6699C129.57 84.7799 129.51 84.8599 129.36 84.8599C129.22 84.8599 129.07 84.9099 128.96 84.9299C128.86 84.8699 128.79 84.8099 128.71 84.7899C128.48 84.7299 128.38 84.5499 128.31 84.3599C128.22 84.1199 128.19 83.8599 128.19 83.5999C128.19 83.4199 128.19 83.2499 128.19 83.0799C128.19 83.0499 128.19 82.9999 128.21 82.9999C128.32 82.9699 128.35 82.8399 128.47 82.8199C128.58 82.7999 128.67 82.7499 128.76 82.6699C128.88 82.5699 129.03 82.4999 129.16 82.4199C129.17 82.4199 129.19 82.4199 129.2 82.4199C129.37 82.4699 129.52 82.3799 129.68 82.3299C129.7 82.3299 129.73 82.3299 129.75 82.3299C129.91 82.3899 130.04 82.3299 130.19 82.2799C130.36 82.2299 130.54 82.2199 130.72 82.1999C131.01 82.1599 131.29 82.1199 131.58 82.0799C131.66 82.0699 131.76 82.0899 131.84 82.0799C132.03 82.0399 132.22 81.9899 132.41 81.9399C132.52 81.9199 132.63 81.8999 132.74 81.8699C132.86 81.8399 132.89 81.7999 132.88 81.6799C132.86 81.3799 132.83 81.0899 132.82 80.7899C132.81 80.5399 132.81 80.2899 132.8 80.0399C132.8 79.8699 132.79 79.6999 132.79 79.5299C132.79 79.4499 132.8 79.3699 132.81 79.2799C132.81 79.2499 132.82 79.2199 132.81 79.1899C132.71 79.0299 132.75 78.8299 132.69 78.6599C132.66 78.5799 132.72 78.5399 132.75 78.4899C132.82 78.3899 132.83 78.3899 132.71 78.3499C132.7 78.1899 132.76 77.9999 132.57 77.8799C132.62 77.7799 132.61 77.6899 132.57 77.5999C132.5 77.4799 132.53 77.3399 132.51 77.2099C132.65 77.0899 132.57 76.9199 132.61 76.7799C132.63 76.6999 132.7 76.6299 132.75 76.5499C132.72 76.5099 132.67 76.4599 132.64 76.4099C132.59 76.2999 132.62 76.1899 132.64 76.0799C132.66 75.9999 132.68 75.9099 132.7 75.8199C132.72 75.7599 132.73 75.6899 132.76 75.6399C132.78 75.5999 132.81 75.5699 132.79 75.5099C132.79 75.4799 132.79 75.4499 132.81 75.4299C132.9 75.2999 133 75.1699 133.09 75.0499C133.11 75.0299 133.14 75.0099 133.16 75.0099C133.24 75.0099 133.3 74.9999 133.35 74.9299C133.36 74.9099 133.4 74.9099 133.43 74.9099C133.57 74.8899 133.72 74.9299 133.87 75.0099C134.04 75.0999 134.22 75.0899 134.41 75.0399C134.68 74.9699 134.95 74.9299 135.23 74.9299C135.44 74.9299 135.66 74.8799 135.88 74.8799C136.03 74.8799 136.18 74.8599 136.33 74.9099C136.47 74.9599 136.62 74.9299 136.75 74.9799C136.76 74.9799 136.79 74.9799 136.8 74.9599C136.9 74.8699 136.98 74.9299 137.05 75.0099C137.06 75.0199 137.08 75.0299 137.08 75.0299C137.2 74.9999 137.3 74.9699 137.44 74.9299C137.48 74.9699 137.55 75.0599 137.62 75.0599C137.75 75.0699 137.88 75.2099 138.02 75.0899C138.04 75.0799 138.06 75.0699 138.07 75.0599C138.13 75.0899 138.17 75.1299 138.23 75.1399C138.28 75.1399 138.33 75.1099 138.39 75.0899C138.44 75.2199 138.48 75.3299 138.52 75.4499C138.57 75.4299 138.61 75.4099 138.66 75.3899C138.76 75.5099 138.83 75.6399 138.98 75.7199C139.05 75.7499 139.07 75.8799 139.11 75.9699C139.14 76.0599 139.13 76.1599 139.22 76.2199C139.23 76.2299 139.23 76.2799 139.23 76.2999C139.21 76.4499 139.2 76.5999 139.17 76.7499C139.17 76.7899 139.13 76.8399 139.1 76.8699C139.02 76.9599 138.94 77.0399 138.92 77.1699C138.92 77.2599 138.89 77.3499 138.86 77.4699C138.7 77.5899 138.67 77.7799 138.71 77.9999C138.72 78.0999 138.77 78.2299 138.61 78.2799C138.58 78.2799 138.55 78.3599 138.56 78.3999C138.57 78.5299 138.51 78.6499 138.53 78.7599C138.56 78.9199 138.47 79.0499 138.47 79.1999C138.47 79.3599 138.45 79.5199 138.44 79.6799C138.43 79.8299 138.4 79.9899 138.41 80.1399C138.43 80.3599 138.33 80.5699 138.36 80.7899C138.36 80.8299 138.36 80.8699 138.36 80.9099C138.38 81.0399 138.43 81.1599 138.37 81.2899C138.37 81.2999 138.37 81.3199 138.37 81.3399C138.37 81.4099 138.37 81.4699 138.37 81.5599C138.48 81.6099 138.59 81.6899 138.74 81.6699C138.82 81.6699 138.9 81.7099 138.98 81.7299C139.18 81.7699 139.38 81.7899 139.59 81.8299C139.79 81.8699 140 81.8899 140.19 81.9699C140.4 82.0499 140.62 82.0699 140.83 82.1599C140.89 82.1799 140.94 82.1799 141 82.1599C141.2 82.0799 141.27 82.1099 141.41 82.2799L141.43 82.2399ZM136.38 77.6999C136.38 77.5799 136.51 77.7399 136.51 77.6199C136.49 77.5899 136.47 77.5399 136.43 77.5099C136.39 77.4799 136.34 77.4499 136.3 77.5199C136.25 77.5199 136.2 77.5099 136.14 77.4999V77.5299C136.19 77.5299 136.24 77.5299 136.3 77.5199C136.33 77.5799 136.35 77.6399 136.38 77.6999C136.3 77.6999 136.25 77.6399 136.23 77.5499C136.2 77.5899 136.19 77.6099 136.18 77.6299C136.18 77.6499 136.18 77.6699 136.18 77.6999H136.39H136.38ZM135.66 79.2399C135.71 79.2399 135.77 79.2199 135.82 79.2299C135.9 79.2499 135.96 79.2299 136.04 79.2099C136.12 79.1799 136.24 79.0999 136.31 79.2399C136.29 79.2699 136.28 79.2899 136.26 79.3199C136.33 79.3399 136.38 79.3599 136.43 79.3699C136.45 79.4099 136.47 79.4399 136.49 79.4999C136.517 79.4133 136.494 79.3733 136.42 79.3799C136.4 79.3299 136.38 79.2699 136.36 79.2199C136.59 79.1799 136.79 79.2899 137 79.3499C137.08 79.3699 137.15 79.3899 137.25 79.3999C137.25 79.2299 137.25 79.0799 137.25 78.9199C137.25 78.8399 137.24 78.7499 137.24 78.6699C137.24 78.5699 137.2 78.5399 137.1 78.5399C137.01 78.5399 136.89 78.5399 136.83 78.4899C136.74 78.4199 136.66 78.4299 136.56 78.4299C136.53 78.4299 136.49 78.4399 136.45 78.4299C136.25 78.3599 136.06 78.4099 135.87 78.4499C135.69 78.4799 135.51 78.5299 135.35 78.5899C135.19 78.6499 135.04 78.6199 134.89 78.5999C134.86 78.5999 134.82 78.5699 134.79 78.5799C134.69 78.5799 134.6 78.5999 134.51 78.6199C134.43 78.6499 134.49 78.7399 134.46 78.7899C134.45 78.8199 134.42 78.8499 134.4 78.8699C134.35 78.8999 134.31 78.9199 134.27 78.9299V79.2399C134.46 79.2399 134.66 79.2399 134.86 79.2399C134.98 79.2399 135.12 79.1999 135.2 79.3499C135.2 79.3499 135.22 79.3499 135.24 79.3499C135.24 79.3199 135.22 79.2899 135.21 79.2499C135.35 79.2399 135.47 79.2199 135.59 79.2099C135.61 79.2099 135.64 79.2299 135.66 79.2499C135.63 79.2999 135.56 79.3299 135.63 79.4099C135.68 79.3599 135.67 79.2999 135.65 79.2499L135.66 79.2399ZM137.23 81.4099C137.23 81.1499 137.23 80.8899 137.23 80.6199C137.23 80.4699 137.2 80.4599 137.05 80.4299C136.88 80.3899 136.71 80.3299 136.53 80.2699C136.35 80.2099 136.15 80.1999 135.97 80.2399C135.85 80.2699 135.72 80.2799 135.61 80.2799C135.44 80.2799 135.27 80.3199 135.1 80.3399C135 80.3499 134.91 80.3799 134.84 80.4699C134.81 80.5099 134.74 80.5199 134.68 80.5399C134.62 80.5599 134.54 80.5699 134.49 80.6099C134.4 80.6799 134.31 80.6999 134.22 80.7299C134.13 80.7599 134.07 80.8399 134.07 80.9299C134.07 81.1699 134.05 81.4099 134.04 81.6699C134.14 81.6499 134.22 81.7499 134.33 81.6699C134.34 81.6699 134.39 81.6699 134.4 81.6899C134.43 81.7399 134.46 81.7299 134.5 81.7199C134.6 81.6899 134.71 81.6499 134.81 81.6599C134.94 81.6699 135.05 81.6399 135.17 81.6299C135.29 81.6199 135.42 81.6299 135.54 81.6299C135.6 81.6299 135.66 81.6299 135.72 81.6199C135.84 81.5999 135.97 81.5699 136.1 81.5499C136.33 81.5199 136.55 81.4699 136.78 81.4999C136.92 81.5199 137.07 81.5199 137.22 81.4099H137.23ZM137.24 77.5199C137.26 77.4499 137.27 77.3499 137.29 77.2599C137.3 77.2099 137.32 77.1499 137.33 77.0999C137.33 77.0799 137.33 77.0499 137.33 77.0299C137.32 76.9599 137.29 76.8899 137.29 76.8299C137.28 76.6799 137.17 76.6099 137.07 76.5399C136.98 76.4799 136.86 76.4499 136.75 76.4299C136.57 76.3999 136.38 76.3699 136.2 76.3899C136 76.4199 135.8 76.4599 135.59 76.4599C135.43 76.4599 135.26 76.4899 135.1 76.5199C135.04 76.5199 134.97 76.5499 134.93 76.5899C134.78 76.7199 134.64 76.8599 134.51 76.9999C134.5 77.0099 134.49 77.0399 134.48 77.0499C134.3 77.0999 134.37 77.2499 134.39 77.3499C134.42 77.5199 134.43 77.5199 134.62 77.4999C134.66 77.4999 134.7 77.4899 134.74 77.4799C134.93 77.4699 135.12 77.4599 135.31 77.4399C135.47 77.4199 135.63 77.4899 135.8 77.4499C136.07 77.3899 136.35 77.3799 136.63 77.4199C136.7 77.4199 136.75 77.4799 136.83 77.5199C136.94 77.3599 137.1 77.5899 137.25 77.4999L137.24 77.5199ZM136.13 79.2999C136.05 79.3299 135.99 79.3499 135.99 79.4299C135.99 79.4499 136.04 79.4799 136.06 79.4799C136.15 79.4599 136.13 79.3899 136.12 79.2999H136.13Z" fill="white"/>
<path fill-rule="evenodd" clip-rule="evenodd" d="M130.53 77.07C130.53 77.07 130.48 77.14 130.47 77.17C130.47 77.19 130.47 77.23 130.46 77.24C130.32 77.27 130.32 77.4 130.26 77.49C130.12 77.67 129.86 77.71 129.68 77.58C129.66 77.57 129.64 77.55 129.63 77.53C129.56 77.39 129.47 77.26 129.43 77.11C129.4 77.02 129.43 76.91 129.44 76.82C129.46 76.68 129.48 76.54 129.51 76.41C129.6 76.04 129.7 75.67 129.8 75.31C129.87 75.07 129.95 74.85 130.03 74.62C130.13 74.33 130.22 74.05 130.33 73.77C130.42 73.54 130.53 73.33 130.64 73.11C130.71 72.97 130.78 72.83 130.85 72.68C130.86 72.66 130.87 72.63 130.86 72.61C130.8 72.51 130.92 72.4 130.86 72.29C130.86 72.28 130.9 72.21 130.93 72.2C131.03 72.17 131.07 72.11 131.02 72.02C131.11 71.97 131.19 71.95 131.25 71.86C131.29 71.8 131.41 71.78 131.5 71.75C131.59 71.72 131.68 71.7 131.75 71.81C131.78 71.86 131.88 71.86 131.95 71.88C132.12 71.92 132.3 71.95 132.48 72C132.69 72.06 132.89 72.07 133.11 72.04C133.29 72.01 133.48 72.02 133.66 72.01C133.67 72.01 133.7 72.01 133.71 72.01C133.88 71.92 134.05 71.99 134.21 72.01C134.26 72.01 134.3 72.02 134.35 72.02C134.57 72.02 134.79 72.02 135.01 72.02C135.05 72.02 135.09 72.02 135.14 71.98C135.09 71.96 135.05 71.94 134.98 71.91C135.03 71.89 135.07 71.87 135.12 71.85C135.05 71.75 135.07 71.65 135.12 71.54C135.15 71.47 135.09 71.39 135.15 71.3C135.18 71.25 135.14 71.14 135.11 71.07C135.08 70.99 135.11 70.92 135.15 70.85C135.23 70.71 135.34 70.58 135.48 70.5C135.54 70.47 135.61 70.43 135.7 70.44C135.79 70.44 135.87 70.43 135.96 70.48C136.09 70.56 136.25 70.61 136.39 70.68C136.43 70.71 136.47 70.76 136.5 70.8C136.52 70.82 136.53 70.84 136.55 70.86C136.56 70.87 136.59 70.86 136.6 70.88C136.66 70.99 136.74 71.11 136.76 71.23C136.78 71.4 136.83 71.58 136.76 71.75C136.73 71.84 136.79 71.85 136.83 71.87C136.8 71.9 136.78 71.93 136.75 71.96C136.78 71.98 136.82 72.01 136.85 72.01C136.95 72.01 137.06 72.01 137.17 72.01V72.27C137.17 72.27 137.19 72.27 137.2 72.27C137.17 72.32 137.14 72.37 137.1 72.42C137.16 72.47 137.2 72.45 137.22 72.39C137.24 72.34 137.23 72.27 137.27 72.23C137.29 72.2 137.36 72.21 137.41 72.18C137.35 72.16 137.29 72.15 137.2 72.12C137.27 72.1 137.3 72.09 137.34 72.08C137.36 72.08 137.38 72.1 137.39 72.09C137.49 71.96 137.63 72.04 137.75 72.02C137.87 72 138.01 72.02 138.14 72.03C138.29 72.03 138.44 72.03 138.58 72.04C138.79 72.06 138.99 72.08 139.2 72.11C139.25 72.11 139.31 72.15 139.37 72.18C139.34 72.22 139.31 72.26 139.28 72.3C139.28 72.31 139.29 72.33 139.3 72.33C139.33 72.33 139.37 72.33 139.4 72.33C139.47 72.33 139.6 72.33 139.63 72.34C139.63 72.29 139.61 72.23 139.6 72.18C139.6 72.18 139.62 72.18 139.63 72.17C139.65 72.2 139.68 72.23 139.72 72.28C139.73 72.24 139.74 72.21 139.75 72.18C140.06 72.2 140.36 72.37 140.68 72.34C140.68 72.32 140.68 72.31 140.69 72.29C140.65 72.27 140.6 72.25 140.56 72.22C140.68 72.24 140.8 72.3 140.91 72.2C141.01 72.23 141.12 72.26 141.2 72.34C141.22 72.36 141.23 72.38 141.26 72.4C141.27 72.36 141.28 72.34 141.3 72.3C141.39 72.42 141.61 72.29 141.63 72.52C141.76 72.5 141.88 72.49 141.96 72.62C141.96 72.62 141.98 72.64 141.99 72.64C142.14 72.59 142.17 72.71 142.23 72.79C142.26 72.82 142.31 72.86 142.35 72.86C142.46 72.86 142.52 72.96 142.6 73.01C142.61 73.01 142.63 73.04 142.63 73.05C142.62 73.2 142.76 73.28 142.78 73.41C142.78 73.45 142.81 73.49 142.83 73.52C142.9 73.6 142.89 73.67 142.83 73.74C142.81 73.76 142.79 73.79 142.79 73.82C142.75 74.09 142.71 74.36 142.67 74.63C142.67 74.65 142.69 74.67 142.7 74.69C142.7 74.73 142.71 74.77 142.73 74.83C142.69 74.8 142.67 74.78 142.64 74.76C142.61 74.94 142.68 75.14 142.48 75.25C142.49 75.28 142.49 75.31 142.51 75.34C142.58 75.44 142.56 75.54 142.52 75.65C142.48 75.76 142.47 75.87 142.45 75.98C142.43 76.1 142.42 76.22 142.42 76.35C142.42 76.47 142.3 76.44 142.23 76.49C142.2 76.56 142.17 76.64 142.15 76.72C142.11 76.89 141.97 76.99 141.85 77.08C141.78 77.14 141.68 77.13 141.6 77.08C141.46 77.01 141.27 77.01 141.14 77.09C140.98 76.96 141.17 76.87 141.19 76.75C141.17 76.74 141.14 76.72 141.11 76.7V76.68C141.16 76.53 141.16 76.51 141.14 76.33C141.14 76.22 141.14 76.11 141.14 76.01C141.14 75.78 141.12 75.54 141.11 75.3V75.28C141.17 74.96 141.07 74.66 141.04 74.35C141.02 74.21 140.79 73.93 140.62 73.9C140.53 73.88 140.44 73.87 140.36 73.84C140.17 73.77 139.96 73.71 139.79 73.6C139.61 73.5 139.41 73.51 139.23 73.44C139.09 73.39 138.93 73.4 138.77 73.39C138.67 73.39 138.55 73.41 138.46 73.34C138.46 73.34 138.45 73.34 138.44 73.34C138.28 73.37 138.12 73.37 137.96 73.36C137.85 73.36 137.74 73.36 137.63 73.39C137.54 73.41 137.45 73.45 137.36 73.46C137.29 73.47 137.21 73.46 137.13 73.48C137.06 73.49 136.99 73.44 136.93 73.51C136.92 73.52 136.88 73.5 136.85 73.5C136.68 73.49 136.51 73.45 136.34 73.47C136.16 73.49 135.98 73.54 135.8 73.47C135.79 73.47 135.76 73.47 135.75 73.47C135.58 73.6 135.4 73.49 135.22 73.49C135.14 73.49 135.06 73.47 134.98 73.46C134.94 73.46 134.89 73.46 134.86 73.43C134.78 73.38 134.72 73.39 134.64 73.46C134.55 73.53 134.43 73.59 134.33 73.49C134.28 73.53 134.24 73.55 134.2 73.58C134.11 73.44 134.02 73.57 133.95 73.6C133.83 73.66 133.71 73.65 133.59 73.68C133.34 73.76 133.08 73.78 132.84 73.89C132.71 73.95 132.56 73.98 132.41 74.01C132.33 74.02 132.25 74.01 132.17 73.99C131.99 73.94 131.82 73.99 131.69 74.13C131.59 74.24 131.55 74.39 131.48 74.51C131.38 74.67 131.34 74.85 131.23 75.01C131.19 75.08 131.16 75.16 131.17 75.26C131.18 75.39 131.18 75.53 131.06 75.63C131.04 75.65 131.03 75.68 131.02 75.71C130.97 75.9 130.92 76.08 130.89 76.28C130.86 76.47 130.88 76.68 130.75 76.86C130.72 76.89 130.74 76.95 130.72 77C130.71 77.05 130.68 77.1 130.65 77.18C130.61 77.1 130.58 77.06 130.55 76.99L130.53 77.07ZM138.06 72.26C138.06 72.26 137.99 72.18 137.95 72.14C137.91 72.19 137.88 72.23 137.85 72.26C137.85 72.27 137.87 72.28 137.87 72.29C137.93 72.28 137.98 72.27 138.06 72.25V72.26ZM137.67 72.16C137.67 72.22 137.67 72.25 137.68 72.3C137.75 72.27 137.81 72.25 137.79 72.16H137.67ZM137.95 72.62C137.95 72.62 137.88 72.68 137.85 72.71C137.92 72.72 137.97 72.73 137.95 72.62ZM139.46 73.5C139.46 73.5 139.51 73.51 139.52 73.5C139.54 73.5 139.56 73.48 139.57 73.47C139.54 73.47 139.51 73.48 139.45 73.49L139.46 73.5Z" fill="white"/>
<path fill-rule="evenodd" clip-rule="evenodd" d="M138.5 71.94C138.35 71.94 138.19 71.92 138.04 71.91C138.04 71.9 138.04 71.88 138.04 71.87C138.2 71.81 138.35 71.89 138.5 71.94Z" fill="white"/>
<path fill-rule="evenodd" clip-rule="evenodd" d="M137.85 71.8701C137.74 71.9301 137.63 71.9501 137.49 71.8701H137.85Z" fill="white"/>
<path fill-rule="evenodd" clip-rule="evenodd" d="M139.06 71.9999C138.95 71.9899 138.85 71.9799 138.74 71.9699C138.74 71.9599 138.74 71.9499 138.74 71.9399C138.84 71.9499 138.95 71.9599 139.06 71.9699C139.06 71.9799 139.06 71.9999 139.06 72.0099V71.9999Z" fill="white"/>
<path fill-rule="evenodd" clip-rule="evenodd" d="M140.061 72.15C140.001 72.14 139.951 72.13 139.881 72.11C139.948 72.0966 140.008 72.11 140.061 72.15Z" fill="white"/>
<path fill-rule="evenodd" clip-rule="evenodd" d="M139.551 72.04C139.551 72.04 139.471 72.04 139.431 72.03C139.431 72.02 139.431 72 139.431 71.99C139.471 71.99 139.511 72.01 139.551 72.02V72.04Z" fill="white"/>
<path fill-rule="evenodd" clip-rule="evenodd" d="M137.04 71.9001C137.04 71.9001 136.98 71.8901 136.94 71.8801C136.94 71.8801 136.94 71.8601 136.94 71.8501C136.98 71.8501 137.01 71.8501 137.04 71.8601C137.04 71.8701 137.04 71.8901 137.03 71.9001H137.04Z" fill="white"/>
<path fill-rule="evenodd" clip-rule="evenodd" d="M172.14 84.1C172.14 84.1 172.1 84.17 172.03 84.14C171.84 84.06 171.63 83.99 171.42 83.92C171.21 83.85 171 83.78 170.79 83.72C170.56 83.65 170.33 83.57 170.09 83.53C169.69 83.48 169.31 83.34 168.92 83.23C168.72 83.17 168.51 83.17 168.31 83.12C168.11 83.07 167.9 83.08 167.69 83.06C167.38 83.02 167.06 83.03 166.75 82.92C166.68 82.89 166.6 82.91 166.52 82.91C166.49 82.91 166.47 82.91 166.45 82.91C166.27 82.87 166.1 82.91 165.92 82.91C165.71 82.9 165.53 82.98 165.35 83.07C165.26 83.11 165.17 83.14 165.09 83.2C165.02 83.24 164.96 83.31 164.87 83.38C164.77 83.36 164.68 83.4 164.66 83.55C164.56 83.57 164.45 83.59 164.43 83.72C164.43 83.75 164.38 83.77 164.35 83.78C164.21 83.82 164.09 83.91 163.93 83.86C163.88 83.85 163.81 83.91 163.76 83.93C163.58 83.84 163.47 83.65 163.24 83.61C163.16 83.37 163.09 83.11 163.21 82.85C163.27 82.72 163.21 82.61 163.23 82.49C163.25 82.35 163.31 82.23 163.39 82.12C163.42 82.08 163.49 82.08 163.55 82.05C163.58 82 163.6 81.92 163.64 81.87C163.7 81.81 163.79 81.79 163.84 81.73C163.96 81.59 164.16 81.51 164.14 81.28C164.3 81.26 164.34 81.14 164.41 81.03C164.49 80.9 164.46 80.76 164.44 80.63C164.42 80.55 164.43 80.5 164.48 80.44C164.52 80.39 164.55 80.31 164.54 80.25C164.53 80.17 164.54 80.11 164.59 80.06C164.62 80.02 164.66 79.97 164.68 79.92C164.7 79.82 164.76 79.77 164.86 79.75C164.88 79.75 164.89 79.74 164.91 79.72C165.1 79.55 165.18 79.54 165.34 79.71C165.37 79.7 165.41 79.69 165.44 79.68C165.45 79.69 165.47 79.7 165.47 79.72C165.53 79.82 165.59 79.92 165.71 79.97C165.72 79.97 165.74 79.97 165.74 79.98C165.77 80.06 165.81 80.13 165.82 80.21C165.83 80.3 165.98 80.27 165.96 80.39C165.95 80.46 165.96 80.53 165.94 80.6C165.9 80.75 165.9 80.76 165.99 80.89C165.96 80.92 165.94 80.97 165.9 80.99C165.86 81.01 165.86 81.03 165.86 81.07C165.86 81.19 165.85 81.23 165.76 81.32C165.79 81.39 165.82 81.42 165.92 81.42C166.12 81.42 166.32 81.46 166.52 81.47C166.6 81.47 166.68 81.46 166.75 81.47C166.84 81.47 166.93 81.5 167.01 81.52C167.17 81.56 167.34 81.61 167.51 81.66C167.53 81.66 167.56 81.68 167.58 81.68C167.82 81.64 168.05 81.73 168.29 81.73C168.5 81.73 168.71 81.77 168.92 81.81C169.07 81.84 169.23 81.84 169.36 81.93C169.4 81.96 169.46 81.96 169.51 81.97C169.67 82 169.82 82.03 170.03 82.06C170.13 82.04 170.16 81.93 170.15 81.8C170.15 81.64 170.13 81.49 170.12 81.34C170.12 81.26 170.1 81.18 170.12 81.1C170.15 80.86 170.01 80.81 169.83 80.86C169.63 80.92 169.43 80.98 169.24 81.03C169.18 81.05 169.1 81.03 169.05 81.05C168.95 81.09 168.85 81.14 168.75 81.2C168.64 81.26 168.53 81.31 168.43 81.37C168.38 81.4 168.33 81.45 168.27 81.49C168.18 81.47 168.05 81.37 168 81.58C167.89 81.55 167.8 81.54 167.72 81.5C167.59 81.44 167.49 81.52 167.35 81.53C167.34 81.48 167.31 81.42 167.32 81.37C167.34 81.25 167.32 81.13 167.31 81C167.3 80.9 167.32 80.8 167.33 80.71C167.33 80.67 167.33 80.63 167.33 80.59C167.27 80.43 167.31 80.29 167.42 80.16C167.48 80.09 167.51 79.98 167.63 79.97C167.66 79.97 167.68 79.91 167.7 79.87C167.78 79.88 167.85 79.91 167.91 79.83C167.93 79.81 167.99 79.83 168.03 79.83C168.21 79.83 168.39 79.86 168.57 79.86C168.84 79.86 169.11 79.86 169.38 79.86C169.58 79.86 169.78 79.85 169.98 79.84C170.06 79.84 170.12 79.77 170.13 79.67C170.14 79.55 170.14 79.44 170.14 79.32C170.14 79.27 170.14 79.23 170.12 79.18C170.08 79.05 170.06 79.04 169.93 79.07C169.61 79.12 169.3 79.16 168.98 79.22C168.85 79.24 168.73 79.29 168.61 79.34C168.57 79.36 168.54 79.42 168.53 79.44C168.43 79.47 168.35 79.5 168.27 79.53C168.22 79.54 168.17 79.54 168.11 79.55C168.08 79.55 168.03 79.53 168.01 79.55C167.94 79.6 167.88 79.6 167.81 79.55C167.73 79.49 167.63 79.46 167.59 79.35C167.55 79.2 167.49 79.04 167.48 78.89C167.48 78.77 167.55 78.64 167.59 78.52C167.61 78.47 167.65 78.42 167.68 78.35C167.74 78.34 167.81 78.35 167.86 78.26C167.91 78.19 168.01 78.14 168.1 78.12C168.39 78.05 168.67 77.98 168.97 77.94C169.13 77.92 169.3 77.9 169.48 77.93C169.64 77.96 169.81 77.92 169.98 77.91C170.02 77.91 170.07 77.9 170.12 77.89C170.22 77.8 170.19 77.69 170.16 77.58C170.12 77.41 170.11 77.23 170.08 77.06C169.95 77.05 169.86 77.08 169.76 77.14C169.66 77.2 169.54 77.24 169.43 77.3C169.35 77.33 169.28 77.38 169.2 77.4C169.02 77.43 168.83 77.45 168.65 77.46C168.56 77.46 168.5 77.48 168.43 77.54C168.32 77.64 168.18 77.74 168.04 77.77C167.9 77.79 167.73 77.74 167.6 77.68C167.46 77.61 167.37 77.48 167.34 77.32C167.33 77.25 167.28 77.19 167.25 77.13C167.23 77.09 167.18 77.04 167.19 77.01C167.22 76.85 167.19 76.68 167.28 76.54C167.32 76.48 167.32 76.4 167.36 76.35C167.4 76.29 167.46 76.21 167.53 76.18C167.6 76.15 167.67 76.15 167.76 76.2C167.88 76.26 168.03 76.29 168.18 76.24C168.23 76.22 168.3 76.21 168.35 76.22C168.68 76.25 169 76.24 169.33 76.21C169.35 76.21 169.36 76.21 169.4 76.19C169.31 76.1 169.33 75.95 169.18 75.9C169.15 75.79 168.98 75.72 169.08 75.56C168.9 75.5 168.72 75.64 168.58 75.5C168.43 75.63 168.28 75.69 168.1 75.73C167.81 75.8 167.59 75.69 167.38 75.55C167.26 75.47 167.17 75.34 167.21 75.17C167.21 75.13 167.21 75.09 167.19 75.05C167.15 74.96 167.17 74.88 167.22 74.8C167.31 74.69 167.38 74.57 167.47 74.45C167.57 74.33 167.69 74.25 167.84 74.2C167.99 74.15 168.14 74.1 168.28 74.04C168.38 74 168.5 73.98 168.62 73.99C168.78 73.99 168.94 73.94 169.1 73.92C169.17 73.92 169.25 73.92 169.32 73.91C169.33 73.91 169.36 73.91 169.36 73.91C169.36 73.94 169.34 73.99 169.4 73.98C169.42 73.98 169.43 73.93 169.46 73.93C169.5 73.91 169.58 73.9 169.58 73.91C169.64 74.02 169.7 73.91 169.77 73.91C169.82 74.02 169.9 74.05 170.02 74C170.08 73.97 170.17 74 170.27 74C170.26 73.9 170.24 73.8 170.22 73.7C170.22 73.66 170.22 73.61 170.22 73.56C170.22 73.53 170.24 73.5 170.22 73.48C170.16 73.34 170.15 73.2 170.13 73.06C170.11 72.92 170.05 72.9 169.93 72.96C169.81 73.03 169.66 72.99 169.54 73.02C169.51 73.02 169.48 73.02 169.45 73.02C169.36 73.05 169.26 73.13 169.16 73.13C169.06 73.13 168.98 73.15 168.89 73.18C168.74 73.23 168.58 73.25 168.44 73.13C168.32 73.03 168.19 72.94 168.07 72.82C167.93 72.69 167.88 72.52 167.94 72.33C167.97 72.21 168.01 72.09 168.04 71.97C168.05 71.94 168.08 71.91 168.1 71.89C168.17 71.81 168.26 71.74 168.32 71.65C168.41 71.53 168.53 71.48 168.68 71.45C168.8 71.43 168.92 71.39 169.04 71.39C169.14 71.39 169.26 71.37 169.31 71.48C169.5 71.49 169.65 71.28 169.81 71.45C169.88 71.41 169.9 71.33 170 71.39C170.03 71.41 170.14 71.37 170.2 71.33C170.26 71.29 170.25 71.21 170.2 71.15C170.17 71.1 170.15 71.05 170.12 71.01C169.98 70.83 170 70.63 170.16 70.48C170.22 70.43 170.26 70.38 170.25 70.3C170.25 70.27 170.28 70.24 170.3 70.22C170.38 70.16 170.46 70.11 170.56 70.08C170.65 70.05 170.74 69.99 170.85 69.99C170.9 69.99 170.95 69.99 170.99 70.01C171.13 70.06 171.27 70.12 171.4 70.19C171.5 70.25 171.58 70.33 171.66 70.41C171.69 70.43 171.69 70.48 171.69 70.52C171.7 70.77 171.83 70.99 171.87 71.22C171.87 71.24 171.89 71.25 171.89 71.27C171.92 71.39 171.97 71.5 172.09 71.56C172.22 71.49 172.36 71.53 172.5 71.56C172.6 71.57 172.68 71.58 172.77 71.54C172.87 71.49 172.96 71.56 173.03 71.6C173.1 71.64 173.15 71.67 173.23 71.59C173.29 71.73 173.41 71.7 173.5 71.71C173.56 71.71 173.61 71.71 173.62 71.78C173.62 71.8 173.65 71.82 173.67 71.82C173.76 71.83 173.83 71.91 173.9 71.93C174.06 71.98 174.12 72.12 174.24 72.21C174.25 72.21 174.26 72.24 174.26 72.26C174.28 72.32 174.29 72.39 174.31 72.45C174.23 72.54 174.15 72.64 174.05 72.73C174 72.77 173.92 72.78 173.85 72.8C173.85 72.83 173.83 72.86 173.82 72.9C173.67 72.91 173.54 72.83 173.41 72.83C173.29 72.83 173.16 72.8 173.03 72.85C172.91 72.89 172.77 72.9 172.63 72.94C172.61 72.86 172.6 72.81 172.58 72.75C172.54 72.75 172.49 72.73 172.45 72.75C172.18 72.82 171.91 72.86 171.62 72.85C171.61 72.89 171.58 72.93 171.58 72.98C171.58 73.03 171.55 73.06 171.53 73.1C171.5 73.19 171.49 73.3 171.48 73.4C171.48 73.43 171.48 73.47 171.47 73.5C171.43 73.61 171.37 73.71 171.34 73.82C171.32 73.89 171.33 73.98 171.35 74.05C171.37 74.09 171.44 74.11 171.48 74.14C171.5 74.12 171.52 74.12 171.52 74.11C171.553 74.05 171.613 74.0333 171.7 74.06C171.7 74.06 171.72 74.07 171.73 74.07C171.79 74.07 171.85 74.07 171.91 74.09C171.95 74.11 171.99 74.15 172.04 74.19C172.08 74.12 172.1 74 172.21 74.09C172.28 73.99 172.43 74.08 172.5 73.97C172.5 73.96 172.57 73.97 172.6 73.98C172.65 74.01 172.7 74.04 172.77 74.09C172.79 74.06 172.81 74.02 172.82 74.01C172.96 74.03 173.09 74.02 173.19 74.08C173.35 74.16 173.51 74.14 173.67 74.18C173.8 74.22 173.94 74.23 174.08 74.29C174.12 74.31 174.2 74.29 174.24 74.26C174.32 74.21 174.4 74.2 174.49 74.24C174.51 74.24 174.52 74.26 174.54 74.26C174.76 74.24 174.9 74.4 175.06 74.51C175.15 74.57 175.19 74.68 175.25 74.76C175.18 74.83 175.12 74.89 175.05 74.96C175.02 74.96 174.97 74.94 174.9 74.93C174.95 74.98 174.99 75.02 175.04 75.08C174.96 75.1 174.9 75.12 174.83 75.14C174.84 75.19 174.86 75.24 174.87 75.3C174.53 75.39 174.21 75.32 173.9 75.22C173.82 75.2 173.76 75.14 173.67 75.19C173.64 75.2 173.57 75.14 173.51 75.1C173.41 75.13 173.29 75.17 173.17 75.2C173.12 75.33 173.06 75.46 172.93 75.53C172.83 75.59 172.75 75.69 172.66 75.77C172.65 75.79 172.63 75.8 172.61 75.81C172.52 75.87 172.43 75.92 172.34 75.98C172.27 76.02 172.21 76.07 172.15 76.11C172.15 76.12 172.15 76.13 172.15 76.15C172.31 76.19 172.46 76.22 172.61 76.25C172.74 76.27 172.87 76.28 173 76.29C173.1 76.31 173.21 76.34 173.31 76.34C173.49 76.34 173.66 76.38 173.83 76.43C173.99 76.48 174.15 76.51 174.31 76.55C174.38 76.57 174.46 76.58 174.49 76.68C174.37 76.68 174.35 76.8 174.29 76.86C174.32 76.91 174.37 76.95 174.37 77.01C174.37 77.05 174.33 77.09 174.3 77.12C174.28 77.15 174.26 77.17 174.24 77.2C174.19 77.32 174.14 77.44 173.99 77.47C173.97 77.47 173.95 77.51 173.93 77.53C173.85 77.53 173.77 77.45 173.69 77.53C173.69 77.53 173.66 77.53 173.64 77.53C173.44 77.41 173.2 77.41 172.97 77.36C172.7 77.31 172.44 77.26 172.17 77.21C172.03 77.18 171.89 77.15 171.75 77.14C171.58 77.14 171.44 77.27 171.5 77.44C171.52 77.51 171.55 77.58 171.58 77.66C171.58 77.66 171.58 77.67 171.58 77.68C171.52 77.74 171.48 77.8 171.52 77.88C171.56 77.95 171.63 77.96 171.7 77.96C171.81 77.97 171.91 78.01 172.01 78.02C172.25 78.05 172.49 78.09 172.73 78.05C172.8 78.04 172.87 78.05 172.94 78.05C173.11 78.06 173.28 78.08 173.45 78.11C173.71 78.16 173.95 78.27 174.15 78.44C174.2 78.49 174.2 78.6 174.23 78.67C174.13 78.78 174.01 78.84 173.98 78.98C173.98 79 173.94 79.02 173.93 79.02C173.8 79.01 173.77 79.11 173.72 79.21C173.55 79.19 173.39 79.21 173.23 79.3C173.2 79.32 173.14 79.3 173.09 79.3C172.99 79.27 172.89 79.25 172.81 79.2C172.62 79.09 172.41 79.08 172.2 79.12C172.08 79.14 172 79.12 171.89 79.05C171.89 79.09 171.88 79.11 171.87 79.15C171.8 79.12 171.69 79.15 171.71 78.98C171.64 79.04 171.59 79.07 171.55 79.11C171.53 79.11 171.51 79.11 171.49 79.1C171.33 79.05 171.32 79.06 171.3 79.22C171.3 79.28 171.27 79.33 171.26 79.39C171.26 79.53 171.25 79.67 171.23 79.82C171.26 79.83 171.3 79.84 171.35 79.86V79.68C171.35 79.68 171.37 79.68 171.38 79.68C171.38 79.74 171.4 79.79 171.41 79.86C171.44 79.87 171.49 79.89 171.54 79.9C171.87 79.92 172.2 79.94 172.53 79.95C172.65 79.95 172.77 79.94 172.88 79.95C173.07 79.97 173.25 80.01 173.43 80.03C173.53 80.04 173.62 80.05 173.72 80.06C173.89 80.07 174.06 80.15 174.23 80.11C174.26 80.11 174.32 80.11 174.35 80.18C174.38 80.23 174.49 80.26 174.56 80.26C174.68 80.26 174.76 80.33 174.86 80.37C174.86 80.42 174.87 80.47 174.88 80.52C174.8 80.6 174.71 80.65 174.61 80.58C174.61 80.66 174.62 80.74 174.59 80.78C174.55 80.83 174.58 80.97 174.46 80.91C174.45 80.99 174.43 81.05 174.43 81.09C174.36 81.15 174.26 81.05 174.26 81.16C174.18 81.16 174.1 81.16 174.02 81.14C173.91 81.12 173.8 81.1 173.7 81.08C173.56 81.05 173.42 81.02 173.28 81C172.96 80.95 172.64 80.96 172.33 80.94C172.16 80.93 171.99 80.94 171.81 80.9C171.65 80.86 171.46 80.86 171.3 80.94C171.29 81.01 171.27 81.06 171.27 81.12C171.27 81.15 171.27 81.21 171.28 81.22C171.37 81.24 171.31 81.29 171.3 81.31C171.19 81.44 171.15 81.58 171.19 81.75C171.19 81.76 171.19 81.79 171.19 81.79C171.13 81.85 171.11 81.91 171.19 81.99C171.2 82 171.19 82.05 171.17 82.09C171.14 82.16 171.12 82.23 171.07 82.33C171.31 82.32 171.49 82.47 171.71 82.46C171.79 82.46 171.87 82.49 171.94 82.56C172.01 82.63 172.12 82.66 172.21 82.71C172.31 82.76 172.42 82.78 172.52 82.83C172.63 82.88 172.74 82.9 172.86 82.89C172.86 82.86 172.86 82.83 172.86 82.81C173.08 82.81 173.27 82.91 173.49 82.91C173.64 82.91 173.8 82.96 173.93 83.1H173.78C173.78 83.1 173.78 83.12 173.78 83.14C173.92 83.2 174.06 83.29 174.24 83.25C174.31 83.23 174.4 83.23 174.47 83.22C174.65 83.19 174.65 83.19 174.77 83.06C174.87 83.17 174.98 83.21 175.12 83.15C175.24 83.1 175.35 83.17 175.46 83.21C175.52 83.23 175.58 83.24 175.64 83.27C175.88 83.36 176.14 83.27 176.38 83.37C176.48 83.41 176.6 83.39 176.71 83.4C176.75 83.4 176.81 83.4 176.85 83.4C176.95 83.44 177.03 83.41 177.11 83.34C177.08 83.33 177.05 83.31 177.02 83.3V83.28H177.18C177.21 83.41 177.24 83.43 177.37 83.38C177.5 83.33 177.62 83.3 177.73 83.41C177.75 83.43 177.78 83.46 177.78 83.48C177.78 83.6 177.78 83.72 177.74 83.83C177.71 83.92 177.65 84.02 177.59 84.09C177.44 84.26 177.3 84.43 177.09 84.53C176.89 84.62 176.73 84.76 176.51 84.81C176.46 84.93 176.33 84.89 176.24 84.94C176.16 84.99 176.04 84.97 175.96 85.01C175.81 85.07 175.67 85.15 175.53 85.22C175.48 85.24 175.43 85.26 175.38 85.26C175.16 85.27 174.95 85.31 174.78 85.46C174.68 85.55 174.54 85.54 174.41 85.46C174.37 85.44 174.33 85.43 174.28 85.42C174.09 85.39 173.9 85.36 173.78 85.2C173.77 85.18 173.74 85.15 173.73 85.15C173.57 85.18 173.48 85.06 173.37 84.98C173.25 84.9 173.13 84.82 173.02 84.74C172.99 84.72 172.98 84.69 172.96 84.68C172.68 84.63 172.5 84.37 172.24 84.3C172.15 84.27 172.12 84.21 172.1 84.13C172.14 84.14 172.17 84.16 172.2 84.17C172.2 84.15 172.2 84.14 172.2 84.12C172.16 84.12 172.13 84.13 172.09 84.14L172.14 84.1ZM171.05 75.01C170.91 75.11 170.91 75.1 170.76 75.08C170.68 75.07 170.6 75.07 170.52 75.08C170.45 75.09 170.41 75.14 170.42 75.22C170.42 75.31 170.49 75.4 170.43 75.49C170.52 75.68 170.44 75.89 170.47 76.09C170.61 76.07 170.75 76.17 170.89 76.07C170.9 76.06 170.94 76.07 170.96 76.07C171.18 76.09 171.25 76.04 171.34 75.85C171.42 75.68 171.5 75.52 171.59 75.36C171.64 75.27 171.69 75.19 171.74 75.11C171.64 74.98 171.55 75.08 171.45 75.1C171.45 75.08 171.44 75.06 171.43 75.05C171.43 75.03 171.41 75.02 171.39 75C171.27 75.13 171.18 75.13 171.04 75L171.05 75.01ZM173.52 83.05C173.46 83.03 173.41 83.01 173.35 82.99C173.39 83.06 173.43 83.12 173.52 83.05ZM173.72 83.1C173.72 83.1 173.69 83.09 173.68 83.09C173.68 83.11 173.67 83.14 173.66 83.16C173.66 83.16 173.68 83.16 173.69 83.17C173.69 83.15 173.71 83.12 173.72 83.1Z" fill="white"/>
<path fill-rule="evenodd" clip-rule="evenodd" d="M163.35 75.9601C163.32 75.8701 163.35 75.8201 163.41 75.7601C163.55 75.6301 163.7 75.5001 163.84 75.3601C163.9 75.3001 163.91 75.2301 163.88 75.1501C163.88 75.1301 163.89 75.1001 163.9 75.0701C163.93 75.0801 163.96 75.0901 164 75.1101C163.98 74.9801 164.14 75.0101 164.17 74.9101C164.46 74.7801 164.63 74.5201 164.84 74.3201C164.87 74.3001 164.89 74.2601 164.92 74.2501C165.06 74.2001 165.09 74.0901 165.11 73.9701C165.14 73.8201 165.18 73.6701 165.2 73.5201C165.21 73.4401 165.26 73.3901 165.32 73.3301C165.49 73.1601 165.7 73.0901 165.92 73.0801C165.97 73.0801 166.05 73.1101 166.08 73.1501C166.16 73.2701 166.25 73.4001 166.27 73.5401C166.29 73.6201 166.34 73.6701 166.35 73.7401C166.37 73.8601 166.38 73.9801 166.4 74.1101C166.4 74.1101 166.38 74.1301 166.37 74.1401C166.33 74.1901 166.32 74.2401 166.34 74.3001C166.35 74.3601 166.34 74.4201 166.34 74.4801C166.34 74.5401 166.32 74.5801 166.26 74.6001C166.21 74.6201 166.15 74.6601 166.13 74.7001C166.1 74.7601 166.05 74.7801 166.01 74.8201C165.79 75.0101 165.5 75.0301 165.25 75.1501C165.21 75.1701 165.15 75.1701 165.12 75.2001C164.92 75.3401 164.7 75.3801 164.46 75.3901C164.38 75.3901 164.33 75.4201 164.28 75.4801C164.19 75.5901 164.07 75.6801 163.92 75.7201C163.72 75.7801 163.53 75.8601 163.33 75.9401L163.35 75.9601Z" fill="white"/>
<path fill-rule="evenodd" clip-rule="evenodd" d="M166.13 76.6501C166.06 76.7501 166.02 76.8701 165.93 76.9101C165.77 76.9801 165.66 77.1801 165.45 77.1601C165.41 77.1601 165.36 77.1701 165.33 77.1901C165.06 77.3601 164.75 77.3701 164.45 77.4001C164.35 77.4001 164.26 77.4601 164.17 77.4901C164.07 77.5201 163.96 77.5401 163.82 77.5701C163.82 77.5701 163.8 77.6001 163.78 77.6301C163.69 77.7901 163.57 77.8701 163.38 77.8801C163.24 77.8901 163.1 77.9201 163 78.0501C162.96 78.0901 162.91 78.1301 162.86 78.1701C162.78 78.2301 162.72 78.2001 162.68 78.1201C162.59 77.9101 162.67 77.7001 162.87 77.5801C162.95 77.5301 163.01 77.4601 163.1 77.4101C163.17 77.3701 163.25 77.3501 163.32 77.3401C163.42 77.3201 163.52 77.3301 163.61 77.3201C163.64 77.3201 163.67 77.3001 163.7 77.2801C163.8 77.2001 163.9 77.1201 164.03 77.0801C164.11 77.0601 164.21 77.0301 164.27 76.9401C164.29 76.9001 164.35 76.8801 164.39 76.8701C164.6 76.8301 164.72 76.6701 164.88 76.5601C164.95 76.5101 165.02 76.4501 165.05 76.3801C165.13 76.2201 165.25 76.0901 165.36 75.9501C165.44 75.8601 165.67 75.8301 165.8 75.9201C165.87 75.9701 165.94 76.0301 165.98 76.1101C166.05 76.2501 166.14 76.3901 166.1 76.5601C166.1 76.5801 166.13 76.6101 166.14 76.6401L166.13 76.6501Z" fill="white"/>
<path fill-rule="evenodd" clip-rule="evenodd" d="M163.97 79.55C163.9 79.64 163.85 79.71 163.8 79.78C163.8 79.75 163.79 79.72 163.77 79.68C163.72 79.72 163.63 79.68 163.64 79.79C163.64 79.81 163.54 79.85 163.46 79.89C163.51 79.75 163.46 79.62 163.6 79.54C163.62 79.59 163.63 79.62 163.65 79.67C163.87 79.61 163.93 79.51 163.87 79.33C164.05 79.22 164.24 79.12 164.41 79C164.64 78.84 164.85 78.65 165.07 78.48C165.09 78.46 165.12 78.44 165.13 78.41C165.19 78.27 165.26 78.13 165.33 77.99C165.35 77.95 165.39 77.91 165.42 77.9C165.56 77.85 165.7 77.86 165.84 77.89C165.96 77.92 165.97 78.04 166.02 78.12C166.08 78.2 166.11 78.3 166.15 78.39C166.17 78.43 166.18 78.49 166.16 78.51C166.06 78.63 166.07 78.84 165.87 78.9C165.8 79.04 165.66 79.07 165.54 79.13C165.42 79.18 165.3 79.26 165.18 79.33C165.14 79.35 165.1 79.36 165.06 79.37C164.98 79.4 164.9 79.44 164.82 79.47C164.81 79.47 164.8 79.49 164.79 79.49C164.62 79.46 164.53 79.6 164.4 79.67C164.37 79.69 164.32 79.68 164.28 79.67C164.18 79.64 164.1 79.6 164.01 79.56C163.99 79.55 163.95 79.56 163.94 79.55H163.97Z" fill="white"/>
<path fill-rule="evenodd" clip-rule="evenodd" d="M163.771 79.5099V79.4199H163.801C163.801 79.4199 163.801 79.4899 163.801 79.5199C163.791 79.5199 163.771 79.5199 163.771 79.5199V79.5099Z" fill="white"/>
<path fill-rule="evenodd" clip-rule="evenodd" d="M171.311 79.59C171.311 79.59 171.341 79.53 171.351 79.5C171.351 79.5 171.381 79.51 171.381 79.52C171.381 79.55 171.361 79.58 171.361 79.61C171.351 79.61 171.331 79.61 171.311 79.59Z" fill="white"/>
<path d="M120.29 73.0098L120 73.4698C119.7 73.2398 119.24 73.0098 118.64 72.7898C118.61 72.7898 118.58 72.7698 118.55 72.7598L118.84 72.3498C119.49 72.5698 119.97 72.7898 120.29 73.0198V73.0098ZM120.12 74.1898L120.53 74.5398C120.15 75.3398 119.74 76.1198 119.28 76.8898L118.82 76.5298C119.31 75.7598 119.75 74.9798 120.12 74.1898ZM120.67 71.0998L120.36 71.5398C120.06 71.2898 119.64 71.0398 119.1 70.8098C119.04 70.7898 118.99 70.7698 118.94 70.7498L119.23 70.3498C119.83 70.5698 120.29 70.8098 120.61 71.0598C120.63 71.0798 120.65 71.0898 120.66 71.0998H120.67ZM125.29 76.6998L124.78 76.9898C124.72 76.8298 124.62 76.6198 124.47 76.3698C123.16 76.4698 121.87 76.5598 120.59 76.6398L120.5 76.0998L121.11 76.0698C121.44 75.3998 121.74 74.6698 121.99 73.8698H120.5V73.3498H122.53V72.0198H120.87V71.5098H122.53V70.3198H123.09V71.5098H124.82V72.0198H123.09V73.3498H125.17V73.8698H122.64C122.27 74.7998 121.96 75.5198 121.71 76.0298C122.25 76.0098 123.08 75.9598 124.2 75.8798C123.95 75.4998 123.7 75.1598 123.44 74.8498L123.9 74.6098C124.43 75.2298 124.85 75.8398 125.16 76.4398C125.21 76.5398 125.26 76.6198 125.29 76.6998Z" fill="white" stroke="white" stroke-width="0.36" stroke-miterlimit="10"/>
<path d="M118.87 77.9399H124.93V84.2899H124.4V83.9499H119.39V84.2899H118.87V77.9399ZM119.39 83.4599H124.4V78.4299H119.39V83.4599ZM121.9 81.9699L121.92 82.3599C121.72 82.3999 121.42 82.4599 121.02 82.5299C120.44 82.6399 120.02 82.7199 119.79 82.7699L119.72 82.3599C119.94 82.3299 120.35 82.2599 120.95 82.1499C121.37 82.0699 121.68 82.0199 121.9 81.9799V81.9699ZM123.29 80.1299L123.73 80.2299C123.55 80.8999 123.28 81.4899 122.92 82.0099C123.1 82.4199 123.29 82.6499 123.51 82.6899C123.61 82.7099 123.68 82.4599 123.74 81.9299C123.85 82.0299 123.97 82.1199 124.09 82.1699C124 82.9399 123.76 83.2499 123.37 83.1099C123.07 83.0399 122.82 82.8099 122.61 82.3999C122.33 82.7099 122.01 82.9899 121.65 83.2299C121.56 83.0999 121.45 82.9899 121.33 82.8899C121.76 82.6399 122.13 82.3199 122.44 81.9299C122.26 81.4199 122.13 80.6999 122.03 79.7799H119.8V79.3699H122C121.97 79.0299 121.95 78.7699 121.94 78.5899H122.41C122.41 78.7699 122.43 79.0299 122.45 79.3699H124.04V79.7799H122.49C122.55 80.4299 122.64 80.9899 122.76 81.4599C123 81.0599 123.18 80.6099 123.3 80.1099L123.29 80.1299ZM120.05 80.2599H121.66V81.6699H120.05V80.2599ZM121.27 81.3299V80.5999H120.43V81.3299H121.27ZM123.85 79.0299L123.59 79.3199C123.39 79.1199 123.15 78.9599 122.84 78.8199C122.83 78.8199 122.81 78.8199 122.8 78.8099L123.06 78.5399C123.4 78.6999 123.66 78.8599 123.84 79.0399L123.85 79.0299Z" fill="white" stroke="white" stroke-width="0.36" stroke-miterlimit="10"/>
</g>
</g>
</g>
<defs>
<filter id="filter0_d_226_20443" x="0.473633" y="0" width="239" height="160" filterUnits="userSpaceOnUse" color-interpolation-filters="sRGB">
<feFlood flood-opacity="0" result="BackgroundImageFix"/>
<feColorMatrix in="SourceAlpha" type="matrix" values="0 0 0 0 0 0 0 0 0 0 0 0 0 0 0 0 0 0 127 0" result="hardAlpha"/>
<feOffset dy="1"/>
<feGaussianBlur stdDeviation="10"/>
<feComposite in2="hardAlpha" operator="out"/>
<feColorMatrix type="matrix" values="0 0 0 0 0 0 0 0 0 0 0 0 0 0 0 0 0 0 0.08 0"/>
<feBlend mode="normal" in2="BackgroundImageFix" result="effect1_dropShadow_226_20443"/>
<feBlend mode="normal" in="SourceGraphic" in2="effect1_dropShadow_226_20443" result="shape"/>
</filter>
<clipPath id="clip0_226_20443">
<rect x="20.4736" y="19" width="199" height="120" rx="7.02062" fill="white"/>
</clipPath>
<clipPath id="clip1_226_20443">
<rect width="139.6" height="36.21" fill="white" transform="translate(50 61)"/>
</clipPath>
</defs>
</svg>
