<svg width="240" height="160" viewBox="0 0 240 160" fill="none" xmlns="http://www.w3.org/2000/svg">
<g filter="url(#filter0_d_226_20972)">
<g clip-path="url(#clip0_226_20972)">
<rect x="20.4736" y="19" width="199" height="120" rx="7.02062" fill="white"/>
<rect x="20.4736" y="19" width="199" height="120" fill="white"/>
<g clip-path="url(#clip1_226_20972)">
<path d="M132.95 94.6299C132.85 95.2799 132.69 96.0299 132.56 96.5099C132.46 96.4699 132.22 96.4099 132.1 96.3699C132.26 95.8699 132.4 95.1499 132.48 94.5299L132.95 94.6299ZM134.54 94.1799C134.52 94.0599 134.48 93.9199 134.44 93.7799C132.74 94.0399 132.5 94.0999 132.36 94.1899C132.33 94.0699 132.24 93.8099 132.17 93.6499C132.33 93.6199 132.52 93.4199 132.76 93.1099C132.88 92.9699 133.15 92.6399 133.43 92.1899C132.59 92.2899 132.41 92.3299 132.3 92.3799C132.27 92.2599 132.18 91.9999 132.12 91.8399C132.25 91.8099 132.39 91.6399 132.54 91.3999C132.71 91.1699 133.25 90.2599 133.56 89.4099L134.1 89.6299C133.76 90.3699 133.34 91.1499 132.91 91.7499L133.77 91.6699C133.99 91.3199 134.2 90.9399 134.39 90.5699L134.87 90.8499C134.36 91.7899 133.72 92.7499 133.07 93.4899L134.31 93.3299C134.22 93.0599 134.13 92.7899 134.04 92.5599L134.46 92.4299C134.66 92.9399 134.9 93.6199 135 93.9999L134.56 94.1699L134.54 94.1799ZM133.7 94.4999C133.8 95.0299 133.89 95.7199 133.92 96.1799L133.46 96.2899C133.44 95.8199 133.36 95.1199 133.26 94.5799L133.7 94.4999ZM134.48 94.2999C134.67 94.7999 134.87 95.4299 134.96 95.8399L134.53 95.9899C134.45 95.5699 134.25 94.9299 134.07 94.4399L134.48 94.2999ZM139.18 96.0999C138.79 95.7499 138.07 95.2299 137.41 94.7799V96.1099C137.41 96.4099 137.35 96.5499 137.15 96.6499C136.96 96.7299 136.65 96.7499 136.21 96.7399C136.18 96.5899 136.11 96.3699 136.03 96.2199C136.35 96.2399 136.65 96.2199 136.74 96.2199C136.84 96.2199 136.86 96.1899 136.86 96.1099V94.8399C136.31 95.2799 135.74 95.6999 135.28 96.0499L134.95 95.5999C135.43 95.2999 136.15 94.7799 136.86 94.2699V92.9399H134.93V92.4099H137.72C137.76 92.2199 137.81 92.0199 137.86 91.8099H135.44C135.64 91.1799 135.9 90.1799 136.07 89.4199L136.63 89.4799C136.58 89.6799 136.53 89.8999 136.48 90.1199H138.24L138.34 90.0899L138.74 90.1499C138.63 90.7999 138.45 91.6799 138.29 92.4099H139.48V92.9399H137.43V94.2099L137.76 94.4199C138.06 94.0799 138.42 93.5999 138.63 93.2299L139.11 93.5199C138.8 93.9099 138.43 94.3499 138.12 94.6599C138.66 95.0199 139.19 95.3999 139.52 95.6799L139.19 96.1099L139.18 96.0999ZM136.1 94.5499C135.91 94.2799 135.49 93.8599 135.16 93.5599L135.5 93.2599C135.84 93.5399 136.25 93.9399 136.45 94.2099L136.11 94.5499H136.1ZM137.95 91.3299C138.01 91.0699 138.05 90.7999 138.09 90.5899H136.34C136.28 90.8499 136.21 91.1099 136.14 91.3299H137.94H137.95Z" fill="#00A7E1"/>
<path d="M143.679 89.5099C143.539 89.8999 143.399 90.3399 143.259 90.6899H144.589V95.8899H142.359V96.5199H141.819V90.6899H142.719C142.839 90.3099 142.979 89.7699 143.039 89.3899L143.679 89.5099ZM144.049 91.2299H142.369V92.8999H144.049V91.2299ZM144.049 95.3499V93.4299H142.369V95.3499H144.049ZM148.509 90.9699C148.379 94.6199 148.279 95.8599 147.959 96.2499C147.779 96.4699 147.599 96.5499 147.329 96.5699C147.049 96.5999 146.589 96.5899 146.139 96.5699C146.119 96.3899 146.049 96.1499 145.939 95.9899C146.459 96.0399 146.939 96.0399 147.129 96.0399C147.289 96.0399 147.379 96.0199 147.459 95.9199C147.729 95.6399 147.839 94.4199 147.949 91.2399H145.919C145.699 91.7799 145.449 92.2599 145.169 92.6399C145.069 92.5499 144.809 92.3799 144.679 92.2999C145.219 91.5999 145.649 90.4899 145.909 89.3899L146.479 89.5299C146.379 89.9199 146.269 90.3099 146.129 90.6799H148.529V90.9799L148.509 90.9699ZM146.739 94.5799C146.499 94.0999 145.959 93.3099 145.519 92.7299L145.979 92.4599C146.429 93.0299 146.979 93.7999 147.239 94.2699L146.739 94.5799Z" fill="#00A7E1"/>
<path d="M152.929 89.6199C152.759 90.1399 152.559 90.6699 152.339 91.1799V96.7299H151.799V92.2199C151.579 92.6299 151.319 92.9999 151.069 93.3199C151.009 93.1799 150.859 92.8599 150.779 92.7099C151.439 91.9099 152.049 90.6899 152.419 89.4599L152.929 89.6199ZM157.819 92.7299C157.509 92.9499 157.109 93.1799 156.739 93.3699C157.089 94.2399 157.709 95.1799 158.289 95.6399C158.159 95.7399 157.979 95.9399 157.879 96.0699C157.299 95.5199 156.709 94.5199 156.329 93.5699C156.219 93.6199 156.099 93.6799 155.979 93.7299C156.259 94.8799 156.089 96.0799 155.729 96.4299C155.519 96.6499 155.339 96.7099 155.019 96.7199C154.869 96.7199 154.649 96.7199 154.429 96.6999C154.429 96.5499 154.379 96.3299 154.299 96.1799C154.539 96.2099 154.759 96.2099 154.899 96.2099C155.079 96.2099 155.189 96.1899 155.299 96.0499C155.479 95.8799 155.619 95.2499 155.569 94.5299C154.899 95.1699 153.949 95.7799 153.119 96.1199C153.049 95.9899 152.929 95.7999 152.809 95.6799C153.769 95.3699 154.909 94.6499 155.499 93.9699C155.459 93.7799 155.409 93.5799 155.349 93.3899C154.749 93.9199 153.829 94.4899 153.109 94.8099C153.049 94.6799 152.929 94.4999 152.809 94.3899C153.609 94.1099 154.639 93.5099 155.169 92.9699C155.099 92.8299 155.029 92.6999 154.929 92.5699C154.399 92.9499 153.779 93.2899 153.189 93.5199C153.139 93.4099 152.979 93.2099 152.889 93.1099C153.649 92.8499 154.459 92.4499 155.009 91.9499H153.529V91.4799H157.239V91.9499H155.659C155.549 92.0699 155.429 92.1699 155.299 92.2899C155.539 92.5899 155.719 92.9399 155.849 93.3199C156.379 93.0399 156.999 92.6699 157.389 92.3899L157.809 92.7299H157.819ZM155.169 90.3099C155.109 90.0799 155.019 89.8099 154.929 89.5899L155.439 89.4399C155.559 89.7199 155.689 90.0599 155.769 90.3099H157.939V91.5999H157.369V90.7899H153.439V91.5999H152.899V90.3099H155.169Z" fill="#00A7E1"/>
<path d="M162.71 89.5899C162.49 90.1699 162.21 90.7599 161.89 91.2999V96.7099H161.32V92.1999C161.06 92.5699 160.78 92.8999 160.51 93.1799C160.45 93.0399 160.28 92.7299 160.17 92.5999C160.95 91.8199 161.69 90.6299 162.14 89.4099L162.7 89.5799L162.71 89.5899ZM164.49 95.3099C164.05 95.8599 163.34 96.3799 162.66 96.7399C162.57 96.6199 162.4 96.4399 162.29 96.3299C162.95 95.9899 163.63 95.4699 164.02 94.9899L164.49 95.3099ZM163.13 94.3399V89.7099H166.89V94.3399H167.63V94.8699H162.34V94.3399H163.13ZM163.7 90.2099V90.8899H166.3V90.2099H163.7ZM166.3 91.3199H163.7V92.0299H166.3V91.3199ZM163.7 92.4699V93.1799H166.3V92.4699H163.7ZM163.7 94.3399H166.3V93.6099H163.7V94.3399ZM165.92 94.9999C166.51 95.3899 167.27 95.9499 167.64 96.3199L167.24 96.7399C166.89 96.3599 166.14 95.7699 165.55 95.3599L165.93 94.9999H165.92Z" fill="#00A7E1"/>
<path d="M170.75 91.3999C170.54 91.6199 170.3 91.8399 170.05 92.0499C169.95 91.9199 169.76 91.7499 169.63 91.6699C170.5 90.9999 171.14 90.1099 171.49 89.4099L172.1 89.5199C171.96 89.7599 171.82 90.0299 171.64 90.2699H173.42C173.32 90.0399 173.19 89.7699 173.06 89.5499L173.6 89.3799C173.78 89.6599 173.97 90.0099 174.06 90.2699H176.42V90.7499H173.85V91.2899H176.1V91.7099H173.85V92.2399H176.13V92.6599H173.85V93.2099H176.69V93.6899H171.34V93.9299H170.76V91.3899L170.75 91.3999ZM172.49 95.4199C171.93 95.8599 170.9 96.2899 170.08 96.4799C170 96.3399 169.83 96.1399 169.71 96.0199C170.53 95.8699 171.52 95.5599 172.03 95.1999L172.49 95.4199ZM176.91 94.3099V94.7999H173.63V96.7199H173.05V94.7999H169.81V94.3099H173.05V93.7599H173.63V94.3099H176.91ZM173.28 90.7499H171.34V91.2899H173.28V90.7499ZM173.28 91.7099H171.34V92.2399H173.28V91.7099ZM173.28 92.6599H171.34V93.2099H173.28V92.6599ZM174.43 95.1399C175.21 95.3699 176.27 95.7299 176.83 95.9699L176.5 96.4099C175.96 96.1699 174.89 95.7799 174.1 95.5099L174.43 95.1299V95.1399Z" fill="#00A7E1"/>
<path d="M185.86 89.7798V96.6898H185.29V96.3098H179.98V96.7298H179.43V89.7798H185.86ZM185.29 95.8298V90.2498H179.98V95.8298H185.29ZM185.02 94.5198H183.87V95.2698C183.87 95.4998 183.82 95.5898 183.64 95.6398C183.46 95.6998 183.17 95.6998 182.69 95.6998C182.67 95.5898 182.6 95.4598 182.55 95.3598C182.87 95.3598 183.17 95.3598 183.25 95.3598C183.35 95.3598 183.37 95.3398 183.37 95.2598V94.5298H180.25V94.1598H183.37V93.8598H183.87V94.1598H185.02V94.5298V94.5198ZM182.36 91.1198H180.35V90.7498H182.36V90.3698H182.86V90.7498H184.91V91.1198H182.86V91.4598H184.63V93.0598H183.99C184.31 93.2798 184.68 93.6098 184.86 93.8398L184.52 94.0898C184.44 93.9798 184.33 93.8598 184.2 93.7398C182.81 93.7898 181.38 93.8298 180.39 93.8498L180.37 93.4698C180.9 93.4698 181.6 93.4698 182.37 93.4498V93.0498H180.67V91.4498H182.37V91.1098L182.36 91.1198ZM181.48 94.5598C181.74 94.7598 182.06 95.0698 182.19 95.2798L181.78 95.5198C181.65 95.2998 181.35 94.9798 181.09 94.7598L181.48 94.5598ZM181.13 92.1098H182.36V91.7698H181.13V92.1098ZM182.36 92.7598V92.4098H181.13V92.7598H182.36ZM182.86 91.7598V92.0998H184.13V91.7598H182.86ZM184.13 92.3998H182.86V92.7498H184.13V92.3998ZM183.85 93.4298C183.79 93.3698 183.72 93.3198 183.66 93.2798L183.98 93.0598H182.87V93.4498L183.85 93.4298Z" fill="#00A7E1"/>
<path d="M85.97 81.8199C86.25 81.9999 86.69 82.3499 86.91 82.5999C87.6 81.7899 88.09 80.7099 88.39 79.3699C88.62 78.3399 88.72 77.1799 88.72 75.8199V75.2399H90.42V75.3099C90.39 77.8499 90.33 78.7299 90.17 78.9599C90.07 79.1099 89.96 79.1699 89.75 79.1699C89.58 79.1699 89.24 79.1699 88.83 79.1199C88.98 79.4299 89.07 79.8299 89.1 80.1299C89.57 80.1499 90.04 80.1399 90.34 80.0999C90.68 80.0599 90.9 79.9399 91.09 79.6899C91.35 79.3199 91.41 78.0499 91.45 74.6599C91.46 74.5499 91.46 74.3399 91.46 74.2299H88.71V72.2599H92.11V72.3299C92.23 75.1699 92.46 77.3499 92.82 78.9999V79.0299L92.81 79.0499C92.03 80.1299 91.08 81.0199 89.98 81.6999C90.25 81.9299 90.65 82.3199 90.84 82.5599C91.67 81.9999 92.43 81.2999 93.1 80.4899L93.17 80.3999L93.21 80.5099C93.7 81.8099 94.28 82.4399 95 82.4399C96.02 82.4399 96.37 81.8099 96.55 79.6199C96.26 79.4899 95.92 79.2499 95.68 79.0199C95.61 81.0099 95.39 81.2899 95.18 81.2899C94.75 81.2899 94.38 80.6199 94.03 79.2499V79.2199V79.1999C94.92 77.7799 95.6 76.0999 96.06 74.2099L94.93 74.0099C94.63 75.2899 94.24 76.3999 93.78 77.3199L93.68 77.5199L93.65 77.2999C93.45 75.8399 93.3 74.1299 93.23 72.3599V72.2899H96.24V71.1599H95.07L95.94 70.5899C95.63 70.1299 95 69.4699 94.39 68.9799L93.55 69.4899C94.09 69.9899 94.65 70.6099 94.97 71.0499L95.05 71.1599H93.21V71.0899C93.19 70.3899 93.18 69.6599 93.19 68.9299H92C92 69.6499 92.02 70.3799 92.05 71.0799V71.1499H87.54V75.8199C87.54 76.7199 87.51 77.8999 87.25 79.0799L87.18 79.3899V79.3599C86.92 80.3399 86.52 81.1499 85.95 81.8299L85.97 81.8199ZM82.75 79.3999L83.16 80.6499C83.48 80.5199 83.82 80.3799 84.17 80.2399C85.09 79.8699 86.13 79.4499 87.13 79.0399L86.9 77.9299L85.56 78.4199V73.6999H86.88V72.5399H85.56V69.1099H84.4V72.5399H82.94V73.6999H84.4V78.8399L84.36 78.8599C83.78 79.0699 83.22 79.2599 82.75 79.4099V79.3999Z" fill="#00A7E1"/>
<path d="M118.63 82.5501H119.95V75.5101H123.47V79.3501C123.47 79.6301 123.33 79.6901 123.08 79.7001C122.37 79.7001 121.72 79.7001 121.15 79.6701C121.34 80.0401 121.52 80.5501 121.59 80.9001C122.77 80.9001 123.59 80.8801 124.12 80.6601C124.61 80.4701 124.78 80.1301 124.78 79.3501V74.2601H119.95V72.2601H126.03V71.0301H120.41L120.39 70.9901C120.15 70.3201 119.51 69.2001 119.28 68.8101L118.04 69.1801C118.35 69.7601 118.67 70.4301 118.89 70.9501L118.93 71.0401H112.67V72.2701H118.63V74.2701H114.04V80.9301H115.32V75.5001H118.63V82.5401V82.5501Z" fill="#00A7E1"/>
<path d="M147.16 82.5501C147.63 82.5801 148.04 82.5901 148.34 82.5801C149.07 82.5801 149.47 82.4301 149.92 82.0001C150.31 81.6901 150.6 81.1101 150.73 80.3601C150.87 79.5701 150.82 78.6601 150.59 77.7801V77.7301L150.62 77.7001C150.72 77.6401 150.82 77.5801 150.92 77.5201C151.02 77.4601 151.12 77.4001 151.22 77.3401L151.29 77.3001L151.32 77.3801C152.14 79.5601 153.47 81.1401 155.17 81.9501C155.36 81.6301 155.7 81.1901 155.99 80.9301C154.31 80.2201 152.97 78.6901 152.29 76.7201L152.27 76.6701L152.31 76.6401C152.95 76.1901 153.7 75.6701 154.36 75.1301L153.33 74.3001C152.57 75.0201 151.42 75.9301 150.3 76.6701L150.23 76.7101L150.2 76.6401C149.84 75.8301 149.36 75.1401 148.77 74.5701L148.71 74.5101L148.84 74.4201C149.16 74.2001 149.47 73.9801 149.74 73.7301L149.76 73.7101H153.28V72.6401H144.9V73.7101H148.12L147.92 73.8401C146.69 74.6201 144.86 75.3101 142.91 75.7501C143.14 76.0301 143.42 76.4901 143.56 76.7401C145.07 76.3201 146.51 75.7401 147.73 75.0801L147.78 75.0501L147.82 75.0901C148.05 75.3301 148.25 75.5801 148.41 75.8201L148.45 75.8801L148.39 75.9201C147.13 76.8001 144.71 77.8201 142.83 78.2701C143.05 78.5601 143.29 78.9501 143.45 79.2401C145.32 78.6401 147.49 77.6301 148.87 76.7201L148.94 76.6801L148.97 76.7501C149.11 77.0501 149.2 77.3301 149.29 77.6001V77.6401L149.27 77.6701C147.83 78.9401 145.04 80.2701 142.6 80.8601C142.85 81.1601 143.11 81.6001 143.25 81.9001C145.36 81.2601 147.78 80.0701 149.43 78.8601L149.53 78.7901V78.9101C149.6 79.9101 149.38 80.7701 148.99 81.1001C148.79 81.3201 148.57 81.4501 148.04 81.4501C147.75 81.4501 147.35 81.4301 146.82 81.3901C147.01 81.7701 147.11 82.2301 147.14 82.5601L147.16 82.5501ZM154.13 73.2701H155.42V70.2001H150.01L149.99 70.1601C149.86 69.8601 149.61 69.2901 149.32 68.8101L147.99 69.1901C148.17 69.5201 148.31 69.8201 148.42 70.1001L148.46 70.1901H142.92V73.2601H144.14V71.3201H154.13V73.2601V73.2701Z" fill="#00A7E1"/>
<path d="M171.98 81.92C172.33 82.07 172.84 82.38 173.11 82.59C174.06 81.12 174.63 78.98 174.82 76.22V76.16H179.5V77.81H176V82.58H177.2V82.1H183.1V82.57H184.35V77.82H180.77V76.17H185.42V75.04H180.77V73.43H184.61V69.7H173.63V73.98C173.63 76.68 173.43 79.74 172 81.93L171.98 81.92ZM183.09 81.01H177.19V78.9H183.09V81.01ZM179.5 75.03H174.88V74.96C174.9 74.62 174.9 74.29 174.9 73.97V73.42H179.5V75.03ZM183.32 72.32H174.9V70.79H183.32V72.32Z" fill="#00A7E1"/>
<path d="M58.5996 62V63.07H62.0896V70.74H58.5996V71.81H67.6996V62H58.5996ZM66.6496 70.74H63.1596V63.07H66.6496V70.74Z" fill="#AEDBF3"/>
<path d="M53 62V71.8H58.6V62H53ZM57.55 70.74H54.06V63.07H57.55V70.74Z" fill="#00A7E1"/>
<path d="M57.55 88.9499H53V79.1499H57.55V80.2199H54.06V87.8899H57.55V88.9599V88.9499Z" fill="#AEDBF3"/>
<path d="M63.1504 87.8899H66.6404V80.2199H63.1504V79.1499H67.7004V88.9499H63.1504V87.8799V87.8899Z" fill="#AEDBF3"/>
<path d="M57.5498 79.1499V88.9499H63.1498V79.1499H57.5498ZM62.0998 87.8899H58.6098V80.2199H62.0998V87.8899Z" fill="#00A7E1"/>
</g>
</g>
</g>
<defs>
<filter id="filter0_d_226_20972" x="0.473633" y="0" width="239" height="160" filterUnits="userSpaceOnUse" color-interpolation-filters="sRGB">
<feFlood flood-opacity="0" result="BackgroundImageFix"/>
<feColorMatrix in="SourceAlpha" type="matrix" values="0 0 0 0 0 0 0 0 0 0 0 0 0 0 0 0 0 0 127 0" result="hardAlpha"/>
<feOffset dy="1"/>
<feGaussianBlur stdDeviation="10"/>
<feComposite in2="hardAlpha" operator="out"/>
<feColorMatrix type="matrix" values="0 0 0 0 0 0 0 0 0 0 0 0 0 0 0 0 0 0 0.08 0"/>
<feBlend mode="normal" in2="BackgroundImageFix" result="effect1_dropShadow_226_20972"/>
<feBlend mode="normal" in="SourceGraphic" in2="effect1_dropShadow_226_20972" result="shape"/>
</filter>
<clipPath id="clip0_226_20972">
<rect x="20.4736" y="19" width="199" height="120" rx="7.02062" fill="white"/>
</clipPath>
<clipPath id="clip1_226_20972">
<rect width="132.86" height="34.74" fill="white" transform="translate(53 62)"/>
</clipPath>
</defs>
</svg>
