<svg width="240" height="160" viewBox="0 0 240 160" fill="none" xmlns="http://www.w3.org/2000/svg">
<g filter="url(#filter0_d_226_20449)">
<g clip-path="url(#clip0_226_20449)">
<rect x="20.4736" y="19" width="199" height="120" rx="7.02062" fill="white"/>
<rect x="20.4736" y="19" width="199" height="120" fill="white"/>
<g clip-path="url(#clip1_226_20449)">
<path d="M82.5998 68.26C82.7698 68.26 85.4798 68.26 87.8798 69.48C87.8998 69.79 88.0498 71.11 88.9498 71.75C89.4798 72.13 90.1798 72.19 91.0098 71.93C91.0798 71.96 93.2498 73.11 93.3398 73.15C93.3598 73.38 93.4398 74.32 93.4398 75.7C93.4398 77.57 93.2998 80.25 92.6798 83.05C92.3198 84.67 91.8398 86.16 91.2498 87.5C91.3298 87.51 91.3898 87.52 91.4698 87.53C92.0598 86.19 92.5298 84.71 92.8798 83.1C94.0198 77.92 93.5498 73.12 93.5398 73.08V73.02L91.0298 71.7H90.9898C90.1998 71.96 89.5598 71.92 89.0698 71.58C88.1498 70.93 88.0798 69.42 88.0798 69.41V69.34L88.0198 69.31C85.5498 68.04 82.7398 68.04 82.5898 68.04V68.25L82.5998 68.26Z" fill="#631015"/>
<path d="M72.6399 85.78C71.4399 81.98 71.1899 78.61 71.1899 76.44V76.41C71.1899 74.61 71.3599 73.34 71.4499 72.83C71.8199 72.64 73.7899 71.62 74.1299 71.44C74.8399 71.7 75.4499 71.66 75.9299 71.32C76.6999 70.79 76.8399 69.69 76.8599 69.11C79.3999 67.84 82.1899 67.78 82.5699 67.78H82.6199C82.9999 67.78 85.7799 67.84 88.3299 69.11C88.3499 69.69 88.4999 70.78 89.2599 71.32C89.7399 71.66 90.3499 71.7 91.0599 71.44C91.3999 71.62 93.3799 72.64 93.7399 72.83C93.8199 73.34 93.9899 74.61 93.9899 76.41V76.44C93.9899 78.61 93.7399 81.97 92.5499 85.78C92.3499 86.42 92.1199 87.03 91.8699 87.58C92.2299 87.64 92.5899 87.7 92.9499 87.76C93.1699 87.24 93.3699 86.68 93.5599 86.1C94.8099 82.14 95.0599 78.63 95.0499 76.38C95.0499 73.93 94.7399 72.44 94.7299 72.37L94.6799 72.12L91.0899 70.26L90.8599 70.36C90.4099 70.56 90.0699 70.59 89.8499 70.44C89.4399 70.16 89.3599 69.22 89.3799 68.81L89.3999 68.47L89.1099 68.31C86.1999 66.74 82.9999 66.71 82.5899 66.71C82.1799 66.71 78.9799 66.75 76.0699 68.31L75.7799 68.47L75.7999 68.81C75.8199 69.22 75.7299 70.16 75.3299 70.44C75.1199 70.59 74.7699 70.56 74.3199 70.36L74.0799 70.26L70.4999 72.12L70.4499 72.37C70.4399 72.43 70.1399 73.93 70.1299 76.38C70.1299 78.63 70.3799 82.14 71.6199 86.1C71.8099 86.69 72.0099 87.24 72.2299 87.76C72.5899 87.7 72.9499 87.64 73.3099 87.58C73.0699 87.02 72.8399 86.42 72.6399 85.78Z" fill="#631015"/>
<path d="M72.5099 83.0601C71.8999 80.2601 71.7499 77.5801 71.7499 75.7101C71.7499 74.3301 71.8199 73.3901 71.8499 73.1601C71.9499 73.1101 74.1099 71.9701 74.1799 71.9401C75.0099 72.2001 75.6999 72.1401 76.2399 71.7601C77.1399 71.1201 77.2899 69.8001 77.3099 69.4901C79.7199 68.2801 82.4299 68.2601 82.5899 68.2701V68.0601C82.4399 68.0601 79.6299 68.0601 77.1599 69.3301L77.0999 69.3601V69.4301C77.0999 69.4301 77.0299 70.9501 76.1099 71.6001C75.6199 71.9401 74.9799 71.9801 74.1899 71.7301H74.1499L71.6399 73.0401V73.1001C71.6399 73.1001 71.1499 77.9401 72.2999 83.1201C72.6499 84.7301 73.1299 86.2101 73.7199 87.5501C73.7899 87.5501 73.8599 87.5301 73.9399 87.5201C73.3399 86.1801 72.8699 84.7001 72.5099 83.0701V83.0601Z" fill="#631015"/>
<path d="M87.4298 93.8601C85.5798 95.4001 83.6998 96.1701 82.5898 96.2801C81.4898 96.1701 79.6098 95.4001 77.7598 93.8601C77.1598 93.3601 76.4798 92.7101 75.7998 91.8901C75.3898 91.9401 74.9698 91.9901 74.5498 92.0401C75.4198 93.1801 76.3098 94.0401 77.0798 94.6801C78.0498 95.4901 79.1198 96.1701 80.1598 96.6501C81.0198 97.0401 81.8498 97.2801 82.5298 97.3401H82.6598C83.3298 97.2801 84.1698 97.0301 85.0298 96.6501C86.0698 96.1701 87.1398 95.4901 88.1098 94.6801C88.8798 94.0401 89.7598 93.1701 90.6298 92.0401C90.2098 91.9901 89.7998 91.9401 89.3898 91.8901C88.6998 92.7201 88.0298 93.3601 87.4298 93.8601Z" fill="#631015"/>
<path d="M82.5895 95.7701C80.1795 95.0301 78.1295 93.7001 76.4895 91.8101C76.3995 91.8101 76.3195 91.8301 76.2295 91.8301C77.8395 93.7401 79.8595 95.0901 82.2295 95.8701C82.3495 95.9101 82.4695 95.9501 82.5895 95.9901C82.7195 95.9501 82.8395 95.9101 82.9595 95.8701C85.3295 95.0901 87.3495 93.7401 88.9595 91.8301C88.8795 91.8301 88.7895 91.8201 88.6995 91.8101C87.0595 93.7001 85.0095 95.0301 82.5895 95.7701Z" fill="#631015"/>
<path d="M73.9298 93.7101H73.9198C73.8898 93.6901 73.8698 93.6701 73.8398 93.6501C73.8198 93.6401 73.8198 93.6401 73.8198 93.6401C72.7998 92.9401 70.2298 92.9601 70.2298 92.9601L70.1898 90.8001V90.6601C70.1898 90.6601 68.4298 90.0301 66.8198 91.0801L66.0098 91.4701C66.0098 91.4701 66.7098 92.1301 67.8898 92.1601C67.8898 92.1601 66.2798 92.9801 66.4998 94.7701C66.4998 94.7701 67.4298 93.4101 69.2898 93.8201C71.0998 94.2101 73.4698 95.7001 74.0398 93.8201C74.0298 93.8001 74.0098 93.7901 73.9998 93.7801C73.9798 93.7601 73.9698 93.7401 73.9498 93.7301L73.9298 93.7101Z" fill="#631015"/>
<path d="M70.5293 92.56C70.5293 92.56 73.1093 92.08 73.9393 92.04L74.0093 93.36C74.0093 93.36 73.6893 92.68 70.5293 92.56Z" fill="#631015"/>
<path d="M91.2594 93.7101C91.2894 93.6901 91.3094 93.6701 91.3394 93.6501C91.3494 93.6401 91.3594 93.6401 91.3594 93.6401C92.3794 92.9401 94.9594 92.9601 94.9594 92.9601L94.9994 90.8001V90.6601C94.9994 90.6601 96.7594 90.0301 98.3694 91.0801L99.1794 91.4701C99.1794 91.4701 98.4794 92.1301 97.2994 92.1601C97.2994 92.1601 98.8994 92.9801 98.6894 94.7701C98.6894 94.7701 97.7594 93.4101 95.8994 93.8201C94.0894 94.2101 91.7094 95.7001 91.1494 93.8201C91.1694 93.8001 91.1794 93.7901 91.1994 93.7801C91.2094 93.7601 91.2294 93.7401 91.2494 93.7301L91.2594 93.7101Z" fill="#631015"/>
<path d="M94.6597 92.56C94.6597 92.56 92.0897 92.08 91.2497 92.04L91.1797 93.36C91.1797 93.36 91.4997 92.68 94.6597 92.56Z" fill="#631015"/>
<path fill-rule="evenodd" clip-rule="evenodd" d="M75.6 73.77H79.02L82.67 82.13L86.29 73.77H89.65V74.55H89.31H89.27H89.24H89.21H89.18H89.14H89.12H89.09H89.05L89.03 74.56H89H88.97H88.95H88.92H88.9L88.88 74.57H88.86H88.83H88.81L88.79 74.58L88.77 74.59H88.75H88.73L88.71 74.6H88.7H88.68H88.67L88.65 74.61L88.64 74.62H88.62H88.61H88.6L88.59 74.63L88.58 74.64L88.57 74.65H88.56H88.55L88.54 74.66L88.53 74.67L88.52 74.68H88.51L88.5 74.69H88.49L88.48 74.71L88.47 74.72H88.46V74.73L88.44 74.74H88.43V74.75L88.42 74.76L88.41 74.78H88.4L88.39 74.79V74.8L88.38 74.81L88.37 74.83L88.36 74.84L88.35 74.85V74.86L88.34 74.87L88.33 74.89V74.9L88.32 74.91V74.92L88.31 74.94L88.3 74.95V74.96L88.29 74.98V75L88.28 75.01V75.03L88.27 75.04L88.26 75.06V75.08V75.1L88.25 75.12V75.14L88.24 75.16V75.18L88.23 75.2V75.22V75.24V75.27V75.29L88.22 75.32V75.34V75.37V75.4V75.42V75.45L88.21 75.48V75.51V75.54V75.56V75.6V75.63V83.02V83.06V83.11V83.15V83.2V83.24L88.22 83.28V83.32V83.36V83.41V83.44V83.49V83.52L88.23 83.56V83.6V83.64V83.68V83.71L88.24 83.74V83.78V83.81L88.25 83.85V83.87L88.26 83.9V83.92V83.95L88.27 83.98L88.28 84V84.02V84.03L88.29 84.05V84.07L88.3 84.08V84.09L88.31 84.1L88.32 84.12V84.13L88.33 84.14L88.34 84.16L88.35 84.18L88.36 84.19V84.2H88.37L88.38 84.22L88.39 84.23L88.4 84.24L88.41 84.26H88.42L88.43 84.27L88.44 84.28H88.45L88.46 84.3L88.47 84.31H88.48L88.49 84.32L88.5 84.33L88.51 84.34H88.53V84.35H88.55V84.36L88.57 84.37L88.58 84.38L88.59 84.39H88.61H88.62L88.64 84.4H88.65L88.67 84.41H88.68L88.7 84.42H88.72L88.74 84.43H88.76L88.78 84.44H88.8H88.82L88.85 84.45H88.87H88.89L88.91 84.46H88.95H88.97H89L89.03 84.47H89.05H89.08H89.11H89.14L89.17 84.48H89.2H89.24H89.27H89.31H89.65V85.07L84.95 85.11V84.51H85.32H85.34H85.37H85.39H85.42H85.44H85.46H85.49H85.51L85.53 84.5H85.55L85.57 84.49H85.59L85.61 84.48H85.63H85.64H85.66H85.68L85.7 84.47H85.71L85.73 84.46H85.74L85.76 84.45H85.77L85.79 84.44H85.8H85.82L85.83 84.43H85.84L85.86 84.42H85.87L85.88 84.41H85.89H85.91L85.92 84.4H85.93L85.94 84.39H85.95H85.96L85.97 84.38H85.98L85.99 84.37H86.01V84.36L86.02 84.35H86.03L86.05 84.34H86.06V84.33L86.07 84.32H86.08L86.09 84.31H86.1L86.11 84.3L86.12 84.29L86.13 84.28L86.15 84.27V84.26H86.16L86.17 84.24H86.18L86.19 84.23V84.22H86.2L86.21 84.2H86.22V84.19L86.23 84.18V84.17L86.24 84.16V84.15L86.26 84.14V84.13H86.27V84.12L86.28 84.1L86.29 84.09V84.08V84.07H86.3V84.05L86.31 84.04V84.03V84.02H86.32V84.01V84L86.33 83.99V83.98V83.96H86.34V83.95V83.94V83.93V83.91V83.88L86.35 83.87V83.85V83.82V83.79V83.77V83.75L86.36 83.73V83.7V83.68V83.66V83.63V83.6V83.58V83.56V83.53L86.37 83.5V83.48V83.46L86.38 83.44V83.41V83.4V83.37V83.36V83.34V83.32V83.31V83.29V83.28V83.27V83.25V75.71L82.39 85.07H81.92L78.15 76.54V83.09V83.13V83.17V83.2L78.16 83.24V83.28V83.32V83.36V83.39V83.43L78.17 83.47V83.5V83.54V83.57L78.18 83.61V83.64L78.19 83.68V83.71V83.74L78.2 83.77V83.8V83.82L78.21 83.86V83.88L78.22 83.91V83.93L78.23 83.96V83.98V84L78.24 84.01L78.25 84.02V84.04L78.26 84.05L78.27 84.07V84.08L78.28 84.09L78.29 84.1V84.12L78.3 84.13H78.31L78.32 84.14L78.33 84.16L78.34 84.17V84.18L78.35 84.19L78.36 84.2L78.37 84.21L78.38 84.22L78.39 84.23L78.4 84.24L78.41 84.25L78.42 84.26H78.43L78.44 84.27L78.45 84.28L78.47 84.29L78.48 84.3L78.49 84.31L78.5 84.32H78.51L78.52 84.33L78.54 84.34H78.55L78.56 84.35L78.58 84.36L78.59 84.37L78.61 84.38H78.62L78.63 84.39H78.65L78.66 84.4H78.68L78.69 84.41L78.71 84.42H78.72L78.74 84.43H78.76L78.78 84.44H78.79H78.81H78.83L78.85 84.45H78.87L78.89 84.46H78.92H78.94H78.96L78.99 84.47H79.01H79.04H79.07H79.1L79.13 84.48H79.17H79.2H79.23H79.27H79.59V85.07H75.54V84.48H75.82H75.86H75.89H75.92H75.96L75.99 84.47H76.03H76.05H76.08H76.12L76.14 84.46H76.17H76.2L76.22 84.45H76.24H76.27L76.29 84.44H76.31H76.34L76.36 84.43H76.38L76.4 84.42H76.42L76.44 84.41H76.46L76.48 84.4L76.49 84.39H76.51H76.53L76.54 84.38L76.56 84.37H76.58L76.59 84.35H76.61L76.62 84.34H76.64L76.65 84.33L76.67 84.32L76.68 84.31H76.69L76.7 84.29L76.72 84.28H76.73L76.74 84.27L76.75 84.26H76.77L76.78 84.24L76.79 84.23L76.8 84.22L76.81 84.21L76.82 84.2L76.83 84.19L76.84 84.18L76.85 84.17L76.86 84.16L76.87 84.14L76.88 84.13L76.89 84.12L76.9 84.1L76.91 84.09V84.08L76.92 84.06L76.93 84.05V84.04L76.94 84.02V84.01L76.95 84L76.96 83.98V83.96L76.97 83.93V83.91L76.98 83.88V83.86L76.99 83.83V83.8V83.77L77 83.74V83.71L77.01 83.68V83.64L77.02 83.61V83.57V83.53V83.5V83.46L77.03 83.42V83.38V83.34V83.3L77.04 83.26V83.22V83.18V83.14V83.1V83.06V83.02V75.7V75.66V75.63V75.59V75.56V75.52V75.48V75.45L77.03 75.43V75.4V75.36V75.33L77.02 75.3V75.28V75.25V75.22V75.2L77.01 75.18V75.15V75.13L77 75.1V75.08L76.99 75.06V75.05V75.03L76.98 75.01V75V74.98L76.97 74.96V74.95L76.96 74.94V74.92L76.95 74.91L76.94 74.9V74.89L76.93 74.88V74.87L76.92 74.86L76.91 74.85V74.84L76.9 74.83V74.82L76.89 74.81L76.88 74.8L76.87 74.79L76.86 74.78L76.85 74.77V74.76L76.84 74.75L76.83 74.74H76.82L76.81 74.73L76.8 74.72H76.79L76.78 74.71L76.77 74.7L76.76 74.69H76.75L76.74 74.68H76.73L76.72 74.66H76.7V74.65H76.68L76.67 74.64H76.66L76.64 74.63L76.63 74.62H76.62H76.61L76.59 74.61L76.58 74.6H76.56H76.55L76.54 74.59H76.52H76.51L76.49 74.58H76.48L76.46 74.57H76.44H76.42H76.41L76.39 74.56H76.36H76.34H76.32H76.3H76.27L76.25 74.55H76.22H76.2H76.17H76.14H76.11H76.08H76.05H75.6V73.77Z" fill="#631015"/>
<path d="M82.5898 68.26H82.5998V68.05H82.5898V68.26Z" fill="#631015"/>
<path d="M81.8797 88.3701C81.5897 88.3701 81.3497 88.6601 81.3597 89.2301C81.3597 89.8201 81.6297 90.2501 81.9997 90.2401C82.3197 90.2401 82.4997 89.9601 82.4897 89.3801C82.4897 88.7301 82.2097 88.3701 81.8797 88.3701Z" fill="#631015"/>
<path d="M87.1201 89.0801L86.8301 89.6701L87.3101 89.7201L87.1201 89.0801Z" fill="#631015"/>
<path d="M76.1397 89.27L75.9697 89.91L76.4497 89.86L76.1497 89.27H76.1397Z" fill="#631015"/>
<path d="M82.5999 87.33C78.3399 87.29 74.2299 87.67 70.4199 88.46C70.4199 88.6 70.4999 92.06 70.4999 92.24C75.1299 91.45 79.0899 91.09 82.5999 91.14C86.1099 91.08 90.0699 91.44 94.6999 92.24C94.6999 92.05 94.7799 88.6 94.7799 88.46C90.9599 87.67 86.8599 87.29 82.5999 87.33ZM73.9699 91.02L73.9499 90.9C74.2199 90.83 74.2299 90.82 74.1699 90.46L73.9699 89.33H73.9499L73.4999 91.06L73.2999 91.09L72.3699 89.71L72.4599 90.43C72.4999 90.71 72.5299 90.86 72.5599 90.96C72.5999 91.07 72.6799 91.09 72.9299 91.07L72.9499 91.19L72.0299 91.34L72.0099 91.21C72.1799 91.17 72.2499 91.13 72.2599 91C72.2599 90.9 72.2599 90.73 72.2199 90.43L72.1499 89.78C72.1099 89.37 72.0699 89.34 71.7799 89.37L71.7599 89.24L72.6299 89.09L73.4899 90.26L73.8499 88.89L74.7499 88.74L74.7699 88.87C74.4899 88.94 74.4799 88.95 74.5499 89.28L74.7699 90.35C74.8399 90.71 74.8499 90.72 75.1199 90.7L75.1399 90.82L73.9799 91.01L73.9699 91.02ZM76.4999 90.69V90.57L76.5999 90.54C76.7399 90.51 76.7399 90.47 76.6799 90.36L76.5099 90.04L75.8999 90.11L75.8199 90.43C75.7899 90.57 75.7899 90.6 75.9699 90.6H76.0799V90.73L75.2199 90.82L75.1999 90.7C75.3899 90.65 75.4399 90.63 75.5399 90.35L76.1099 88.6L76.3599 88.53L76.6799 89.11C76.8799 89.48 77.0899 89.84 77.2599 90.16C77.4099 90.43 77.4799 90.43 77.6599 90.43V90.56L76.4999 90.69ZM79.1999 90.46V90.33C79.4599 90.3 79.4899 90.27 79.4599 89.93L79.4299 89.44L78.6499 89.49L78.6799 89.98C78.6999 90.33 78.7299 90.36 78.9799 90.36V90.49L77.7799 90.56V90.43C78.0299 90.39 78.0599 90.37 78.0399 90.02L77.9699 88.95C77.9499 88.6 77.9199 88.58 77.6399 88.58V88.45L78.8399 88.38V88.51C78.6199 88.54 78.5899 88.57 78.6099 88.92L78.6299 89.3L79.4099 89.25L79.3799 88.87C79.3599 88.52 79.3199 88.5 79.0799 88.5V88.37L80.2799 88.29V88.42C80.0199 88.45 79.9899 88.48 80.0199 88.83L80.0899 89.9C80.1099 90.25 80.1399 90.27 80.3999 90.28V90.41L79.1899 90.49L79.1999 90.46ZM81.9099 90.41C81.1499 90.41 80.6499 89.94 80.6399 89.35C80.6399 88.82 81.0299 88.21 81.9299 88.2C82.6199 88.18 83.1599 88.62 83.1599 89.26C83.1599 89.96 82.6199 90.4 81.8999 90.41H81.9099ZM85.7099 90.35C85.4699 90.4 85.1699 90.46 84.8499 90.46C83.9499 90.43 83.4399 89.99 83.4599 89.33C83.4899 88.59 84.1899 88.22 84.9899 88.26C85.2799 88.27 85.5699 88.33 85.6999 88.37C85.6999 88.48 85.7199 88.65 85.7399 88.96H85.5699C85.4699 88.53 85.1699 88.43 84.9199 88.42C84.5199 88.42 84.1799 88.74 84.1599 89.29C84.1399 89.79 84.3699 90.28 84.8899 90.3C84.9799 90.3 85.0499 90.27 85.0599 90.12V89.81C85.0699 89.59 85.0599 89.57 84.6699 89.53V89.38L85.9299 89.43V89.58C85.7299 89.6 85.7199 89.62 85.7099 89.84V90.07C85.6999 90.19 85.6999 90.29 85.7099 90.36V90.35ZM88.3799 90.65L87.1999 90.55V90.42H87.3299C87.4699 90.42 87.4799 90.38 87.4399 90.26L87.3299 89.92L86.7099 89.87L86.5699 90.18C86.5099 90.31 86.5099 90.34 86.6799 90.37L86.7899 90.39V90.52L85.8999 90.45V90.32C86.0999 90.32 86.1599 90.31 86.3099 90.04L87.1999 88.42L87.4599 88.4L87.6599 89.03C87.7899 89.43 87.9199 89.82 88.0399 90.17C88.1399 90.46 88.1999 90.48 88.3799 90.52V90.65ZM91.3099 89.02C91.1299 89 91.0199 89.02 90.9899 89.14C90.9599 89.24 90.9199 89.42 90.8799 89.75L90.7299 90.96L90.4099 90.92L89.2299 89.22H89.2199L89.1499 89.81C89.0999 90.15 89.0999 90.32 89.0999 90.43C89.0999 90.54 89.1999 90.6 89.4399 90.64L89.4199 90.77L88.4999 90.65L88.5199 90.52C88.6899 90.53 88.7899 90.5 88.8199 90.39C88.8499 90.29 88.8899 90.12 88.9299 89.78L89.0099 89.19C89.0399 88.96 89.0399 88.91 88.9799 88.81C88.9299 88.73 88.8399 88.7 88.7099 88.67L88.7299 88.55L89.5499 88.66L90.6199 90.16L90.6799 89.73C90.7199 89.4 90.7299 89.22 90.7299 89.11C90.7199 88.99 90.6299 88.94 90.3799 88.89L90.3999 88.77L91.3499 88.89L91.3299 89.02H91.3099ZM93.7599 89.47C93.5499 89.45 93.4799 89.47 93.3199 89.64C93.1399 89.82 92.9899 89.98 92.8199 90.18C92.7399 90.28 92.7199 90.3 92.6999 90.43L92.6399 90.75C92.5799 91.09 92.5999 91.12 92.8999 91.2L92.8799 91.32L91.5999 91.08L91.6299 90.96C91.9199 91 91.9499 90.97 92.0199 90.63L92.0699 90.35C92.0899 90.24 92.0899 90.23 92.0699 90.14C92.0199 89.99 91.9199 89.76 91.7399 89.33C91.6399 89.1 91.5999 89.07 91.4299 89.03L91.4499 88.9L92.5999 89.11L92.5699 89.23H92.4199C92.3199 89.23 92.3399 89.26 92.3599 89.33C92.4599 89.62 92.5299 89.82 92.6299 90.08C92.7199 89.97 92.9399 89.69 93.0899 89.48C93.1499 89.41 93.1599 89.36 93.0299 89.33L92.8799 89.29L92.8999 89.17L93.7999 89.33L93.7699 89.46L93.7599 89.47Z" fill="#631015"/>
<path d="M90.77 60.8299C90.67 60.7599 90.55 60.7199 90.42 60.7199C90.29 60.7199 90.16 60.7599 90.06 60.8299C89.96 60.9099 89.9 61.0199 89.9 61.1399C89.9 61.2099 89.93 61.2799 89.97 61.3399L89.99 61.3799V61.4599V61.5199V61.5499V61.5899V61.6099V61.6299V61.6599V61.6999V61.7199V61.7399V61.7499V61.7799C89.99 61.7799 89.97 61.7799 89.97 61.7999L89.96 61.8199V61.8499L89.94 61.8699V61.8899L89.91 61.9199V61.9399L89.88 61.9699V61.9899L89.85 62.0199V62.0399L89.82 62.0599V62.0799L89.79 62.0999V62.1199L89.76 62.1399L89.74 62.1699V62.1999L89.71 62.2199L89.69 62.2499V62.2799L89.67 62.3099L89.64 62.3599V62.3799H89.62V62.4099L89.6 62.4399V62.4599V62.4799V62.5199C89.6 62.5299 89.59 62.5399 89.59 62.5399V62.5799C89.52 62.5699 89.13 62.4999 89.13 62.4999H89.02C89.02 62.4999 89.02 62.4799 89 62.4799V62.4699C89 62.4699 89 62.4399 89 62.4299L89.02 62.2999C89.02 62.1399 88.97 61.9899 88.89 61.8599L88.84 61.7899C88.84 61.7899 88.82 61.7799 88.81 61.7699C88.81 61.7599 88.81 61.7099 88.81 61.7099C88.81 61.6299 88.78 61.5599 88.74 61.4999L88.72 61.4699C88.72 61.4699 88.72 61.4599 88.72 61.4499C88.72 61.4499 88.71 61.4299 88.71 61.4199V61.3799V61.3599V61.2799V61.2199C88.85 61.1899 88.97 61.1099 89.03 61.0099L89.06 60.9299L89.08 60.8499C89.08 60.7399 89.02 60.6299 88.92 60.5599C88.83 60.4899 88.71 60.4499 88.57 60.4499C88.43 60.4499 88.31 60.4899 88.22 60.5599C88.12 60.6299 88.06 60.7399 88.06 60.8499C88.06 60.9799 88.14 61.0899 88.27 61.1699L88.34 61.1999C88.34 61.1999 88.34 61.1999 88.36 61.1999V61.2399V61.2599V61.2899C88.36 61.2999 88.34 61.3099 88.34 61.3099V61.3399C88.34 61.3399 88.27 61.3899 88.24 61.4099L88.22 61.4299C88.22 61.4299 88.22 61.4299 88.22 61.4399L88.2 61.4599L88.17 61.4999V61.5199L88.14 61.6199C88.03 61.6899 87.93 61.7799 87.86 61.9099L87.83 61.9699V61.9899C87.79 62.0799 87.77 62.1799 87.77 62.2699C87.68 62.2699 87.27 62.2199 87.27 62.2199L87.15 62.1999C87.15 62.1999 87.13 62.1999 87.12 62.1999C87.12 62.1599 87.13 62.1099 87.13 62.1099V62.0299C87.12 61.8699 87.06 61.7199 86.97 61.5999L86.93 61.5499V61.5299L86.89 61.5099V61.4799V61.4499C86.89 61.3699 86.86 61.2999 86.81 61.2399H86.8V61.2299V61.2099L86.77 61.1999V61.1699L86.76 61.1499C86.76 61.1499 86.76 61.1399 86.76 61.1299V61.0999V61.0699V61.0599V61.0399V60.9799C86.76 60.9799 86.76 60.9799 86.76 60.9699C86.9 60.9299 87.01 60.8499 87.06 60.7399C87.06 60.7499 87.09 60.6799 87.09 60.6799V60.6599V60.6499V60.5899C87.09 60.4399 86.96 60.2999 86.78 60.2399H86.75L86.68 60.2199H86.56C86.43 60.2299 86.3 60.2699 86.22 60.3499C86.13 60.4199 86.08 60.5199 86.08 60.6199C86.08 60.7599 86.17 60.8699 86.3 60.9399L86.34 60.9499L86.38 60.9699C86.38 60.9699 86.39 60.9699 86.4 60.9699V60.9899V60.9999V61.0199L86.39 61.0399V61.0599C86.39 61.0599 86.39 61.0599 86.39 61.0699C86.39 61.0799 86.39 61.0899 86.39 61.0899V61.1099V61.1199C86.35 61.1399 86.32 61.1599 86.29 61.1899L86.25 61.2299L86.27 61.1999L86.24 61.2299H86.23L86.2 61.2899V61.3099L86.17 61.3899V61.4099C86.02 61.4999 85.91 61.6499 85.87 61.8299V61.8599L85.85 61.9399V62.0499C85.77 62.0399 85.4 62.0099 85.4 62.0099C85.4 62.0099 85.29 62.0099 85.28 62.0099C85.29 61.9699 85.3 61.9199 85.3 61.8699V61.8199V61.7799C85.28 61.6099 85.23 61.4599 85.13 61.3499L85.09 61.3099L85.07 61.2899C85.07 61.2899 85.05 61.2799 85.04 61.2699V61.2399V61.2099C85.04 61.1399 85 61.0599 84.95 61.0099L84.92 60.9899C84.92 60.9899 84.92 60.9799 84.9 60.9699V60.9399V60.8799V60.8599V60.8499V60.8199V60.8099V60.7599C85.04 60.7099 85.14 60.6199 85.2 60.5199L85.21 60.4799V60.4499L85.22 60.3599C85.21 60.2099 85.08 60.0799 84.89 60.0299H84.86H84.79L84.68 60.0199C84.54 60.0299 84.42 60.0799 84.34 60.1599C84.25 60.2399 84.21 60.3399 84.21 60.4299C84.21 60.4399 84.21 60.4499 84.21 60.4599C84.22 60.5899 84.31 60.6999 84.45 60.7599H84.47L84.53 60.7799H84.55V60.8099V60.8399C84.55 60.8399 84.55 60.8399 84.55 60.8499V60.8699V60.9199H84.54V60.9399C84.52 60.9499 84.44 61.0099 84.44 61.0099V61.0299H84.43L84.42 61.0499V61.0699L84.38 61.1199H84.37V61.1399L84.35 61.2399C84.21 61.3399 84.1 61.4899 84.06 61.6699V61.7299V61.7899V61.9099C84.06 61.9099 84.06 61.9399 84.06 61.9599C83.99 61.9599 83.6 61.9399 83.6 61.9399H83.49C83.49 61.9399 83.48 61.9399 83.47 61.9399V61.8999C83.47 61.8699 83.47 61.8399 83.47 61.7999C83.47 61.6399 83.41 61.4699 83.31 61.3299L83.26 61.2699L83.24 61.2499C83.24 61.2499 83.2 61.2199 83.18 61.2099C83.18 61.1799 83.18 61.1599 83.18 61.1499C83.18 61.1499 83.18 61.1399 83.18 61.1199V61.1099L83.16 61.0799L83.14 61.0199C83.14 61.0199 83.12 61.0199 83.12 61.0099C83.09 60.9699 83.07 60.9499 83.02 60.9199C83.02 60.9199 83 60.9199 82.99 60.9099V60.8899V60.8699V60.8399V60.8099V60.7799V60.7599C83.11 60.7299 83.21 60.6799 83.28 60.5899V60.5799L83.31 60.5199L83.33 60.4499C83.33 60.4499 83.33 60.4199 83.33 60.4099C83.33 60.3099 83.29 60.2199 83.21 60.1399C83.12 60.0599 83 60.0099 82.88 59.9999C82.69 59.9799 82.51 60.0299 82.4 60.1499L82.35 60.2299L82.32 60.3199V60.3499C82.32 60.4799 82.4 60.6099 82.52 60.6799L82.6 60.7199C82.6 60.7199 82.61 60.7199 82.63 60.7299V60.7799V60.7999V60.8299V60.8799C82.63 60.8799 82.63 60.8799 82.63 60.8899V60.9299V60.9499C82.63 60.9499 82.54 61.0399 82.51 61.0999L82.5 61.1399V61.1699V61.1899C82.5 61.1899 82.5 61.2299 82.5 61.2399C82.4 61.3199 82.32 61.4299 82.27 61.5599V61.5899L82.25 61.6499L82.24 61.7399C82.24 61.7699 82.24 61.8099 82.24 61.8499C82.24 61.8799 82.24 61.9199 82.24 61.9499C82.19 61.9499 81.91 61.9499 81.91 61.9499C81.91 61.9499 81.7 61.9499 81.59 61.9599V61.9399V61.9299V61.9099C81.59 61.9099 81.59 61.8599 81.59 61.8299C81.59 61.6499 81.53 61.4899 81.42 61.3499L81.34 61.2699C81.34 61.2699 81.3 61.2499 81.28 61.2299C81.28 61.1999 81.28 61.1599 81.28 61.1599C81.28 61.1599 81.28 61.1599 81.28 61.1499L81.26 61.1099L81.23 61.0599L81.21 61.0399C81.21 61.0399 81.15 60.9699 81.11 60.9499L81.09 60.9399L81.08 60.9099V60.8899V60.8699V60.8499L81.07 60.8399V60.7899C81.07 60.7899 81.07 60.7799 81.06 60.7699C81.19 60.7399 81.29 60.6799 81.35 60.5999L81.38 60.5399L81.4 60.4499V60.4199C81.4 60.3199 81.36 60.2299 81.27 60.1499C81.18 60.0799 81.06 60.0299 80.93 60.0099C80.73 59.9899 80.55 60.0599 80.45 60.1799L80.4 60.2599L80.37 60.3499V60.3799C80.37 60.4999 80.45 60.6199 80.58 60.7099L80.62 60.7299L80.66 60.7499L80.69 60.7599V60.7999V60.8799V60.8999V60.9199V60.9399V60.9699C80.64 61.0099 80.6 61.0699 80.58 61.1299V61.1699V61.1999V61.2299C80.58 61.2299 80.58 61.2699 80.58 61.2799C80.48 61.3699 80.4 61.4699 80.35 61.6099L80.32 61.6899L80.31 61.7299V61.7799C80.31 61.7799 80.31 61.8299 80.31 61.8499C80.31 61.9099 80.31 61.9699 80.33 62.0299C80.29 62.0299 80.05 62.0499 80.05 62.0499L79.81 62.0699C79.81 62.0699 79.79 62.0699 79.77 62.0699V62.0299C79.77 61.8499 79.7 61.6699 79.58 61.5299L79.5 61.4599C79.5 61.4599 79.47 61.4399 79.44 61.4199C79.44 61.3899 79.43 61.3499 79.43 61.3499V61.3299L79.42 61.2999L79.4 61.2399L79.38 61.2199C79.38 61.2199 79.31 61.1499 79.27 61.1299C79.26 61.1299 79.25 61.1099 79.25 61.1099V61.1299C79.25 61.1299 79.25 61.1299 79.25 61.1199C79.25 61.1199 79.25 61.1199 79.25 61.1099V61.0999V61.0799L79.23 61.0499V61.0299V61.0099V60.9799L79.22 60.9599C79.34 60.9299 79.44 60.8599 79.5 60.7699L79.53 60.7099V60.6799V60.6199L79.54 60.5999C79.54 60.4899 79.49 60.3999 79.4 60.3199C79.32 60.2499 79.2 60.1999 79.06 60.1899C78.86 60.1799 78.69 60.2399 78.59 60.3699L78.55 60.4499L78.53 60.5399V60.5699C78.53 60.6999 78.62 60.8199 78.75 60.8899L78.83 60.9299C78.83 60.9299 78.85 60.9299 78.87 60.9299V61.0499V61.0699V61.0999V61.1099V61.1299V61.1499C78.87 61.1499 78.87 61.1599 78.87 61.1699C78.82 61.2099 78.79 61.2599 78.77 61.3199V61.3399V61.3599V61.4099V61.4599C78.68 61.5599 78.6 61.6699 78.56 61.7899L78.55 61.8399V61.8799L78.54 61.8999V61.9799C78.54 61.9799 78.54 62.0099 78.54 62.0199C78.54 62.0699 78.54 62.1099 78.54 62.1599C78.49 62.1599 78.21 62.1899 78.21 62.1899C78.21 62.1899 77.94 62.2299 77.88 62.2299C77.88 62.0199 77.8 61.8299 77.65 61.6899L77.56 61.6199C77.56 61.6199 77.53 61.5999 77.5 61.5899C77.5 61.5599 77.48 61.5199 77.48 61.5199L77.46 61.4899V61.4799L77.43 61.4199L77.41 61.3999C77.41 61.3999 77.34 61.3499 77.29 61.3199L77.26 61.2999V61.2699C77.26 61.2699 77.24 61.2699 77.24 61.2599V61.2499V61.2199L77.22 61.1999V61.1799V61.1699V61.1499C77.34 61.1099 77.43 61.0399 77.49 60.9499L77.52 60.8799L77.53 60.8099C77.53 60.6999 77.47 60.5899 77.37 60.5199C77.28 60.4499 77.15 60.4099 77.02 60.4099C76.89 60.4099 76.77 60.4499 76.67 60.5199C76.57 60.5899 76.51 60.6999 76.51 60.8099C76.51 60.9399 76.6 61.0699 76.75 61.1399L76.84 61.1799H76.87V61.1899V61.2299V61.2599V61.3499V61.3999C76.87 61.3999 76.87 61.3999 76.87 61.4099C76.86 61.4299 76.81 61.4899 76.81 61.4899C76.79 61.5399 76.78 61.5899 76.78 61.6499C76.78 61.6499 76.78 61.6799 76.78 61.7099C76.73 61.7599 76.68 61.8099 76.65 61.8799V61.9099C76.6 62.0199 76.58 62.1199 76.58 62.2299C76.58 62.2999 76.58 62.3599 76.61 62.4299C76.55 62.4299 76.39 62.4599 76.39 62.4599L76.16 62.4899C76.16 62.4899 76.04 62.5099 76.03 62.5099V62.4899V62.4599L76.02 62.4399V62.4199V62.3999V62.3799L76 62.3599V62.3499L75.99 62.3199V62.2899L75.97 62.2699V62.2499C75.97 62.2499 75.97 62.2299 75.96 62.2299L75.95 62.2099L75.94 62.1799C75.94 62.1799 75.94 62.1799 75.93 62.1699L75.92 62.1499H75.9V62.1199V62.0999C75.9 62.0999 75.9 62.0899 75.89 62.0799V62.0599L75.85 62.0199V61.9999L75.82 61.9799V61.9599L75.78 61.9099L75.76 61.8699V61.8399L75.74 61.8199V61.7899C75.74 61.7899 75.72 61.7799 75.71 61.7699V61.7499V61.7199L75.69 61.6999V61.6699V61.6499V61.6299V61.6099L75.68 61.5699V61.5199V61.5099V61.4799V61.4599V61.4099V61.3899V61.3299L75.73 61.2599L75.74 61.2199C75.76 61.1799 75.77 61.1299 75.77 61.0899C75.77 60.9799 75.72 60.8699 75.61 60.7799C75.52 60.7099 75.39 60.6699 75.25 60.6699C75.11 60.6699 74.99 60.7099 74.9 60.7799C74.8 60.8599 74.75 60.9599 74.75 61.0899C74.75 61.1999 74.8 61.2999 74.91 61.3799C74.99 61.4399 75.1 61.4799 75.23 61.4899C75.23 61.4999 75.25 61.5199 75.25 61.5199H75.26V61.5599L75.28 61.5899C75.28 61.5899 75.28 61.6099 75.29 61.6199V61.6399V61.6599L75.3 61.6699V61.6899V61.7099C75.3 61.7099 75.3 61.7099 75.3 61.7199V61.7299V61.7499C75.3 61.7599 75.3 61.7799 75.3 61.7799V61.7999V61.8199V61.8399V61.8599V61.8999V61.9199V61.9699V62.0199V62.0399V62.0999V62.1199V62.1699V62.1899V62.2199L75.31 62.2799V62.3099V62.3399V62.3699L75.33 62.3999V62.4299L75.36 62.4899V62.5199L75.37 62.5399V62.5699L75.4 62.5999V62.6199L75.41 62.6399L75.43 62.6599V62.6799L75.45 62.6999V62.7199V62.7499L75.48 62.7599C75.48 62.7599 75.48 62.7899 75.49 62.7899L75.5 62.8099V62.8399L75.51 62.8599C75.54 62.9299 75.61 63.0599 75.72 63.1499C75.72 63.1499 75.72 63.1699 75.74 63.1699V63.1799L75.71 63.2099L75.69 63.2499V63.2799L75.66 63.3199V63.3599L75.65 63.3899V63.4599V63.4999V63.5299H75.66L75.67 63.5599L75.69 63.5899V63.6099H75.71L75.73 63.6399L75.76 63.6699L75.78 63.6899L75.81 63.7099C75.81 63.7099 75.82 63.7099 75.83 63.7099C75.83 63.7299 75.85 63.7499 75.87 63.7599C75.86 63.7799 75.84 63.7999 75.83 63.8199L75.81 63.8499C75.78 63.9099 75.76 63.9899 75.76 64.0599C75.76 64.2499 75.87 64.4199 76.05 64.5099L76.16 64.5499C76.16 64.5499 76.19 64.5499 76.21 64.5499V64.5699V64.5999L76.25 64.6299L76.27 64.6499L76.29 64.6699C76.29 64.7099 76.26 64.7799 76.26 64.7799C76.26 64.8199 76.26 64.8499 76.26 64.8799C76.26 64.9599 76.28 65.0199 76.3 65.0899C76.34 65.1899 76.42 65.2599 76.53 65.2999L76.57 65.3099C76.57 65.3799 76.59 65.4399 76.62 65.4999C76.68 65.5799 76.76 65.6199 76.89 65.6399H76.92C77.82 65.7299 78.82 65.7699 79.89 65.8099C80.77 65.8299 81.71 65.8399 82.94 65.8399C84.17 65.8399 85.11 65.8399 85.98 65.8099C87.05 65.7799 88.05 65.7299 88.96 65.6499L89.03 65.6399C89.13 65.6199 89.2 65.5699 89.26 65.5099C89.3 65.4599 89.32 65.3999 89.32 65.3399C89.32 65.3299 89.32 65.3199 89.32 65.2999C89.33 65.2999 89.37 65.2899 89.37 65.2899C89.48 65.2499 89.55 65.1699 89.59 65.0699C89.61 65.0099 89.62 64.9599 89.62 64.8999C89.62 64.8499 89.62 64.8099 89.61 64.7499C89.61 64.7499 89.59 64.6999 89.58 64.6599L89.6 64.6299V64.6199L89.62 64.5999V64.5799C89.75 64.5799 89.88 64.5299 89.96 64.4399C90.06 64.3399 90.12 64.2199 90.12 64.0799C90.12 63.9699 90.08 63.8699 90.02 63.7799C90.02 63.7799 90.02 63.7799 90 63.7599C90.02 63.7399 90.03 63.7299 90.03 63.7299L90.06 63.7099L90.09 63.6899L90.14 63.6599L90.16 63.6299L90.18 63.5999L90.19 63.5699L90.21 63.5399V63.5099L90.23 63.4699V63.4399V63.3999V63.3699V63.3299L90.21 63.2899L90.19 63.2499L90.17 63.2099V63.1799H90.15C90.29 63.0799 90.38 62.9199 90.41 62.8499L90.43 62.7999V62.7699L90.46 62.6899V62.6699V62.6599H90.47V62.6099L90.49 62.5999V62.5799L90.51 62.5499V62.5199L90.53 62.4999V62.4699L90.55 62.4399V62.4099V62.3799V62.3499L90.56 62.3199V62.2899L90.57 62.2599V62.2299L90.58 62.1999V62.1799V62.1499V62.0999V62.0799V62.0499V62.0299V62.0099V61.9799V61.9599V61.9399V61.8899V61.8299V61.8199V61.7899V61.7699V61.7499C90.58 61.7499 90.58 61.7499 90.58 61.7399V61.7199V61.6999V61.6899V61.6699V61.6599V61.6399L90.59 61.6099V61.5799L90.62 61.5499V61.5199L90.65 61.4999L90.67 61.4799C90.79 61.4699 90.91 61.4299 90.99 61.3599C91.09 61.2799 91.15 61.1699 91.15 61.0699C91.15 60.9599 91.09 60.8499 90.99 60.7599L90.77 60.8299ZM75.93 64.4399C75.82 64.4399 75.73 64.3799 75.68 64.2899L75.66 64.2299V64.1699C75.65 64.0899 75.68 64.0199 75.74 63.9699L75.78 63.9399L75.81 63.9299L75.93 63.8999V63.9199V64.0699C75.93 64.1799 75.93 64.2899 75.96 64.3899C75.96 64.3899 75.97 64.4099 75.98 64.4199L75.95 64.4399H75.93ZM76.14 64.2499C76.14 64.2499 76.12 64.1399 76.12 64.0599V63.8799C76.12 63.8799 76.14 63.8599 76.14 63.8499C76.17 63.8499 76.28 63.8199 76.28 63.8199H76.35C76.35 63.8199 76.37 63.8099 76.38 63.7999V64.0199L76.39 64.0499V64.0699C76.4 64.1599 76.42 64.2299 76.46 64.3199C76.45 64.3199 76.43 64.3199 76.43 64.3199L76.22 64.3499C76.22 64.3499 76.2 64.3499 76.17 64.3499C76.17 64.3199 76.15 64.2599 76.15 64.2599V64.2299L76.14 64.2499ZM89.06 64.9799V64.9999V65.0299V65.0499L89.05 65.0699L89.03 65.0999H89.02L89 65.1399H88.98L88.96 65.1699H88.95L88.93 65.1799H88.91V65.1899H88.88C88.88 65.1899 88.86 65.1999 88.85 65.2099H88.68L88.62 65.1899L88.36 65.1699L88.17 65.1499L87.98 65.1299L87.79 65.1099H87.6L87.41 65.0799L87.22 65.0599L87.03 65.0399L86.83 65.0199H86.64L86.45 64.9999H86.26L86.07 64.9699L85.69 64.9499H85.5L85.31 64.9399L85.12 64.9199H84.93L84.55 64.8999H84.36L83.98 64.8799H83.79H83.6H83.41H83.22H83.03H82.84H81.73H81.55H81.37L81.19 64.8899H81.01L80.65 64.9099H80.47L80.28 64.9299H80.1L79.92 64.9399L79.74 64.9599H79.56L79.38 64.9699L79.2 64.9899L78.84 65.0199H78.66L78.47 65.0399H78.29L78.11 65.0699L77.93 65.0899L77.75 65.1099L77.57 65.1299L77.2 65.1599L77.02 65.1799L76.84 65.1999L76.66 65.2199H76.59L76.54 65.2399H76.39H76.37C76.37 65.2399 76.35 65.2399 76.34 65.2399L76.32 65.2299H76.29L76.28 65.2099H76.26L76.25 65.1899L76.23 65.1699L76.22 65.1399C76.22 65.1399 76.22 65.1399 76.22 65.1199V65.0999V65.0699L76.21 65.0499V64.9499V64.9199V64.8699L76.23 64.8399C76.23 64.8399 76.23 64.8399 76.23 64.8299C76.27 64.8299 76.38 64.8099 76.38 64.8099L76.58 64.7799L76.78 64.7499L76.99 64.7299L77.18 64.6999L77.38 64.6799L77.58 64.6599L77.78 64.6299L77.97 64.6099L78.17 64.5899L78.36 64.5699L78.56 64.5499L78.76 64.5299L78.96 64.5099H79.16L79.36 64.4799H79.56L79.76 64.4499H79.96L80.16 64.4299H80.36L80.75 64.3999H80.95L81.15 64.3799H81.35H81.55H81.74L81.94 64.3699H82.14H82.34H82.95H83.16H83.37L83.57 64.3799H83.78H83.99H84.2L84.4 64.3999H84.81L85.22 64.4399H85.43L85.64 64.4699H85.85L86.06 64.4999H86.27L86.48 64.5299L86.69 64.5499L86.9 64.5699L87.11 64.5899L87.31 64.6099L87.52 64.6299L87.72 64.6599L88.13 64.6999L88.34 64.7299L88.55 64.7499L88.76 64.7799L88.97 64.8099C88.97 64.8099 89.09 64.8299 89.13 64.8299L89.14 64.8699V64.8999C89.14 64.8999 89.14 64.9099 89.15 64.9299V64.9599C89.15 64.9599 89.15 64.9799 89.15 64.9899V65.0399L89.06 64.9799ZM76.58 63.8699V63.8199C76.58 63.8199 76.58 63.7899 76.58 63.7799C76.63 63.7699 76.82 63.7399 76.82 63.7399H76.9C76.9 63.7399 77.02 63.7099 77.07 63.6999C77.09 63.7499 77.11 63.8099 77.13 63.8699V63.8999V63.9699C77.15 64.0399 77.16 64.0999 77.16 64.1799V64.2199C77.16 64.2199 77.16 64.2399 77.16 64.2499C77.12 64.2499 77.05 64.2699 77.05 64.2699L76.85 64.2899C76.85 64.2899 76.71 64.3099 76.67 64.3199C76.66 64.2799 76.62 64.1599 76.62 64.1599V64.1099L76.61 64.0899V64.0599C76.6 63.9999 76.59 63.9499 76.59 63.8899L76.58 63.8699ZM77.4 63.6499L77.73 63.5999C77.73 63.5999 77.96 63.5699 78.05 63.5599C78.05 63.5799 78.07 63.5999 78.07 63.5999V63.6199V63.6799V63.7799C78.07 63.8699 78.09 63.9399 78.09 64.0099V64.0499L78.11 64.0799C78.11 64.0799 78.1 64.1299 78.1 64.1399H78.08L77.88 64.1699H77.67C77.67 64.1699 77.44 64.2099 77.42 64.2099C77.42 64.1799 77.4 64.1299 77.4 64.1299C77.4 64.1399 77.4 64.0899 77.4 64.0899C77.4 64.0899 77.39 63.9899 77.39 63.9199C77.39 63.8299 77.39 63.7499 77.42 63.6899V63.6599L77.4 63.6499ZM78.31 64.0299V63.9899C78.28 63.9199 78.27 63.8499 78.27 63.7799C78.27 63.7099 78.27 63.6299 78.3 63.5599V63.5299C78.34 63.5299 78.56 63.4999 78.56 63.4999H78.63L78.75 63.4799C78.75 63.4799 78.9 63.4599 78.95 63.4599C78.95 63.4899 78.98 63.5599 78.98 63.5599C78.98 63.5499 78.99 63.5999 78.99 63.5999C79 63.6599 79 63.7299 79 63.7899C79 63.8799 78.99 63.9599 78.97 64.0399V64.0699H78.96C78.93 64.0699 78.87 64.0699 78.87 64.0699H78.66L78.46 64.0999C78.46 64.0999 78.37 64.0999 78.32 64.0999C78.3 64.0699 78.29 64.0099 78.29 64.0099L78.31 64.0299ZM79.29 63.9499V63.9199V63.9099C79.28 63.8499 79.26 63.7699 79.26 63.6899C79.26 63.5999 79.28 63.5199 79.29 63.4599C79.29 63.4599 79.29 63.4399 79.29 63.4299C79.34 63.4299 79.63 63.3999 79.63 63.3999C79.63 63.3999 79.9 63.3799 79.96 63.3699C79.96 63.3999 79.99 63.4599 79.99 63.4599C79.99 63.4699 79.99 63.4899 79.99 63.4899C80.01 63.5599 80.02 63.6199 80.02 63.6899C80.02 63.7799 80.01 63.8799 79.98 63.9599V63.9899L79.97 64.0099C79.95 64.0099 79.93 64.0099 79.93 64.0099H79.73L79.52 64.0299C79.52 64.0299 79.38 64.0399 79.34 64.0399C79.32 63.9999 79.3 63.9399 79.3 63.9399L79.29 63.9499ZM80.23 63.6699C80.23 63.5799 80.25 63.4899 80.27 63.3999V63.3699V63.3499C80.32 63.3499 80.59 63.3299 80.59 63.3299C80.59 63.3299 80.85 63.3099 80.91 63.3099C80.92 63.3399 80.94 63.4099 80.94 63.4099L80.95 63.4399C80.96 63.5099 80.97 63.5799 80.97 63.6499C80.97 63.7399 80.97 63.8299 80.94 63.9099C80.94 63.9099 80.94 63.9399 80.93 63.9499H80.73H80.52L80.32 63.9699C80.32 63.9699 80.29 63.9699 80.28 63.9699C80.27 63.9299 80.25 63.8699 80.25 63.8699V63.8499C80.24 63.7799 80.23 63.7099 80.23 63.6399V63.6699ZM81.97 63.5699C81.97 63.6899 81.95 63.7899 81.92 63.8799L81.91 63.9299H81.77H81.57H81.36H81.31C81.31 63.9299 81.28 63.8599 81.26 63.8199L81.25 63.7799C81.24 63.7199 81.23 63.6399 81.23 63.5499C81.23 63.4799 81.23 63.3999 81.25 63.3099V63.2899C81.31 63.2899 81.54 63.2899 81.54 63.2899H81.59L81.75 63.2699H81.92L81.95 63.3499V63.3899V63.3799V63.5599L81.97 63.5699ZM82.24 63.5699C82.24 63.4799 82.25 63.3999 82.28 63.3099L82.29 63.2699C82.31 63.2699 82.6 63.2699 82.6 63.2699H82.8C82.8 63.2699 82.92 63.2699 82.94 63.2699L82.97 63.3599V63.3799C82.99 63.4399 82.99 63.4999 82.99 63.5699C82.99 63.6799 82.97 63.7799 82.94 63.8799L82.92 63.9199C82.92 63.9199 82.92 63.9199 82.92 63.9299H82.31L82.27 63.8199V63.7999L82.26 63.7899C82.25 63.6999 82.24 63.6399 82.24 63.5599V63.5699ZM83.25 63.5699C83.25 63.4899 83.26 63.3999 83.28 63.3099C83.28 63.3099 83.29 63.2799 83.29 63.2699C83.35 63.2699 83.62 63.2899 83.62 63.2899H83.79C83.79 63.2899 83.93 63.2899 83.96 63.2899C83.96 63.3099 83.98 63.3499 83.98 63.3499V63.3699V63.3899V63.5599C83.99 63.6799 83.98 63.7899 83.94 63.8799V63.9199L83.92 63.9299H83.81H83.6H83.4H83.32L83.28 63.8199V63.7999C83.27 63.7099 83.26 63.6399 83.26 63.5699H83.25ZM84.24 63.6699C84.24 63.5699 84.25 63.4699 84.28 63.3699L84.3 63.3399V63.3199H84.47L84.81 63.3399C84.81 63.3399 84.9 63.3399 84.94 63.3499C84.95 63.3799 84.97 63.4399 84.97 63.4399L84.98 63.4699C84.98 63.5199 84.99 63.5899 84.99 63.6499C84.99 63.7499 84.98 63.8499 84.94 63.9399L84.93 63.9799C84.9 63.9799 84.84 63.9799 84.84 63.9799L84.43 63.9599C84.43 63.9599 84.33 63.9599 84.29 63.9599V63.9399L84.27 63.8699V63.8399L84.25 63.6499L84.24 63.6699ZM85.21 63.6899C85.21 63.5899 85.22 63.4999 85.25 63.4199C85.25 63.4199 85.26 63.3799 85.27 63.3699C85.33 63.3699 85.6 63.3999 85.6 63.3999L85.83 63.4199C85.83 63.4199 85.89 63.4199 85.93 63.4199C85.93 63.4499 85.95 63.4899 85.95 63.4899L85.96 63.6699C85.96 63.7799 85.94 63.8799 85.91 63.9799L85.89 64.0199H85.65L85.45 63.9999C85.45 63.9999 85.29 63.9999 85.26 63.9999C85.25 63.9699 85.23 63.9099 85.23 63.9099L85.22 63.8799L85.2 63.6899H85.21ZM86.19 63.7899C86.19 63.6899 86.21 63.5899 86.23 63.5099L86.25 63.4699C86.31 63.4799 86.74 63.5299 86.74 63.5299L86.85 63.5499H86.91L86.93 63.6199V63.6399L86.95 63.7999C86.95 63.9099 86.93 63.9999 86.9 64.0899V64.1399C86.88 64.1399 86.71 64.1199 86.71 64.1199L86.5 64.0999H86.3C86.3 64.0999 86.28 64.0799 86.26 64.0799C86.26 64.0499 86.24 63.9999 86.24 63.9999V63.9699L86.22 63.7899H86.19ZM87.15 63.6599V63.6399C87.15 63.6399 87.17 63.5899 87.18 63.5699C87.22 63.5699 87.31 63.5899 87.31 63.5899L87.66 63.6399L87.77 63.6599C87.77 63.6599 87.8 63.6599 87.83 63.6599C87.83 63.6899 87.85 63.7299 87.85 63.7299C87.85 63.7399 87.85 63.7499 87.85 63.7499L87.86 63.9199C87.86 64.0099 87.85 64.0999 87.82 64.1899C87.82 64.1899 87.82 64.2199 87.81 64.2299C87.77 64.2299 87.5 64.1899 87.5 64.1899H87.3C87.3 64.1899 87.18 64.1599 87.13 64.1599V64.1199L87.12 64.0899L87.14 63.9799C87.14 63.9699 87.14 63.9599 87.14 63.9599L87.15 63.7999V63.6599ZM88.03 64.2499L88.08 64.0399V63.9899C88.1 63.8899 88.12 63.8099 88.15 63.7399C88.15 63.7399 88.16 63.7199 88.16 63.7099C88.16 63.7099 88.57 63.7699 88.65 63.7799C88.65 63.7999 88.65 63.8299 88.65 63.8499C88.65 63.8799 88.65 63.9199 88.65 63.9399V63.9999L88.64 64.0299C88.63 64.1199 88.61 64.1999 88.58 64.2599C88.58 64.2599 88.57 64.2899 88.57 64.2999H88.54L88.34 64.2699L88.14 64.2499L88.05 64.2299L88.03 64.2499ZM89.1 64.0599C89.1 64.1499 89.09 64.2399 89.06 64.3299V64.3499C89.06 64.3499 89.05 64.3699 89.05 64.3799C89 64.3799 88.94 64.3599 88.94 64.3599C88.94 64.3599 88.8 64.3399 88.76 64.3299C88.78 64.2799 88.8 64.2299 88.81 64.1799V64.1299L88.83 64.0799C88.85 63.9999 88.85 63.9299 88.85 63.8499V63.8099L88.94 63.8199C88.94 63.8199 89.06 63.8399 89.08 63.8499C89.08 63.8499 89.08 63.8899 89.09 63.8999V63.9199V63.9499V64.0599H89.1ZM89.49 64.3699C89.43 64.4199 89.35 64.4599 89.26 64.4599H89.25L89.28 64.3499V64.3199C89.3 64.2399 89.31 64.1599 89.31 64.0799C89.31 64.0799 89.3 63.9699 89.3 63.9099H89.32C89.32 63.9099 89.41 63.9299 89.43 63.9299C89.47 63.9599 89.51 63.9899 89.54 64.0299L89.56 64.0599C89.56 64.0599 89.58 64.1299 89.58 64.1699C89.58 64.2499 89.55 64.3299 89.49 64.3799V64.3699ZM89.73 63.5499C89.73 63.5499 89.7 63.5999 89.68 63.6299C89.66 63.6499 89.63 63.6599 89.61 63.6699C89.59 63.6499 89.56 63.6399 89.53 63.6299L89.5 63.6199C89.19 63.5599 88.86 63.5099 88.54 63.4599C88.22 63.4099 87.89 63.3599 87.57 63.3199C85.92 63.0999 84.26 62.9799 82.61 62.9699H82.59C82.27 62.9699 81.94 62.9799 81.62 62.9899C81.29 62.9899 80.98 63.0199 80.66 63.0299C79.01 63.1299 77.35 63.3299 75.7 63.6299C75.7 63.6299 75.69 63.6299 75.68 63.6299C75.68 63.6299 75.67 63.6299 75.66 63.6399C75.64 63.6499 75.62 63.6699 75.61 63.6699C75.59 63.6699 75.56 63.6499 75.55 63.6299C75.52 63.6099 75.5 63.5799 75.49 63.5499C75.49 63.5199 75.49 63.4799 75.49 63.4499C75.5 63.4199 75.52 63.3799 75.55 63.3499C75.57 63.3399 75.59 63.3299 75.61 63.3099H75.67C75.67 63.3099 75.77 63.2999 75.82 63.2699C76.97 63.0899 78.11 62.9399 79.24 62.8399C80.37 62.7299 81.5 62.6699 82.62 62.6599C83.74 62.6699 84.86 62.7299 86 62.8399C87.13 62.9399 88.27 63.0899 89.42 63.2699C89.43 63.2699 89.44 63.2699 89.45 63.2699C89.45 63.2699 89.47 63.2799 89.48 63.2899C89.53 63.2999 89.58 63.3099 89.62 63.2999H89.63C89.63 63.2999 89.67 63.3199 89.69 63.3399C89.72 63.3799 89.74 63.4199 89.75 63.4399C89.76 63.4799 89.76 63.5099 89.75 63.5399L89.73 63.5499Z" fill="#631015"/>
<path d="M112.73 90.8301L112.81 91.9201H112.73C112.63 91.5901 112.49 91.3601 112.31 91.2101C112.13 91.0701 111.9 91.0001 111.64 91.0001C111.42 91.0001 111.23 91.0501 111.05 91.1601C110.88 91.2701 110.74 91.4401 110.64 91.6801C110.54 91.9201 110.49 92.2101 110.49 92.5601C110.49 92.8501 110.54 93.1001 110.63 93.3201C110.73 93.5301 110.87 93.6901 111.06 93.8101C111.25 93.9201 111.47 93.9801 111.71 93.9801C111.92 93.9801 112.11 93.9401 112.27 93.8501C112.43 93.7601 112.61 93.5801 112.8 93.3201L112.88 93.3601C112.71 93.6401 112.52 93.8601 112.3 93.9901C112.08 94.1201 111.82 94.1901 111.52 94.1901C110.98 94.1901 110.56 93.9901 110.26 93.6001C110.04 93.3101 109.93 92.9601 109.93 92.5701C109.93 92.2501 110 91.9501 110.15 91.6901C110.3 91.4201 110.5 91.2101 110.75 91.0601C111.01 90.9201 111.29 90.8401 111.59 90.8401C111.83 90.8401 112.06 90.9001 112.29 91.0101C112.36 91.0501 112.4 91.0601 112.43 91.0601C112.47 91.0601 112.51 91.0401 112.55 91.0101C112.59 90.9701 112.62 90.9101 112.64 90.8301H112.72H112.73Z" fill="#7E1D22"/>
<path d="M113.85 90.75V92.33C114.03 92.14 114.17 92.01 114.27 91.96C114.38 91.91 114.48 91.88 114.59 91.88C114.72 91.88 114.82 91.91 114.91 91.98C115 92.05 115.07 92.16 115.11 92.3C115.15 92.4 115.16 92.58 115.16 92.85V93.61C115.16 93.75 115.16 93.84 115.19 93.89C115.2 93.93 115.23 93.96 115.27 93.98C115.31 94 115.38 94.01 115.49 94.01V94.1H114.4V94.01H114.45C114.55 94.01 114.62 93.99 114.67 93.96C114.71 93.93 114.74 93.89 114.75 93.83C114.75 93.81 114.75 93.73 114.75 93.61V92.85C114.75 92.61 114.74 92.46 114.71 92.38C114.69 92.31 114.65 92.25 114.59 92.21C114.54 92.17 114.47 92.16 114.39 92.16C114.31 92.16 114.23 92.18 114.15 92.22C114.06 92.26 113.96 92.34 113.84 92.47V93.61C113.84 93.76 113.84 93.86 113.87 93.89C113.89 93.93 113.92 93.96 113.96 93.98C114 94.01 114.08 94.02 114.19 94.02V94.11H113.1V94.02C113.2 94.02 113.27 94 113.33 93.98C113.36 93.96 113.39 93.93 113.41 93.88C113.43 93.84 113.44 93.75 113.44 93.61V91.65C113.44 91.4 113.44 91.25 113.42 91.2C113.41 91.14 113.39 91.1 113.36 91.08C113.34 91.06 113.3 91.05 113.26 91.05C113.23 91.05 113.17 91.05 113.1 91.08L113.06 91L113.72 90.73H113.83L113.85 90.75Z" fill="#7E1D22"/>
<path d="M116.43 91.88V93.62C116.43 93.76 116.44 93.85 116.46 93.89C116.49 93.93 116.51 93.97 116.55 93.99C116.59 94.01 116.66 94.02 116.77 94.02V94.11H115.7V94.02C115.81 94.02 115.88 94.01 115.92 93.99C115.96 93.97 115.99 93.94 116.01 93.89C116.03 93.84 116.04 93.75 116.04 93.62V92.79C116.04 92.56 116.04 92.41 116.02 92.33C116.01 92.28 115.99 92.24 115.97 92.23C115.94 92.21 115.91 92.19 115.87 92.19C115.82 92.19 115.77 92.21 115.7 92.23L115.67 92.15L116.34 91.88H116.44H116.43ZM116.24 90.75C116.31 90.75 116.37 90.77 116.41 90.82C116.46 90.86 116.48 90.92 116.48 90.98C116.48 91.05 116.46 91.11 116.41 91.15C116.37 91.2 116.3 91.22 116.24 91.22C116.18 91.22 116.12 91.2 116.06 91.15C116.02 91.1 115.99 91.05 115.99 90.98C115.99 90.92 116.02 90.87 116.06 90.82C116.11 90.77 116.17 90.75 116.24 90.75Z" fill="#7E1D22"/>
<path d="M118.299 93.7999C118.069 93.9699 117.929 94.0699 117.869 94.0999C117.789 94.1299 117.689 94.1499 117.599 94.1499C117.439 94.1499 117.319 94.0999 117.219 93.9999C117.119 93.8999 117.069 93.7699 117.069 93.5999C117.069 93.4899 117.089 93.3999 117.139 93.3299C117.209 93.2199 117.319 93.1199 117.479 93.0299C117.639 92.9299 117.909 92.8199 118.289 92.6799V92.5999C118.289 92.3899 118.249 92.2399 118.179 92.1599C118.109 92.0799 118.009 92.0399 117.879 92.0399C117.779 92.0399 117.689 92.0699 117.639 92.1199C117.579 92.1699 117.549 92.2299 117.549 92.2999V92.4399C117.549 92.5099 117.539 92.5699 117.499 92.6099C117.459 92.6499 117.409 92.6699 117.349 92.6699C117.289 92.6699 117.239 92.6499 117.199 92.6099C117.159 92.5599 117.149 92.5099 117.149 92.4399C117.149 92.3099 117.219 92.1799 117.359 92.0699C117.499 91.9499 117.689 91.8999 117.949 91.8999C118.149 91.8999 118.299 91.9299 118.429 91.9899C118.529 92.0399 118.599 92.1099 118.649 92.2199C118.679 92.2899 118.689 92.4299 118.689 92.6299V93.3699C118.689 93.5799 118.689 93.7099 118.699 93.7499C118.699 93.7899 118.719 93.8299 118.739 93.8399C118.759 93.8599 118.779 93.8699 118.799 93.8699C118.829 93.8699 118.849 93.8699 118.869 93.8499C118.909 93.8299 118.969 93.7699 119.069 93.6799V93.8099C118.889 94.0499 118.719 94.1599 118.559 94.1599C118.479 94.1599 118.419 94.1299 118.369 94.0799C118.319 94.0299 118.299 93.9399 118.299 93.7999ZM118.299 93.6399V92.8199C118.059 92.9199 117.899 92.9799 117.829 93.0199C117.699 93.0899 117.609 93.1699 117.549 93.2399C117.499 93.3199 117.459 93.3999 117.459 93.4899C117.459 93.5999 117.499 93.6999 117.569 93.7699C117.639 93.8499 117.719 93.8799 117.809 93.8799C117.929 93.8799 118.089 93.7999 118.289 93.6399H118.299Z" fill="#7E1D22"/>
<path d="M120.81 90.9899V90.9099H122.21V90.9899H122.09C121.96 90.9899 121.86 91.0299 121.8 91.0999C121.76 91.1499 121.74 91.2799 121.74 91.4699V93.0299C121.74 93.2799 121.71 93.4699 121.66 93.6199C121.61 93.7699 121.51 93.8999 121.38 94.0099C121.25 94.1199 121.09 94.1799 120.9 94.1799C120.75 94.1799 120.63 94.1399 120.54 94.0699C120.45 93.9999 120.41 93.9199 120.41 93.8199C120.41 93.7399 120.43 93.6799 120.47 93.6399C120.52 93.5899 120.59 93.5699 120.66 93.5699C120.71 93.5699 120.76 93.5799 120.8 93.6199C120.84 93.6499 120.89 93.7399 120.96 93.8799C120.99 93.9699 121.05 94.0099 121.1 94.0099C121.14 94.0099 121.19 93.9899 121.22 93.9299C121.26 93.8799 121.28 93.7899 121.28 93.6599V91.4699C121.28 91.3099 121.27 91.1999 121.25 91.1499C121.23 91.1099 121.2 91.0799 121.14 91.0499C121.07 91.0099 121 90.9999 120.92 90.9999H120.8L120.81 90.9899Z" fill="#7E1D22"/>
<path d="M123.15 91.88V93.62C123.15 93.76 123.15 93.85 123.18 93.89C123.2 93.93 123.23 93.97 123.27 93.99C123.31 94.01 123.38 94.02 123.48 94.02V94.11H122.41V94.02C122.52 94.02 122.59 94.01 122.63 93.99C122.66 93.97 122.69 93.94 122.72 93.89C122.74 93.84 122.76 93.75 122.76 93.62V92.79C122.76 92.56 122.76 92.41 122.74 92.33C122.73 92.28 122.71 92.24 122.69 92.23C122.66 92.21 122.63 92.19 122.59 92.19C122.55 92.19 122.49 92.21 122.43 92.23L122.39 92.15L123.06 91.88H123.17H123.15ZM122.95 90.75C123.02 90.75 123.08 90.77 123.13 90.82C123.18 90.86 123.2 90.92 123.2 90.98C123.2 91.05 123.18 91.11 123.13 91.15C123.08 91.2 123.02 91.22 122.95 91.22C122.88 91.22 122.83 91.2 122.78 91.15C122.73 91.1 122.71 91.05 122.71 90.98C122.71 90.92 122.73 90.87 122.78 90.82C122.83 90.77 122.89 90.75 122.95 90.75Z" fill="#7E1D22"/>
<path d="M125.01 93.7999C124.79 93.9699 124.64 94.0699 124.59 94.0999C124.5 94.1299 124.41 94.1499 124.31 94.1499C124.16 94.1499 124.04 94.0999 123.94 93.9999C123.84 93.8999 123.79 93.7699 123.79 93.5999C123.79 93.4899 123.81 93.3999 123.86 93.3299C123.93 93.2199 124.04 93.1199 124.21 93.0299C124.37 92.9299 124.64 92.8199 125.02 92.6799V92.5999C125.02 92.3899 124.99 92.2399 124.91 92.1599C124.84 92.0799 124.74 92.0399 124.61 92.0399C124.51 92.0399 124.43 92.0699 124.37 92.1199C124.31 92.1699 124.28 92.2299 124.28 92.2999V92.4399C124.28 92.5099 124.28 92.5699 124.23 92.6099C124.19 92.6499 124.14 92.6699 124.08 92.6699C124.02 92.6699 123.97 92.6499 123.93 92.6099C123.89 92.5599 123.88 92.5099 123.88 92.4399C123.88 92.3099 123.95 92.1799 124.09 92.0699C124.23 91.9499 124.43 91.8999 124.69 91.8999C124.88 91.8999 125.04 91.9299 125.17 91.9899C125.26 92.0399 125.34 92.1099 125.38 92.2199C125.4 92.2899 125.42 92.4299 125.42 92.6299V93.3699C125.42 93.5799 125.42 93.7099 125.43 93.7499C125.43 93.7899 125.45 93.8299 125.47 93.8399C125.49 93.8599 125.51 93.8699 125.53 93.8699C125.56 93.8699 125.57 93.8699 125.6 93.8499C125.63 93.8299 125.7 93.7699 125.8 93.6799V93.8099C125.62 94.0499 125.45 94.1599 125.28 94.1599C125.2 94.1599 125.14 94.1299 125.09 94.0799C125.05 94.0299 125.02 93.9399 125.02 93.7999H125.01ZM125.01 93.6399V92.8199C124.77 92.9199 124.61 92.9799 124.54 93.0199C124.41 93.0899 124.33 93.1699 124.27 93.2399C124.22 93.3199 124.19 93.3999 124.19 93.4899C124.19 93.5999 124.22 93.6999 124.29 93.7699C124.36 93.8499 124.44 93.8799 124.53 93.8799C124.65 93.8799 124.82 93.7999 125.01 93.6399Z" fill="#7E1D22"/>
<path d="M126.6 92.3399C126.86 92.0299 127.1 91.8899 127.34 91.8899C127.46 91.8899 127.56 91.9199 127.65 91.9799C127.74 92.0399 127.81 92.1299 127.86 92.2699C127.89 92.3599 127.92 92.5099 127.92 92.6999V93.6199C127.92 93.7599 127.93 93.8499 127.95 93.8999C127.97 93.9399 128 93.9699 128.03 93.9899C128.07 94.0099 128.15 94.0199 128.25 94.0199V94.1099H127.15V94.0199H127.2C127.3 94.0199 127.37 93.9999 127.41 93.9699C127.45 93.9399 127.48 93.8999 127.5 93.8399C127.5 93.8199 127.51 93.7399 127.51 93.6199V92.7399C127.51 92.5399 127.48 92.3999 127.43 92.3099C127.38 92.2199 127.29 92.1799 127.17 92.1799C126.98 92.1799 126.79 92.2799 126.6 92.4899V93.6299C126.6 93.7699 126.6 93.8699 126.62 93.8999C126.64 93.9399 126.67 93.9799 126.72 93.9999C126.76 94.0199 126.84 94.0299 126.96 94.0299V94.1199H125.87V94.0299H125.92C126.03 94.0299 126.11 93.9999 126.15 93.9399C126.19 93.8899 126.21 93.7799 126.21 93.6199V92.8199C126.21 92.5599 126.21 92.3999 126.19 92.3499C126.18 92.2899 126.16 92.2499 126.13 92.2299C126.11 92.2099 126.07 92.1899 126.03 92.1899C125.98 92.1899 125.93 92.2099 125.87 92.2299L125.83 92.1499L126.5 91.8799H126.61V92.3299L126.6 92.3399Z" fill="#7E1D22"/>
<path d="M129.06 92.3399C129.32 92.0299 129.57 91.8899 129.8 91.8899C129.92 91.8899 130.02 91.9199 130.11 91.9799C130.2 92.0399 130.26 92.1299 130.31 92.2699C130.34 92.3599 130.36 92.5099 130.36 92.6999V93.6199C130.36 93.7599 130.36 93.8499 130.39 93.8999C130.41 93.9399 130.44 93.9699 130.48 93.9899C130.52 94.0099 130.59 94.0199 130.69 94.0199V94.1099H129.6V94.0199H129.65C129.76 94.0199 129.82 93.9999 129.87 93.9699C129.91 93.9399 129.94 93.8999 129.96 93.8399C129.96 93.8199 129.96 93.7399 129.96 93.6199V92.7399C129.96 92.5399 129.94 92.3999 129.88 92.3099C129.83 92.2199 129.74 92.1799 129.61 92.1799C129.42 92.1799 129.23 92.2799 129.04 92.4899V93.6299C129.04 93.7699 129.05 93.8699 129.07 93.8999C129.09 93.9399 129.12 93.9799 129.16 93.9999C129.2 94.0199 129.28 94.0299 129.4 94.0299V94.1199H128.31V94.0299H128.36C128.47 94.0299 128.55 93.9999 128.58 93.9399C128.62 93.8899 128.64 93.7799 128.64 93.6199V92.8199C128.64 92.5599 128.64 92.3999 128.63 92.3499C128.61 92.2899 128.6 92.2499 128.57 92.2299C128.55 92.2099 128.51 92.1899 128.47 92.1899C128.43 92.1899 128.37 92.2099 128.31 92.2299L128.27 92.1499L128.94 91.8799H129.04V92.3299L129.06 92.3399Z" fill="#7E1D22"/>
<path d="M132.98 91.0799V92.3399H133.58C133.71 92.3399 133.81 92.3099 133.88 92.2499C133.95 92.1899 133.99 92.0799 134 91.8999H134.09V92.9799H134C134 92.8599 133.98 92.7599 133.95 92.7099C133.92 92.6499 133.88 92.6099 133.82 92.5799C133.76 92.5499 133.68 92.5399 133.57 92.5399H132.97V93.5499C132.97 93.7099 132.98 93.8099 133 93.8699C133.02 93.9099 133.05 93.9399 133.1 93.9699C133.17 94.0099 133.25 94.0299 133.32 94.0299H133.44V94.1199H132.04V94.0299H132.16C132.29 94.0299 132.39 93.9999 132.45 93.9099C132.49 93.8599 132.51 93.7399 132.51 93.5499V91.4799C132.51 91.3199 132.5 91.2099 132.48 91.1599C132.47 91.1199 132.43 91.0899 132.38 91.0599C132.31 91.0199 132.23 91.0099 132.16 91.0099H132.04V90.9299H134.47L134.5 91.6299H134.42C134.38 91.4799 134.33 91.3699 134.27 91.2999C134.21 91.2299 134.15 91.1799 134.06 91.1399C133.98 91.1099 133.85 91.0999 133.68 91.0999H132.96L132.98 91.0799Z" fill="#7E1D22"/>
<path d="M136.8 91.9399V93.2499C136.8 93.4999 136.8 93.6599 136.82 93.7099C136.82 93.7699 136.85 93.8099 136.88 93.8299C136.91 93.8499 136.94 93.8599 136.97 93.8599C137.02 93.8599 137.08 93.8499 137.14 93.8199L137.17 93.8999L136.51 94.1699H136.4V93.7199C136.21 93.9199 136.06 94.0399 135.97 94.0999C135.87 94.1499 135.76 94.1699 135.65 94.1699C135.53 94.1699 135.42 94.1399 135.33 94.0699C135.24 93.9999 135.18 93.8999 135.14 93.7999C135.11 93.6899 135.09 93.5299 135.09 93.3299V92.3599C135.09 92.2599 135.08 92.1899 135.06 92.1499C135.04 92.1099 135.01 92.0799 134.96 92.0599C134.92 92.0399 134.84 92.0299 134.72 92.0299V91.9399H135.5V93.3899C135.5 93.5899 135.53 93.7199 135.61 93.7899C135.68 93.8499 135.77 93.8799 135.87 93.8799C135.94 93.8799 136.01 93.8599 136.1 93.8199C136.19 93.7799 136.29 93.6899 136.41 93.5799V92.3499C136.41 92.2299 136.39 92.1399 136.34 92.0999C136.3 92.0499 136.2 92.0299 136.06 92.0299V91.9399H136.81H136.8Z" fill="#7E1D22"/>
<path d="M137.98 91.8799V92.3599C138.16 92.0299 138.35 91.8799 138.55 91.8799C138.64 91.8799 138.71 91.9099 138.77 91.9499C138.83 92.0099 138.85 92.0599 138.85 92.1399C138.85 92.1999 138.83 92.2499 138.79 92.2999C138.75 92.3399 138.7 92.3599 138.64 92.3599C138.59 92.3599 138.52 92.3299 138.45 92.2699C138.38 92.2199 138.33 92.1999 138.3 92.1999C138.27 92.1999 138.24 92.2099 138.2 92.2399C138.13 92.2999 138.05 92.4099 137.98 92.5599V93.5999C137.98 93.7199 137.99 93.8099 138.03 93.8699C138.05 93.9199 138.08 93.9499 138.14 93.9799C138.19 93.9999 138.27 94.0199 138.37 94.0199V94.1099H137.24V94.0199C137.35 94.0199 137.44 93.9999 137.49 93.9699C137.53 93.9399 137.56 93.9099 137.57 93.8499C137.57 93.8199 137.58 93.7499 137.58 93.6199V92.7699C137.58 92.5199 137.58 92.3699 137.56 92.3199C137.56 92.2699 137.53 92.2399 137.51 92.2199C137.48 92.1999 137.44 92.1799 137.41 92.1799C137.36 92.1799 137.3 92.1999 137.24 92.2199L137.21 92.1399L137.88 91.8699H137.98V91.8799Z" fill="#7E1D22"/>
<path d="M139.62 92.3399C139.88 92.0299 140.13 91.8899 140.36 91.8899C140.48 91.8899 140.58 91.9199 140.67 91.9799C140.76 92.0399 140.82 92.1299 140.88 92.2699C140.92 92.3599 140.93 92.5099 140.93 92.6999V93.6199C140.93 93.7599 140.94 93.8499 140.97 93.8999C140.99 93.9399 141.02 93.9699 141.05 93.9899C141.09 94.0099 141.16 94.0199 141.27 94.0199V94.1099H140.18V94.0199H140.22C140.33 94.0199 140.4 93.9999 140.44 93.9699C140.48 93.9399 140.51 93.8999 140.53 93.8399C140.53 93.8199 140.53 93.7399 140.53 93.6199V92.7399C140.53 92.5399 140.5 92.3999 140.45 92.3099C140.4 92.2199 140.31 92.1799 140.19 92.1799C140 92.1799 139.81 92.2799 139.62 92.4899V93.6299C139.62 93.7699 139.62 93.8699 139.65 93.8999C139.67 93.9399 139.7 93.9799 139.74 93.9999C139.78 94.0199 139.86 94.0299 139.98 94.0299V94.1199H138.89V94.0299H138.94C139.05 94.0299 139.13 93.9999 139.17 93.9399C139.21 93.8899 139.23 93.7799 139.23 93.6199V92.8199C139.23 92.5599 139.23 92.3999 139.21 92.3499C139.19 92.2899 139.18 92.2499 139.15 92.2299C139.12 92.2099 139.09 92.1899 139.05 92.1899C139.01 92.1899 138.95 92.2099 138.89 92.2299L138.85 92.1499L139.52 91.8799H139.62V92.3299V92.3399Z" fill="#7E1D22"/>
<path d="M142.209 91.88V93.62C142.209 93.76 142.209 93.85 142.239 93.89C142.259 93.93 142.289 93.97 142.329 93.99C142.369 94.01 142.439 94.02 142.549 94.02V94.11H141.479V94.02C141.589 94.02 141.659 94.01 141.699 93.99C141.739 93.97 141.759 93.94 141.789 93.89C141.809 93.84 141.819 93.75 141.819 93.62V92.79C141.819 92.56 141.819 92.41 141.799 92.33C141.789 92.28 141.769 92.24 141.749 92.23C141.729 92.21 141.689 92.19 141.649 92.19C141.599 92.19 141.549 92.21 141.479 92.23L141.449 92.15L142.119 91.88H142.229H142.209ZM142.009 90.75C142.079 90.75 142.129 90.77 142.179 90.82C142.219 90.86 142.249 90.92 142.249 90.98C142.249 91.05 142.219 91.11 142.179 91.15C142.129 91.2 142.069 91.22 142.009 91.22C141.949 91.22 141.879 91.2 141.839 91.15C141.789 91.1 141.769 91.05 141.769 90.98C141.769 90.92 141.789 90.87 141.839 90.82C141.889 90.77 141.949 90.75 142.019 90.75H142.009Z" fill="#7E1D22"/>
<path d="M143.46 91.23V91.94H143.97V92.11H143.46V93.51C143.46 93.65 143.48 93.75 143.52 93.79C143.56 93.84 143.61 93.87 143.67 93.87C143.73 93.87 143.78 93.85 143.83 93.82C143.88 93.79 143.92 93.74 143.95 93.67H144.04C143.99 93.82 143.9 93.94 143.8 94.02C143.7 94.1 143.59 94.13 143.48 94.13C143.4 94.13 143.33 94.11 143.27 94.07C143.19 94.03 143.14 93.97 143.11 93.9C143.08 93.83 143.06 93.71 143.06 93.55V92.1H142.71V92.02C142.8 91.99 142.89 91.93 142.98 91.85C143.07 91.77 143.16 91.67 143.23 91.56C143.27 91.5 143.32 91.39 143.38 91.23H143.45H143.46Z" fill="#7E1D22"/>
<path d="M146.13 91.9399V93.2499C146.13 93.4999 146.13 93.6599 146.15 93.7099C146.16 93.7699 146.18 93.8099 146.21 93.8299C146.23 93.8499 146.27 93.8599 146.3 93.8599C146.35 93.8599 146.41 93.8499 146.47 93.8199L146.5 93.8999L145.84 94.1699H145.73V93.7199C145.54 93.9199 145.4 94.0399 145.3 94.0999C145.2 94.1499 145.1 94.1699 144.99 94.1699C144.87 94.1699 144.76 94.1399 144.67 94.0699C144.58 93.9999 144.51 93.8999 144.48 93.7999C144.45 93.6899 144.42 93.5299 144.42 93.3299V92.3599C144.42 92.2599 144.42 92.1899 144.39 92.1499C144.37 92.1099 144.34 92.0799 144.29 92.0599C144.24 92.0399 144.16 92.0299 144.05 92.0299V91.9399H144.82V93.3899C144.82 93.5899 144.85 93.7199 144.93 93.7899C145 93.8499 145.09 93.8799 145.19 93.8799C145.26 93.8799 145.34 93.8599 145.43 93.8199C145.52 93.7799 145.62 93.6899 145.74 93.5799V92.3499C145.74 92.2299 145.72 92.1399 145.67 92.0999C145.62 92.0499 145.53 92.0299 145.38 92.0299V91.9399H146.13Z" fill="#7E1D22"/>
<path d="M147.299 91.8799V92.3599C147.489 92.0299 147.679 91.8799 147.869 91.8799C147.959 91.8799 148.029 91.9099 148.089 91.9499C148.149 92.0099 148.179 92.0599 148.179 92.1399C148.179 92.1999 148.159 92.2499 148.119 92.2999C148.079 92.3399 148.029 92.3599 147.969 92.3599C147.909 92.3599 147.849 92.3299 147.779 92.2699C147.709 92.2199 147.659 92.1999 147.619 92.1999C147.589 92.1999 147.559 92.2099 147.529 92.2399C147.459 92.2999 147.379 92.4099 147.299 92.5599V93.5999C147.299 93.7199 147.319 93.8099 147.349 93.8699C147.369 93.9199 147.409 93.9499 147.459 93.9799C147.509 93.9999 147.589 94.0199 147.689 94.0199V94.1099H146.559V94.0199C146.679 94.0199 146.759 93.9999 146.809 93.9699C146.849 93.9399 146.879 93.9099 146.889 93.8499C146.899 93.8199 146.909 93.7499 146.909 93.6199V92.7699C146.909 92.5199 146.909 92.3699 146.889 92.3199C146.879 92.2699 146.859 92.2399 146.829 92.2199C146.799 92.1999 146.759 92.1799 146.719 92.1799C146.669 92.1799 146.619 92.1999 146.549 92.2199L146.529 92.1399L147.199 91.8699H147.299V91.8799Z" fill="#7E1D22"/>
<path d="M148.67 92.7599C148.67 93.0799 148.75 93.3299 148.91 93.5099C149.07 93.6899 149.26 93.7799 149.48 93.7799C149.62 93.7799 149.75 93.7399 149.86 93.6599C149.97 93.5799 150.05 93.4499 150.13 93.2599L150.2 93.3099C150.17 93.5199 150.07 93.7199 149.91 93.8999C149.75 94.0799 149.55 94.1699 149.3 94.1699C149.03 94.1699 148.81 94.0699 148.62 93.8699C148.43 93.6699 148.34 93.3899 148.34 93.0499C148.34 92.6799 148.44 92.3899 148.63 92.1799C148.82 91.9699 149.06 91.8699 149.36 91.8699C149.61 91.8699 149.81 91.9499 149.97 92.1099C150.13 92.2699 150.21 92.4799 150.21 92.7599H148.69H148.67ZM148.67 92.6199H149.69C149.69 92.4799 149.66 92.3899 149.64 92.3299C149.6 92.2399 149.54 92.1699 149.46 92.1199C149.38 92.0699 149.3 92.0399 149.22 92.0399C149.08 92.0399 148.96 92.0899 148.86 92.1999C148.76 92.2999 148.69 92.4399 148.68 92.6199H148.67Z" fill="#7E1D22"/>
<path d="M154.54 90.8301L154.61 91.9201H154.54C154.44 91.5901 154.3 91.3601 154.12 91.2101C153.93 91.0701 153.71 91.0001 153.45 91.0001C153.24 91.0001 153.04 91.0501 152.86 91.1601C152.69 91.2701 152.55 91.4401 152.45 91.6801C152.35 91.9201 152.3 92.2101 152.3 92.5601C152.3 92.8501 152.35 93.1001 152.44 93.3201C152.53 93.5301 152.67 93.6901 152.87 93.8101C153.06 93.9201 153.28 93.9801 153.52 93.9801C153.73 93.9801 153.92 93.9401 154.08 93.8501C154.25 93.7601 154.42 93.5801 154.62 93.3201L154.69 93.3601C154.53 93.6401 154.34 93.8601 154.12 93.9901C153.9 94.1201 153.64 94.1901 153.34 94.1901C152.8 94.1901 152.38 93.9901 152.08 93.6001C151.86 93.3101 151.75 92.9601 151.75 92.5701C151.75 92.2501 151.82 91.9501 151.97 91.6901C152.11 91.4201 152.32 91.2101 152.57 91.0601C152.83 90.9201 153.11 90.8401 153.41 90.8401C153.64 90.8401 153.88 90.9001 154.11 91.0101C154.18 91.0501 154.23 91.0601 154.26 91.0601C154.3 91.0601 154.34 91.0401 154.37 91.0101C154.41 90.9701 154.44 90.9101 154.46 90.8301H154.54Z" fill="#7E1D22"/>
<path d="M156.1 91.8799C156.44 91.8799 156.7 91.9999 156.91 92.2499C157.08 92.4599 157.17 92.6999 157.17 92.9799C157.17 93.1699 157.13 93.3699 157.03 93.5599C156.94 93.7599 156.81 93.9099 156.64 94.0099C156.47 94.1099 156.29 94.1599 156.08 94.1599C155.75 94.1599 155.49 94.0299 155.29 93.7699C155.12 93.5499 155.04 93.3099 155.04 93.0299C155.04 92.8299 155.09 92.6399 155.19 92.4399C155.3 92.2399 155.43 92.0999 155.59 92.0099C155.76 91.9099 155.93 91.8699 156.11 91.8699L156.1 91.8799ZM156.03 92.0299C155.94 92.0299 155.86 92.0599 155.77 92.1099C155.68 92.1599 155.61 92.2499 155.56 92.3699C155.51 92.4999 155.48 92.6599 155.48 92.8499C155.48 93.1699 155.54 93.4299 155.67 93.6699C155.8 93.8999 155.97 94.0099 156.17 94.0099C156.33 94.0099 156.46 93.9499 156.56 93.8199C156.66 93.6899 156.71 93.4699 156.71 93.1699C156.71 92.7899 156.63 92.4799 156.46 92.2599C156.34 92.1099 156.2 92.0299 156.02 92.0299H156.03Z" fill="#7E1D22"/>
<path d="M157.95 93.6499C158.03 93.6499 158.09 93.6699 158.14 93.7299C158.19 93.7799 158.22 93.8399 158.22 93.9099C158.22 93.9799 158.19 94.0499 158.14 94.0999C158.09 94.1499 158.02 94.1699 157.95 94.1699C157.88 94.1699 157.81 94.1399 157.76 94.0999C157.71 94.0499 157.68 93.9899 157.68 93.9099C157.68 93.8399 157.71 93.7799 157.76 93.7199C157.81 93.6699 157.88 93.6399 157.95 93.6399V93.6499Z" fill="#7E1D22"/>
<path d="M161.39 93.2199H161.47L161.19 94.1099H158.66V94.0199H158.78C158.92 94.0199 159.02 93.9699 159.08 93.8799C159.12 93.8399 159.13 93.7199 159.13 93.5299V91.4599C159.13 91.2599 159.11 91.1399 159.06 91.0799C159 91.0099 158.91 90.9799 158.78 90.9799H158.66V90.8999H160.14V90.9799C159.96 90.9799 159.84 90.9999 159.77 91.0299C159.7 91.0599 159.65 91.0999 159.63 91.1499C159.6 91.1999 159.59 91.3199 159.59 91.5099V93.5199C159.59 93.6499 159.6 93.7399 159.63 93.7899C159.65 93.8199 159.68 93.8499 159.72 93.8599C159.76 93.8799 159.89 93.8799 160.1 93.8799H160.33C160.58 93.8799 160.75 93.8599 160.86 93.8299C160.97 93.7899 161.05 93.7299 161.14 93.6399C161.22 93.5399 161.31 93.3999 161.39 93.1999V93.2199Z" fill="#7E1D22"/>
<path d="M162.38 91.23V91.94H162.89V92.11H162.38V93.51C162.38 93.65 162.4 93.75 162.44 93.79C162.48 93.84 162.53 93.87 162.6 93.87C162.66 93.87 162.7 93.85 162.75 93.82C162.8 93.79 162.84 93.74 162.87 93.67H162.96C162.91 93.82 162.83 93.94 162.72 94.02C162.62 94.1 162.51 94.13 162.4 94.13C162.33 94.13 162.25 94.11 162.18 94.07C162.11 94.03 162.06 93.97 162.03 93.9C161.99 93.83 161.98 93.71 161.98 93.55V92.1H161.63V92.02C161.72 91.99 161.81 91.93 161.9 91.85C161.99 91.77 162.07 91.67 162.15 91.56C162.18 91.5 162.24 91.39 162.3 91.23H162.38Z" fill="#7E1D22"/>
<path d="M164.67 93.87C164.56 93.98 164.46 94.06 164.35 94.11C164.25 94.16 164.14 94.18 164.02 94.18C163.78 94.18 163.56 94.08 163.39 93.89C163.21 93.69 163.12 93.44 163.12 93.13C163.12 92.82 163.22 92.53 163.42 92.27C163.62 92.01 163.88 91.88 164.19 91.88C164.38 91.88 164.54 91.94 164.67 92.06V91.66C164.67 91.41 164.67 91.26 164.65 91.21C164.65 91.15 164.62 91.11 164.59 91.09C164.57 91.07 164.53 91.06 164.5 91.06C164.46 91.06 164.4 91.06 164.33 91.09L164.3 91.01L164.96 90.74H165.07V93.24C165.07 93.49 165.07 93.65 165.09 93.7C165.1 93.76 165.12 93.8 165.15 93.82C165.18 93.84 165.2 93.85 165.24 93.85C165.28 93.85 165.34 93.84 165.41 93.81L165.44 93.89L164.78 94.16H164.67V93.85V93.87ZM164.67 93.7V92.59C164.67 92.48 164.63 92.38 164.58 92.3C164.53 92.21 164.47 92.15 164.39 92.1C164.31 92.05 164.24 92.03 164.16 92.03C164.02 92.03 163.89 92.09 163.78 92.21C163.63 92.38 163.56 92.61 163.56 92.93C163.56 93.25 163.63 93.49 163.77 93.66C163.91 93.82 164.07 93.92 164.24 93.92C164.38 93.92 164.52 93.85 164.66 93.7H164.67Z" fill="#7E1D22"/>
<path d="M105.63 67.3599H104.43V66.2099H105.63V62.8899H104.43V61.7399H107.95V62.8899H106.72V66.2099H107.75V67.3599H106.72V70.7299C107.09 70.5299 107.4 70.3399 107.64 70.1699L108.26 71.1199C107.36 71.6899 106.19 72.2599 104.75 72.8499L104.19 71.7899C104.74 71.5999 105.22 71.4299 105.64 71.2599V67.3699L105.63 67.3599ZM109.71 69.9699C109.41 71.5499 108.9 72.8799 108.19 73.9599C107.87 73.6399 107.57 73.4199 107.31 73.2999C108 72.2599 108.43 71.0599 108.59 69.6799L109.7 69.9599L109.71 69.9699ZM108.57 66.4999V61.9199C108.57 61.7399 108.64 61.6599 108.81 61.6599H116.14V62.7499H112.97V63.7899H115.83V64.8299H112.97V65.7199H115.88V66.7599H112.97V67.6299H116.16C116.31 67.6299 116.38 67.7199 116.38 67.8799C116.44 70.2399 116.4 71.8299 116.27 72.6699C116.2 73.1699 115.99 73.5699 115.64 73.8799C115.25 74.2299 114.35 74.3199 112.95 74.1599L112.87 72.9499C113.66 73.1199 114.16 73.1999 114.37 73.1999C114.6 73.1999 114.76 73.1399 114.84 73.0499C115.07 72.7899 115.21 72.4799 115.26 72.1099C115.33 71.6299 115.33 70.5299 115.27 68.8399C115.27 68.7699 115.21 68.7299 115.13 68.7299H108.75C108.63 68.7299 108.57 68.6599 108.57 68.5199V66.5199V66.4999ZM111.87 62.7499H109.77C109.68 62.7499 109.64 62.7899 109.65 62.8899V63.7799H111.87V62.7399V62.7499ZM111.87 64.8199H109.65V65.7099H111.87V64.8199ZM111.87 67.6199V66.7499H109.65V67.6199H111.87ZM111.1 69.8699C111.2 71.2299 111.24 72.4399 111.2 73.4999L110.18 73.4299C110.24 72.3299 110.21 71.1499 110.08 69.8899L111.1 69.8699ZM112.69 69.6499C112.97 70.9499 113.13 71.9499 113.19 72.6399L112.18 72.7399C112.1 71.7599 111.93 70.7799 111.67 69.8099L112.69 69.6499ZM114.1 69.3099C114.53 70.2899 114.82 71.0199 114.98 71.5199L114.05 71.8199C113.82 71.1299 113.54 70.4099 113.2 69.6899L114.1 69.3099Z" fill="#610F1A"/>
<path d="M118.62 69.9299L117.57 69.3499C118.71 67.9299 119.49 66.2699 119.91 64.3899L121.02 64.6799C120.79 65.5199 120.56 66.2599 120.31 66.8999V74.2799H119.22V69.0799C119.01 69.3999 118.81 69.6799 118.62 69.9299ZM122.12 63.3299V64.1799H120.98V63.3299H117.86V62.1799H120.98V61.1899H122.12V62.1799H125.7V61.1899H126.84V62.1799H129.98V63.3299H126.84V64.1799H125.7V63.3299H122.12ZM121.37 65.9799V64.8299H129.93V65.9799H128.93V72.7899C128.93 73.3199 128.72 73.7299 128.33 74.0099C127.64 74.4999 126.43 74.4899 124.7 73.9799L124.68 72.7399C124.77 72.7599 124.86 72.7799 124.94 72.8099C126.42 73.1899 127.33 73.2099 127.67 72.8799C127.75 72.8099 127.79 72.6699 127.79 72.4799V65.9899H121.36L121.37 65.9799ZM126.6 71.7199H121.79C121.68 71.7199 121.63 71.6699 121.63 71.5499V67.2599C121.63 67.1499 121.68 67.0899 121.79 67.0899H126.6C126.7 67.0899 126.76 67.1399 126.76 67.2599V71.5499C126.76 71.6599 126.7 71.7199 126.6 71.7199ZM122.76 68.2399C122.76 68.2399 122.72 68.2499 122.72 68.2799V70.5199C122.72 70.5199 122.73 70.5699 122.76 70.5699H125.62C125.62 70.5699 125.67 70.5499 125.67 70.5199V68.2799C125.67 68.2799 125.65 68.2399 125.62 68.2399H122.76Z" fill="#610F1A"/>
<path d="M142.94 62.22V65.41C142.94 65.73 142.78 65.89 142.48 65.89H133.23V68.48C133.23 69.68 133.1 70.83 132.84 71.94C132.67 72.81 132.46 73.5 132.19 74.01L131.07 73.47C131.75 71.99 132.09 70.18 132.09 68.02V62.22C132.09 61.92 132.23 61.77 132.53 61.77H142.5C142.8 61.77 142.94 61.92 142.94 62.22ZM133.24 64.69H141.62C141.74 64.69 141.8 64.62 141.8 64.5V63.16C141.8 63.03 141.73 62.97 141.62 62.97H133.43C133.3 62.97 133.24 63.04 133.24 63.16V64.69ZM135.83 71.9C135.83 72.2 135.86 72.4 135.92 72.49C136.04 72.65 136.26 72.72 136.57 72.72H140.98C141.37 72.72 141.63 72.6 141.77 72.38C141.89 72.19 141.95 71.47 141.95 70.22L143.14 70.43C143.14 72.09 143.02 73.09 142.79 73.45C142.58 73.7 142.39 73.85 142.23 73.91C142.05 73.96 141.76 73.99 141.36 73.99H136.06C135.72 73.98 135.44 73.91 135.22 73.75C134.8 73.43 134.6 72.89 134.63 72.11V66.62H135.82V69.1C138.53 68.41 140.66 67.68 142.22 66.91L142.7 68.05C140.87 68.92 138.57 69.69 135.82 70.36V71.9H135.83Z" fill="#610F1A"/>
<path d="M159.691 62.17C159.691 61.9 159.831 61.77 160.071 61.77H168.361C168.621 61.77 168.761 61.91 168.761 62.17V70.21H170.281V71.3H158.091V70.21H159.691V62.17ZM162.491 72.61C161.041 73.61 159.731 74.19 158.601 74.33L158.181 73.17C159.471 72.97 160.701 72.45 161.851 71.61L162.491 72.61ZM167.611 63.87V63.03C167.611 62.92 167.561 62.87 167.441 62.87H160.991C160.891 62.87 160.831 62.92 160.831 63.03V63.87H167.611ZM167.611 66.08V64.96H160.831V66.08H167.611ZM167.611 68.11V67.16H160.831V68.11H167.611ZM167.611 70.22V69.21H160.831V70.22H167.611ZM166.301 71.7C167.441 71.98 168.741 72.5 170.211 73.26L169.781 74.39C168.211 73.62 166.931 73.1 165.921 72.84L166.311 71.7H166.301Z" fill="#610F1A"/>
<path d="M153.22 67.8899L153.95 68.7599C154.85 68.0099 155.56 67.2899 156.08 66.6099L155.29 65.7999C154.84 66.3899 154.14 67.0899 153.22 67.8999V67.8899ZM153.52 69.4099C153.18 68.8299 152.84 68.1299 152.51 67.3099C152.26 66.6999 151.93 66.1399 151.51 65.6399C151.57 65.5799 151.65 65.5099 151.74 65.4499H155.26V64.3099H147.12V65.4499H150.04C148.65 66.3999 147.14 67.0699 145.52 67.4799L145.99 68.5399C147.43 68.2299 148.97 67.4899 150.6 66.3199C150.77 66.4999 150.92 66.6899 151.06 66.8999C149.37 68.3299 147.51 69.3399 145.48 69.9099L146.01 70.9999C147.7 70.5599 149.53 69.5299 151.52 67.9199C151.65 68.2799 151.76 68.5899 151.84 68.8599C149.9 70.5499 147.67 71.7399 145.16 72.4299L145.69 73.5299C147.61 73.0999 149.7 71.9799 151.96 70.1999C151.96 70.8799 151.85 71.4899 151.64 72.0499C151.5 72.5199 151.29 72.8199 151.01 72.9299C150.69 73.0399 149.99 72.9099 148.94 72.5499L148.89 73.8199C149.74 74.0999 150.33 74.2599 150.68 74.2999C150.98 74.2999 151.26 74.2599 151.52 74.1499C152.02 73.9399 152.4 73.5199 152.63 72.8799C152.88 72.2599 153.01 71.4999 153.03 70.5999C153.95 71.8899 155.13 73.0499 156.59 74.0799L157.49 73.1899C155.68 72.0599 154.36 70.7899 153.52 69.3999V69.4099ZM146.43 63.5199C146.43 63.4499 146.46 63.4199 146.54 63.4099H155.75C155.82 63.4199 155.85 63.4599 155.85 63.5199V65.5099H156.94V62.4899C156.94 62.3399 156.87 62.2699 156.73 62.2699H151.81V61.1699H150.67V62.2699H145.56C145.42 62.2699 145.35 62.3499 145.35 62.4899V65.5099H146.44V63.5199H146.43Z" fill="#610F1A"/>
<path d="M104.15 88.4999L105.38 79.6599H105.53L109.05 86.9099L112.54 79.6599H112.67L113.91 88.4999H113.07L112.21 82.1699L109.15 88.4999H108.92L105.83 82.1299L104.98 88.4999H104.15Z" fill="#C55527"/>
<path d="M118.29 79.6599L122.33 88.4999H121.39L120.04 85.5899H116.3L114.95 88.4999H113.98L118.07 79.6599H118.28H118.29ZM118.18 81.5299L116.7 84.7399H119.66L118.18 81.5299Z" fill="#C55527"/>
<path d="M122.79 79.6599H123.66V83.3699H128.06V79.6599H128.93V88.4999H128.06V84.2399H123.66V88.4999H122.79V79.6599Z" fill="#C55527"/>
<path d="M134.29 79.4399C135.6 79.4399 136.69 79.8899 137.58 80.7799C138.46 81.6699 138.9 82.7699 138.9 84.0799C138.9 85.3899 138.46 86.4699 137.58 87.3699C136.71 88.2699 135.63 88.7199 134.36 88.7199C133.09 88.7199 131.99 88.2699 131.11 87.3799C130.23 86.4799 129.79 85.3899 129.79 84.1199C129.79 83.2699 129.99 82.4799 130.39 81.7599C130.8 81.0399 131.34 80.4699 132.03 80.0599C132.73 79.6399 133.48 79.4399 134.28 79.4399H134.29ZM134.33 80.2999C133.69 80.2999 133.08 80.4699 132.51 80.8099C131.94 81.1499 131.49 81.6099 131.17 82.1799C130.85 82.7599 130.69 83.3999 130.69 84.1199C130.69 85.1599 131.04 86.0499 131.76 86.7799C132.47 87.4999 133.33 87.8699 134.34 87.8699C135 87.8699 135.63 87.6999 136.2 87.3699C136.77 87.0399 137.22 86.5799 137.54 86.0099C137.86 85.4299 138.02 84.7899 138.02 84.0899C138.02 83.3899 137.86 82.7499 137.54 82.1799C137.22 81.6099 136.77 81.1599 136.19 80.8199C135.61 80.4799 134.99 80.3099 134.34 80.3099L134.33 80.2999Z" fill="#C55527"/>
<path d="M148.12 81.15L147.45 81.79C146.97 81.31 146.44 80.94 145.87 80.69C145.29 80.44 144.74 80.32 144.19 80.32C143.51 80.32 142.86 80.49 142.25 80.83C141.64 81.17 141.16 81.6299 140.82 82.2099C140.48 82.7899 140.32 83.4099 140.32 84.0599C140.32 84.7099 140.49 85.36 140.84 85.95C141.19 86.55 141.67 87.02 142.29 87.36C142.91 87.7 143.58 87.8799 144.32 87.8799C145.21 87.8799 145.96 87.62 146.58 87.1C147.19 86.59 147.56 85.93 147.67 85.11H144.91V84.26H148.64C148.63 85.63 148.23 86.71 147.45 87.52C146.66 88.32 145.61 88.7199 144.3 88.7199C142.69 88.7199 141.43 88.16 140.49 87.0599C139.77 86.1999 139.41 85.21 139.41 84.09C139.41 83.25 139.61 82.48 140.03 81.75C140.44 81.04 141.01 80.4699 141.72 80.0599C142.44 79.6499 143.25 79.45 144.16 79.45C144.9 79.45 145.59 79.59 146.23 79.86C146.88 80.13 147.51 80.57 148.13 81.17L148.12 81.15Z" fill="#C55527"/>
<path d="M152.951 79.6599L156.981 88.4999H156.051L154.691 85.5899H150.951L149.601 88.4999H148.641L152.731 79.6599H152.951ZM152.841 81.5299L151.361 84.7399H154.321L152.841 81.5299Z" fill="#C55527"/>
<path d="M157.471 88.4999V79.6599H157.651L163.411 86.4299V79.6599H164.261V88.4999H164.071L158.361 81.8099V88.4999H157.471Z" fill="#C55527"/>
<path d="M164.83 79.6599H165.82L168.04 83.3199L170.22 79.6599H171.21L168.47 84.2699V88.4899H167.62V84.2699L164.82 79.6599H164.83Z" fill="#C55527"/>
</g>
</g>
</g>
<defs>
<filter id="filter0_d_226_20449" x="0.473633" y="0" width="239" height="160" filterUnits="userSpaceOnUse" color-interpolation-filters="sRGB">
<feFlood flood-opacity="0" result="BackgroundImageFix"/>
<feColorMatrix in="SourceAlpha" type="matrix" values="0 0 0 0 0 0 0 0 0 0 0 0 0 0 0 0 0 0 127 0" result="hardAlpha"/>
<feOffset dy="1"/>
<feGaussianBlur stdDeviation="10"/>
<feComposite in2="hardAlpha" operator="out"/>
<feColorMatrix type="matrix" values="0 0 0 0 0 0 0 0 0 0 0 0 0 0 0 0 0 0 0.08 0"/>
<feBlend mode="normal" in2="BackgroundImageFix" result="effect1_dropShadow_226_20449"/>
<feBlend mode="normal" in="SourceGraphic" in2="effect1_dropShadow_226_20449" result="shape"/>
</filter>
<clipPath id="clip0_226_20449">
<rect x="20.4736" y="19" width="199" height="120" rx="7.02062" fill="white"/>
</clipPath>
<clipPath id="clip1_226_20449">
<rect width="105.22" height="37.34" fill="white" transform="translate(66 60)"/>
</clipPath>
</defs>
</svg>
