<svg width="240" height="160" viewBox="0 0 240 160" fill="none" xmlns="http://www.w3.org/2000/svg">
<g filter="url(#filter0_d_226_20266)">
<g clip-path="url(#clip0_226_20266)">
<rect x="20.4746" y="19" width="199" height="120" rx="7.02062" fill="white"/>
<rect x="20.4746" y="19" width="199" height="120" fill="white"/>
<g clip-path="url(#clip1_226_20266)">
<path d="M90.2786 72.5907C90.2786 73.1155 89.8587 73.5485 89.3207 73.5485H75.5698C75.045 73.5485 74.6251 73.1155 74.6251 72.5907V59.6401C74.6251 59.1153 75.0581 58.6823 75.5698 58.6823H89.3207C89.8456 58.6823 90.2786 59.1153 90.2786 59.6401V72.5907ZM90.9609 59.6401C90.9609 58.7348 90.2261 58 89.3207 58H75.5698C74.6645 58 73.9297 58.7348 73.9297 59.6401V72.5907C73.9297 73.496 74.6645 74.2308 75.5698 74.2308H89.3207C90.2261 74.2308 90.9609 73.496 90.9609 72.5907V59.6401Z" fill="#211613"/>
<path d="M79.2297 59.4564H75.582V72.8662H79.2297V59.4564Z" fill="#211613"/>
<path d="M80.2916 59.4564V62.5399H84.6216C84.6216 62.5399 86.1436 62.4612 86.1436 64.0619C86.1436 65.6627 84.7003 65.584 84.7003 65.584H80.2129L85.5269 72.8793H89.2533L86.1567 68.6281C86.1567 68.6281 85.9337 68.2869 86.3273 68.1295C86.721 67.972 89.4108 66.7649 89.4108 63.9307C89.4108 61.0966 86.7472 59.4695 85.9206 59.4695H80.2916V59.4564Z" fill="#211613"/>
<path d="M127.384 63.9964C127.83 63.7865 128.066 63.6421 128.066 63.5503V61.5559H130.375V63.7734C130.375 63.8783 130.415 63.9308 130.507 63.9308L131.032 63.7209C131.412 63.5765 131.596 63.4191 131.596 63.2354V62.8155H131.609C131.924 63.629 132.068 64.1407 132.055 64.3638H128.171L127.397 63.9833L127.384 63.9964ZM125.376 59.6665L125.744 60.3225C126.242 60.2175 126.61 60.1519 126.846 60.1519H132.002C132.121 60.0863 132.173 60.0207 132.173 59.9551C132.173 59.8895 132.147 59.8239 132.081 59.7714L130.953 58.7349C130.953 58.7349 130.874 58.6824 130.808 58.6824C130.743 58.6824 130.703 58.6955 130.677 58.7349L130.008 59.6533H125.363L125.376 59.6665ZM132.645 60.3094C133.026 60.2044 133.393 60.1651 133.734 60.1651H139.272L139.377 60.0863C139.403 59.9551 139.337 59.837 139.193 59.7189L138.615 59.2597C138.366 59.0629 138.196 58.9317 138.104 58.8529C137.999 58.7742 137.933 58.748 137.894 58.748C137.828 58.748 137.789 58.7611 137.776 58.8005L137.133 59.6927H132.278L132.645 60.3225V60.3094ZM134.495 64.8624H139.547C139.639 64.8624 139.691 64.8099 139.691 64.705C139.691 64.6525 139.495 64.4294 139.088 64.0358C138.681 63.6553 138.432 63.4585 138.34 63.4585C138.261 63.4585 138.222 63.4716 138.209 63.4978L137.5 64.3769H132.659C132.908 64.1276 133.039 63.9046 133.039 63.7078C133.039 63.3272 132.619 62.9336 131.793 62.5531L131.583 62.6712V61.8052C131.583 61.8052 131.661 61.6609 131.819 61.569C131.976 61.4772 132.042 61.3853 132.042 61.3066C132.042 61.2147 131.871 61.0442 131.517 60.808C131.163 60.5718 130.966 60.4537 130.913 60.4537C130.861 60.4537 130.808 60.48 130.769 60.5193L130.27 61.0704H128.197L127.672 60.7949C127.318 60.6112 127.016 60.48 126.767 60.3881C126.833 60.9523 126.872 61.3853 126.872 61.7133V63.7734L126.702 63.7471C126.78 64.1014 126.807 65.1642 126.807 66.9355C126.807 69.2711 126.216 71.3574 125.035 73.1943C125.035 73.1943 125.088 73.2337 125.14 73.2993C125.206 73.3518 125.258 73.378 125.298 73.3911L125.888 72.7613C127.043 71.5017 127.725 69.9665 127.922 68.1558H128.565L128.617 69.0218V71.6723C128.617 71.8035 127.922 71.9872 127.699 72.1315C127.476 72.2758 127.358 72.2627 127.358 72.3414C127.358 72.3546 127.476 72.5776 127.699 72.9975C127.922 73.4174 128.092 73.811 128.197 73.811C128.342 73.811 128.434 73.7192 128.447 73.5486C129.221 73.0237 131.071 71.974 132.816 71.2261L132.737 70.9506C132.291 71.0818 131.333 71.2917 129.864 71.5804V70.0977H132.737L132.829 70.0321C132.829 70.0321 132.842 69.9534 132.842 69.9272C132.842 69.8484 132.645 69.6254 132.252 69.2842C131.858 68.9431 131.635 68.7594 131.569 68.7594C131.517 68.7594 131.478 68.7856 131.464 68.8119L130.848 69.6122H129.864V69.1661C129.864 69.1661 129.929 69.048 130.087 68.9824C130.231 68.9168 130.297 68.8512 130.297 68.7463C130.297 68.6413 130.257 68.6019 130.166 68.5757L128.945 68.182V68.1558H133.065L133.17 69.1399V71.9084C133.17 72.1577 133.288 72.3939 133.511 72.6432C133.734 72.8794 134.653 72.9975 136.241 72.9975C136.739 72.9975 137.854 72.9975 138.34 72.9712C138.825 72.9581 139.193 72.8532 139.468 72.6563C139.744 72.4595 139.967 72.2233 140.138 71.9347C139.862 71.7772 139.678 71.6067 139.573 71.4098C139.468 71.213 139.377 69.691 139.324 68.9431H139.062L138.825 71.0687C138.812 71.1081 138.747 71.2393 138.655 71.4623C138.55 71.6854 138.34 71.8035 138.012 71.8297C137.684 71.8428 136.569 71.856 135.913 71.856C134.915 71.856 134.417 71.7903 134.417 71.646V70.7275C135.138 70.5963 135.808 70.4126 136.451 70.1896C137.093 69.9665 137.566 69.8615 137.894 69.8615L138.182 69.8878C138.287 69.8878 138.34 69.8353 138.34 69.7172C138.34 69.5991 137.986 69.2449 137.29 68.6675C136.07 69.5335 135.112 70.0715 134.43 70.3077V69.2842C134.43 69.2842 134.495 69.1661 134.614 69.0743C134.745 68.9824 134.81 68.9037 134.81 68.8381C134.81 68.72 134.732 68.6282 134.574 68.5888C134.417 68.5494 134.286 68.497 134.181 68.4445C134.076 68.392 133.774 68.3001 133.301 68.1558H133.328L136.451 68.1427V68.5888C136.451 68.5888 136.503 68.6807 136.582 68.6807C136.792 68.6807 137.041 68.615 137.33 68.4576C137.618 68.3133 137.736 68.1689 137.71 68.0377V66.8175C137.71 66.7125 137.789 66.6206 137.959 66.5419C138.13 66.4632 138.209 66.3845 138.209 66.2926C138.209 66.227 138.183 66.1745 138.13 66.1483L137.028 65.4397C137.028 65.4397 136.949 65.4004 136.897 65.4004C136.831 65.4004 136.779 65.4135 136.765 65.4529L136.346 65.9908H134.535V64.8755L134.495 64.8624ZM128.565 61.8314C128.762 62.1857 128.853 62.7368 128.853 63.4847C128.853 63.6684 128.945 63.7734 129.142 63.7734C129.273 63.7734 129.418 63.6946 129.575 63.5372C129.733 63.3797 129.824 63.2092 129.824 63.0386C129.824 62.8811 129.772 62.7237 129.693 62.5793C129.601 62.435 129.47 62.2907 129.3 62.1332L128.762 61.7002L128.565 61.8314ZM128.053 64.8624H130.074V65.9777H128.053V64.8624ZM131.333 64.8624H133.249V65.9777H131.333V64.8624ZM131.333 66.4501H133.249V67.6441H131.333V66.4501ZM128.053 66.4501H130.074V67.6441H127.961L128.04 66.4501H128.053ZM134.495 66.4501H136.398V67.6441H134.495V66.4501ZM136.884 63.8783C136.988 63.8783 137.185 63.8127 137.5 63.6684C137.802 63.5241 137.959 63.406 137.959 63.301L137.907 62.2382C137.907 62.0414 137.907 61.9233 137.933 61.8708C137.946 61.8183 138.025 61.7396 138.182 61.6215C138.327 61.5034 138.406 61.4247 138.406 61.3591C138.406 61.3328 138.392 61.2935 138.353 61.2541L137.421 60.5849C137.343 60.5324 137.29 60.5062 137.251 60.5062C137.185 60.5062 137.133 60.5324 137.093 60.5849L136.674 61.0442H134.495C134.495 61.0442 134.286 60.9654 133.918 60.7949C133.551 60.6374 133.301 60.5193 133.157 60.4668C133.183 61.1229 133.21 61.5297 133.21 61.7265V62.7762L133.183 63.734L133.21 63.8652C133.21 63.8652 133.328 63.9439 133.393 63.9439C133.459 63.9439 133.656 63.8652 133.958 63.7078C134.259 63.5503 134.417 63.4191 134.417 63.3404V61.5428H136.7V63.734C136.7 63.8258 136.779 63.8783 136.91 63.8783H136.884ZM135.217 63.6553C135.283 63.7865 135.361 63.8521 135.466 63.8521C135.624 63.8521 135.768 63.7734 135.926 63.6159C136.083 63.4585 136.162 63.2748 136.162 63.0648C136.162 62.6974 135.794 62.2776 135.06 61.779L134.823 61.9233C135.007 62.2382 135.138 62.8155 135.23 63.6553H135.217Z" fill="#211613" stroke="#211613" stroke-width="0.183695"/>
<path d="M156.212 66.8437C156.212 66.8437 156.238 66.7256 156.238 66.6993C156.238 66.6468 155.831 66.3319 155.005 65.7677L155.031 65.7415C155.123 65.7677 155.346 65.8465 155.7 65.9777C156.054 66.1089 156.343 66.1745 156.566 66.1876C156.828 65.7152 157.301 65.3741 157.983 65.1379L158.009 64.928C156.723 64.9411 155.543 64.7836 154.506 64.4556C154.69 64.3507 155.005 64.1145 155.464 63.7471C155.91 63.3797 156.225 63.1829 156.409 63.1173C156.579 63.0648 156.671 62.9861 156.671 62.8811C156.671 62.8155 156.645 62.763 156.592 62.7105C156.54 62.658 156.172 62.4743 155.49 62.1463L155.516 62.1201C156.12 62.1463 156.605 62.1201 156.973 62.0938C157.34 62.0545 157.524 61.9364 157.524 61.7527C157.524 61.6346 157.406 61.464 157.183 61.2016C157.065 61.0704 156.973 60.6636 156.907 60.27C156.842 59.8764 156.789 59.5221 156.763 59.5221C156.737 59.5221 156.71 59.9551 156.658 60.3487C156.618 60.6505 156.579 60.926 156.54 60.9785C156.435 61.0835 156.238 61.1491 155.962 61.1491C155.779 61.1491 155.621 61.1097 155.503 61.031C155.385 60.9523 155.346 60.8604 155.359 60.7686V60.4012C155.359 60.3225 155.424 60.2569 155.556 60.1781C155.569 60.1781 155.595 60.1519 155.608 60.1388C155.779 60.0469 155.857 59.942 155.844 59.8108C155.333 59.2597 154.991 58.971 154.821 58.9316C154.808 58.9316 154.795 58.9316 154.782 58.9316C154.755 58.9316 154.729 58.9316 154.703 58.9579H154.677C154.677 58.9579 154.663 58.9841 154.65 58.9972L154.06 59.6402H153.023L152.459 59.3384C152.079 59.1416 151.751 58.9972 151.488 58.8923C151.567 59.299 151.606 59.9157 151.606 60.7161C151.606 61.0835 151.449 61.5034 151.147 61.9889C150.845 62.4743 150.57 62.7368 150.347 62.8024L149.782 62.4612C149.782 62.4612 149.717 62.435 149.664 62.435C149.586 62.435 149.52 62.4612 149.494 62.5006L149.113 62.9073H145.99L144.508 62.2775V62.2513C144.783 62.1857 145.033 62.1463 145.229 62.1332H150.766C150.845 62.1332 150.885 62.0938 150.885 62.0151C150.885 61.9626 150.714 61.7658 150.373 61.4378C150.032 61.1229 149.822 60.9523 149.769 60.9523C149.717 60.9523 149.677 60.9654 149.664 61.0048L149.179 61.7002H148.221V60.6767H151.226C151.304 60.6767 151.344 60.6374 151.344 60.5718C151.344 60.493 151.16 60.2962 150.793 59.9682C150.425 59.6402 150.215 59.4827 150.15 59.4827C150.097 59.4827 150.071 59.4958 150.045 59.5221L149.468 60.2437H148.221V59.6008C148.221 59.4958 148.3 59.3909 148.483 59.3122C148.654 59.2334 148.746 59.1416 148.746 59.0628C148.746 59.0104 148.733 58.971 148.68 58.9448C148.641 58.9054 148.418 58.8267 147.998 58.6823C147.578 58.538 147.211 58.433 146.883 58.3674C146.909 58.7348 146.935 59.3646 146.935 60.2569H143.576L143.904 60.808C144.495 60.7292 144.81 60.6899 144.862 60.6899H146.909V61.7133H144.167L144.573 62.2119L144.547 62.2382C144.547 62.2382 144.481 62.2119 144.455 62.2119C144.429 62.2119 144.416 62.2119 144.403 62.225C144.481 62.8286 144.521 63.3928 144.521 63.9308C144.521 64.8886 144.416 65.7152 144.193 66.3844C143.983 67.0536 143.629 67.7359 143.156 68.4444C143.261 68.5363 143.353 68.5888 143.432 68.6019C144.245 67.9327 144.783 67.3816 145.046 66.9355H146.686V71.213C145.715 71.3311 144.862 71.4229 144.14 71.4885H143.983L145.216 73.2468C145.295 73.3517 145.479 73.4042 145.754 73.4042C145.964 73.4042 146.108 73.3648 146.227 73.2861L152.236 71.2261C152.236 71.2261 152.38 71.1867 152.617 71.1343V73.2992C152.617 73.3911 152.682 73.4305 152.813 73.4305L153.509 73.1024C153.784 72.9712 153.916 72.8269 153.916 72.6563L153.981 70.7931C155.424 70.4388 157.235 70.0058 157.235 70.0058L156.96 69.6122L156.855 69.6385C155.7 69.8353 154.729 70.0058 153.916 70.1371V66.9486H156.107C156.107 66.9486 156.185 66.9486 156.199 66.883L156.212 66.8437ZM152.748 60.0601H154.178V61.359C154.178 61.7002 154.493 61.9364 155.123 62.0545L154.65 62.5399H151.711L151.685 62.5137C152.459 61.9757 152.813 61.1622 152.748 60.0601ZM154.48 62.9729C154.073 63.4453 153.732 63.7996 153.456 64.0226C153.115 63.8783 152.63 63.524 152.039 62.9729H154.48ZM148.011 63.3141H149.179V64.7705H148.011V63.3141ZM145.676 63.3141H146.87V64.7705H145.676V63.3141ZM152.603 67.8802H147.932V66.9093H152.603V67.8802ZM152.603 68.3001V69.4154H147.932V68.3001H152.603ZM152.603 69.8484V70.2945L147.945 71.0293C147.945 71.0293 147.906 71.0293 147.893 71.0293L147.932 69.8484H152.603ZM154.9 65.7152H154.755L154.139 66.4763H145.216C145.4 66.017 145.531 65.5972 145.636 65.1904H149.179V65.5578C149.179 65.7021 149.244 65.7677 149.389 65.7677L149.73 65.6628C150.202 65.584 150.438 65.4397 150.438 65.2035L150.412 64.1801C150.412 63.9439 150.412 63.7864 150.425 63.7208C150.438 63.6421 150.517 63.5634 150.635 63.4847C150.753 63.4059 150.819 63.3272 150.819 63.2616C150.819 63.196 150.78 63.1304 150.688 63.0648C150.727 63.0517 150.793 63.0123 150.871 62.9729C150.95 62.9336 151.016 62.9073 151.055 62.8942L151.304 63.091L151.646 62.9992C152.026 63.629 152.407 64.1145 152.787 64.4687C151.961 65.0723 150.937 65.584 149.73 66.017L149.848 66.3319C150.845 66.2007 152.065 65.7677 153.522 65.0461L154.598 65.5447C154.598 65.5447 154.755 65.6103 154.913 65.6628V65.7021L154.9 65.7152Z" fill="#211613" stroke="#211613" stroke-width="0.183695"/>
<path d="M174.947 62.3169C174.357 61.7658 174.226 61.7264 174.147 61.7264C174.029 61.7264 173.963 61.7789 173.937 61.8183C173.937 61.8183 173.898 61.8707 173.858 61.9101L173.688 62.1332L173.386 62.5137H171.562C171.798 62.3037 172.139 61.9757 172.572 61.5296C172.585 61.5296 172.651 61.5033 172.848 61.464C173.005 61.4246 173.11 61.3721 173.163 61.2803C173.176 61.2409 173.189 61.2147 173.189 61.1622C173.189 61.1228 173.189 61.0835 173.163 61.0441V61.0179L172.559 60.5849H174.632C174.777 60.5849 174.868 60.493 174.868 60.3356C174.868 60.27 174.868 60.1912 174.239 59.6402C173.661 59.1284 173.53 59.0891 173.451 59.0891C173.36 59.0891 173.281 59.1153 173.241 59.1678C173.241 59.1678 172.743 59.7582 172.651 59.8763H171.142C171.208 59.4433 171.286 59.2203 171.339 59.194C171.536 59.1022 171.628 58.9972 171.628 58.8922C171.628 58.8266 171.601 58.7742 171.549 58.7217C171.523 58.6954 171.405 58.6298 170.853 58.4461C170.447 58.3018 170.066 58.1968 169.738 58.1312H169.659V58.1837C169.686 58.4461 169.699 59.404 169.699 59.8632H166.55L166.589 59.9551L166.996 60.6898V60.7292H167.048L167.927 60.598L167.836 60.7161L167.809 60.7554L167.849 60.7948L167.888 60.8342C168.216 61.2016 168.439 61.569 168.544 61.9363C168.61 62.1988 168.675 62.3825 168.741 62.5137H166.222L166.274 62.6055L166.72 63.3534V63.3797H166.773L167.809 63.2353H175.406C175.538 63.2353 175.63 63.1435 175.63 63.0123C175.63 62.9467 175.63 62.9204 174.987 62.3169H174.947ZM170.696 62.5268H169.62C169.804 62.3431 169.896 62.12 169.896 61.8445C169.896 61.569 169.791 61.3459 169.594 61.1622C169.436 61.0047 169.056 60.8342 168.465 60.6111H171.47C171.391 60.9654 171.129 61.6083 170.683 62.5268H170.696ZM173.95 61.897V61.8314L173.989 61.8576" fill="#211613"/>
<path d="M166.681 69.7827H166.629C165.789 70.0451 165.146 70.2157 164.7 70.3207V69.9795C165.343 69.3628 165.92 68.733 166.406 68.1032C166.406 68.1032 166.445 68.077 166.668 68.0245C166.747 68.0114 166.983 67.9458 166.983 67.7883L166.944 67.6965L165.75 66.7649C165.724 66.7649 165.658 66.7386 165.658 66.7386H165.605L165.592 66.778C165.251 67.7752 164.949 68.51 164.7 68.9823V66.2663H166.839C166.944 66.2663 167.009 66.2007 167.009 66.0957L166.983 65.9776L165.947 65.0066C165.907 64.9542 165.842 64.9279 165.776 64.9279C165.632 64.9279 165.592 64.9804 165.579 65.0329C165.579 65.0198 165.186 65.5577 165.094 65.6758H164.687V64.0226H166.327C166.432 64.0226 166.498 63.957 166.498 63.8257L166.471 63.7077L165.422 62.658L165.277 62.6055C165.212 62.6055 165.12 62.6055 165.094 62.6842C165.094 62.6842 164.687 63.3009 164.608 63.419H162.614C163.257 62.5268 163.847 61.5033 164.372 60.388C164.438 60.4143 164.49 60.4405 164.569 60.5192L164.936 60.8735C165.081 61.0178 165.356 61.3983 165.737 62.0282L166.038 62.5005C166.091 62.5661 166.17 62.6055 166.275 62.6055C166.668 62.6055 166.878 62.2643 166.878 61.582C166.878 61.254 166.721 60.9785 166.406 60.7554C166.104 60.5455 165.5 60.283 164.569 59.9944C164.648 59.8632 164.753 59.7451 164.91 59.6664C165.12 59.5614 165.225 59.4564 165.225 59.3646L165.199 59.2465C165.199 59.2465 165.172 59.2071 164.556 58.866L163.572 58.3542V58.4199C162.968 60.8079 161.971 63.0778 160.606 65.1903L160.58 65.2297L160.895 65.479L160.934 65.4396C161.879 64.4293 162.128 64.1275 162.207 64.0226H163.427V65.6758H160.961L161.407 66.4237H161.446C161.892 66.3319 162.155 66.2794 162.233 66.2794H163.44V70.675C162.338 70.9374 161.459 71.1211 160.803 71.2129H160.724L161.289 72.5513C161.328 72.63 161.407 72.6694 161.538 72.6694C161.63 72.6694 161.708 72.63 161.748 72.5775L164.516 71.2523L166.865 70.1501L166.695 69.7827H166.681Z" fill="#211613"/>
<path d="M169.766 64.718V65.8333H168.336V64.718H169.766ZM172.757 65.8333H171.13V64.718H172.757V65.8333ZM172.757 66.4237V67.7359H171.13V66.4237H172.757ZM175.552 71.7903L174.358 70.7931C174.319 70.7537 174.253 70.7275 174.188 70.7275C174.096 70.7275 174.017 70.7537 173.978 70.8062C173.978 70.8062 173.505 71.4098 173.427 71.5147H171.157V70.1501H174.831C174.936 70.1501 175.001 70.0845 175.001 69.9664L174.949 69.8352L173.899 68.8511L173.728 68.7987C173.65 68.7987 173.597 68.8118 173.558 68.8511C173.558 68.8511 173.099 69.4416 173.02 69.5466H171.157V68.3525H172.784V68.6937C172.784 68.7855 172.823 68.9299 173.046 68.9299C173.151 68.9299 173.348 68.8774 173.623 68.7593C174.004 68.615 174.083 68.5231 174.109 68.4575C174.135 68.3788 174.161 68.3001 174.161 68.1951L174.109 67.7096V64.9411C174.109 64.9411 174.135 64.9017 174.332 64.7442C174.568 64.5474 174.594 64.4556 174.594 64.4031C174.594 64.3506 174.555 64.2456 174.03 63.8651C173.532 63.5109 173.4 63.4584 173.322 63.4584C173.23 63.4584 173.164 63.4846 173.125 63.5371C173.125 63.5371 172.718 64.0095 172.639 64.1144H168.493L167.076 63.4977L166.997 63.4584L167.063 65.5184V68.9168C167.063 68.9168 167.089 69.1267 167.299 69.1267C167.325 69.1267 167.837 68.943 167.837 68.943C168.218 68.8118 168.401 68.6675 168.401 68.4969C168.401 68.4969 168.401 68.3919 168.388 68.3263H169.792V69.5203H166.748L167.102 70.242H167.142C167.653 70.1633 167.955 70.1239 168.06 70.1239H169.792V71.4885H165.095L165.515 72.2495L166.394 72.0921H175.474C175.474 72.0921 175.605 72.0921 175.605 71.9346L175.565 71.7903H175.552ZM169.766 66.4237V67.7359H168.336V66.4237H169.766Z" fill="#211613"/>
<path d="M161.945 69.914C161.985 70.0321 162.077 70.1633 162.313 70.1633C162.47 70.1633 162.654 70.0583 162.851 69.8353C163.047 69.6253 163.139 69.376 163.139 69.1005C163.139 68.6412 162.628 67.9721 161.591 67.0536L161.552 67.0273L161.512 67.0536L161.224 67.2635L161.263 67.316C161.604 67.7621 161.827 68.6281 161.945 69.914Z" fill="#211613"/>
<path d="M152.053 80.9882H151.778C151.752 80.8964 151.725 80.7914 151.725 80.6471C151.725 80.5684 151.725 80.5028 151.725 80.4634C151.725 80.4372 151.725 80.424 151.725 80.4109C151.725 80.3191 151.686 80.2666 151.634 80.2272C151.581 80.1879 151.502 80.1747 151.371 80.1747H150.584V80.9882H150.348V79.0332H151.279C151.515 79.0332 151.686 79.0857 151.804 79.1644C151.922 79.2563 151.988 79.3875 151.988 79.5712C151.988 79.6761 151.962 79.7811 151.909 79.8861C151.857 79.9517 151.791 79.991 151.712 80.0304C151.778 80.0435 151.83 80.0698 151.87 80.1091C151.909 80.1616 151.922 80.2535 151.948 80.3978C151.948 80.424 151.948 80.4634 151.962 80.5028C151.962 80.529 151.962 80.5684 151.962 80.6077C151.975 80.7783 151.988 80.8964 152.027 80.962L152.053 80.9882ZM151.634 79.8467C151.712 79.7942 151.752 79.7155 151.752 79.5974C151.752 79.4793 151.712 79.3744 151.634 79.3219C151.568 79.2694 151.424 79.2431 151.227 79.2431H150.571V79.9254H151.253C151.437 79.9254 151.555 79.8992 151.634 79.8467Z" fill="#211613"/>
<path fill-rule="evenodd" clip-rule="evenodd" d="M96.7339 90.3566H90.895V89.9498C91.7741 89.8055 92.4039 89.7399 92.4039 88.7164V84.662H88.2839V88.7164C88.2839 89.7399 88.9006 89.8186 89.8584 89.9498V90.3566H84.0195V89.9498C84.9774 89.8055 85.5285 89.7399 85.5285 88.7164V80.2009C85.5285 79.02 84.7674 79.02 84.0195 78.9544V78.4689H89.8584V78.9544C89.0974 79.02 88.2839 79.02 88.2839 80.1877V83.8354H92.4039V80.2009C92.4039 79.02 91.656 79.02 90.895 78.9544V78.4689H96.7339V78.9544C95.9729 79.02 95.225 79.02 95.225 80.1877V88.7164C95.225 89.7399 95.8416 89.8186 96.7339 89.9498V90.3566Z" fill="#211613"/>
<path fill-rule="evenodd" clip-rule="evenodd" d="M109.157 78.9544C108.816 79.02 108.331 79.0856 107.99 79.6366L104.696 85.0688V88.2966C104.696 89.8055 105.103 89.8055 106.271 89.9498V90.3566H100.301V89.9498C101.534 89.8055 101.954 89.8055 101.954 88.2966V85.7511L98.7918 79.9122C98.7262 79.781 98.3063 79.02 97.4141 78.9544V78.4689H103.187V78.9544C101.954 78.9544 101.744 79.02 101.744 79.5054C101.744 79.781 102.02 80.2665 102.151 80.542L104.211 84.5964L106.126 81.3686C106.271 81.1587 106.809 80.1877 106.809 79.7154C106.809 79.0331 106.192 79.0331 105.365 78.9675V78.482H109.144V78.9675L109.157 78.9544Z" fill="#211613"/>
<path fill-rule="evenodd" clip-rule="evenodd" d="M118.435 90.3566H112.334V89.9498C113.567 89.8055 113.974 89.8055 113.974 88.2966V79.0856C112.806 79.1512 111.009 79.2168 110.681 82.0509H110.195V78.4689H120.574V82.0509H120.089C119.747 79.2299 117.95 79.1643 116.782 79.0856V88.2966C116.782 89.8186 117.189 89.8842 118.435 89.9498V90.3566Z" fill="#211613"/>
<path fill-rule="evenodd" clip-rule="evenodd" d="M134.247 90.3566H128.408V89.9498C129.3 89.8055 129.983 89.7399 129.983 88.7164V84.662H125.784V88.7164C125.784 89.7399 126.466 89.8186 127.358 89.9498V90.3566H121.52V89.9498C122.477 89.8055 123.028 89.7399 123.028 88.7164V80.2009C123.028 79.02 122.281 79.02 121.52 78.9544V78.4689H127.358V78.9544C126.611 79.02 125.784 79.02 125.784 80.1877V83.8354H129.983V80.2009C129.983 79.02 129.156 79.02 128.408 78.9544V78.4689H134.247V78.9544C133.486 79.02 132.738 79.02 132.738 80.1877V88.7164C132.738 89.7399 133.355 89.8186 134.247 89.9498V90.3566Z" fill="#211613"/>
<path fill-rule="evenodd" clip-rule="evenodd" d="M148.942 90.3566H143.786V89.9498C144.678 89.8055 145.163 89.8055 145.163 88.6508V79.781H145.098L141.253 90.3697H140.847L136.989 80.0565H136.923V88.1654C136.923 89.4119 137.186 89.8842 138.498 89.963V90.3697H134.863V89.963C136.097 89.8186 136.307 89.5562 136.307 88.5196V80.2009C136.307 79.2955 136.031 79.02 134.929 78.9544V78.4689H138.852L141.936 86.7745L145.032 78.4689H148.955V78.9544C148.063 79.02 147.578 79.02 147.578 80.542V88.3097C147.578 89.753 147.919 89.8186 148.955 89.963V90.3697L148.942 90.3566Z" fill="#211613"/>
<path fill-rule="evenodd" clip-rule="evenodd" d="M82.7855 87.4831C82.7855 88.3097 82.51 88.8608 81.749 88.4409C81.1323 88.0998 81.1323 87.4831 80.5812 86.3678C80.0301 85.2656 79.689 85.2656 79.2035 84.9245C79.1379 84.8588 78.9935 84.7932 78.7967 84.6489L79.689 84.5833C80.5812 84.3078 82.3657 83.7567 82.3657 81.5654C82.3657 78.6788 78.7311 78.4689 77.5633 78.4689H72V78.9544C72.9578 79.02 73.522 79.02 73.522 80.542V88.3097C73.522 89.753 73.1678 89.8186 72 89.963V90.3697H77.8389V89.963C76.6711 89.8186 76.33 89.753 76.33 88.3097V84.872H76.7367L77.9045 84.8064C78.6524 85.4887 78.4556 89.1363 79.8989 90.0942C81.8277 91.3275 83.3366 89.3463 83.3366 87.4831H82.7855ZM76.33 84.3209V79.8466C76.3956 79.2955 76.3956 79.0987 77.3665 79.0987C78.7442 79.0987 79.4265 79.8466 79.4265 81.6442C79.4265 83.901 78.5343 84.3209 76.33 84.3209Z" fill="#211613"/>
<path d="M152.694 79.991C152.694 80.8701 151.999 81.5786 151.133 81.5786C150.267 81.5786 149.571 80.8701 149.571 79.991C149.571 79.1119 150.267 78.4033 151.133 78.4033C151.999 78.4033 152.694 79.1119 152.694 79.991ZM151.133 78.6264C150.385 78.6264 149.781 79.2431 149.781 79.991C149.781 80.7389 150.385 81.3556 151.133 81.3556C151.881 81.3556 152.484 80.7389 152.484 79.991C152.484 79.2431 151.881 78.6264 151.133 78.6264Z" fill="#211613"/>
<path d="M114.5 58.6824H114.933C115.3 58.6824 115.891 58.8005 116.678 59.0235C116.783 59.0891 116.848 59.1547 116.862 59.2072V59.4172C116.599 59.7452 116.415 59.9026 116.31 59.9026V62.2776C116.31 62.2776 116.337 62.3956 116.534 62.5269H119.748C119.958 62.0939 120.247 61.6477 120.627 61.2147L120.719 61.1491H120.968C121.428 61.2935 121.966 61.6477 122.595 62.2119L122.753 62.4219V62.6449C122.753 62.6449 122.714 62.7762 122.582 62.8811H116.914L116.822 62.9599V63.0517C117.242 64.928 118.856 66.7518 121.664 68.5101L122.95 69.0743V69.2055C122.386 69.5466 121.821 69.9928 121.27 70.5832H120.995C120.667 70.4126 120.247 70.1108 119.748 69.6779H119.656L119.499 69.7959H116.56C116.455 69.8353 116.389 69.914 116.337 70.019V72.184L116.402 72.84V72.9188C116.153 73.0631 115.864 73.1681 115.523 73.2337H114.802C114.631 73.1549 114.552 73.0631 114.552 72.9844V70.019C114.487 69.914 114.421 69.8353 114.342 69.7959H112.19C112.007 69.8615 111.862 69.8747 111.757 69.8615C111.652 69.8222 111.574 69.7303 111.534 69.5729V69.4942L111.6 69.4286L112.978 69.4548H114.355C114.526 69.3236 114.605 69.2317 114.565 69.1924L114.592 66.3189H114.46C113.358 67.6966 111.823 69.0218 109.868 70.3077L108.687 70.9244H108.53L108.398 70.8456V70.6488C110.668 69.048 112.361 66.4894 113.463 62.973V62.868H109.343C109.028 62.9336 108.845 62.9599 108.779 62.9336H108.753C108.648 62.8942 108.582 62.8024 108.569 62.6449V62.4875L108.648 62.4219H108.792L109.015 62.4875H114.395C114.578 62.3563 114.644 62.2776 114.618 62.2382V59.3647L114.487 58.9579V58.7611L114.552 58.6824H114.5ZM116.415 63.196H116.324V69.1924C116.324 69.1924 116.35 69.3236 116.547 69.4548H117.203C117.439 68.9562 117.793 68.5232 118.266 68.1689V68.1427C117.308 67.0536 116.717 65.5316 116.52 63.5897C116.494 63.3797 116.468 63.2485 116.429 63.1829L116.415 63.196Z" fill="#060001"/>
<path d="M103.241 58.8135H103.687C104.054 58.8529 104.54 59.076 105.157 59.4565C105.367 59.5877 105.511 59.7058 105.603 59.8501V60.2437L105.025 60.8473V71.2786L105.091 72.1971V72.407C105.065 72.5513 104.868 72.6825 104.474 72.7875L104.409 72.8269H103.451C102.978 72.6563 102.821 72.2758 102.978 71.6985C102.887 71.541 102.795 71.4623 102.703 71.4623H97.94C97.6644 71.5148 97.5726 71.8822 97.6644 72.5644C97.4807 72.8531 97.2052 73.0368 96.8509 73.1287H95.9324C95.6569 73.063 95.5257 72.9974 95.5257 72.9187C95.5913 72.8925 95.6175 71.3704 95.5913 68.3395V60.27L95.4863 58.9185L95.5519 58.866H95.7225C96.2867 58.971 97.0215 59.2465 97.9269 59.7058H102.414C102.545 59.4565 102.821 59.1547 103.228 58.8004L103.241 58.8135ZM97.9137 60.0994C97.7825 60.2044 97.6907 60.2962 97.6382 60.3749V65.1248C97.6382 65.1248 97.6644 65.2691 97.8744 65.4134H102.677C102.86 65.3216 102.952 65.2298 102.952 65.1248V60.3618C102.86 60.1913 102.769 60.1125 102.677 60.1125H97.9006L97.9137 60.0994ZM97.8875 65.8071C97.7694 65.8464 97.6907 65.9383 97.6513 66.0564V70.78C97.6513 70.78 97.6776 70.9243 97.8875 71.0686H102.69C102.874 70.9637 102.965 70.8718 102.965 70.78V66.0564C102.874 65.8858 102.782 65.8071 102.69 65.8071H97.8875Z" fill="#060001"/>
<path fill-rule="evenodd" clip-rule="evenodd" d="M90.5918 97.8881H91.6152C91.6677 98.3604 91.8252 98.6885 92.1007 98.9115C92.3631 99.1215 92.783 99.2264 93.3472 99.2264C93.7146 99.2264 94.0164 99.1739 94.2788 99.069C94.5412 98.964 94.7381 98.8065 94.8955 98.5966C95.0005 98.4523 95.0792 98.2686 95.1186 98.0718C95.1711 97.8618 95.1842 97.4944 95.1842 96.9958V93.0201H96.1551V97.4157C96.1551 98.3211 95.919 98.9771 95.4597 99.3839C94.9874 99.8038 94.2526 100.027 93.2291 100.027C92.4156 100.027 91.7858 99.8431 91.3528 99.4888C90.9329 99.1477 90.6705 98.5966 90.5918 97.8749V97.8881ZM97.1655 99.9087C98.3464 97.6125 99.5273 95.3163 100.721 93.0201H101.915C103.07 95.3163 104.225 97.6125 105.379 99.9087H104.264C103.962 99.3051 103.66 98.6885 103.359 98.0718H99.1205C98.8056 98.6753 98.4907 99.292 98.1758 99.9087H97.1523H97.1655ZM99.5273 97.2714H102.978C102.427 96.1298 101.863 94.9752 101.312 93.8074C100.721 94.9621 100.131 96.1167 99.5273 97.2714ZM107.308 96.0774H109.368C110.129 96.0774 110.601 95.9855 110.825 95.8281C111.048 95.6575 111.166 95.3819 111.166 94.9489C111.166 94.5159 111.048 94.2273 110.825 94.0567C110.601 93.8861 110.116 93.8205 109.368 93.8205H107.308V96.0774ZM106.363 99.9087V93.0201H109.434C110.011 93.0201 110.431 93.0464 110.693 93.0989C110.956 93.1514 111.179 93.2301 111.362 93.335C111.612 93.4925 111.795 93.7024 111.94 93.9649C112.071 94.2404 112.137 94.5422 112.137 94.8833C112.137 95.605 111.94 96.1298 111.546 96.4185C111.153 96.7203 110.47 96.8646 109.46 96.8646H107.295V99.8956H106.363V99.9087ZM112.412 99.9087C113.593 97.6125 114.774 95.3163 115.968 93.0201H117.149C118.304 95.3163 119.458 97.6125 120.613 99.9087H119.498C119.196 99.3051 118.894 98.6885 118.592 98.0718H114.354C114.039 98.6753 113.724 99.292 113.409 99.9087H112.399H112.412ZM114.761 97.2714H118.212C117.661 96.1298 117.096 94.9752 116.545 93.8074C115.955 94.9621 115.364 96.1167 114.774 97.2714H114.761ZM121.584 99.9087V93.0201H122.83C124.261 94.9883 125.704 96.9696 127.134 98.9509V93.0201H127.974V99.9087H126.806C125.35 97.9274 123.88 95.933 122.41 93.9517V99.9087H121.571H121.584Z" fill="#211613"/>
</g>
</g>
</g>
<defs>
<filter id="filter0_d_226_20266" x="0.474609" y="0" width="239" height="160" filterUnits="userSpaceOnUse" color-interpolation-filters="sRGB">
<feFlood flood-opacity="0" result="BackgroundImageFix"/>
<feColorMatrix in="SourceAlpha" type="matrix" values="0 0 0 0 0 0 0 0 0 0 0 0 0 0 0 0 0 0 127 0" result="hardAlpha"/>
<feOffset dy="1"/>
<feGaussianBlur stdDeviation="10"/>
<feComposite in2="hardAlpha" operator="out"/>
<feColorMatrix type="matrix" values="0 0 0 0 0 0 0 0 0 0 0 0 0 0 0 0 0 0 0.08 0"/>
<feBlend mode="normal" in2="BackgroundImageFix" result="effect1_dropShadow_226_20266"/>
<feBlend mode="normal" in="SourceGraphic" in2="effect1_dropShadow_226_20266" result="shape"/>
</filter>
<clipPath id="clip0_226_20266">
<rect x="20.4746" y="19" width="199" height="120" rx="7.02062" fill="white"/>
</clipPath>
<clipPath id="clip1_226_20266">
<rect width="103.591" height="42.04" fill="white" transform="translate(72 58)"/>
</clipPath>
</defs>
</svg>
