<svg width="240" height="160" viewBox="0 0 240 160" fill="none" xmlns="http://www.w3.org/2000/svg">
<g filter="url(#filter0_d_226_20473)">
<g clip-path="url(#clip0_226_20473)">
<rect x="20.4736" y="19" width="199" height="120" rx="7.02062" fill="white"/>
<rect x="20.4736" y="19" width="199" height="120" fill="white"/>
<g clip-path="url(#clip1_226_20473)">
<path d="M177.04 74.1001C176.72 73.7701 176.27 73.5701 175.77 73.5701C175.28 73.5701 174.83 73.7701 174.5 74.1001C174.18 74.4301 173.97 74.8701 173.97 75.3701C173.97 75.8701 174.17 76.3101 174.5 76.6401C174.82 76.9701 175.27 77.1701 175.77 77.1701C176.27 77.1701 176.71 76.9701 177.04 76.6401C177.36 76.3201 177.57 75.8701 177.57 75.3701C177.57 74.8701 177.37 74.4301 177.04 74.1001ZM176.71 76.3101C176.47 76.5501 176.14 76.7001 175.77 76.7001C175.4 76.7001 175.07 76.5501 174.83 76.3101C174.59 76.0701 174.44 75.7401 174.44 75.3701C174.44 75.0001 174.59 74.6701 174.83 74.4301C175.07 74.1901 175.4 74.0401 175.77 74.0401C176.14 74.0401 176.47 74.1901 176.71 74.4301C176.95 74.6701 177.1 75.0001 177.1 75.3701C177.1 75.7401 176.95 76.0701 176.71 76.3101Z" fill="#E64B38"/>
<path d="M176.14 75.53C176.14 75.53 176.06 75.47 176 75.44C176.17 75.42 176.3 75.36 176.38 75.27C176.46 75.18 176.5 75.08 176.5 74.95C176.5 74.85 176.48 74.76 176.43 74.68C176.38 74.6 176.31 74.54 176.23 74.51C176.15 74.48 176.03 74.46 175.87 74.46H175.08V76.24H175.32V75.45H175.59C175.65 75.45 175.69 75.45 175.72 75.45C175.76 75.45 175.79 75.47 175.83 75.5C175.87 75.52 175.91 75.56 175.95 75.62C175.99 75.68 176.05 75.76 176.12 75.87L176.36 76.24H176.66L176.35 75.76C176.29 75.67 176.22 75.59 176.15 75.52L176.14 75.53ZM175.82 75.26H175.31V74.67H175.87C176 74.67 176.1 74.7 176.16 74.75C176.22 74.8 176.25 74.87 176.25 74.96C176.25 75.02 176.23 75.07 176.2 75.12C176.17 75.17 176.12 75.2 176.06 75.23C176 75.25 175.91 75.26 175.81 75.26H175.82Z" fill="#E64B38"/>
<path d="M91.3697 78.5599C91.4797 78.0799 91.6397 77.5899 91.6397 77.3999C91.6397 77.3999 91.6297 77.4099 91.6197 77.4299L91.5497 77.5399C91.4297 77.7199 91.4197 77.7599 91.3697 77.9199C91.3597 77.9599 91.3497 77.9999 91.3297 78.0499L91.2097 78.6999L91.1797 78.8999C91.1797 79.1599 91.1797 79.1699 91.2097 79.1899C91.2197 79.1899 91.2397 79.1999 91.2697 79.2199C91.2697 79.0299 91.3097 78.7999 91.3697 78.5699V78.5599Z" fill="#E64B38"/>
<path d="M120.71 75.9501C120.84 75.9401 121.06 75.9101 121.29 75.9001C121.64 75.8801 122.03 75.8701 122.21 75.9501V75.3201L121.61 75.2001C121.43 75.1601 121.52 75.1601 121.31 75.1401H121.3C121.12 75.1301 121.15 75.1401 120.99 75.0901C120.77 75.0401 120.58 75.0601 120.33 75.0201C119.91 74.9601 119.47 74.9401 119.04 75.0101C118.47 75.0901 117.87 75.1401 117.31 75.2701C116.78 75.3901 116.26 75.5301 115.75 75.7001C115.6 75.7501 115.37 75.8501 115.23 75.8601C115.3 75.7501 115.4 75.6901 115.52 75.6101C116.08 75.2101 116.98 74.5901 117.48 74.1701C117.54 74.1201 117.57 74.0901 117.62 74.0401C117.76 73.9101 117.71 74.0101 117.76 73.8701C117.61 73.8801 113.72 75.8001 113.26 76.0301L109.88 77.6801C109.12 78.0501 105.77 79.6401 105.41 79.8701C104.19 80.6801 103.53 82.1501 103.23 83.5401C103.2 83.7001 103.2 83.7401 103.16 83.8801C103.05 84.3001 102.94 85.3801 102.94 85.7901V88.6501C102.94 88.7801 102.96 88.7301 103.03 88.7901C103.18 88.1401 103.81 87.4001 104.22 86.8901C104.41 86.6601 104.51 86.5501 104.76 86.3901C104.76 86.7301 104.7 87.2101 104.8 87.5301C104.83 87.6201 104.86 87.7401 104.91 87.8301C104.99 88.0201 105.1 88.1501 105.26 88.2501C105.78 88.5701 106.4 88.4801 106.98 88.4801C107.16 88.4801 107.24 88.4601 107.38 88.4301C108.31 88.2401 108.94 88.0601 109.82 87.6501C109.94 87.5901 110.01 87.5701 110.13 87.5001C110.91 87.0701 111.71 86.6201 112.42 86.0701L113.22 85.4701C113.64 85.1401 114.09 84.7901 114.47 84.4101C114.58 84.3001 114.59 84.2901 114.71 84.2001C114.82 84.1201 114.85 84.0701 114.94 83.9801L115.68 83.3101C115.75 83.2501 115.73 83.2701 115.8 83.2001C115.92 83.0801 116.04 82.9501 116.18 82.8501C116.16 83.1001 115.84 83.5401 115.72 83.7901C115.46 84.3201 115.14 84.8601 114.89 85.4101L114.39 86.5401C114.21 87.0601 113.92 87.7001 113.92 88.2901C113.92 88.5301 114.47 88.3901 114.62 88.3501C115.44 88.1701 116.18 88.2701 117.33 87.8901C117.44 87.8501 117.58 87.8201 117.68 87.7901C118.25 87.6201 119.63 87.6601 119.9 87.2901C119.76 87.2201 119.65 87.2201 119.45 87.1901C118.98 87.1201 118.51 86.9901 118.04 86.9201C117.85 86.8901 117.8 86.8601 117.59 86.8201C117.46 86.8001 117.31 86.7601 117.15 86.7101C116.45 86.5101 116.38 86.5001 116.7 84.9001C116.79 84.4601 116.87 84.1001 116.99 83.7001L117.16 83.1401C117.43 82.3201 117.36 81.6101 117.46 81.2101C117.54 80.8801 117.84 80.6501 117.94 80.2401C118.16 79.3201 118.33 79.0001 118.36 78.0701C118.37 77.6901 118.53 76.7501 118 76.6201C117.93 76.9401 117.8 77.2301 117.69 77.5401C117.48 78.1301 117.17 78.6701 116.87 79.2101C116.43 79.9901 115.61 81.0801 115.02 81.7501L114.41 82.4101C114.14 82.7501 113.83 83.0801 113.52 83.3801L113.22 83.6701C113.22 83.6701 113.2 83.6801 113.2 83.6901L113.03 83.8401C112.29 84.4601 111.47 84.9801 110.66 85.5101C110.27 85.7701 109.91 86.0401 109.5 86.2501C108.84 86.5901 108.48 86.7301 107.67 86.7301C107.1 86.7301 107.26 85.9701 107.26 85.6001C107.26 84.5601 107.66 83.5501 108.22 82.7101C108.39 82.4601 108.34 82.4801 108.59 82.3101C108.81 82.1601 109 81.9601 109.19 81.7801C109.28 81.7001 109.3 81.6601 109.4 81.5901C110.42 80.8001 111.02 79.7101 111.59 79.1601C112.01 78.7601 112.92 78.2701 113.46 77.9501C114.45 77.3701 115.61 76.9001 116.71 76.5801L117.94 76.2701C118.56 76.1101 119.32 76.0301 119.95 75.9601C120.19 75.9301 120.47 75.9701 120.71 75.9601V75.9501Z" fill="#E64B38"/>
<path d="M101.31 85.61C101.09 85.62 101.07 85.56 100.85 85.55L98.3601 85.31C98.2501 85.3 97.9901 85.26 97.7601 85.24C97.5801 85.22 97.4201 85.21 97.3401 85.21C97.3801 85 97.5601 84.86 97.7601 84.79C97.9101 84.73 98.0801 84.71 98.2201 84.71C98.4801 84.71 98.4501 84.77 98.5301 84.65C98.3401 84.57 97.9301 84.65 97.7701 84.59H97.7601C97.3001 84.38 97.4501 84.05 97.4301 83.63C97.1101 84.04 97.2101 84.64 96.2201 84.7V84.84C96.4101 84.84 96.5401 84.89 96.6901 84.94C96.8501 84.99 97.0001 84.97 97.0601 85.15C96.8801 85.2 96.5301 85.19 96.3201 85.16C96.0501 85.12 95.6901 85.12 95.4001 85.11C95.3501 85.11 95.3001 85.11 95.2501 85.11C95.1701 85.11 95.0901 85.1 95.0301 85.08C94.9201 85.05 94.8601 85.01 94.9101 84.94C94.9401 84.89 94.9801 84.85 95.0301 84.82C95.0901 84.78 95.1701 84.75 95.2501 84.73C95.3001 84.72 95.3501 84.71 95.4001 84.71C95.4801 84.71 95.5501 84.7 95.6201 84.69C95.5601 84.57 95.4801 84.55 95.4001 84.5C95.3501 84.47 95.3001 84.44 95.2501 84.39C95.1701 84.29 95.0901 84.11 95.0301 83.73C95.0101 83.59 94.9901 83.43 94.9801 83.23H94.8901C94.8501 83.47 94.7301 83.69 94.6101 83.84C94.5201 83.96 94.4301 84.05 94.3401 84.11C94.0701 84.3 93.7901 84.26 93.4001 84.19L92.8901 84.04C92.6501 83.95 92.3701 83.82 92.2901 83.56C92.1301 83.05 91.6601 82.53 91.3701 82.09C91.3101 82 91.2601 81.91 91.2201 81.83C91.1701 81.73 91.1401 81.63 91.1301 81.54C91.1101 81.31 91.2001 80.84 91.2201 80.33V80.02C91.2201 80.02 91.2201 79.97 91.2201 79.95H91.1701C91.1801 80.19 91.2101 80.13 91.1201 80.3C91.0701 80.41 91.0301 80.51 90.8801 80.52C90.6101 80.54 89.8401 79.84 89.6301 79.61C89.0601 78.99 88.6101 78.25 88.2601 77.49C88.2101 77.39 88.2101 77.49 88.2001 77.32C88.2001 77.23 88.8601 76.39 88.9801 76.22C89.5201 75.47 89.9101 74.45 90.0801 73.56C90.2401 72.72 90.2801 71.89 90.1101 71.07C90.0801 70.92 90.0901 70.79 90.0501 70.65C90.0201 70.52 89.9901 70.48 89.9501 70.28C89.8601 69.84 89.7101 69.31 89.3701 69.05C89.0201 68.79 88.6701 68.61 88.3301 68.34C88.1201 68.17 87.5301 67.66 87.5101 67.38C87.5001 67.13 87.4701 66.93 87.6201 66.71C87.8201 66.41 88.1201 66.2 88.4501 66.08C88.7901 65.96 90.3901 65.74 90.9801 65.63C91.0301 65.62 91.1201 65.59 91.2001 65.57C91.2601 65.55 91.3101 65.54 91.3501 65.53L93.5001 65.12C93.6601 65.1 93.9801 65.05 94.3301 64.98C94.5501 64.94 94.7901 64.89 95.0201 64.85L95.2401 64.81L95.3901 64.78C95.6801 64.73 95.9301 64.69 96.0701 64.68C96.6801 64.64 97.2001 64.58 97.7501 64.53C98.3501 64.47 98.9701 64.44 99.7301 64.47C100.05 64.48 100.33 64.52 100.65 64.5V64.41C100.4 64.42 100.24 64.38 100.02 64.34C99.9001 64.32 99.9001 64.3 99.7301 64.28C99.5801 64.26 99.5101 64.24 99.4001 64.22C98.9801 64.14 98.6101 64.06 98.1801 64L97.7501 63.93L95.4001 63.54L95.2501 63.52L95.0301 63.48L94.4301 63.38C94.4301 63.38 94.3701 63.37 94.3401 63.36C94.1701 63.33 94.0101 63.31 93.8301 63.29C93.1701 63.19 92.5301 63.12 91.8501 63.1C91.7501 63.1 91.5601 63.08 91.3601 63.06H91.2101C90.9101 63.02 90.6101 62.99 90.4801 63L89.0501 63.08C88.9501 63.1 88.8501 63.12 88.7701 63.15C88.6501 63.19 88.6101 63.18 88.4601 63.22C87.9101 63.35 87.3901 63.61 86.9301 63.87C86.6101 64.05 86.3501 64.22 86.0801 64.45C85.9301 64.58 85.8301 64.66 85.6801 64.78C85.1801 65.23 84.7101 65.73 84.3301 66.28C83.8901 66.91 83.6301 67.38 83.2501 68.02C83.1601 68.17 83.0701 68.33 83.0301 68.51C83.4201 68.22 83.7101 67.71 84.0101 67.32L84.4201 66.78C84.4201 66.78 84.4601 66.72 84.5001 66.68C84.6701 66.48 84.8301 66.25 85.0201 66.07C85.1401 65.95 85.2501 65.81 85.4001 65.71C85.5901 65.59 85.8201 65.71 85.8301 65.89C85.8601 66.45 85.3601 67.08 85.4001 67.87C85.4001 68.03 85.9701 68.86 86.1201 69.14C86.6101 70.06 86.7501 70.78 86.8101 71.83C86.8501 72.52 86.5901 73.38 86.3101 73.96C85.8501 74.91 85.2501 75.6 84.2601 76C84.1101 76.06 83.8601 76.15 83.7401 76.18L83.1601 76.31C82.9401 76.34 82.7101 76.37 82.5301 76.39C81.8501 76.49 80.9701 76.49 80.5601 76.57C79.2201 76.83 79.1601 76.74 77.7601 77.3C76.9401 77.63 76.1201 77.97 75.3201 78.35L72.1301 80.06C71.4101 80.48 70.7101 80.93 70.0301 81.41C69.7601 81.6 69.4801 81.77 69.2201 81.98L68.4301 82.57C67.7801 83.06 67.1701 83.59 66.5501 84.11C66.4101 84.23 66.3401 84.32 66.1901 84.44C65.7001 84.85 65.2401 85.31 64.7901 85.77L63.4301 87.14C63.4301 87.14 63.3901 87.18 63.3601 87.21L61.5201 89.31C61.1201 89.82 60.9301 89.89 60.9601 90.35C60.9701 90.6 61.0701 90.64 61.0801 90.89C61.0801 90.99 61.0001 91.03 61.0101 91.26C61.5401 91.23 62.0101 91.21 62.5101 91.05C62.9701 90.9 63.7601 90.62 64.1301 91.12C64.0701 91.43 63.4801 91.72 63.5001 92.02C63.5301 92.55 63.7201 92.43 64.2801 92.44C65.1801 92.47 68.1701 90.09 68.8401 89.82C69.1101 89.71 69.4101 89.7 69.7001 89.64C69.9201 89.59 70.2901 89.48 70.5201 89.43C71.1901 89.29 72.2601 88.92 72.9001 88.67C73.0201 88.62 73.2101 88.54 73.1601 88.69C73.1201 88.85 72.8101 88.94 72.6801 89L72.1401 89.25C72.0301 89.3 71.9301 89.35 71.8001 89.42C71.7401 89.46 71.6801 89.49 71.6401 89.54C71.6101 89.58 71.6201 89.53 71.6001 89.61C71.5701 89.76 71.7601 89.66 71.8801 89.61L72.5101 89.4C72.7001 89.35 72.7101 89.34 72.8601 89.29L75.2801 88.48C75.3801 88.44 75.3701 88.44 75.4501 88.42L76.0801 88.21C76.4901 88.07 76.6901 88.18 76.6701 87.79C77.8801 87.72 81.3801 87.44 82.3801 87.49C82.9201 87.52 83.4901 87.45 84.0501 87.44C84.2801 87.44 84.6001 87.48 84.8301 87.48C85.1001 87.48 85.3601 87.43 85.6201 87.45C86.4301 87.52 87.9101 87.47 88.7601 87.53L89.8901 87.61C90.0501 87.63 90.1501 87.61 90.3101 87.61C90.4601 87.61 90.7801 87.63 91.1401 87.66H91.2901C91.8201 87.71 92.4001 87.75 92.6001 87.78C92.7701 87.81 92.7701 87.81 92.9601 87.81C93.1701 87.81 93.1901 87.85 93.3401 87.86C93.5901 87.89 93.4601 87.83 93.6701 87.93C93.7501 87.97 93.7001 87.97 93.8101 87.97C93.8101 87.97 93.9601 87.93 94.0101 87.93C94.1001 87.93 94.1801 87.93 94.2701 87.93C94.4801 87.95 94.6901 88 94.9101 88.03H94.9601L95.1801 88.06L95.3301 88.08L97.6801 88.35H97.7101C98.0401 88.38 98.6401 88.56 98.9001 88.52C99.1201 88.49 99.5201 88.05 99.7201 87.9L100.73 87.08C101.22 86.72 101.69 86.3 102.21 85.99C102.19 85.59 102 85.3 101.96 84.92C101.7 85 101.34 85.59 101.23 85.6L101.31 85.61ZM89.2501 84.37C89.2301 84.11 89.2101 84.28 89.1501 84.05C89.1401 84 89.1301 83.94 89.1201 83.89C88.9601 83.15 88.9401 82.72 89.0101 81.92C89.0201 81.76 88.9501 81.06 88.7801 80.95C88.6001 82.01 88.9001 83.33 88.7101 83.98C88.6401 84.23 88.4201 84.53 88.4101 84.74C88.1901 84.77 88.2501 84.84 88.0501 84.85C87.5201 84.88 87.1301 84.81 86.6401 84.85C86.3801 84.87 86.1301 84.88 85.8701 84.9H84.4201L82.5101 85.01C82.2701 85.02 82.2901 85.06 82.1901 84.93C82.3401 84.89 83.2001 84.25 83.3801 84.1C83.4701 84.03 83.5101 83.99 83.6101 83.92C84.1901 83.48 84.6301 83.11 85.0601 82.55L85.1601 82.42C85.5701 81.88 86.8601 79.51 87.2601 78.76C87.3901 78.52 87.6701 77.93 87.9001 77.79C87.9801 78.05 88.5101 78.58 88.6901 78.79C89.1001 79.3 89.7501 80.02 90.0501 80.59C90.1701 80.81 90.7201 82.15 90.7101 82.26L90.6801 82.62C90.9701 82.6 91.1101 82.57 91.2201 82.63C91.2701 82.66 91.3201 82.71 91.3701 82.79C91.4001 82.84 91.4401 82.9 91.4801 82.98C91.6501 83.29 91.8801 83.67 91.6701 84C91.6001 84.1 91.5001 84.16 91.3701 84.19C91.3201 84.2 91.2701 84.21 91.2201 84.22C90.8901 84.25 90.4901 84.17 90.2901 84.18C89.0901 84.25 89.6901 84.32 89.2601 84.38L89.2501 84.37ZM92.3201 84.92C92.0101 84.88 91.7101 84.93 91.4001 84.9H91.3801H91.2301L89.5201 84.86C89.6301 84.69 90.0501 84.56 90.1401 84.55C90.6801 84.52 90.9901 84.5 91.2301 84.5C91.2801 84.5 91.3301 84.5 91.3801 84.5C91.7301 84.52 91.9901 84.59 92.7701 84.77C92.9501 84.81 93.1301 84.82 93.2501 84.96L92.3301 84.93L92.3201 84.92ZM94.3501 85.02H94.1901C94.2301 84.86 94.2301 84.97 94.2701 84.8C94.3001 84.8 94.3301 84.8 94.3501 84.8C94.4701 84.81 94.4601 84.85 94.5101 85.01H94.3501V85.02ZM95.5401 85.32C95.4801 85.32 95.4301 85.32 95.4001 85.32C95.3201 85.32 95.3301 85.32 95.2601 85.22H95.5301V85.31L95.5401 85.32Z" fill="#E64B38"/>
<path d="M97.8304 82.1901C97.7804 82.3101 97.8004 82.2401 97.7504 82.3801C97.6404 82.7001 97.4404 83.2101 97.4404 83.5301L97.4704 83.4701L97.5104 83.3801L97.7404 82.9201L97.7804 82.8401C98.0104 82.3801 98.1004 82.1701 98.0204 81.8601C97.8904 81.9501 97.8904 82.0301 97.8204 82.2001L97.8304 82.1901Z" fill="#E64B38"/>
<path d="M95.2596 81.2601C95.2896 81.1501 95.3196 81.0601 95.3296 80.9601C95.3596 80.6301 95.3896 80.5801 95.4096 80.4001C95.4096 80.3101 95.4196 80.2001 95.4196 80.0101C95.4196 79.9601 95.4196 79.9301 95.4096 79.9201C95.3996 79.9001 95.3696 79.9001 95.3296 79.8701C95.3296 79.9501 95.2996 80.1001 95.2596 80.2701C95.1896 80.6201 95.0996 81.0801 95.0996 81.4101C95.0996 81.6501 95.0996 81.5701 95.1896 81.6401C95.1996 81.4901 95.2296 81.3701 95.2596 81.2601Z" fill="#E64B38"/>
<path d="M95.0397 82.1C94.9897 82.3 94.9297 82.59 94.9297 83.12H94.9797C94.9797 83.01 95.0097 82.91 95.0497 82.76C95.0997 82.55 95.1597 82.25 95.1597 81.72H95.1097C95.1097 81.85 95.0797 81.96 95.0397 82.1Z" fill="#E64B38"/>
<path d="M91.2199 79.4699C91.2399 79.2499 91.3099 79.2999 91.2199 79.2299L91.1699 79.2V79.8799H91.2199C91.2199 79.7599 91.2199 79.5999 91.2199 79.4699Z" fill="#E64B38"/>
<path d="M148.94 85.2699C148.98 85.2099 149.01 85.1299 149.01 85.0499C149.01 84.9699 148.98 84.8899 148.94 84.8299C148.87 84.7299 148.75 84.6599 148.61 84.6599C148.39 84.6599 148.22 84.8399 148.22 85.0499C148.22 85.2599 148.4 85.4399 148.61 85.4399C148.75 85.4399 148.86 85.3699 148.94 85.2699Z" fill="#E64B38"/>
<path d="M150.88 85.93C151.002 85.93 151.1 85.8315 151.1 85.71C151.1 85.5885 151.002 85.49 150.88 85.49C150.759 85.49 150.66 85.5885 150.66 85.71C150.66 85.8315 150.759 85.93 150.88 85.93Z" fill="#E64B38"/>
<path d="M151.54 85.3701C151.45 85.3701 151.38 85.4401 151.38 85.5301C151.38 85.6201 151.45 85.6901 151.54 85.6901C151.63 85.6901 151.7 85.6201 151.7 85.5301C151.7 85.4401 151.63 85.3701 151.54 85.3701Z" fill="#E64B38"/>
<path d="M174.53 79.68C174.4 79.53 174.25 79.41 174.11 79.29L174.04 79.23C173.78 79.01 173.53 78.85 173.23 78.68L172.65 78.4C172.4 78.3 172.22 78.24 171.94 78.2C171.22 78.1 171 78.05 170.27 78.26C170.17 78.29 170.08 78.3 169.98 78.33L169.52 78.51C169.44 78.54 169.37 78.58 169.3 78.61C168.36 79.02 168.24 79.02 167.21 79.56L166.33 80.08C165.52 80.6 164.72 81.11 163.87 81.56C163.88 81.41 163.95 81.35 164.01 81.21L164.85 79.55C165 79.25 165.13 79.06 165.37 78.85C165.43 78.79 165.45 78.78 165.51 78.71C165.73 78.43 166.01 78.21 166.26 77.97C167.35 76.9 169.16 77.91 168.39 77.22C167.9 76.77 167.12 76.64 166.48 76.45C166.31 76.4 166.1 76.33 165.94 76.31C165.8 76.29 165.79 76.31 165.66 76.27C164.88 76.08 163.74 76.27 163.07 76.68C162.8 76.85 162.57 77.02 162.35 77.23C161.69 77.84 160.81 79.32 160.21 80.12C159.76 80.71 159.35 81.35 158.93 81.97C158.66 82.38 158.34 82.78 158.09 83.21C157.93 83.48 157.38 84.2 157.06 84.69C156.94 84.89 156.85 85.05 156.84 85.14C156.91 85.12 156.98 85.08 157.06 85.02C157.26 84.85 157.46 84.57 157.63 84.43L158.68 83.39C158.98 83.05 159.61 82.47 159.97 82.28C159.93 82.44 159.89 82.54 159.83 82.68L157.88 87.16C157.82 87.31 157.77 87.44 157.71 87.58L157.35 88.4C157.12 88.94 157.38 88.75 157.76 88.67L158.24 88.56C158.81 88.43 160.75 87.95 161.16 87.95C161.34 87.6 161.48 87.25 161.63 86.88L161.86 86.34C162.01 85.98 162.17 85.64 162.37 85.3C162.76 84.65 163.09 83.96 163.56 83.37L163.89 82.93C163.94 82.86 163.98 82.79 164.04 82.71C164.2 82.5 164.58 82.04 164.84 81.97C165.28 81.85 165.72 81.8 166.15 81.77H166.84C167.15 81.82 168.43 81.74 168.5 81.77C168.64 81.84 168.52 81.91 168.52 81.92C168.52 81.92 168.51 81.94 168.5 81.95C168.2 82.54 167.84 83.11 167.5 83.68L166.69 85.09C166.47 85.45 166.29 85.81 166.11 86.19L165.95 86.61C165.64 87.55 165.61 88.53 166.73 88.86C167.13 88.98 167.55 88.94 168.01 88.94C168.43 88.94 170.06 88.64 170.53 88.52L173.47 87.79C173.78 87.71 174.04 87.67 174.33 87.56L174.58 87.4H173.13C172.49 87.4 171 87.36 170.51 87.12C170.2 86.96 170 86.39 170 86C170 85.63 170.95 84.08 171.15 83.7C171.19 83.62 171.21 83.6 171.25 83.53L171.8 82.63C172 82.29 172.83 80.87 173.04 80.79C173.32 80.69 173.61 80.65 173.91 80.69C174.38 80.75 174.64 80.82 175.05 80.96C175.2 81.01 175.62 81.29 175.55 81.01C175.47 80.69 174.81 79.98 174.56 79.68H174.53Z" fill="#E64B38"/>
<path d="M158.01 82.83C158.14 82.57 158.27 82.34 158.37 82.06L158.52 81.66C158.82 80.77 158.93 79.62 158.34 78.82C157.9 78.24 157.52 77.95 157.05 77.8C156.64 77.67 156.15 77.66 155.47 77.66C154.98 77.66 154.13 78 153.6 78.19C153.27 78.31 152.91 78.46 152.53 78.64C152.21 78.8 151.87 78.97 151.53 79.17C151.31 79.29 151.09 79.42 150.87 79.56C150.58 79.74 150.3 79.92 150.02 80.11C149.72 80.32 149.43 80.53 149.16 80.74C149.08 80.8 149 80.86 148.93 80.93C148.82 81.02 148.71 81.12 148.6 81.21C148.51 81.29 148.42 81.37 148.34 81.46L148.13 81.66C147.98 81.8 147.86 81.92 147.72 82.07L147.44 82.38C147.32 82.48 147.46 82.41 147.3 82.47C147.78 81.56 147.84 80.87 147.84 79.89C147.84 78.91 147 78.24 146.21 77.86C146.19 77.85 146.16 77.84 146.14 77.83C145.63 77.64 145.14 77.68 144.57 77.68C144.26 77.68 143.96 77.81 143.67 77.87C143.38 77.93 143.05 78.07 142.76 78.19C142.27 78.38 141.81 78.59 141.35 78.82C141.23 78.88 141.11 78.94 140.99 79L140.61 79.22L140.47 79.3C140.37 79.35 140.39 79.33 140.29 79.4L139.94 79.62L139.29 80.03C139.22 80.07 139.16 80.12 139.09 80.16C138.8 80.37 138.51 80.58 138.23 80.81C138.15 80.87 138.08 80.94 138 81C137.89 81.09 137.78 81.19 137.67 81.28C137.6 81.34 137.53 81.4 137.46 81.47C136.99 81.89 136.53 82.39 136.14 82.87C135.98 83.07 135.86 83.32 135.69 83.51C135.57 83.64 135.51 83.62 135.4 83.76C135.13 84.08 134.82 84.24 134.43 84.43C134.28 84.5 134.18 84.57 134 84.59C134.06 84.47 134.02 84.51 134.06 84.38L134.27 83.69C134.32 83.54 134.36 83.41 134.42 83.25C134.44 83.18 134.46 83.11 134.49 83.05L135.11 81.45C135.11 81.45 135.14 81.37 135.16 81.32C135.35 80.86 136.81 77.88 136.81 77.85C136.81 77.66 136.64 77.73 136.47 77.69L135.11 77.46C134.54 77.35 134.18 77.44 133.7 77.38C133.45 77.35 133.18 77.41 132.92 77.35L134.36 76.53C134.73 76.31 135.05 76.08 135.38 75.83C135.54 75.71 135.63 75.73 135.68 75.54C135.36 75.54 134.8 75.75 134.49 75.85L131.83 76.54C130.74 76.75 129.61 77.07 128.54 77.37C128.38 77.41 128.15 77.48 127.98 77.54C127.45 77.73 126.83 77.94 126.32 78.2L126 78.37L124.88 78.98C124.78 79.04 124.75 79.06 124.66 79.12C124.21 79.41 123.71 79.68 123.3 80.02L122.14 80.99C121.8 81.35 121.5 81.72 121.26 82.13C120.85 82.82 120.6 83.6 120.6 84.48C120.6 85.36 120.85 86.23 121.26 86.99C121.49 87.42 121.77 87.83 122.08 88.21C122.4 88.6 122.59 89.06 122.93 89.44C123.08 89.61 123.31 89.82 123.54 89.87C123.51 89.49 123.06 89.15 123.49 87.91C123.58 87.64 123.95 87.65 124.28 87.52C124.88 87.28 125.45 87 126.02 86.69C126.29 86.55 126.55 86.4 126.82 86.25L127.74 85.67C128.3 85.33 128.84 84.98 129.38 84.59C129.38 84.59 129.4 84.58 129.41 84.57C129.66 84.4 130.32 83.9 130.54 83.84L130.41 84.16C130.41 84.16 130.41 84.18 130.4 84.19L130.36 84.29C130.22 84.63 129.56 86.48 129.42 86.61L126.96 88.04C126.65 88.23 126.34 88.42 126.03 88.62C125.03 89.28 124.08 90 123.17 90.77C122.86 91.03 122.01 91.8 121.81 92.04C121.64 92.24 121.46 92.44 121.28 92.64C120.94 93.03 120.61 93.45 120.45 93.94C120.24 94.59 120.38 95.19 121.21 95.24H121.28C122.08 95.29 122.44 95.19 123.25 94.92C123.46 94.85 123.65 94.78 123.85 94.7L124.98 94.2L126.04 93.64L126.58 93.35C127.5 92.86 128.23 92.3 129.06 91.75C129.15 91.69 129.21 91.65 129.3 91.59C129.41 91.51 129.41 91.49 129.53 91.41C130.01 91.08 130.47 90.72 130.87 90.31C130.95 90.23 130.99 90.18 131.08 90.11L132.05 89.04C132.18 88.86 132.25 88.74 132.37 88.55C132.64 88.12 132.87 87.67 133.06 87.2L133.64 85.74C133.76 85.44 133.78 85.29 134.07 85.18L134.23 85.11C134.52 84.98 134.82 84.82 135.16 84.82C135.16 85.63 135.01 85.88 135.36 86.7C135.51 87.06 135.7 87.3 135.96 87.55C136.31 87.88 136.91 88.19 137.43 88.26C137.52 88.27 137.61 88.28 137.7 88.29C137.81 88.29 137.92 88.3 138.03 88.31C138.11 88.31 138.18 88.31 138.26 88.31C138.54 88.31 138.83 88.29 139.12 88.25C139.4 88.21 139.68 88.16 139.97 88.1C140.19 88.05 140.41 87.99 140.63 87.93C141.98 87.53 143.29 86.86 144.22 86.08C144.46 85.88 146.22 84.28 146.22 84.28C145.95 84.88 145.74 85.94 146.22 86.84C146.46 87.28 146.86 87.68 147.49 87.98C147.82 88.14 148.2 88.23 148.6 88.28C148.71 88.29 148.82 88.3 148.93 88.3C149.01 88.3 149.08 88.3 149.16 88.3C149.44 88.3 149.73 88.28 150.02 88.24C150.3 88.2 150.58 88.15 150.87 88.09C151.09 88.04 151.31 87.98 151.53 87.92C151.87 87.82 152.21 87.7 152.53 87.57C153.14 87.32 153.7 87.03 154.13 86.75C154.68 86.39 155.23 86.01 155.73 85.58C156.19 85.19 156.64 84.76 157.04 84.29C157.42 83.85 157.75 83.38 158 82.87L158.01 82.83ZM128.78 88.72C128.52 89.41 128.05 90.49 127.67 91.05C127.49 91.31 127.31 91.55 127.08 91.78C126.97 91.89 126.67 92.11 126.53 92.18C126.41 92.24 126.24 92.31 126.04 92.38C125.26 92.64 123.99 92.9 123.48 92.94C123.14 92.97 123.14 93.05 122.84 92.89C122.96 92.37 123.38 91.93 123.67 91.5C123.73 91.41 123.75 91.37 123.82 91.28L124.01 91.06C124.14 90.9 124.2 90.82 124.35 90.67C124.7 90.32 125.47 89.69 126.04 89.27C126.19 89.16 126.32 89.06 126.43 88.99C127 88.61 127.05 88.53 127.76 88.1L128.24 87.81C128.45 87.69 128.85 87.44 129.06 87.36C129.18 87.31 129 87.33 129.24 87.31C129.17 87.61 128.91 88.38 128.79 88.71L128.78 88.72ZM132.7 80.13L132.07 80.9C132.02 80.95 132 80.98 131.96 81.02C131.26 81.72 130.83 82.18 130.08 82.81C130.08 82.81 130.06 82.82 130.06 82.83L129.4 83.4C128.67 84.03 127.15 85.1 126.17 85.1H126.06C125.57 85.1 124.81 85.05 124.81 84.24C124.81 83.29 125.38 82.36 126.06 81.65C126.29 81.41 126.52 81.2 126.76 81.02C127.31 80.59 128.3 80.04 128.97 79.74C129.33 79.58 129.9 79.41 130.34 79.34L131.8 79.08C132.46 78.98 132.7 78.97 133.33 79.12C133.27 79.39 132.88 79.91 132.72 80.14L132.7 80.13ZM146.24 80.62C146.19 80.8 146.12 80.97 146.05 81.14C145.68 81.97 145.34 82.54 144.73 83.26C144.59 83.43 144.47 83.55 144.31 83.7L143.99 84.02C143.47 84.51 143.1 84.75 142.39 85.23C142.28 85.3 142.26 85.31 142.13 85.38C141.76 85.58 141.23 85.82 140.63 86.02C140.42 86.09 140.19 86.16 139.97 86.21C139.69 86.28 139.4 86.34 139.12 86.37C138.82 86.4 138.53 86.41 138.26 86.37C138.18 86.36 138.1 86.35 138.03 86.33C137.92 86.3 137.81 86.27 137.7 86.22C137.59 86.17 137.48 86.11 137.39 86.03C136.82 85.57 136.87 84.36 137.17 83.75C137.32 83.46 137.49 83.18 137.7 82.9C137.8 82.76 137.91 82.62 138.03 82.48C138.1 82.39 138.18 82.3 138.26 82.21C138.53 81.92 138.82 81.63 139.12 81.37C139.4 81.13 139.68 80.9 139.97 80.7C140.19 80.54 140.41 80.4 140.63 80.27L140.67 80.25C140.77 80.19 140.84 80.16 140.93 80.1C141.8 79.55 145.49 77.52 146.23 79.07C146.31 79.24 146.36 79.46 146.36 79.73C146.36 80.03 146.31 80.33 146.23 80.61L146.24 80.62ZM156.05 82.72L154.71 84.19C154.27 84.58 153.84 84.91 153.33 85.22C153.14 85.34 152.94 85.46 152.76 85.55L152.55 85.65L152.17 85.82C152 85.89 151.79 85.97 151.55 86.04C151.35 86.1 151.12 86.17 150.89 86.22C150.62 86.28 150.33 86.34 150.04 86.37C149.74 86.4 149.45 86.41 149.18 86.37C149.1 86.37 149.02 86.35 148.95 86.33C148.84 86.31 148.73 86.27 148.62 86.23C148.35 86.12 148.14 85.94 148.01 85.67C147.81 85.24 147.76 84.94 147.86 84.46C147.94 84.07 148.28 83.44 148.62 82.93C148.73 82.76 148.84 82.6 148.95 82.48C149.02 82.39 149.09 82.31 149.15 82.25L149.18 82.22C149.55 81.86 149.81 81.6 150.04 81.38C150.34 81.1 150.57 80.9 150.89 80.69C151.07 80.57 151.28 80.44 151.55 80.28C151.72 80.18 151.92 80.07 152.14 79.94C152.26 79.87 152.4 79.79 152.55 79.71C153.82 79.01 156.07 77.93 156.99 78.88C157.01 78.91 157.04 78.93 157.06 78.96C157.38 79.37 157.28 79.95 157.19 80.42C157.17 80.56 157.12 80.71 157.06 80.88C156.83 81.51 156.38 82.29 156.05 82.72Z" fill="#E64B38"/>
<path d="M150.03 85.6101C149.89 85.6101 149.78 85.7201 149.78 85.8601C149.78 86.0001 149.89 86.1101 150.03 86.1101C150.17 86.1101 150.28 86.0001 150.28 85.8601C150.28 85.7201 150.17 85.6101 150.03 85.6101Z" fill="#E64B38"/>
<path d="M138.27 85.49C138.18 85.49 138.09 85.53 138.04 85.6C138 85.65 137.97 85.72 137.97 85.79C137.97 85.86 138 85.93 138.04 85.98C138.09 86.05 138.18 86.09 138.27 86.09C138.44 86.09 138.57 85.96 138.57 85.79C138.57 85.62 138.44 85.49 138.27 85.49Z" fill="#E64B38"/>
<path d="M138.04 85.34C138.08 85.28 138.11 85.2 138.11 85.12C138.11 85.04 138.08 84.96 138.04 84.9C137.97 84.8 137.85 84.73 137.71 84.73C137.49 84.73 137.32 84.91 137.32 85.12C137.32 85.33 137.5 85.51 137.71 85.51C137.85 85.51 137.96 85.44 138.04 85.34Z" fill="#E64B38"/>
<path d="M149.17 85.4199C149.08 85.4199 148.99 85.4599 148.94 85.5299C148.9 85.5799 148.87 85.6499 148.87 85.7199C148.87 85.7899 148.9 85.8599 148.94 85.9099C148.99 85.9799 149.08 86.0199 149.17 86.0199C149.34 86.0199 149.47 85.8899 149.47 85.7199C149.47 85.5499 149.34 85.4199 149.17 85.4199Z" fill="#E64B38"/>
<path d="M139.13 85.6799C138.99 85.6799 138.88 85.7899 138.88 85.9299C138.88 86.0699 138.99 86.1799 139.13 86.1799C139.27 86.1799 139.38 86.0699 139.38 85.9299C139.38 85.7899 139.27 85.6799 139.13 85.6799Z" fill="#E64B38"/>
<path d="M140.63 85.4399C140.54 85.4399 140.47 85.5099 140.47 85.5999C140.47 85.6899 140.54 85.7599 140.63 85.7599C140.72 85.7599 140.79 85.6899 140.79 85.5999C140.79 85.5099 140.72 85.4399 140.63 85.4399Z" fill="#E64B38"/>
<path d="M139.98 85.5601C139.86 85.5601 139.76 85.6601 139.76 85.7801C139.76 85.9001 139.86 86.0001 139.98 86.0001C140.1 86.0001 140.2 85.9001 140.2 85.7801C140.2 85.6601 140.1 85.5601 139.98 85.5601Z" fill="#E64B38"/>
</g>
</g>
</g>
<defs>
<filter id="filter0_d_226_20473" x="0.473633" y="0" width="239" height="160" filterUnits="userSpaceOnUse" color-interpolation-filters="sRGB">
<feFlood flood-opacity="0" result="BackgroundImageFix"/>
<feColorMatrix in="SourceAlpha" type="matrix" values="0 0 0 0 0 0 0 0 0 0 0 0 0 0 0 0 0 0 127 0" result="hardAlpha"/>
<feOffset dy="1"/>
<feGaussianBlur stdDeviation="10"/>
<feComposite in2="hardAlpha" operator="out"/>
<feColorMatrix type="matrix" values="0 0 0 0 0 0 0 0 0 0 0 0 0 0 0 0 0 0 0.08 0"/>
<feBlend mode="normal" in2="BackgroundImageFix" result="effect1_dropShadow_226_20473"/>
<feBlend mode="normal" in="SourceGraphic" in2="effect1_dropShadow_226_20473" result="shape"/>
</filter>
<clipPath id="clip0_226_20473">
<rect x="20.4736" y="19" width="199" height="120" rx="7.02062" fill="white"/>
</clipPath>
<clipPath id="clip1_226_20473">
<rect width="116.57" height="32.21" fill="white" transform="translate(61 63)"/>
</clipPath>
</defs>
</svg>
