<svg width="240" height="160" viewBox="0 0 240 160" fill="none" xmlns="http://www.w3.org/2000/svg">
<g filter="url(#filter0_d_226_20965)">
<g clip-path="url(#clip0_226_20965)">
<rect x="20.4736" y="19" width="199" height="120" rx="7.02062" fill="white"/>
<rect x="20.4736" y="19" width="199" height="120" fill="white"/>
<g clip-path="url(#clip1_226_20965)">
<g clip-path="url(#clip2_226_20965)">
<path d="M53.1999 79.12H55.9399C56.7399 79.12 57.6899 79.26 58.4699 79.05C59.2899 78.83 59.8599 77.81 60.4199 77.23C63.6899 73.85 68.0899 71.2 72.9199 71.38C76.5599 71.52 79.9499 73.12 82.8099 75.29C83.6699 75.94 84.4999 76.64 85.2799 77.39C85.8299 77.91 86.5099 78.95 87.2199 79.13C88.1099 79.35 89.3399 79.13 90.2499 79.13C90.4599 79.13 90.7499 79.18 90.9499 79.13C91.2099 79.06 91.2799 79.28 90.9799 79.03C91.0399 79.08 91.1299 79.2 91.1799 79.27C91.4699 79.74 91.9799 80.16 92.3699 80.54C93.9199 82.07 95.6899 83.41 97.6299 84.41C104.41 87.92 111.62 85.71 116.91 80.61C117.21 80.32 115.85 80.47 115.6 80.72C112.95 83.28 109.71 85.47 105.92 85.61C103.26 85.71 100.65 84.87 98.3499 83.57C96.6899 82.63 95.1599 81.44 93.7899 80.1C93.2799 79.6 92.6499 78.63 92.0999 78.53C91.2199 78.38 90.1999 78.53 89.3099 78.53C89.0199 78.53 88.4999 78.64 88.2299 78.53C88.0399 78.45 87.8199 78.07 87.6499 77.87C87.2499 77.41 86.7599 76.99 86.3099 76.57C83.8299 74.3 80.9499 72.37 77.6999 71.41C73.1299 70.06 68.2799 70.98 64.1999 73.33C61.7499 74.74 59.3899 76.67 57.6899 78.95L58.8699 78.53H54.1399C53.8299 78.53 52.4999 79.12 53.1999 79.12Z" fill="#45484B"/>
<path d="M54.9503 79.2101H58.8903C59.1503 79.2101 59.4803 79.2601 59.6903 79.0801C59.8603 78.9501 59.9803 78.7101 60.1203 78.5501C60.4903 78.1101 60.8703 77.6901 61.2703 77.2801C64.2403 74.2701 68.2103 71.9501 72.5403 71.9401C75.6803 71.9301 78.6603 73.1501 81.2103 74.9101C82.0403 75.4901 82.8403 76.1201 83.5903 76.7901C83.9903 77.1401 84.3703 77.5101 84.7503 77.8801C84.9503 78.0801 85.1403 78.2701 85.3303 78.4801C85.5103 78.6601 85.7203 79.0001 85.9403 79.1301C86.1603 79.2601 86.5203 79.2001 86.7703 79.2001H89.2403C89.3603 79.2001 89.6603 79.2601 89.7603 79.2001C89.9103 79.1201 89.6603 79.2401 89.6503 79.1201C89.6503 79.1501 89.7103 79.1801 89.7203 79.2101C89.9003 79.5801 90.3603 79.9501 90.6403 80.2401C91.9503 81.6001 93.4303 82.8101 95.0603 83.7701C97.1803 85.0201 99.5703 85.8201 102.04 85.8401C105.15 85.8601 108.09 84.6301 110.53 82.7601C111.33 82.1501 112.08 81.4801 112.79 80.7701C113.11 80.4601 112.4 80.3701 112.19 80.5801C109.89 82.8701 107.06 84.8101 103.78 85.2501C101.4 85.5701 99.0103 85.0701 96.8603 84.0401C95.1503 83.2201 93.5803 82.1001 92.1903 80.8101C91.7303 80.3801 91.2803 79.9301 90.8603 79.4601C90.6903 79.2701 90.5203 78.9801 90.3203 78.8201C89.9503 78.5301 89.0603 78.7201 88.6203 78.7201H87.0903C86.9303 78.7201 86.7203 78.7601 86.5703 78.7201C86.3303 78.6601 86.5003 78.7601 86.3403 78.5401C85.7703 77.7501 84.9103 77.0701 84.1803 76.4201C83.5403 75.8501 82.8703 75.3101 82.1803 74.8001C80.9503 73.9001 79.6203 73.1401 78.2103 72.5501C73.9103 70.7801 69.2303 71.2701 65.2303 73.5601C63.7403 74.4101 62.3703 75.4701 61.1303 76.6501C60.4903 77.2601 59.6503 77.9701 59.2103 78.7501C59.1903 78.7901 59.1503 78.8201 59.1303 78.8601L59.5603 78.7101H55.2103C54.8803 78.7101 54.4603 79.2001 54.9503 79.2001V79.2101Z" fill="#45484B"/>
<path d="M115.48 63.8H54.6504V95.7401H115.48V63.8Z" stroke="#45484B" stroke-width="2" stroke-miterlimit="10"/>
<path d="M114.38 61.3799H54.0195V95.1099H114.38V61.3799Z" stroke="#45484B" stroke-width="0.75" stroke-miterlimit="10"/>
<path d="M134.6 72.91C134.7 73.02 134.74 73.11 134.74 73.18C134.74 73.27 134.67 73.31 134.54 73.31H128.75C130.07 76.75 132.3 77.76 134.54 77.83V78.1C133.76 78.15 133.42 78.43 133.25 78.81C133.22 78.88 133.16 78.92 133.12 78.92C133.08 78.92 133.03 78.9 132.99 78.88C130.65 77.63 129.33 76.2 128.48 73.31H128C127.33 76.53 124.31 78.45 121.71 79.39L121.62 79.1201C124.22 77.7801 126.69 75.99 127.35 73.31H122.85C122.55 73.31 122.14 73.38 121.9 73.51L121.5 72.84C121.85 72.88 122.21 72.91 122.54 72.91H124.21V69.58C124.21 69.13 124.18 68.21 124.17 67.81L125.01 68.57H127.76C127.79 67.56 127.79 66.82 127.77 66.13L128.86 66.84C128.93 66.89 128.96 66.93 128.96 66.98C128.96 67.03 128.93 67.09 128.86 67.14L128.48 67.45L128.44 68.57H131.09L131.52 67.7L132.46 68.42C132.53 68.46 132.56 68.51 132.56 68.56C132.56 68.61 132.53 68.67 132.46 68.74L132.09 69.12V72.9H133.11L133.69 71.85L134.58 72.9L134.6 72.91ZM134.41 64.68C134.51 64.79 134.55 64.88 134.55 64.95C134.55 65.02 134.48 65.08 134.35 65.08H130.55C130.55 65.33 130.58 66.56 130.58 66.85C130.58 67.01 130.52 67.1 130.24 67.27C130.14 67.32 130.07 67.36 130.01 67.36C129.91 67.36 129.87 67.23 129.87 66.98C129.87 66.71 129.88 65.39 129.88 65.08H126.4C126.4 65.33 126.43 66.56 126.43 66.85C126.43 67.14 125.9 67.37 125.86 67.37C125.75 67.37 125.72 67.24 125.72 66.99C125.72 66.72 125.73 65.38 125.73 65.07H123.19C122.89 65.07 122.48 65.14 122.24 65.27L121.84 64.6C122.19 64.64 122.55 64.67 122.88 64.67H125.73V63.95C125.73 63.5 125.72 62.99 125.69 62.39L126.7 62.93C126.81 62.98 126.87 63.04 126.87 63.09C126.87 63.18 126.83 63.22 126.4 63.54V64.66H129.88V63.86C129.88 63.41 129.87 62.9 129.84 62.3L130.85 62.84C130.96 62.89 131.02 62.97 131.02 63.02C131.02 63.13 130.98 63.16 130.55 63.49V64.65H132.88L133.48 63.6L134.42 64.65L134.41 64.68ZM127.44 72.91C127.61 72.06 127.68 71.23 127.75 68.97H124.88V72.91H127.43H127.44ZM131.43 72.91V68.97H128.44C128.35 70.76 128.26 71.86 128.07 72.91H131.43Z" fill="#45484B"/>
<path d="M151.73 77.7101C151.32 78.5201 151.19 78.6301 150.51 78.7401C150.16 78.7901 149.25 78.8101 148.48 78.8101C146.9 78.8101 146.42 78.8101 146.42 77.6001V75.0101C146.42 74.3601 146.42 74.0001 146.38 73.3801H141C140.93 77.0201 140.5 78.0801 138.83 79.6901L138.7 79.4701C140.08 77.7901 140.43 76.6101 140.45 72.4901C140.45 70.5401 140.44 69.1301 140.41 68.3701C140.31 68.4101 140.28 68.3501 140.28 68.1901C140.28 68.1701 140.32 67.2501 140.32 67.0701V66.2201C140.32 65.8001 140.31 65.1901 140.28 64.6601L140.99 65.3801H143.73L144.1 64.7701L144.78 65.3801C144.85 65.4301 144.88 65.4901 144.88 65.5401C144.88 65.6101 144.84 65.6501 144.47 65.8501V66.8801C144.47 67.0201 144.5 67.7701 144.5 67.9501C144.5 68.2001 144.12 68.3801 144 68.3801C143.91 68.3801 143.9 68.2901 143.9 68.1301V65.7401H140.89V67.8401C140.89 68.0701 140.86 68.1501 140.62 68.2701L141.17 68.8901H150.04L150.68 67.9001L151.43 68.8801C151.52 68.9901 151.56 69.0801 151.56 69.1301C151.56 69.2201 151.49 69.2601 151.39 69.2601H147.23V70.8501H149.5L149.95 70.2201L150.72 70.8701C150.78 70.9201 150.82 70.9801 150.82 71.0301C150.82 71.0701 150.78 71.1201 150.71 71.1601L150.3 71.4301V72.7301C150.3 72.8701 150.33 73.6201 150.33 73.8001C150.33 74.0501 149.95 74.2301 149.83 74.2301C149.74 74.2301 149.73 74.1401 149.73 73.9801V73.3801H146.38L147.17 73.7401C147.3 73.7901 147.37 73.8701 147.37 73.9401C147.37 74.0501 147.28 74.1201 146.97 74.3601V76.2601C148.49 75.4601 148.89 75.2301 149.77 74.5801L150.48 75.4101C150.48 75.4101 150.54 75.5001 150.54 75.5201C150.54 75.5601 150.51 75.5901 150.44 75.5901C150.41 75.5901 150.21 75.5501 150.17 75.5501C149.84 75.5501 149.3 75.7301 146.98 76.5301V77.4301C146.98 78.0801 147.53 78.1201 148.54 78.1201C149.26 78.1201 150.09 78.0701 150.36 77.9801C150.7 77.8701 150.89 77.4901 150.93 74.7801L151.19 74.7601C151.22 76.9301 151.32 77.2401 151.69 77.4701C151.75 77.5101 151.78 77.5601 151.78 77.6001C151.78 77.6401 151.78 77.6701 151.75 77.7101H151.73ZM145.14 64.1601H140.46C140.16 64.1601 139.75 64.2301 139.51 64.3601L139.11 63.7501C139.46 63.7901 139.82 63.8201 140.15 63.8201H143.94L144.51 62.8801L145.19 63.8401C145.28 63.9501 145.32 64.0201 145.32 64.0801C145.32 64.1501 145.26 64.1701 145.15 64.1701L145.14 64.1601ZM143.64 71.2001H141.03C141.03 71.7801 141.02 72.3401 141 73.0301H143.64V71.2001ZM143.64 69.2601H141.03V70.8501H143.64V69.2601ZM142.46 67.9801C142.33 67.9801 142.28 67.9301 142.2 67.6001C142.1 67.1301 141.93 66.7301 141.48 66.2301L141.58 66.0701C142.49 66.5801 142.86 66.9001 142.86 67.3501C142.86 67.6801 142.66 67.9801 142.46 67.9801ZM142.77 79.1001C142.73 79.1501 142.68 79.1901 142.66 79.1901C142.65 79.1901 142.62 79.1701 142.6 79.1401L141.95 78.2201C142.5 77.8601 142.55 77.7701 142.55 77.5001V75.5101C142.55 74.8401 142.55 74.0301 142.52 73.4101L143.33 73.7501C143.47 73.8001 143.53 73.8601 143.53 73.9101C143.53 73.9801 143.49 74.0201 143.1 74.2901V75.2701H144.68L145.21 74.4701L145.81 75.2701C145.9 75.3801 145.94 75.4701 145.94 75.5201C145.94 75.5901 145.88 75.6301 145.77 75.6301H143.12V77.8901L146.06 77.0401L146.09 77.3101C143.34 78.4901 143.25 78.5401 142.8 79.1001H142.77ZM146.67 69.2601H144.19V70.8501H146.67V69.2601ZM146.67 71.2001H144.19V73.0301H146.67V71.2001ZM145.34 68.7401C145.21 68.7401 145.17 68.6701 145.14 68.3201C145.08 67.7401 144.9 67.2001 144.6 66.6701L144.73 66.5301C145.7 67.3601 145.84 67.8301 145.84 68.0901C145.84 68.4301 145.58 68.7401 145.34 68.7401ZM151.23 64.1101H147.03C146.73 64.1101 146.32 64.1801 146.08 64.3101L145.68 63.7001C146.03 63.7401 146.39 63.7701 146.72 63.7701H149.88L150.46 62.8701L151.28 63.7901C151.38 63.8801 151.42 63.9701 151.42 64.0301C151.42 64.0901 151.35 64.1201 151.22 64.1201L151.23 64.1101ZM150.26 65.8401V66.7801C150.26 66.9201 150.29 67.6701 150.29 67.8501C150.29 68.1001 149.91 68.2801 149.79 68.2801C149.7 68.2801 149.69 68.1901 149.69 68.0301V65.7301H146.84V67.9401C146.84 68.1801 146.81 68.2501 146.54 68.3901C146.44 68.4401 146.37 68.4801 146.31 68.4801C146.24 68.4801 146.22 68.4101 146.22 68.2801C146.22 68.2301 146.26 67.3401 146.26 67.1601V66.1701C146.26 65.7501 146.25 65.1401 146.22 64.6101L147 65.3701H149.51L149.89 64.6601L150.61 65.3101C150.68 65.3801 150.72 65.4401 150.72 65.4701C150.72 65.5401 150.32 65.7801 150.24 65.8301L150.26 65.8401ZM149.73 71.2001H147.23V73.0301H149.73V71.2001ZM148.36 67.9401C148.26 67.9401 148.18 67.8101 148.09 67.5401C147.98 67.1401 147.72 66.6901 147.28 66.2401L147.38 66.0801C148.15 66.4201 148.64 66.8401 148.71 67.1501C148.72 67.2001 148.72 67.2601 148.72 67.3301C148.72 67.6201 148.55 67.9501 148.35 67.9501L148.36 67.9401Z" fill="#45484B"/>
<path d="M168.88 76.79C168.04 76.81 167.69 77.02 167.47 77.48C167.44 77.52 167.41 77.55 167.38 77.55C167.35 77.55 167.32 77.55 167.29 77.51C165.81 76.28 164.54 74.8 163.77 72.16C163.53 72.32 163.25 72.5 162.95 72.7C163.16 73.57 163.23 74.55 163.23 75.56C163.23 75.92 163.22 76.32 163.2 76.7C163.11 78.83 161.58 79.4501 161.54 79.4501C161.48 79.4501 161.44 79.4 161.43 79.31C161.3 78.71 161.06 78.48 159.95 77.92L159.99 77.65C160.61 77.9 161.11 78.03 161.49 78.03C162.5 78.03 162.55 77.16 162.55 75.3C162.55 74.59 162.52 73.96 162.46 73.47C160.93 75.41 158.94 77.38 156.17 78.63L156.07 78.38C158.98 76.63 161.22 74.2 162.29 72.41C162.18 71.98 162.02 71.56 161.79 71.14C159.9 73.44 158.28 74.88 156.07 76.06L155.96 75.81C158.24 74.24 160.29 72.19 161.37 70.4C161.2 70.16 161.03 69.93 160.83 69.68C159.37 71.09 157.82 72.12 156.05 72.85L155.96 72.61C158.09 71.36 159.98 69.88 161.25 68.21H159.25C158.95 68.21 158.54 68.28 158.3 68.41L157.9 67.74C158.25 67.78 158.61 67.81 158.94 67.81H164.9L165.52 66.78L166.41 68.01C166.45 68.06 166.48 68.12 166.48 68.15C166.48 68.18 166.44 68.2 166.34 68.2H162.2C161.82 68.65 161.42 69.09 161.02 69.48C161.96 70.26 162.51 71.23 162.84 72.36C164.17 71.27 165.21 70.26 166.19 69.23L166.93 70.1C166.99 70.17 167.02 70.23 167.02 70.26C167.02 70.31 167.01 70.31 166.81 70.31C166.54 70.31 166.17 70.45 165.6 70.87C165.23 71.16 164.73 71.5 164.02 71.97C164.91 74.65 166.77 76.31 168.85 76.55V76.79H168.88ZM168.19 65.3C168.29 65.39 168.33 65.46 168.33 65.5C168.33 65.55 168.27 65.57 168.17 65.59C167.6 65.72 167.18 66.08 166.57 67.16L166.4 67.05L166.9 65.55H157.89C157.78 67.2 157.12 67.5 156.83 67.5C156.62 67.5 156.33 67.34 156.33 67.07C156.33 66.89 156.43 66.65 156.66 66.49C157.16 66.09 157.57 65.39 157.68 64.1H157.92C157.93 64.46 157.93 64.81 157.92 65.15H166.78L167.22 64.34L168.2 65.3H168.19ZM161.08 62.3C161.79 62.66 162.88 63.48 162.88 64.18C162.88 64.67 162.61 65.05 162.41 65.05C162.18 65.05 162.13 64.96 162.04 64.49C161.93 63.84 161.6 63.17 160.98 62.5L161.08 62.3Z" fill="#45484B"/>
<path d="M185.91 74.0502C186.01 74.1602 186.05 74.2302 186.05 74.2902C186.05 74.3502 185.98 74.3802 185.85 74.3802H174.13C173.83 74.3802 173.42 74.4502 173.18 74.5802L172.78 73.9102C173.13 73.9502 173.49 73.9802 173.82 73.9802H176.06V65.5002C176.06 64.7802 176.03 63.5602 176 62.9102L176.92 63.8502H182.24L182.74 63.0502L183.61 64.0502C183.68 64.1202 183.71 64.1802 183.71 64.2102C183.71 64.2602 183.68 64.3002 183.61 64.3502L183.08 64.7702V73.9802H184.49L185.03 73.0802L185.91 74.0602V74.0502ZM178.48 75.7202C178.55 75.7902 178.58 75.8502 178.58 75.9002C178.58 75.9702 178.55 75.9702 178.38 75.9702C178.17 75.9702 177.98 76.0602 177.76 76.2102C175.4 77.7802 174.61 78.2702 173.12 79.0002L173.05 78.7802C174.8 77.6802 176.73 76.2102 177.69 74.9302L178.48 75.7302V75.7202ZM182.42 66.3502V64.2502H176.73V66.3502H182.42ZM182.42 68.8502V66.7502H176.73V68.8502H182.42ZM182.42 71.4702V69.2502H176.73V71.4702H182.42ZM182.42 73.9802V71.8602H176.73V73.9802H182.42ZM180.7 75.4102C183.2 76.3002 184.46 77.2002 184.69 77.7602C184.79 77.9902 184.83 78.2102 184.83 78.3902C184.83 78.6102 184.76 78.9102 184.52 78.9102C184.39 78.9102 184.26 78.8402 184.07 78.5302C183.45 77.5202 182.14 76.3402 180.62 75.6402L180.71 75.4002L180.7 75.4102Z" fill="#45484B"/>
<path d="M124.93 92.6099C125.43 92.9299 126.15 93.1799 126.91 93.1799C128.04 93.1799 128.7 92.5799 128.7 91.6999C128.7 90.8899 128.24 90.4299 127.09 89.9799C125.69 89.4899 124.82 88.7499 124.82 87.5199C124.82 86.1799 125.94 85.1799 127.6 85.1799C128.46 85.1799 129.11 85.3899 129.48 85.5899L129.19 86.4999C128.91 86.3499 128.34 86.0899 127.56 86.0899C126.39 86.0899 125.95 86.7999 125.95 87.3899C125.95 88.1999 126.47 88.5999 127.65 89.0599C129.1 89.6399 129.82 90.3299 129.82 91.6099C129.82 92.9499 128.85 94.1199 126.83 94.1199C126 94.1199 125.09 93.8599 124.63 93.5499L124.92 92.6099H124.93Z" fill="#45484B"/>
<path d="M131.33 85.2998H132.45V93.9698H131.33V85.2998Z" fill="#45484B"/>
<path d="M134.37 85.2998H135.59L138.33 89.6898C138.95 90.7098 139.45 91.6198 139.87 92.5198L139.9 92.4898C139.8 91.3298 139.77 90.2798 139.77 88.9398V85.2998H140.81V93.9698H139.69L136.97 89.5698C136.37 88.6098 135.79 87.6198 135.37 86.6798H135.33C135.39 87.7898 135.42 88.8298 135.42 90.2698V93.9698H134.37V85.2998Z" fill="#45484B"/>
<path d="M146.709 85.1699C147.779 85.1699 148.459 85.3899 148.739 85.5399L148.469 86.4499C148.049 86.2399 147.449 86.0899 146.739 86.0899C144.729 86.0899 143.399 87.3899 143.399 89.6699C143.399 91.7899 144.609 93.1599 146.689 93.1599C147.359 93.1599 148.049 93.0199 148.489 92.7999L148.719 93.6999C148.309 93.8899 147.499 94.1099 146.449 94.1099C144.049 94.1099 142.229 92.5499 142.229 89.7099C142.229 86.8699 144.049 85.1699 146.699 85.1699H146.709Z" fill="#45484B"/>
<path d="M150.1 85.2998H154.74V86.2298H151.22V88.9798H154.54V89.9098H151.22V93.0498H154.93V93.9798H150.1V85.3098V85.2998Z" fill="#45484B"/>
<path d="M161.76 86.6599H161.73L160.29 87.4399L160.07 86.5799L161.87 85.5999H162.81V93.9599H161.74V86.6499L161.76 86.6599Z" fill="#45484B"/>
<path d="M166.5 93.17C166.74 93.2 167.02 93.17 167.4 93.13C168.04 93.05 168.66 92.78 169.13 92.32C169.68 91.82 170.07 91.09 170.22 90.09H170.18C169.71 90.66 169.06 90.99 168.22 90.99C166.73 90.99 165.79 89.86 165.79 88.43C165.79 86.85 166.92 85.46 168.61 85.46C170.3 85.46 171.34 86.85 171.34 88.98C171.34 90.82 170.73 92.11 169.92 92.9C169.28 93.53 168.41 93.92 167.52 94.02C167.11 94.08 166.75 94.1 166.49 94.08V93.15L166.5 93.17ZM170.13 89.28C170.18 89.16 170.23 89.04 170.23 88.86C170.24 87.43 169.71 86.34 168.54 86.34C167.57 86.34 166.91 87.2 166.91 88.37C166.91 89.41 167.53 90.16 168.5 90.16C169.25 90.16 169.83 89.77 170.13 89.29V89.28Z" fill="#45484B"/>
<path d="M173.9 89.61V89.57C172.99 89.13 172.58 88.41 172.58 87.69C172.58 86.38 173.69 85.46 175.15 85.46C176.75 85.46 177.55 86.48 177.55 87.52C177.55 88.23 177.21 88.99 176.19 89.48V89.52C177.22 89.92 177.85 90.68 177.85 91.68C177.85 93.15 176.63 94.11 175.03 94.11C173.31 94.11 172.27 93.07 172.27 91.85C172.27 90.81 172.89 90.06 173.9 89.61ZM175.07 93.29C176.07 93.29 176.72 92.66 176.72 91.8C176.72 90.8 176.02 90.3 174.9 89.99C173.93 90.26 173.41 90.92 173.41 91.71C173.37 92.55 174.01 93.29 175.06 93.29H175.07ZM176.47 87.64C176.47 86.97 176.09 86.28 175.07 86.28C174.16 86.28 173.65 86.9 173.65 87.62C173.64 88.46 174.27 88.91 175.23 89.16C175.94 88.92 176.48 88.4 176.48 87.64H176.47Z" fill="#45484B"/>
<path d="M180.42 89.61V89.57C179.51 89.13 179.1 88.41 179.1 87.69C179.1 86.38 180.21 85.46 181.67 85.46C183.27 85.46 184.07 86.48 184.07 87.52C184.07 88.23 183.73 88.99 182.71 89.48V89.52C183.74 89.92 184.37 90.68 184.37 91.68C184.37 93.15 183.15 94.11 181.55 94.11C179.83 94.11 178.79 93.07 178.79 91.85C178.79 90.81 179.41 90.06 180.42 89.61ZM181.59 93.29C182.59 93.29 183.24 92.66 183.24 91.8C183.24 90.8 182.54 90.3 181.42 89.99C180.45 90.26 179.93 90.92 179.93 91.71C179.89 92.55 180.53 93.29 181.58 93.29H181.59ZM182.99 87.64C182.99 86.97 182.61 86.28 181.59 86.28C180.68 86.28 180.17 86.9 180.17 87.62C180.16 88.46 180.79 88.91 181.75 89.16C182.46 88.92 183 88.4 183 87.64H182.99Z" fill="#45484B"/>
</g>
</g>
</g>
</g>
<defs>
<filter id="filter0_d_226_20965" x="0.473633" y="0" width="239" height="160" filterUnits="userSpaceOnUse" color-interpolation-filters="sRGB">
<feFlood flood-opacity="0" result="BackgroundImageFix"/>
<feColorMatrix in="SourceAlpha" type="matrix" values="0 0 0 0 0 0 0 0 0 0 0 0 0 0 0 0 0 0 127 0" result="hardAlpha"/>
<feOffset dy="1"/>
<feGaussianBlur stdDeviation="10"/>
<feComposite in2="hardAlpha" operator="out"/>
<feColorMatrix type="matrix" values="0 0 0 0 0 0 0 0 0 0 0 0 0 0 0 0 0 0 0.08 0"/>
<feBlend mode="normal" in2="BackgroundImageFix" result="effect1_dropShadow_226_20965"/>
<feBlend mode="normal" in="SourceGraphic" in2="effect1_dropShadow_226_20965" result="shape"/>
</filter>
<clipPath id="clip0_226_20965">
<rect x="20.4736" y="19" width="199" height="120" rx="7.02062" fill="white"/>
</clipPath>
<clipPath id="clip1_226_20965">
<rect width="129.33" height="33.13" fill="white" transform="translate(55 62)"/>
</clipPath>
<clipPath id="clip2_226_20965">
<rect width="133.06" height="35.73" fill="white" transform="translate(53 61)"/>
</clipPath>
</defs>
</svg>
