<svg width="240" height="160" viewBox="0 0 240 160" fill="none" xmlns="http://www.w3.org/2000/svg">
<g filter="url(#filter0_d_226_20918)">
<g clip-path="url(#clip0_226_20918)">
<rect x="20.4736" y="19" width="199" height="120" rx="7.02062" fill="white"/>
<rect x="20.4736" y="19" width="199" height="120" fill="white"/>
<g clip-path="url(#clip1_226_20918)">
<path d="M125.58 84.9702V85.0902H125.26V86.4202L125.42 86.3802L126.46 85.0902H126.08V84.9702H126.94V85.0902H126.65L125.75 86.2102L126.86 87.8202H127.09V87.9402H125.99V87.8202H126.32L125.43 86.5402L125.25 86.5802V87.8202H125.57V87.9402H124.49V87.8202H124.81V85.0902H124.49V84.9702H125.57H125.58Z" fill="#664A44"/>
<path d="M129.66 84.9702V85.0902H129.34V87.8202H129.66V87.9402H128.58V87.8202H128.9V85.0902H128.58V84.9702H129.66Z" fill="#664A44"/>
<path d="M133.71 87.9802H133.58L131.83 85.2102V87.8302H132.15V87.9502H131.36V87.8302H131.68V85.1002H131.36V84.9802H132.21L133.55 87.1302V85.1102H133.23V84.9902H134.02V85.1102H133.7V87.9902L133.71 87.9802Z" fill="#664A44"/>
<path d="M136.071 86.4602C136.071 87.3402 136.381 87.8702 136.991 87.8702C137.211 87.8702 137.441 87.7502 137.541 87.5702V86.8602H137.151V86.7402H138.271V86.8602H137.991V87.9402H137.931C137.901 87.8802 137.871 87.8302 137.781 87.8302C137.641 87.8302 137.341 87.9802 136.971 87.9802C136.141 87.9802 135.601 87.5302 135.601 86.4702C135.601 85.4102 136.231 84.9202 137.011 84.9202C137.341 84.9202 137.601 85.0502 137.731 85.0502C137.791 85.0502 137.811 85.0202 137.841 84.9602H137.901L137.931 85.8402H137.841C137.711 85.3002 137.451 85.0302 136.981 85.0302C136.411 85.0302 136.081 85.4602 136.081 86.4502L136.071 86.4602Z" fill="#664A44"/>
<path d="M142.571 86.4602C142.571 87.3402 142.881 87.8702 143.491 87.8702C143.711 87.8702 143.941 87.7502 144.041 87.5702V86.8602H143.651V86.7402H144.771V86.8602H144.491V87.9402H144.431C144.401 87.8802 144.371 87.8302 144.281 87.8302C144.141 87.8302 143.841 87.9802 143.471 87.9802C142.641 87.9802 142.101 87.5302 142.101 86.4702C142.101 85.4102 142.731 84.9202 143.511 84.9202C143.841 84.9202 144.101 85.0502 144.231 85.0502C144.291 85.0502 144.311 85.0202 144.341 84.9602H144.401L144.431 85.8402H144.341C144.211 85.3002 143.951 85.0302 143.481 85.0302C142.911 85.0302 142.581 85.4602 142.581 86.4502L142.571 86.4602Z" fill="#664A44"/>
<path d="M147.78 84.9302C148.58 84.9302 149.09 85.4902 149.09 86.4302C149.09 87.3702 148.61 87.9902 147.74 87.9902C146.87 87.9902 146.4 87.4502 146.4 86.4702C146.4 85.4902 146.96 84.9302 147.78 84.9302ZM147.77 85.0602C147.04 85.0602 146.9 85.6502 146.9 86.4702C146.9 87.2202 147.05 87.8602 147.76 87.8602C148.47 87.8602 148.6 87.2602 148.6 86.4502C148.6 85.6402 148.46 85.0602 147.77 85.0602Z" fill="#664A44"/>
<path d="M151.99 84.9702V85.0902H151.54V87.8202H151.86C152.51 87.8202 152.72 87.6402 152.82 86.9902H152.91L152.87 87.9402H150.75V87.8202H151.09V85.0902H150.75V84.9702H151.98H151.99Z" fill="#664A44"/>
<path d="M155.48 87.9502H154.55V87.8302H154.92V85.1002H154.55V84.9802H155.6C156.63 84.9802 157.25 85.3602 157.25 86.4202C157.25 87.6202 156.48 87.9602 155.48 87.9602V87.9502ZM155.54 87.8202C156.38 87.8202 156.75 87.3302 156.75 86.4302C156.75 85.3502 156.34 85.0902 155.47 85.0902H155.36V87.8202H155.55H155.54Z" fill="#664A44"/>
<path d="M124.981 91.0601L125.021 91.8801H124.921C124.841 91.2501 124.581 91.1801 124.061 91.1801H123.681V92.4801H123.921C124.261 92.4801 124.351 92.3801 124.421 91.9401H124.511V93.2001H124.411C124.331 92.7301 124.271 92.6201 123.871 92.6201H123.671V93.9101H124.221V94.0301H122.891V93.9101H123.231V91.1801H122.891V91.0601H124.981Z" fill="#664A44"/>
<path d="M129.151 93.1201V91.1901H128.831V91.0701H129.621V91.1901H129.301V93.0701C129.301 93.7001 129.041 94.0901 128.281 94.0901C127.621 94.0901 127.211 93.8401 127.211 93.1101V91.1901H126.891V91.0701H127.971V91.1901H127.651V93.1401C127.651 93.5801 127.791 93.9401 128.351 93.9401C128.831 93.9401 129.131 93.6601 129.131 93.1201H129.151Z" fill="#664A44"/>
<path d="M132.29 92.5701V93.9101H132.74V94.0301H131.49V93.9101H131.85V91.1801H131.49V91.0601H132.5C133.15 91.0601 133.68 91.1601 133.68 91.7701C133.68 92.2801 133.34 92.4501 132.83 92.4901C133.35 92.5601 133.54 92.7401 133.54 93.2301V93.6101C133.54 93.7701 133.55 93.8701 133.72 93.8701C133.88 93.8701 133.89 93.7301 133.95 93.4601L134.04 93.4801C133.99 93.7201 133.99 94.0801 133.56 94.0801C133.19 94.0801 133.08 93.9101 133.08 93.5701V93.0001C133.08 92.7201 132.98 92.5801 132.58 92.5801H132.29V92.5701ZM132.29 92.4501H132.38C132.95 92.4501 133.18 92.2601 133.18 91.7801C133.18 91.3001 132.94 91.1901 132.41 91.1901H132.3V92.4601L132.29 92.4501Z" fill="#664A44"/>
<path d="M138.21 94.0701H138.08L136.33 91.3001V93.9201H136.65V94.0401H135.86V93.9201H136.18V91.1901H135.86V91.0701H136.71L138.05 93.2201V91.2001H137.73V91.0801H138.52V91.2001H138.2V94.0801L138.21 94.0701Z" fill="#664A44"/>
<path d="M141.52 91.0601V91.1801H141.2V93.9101H141.52V94.0301H140.44V93.9101H140.76V91.1801H140.44V91.0601H141.52Z" fill="#664A44"/>
<path d="M145.841 91.9201H145.741C145.631 91.2301 145.401 91.1901 144.891 91.1901H144.841V93.9201H145.241V94.0401H143.991V93.9201H144.391V91.1901H144.331C143.821 91.1901 143.591 91.2301 143.481 91.9201H143.381L143.421 91.0701H145.801L145.841 91.9201Z" fill="#664A44"/>
<path d="M149.91 93.1201V91.1901H149.59V91.0701H150.38V91.1901H150.06V93.0701C150.06 93.7001 149.8 94.0901 149.04 94.0901C148.38 94.0901 147.97 93.8401 147.97 93.1101V91.1901H147.65V91.0701H148.73V91.1901H148.41V93.1401C148.41 93.5801 148.55 93.9401 149.11 93.9401C149.59 93.9401 149.89 93.6601 149.89 93.1201H149.91Z" fill="#664A44"/>
<path d="M153.051 92.5701V93.9101H153.501V94.0301H152.251V93.9101H152.611V91.1801H152.251V91.0601H153.261C153.911 91.0601 154.441 91.1601 154.441 91.7701C154.441 92.2801 154.101 92.4501 153.591 92.4901C154.111 92.5601 154.301 92.7401 154.301 93.2301V93.6101C154.301 93.7701 154.311 93.8701 154.481 93.8701C154.641 93.8701 154.651 93.7301 154.711 93.4601L154.801 93.4801C154.751 93.7201 154.751 94.0801 154.321 94.0801C153.951 94.0801 153.841 93.9101 153.841 93.5701V93.0001C153.841 92.7201 153.741 92.5801 153.341 92.5801H153.051V92.5701ZM153.051 92.4501H153.141C153.711 92.4501 153.941 92.2601 153.941 91.7801C153.941 91.3001 153.701 91.1901 153.171 91.1901H153.061V92.4601L153.051 92.4501Z" fill="#664A44"/>
<path d="M158.691 91.0601L158.731 91.8601H158.631C158.551 91.2301 158.301 91.1801 157.781 91.1801H157.391V92.4501H157.611C157.951 92.4501 158.041 92.3501 158.111 91.9101H158.201V93.1701H158.101C158.021 92.7001 157.961 92.5901 157.561 92.5901H157.381V93.9101H157.831C158.441 93.9101 158.651 93.7301 158.751 93.1501H158.841L158.811 94.0301H156.601V93.9101H156.941V91.1801H156.601V91.0601H158.681H158.691Z" fill="#664A44"/>
<path d="M166.97 80.3201H114.78V80.7901H166.97V80.3201Z" fill="#664A44"/>
<path d="M121.831 65.09C121.781 65.27 121.631 65.34 121.251 65.38C122.291 66.94 124.431 67.82 126.181 68.38V68.58C125.561 68.76 125.141 69.44 125.041 70.05C123.341 69.05 121.771 67.57 121.061 65.53C119.911 67.48 117.451 69.53 115.181 70.53L115.101 70.39C117.041 68.98 119.211 66.31 119.711 64.48L121.831 65.09ZM124.411 74.49C124.411 74.49 125.321 75.26 125.871 75.79C125.841 75.93 125.711 75.99 125.541 75.99H115.511L115.421 75.62H119.781V71.63H116.081L115.991 71.28H119.781V69.41H117.861L117.771 69.04H121.421L122.091 68.1C122.091 68.1 122.861 68.73 123.341 69.2C123.311 69.34 123.191 69.4 123.031 69.4H121.191V71.27H123.261L124.001 70.23C124.001 70.23 124.841 70.93 125.341 71.42C125.311 71.56 125.191 71.62 125.021 71.62H121.201V75.61H123.621L124.431 74.47L124.411 74.49ZM117.231 72.13C120.261 73.51 118.801 76.03 117.671 74.76C117.691 73.87 117.421 72.91 117.121 72.19L117.231 72.13ZM121.791 75.09C122.041 74.36 122.381 73.13 122.641 72.04L124.441 72.77C124.391 72.92 124.231 73.02 123.981 73C123.361 73.81 122.601 74.65 121.931 75.19L121.791 75.09Z" fill="#664A44"/>
<path d="M136.441 73.2301C136.381 73.2901 136.291 73.3701 136.151 73.4101V75.3601C136.141 75.4601 135.601 75.7401 135.231 75.7401H135.051V75.2501H132.961V75.4801C132.961 75.5701 132.611 75.8301 132.061 75.8301H131.881V72.7201C131.401 72.8501 130.901 72.9601 130.381 73.0401L130.351 72.9401V75.6601C130.351 75.8201 129.901 76.1701 129.351 76.1701H129.141V64.4501L130.411 65.0601H132.251L132.791 64.4301L133.921 65.3701C133.861 65.4601 133.711 65.5601 133.491 65.6101V68.1401C133.481 68.2301 132.901 68.4601 132.551 68.4601H132.351V67.9801H130.351V72.8301C131.491 72.4801 132.591 71.9401 133.501 71.3001C133.061 71.1401 132.601 70.9701 132.101 70.8301L132.161 70.6301C132.881 70.6901 133.511 70.7701 134.061 70.8701C134.411 70.5501 134.721 70.2201 134.971 69.8801H133.161C132.491 70.4201 131.641 70.9101 130.781 71.1701L130.691 71.0301C131.521 70.4601 132.311 69.4501 132.681 68.5101L134.301 69.0401C134.271 69.1701 134.171 69.2201 133.871 69.1801C133.781 69.2901 133.671 69.4001 133.561 69.5101H135.071L135.781 68.8301L136.871 69.8901C136.781 70.0001 136.661 70.0401 136.391 70.0501C136.071 70.4401 135.701 70.8001 135.271 71.1301C138.431 72.0001 137.131 73.4001 136.221 72.7401C135.791 72.4101 135.181 72.0401 134.411 71.6901C133.781 72.0601 133.041 72.3701 132.261 72.6001L133.091 72.9701H134.971L135.451 72.4401L136.441 73.2401V73.2301ZM130.341 65.4301V66.3701H132.341V65.4301H130.341ZM132.341 67.6201V66.7301H130.341V67.6201H132.341ZM135.041 74.8901V73.3201H132.951V74.8901H135.041ZM139.281 65.3901C139.201 65.4901 139.041 65.6101 138.801 65.6601V74.5201C138.801 75.4801 138.641 76.0101 137.321 76.1401C137.301 75.7101 137.251 75.3701 137.121 75.1801C136.991 74.9801 136.801 74.8301 136.371 74.7401V74.5601C136.371 74.5601 137.181 74.6201 137.361 74.6201C137.541 74.6201 137.581 74.5401 137.581 74.3701V67.9801H135.541V68.1301C135.541 68.2401 135.021 68.5201 134.541 68.5201H134.371V64.5201L135.601 65.0601H137.461L138.041 64.3301L139.281 65.3901ZM135.541 65.4301V66.3701H137.581V65.4301H135.541ZM137.581 67.6101V66.7401H135.541V67.6101H137.581Z" fill="#664A44"/>
<path d="M152.361 69.65C152.281 69.75 152.181 69.81 151.921 69.73C151.231 70.06 150.271 70.43 149.271 70.72C150.021 72.43 151.541 73.39 153.141 73.94L153.121 74.08C152.601 74.19 152.221 74.65 152.031 75.35C150.561 74.36 149.561 73.03 149.031 70.8C148.791 70.88 148.551 70.94 148.311 70.99C149.201 72.78 149.101 74.81 148.491 75.64C148.191 76.05 147.621 76.2 146.801 76.18C146.791 75.76 146.701 75.47 146.521 75.26C146.371 75.1 146.001 74.92 145.551 74.79V74.64C146.011 74.69 146.781 74.74 147.061 74.74C147.221 74.74 147.341 74.71 147.391 74.6C147.551 74.33 147.651 73.8 147.671 73.16C146.301 74.13 144.441 74.97 142.591 75.39L142.511 75.2C144.431 74.44 146.381 72.95 147.471 71.38C147.451 71.28 147.421 71.18 147.391 71.06C146.221 71.91 144.501 72.76 142.891 73.23L142.821 73.07C144.311 72.31 145.931 70.91 146.831 69.64L146.741 69.49C145.671 70.17 144.361 70.73 143.001 71.1L142.921 70.95C144.291 70.27 145.581 69.2 146.431 68.24H144.211L144.121 67.89H149.631L150.341 66.9C150.341 66.9 150.781 67.28 151.201 67.66C151.251 67.31 151.291 66.82 151.331 66.42H144.181C144.251 67.31 143.951 67.93 143.561 68.21C143.211 68.46 142.661 68.36 142.501 67.89C142.371 67.45 142.621 67.1 142.951 66.92C143.351 66.68 143.801 66.05 143.781 65.35H143.941C144.021 65.6 144.091 65.83 144.121 66.06H147.561C147.491 66.03 147.421 66 147.351 65.95C147.291 65.38 146.921 64.76 146.541 64.44L146.621 64.36C148.941 64.22 148.881 65.73 148.151 66.06H151.211L151.891 65.3L153.091 66.55C153.011 66.66 152.881 66.69 152.651 66.7C152.321 67.04 151.751 67.51 151.301 67.78C151.401 67.87 151.501 67.96 151.591 68.05C151.571 68.19 151.441 68.25 151.281 68.25H148.281C147.921 68.64 147.471 69 146.981 69.34C147.461 69.76 147.841 70.24 148.141 70.75C149.191 70.07 150.351 69.09 150.961 68.46L152.351 69.7L152.361 69.65Z" fill="#664A44"/>
<path d="M165.291 71.3601C165.291 71.3601 166.141 72.2001 166.641 72.7501C166.611 72.8901 166.491 72.9501 166.321 72.9501H155.801L155.711 72.5801H158.011V64.5101L159.521 65.1401H162.981L163.661 64.3501L164.941 65.4801C164.861 65.5801 164.711 65.7001 164.471 65.7501V72.5901H164.541L165.301 71.3601H165.291ZM155.791 75.9601C157.081 75.2101 158.401 73.9601 158.991 73.0001L160.671 73.9101C160.601 74.0601 160.401 74.1401 160.051 74.0901C159.121 74.8901 157.511 75.6701 155.861 76.1001L155.791 75.9601ZM159.371 65.5101V67.0201H163.101V65.5101H159.371ZM163.101 67.3801H159.371V68.8201H163.101V67.3801ZM159.371 69.1801V70.6701H163.101V69.1801H159.371ZM159.371 72.5801H163.101V71.0201H159.371V72.5801ZM161.851 73.3601C168.111 74.0901 165.831 77.0701 164.661 75.8301C164.181 75.1301 163.281 74.2101 161.811 73.5301L161.861 73.3701L161.851 73.3601Z" fill="#664A44"/>
<path fill-rule="evenodd" clip-rule="evenodd" d="M76.3698 73.19H76.2598C76.2598 73.19 77.7398 74.89 78.0698 75.37C78.4098 75.85 79.7098 77.66 80.0598 78.07C80.4098 78.48 80.9898 79.16 81.8798 79.65C82.7798 80.12 83.5898 80.5 84.0698 80.64C84.5498 80.79 85.3498 80.92 85.3498 80.92C85.3498 80.92 83.8398 81.96 83.4398 82.35C83.0298 82.73 82.5298 83.31 82.1998 83.9C81.8598 84.47 81.3998 85.75 81.3298 86.71C81.2598 87.68 81.2198 89.29 81.2198 89.7C81.2198 90.11 81.0498 91.87 81.0298 92.26C81.0298 92.26 82.6198 91.33 84.2998 90.72C84.2998 90.72 85.6698 90.14 86.7498 89.35C87.8298 88.56 88.6498 87.24 88.6498 87.24C88.6498 87.24 89.0398 86.63 89.2598 85.76C89.4698 84.9 89.5798 83.62 89.1898 82.56C88.7898 81.51 87.8298 79.92 86.8898 78.97C85.9398 78.02 85.2098 77.23 84.1798 76.57C83.1498 75.9 82.7598 75.81 82.7598 75.81C82.7598 75.81 83.4398 75.83 84.0998 76.1C84.7498 76.35 85.4898 76.71 86.3098 77.26C87.1298 77.81 87.9898 78.75 88.7898 79.71C89.5798 80.66 90.5798 82.42 90.5798 82.42L91.2298 70.32L91.9698 82.47C91.9698 82.47 93.4598 79.85 94.2598 78.97C95.7898 77.23 97.1398 76.56 98.0398 76.17C98.9198 75.78 99.7198 75.72 99.7198 75.72C99.7198 75.72 97.3498 77.22 96.5598 78.02C95.8498 78.64 94.9698 79.55 94.2298 80.83C93.4898 82.13 93.1798 82.96 93.1798 83.98C93.1798 85 93.1998 86.35 94.4498 87.83C95.6898 89.31 96.3998 89.78 97.7898 90.41C99.1798 91.04 100.24 91.23 101.51 92.12L101.62 92.24C101.62 92.24 101.2 90.18 101.34 88.75C101.51 87.33 101.16 85.43 100.79 84.73C100.43 84.03 99.5798 82.51 98.5198 81.79C97.4698 81.05 97.0698 80.94 97.0698 80.94C97.0698 80.94 99.4698 80.16 100.07 79.8C100.68 79.44 101.52 78.83 102.36 77.93C103.21 77.02 103.79 75.89 104.42 75.13C105.05 74.37 106.01 73.2 106.01 73.2L106.08 73.13C106.08 73.13 104.76 73.03 103.87 72.89C102.96 72.77 100.78 72.45 100.15 72.45C99.5198 72.45 97.8798 72.6 96.9898 72.97C96.0898 73.35 95.3098 73.71 94.7098 74.16C94.7098 74.16 95.2398 72.12 94.8798 70.73C94.4298 68.46 93.7198 67.59 92.8198 65.98L91.2098 63C91.2098 63 90.0198 65.19 89.8398 65.53C89.6598 65.88 88.9098 67.06 88.4698 67.9C88.0198 68.75 87.7798 69.38 87.6298 70.48C87.4398 71.27 87.6098 73.04 87.6698 73.34C87.7398 73.63 87.7998 74.22 87.7998 74.22C87.7998 74.22 86.3798 73.19 85.1498 72.85C85.1498 72.85 84.1898 72.45 82.5098 72.49C80.8298 72.53 80.5798 72.73 79.2698 72.84C79.2698 72.84 76.9098 73.11 76.3498 73.16L76.3698 73.19Z" fill="#664A44"/>
<path d="M91.19 98.38C80.61 98.38 72 89.77 72 79.19C72 68.61 80.61 60 91.19 60C101.77 60 110.38 68.61 110.38 79.19C110.38 89.77 101.77 98.38 91.19 98.38ZM91.19 60.81C81.06 60.81 72.81 69.06 72.81 79.19C72.81 89.32 81.05 97.57 91.19 97.57C101.33 97.57 109.57 89.33 109.57 79.19C109.57 69.05 101.32 60.81 91.19 60.81Z" fill="#664A44"/>
</g>
</g>
</g>
<defs>
<filter id="filter0_d_226_20918" x="0.473633" y="0" width="239" height="160" filterUnits="userSpaceOnUse" color-interpolation-filters="sRGB">
<feFlood flood-opacity="0" result="BackgroundImageFix"/>
<feColorMatrix in="SourceAlpha" type="matrix" values="0 0 0 0 0 0 0 0 0 0 0 0 0 0 0 0 0 0 127 0" result="hardAlpha"/>
<feOffset dy="1"/>
<feGaussianBlur stdDeviation="10"/>
<feComposite in2="hardAlpha" operator="out"/>
<feColorMatrix type="matrix" values="0 0 0 0 0 0 0 0 0 0 0 0 0 0 0 0 0 0 0.08 0"/>
<feBlend mode="normal" in2="BackgroundImageFix" result="effect1_dropShadow_226_20918"/>
<feBlend mode="normal" in="SourceGraphic" in2="effect1_dropShadow_226_20918" result="shape"/>
</filter>
<clipPath id="clip0_226_20918">
<rect x="20.4736" y="19" width="199" height="120" rx="7.02062" fill="white"/>
</clipPath>
<clipPath id="clip1_226_20918">
<rect width="116" height="38" fill="white" transform="translate(72 60)"/>
</clipPath>
</defs>
</svg>
