<svg width="239" height="160" viewBox="0 0 239 160" fill="none" xmlns="http://www.w3.org/2000/svg">
<g filter="url(#filter0_d_225_19199)">
<g clip-path="url(#clip0_225_19199)">
<rect x="20.4736" y="19" width="198" height="198.333" fill="white"/>
<g clip-path="url(#clip1_225_19199)">
<path d="M123.32 61.3176C124.338 64.1151 119.68 68.3427 112.933 70.7644C106.176 73.1861 99.8907 72.8834 98.873 70.0859C97.8552 67.2884 102.514 63.0608 109.261 60.6391C116.018 58.2174 122.303 58.5201 123.32 61.3176Z" fill="url(#paint0_radial_225_19199)"/>
<path d="M123.069 61.1722C123.993 63.7087 119.323 67.7066 112.661 70.097C105.987 72.4874 99.8389 72.3726 98.926 69.8361C98.0027 67.2995 102.672 63.3016 109.335 60.9112C116.008 58.5208 122.156 58.6356 123.069 61.1722Z" fill="white"/>
<path d="M110.362 62.4247C110.362 63.5729 109.27 64.502 107.927 64.502C106.584 64.502 105.493 63.5729 105.493 62.4247C105.493 61.2765 106.584 60.3475 107.927 60.3475C109.27 60.3475 110.362 61.2765 110.362 62.4247Z" fill="url(#paint1_radial_225_19199)"/>
<path d="M105.022 63.6875C105.022 63.6875 100.856 65.8274 101.559 68.8545C101.559 68.8545 101.979 70.9213 104.56 71.0048C104.56 71.0048 106.271 71.151 106.711 69.3869C106.711 69.3869 106.953 67.9881 105.305 67.6437C105.305 67.6437 104.204 67.2992 104.183 66.0466C104.183 66.0466 103.973 65.0132 105.022 63.6875Z" fill="#801C21"/>
<path d="M107.006 66.9856C107.006 66.9856 109.125 63.9167 113.731 62.2048C113.731 62.2048 116.68 61.0461 118.789 61.8603C118.789 61.8603 120.268 62.4553 119.67 64.543C119.67 64.543 119.565 64.971 118.044 66.1401C118.044 66.1401 116.753 66.9647 117.603 67.7893C117.603 67.7893 115.924 68.0086 116.113 66.4845C116.113 66.4845 116.176 66.1401 116.292 65.9731C116.292 65.9731 116.627 65.4094 116.029 65.1797C116.029 65.1797 115.064 65.0127 114.791 65.8896C114.791 65.8896 114.298 67.0482 115.536 67.852C115.536 67.852 116.302 68.2695 116.816 68.28C116.816 68.28 112.011 70.806 109.608 71.0044C109.608 71.0044 106.911 70.2006 106.838 68.4783C106.838 68.4783 106.586 67.7893 107.016 66.9752L107.006 66.9856Z" fill="#801C21"/>
<path d="M110.792 71.3901C110.792 71.3901 115.167 72.6636 119.511 70.1897C119.511 70.1897 120.991 69.7722 122.092 70.4403C122.092 70.4403 126.814 72.9663 130.256 71.3797C130.256 71.3797 134.484 69.8139 136.194 66.8912C136.194 66.8912 132.186 69.5739 128.671 69.5321C128.671 69.5321 125.387 69.8139 124.579 68.1125C124.579 68.1125 123.834 66.411 126.783 65.6595C126.783 65.6595 128.703 65.315 129.5 65.7952C129.5 65.7952 128.724 64.6365 125.775 64.9914C125.775 64.9914 124.348 65.221 122.512 66.3901C122.512 66.3901 118.787 68.6448 118.273 68.1542C118.273 68.1542 114.517 70.4611 110.802 71.4006L110.792 71.3901Z" fill="url(#paint2_radial_225_19199)"/>
<path d="M59.999 85.8158V75.5235H65.8014C66.8191 75.5235 67.6061 75.5548 68.1412 75.6174C68.8967 75.701 69.5262 75.8575 70.0403 76.0976C70.5545 76.3377 70.9637 76.6613 71.268 77.0893C71.5827 77.5172 71.7296 77.987 71.7296 78.488C71.7296 79.3648 71.3099 80.106 70.481 80.7114C69.6521 81.3168 68.1412 81.6195 65.9693 81.6195H62.0241V85.8053H59.999V85.8158ZM62.0241 80.4296H66.0007C67.3123 80.4296 68.2461 80.2625 68.8022 79.9389C69.3583 79.6049 69.6311 79.1456 69.6311 78.5506C69.6311 78.1227 69.4738 77.7469 69.1485 77.4442C68.8232 77.1415 68.393 76.9327 67.8684 76.8387C67.5221 76.7761 66.8926 76.7448 65.9693 76.7448H62.0241V80.44V80.4296Z" fill="#231815"/>
<path d="M73.3877 82.0901C73.3877 80.7123 73.9648 79.6893 75.1085 79.0317C76.0633 78.4784 77.228 78.207 78.6025 78.207C80.1344 78.207 81.383 78.5411 82.3483 79.2091C83.3136 79.8772 83.8067 80.8062 83.8067 81.9857C83.8067 82.9461 83.5969 83.6976 83.1667 84.2509C82.7365 84.8041 82.107 85.2216 81.2885 85.5348C80.4701 85.8375 79.5678 85.9941 78.6025 85.9941C77.0496 85.9941 75.7905 85.6601 74.8252 84.992C73.8599 84.3239 73.3877 83.3636 73.3877 82.1006V82.0901ZM75.3288 82.0797C75.3288 83.0296 75.6436 83.7394 76.2626 84.2196C76.8817 84.6893 77.6581 84.9294 78.6025 84.9294C79.5468 84.9294 80.3127 84.6893 80.9318 84.2196C81.5509 83.7394 81.8656 83.0191 81.8656 82.0484C81.8656 81.1298 81.5509 80.4304 80.9318 79.9607C80.3127 79.491 79.5363 79.2509 78.6025 79.2509C77.6686 79.2509 76.8817 79.491 76.2626 79.9607C75.6436 80.4304 75.3288 81.1402 75.3288 82.0901V82.0797Z" fill="#231815"/>
<path d="M88.0444 85.8144L84.6553 78.351H86.6279L88.3906 82.662L89.0411 84.2591C89.0726 84.1756 89.2615 83.6745 89.6287 82.7246L91.4229 78.3405H93.3431L95.0219 82.6725L95.5675 84.0921L96.197 82.6516L98.1172 78.3301H99.9533L96.4593 85.7935H94.5182L92.7555 81.3259L92.3043 80.0524L90.0169 85.7935H88.0548L88.0444 85.8144Z" fill="#231815"/>
<path d="M109.146 83.3943L111.087 83.5717C110.783 84.3337 110.216 84.9287 109.377 85.3462C108.548 85.7638 107.488 85.983 106.197 85.983C104.571 85.983 103.28 85.6489 102.336 84.9809C101.381 84.3128 100.909 83.3734 100.909 82.1625C100.909 80.9517 101.392 79.9391 102.357 79.2502C103.322 78.5613 104.571 78.2168 106.103 78.2168C107.635 78.2168 108.8 78.5508 109.744 79.2293C110.688 79.9078 111.16 80.8577 111.16 82.0894C111.16 82.1625 111.16 82.2773 111.15 82.4235H102.861C102.934 83.2377 103.28 83.864 103.9 84.3024C104.519 84.7408 105.295 84.9496 106.218 84.9496C106.911 84.9496 107.498 84.8243 107.992 84.5842C108.485 84.3441 108.862 83.9475 109.156 83.4151L109.146 83.3943ZM102.945 81.3588H109.156C109.072 80.7429 108.831 80.2732 108.443 79.9705C107.845 79.4903 107.068 79.2502 106.103 79.2502C105.232 79.2502 104.508 79.4381 103.921 79.8243C103.333 80.2105 103.008 80.722 102.945 81.3588Z" fill="#231815"/>
<path d="M113.437 85.8173V78.3538H115.126V79.4916C115.556 78.9593 115.965 78.6148 116.332 78.4478C116.7 78.2808 117.109 78.1973 117.55 78.1973C118.19 78.1973 118.84 78.333 119.501 78.5939L118.851 79.763C118.389 79.5856 117.927 79.4916 117.466 79.4916C117.056 79.4916 116.679 79.5751 116.353 79.7422C116.028 79.9092 115.787 80.1388 115.65 80.4311C115.441 80.8799 115.336 81.3705 115.336 81.9029V85.8069H113.447L113.437 85.8173Z" fill="#231815"/>
<path d="M126.133 82.5176L128.064 82.4027C128.158 82.9247 128.368 83.3422 128.693 83.6762C129.029 84.0103 129.543 84.2817 130.236 84.48C130.928 84.6888 131.715 84.7827 132.586 84.7827C133.363 84.7827 134.045 84.7096 134.632 84.5531C135.22 84.3965 135.671 84.1877 135.954 83.9163C136.248 83.6449 136.384 83.3526 136.384 83.029C136.384 82.7055 136.248 82.4236 135.975 82.1835C135.702 81.9435 135.241 81.7451 134.601 81.5781C134.192 81.4737 133.279 81.3067 131.862 81.0771C130.446 80.8474 129.459 80.6387 128.893 80.4299C128.158 80.1689 127.613 79.8558 127.245 79.4696C126.889 79.0833 126.7 78.6554 126.7 78.1856C126.7 77.6637 126.92 77.1835 127.361 76.7242C127.802 76.2754 128.442 75.9309 129.292 75.6908C130.141 75.4612 131.075 75.3359 132.114 75.3359C133.258 75.3359 134.254 75.4612 135.136 75.7013C136.007 75.9414 136.678 76.3067 137.14 76.7764C137.612 77.2566 137.864 77.789 137.895 78.3944L135.954 78.4883C135.849 77.8412 135.493 77.361 134.884 77.027C134.275 76.6929 133.384 76.5364 132.198 76.5364C131.012 76.5364 130.068 76.6825 129.501 76.9852C128.935 77.2879 128.651 77.6533 128.651 78.0812C128.651 78.4466 128.851 78.7597 129.25 78.9998C129.638 79.2399 130.666 79.48 132.324 79.7305C133.982 79.981 135.115 80.2002 135.723 80.3881C136.615 80.6595 137.276 81.0144 137.696 81.432C138.126 81.8599 138.336 82.3401 138.336 82.8933C138.336 83.4466 138.105 83.9581 137.633 84.4382C137.161 84.9184 136.489 85.2942 135.619 85.5656C134.737 85.837 133.751 85.9727 132.66 85.9727C131.275 85.9727 130.099 85.837 129.166 85.5656C128.221 85.2942 127.487 84.8871 126.952 84.3443C126.417 83.8015 126.133 83.1856 126.112 82.4967L126.133 82.5176Z" fill="#231815"/>
<path d="M140.854 85.8157V75.5234H142.743V85.8157H140.854Z" fill="#231815"/>
<path d="M153.277 83.3943L155.218 83.5717C154.913 84.3337 154.347 84.9287 153.507 85.3462C152.679 85.7638 151.619 85.983 150.328 85.983C148.702 85.983 147.411 85.6489 146.467 84.9809C145.512 84.3128 145.04 83.3734 145.04 82.1625C145.04 80.9517 145.523 79.9391 146.488 79.2502C147.453 78.5613 148.702 78.2168 150.234 78.2168C151.766 78.2168 152.93 78.5508 153.875 79.2293C154.819 79.9078 155.291 80.8577 155.291 82.0894C155.291 82.1625 155.291 82.2773 155.291 82.4235H147.002C147.076 83.2377 147.422 83.864 148.041 84.3024C148.66 84.7408 149.436 84.9496 150.36 84.9496C151.052 84.9496 151.64 84.8243 152.133 84.5842C152.626 84.3441 153.004 83.9475 153.298 83.4151L153.277 83.3943ZM147.086 81.3588H153.298C153.214 80.7429 152.972 80.2732 152.584 79.9705C151.986 79.4903 151.21 79.2502 150.244 79.2502C149.373 79.2502 148.649 79.4381 148.062 79.8243C147.474 80.2105 147.149 80.722 147.086 81.3588Z" fill="#231815"/>
<path d="M165.216 83.3943L167.157 83.5717C166.853 84.3337 166.286 84.9287 165.447 85.3462C164.618 85.7638 163.558 85.983 162.268 85.983C160.641 85.983 159.351 85.6489 158.406 84.9809C157.452 84.3128 156.979 83.3734 156.979 82.1625C156.979 80.9517 157.462 79.9391 158.427 79.2502C159.393 78.5613 160.641 78.2168 162.173 78.2168C163.705 78.2168 164.87 78.5508 165.814 79.2293C166.759 79.9078 167.231 80.8577 167.231 82.0894C167.231 82.1625 167.231 82.2773 167.22 82.4235H158.931C159.005 83.2377 159.351 83.864 159.97 84.3024C160.589 84.7408 161.365 84.9496 162.289 84.9496C162.981 84.9496 163.569 84.8243 164.062 84.5842C164.555 84.3441 164.933 83.9475 165.227 83.4151L165.216 83.3943ZM159.026 81.3588H165.237C165.153 80.7429 164.912 80.2732 164.524 79.9705C163.926 79.4903 163.149 79.2502 162.184 79.2502C161.313 79.2502 160.589 79.4381 160.001 79.8243C159.414 80.2105 159.088 80.722 159.026 81.3588Z" fill="#231815"/>
<path d="M169.53 88.667V78.3538H171.262V79.3351C171.671 78.9593 172.122 78.6774 172.636 78.4791C173.15 78.2912 173.759 78.1973 174.493 78.1973C175.448 78.1973 176.277 78.3643 177.011 78.6879C177.735 79.0115 178.281 79.4812 178.659 80.0762C179.026 80.6712 179.215 81.3288 179.215 82.0386C179.215 82.8006 179.015 83.4895 178.606 84.095C178.197 84.7004 177.599 85.1701 176.823 85.4937C176.046 85.8173 175.228 85.9843 174.367 85.9843C173.738 85.9843 173.171 85.8904 172.678 85.7129C172.174 85.5355 171.765 85.3058 171.45 85.0344V88.667H169.562H169.53ZM171.241 82.1221C171.241 83.0824 171.534 83.7818 172.111 84.2411C172.689 84.7004 173.392 84.93 174.21 84.93C175.028 84.93 175.763 84.69 176.361 84.2202C176.959 83.7505 177.253 83.0094 177.253 82.0177C177.253 81.0261 176.959 80.358 176.382 79.8883C175.794 79.4186 175.102 79.1785 174.294 79.1785C173.486 79.1785 172.783 79.429 172.164 79.93C171.545 80.4311 171.241 81.1618 171.241 82.1221Z" fill="#231815"/>
<path d="M95.1909 91.3084C95.2748 91.3398 95.3168 91.3815 95.3168 91.4337C95.3168 91.4755 95.2223 91.5172 95.0335 91.5798C94.9705 91.8304 94.9076 92.06 94.8446 92.2688H97.0061V92.989H95.8309C95.8309 93.584 95.7994 94.1059 95.7784 94.5339H97.3523V95.2542H95.9568C96.0827 95.703 96.2296 96.0892 96.387 96.4128C96.6074 96.8512 96.9116 97.2479 97.2789 97.5924L96.5129 98.1874C96.2611 97.8742 96.0303 97.5297 95.8624 97.1226C95.747 96.893 95.642 96.6216 95.5476 96.3084C95.4427 96.7991 95.2958 97.2479 95.0964 97.6341C94.8446 98.1352 94.5089 98.5736 94.0682 98.9807L93.3442 98.2604C93.7639 97.9995 94.0996 97.655 94.32 97.2375C94.5298 96.8826 94.6872 96.4441 94.8026 95.9013C94.8341 95.7135 94.8761 95.5047 94.9076 95.2646H93.3127V94.5444H94.981C95.0125 94.0955 95.0335 93.5736 95.044 92.9995H94.5823C94.5823 92.9995 94.5613 93.0308 94.5613 93.0412C94.3829 93.4274 94.1836 93.7823 93.9632 94.0955L93.2393 93.6466C93.5226 93.2813 93.7534 92.916 93.9318 92.5402C94.1101 92.1748 94.2675 91.6842 94.4144 91.0684L95.1909 91.3189V91.3084ZM100.909 92.1122V98.3753H100.122V97.5193H98.454V98.6153H97.6566V92.1122H100.909ZM100.122 96.8304V92.8325H98.454V96.8304H100.122Z" fill="#231815"/>
<path d="M106.512 92.4555V93.1548H103.847V92.4555H106.512ZM106.407 96.0045V98.8229H105.683V98.4784H104.686V98.9586H103.962V96.0045H106.417H106.407ZM106.344 93.6663V94.3135H103.994V93.6663H106.344ZM106.344 94.8354V95.4826H103.994V94.8354H106.344ZM106.312 91.3281V91.9753H104.025V91.3281H106.312ZM105.683 97.8312V96.6934H104.686V97.8312H105.683ZM107.897 93.6663L107.372 93.9795H108.012L108.726 92.6016L109.292 92.9043C109.376 92.9461 109.418 92.9878 109.418 93.0191C109.418 93.0922 109.376 93.1444 109.282 93.1861L108.789 93.9795H109.576C109.544 93.1757 109.534 92.1945 109.523 91.0254L110.31 91.1611C110.394 91.182 110.446 91.2133 110.446 91.2655C110.446 91.3281 110.384 91.4116 110.279 91.5369C110.279 92.5076 110.279 93.3218 110.31 93.9795H111.81V94.6684H110.331C110.352 95.2008 110.373 95.5974 110.415 95.8271C110.446 96.0985 110.488 96.349 110.541 96.5786C110.719 96.1611 110.898 95.6496 111.055 95.0442L111.758 95.3573C111.81 95.3886 111.842 95.4408 111.842 95.493C111.842 95.5452 111.769 95.587 111.632 95.6392C111.37 96.4534 111.118 97.0484 110.908 97.445C110.877 97.4972 110.845 97.5494 110.824 97.5912C110.919 97.873 111.013 98.0087 111.087 98.0087C111.16 98.0087 111.286 97.7373 111.464 97.1945L112.052 97.6747C111.706 98.5724 111.412 99.0212 111.181 99.0212C111.024 99.0212 110.866 98.9377 110.698 98.7707C110.562 98.6454 110.436 98.468 110.331 98.2488C110.3 98.2801 110.289 98.301 110.268 98.3218C110.058 98.5515 109.817 98.7707 109.534 98.9899L108.978 98.4367C109.051 98.3845 109.114 98.3427 109.177 98.301H107.467V98.6454H106.743V95.1694H109.397V98.1235C109.534 98.0191 109.649 97.9043 109.764 97.779C109.848 97.6955 109.943 97.6016 110.027 97.4868C109.89 97.0484 109.775 96.5369 109.712 95.9523C109.681 95.66 109.639 95.2425 109.628 94.6788H106.543V93.9899H107.32C107.152 93.635 106.973 93.2801 106.785 92.9252L107.414 92.612C107.613 92.9774 107.781 93.3323 107.928 93.6767L107.897 93.6663ZM108.358 91.1089C108.495 91.1298 108.558 91.1611 108.558 91.2237C108.558 91.255 108.505 91.3177 108.421 91.3907V91.8083H109.418V92.4555H106.659V91.8083H107.655V91.0463L108.358 91.1089ZM108.663 96.422V95.7957H107.456V96.422H108.663ZM108.663 97.6225V97.0066H107.456V97.6225H108.663ZM111.81 93.0087L111.181 93.5515C110.898 92.9043 110.625 92.3719 110.363 91.9753L110.908 91.4534C111.223 91.8813 111.517 92.4033 111.81 92.9983V93.0087Z" fill="#231815"/>
<path d="M116.994 91.36V98.6252H116.27V98.1032H115.336V98.6252H114.612V91.36H116.994ZM116.27 93.3955V92.0594H115.336V93.3955H116.27ZM116.27 95.4206V94.0427H115.336V95.4206H116.27ZM116.27 97.4561V96.0782H115.336V97.4561H116.27ZM121.716 91.7358C121.202 91.8402 120.698 91.9237 120.184 91.9863V92.7379H122.293V93.4268H121.6V94.5646H122.503V95.2536H121.6V96.4227H122.219V97.1116H120.184V97.9362H122.429V98.6252H117.246V97.9362H119.428V97.1116H117.424V96.4227H118.054V95.2536H117.151V94.5646H118.054V93.4268H117.361V92.7379H119.428V92.0907C118.893 92.1638 118.348 92.216 117.802 92.2473L117.319 91.6001C118.222 91.5688 118.998 91.5166 119.649 91.4227C120.236 91.36 120.95 91.2348 121.81 91.0469L122.345 91.5375C122.345 91.5375 122.398 91.621 122.398 91.6732C122.398 91.7149 122.366 91.7358 122.293 91.7358L122.093 91.7045C121.989 91.7045 121.863 91.7254 121.726 91.7358H121.716ZM118.767 94.5646H119.418V93.4268H118.767V94.5646ZM118.767 96.4227H119.418V95.2536H118.767V96.4227ZM120.876 93.4268H120.184V94.5646H120.876V93.4268ZM120.876 95.2536H120.184V96.4227H120.876V95.2536Z" fill="#231815"/>
<path d="M127.834 91.4656V98.4176H127.11V97.7704H126.039V98.7308H125.315V91.4761H127.834V91.4656ZM127.099 93.3237V92.1546H126.029V93.3237H127.099ZM127.099 95.1817V93.9709H126.029V95.1817H127.099ZM127.099 97.0711V95.8289H126.029V97.0711H127.099ZM132.597 91.3926V93.8039H131.212C131.212 94.2631 131.212 94.6702 131.233 95.0147H132.702V95.7036H131.265C131.265 95.9228 131.296 96.1107 131.307 96.2464C131.38 96.7788 131.516 97.2277 131.747 97.5721C131.905 97.854 132.041 98.0001 132.136 98.0001C132.209 98.0001 132.303 97.7078 132.45 97.1128L133.08 97.5617C132.985 97.9479 132.87 98.2611 132.734 98.5325C132.587 98.8247 132.419 98.9709 132.209 98.9709C131.905 98.9709 131.611 98.783 131.317 98.4385C130.971 98.021 130.74 97.4677 130.614 96.7788C130.562 96.4865 130.53 96.1316 130.509 95.7036H129.198V97.8644C129.638 97.7391 130.079 97.6034 130.52 97.426V98.0418C130.069 98.2402 129.355 98.522 128.4 98.8665C128.348 98.95 128.285 99.0126 128.232 99.0126C128.169 99.0126 128.138 98.9709 128.138 98.8769L127.96 98.1462C128.117 98.1149 128.274 98.0836 128.442 98.0523V91.403H132.597V91.3926ZM131.842 93.1149V92.0711H129.208V93.1149H131.842ZM130.457 93.8039H129.208V95.0147H130.478C130.457 94.6494 130.446 94.2527 130.446 93.8039H130.457Z" fill="#231815"/>
<path d="M138.115 91.2245C138.199 91.2558 138.241 91.308 138.241 91.3602C138.241 91.4019 138.167 91.4437 138.041 91.4645C138.02 91.4854 138.01 91.4959 138.01 91.5167C138.356 91.9238 138.765 92.2683 139.227 92.5293V91.9447H141.063V91.047L141.787 91.1096C141.923 91.1305 141.986 91.1618 141.986 91.2245C141.986 91.2662 141.944 91.3393 141.85 91.4228V91.9447H143.812V93.6984H143.088V92.6023H139.94V93.667H139.216V92.9259L138.944 93.2182C138.818 93.1347 138.702 93.0407 138.597 92.9468V93.3956H136.793V93.1347C136.635 93.2913 136.446 93.4583 136.247 93.6357L135.628 93.1242C136.016 92.8737 136.362 92.571 136.677 92.2161C136.96 91.903 137.244 91.4854 137.527 90.9844L138.125 91.2349L138.115 91.2245ZM139.069 93.8758V96.5898H136.96V97.9155C137.349 97.832 137.726 97.7172 138.094 97.6023C137.978 97.4771 137.884 97.3622 137.789 97.2787L138.304 96.7986C138.671 97.1535 139.027 97.571 139.374 98.0616L138.828 98.5835C138.702 98.3956 138.597 98.2286 138.492 98.0929C137.999 98.2913 137.244 98.5418 136.236 98.8549C136.174 98.9384 136.111 99.0011 136.058 99.0011C136.006 99.0011 135.974 98.9593 135.974 98.8654L135.785 98.1347C135.932 98.1138 136.09 98.0929 136.236 98.0512V93.8654H139.069V93.8758ZM138.345 94.9405V94.4604H136.96V94.9405H138.345ZM138.345 96.0053V95.4833H136.96V96.0053H138.345ZM138.44 92.8111C138.157 92.5606 137.905 92.2787 137.695 91.9969C137.538 92.2265 137.38 92.4249 137.244 92.6232C137.191 92.6963 137.139 92.7589 137.086 92.8215H138.44V92.8111ZM143.015 93.427V95.5564H140.727V96.2453H143.455V98.7192H142.731V98.4478H140.727V98.8967H140.003V93.427H143.015ZM142.28 94.9405V94.0428H140.727V94.9405H142.28ZM142.731 97.7902V96.8925H140.727V97.7902H142.731Z" fill="#231815"/>
</g>
</g>
</g>
<defs>
<filter id="filter0_d_225_19199" x="0.473633" y="0" width="238" height="160" filterUnits="userSpaceOnUse" color-interpolation-filters="sRGB">
<feFlood flood-opacity="0" result="BackgroundImageFix"/>
<feColorMatrix in="SourceAlpha" type="matrix" values="0 0 0 0 0 0 0 0 0 0 0 0 0 0 0 0 0 0 127 0" result="hardAlpha"/>
<feOffset dy="1"/>
<feGaussianBlur stdDeviation="10"/>
<feComposite in2="hardAlpha" operator="out"/>
<feColorMatrix type="matrix" values="0 0 0 0 0 0 0 0 0 0 0 0 0 0 0 0 0 0 0.08 0"/>
<feBlend mode="normal" in2="BackgroundImageFix" result="effect1_dropShadow_225_19199"/>
<feBlend mode="normal" in="SourceGraphic" in2="effect1_dropShadow_225_19199" result="shape"/>
</filter>
<radialGradient id="paint0_radial_225_19199" cx="0" cy="0" r="1" gradientUnits="userSpaceOnUse" gradientTransform="translate(151.866 63.0642) rotate(1.60171) scale(20.0714 21.3521)">
<stop stop-color="#801C21"/>
<stop offset="0.57" stop-color="white"/>
<stop offset="1" stop-color="#801C21"/>
</radialGradient>
<radialGradient id="paint1_radial_225_19199" cx="0" cy="0" r="1" gradientUnits="userSpaceOnUse" gradientTransform="translate(106.584 61.4331) scale(4.82655 4.80167)">
<stop stop-color="white"/>
<stop offset="0.59" stop-color="#801C21"/>
</radialGradient>
<radialGradient id="paint2_radial_225_19199" cx="0" cy="0" r="1" gradientUnits="userSpaceOnUse" gradientTransform="translate(133.592 70.0958) scale(22.1707 22.0564)">
<stop stop-color="white"/>
<stop offset="0.59" stop-color="#801C21"/>
</radialGradient>
<clipPath id="clip0_225_19199">
<rect x="20.4736" y="19" width="198" height="120" rx="7.02062" fill="white"/>
</clipPath>
<clipPath id="clip1_225_19199">
<rect width="150" height="40" fill="white" transform="translate(44.999 59)"/>
</clipPath>
</defs>
</svg>
