<svg width="240" height="160" viewBox="0 0 240 160" fill="none" xmlns="http://www.w3.org/2000/svg">
<g filter="url(#filter0_d_226_19999)">
<g clip-path="url(#clip0_226_19999)">
<rect x="20.4736" y="19" width="199" height="120" rx="7.02062" fill="white"/>
<rect x="20" y="19" width="199" height="120" fill="white"/>
<g clip-path="url(#clip1_226_19999)">
<path d="M97.7604 71.96C97.7604 72.57 97.6104 73.16 97.3104 73.72C97.0104 74.29 96.6004 74.78 96.0704 75.21C95.5404 75.64 94.9104 75.99 94.1904 76.25C93.4604 76.51 92.6704 76.6399 91.8104 76.6399C91.5304 76.6399 91.1904 76.6099 90.8004 76.5599C90.4104 76.51 89.9904 76.42 89.5604 76.29C89.1304 76.16 88.7004 75.9799 88.2704 75.76C87.8404 75.53 87.4404 75.23 87.0804 74.87C86.7204 74.5 86.4104 74.07 86.1704 73.55C85.9204 73.04 85.7604 72.43 85.6904 71.74L87.5204 71.63C87.5804 72.34 87.7804 72.91 88.1204 73.34C88.4604 73.76 88.8604 74.09 89.3004 74.31C89.7404 74.53 90.2004 74.68 90.6604 74.75C91.1204 74.82 91.5104 74.85 91.8404 74.85C92.4204 74.85 92.9604 74.77 93.4504 74.62C93.9504 74.47 94.3804 74.25 94.7504 74C95.1204 73.74 95.4204 73.44 95.6304 73.09C95.8504 72.74 95.9504 72.37 95.9504 71.99C95.9504 71.68 95.8704 71.37 95.7204 71.06C95.5604 70.75 95.3104 70.45 94.9604 70.16C94.6104 69.87 94.1504 69.6 93.5704 69.34C92.9904 69.08 92.2804 68.84 91.4304 68.61C90.9104 68.48 90.3604 68.3 89.7804 68.06C89.2004 67.83 88.6704 67.55 88.1904 67.21C87.7104 66.87 87.3104 66.46 86.9904 65.98C86.6704 65.5 86.5104 64.94 86.5104 64.28C86.5104 63.45 86.7004 62.75 87.0904 62.17C87.4804 61.59 87.9504 61.11 88.5004 60.74C89.0604 60.37 89.6404 60.1 90.2604 59.94C90.8804 59.78 91.4104 59.7 91.8804 59.7C92.6804 59.7 93.4104 59.83 94.0704 60.09C94.7304 60.35 95.3104 60.7 95.8004 61.15C96.2904 61.6 96.6804 62.12 96.9604 62.7C97.2404 63.28 97.4004 63.91 97.4304 64.58L95.6304 64.69C95.6004 64.24 95.4804 63.83 95.2704 63.44C95.0604 63.06 94.7904 62.72 94.4504 62.44C94.1004 62.16 93.7204 61.93 93.2804 61.76C92.8404 61.59 92.3904 61.5 91.9104 61.5C91.5804 61.5 91.2104 61.55 90.7904 61.66C90.3704 61.76 89.9804 61.92 89.6204 62.15C89.2504 62.37 88.9504 62.66 88.6904 63C88.4404 63.35 88.3104 63.76 88.3104 64.25C88.3104 64.64 88.4204 64.97 88.6504 65.27C88.8804 65.56 89.1704 65.81 89.5304 66.01C89.8904 66.22 90.2804 66.39 90.7004 66.54C91.1304 66.69 91.5304 66.81 91.9204 66.9C93.0004 67.18 93.9204 67.51 94.6604 67.89C95.4004 68.27 96.0004 68.68 96.4704 69.11C96.9304 69.55 97.2604 70.01 97.4604 70.5C97.6604 70.99 97.7604 71.49 97.7604 71.99" fill="#3E3A39"/>
<path d="M101.86 68.18C101.86 69.06 102.02 69.89 102.35 70.7C102.67 71.5 103.13 72.21 103.72 72.82C104.31 73.43 105.01 73.91 105.82 74.27C106.63 74.63 107.51 74.8 108.46 74.8C109.31 74.8 110.15 74.62 110.98 74.24C111.81 73.87 112.59 73.34 113.3 72.66L114.55 73.91C113.7 74.75 112.76 75.41 111.72 75.87C110.68 76.33 109.61 76.5599 108.49 76.5599C107.24 76.5599 106.11 76.33 105.08 75.87C104.05 75.41 103.17 74.79 102.43 74.02C101.69 73.25 101.11 72.36 100.71 71.35C100.3 70.34 100.1 69.29 100.1 68.19C100.1 66.94 100.33 65.8 100.78 64.75C101.23 63.7 101.84 62.81 102.6 62.06C103.37 61.32 104.25 60.74 105.24 60.32C106.23 59.91 107.27 59.7 108.36 59.7C109.58 59.7 110.72 59.95 111.78 60.44C112.84 60.93 113.77 61.6 114.58 62.45L113.35 63.7C112.68 63.03 111.93 62.5 111.09 62.1C110.25 61.7 109.34 61.5 108.36 61.5C107.49 61.5 106.66 61.67 105.88 62C105.1 62.33 104.41 62.8 103.82 63.4C103.23 64 102.76 64.71 102.4 65.53C102.05 66.35 101.88 67.24 101.88 68.2" fill="#3E3A39"/>
<path d="M117.41 75.49L125.12 59L133.29 76.42L131.26 76.44L129.84 73.66C128.19 73.66 126.59 73.66 125.03 73.67C123.47 73.67 121.87 73.68 120.22 73.68L118.97 76.44H117.05L117.41 75.49ZM128.89 71.7L125.1 63.28C124.44 64.73 123.8 66.14 123.17 67.49C122.54 68.85 121.88 70.26 121.2 71.75L128.89 71.71V71.7Z" fill="#3E3A39"/>
<path d="M147.8 71.94V59.94H149.6V76.82L138.33 63.92V76.18H136.53V59.29L147.8 71.94Z" fill="#3E3A39"/>
<path d="M93.9795 87.3901C93.3295 87.9601 91.7495 89.1601 89.9195 89.1601C88.5895 89.1601 87.8395 87.9601 87.8195 86.7601C87.4495 87.2201 87.2295 87.5201 87.1895 87.5701C87.1895 87.5701 86.3995 88.8401 86.2095 89.1001C86.1195 89.2801 85.3095 89.1401 85.0495 89.1301C84.7895 89.1001 85.6795 88.2301 85.6795 88.2301C87.1895 86.3501 92.3195 79.4301 92.3195 79.4301C92.4895 79.1701 93.5595 79.0801 93.5395 79.4301C93.5395 79.5601 88.9195 85.4801 88.9095 85.7901C88.9195 85.3001 92.6495 83.6001 92.7495 84.6101C92.8095 85.1801 92.5095 85.5501 91.8295 85.9801C90.8395 86.6401 88.8595 86.5901 88.8595 86.5901C88.7295 87.1601 88.8395 88.4401 90.0195 88.6601C91.5895 88.9401 93.5995 87.3501 94.1195 86.8901C94.6495 86.4301 94.5995 86.8501 93.9695 87.3901M88.9095 85.7801C88.8195 85.8901 90.2395 86.0401 91.0295 85.6901C91.8095 85.3401 92.1195 84.9301 91.8095 84.6901C91.5295 84.4701 89.4295 84.9101 88.9095 85.7801Z" fill="#3E3A39"/>
<path d="M103.86 87.42C103.53 87.53 102.53 87.79 101.61 87.79C100.69 87.79 99.36 87 99.36 87C99.36 87 99.01 89.16 96.19 89.16C94.33 89.14 94.16 86.8 95.38 85.67C96.6 84.51 97.67 84.64 97.67 84.64C97.76 84.31 98.32 84.01 98.96 84.64C99.59 85.27 99.59 86.49 99.59 86.49C99.59 86.49 99.5 86.71 100.53 87.08C101.56 87.45 102.39 87.47 103.65 87.06C104.9 86.64 104.18 87.3 103.85 87.41M99.03 86.72C98.42 86.26 97.83 85.11 97.83 85.11C97.83 85.11 97.31 85.26 96.76 85.57C95.95 86 94.6 88.08 96.54 88.52C98.07 88.87 99.09 86.77 99.03 86.73" fill="#3E3A39"/>
<path d="M118.27 87.0701C118.18 87.1301 116.67 87.9401 115.54 88.3601C114.41 88.7501 113.29 89.2101 113.05 88.3401C112.98 88.1001 113.05 87.0901 113.12 86.2601C113.14 85.7601 112.55 84.9301 111.35 85.9101C110.61 86.5501 109.58 87.7701 109.36 88.0301C108.73 88.8401 108.57 89.1401 108.29 88.7301C108.07 88.4701 109.16 86.5901 108.79 85.6501C108.62 85.4501 108.07 85.3601 107.35 85.8901C106.17 86.7701 105.12 88.0301 104.6 88.5101C104.05 88.9401 103.79 89.2301 103.48 89.2101C103.16 89.1901 102.81 88.8401 103.35 88.0801C103.92 87.3601 104.97 85.1501 105.1 84.9401C105.17 84.8101 106.26 84.4101 106.06 84.9401C105.88 85.4601 105.03 87.1701 105.17 87.1701C105.28 87.1701 108.49 84.1801 109.05 84.1801C109.73 84.1801 109.92 85.0301 109.88 85.5801C109.86 85.9201 109.75 86.3601 109.73 86.8701C110.86 85.5801 112.24 84.6001 112.81 84.2701C113.4 83.9401 114.14 84.7101 114.08 85.6901C114.01 86.5001 113.69 88.0701 114.08 88.2701C114.34 88.4001 115.83 88.0501 116.74 87.5701C117.61 87.1101 118.12 86.7601 118.25 86.7801C118.38 86.8001 118.38 87.0201 118.27 87.0801" fill="#3E3A39"/>
<path d="M124.25 87.59C123.42 88.18 120.97 89.54 119.25 89.07C119.25 89.07 119.36 90.89 119.14 91.71C118.9 92.52 117.66 95.25 116.15 96.56C114.64 97.87 113.35 98.33 112.83 98.2C112.31 98.07 111.58 96.43 113.13 94.18C114.68 91.91 117.32 88.46 117.5 88.22C119.01 86.19 123.86 79.75 123.86 79.75C124.22 79.47 124.72 80.65 124.68 80.68C124.03 81.13 119.2 87.18 119.01 87.5C118.83 87.85 119.12 88.13 119.53 88.22C119.94 88.33 121.45 88.94 124.14 87.24C124.14 87.24 125.08 87 124.25 87.59ZM118.31 88.72H118.14C117.77 88.98 113.71 94.99 113.47 95.93C113.25 96.89 113.47 98.12 115.22 96.72C116.95 95.33 118.08 93.47 118.32 91.42C118.54 89.36 118.32 88.73 118.32 88.73" fill="#3E3A39"/>
<path d="M133.36 87.42C133.03 87.53 132.03 87.79 131.11 87.79C130.19 87.79 128.86 87 128.86 87C128.86 87 128.51 89.16 125.69 89.16C123.83 89.14 123.66 86.8 124.88 85.67C126.1 84.51 127.17 84.64 127.17 84.64C127.26 84.31 127.82 84.01 128.46 84.64C129.09 85.27 129.09 86.49 129.09 86.49C129.09 86.49 129 86.71 130.03 87.08C131.06 87.45 131.89 87.47 133.15 87.06C134.4 86.64 133.68 87.3 133.35 87.41M128.53 86.72C127.92 86.26 127.33 85.11 127.33 85.11C127.33 85.11 126.81 85.26 126.26 85.57C125.45 86 124.1 88.08 126.04 88.52C127.57 88.87 128.6 86.77 128.53 86.73" fill="#3E3A39"/>
<path d="M133.38 87.0899C135.02 86.0399 135.28 84.3999 135.28 84.1399C135.28 83.8799 135.65 84.3399 135.94 84.6399C136.22 84.9699 137.23 85.9499 137.23 86.1499C137.23 86.3499 137.23 88.0899 138.36 88.3699C139.85 88.7399 141.4 87.7199 141.92 87.3499C142.42 86.9799 142.53 87.3899 142.23 87.6099C141.92 87.8499 141.46 88.1599 140.81 88.4899C140.18 88.8199 139.15 89.3199 138.19 89.1299C137.23 88.9299 136.57 88.1199 136.59 86.4799C136.59 86.1299 135.59 85.7599 135.37 85.8499C135.18 85.9399 134.17 87.0999 133.32 87.5099C133.32 87.5099 133.21 87.5799 133.1 87.5099C133.01 87.4499 132.95 87.3799 133.25 87.1799L133.38 87.0899Z" fill="#3E3A39"/>
<path d="M149.46 87.5C148.44 88.33 144.92 89.36 143.22 89.12C141.5 88.88 141.73 86.74 141.86 86.19C142.01 85.64 143.06 83.63 143.06 83.63C143.06 83.63 140.96 83.85 140.64 83.87C140.31 83.9 140.84 83.15 140.95 83.08C141.08 83.02 143.37 83.13 143.37 83.13C143.37 83.13 143.9 82.26 145.32 81.1C146.96 79.77 147.24 80.44 147.24 80.88C147.24 81.32 146.54 83.08 146.54 83.08C146.54 83.08 148.51 83.06 149.32 83.08C150.13 83.1 149.93 83.34 149.65 83.48C149.37 83.63 146.13 83.48 146.13 83.48C146.13 83.48 145.82 83.96 145.06 84.88C144.3 85.77 142.75 86.95 142.75 86.95C142.75 86.95 142.34 88.35 144.26 88.52C146.16 88.67 148.41 87.65 148.96 87.34C149.5 87.03 150.49 86.64 149.48 87.49M142.79 86.1C142.81 86.25 142.96 86.19 143.36 85.79C143.78 85.42 145.55 83.5 145.55 83.5L144.17 83.61C144.17 83.61 142.75 85.34 142.79 86.1ZM144.59 83.05H146.01C146.01 83.05 146.8 81.34 146.62 81.26C146.42 81.17 145.61 81.63 144.59 83.05Z" fill="#3E3A39"/>
<path fill-rule="evenodd" clip-rule="evenodd" d="M137.95 95.52C138.19 95.52 138.23 95.45 138.3 95.42C140.28 94.48 142.3 93.68 143.91 92.04C144.24 91.7 144.79 91.14 145.42 91.87C146.01 91.57 146.69 91.21 147.62 90.73C147.39 91.37 147.28 91.68 147.07 92.25C148.63 91.22 150 90.32 151.33 89.43C151.24 89.98 151.12 90.66 151.01 91.35C151.07 91.39 151.13 91.43 151.19 91.46C151.68 90.89 152.1 90.23 152.67 89.76C153.41 89.15 154.27 88.67 155.07 88.14C155.47 87.87 155.88 87.6 156.27 87.32C156.74 86.98 157.19 86.64 157.88 86.12C157.83 86.74 157.81 86.98 157.77 87.48C158.5 86.11 159.22 85.04 160.68 84.87C161.02 84.39 161.37 83.91 161.81 83.3C161.93 83.65 162 83.83 162.08 84.04C162.17 83.97 162.26 83.91 162.33 83.83C162.62 83.48 162.84 82.9 163.18 82.82C164.04 82.62 165.03 82.42 165.8 82.69C166.12 82.8 166.36 84.3 166.06 84.84C164.99 86.73 163.71 88.52 162.4 90.27C162.12 90.65 161.37 90.68 160.84 90.87C161.11 90.92 161.42 90.98 161.74 91.04C161.82 91.13 161.9 91.23 161.98 91.33C161.43 91.78 160.91 92.3 160.31 92.68C158.53 93.79 156.63 94.83 154.8 95.89C153.92 96.39 152.94 96.82 151.77 97.23C149.8 97.91 148.82 98.03 146.73 98.45C144.69 98.85 142.06 98.32 140.13 97.63C139.28 97.33 138.63 96.62 137.88 96.14C136.88 95.7 134.74 95.72 132.96 95.4C132.98 95.31 132.99 95.22 133 95.13M164.26 85.46C164.16 85.36 164.05 85.27 163.94 85.17L164.26 85.46Z" fill="#99D9D9"/>
</g>
</g>
</g>
<defs>
<filter id="filter0_d_226_19999" x="0.473633" y="0" width="239" height="160" filterUnits="userSpaceOnUse" color-interpolation-filters="sRGB">
<feFlood flood-opacity="0" result="BackgroundImageFix"/>
<feColorMatrix in="SourceAlpha" type="matrix" values="0 0 0 0 0 0 0 0 0 0 0 0 0 0 0 0 0 0 127 0" result="hardAlpha"/>
<feOffset dy="1"/>
<feGaussianBlur stdDeviation="10"/>
<feComposite in2="hardAlpha" operator="out"/>
<feColorMatrix type="matrix" values="0 0 0 0 0 0 0 0 0 0 0 0 0 0 0 0 0 0 0.08 0"/>
<feBlend mode="normal" in2="BackgroundImageFix" result="effect1_dropShadow_226_19999"/>
<feBlend mode="normal" in="SourceGraphic" in2="effect1_dropShadow_226_19999" result="shape"/>
</filter>
<clipPath id="clip0_226_19999">
<rect x="20.4736" y="19" width="199" height="120" rx="7.02062" fill="white"/>
</clipPath>
<clipPath id="clip1_226_19999">
<rect width="81.22" height="39.6" fill="white" transform="translate(85 59)"/>
</clipPath>
</defs>
</svg>
