<svg width="239" height="160" viewBox="0 0 239 160" fill="none" xmlns="http://www.w3.org/2000/svg">
<g filter="url(#filter0_d_225_18664)">
<g clip-path="url(#clip0_225_18664)">
<rect x="20.9473" y="19" width="198" height="198.333" fill="white"/>
<path d="M86.3324 72.7355C86.3324 72.7355 81.9923 68.3031 80.6903 64C80.6903 64 78.668 69.3835 74.725 73.1511C74.725 73.1511 68.9075 79.2364 74.2726 85.8573C74.2726 85.8573 76.5257 88.7661 80.9489 88.7661C85.372 88.7661 87.3851 85.8573 87.3851 85.8573C87.3851 85.8573 93.0918 79.3195 86.3324 72.7355Z" fill="url(#paint0_radial_225_18664)"/>
<g opacity="0.75">
<path d="M86.3324 72.7355C86.3324 72.7355 81.9923 68.3031 80.6903 64C80.6903 64 78.668 69.3835 74.725 73.1511C74.725 73.1511 68.9075 79.2364 74.2726 85.8573C74.2726 85.8573 76.5257 88.7661 80.9489 88.7661C85.372 88.7661 87.3851 85.8573 87.3851 85.8573C87.3851 85.8573 93.0918 79.3195 86.3324 72.7355Z" fill="#1C73BA"/>
</g>
<path d="M72.7773 80.3905C72.7773 80.3905 74.2918 81.434 76.2217 80.372C76.2217 80.372 78.2902 79.0054 80.848 81.1847C80.848 81.1847 78.7057 80.3813 77.219 81.3139C77.219 81.3139 74.5318 82.893 72.7773 80.3813M81.8545 86.522C79.9338 85.2477 77.6161 86.1434 77.6161 86.1434C80.2016 83.9919 82.2516 85.377 82.2516 85.377C84.5509 86.5774 86.3424 85.1923 86.3424 85.1923C84.4032 87.6671 82.1408 86.7252 81.8545 86.5313M81.3836 83.9457C78.2809 82.5975 75.8708 83.7241 75.8708 83.7241C76.7665 82.9576 77.4868 82.3205 78.2717 82.0434C80.414 81.2308 82.4917 82.4774 82.4917 82.4774C86.1854 84.0934 88.0692 82.3943 88.0692 82.3943C86.0376 85.4601 82.7133 84.5182 81.3744 83.9457" fill="white"/>
<path d="M76.3876 92.1181H75.5381L75.4365 92.3582C75.3996 92.4321 75.3903 92.506 75.3903 92.5521C75.3903 92.6168 75.418 92.6722 75.4734 92.6999C75.5011 92.7184 75.5842 92.7368 75.7135 92.7461V92.8107H74.9102V92.7461C75.0025 92.7368 75.0671 92.6999 75.1225 92.6353C75.1779 92.5798 75.2518 92.4598 75.3257 92.2659L76.1937 90.3359H76.2306L77.1079 92.3213C77.191 92.506 77.2556 92.626 77.311 92.6814C77.348 92.7184 77.4034 92.7368 77.4773 92.7461V92.8107H76.3045V92.7461H76.3507C76.443 92.7461 76.5077 92.7368 76.5538 92.7091C76.5815 92.6907 76.5908 92.663 76.5908 92.626C76.5908 92.5983 76.5908 92.5798 76.5815 92.5614C76.5815 92.5521 76.5631 92.506 76.5261 92.4229L76.3969 92.1181H76.3876ZM76.323 91.9796L75.9629 91.1486L75.5935 91.9796H76.323Z" fill="#231815"/>
<path d="M79.8131 90.3821V91.0377H79.7484C79.7115 90.89 79.6653 90.7792 79.6191 90.7145C79.573 90.6499 79.5083 90.5945 79.4252 90.5575C79.3791 90.5391 79.3052 90.5298 79.1851 90.5298H79.0097V92.3951C79.0097 92.5244 79.0097 92.5983 79.0282 92.626C79.0374 92.6537 79.0651 92.6814 79.1113 92.7091C79.1482 92.7276 79.2036 92.746 79.2775 92.746H79.3606V92.8107H78.0955V92.746H78.1694C78.2432 92.746 78.2987 92.7368 78.3356 92.7091C78.3633 92.6906 78.391 92.6629 78.4095 92.626C78.4187 92.5983 78.4279 92.5244 78.4279 92.4044V90.5391H78.2525C78.0863 90.5391 77.9662 90.576 77.8923 90.6406C77.7908 90.7422 77.7261 90.8715 77.6984 91.0562H77.6338V90.4005H79.8038L79.8131 90.3821Z" fill="#231815"/>
<path d="M80.9309 91.7118V92.3859C80.9309 92.5152 80.9309 92.5983 80.9586 92.6352C80.977 92.6722 81.0047 92.6906 81.0417 92.7183C81.0879 92.7368 81.1617 92.746 81.2633 92.746V92.8107H80.0352V92.746C80.146 92.746 80.2198 92.7368 80.266 92.7091C80.3029 92.6906 80.3307 92.6629 80.3491 92.626C80.3676 92.5891 80.3768 92.5059 80.3768 92.3767V90.8069C80.3768 90.6683 80.3768 90.5945 80.3491 90.5575C80.3307 90.5206 80.3029 90.4929 80.266 90.4744C80.2291 90.456 80.146 90.4467 80.0352 90.4467V90.3821H81.0879C81.4388 90.3821 81.6881 90.4467 81.8358 90.5668C81.9836 90.696 82.0574 90.853 82.0574 91.0377C82.0574 91.1947 82.0113 91.3332 81.9097 91.444C81.8081 91.5548 81.6788 91.6287 81.5034 91.6749C81.3926 91.7026 81.1987 91.721 80.9216 91.721M80.9309 90.5206V91.5641C80.9309 91.5641 80.9955 91.5641 81.0232 91.5641C81.171 91.5641 81.2818 91.5179 81.3556 91.4348C81.4388 91.3424 81.4757 91.2132 81.4757 91.0377C81.4757 90.8623 81.4388 90.7237 81.3556 90.6406C81.2725 90.5575 81.1617 90.5114 81.0047 90.5114H80.9309V90.5206Z" fill="#231815"/>
<path d="M82.2592 90.3821H83.5058V90.4467H83.4412C83.3489 90.4467 83.2842 90.456 83.2473 90.4744C83.2104 90.4929 83.1919 90.5206 83.1734 90.5575C83.155 90.5945 83.1457 90.6776 83.1457 90.8161V91.9981C83.1457 92.2197 83.1642 92.3582 83.1919 92.4321C83.2288 92.4967 83.275 92.5613 83.3581 92.6075C83.432 92.6537 83.5336 92.6814 83.6444 92.6814C83.7736 92.6814 83.8845 92.6537 83.9768 92.589C84.0691 92.5336 84.1338 92.4505 84.1799 92.349C84.2261 92.2474 84.2446 92.0627 84.2446 91.8041V90.8161C84.2446 90.7053 84.2354 90.6314 84.2076 90.5852C84.1892 90.5391 84.1615 90.5114 84.1245 90.4929C84.0691 90.4652 83.9953 90.4467 83.8937 90.4467V90.3821H84.734V90.4467H84.6786C84.6139 90.4467 84.5493 90.456 84.5124 90.4929C84.4662 90.5206 84.4385 90.5575 84.42 90.6129C84.4016 90.6499 84.3923 90.7145 84.3923 90.8161V91.7303C84.3923 92.0165 84.3739 92.2197 84.3369 92.349C84.3 92.4782 84.2076 92.5891 84.0599 92.6999C83.9122 92.8014 83.7182 92.8568 83.4689 92.8568C83.2565 92.8568 83.0995 92.8291 82.9887 92.7737C82.8318 92.6999 82.7209 92.5983 82.6563 92.4782C82.5917 92.3582 82.564 92.2012 82.564 91.9981V90.8161C82.564 90.6776 82.564 90.5852 82.5455 90.5575C82.527 90.5206 82.4993 90.4929 82.4624 90.4744C82.4255 90.456 82.3516 90.4467 82.25 90.4467V90.3821H82.2592Z" fill="#231815"/>
<path d="M85.7873 91.7028V92.3769C85.7873 92.5061 85.7873 92.5893 85.815 92.6262C85.8335 92.6631 85.8612 92.6816 85.8981 92.7093C85.9351 92.7278 86.0089 92.737 86.129 92.737V92.8016H84.8916V92.737C85.0024 92.737 85.0763 92.7278 85.1225 92.7001C85.1594 92.6816 85.1871 92.6539 85.2056 92.617C85.224 92.58 85.2333 92.4969 85.2333 92.3676V90.7978C85.2333 90.6593 85.224 90.5854 85.2056 90.5485C85.1871 90.5116 85.1686 90.4839 85.1225 90.4654C85.0855 90.4469 85.0116 90.4377 84.9008 90.4377V90.373H86.0274C86.3229 90.373 86.5353 90.3915 86.6738 90.4377C86.8123 90.4746 86.9231 90.5485 87.0062 90.6593C87.0893 90.7701 87.1355 90.8994 87.1355 91.0471C87.1355 91.2226 87.0709 91.3703 86.9416 91.4904C86.8585 91.5643 86.7477 91.6197 86.5999 91.6566L87.1817 92.4784C87.2555 92.58 87.311 92.6447 87.3479 92.6724C87.3941 92.7093 87.4495 92.7278 87.5141 92.737V92.8016H86.7569L85.9812 91.7028H85.8243H85.7873ZM85.7873 90.5116V91.5735H85.8889C86.0551 91.5735 86.1751 91.555 86.2583 91.5273C86.3414 91.4996 86.406 91.4442 86.4522 91.3611C86.4984 91.278 86.526 91.1764 86.526 91.0471C86.526 90.8625 86.4799 90.7239 86.3968 90.6408C86.3137 90.5577 86.1752 90.5116 85.9812 90.5116H85.7873Z" fill="#231815"/>
<path d="M88.4478 90.5206V91.5087H88.494C88.651 91.5087 88.7618 91.4625 88.8264 91.3609C88.9003 91.2593 88.9372 91.1208 88.9649 90.9361H89.0296V92.2012H88.9649C88.9465 92.0627 88.9188 91.9519 88.8726 91.8595C88.8264 91.7672 88.771 91.7118 88.7156 91.6841C88.651 91.6472 88.5679 91.6379 88.4478 91.6379V92.3213C88.4478 92.4598 88.4478 92.5336 88.4663 92.5613C88.4755 92.5891 88.5032 92.6168 88.5309 92.6352C88.5586 92.6537 88.614 92.6629 88.6787 92.6629H88.8264C89.0481 92.6629 89.2327 92.6167 89.3713 92.5059C89.5098 92.4044 89.6021 92.2382 89.6667 92.0258H89.7314L89.6206 92.7922H87.5244V92.7276H87.6075C87.6814 92.7276 87.7368 92.7183 87.783 92.6906C87.8107 92.6722 87.8384 92.6445 87.8568 92.6075C87.8661 92.5798 87.8753 92.5059 87.8753 92.3859V90.7976C87.8753 90.6868 87.8753 90.6222 87.8753 90.5945C87.8661 90.5575 87.8384 90.5206 87.8107 90.5021C87.7645 90.4652 87.6999 90.4467 87.626 90.4467H87.5429V90.3821H89.5744V91.0931H89.5098C89.4728 90.9177 89.4267 90.7884 89.362 90.7145C89.2974 90.6406 89.2143 90.5852 89.0942 90.5483C89.0296 90.5298 88.9003 90.5206 88.7156 90.5206H88.4663H88.4478Z" fill="#231815"/>
<path d="M108.357 68.9678V69.2263C108.181 69.2448 108.025 69.291 107.904 69.3741C107.784 69.4572 107.674 69.5772 107.581 69.7434C107.554 69.7989 107.406 70.1497 107.138 70.8054L104.109 78.4513H103.832L101.45 72.4491L98.8088 78.4513H98.541L95.3644 70.8885C95.0412 70.1313 94.8196 69.6696 94.6903 69.5126C94.5611 69.3556 94.3487 69.2633 94.0439 69.2356V68.977H98.227V69.2356C97.8946 69.2356 97.6637 69.291 97.5529 69.3833C97.4421 69.4757 97.3867 69.5772 97.3867 69.7157C97.3867 69.8912 97.5068 70.2513 97.7376 70.8146L99.6306 75.3117L101.145 71.7934L100.748 70.8146C100.526 70.279 100.36 69.9189 100.24 69.7434C100.12 69.568 99.9815 69.4387 99.8338 69.3556C99.6768 69.2817 99.4552 69.2356 99.1597 69.2356V68.977H103.823V69.2356C103.5 69.2356 103.26 69.2633 103.121 69.3094C103.02 69.3371 102.946 69.3925 102.89 69.4664C102.835 69.5403 102.807 69.6234 102.807 69.725C102.807 69.8266 102.918 70.1497 103.13 70.6853L104.885 75.0716L106.455 71.1009C106.621 70.6946 106.722 70.4083 106.759 70.2606C106.796 70.1128 106.815 69.9743 106.815 69.845C106.815 69.6603 106.75 69.5126 106.612 69.4018C106.482 69.291 106.224 69.2356 105.854 69.2263V68.9678H108.357Z" fill="#231815"/>
<path d="M114.534 75.5983H111.145L110.729 76.5032C110.6 76.7987 110.535 77.048 110.535 77.242C110.535 77.5005 110.646 77.6944 110.859 77.8145C110.988 77.8884 111.302 77.9438 111.81 77.9807V78.2392H108.605V77.9807C108.956 77.9345 109.233 77.796 109.455 77.5652C109.677 77.3435 109.954 76.8726 110.277 76.1708L113.73 68.7834H113.869L117.35 76.3832C117.683 77.1034 117.95 77.5467 118.163 77.7406C118.329 77.8791 118.551 77.9622 118.846 77.9899V78.2485H114.174V77.9899H114.368C114.737 77.9899 115.005 77.9438 115.162 77.8422C115.263 77.7683 115.319 77.6667 115.319 77.5282C115.319 77.4451 115.3 77.362 115.273 77.2789C115.273 77.242 115.189 77.0665 115.06 76.771L114.543 75.6167L114.534 75.5983ZM114.312 75.0996L112.872 71.9046L111.394 75.0996H114.321H114.312Z" fill="#231815"/>
<path d="M128.218 68.9678V71.4702H127.95C127.802 70.8977 127.627 70.4729 127.442 70.2236C127.257 69.9743 127.008 69.7711 126.685 69.6234C126.509 69.5403 126.195 69.5034 125.743 69.5034H125.023V76.6599C125.023 77.1308 125.05 77.4263 125.106 77.5463C125.161 77.6664 125.263 77.768 125.42 77.8603C125.577 77.9526 125.798 77.9896 126.075 77.9896H126.399V78.2481H121.338V77.9896H121.661C121.938 77.9896 122.16 77.9434 122.336 77.8418C122.456 77.7772 122.557 77.6756 122.622 77.5186C122.668 77.4078 122.696 77.1216 122.696 76.6599V69.5034H122.003C121.347 69.5034 120.877 69.6326 120.581 69.9004C120.165 70.2698 119.907 70.7961 119.796 71.4795H119.528V68.977H128.208L128.218 68.9678Z" fill="#231815"/>
<path d="M132.669 74.0373V76.6137C132.669 77.1123 132.697 77.4263 132.762 77.5556C132.826 77.6848 132.937 77.7864 133.103 77.8603C133.27 77.9342 133.565 77.9803 134.008 77.9803V78.2389H129.105V77.9803C129.548 77.9803 129.853 77.9434 130.01 77.8603C130.167 77.7772 130.278 77.6756 130.342 77.5556C130.407 77.4263 130.435 77.1123 130.435 76.6137V70.593C130.435 70.0943 130.407 69.7804 130.342 69.6511C130.278 69.5218 130.167 69.4203 130.001 69.3464C129.834 69.2725 129.539 69.2263 129.096 69.2263V68.9678H133.297C134.682 68.9678 135.68 69.2079 136.28 69.6788C136.88 70.1498 137.185 70.7407 137.185 71.4518C137.185 72.052 136.991 72.5691 136.603 72.9939C136.215 73.4187 135.68 73.7141 134.996 73.8619C134.535 73.9727 133.759 74.0281 132.66 74.0281M132.669 69.4941V73.5018C132.826 73.511 132.946 73.5202 133.029 73.5202C133.611 73.5202 134.054 73.354 134.368 73.0216C134.682 72.6891 134.839 72.1813 134.839 71.4887C134.839 70.7961 134.682 70.2975 134.368 69.9743C134.054 69.6603 133.584 69.4941 132.965 69.4941H132.669Z" fill="#231815"/>
<path d="M137.98 68.968H142.966V69.2265H142.717C142.338 69.2265 142.08 69.2635 141.941 69.3373C141.803 69.4112 141.701 69.5128 141.637 69.6513C141.581 69.7806 141.544 70.113 141.544 70.6394V75.1733C141.544 76.0044 141.609 76.5492 141.738 76.817C141.867 77.0848 142.08 77.3064 142.384 77.4911C142.68 77.6666 143.059 77.7589 143.511 77.7589C144.037 77.7589 144.481 77.6481 144.841 77.4173C145.21 77.1864 145.487 76.8817 145.663 76.4846C145.847 76.0875 145.94 75.395 145.94 74.4161V70.6394C145.94 70.2238 145.893 69.9283 145.801 69.7529C145.709 69.5774 145.598 69.4574 145.459 69.3835C145.247 69.2819 144.942 69.2265 144.555 69.2265V68.968H147.888V69.2265H147.685C147.417 69.2265 147.186 69.2819 147.011 69.3835C146.835 69.4851 146.697 69.6421 146.623 69.8545C146.558 70.0022 146.531 70.2608 146.531 70.6394V74.1576C146.531 75.2472 146.457 76.0321 146.309 76.5123C146.161 76.9925 145.792 77.4357 145.21 77.842C144.628 78.2483 143.843 78.4515 142.837 78.4515C142.006 78.4515 141.359 78.3407 140.898 78.1283C140.279 77.8328 139.836 77.4634 139.577 77.011C139.319 76.5585 139.189 75.949 139.189 75.1733V70.6394C139.189 70.1038 139.162 69.7806 139.097 69.6421C139.032 69.5128 138.931 69.4112 138.774 69.3281C138.626 69.2542 138.349 69.2173 137.934 69.2173V68.9587L137.98 68.968Z" fill="#231815"/>
<path d="M152.024 74.0096V76.6137C152.024 77.1123 152.061 77.4263 152.116 77.5556C152.181 77.6848 152.292 77.7864 152.449 77.8603C152.615 77.9342 152.911 77.9803 153.354 77.9803V78.2389H148.414V77.9803C148.857 77.9803 149.161 77.9434 149.318 77.8603C149.475 77.7772 149.586 77.6756 149.651 77.5556C149.716 77.4263 149.743 77.1123 149.743 76.6137V70.593C149.743 70.0943 149.706 69.7804 149.651 69.6511C149.586 69.5218 149.475 69.4203 149.309 69.3464C149.143 69.2725 148.848 69.2263 148.404 69.2263V68.9678H152.892C154.065 68.9678 154.914 69.0416 155.459 69.1986C156.004 69.3556 156.438 69.6419 156.78 70.0574C157.121 70.4729 157.297 70.9624 157.297 71.5256C157.297 72.209 157.038 72.7723 156.53 73.2155C156.198 73.5018 155.745 73.7141 155.154 73.8527L157.472 76.9923C157.777 77.3986 157.989 77.6479 158.119 77.7495C158.313 77.888 158.534 77.9619 158.793 77.9803V78.2389H155.755L152.643 74.0096H152.006H152.024ZM152.024 69.4757V73.5295H152.43C153.086 73.5295 153.585 73.4741 153.908 73.354C154.231 73.2432 154.49 73.0308 154.684 72.7261C154.868 72.4214 154.97 72.0243 154.97 71.5441C154.97 70.8423 154.794 70.316 154.453 69.9835C154.111 69.6419 153.557 69.4757 152.791 69.4757H152.033H152.024Z" fill="#231815"/>
<path d="M162.643 69.4943V73.2803H162.837C163.456 73.2803 163.899 73.0957 164.176 72.7263C164.453 72.3569 164.629 71.8121 164.703 71.0918H164.97V75.9398H164.703C164.647 75.4134 164.527 74.9794 164.343 74.647C164.158 74.3053 163.945 74.0837 163.696 73.9637C163.456 73.8436 163.096 73.7882 162.634 73.7882V76.4015C162.634 76.9094 162.653 77.2233 162.699 77.3342C162.745 77.445 162.828 77.5373 162.948 77.6112C163.068 77.685 163.271 77.722 163.548 77.722H164.13C165.035 77.722 165.755 77.5188 166.3 77.1218C166.845 76.7155 167.233 76.106 167.473 75.2934H167.741L167.307 78.2391H158.959V77.9805H159.282C159.559 77.9805 159.79 77.9344 159.956 77.8328C160.076 77.7682 160.169 77.6666 160.243 77.5096C160.298 77.3988 160.326 77.1125 160.326 76.6508V70.5563C160.326 70.1407 160.316 69.8822 160.289 69.7806C160.243 69.6236 160.15 69.4943 160.021 69.4112C159.845 69.2819 159.596 69.2173 159.282 69.2173H158.959V68.9587H167.039V71.6921H166.771C166.633 71.0272 166.439 70.547 166.189 70.2515C165.94 69.9653 165.589 69.7437 165.137 69.6144C164.869 69.5313 164.37 69.4943 163.641 69.4943H162.643Z" fill="#231815"/>
<path d="M90.7834 91.6287C90.9773 91.6287 91.1435 91.7118 91.2728 91.878C91.4021 92.0442 91.4759 92.2474 91.4759 92.469C91.4759 92.626 91.439 92.7737 91.3744 92.903C91.3097 93.0415 91.2266 93.1338 91.1158 93.2077C91.005 93.2816 90.8942 93.3093 90.7834 93.3093C90.5895 93.3093 90.4233 93.2262 90.294 93.06C90.1647 92.8937 90.0908 92.6998 90.0908 92.469C90.0908 92.312 90.1185 92.1642 90.1924 92.035C90.257 91.9057 90.3401 91.8041 90.451 91.7302C90.5525 91.6564 90.6633 91.6287 90.7834 91.6287ZM90.7834 91.7672C90.6172 91.7672 90.4787 91.841 90.3678 91.9888C90.2663 92.1273 90.2109 92.2843 90.2109 92.469C90.2109 92.6721 90.2755 92.8383 90.3863 92.9769C90.4971 93.1061 90.6264 93.1708 90.7834 93.1708C90.9496 93.1708 91.0881 93.0969 91.1989 92.9492C91.3097 92.8106 91.3559 92.6537 91.3559 92.4597C91.3559 92.2566 91.2913 92.0904 91.1805 91.9519C91.0696 91.8226 90.9404 91.7579 90.7834 91.7579M90.4879 92.9307V92.0257H90.7464C90.8296 92.0257 90.8942 92.035 90.9311 92.0534C90.9681 92.0719 90.9958 92.0996 91.0235 92.1365C91.0512 92.1735 91.0604 92.2196 91.0604 92.2751C91.0604 92.3489 91.0419 92.4043 90.9958 92.4505C90.9588 92.4967 90.9034 92.5244 90.848 92.5336C90.8757 92.5428 90.8942 92.5613 90.9127 92.5798C90.9404 92.6167 90.9773 92.6814 91.0235 92.7552L91.1158 92.9399H90.9681L90.9034 92.7922C90.8573 92.6814 90.8111 92.6167 90.7834 92.589C90.7557 92.5613 90.728 92.5521 90.6818 92.5521H90.6079V92.9399H90.4879V92.9307ZM90.6079 92.4228H90.7557C90.8203 92.4228 90.8665 92.4136 90.8942 92.3859C90.9219 92.3582 90.9311 92.3305 90.9311 92.2843C90.9311 92.2566 90.9311 92.2289 90.9127 92.2104C90.8942 92.1919 90.8757 92.1735 90.8573 92.1642C90.8388 92.155 90.8019 92.155 90.7464 92.155H90.6079V92.432V92.4228Z" fill="#231815"/>
<path d="M95.4381 86.0515H98.2268C98.273 85.8853 98.3099 85.7006 98.3191 85.4882L99.0302 85.5621C99.1317 85.5713 99.1779 85.599 99.1779 85.6452C99.1779 85.7191 99.1225 85.7837 99.0025 85.8483C98.984 85.9222 98.9655 85.9961 98.9471 86.0607H101.828V86.6979H99.2426C99.5381 87.0119 99.8335 87.2335 100.129 87.372C100.6 87.6121 101.265 87.8152 102.114 87.963L101.523 88.6278C100.72 88.4062 100.092 88.1477 99.6489 87.8614C99.2518 87.5844 98.9194 87.2427 98.6516 86.8364C98.6239 86.8918 98.5869 86.9472 98.5592 86.9934C98.273 87.4274 97.8574 87.7875 97.2941 88.0646C96.8694 88.2862 96.2969 88.4801 95.5858 88.6555L95.1426 88.0553C96.066 87.8614 96.7216 87.649 97.1002 87.4089C97.4696 87.2242 97.7466 86.9749 97.9313 86.6887H95.4381V86.0515ZM97.1741 81.1389C97.4696 81.5268 97.7282 81.9054 97.959 82.284H99.3257C99.5842 81.9331 99.7781 81.5637 99.9074 81.1759L100.554 81.3421C100.655 81.3513 100.702 81.379 100.702 81.4344C100.702 81.499 100.637 81.5637 100.498 81.6191C100.406 81.85 100.295 82.0716 100.166 82.284H101.819V82.9211H98.9932V83.5213H101.403V84.1308H98.9932V84.768H101.819V85.3959H95.4381V84.768H98.3191V84.1308H95.789V83.5213H98.3191V82.9211H95.4381V82.284H97.1833C96.9986 82.0069 96.7955 81.7391 96.5831 81.4621L97.1741 81.1482V81.1389Z" fill="#231815"/>
<path d="M102.761 81.7205H109.52V82.3853H106.501L106.076 83.3272H109.132V87.8058C109.132 88.1659 108.984 88.3968 108.68 88.5076C108.44 88.5907 108.209 88.6276 107.978 88.6276L107.71 87.8981L108.227 87.8797C108.375 87.8797 108.44 87.7781 108.44 87.5842V84.0013H107.295V88.1659H106.648V84.0013H105.559V88.1659H104.912V84.0013H103.823V88.4429H103.148V83.3364H105.291L105.734 82.3946H102.742V81.7297L102.761 81.7205Z" fill="#231815"/>
<path d="M110.729 83.4285C111.163 83.7148 111.523 84.0195 111.818 84.3427L111.375 84.8506C111.033 84.5089 110.664 84.2042 110.258 83.9364L110.729 83.4378V83.4285ZM111.643 85.4877L112.058 86.0141C111.735 86.8267 111.394 87.5931 111.033 88.2949C111.033 88.4612 110.987 88.5535 110.886 88.5535L110.322 88.0456C110.812 87.2884 111.255 86.4296 111.643 85.4877ZM111.024 81.2677C111.449 81.517 111.8 81.7848 112.086 82.0619L111.643 82.5605C111.311 82.2743 110.95 82.0065 110.553 81.7756L111.024 81.2585V81.2677ZM112.225 82.2096H114.229V81.1938L114.847 81.2493C114.967 81.2585 115.023 81.2954 115.023 81.3601C115.023 81.397 114.986 81.4524 114.903 81.5448V82.2096H116.149C115.946 81.9695 115.734 81.7571 115.494 81.5725L115.909 81.2216C116.168 81.3878 116.435 81.6002 116.703 81.8587L116.214 82.2096H116.999V82.8468H114.912V83.5763H116.768V87.7409C116.768 88.0918 116.62 88.3134 116.315 88.415C116.085 88.4981 115.844 88.5443 115.614 88.5443L115.355 87.8425L115.891 87.824C116.048 87.8148 116.122 87.7132 116.122 87.5193V86.9098H114.912V88.4058H114.238V86.9098H113.093V88.535H112.446V83.5763H114.238V82.8468H112.234V82.2096H112.225ZM113.093 84.9429H114.238V84.2042H113.093V84.9429ZM113.093 86.3004H114.238V85.5432H113.093V86.3004ZM114.903 84.9429H116.112V84.2042H114.903V84.9429ZM114.903 86.3004H116.112V85.5432H114.903V86.3004Z" fill="#231815"/>
<path d="M117.85 83.1981H118.764V81.5821L119.429 81.6375C119.558 81.6375 119.623 81.6744 119.623 81.7483C119.623 81.7852 119.576 81.8499 119.475 81.933V83.1981H120.749V81.3328L121.405 81.3974C121.525 81.3974 121.589 81.4343 121.589 81.4898C121.589 81.5359 121.543 81.5913 121.442 81.6744V83.1981H122.734V81.3328L123.409 81.3974C123.529 81.3974 123.593 81.4343 123.593 81.4898C123.593 81.5359 123.547 81.5913 123.446 81.6744V83.1981H124.591V83.8906H123.446V86.3654H120.749V83.8906H119.475V87.4827H124.415V88.1753H119.475V88.5539H118.764V83.8906H117.85V83.1981ZM121.442 85.6728H122.734V83.8906H121.442V85.6728Z" fill="#231815"/>
<path d="M126.14 81.5452H131.348V84.6202H130.185C130.48 84.8418 130.72 84.9987 130.924 85.1003C131.265 85.2758 131.69 85.4512 132.198 85.6082L131.551 86.2731C131.071 86.0237 130.665 85.7744 130.351 85.5343C130.056 85.3035 129.742 84.9988 129.428 84.6202H128.116C127.784 85.008 127.479 85.3035 127.211 85.5066C126.879 85.756 126.417 86.0053 125.835 86.2731L125.217 85.6728C125.808 85.4697 126.316 85.2573 126.74 85.0265C126.916 84.9341 127.119 84.8048 127.331 84.6294H126.131V81.5544L126.14 81.5452ZM127.405 85.5713L128.015 85.6451C128.098 85.6544 128.144 85.6821 128.144 85.7375C128.144 85.7744 128.107 85.8206 128.024 85.8668C127.996 86.3285 127.932 86.7071 127.839 87.0026C127.765 87.2611 127.655 87.4827 127.516 87.6674C127.304 87.9814 126.944 88.2769 126.436 88.5631L125.909 88.1199C126.38 87.8798 126.713 87.6397 126.907 87.3996C127.054 87.2334 127.165 87.0395 127.239 86.8086C127.331 86.5316 127.387 86.1253 127.405 85.5897M126.787 82.8195H128.292V82.1823H126.787V82.8195ZM128.292 83.4289H126.787V83.9922H128.292V83.4289ZM128.938 82.8195H130.702V82.1823H128.938V82.8195ZM130.702 83.4289H128.938V83.9922H130.702V83.4289ZM129.557 85.5713L130.157 85.6267C130.268 85.6359 130.314 85.6728 130.314 85.7283C130.314 85.7652 130.277 85.8206 130.194 85.8852V88.5539H129.548V85.5713H129.557Z" fill="#231815"/>
<path d="M133.271 85.8575L133.825 86.0237C133.889 86.0237 133.917 86.0606 133.917 86.116C133.917 86.1714 133.871 86.2268 133.788 86.3007C133.677 86.9933 133.529 87.5843 133.344 88.0737L132.763 87.8613C132.864 87.6212 132.957 87.3626 133.03 87.0671C133.132 86.707 133.206 86.3007 133.261 85.8575M134.296 81.1665L134.767 81.4435C134.84 81.4805 134.877 81.5174 134.877 81.5451C134.877 81.6005 134.84 81.6559 134.757 81.7113L133.871 82.9302C134.037 83.078 134.203 83.2257 134.36 83.3735L135.173 82.173L135.662 82.5147C135.708 82.5516 135.736 82.5978 135.736 82.6532C135.736 82.7086 135.69 82.7363 135.588 82.7548L134.12 84.7124C134.526 84.6663 134.914 84.6201 135.302 84.5647C135.247 84.3708 135.182 84.1953 135.117 84.0199L135.708 83.8906C135.912 84.4262 136.059 84.9525 136.152 85.4512L135.57 85.5712C135.542 85.4142 135.505 85.2665 135.459 85.1187C135.247 85.1557 134.997 85.2018 134.711 85.248V88.5539H134.092V85.3311C133.815 85.3773 133.511 85.4327 133.178 85.4789C133.132 85.5527 133.077 85.5989 133.03 85.5989C132.984 85.5989 132.966 85.562 132.957 85.4973L132.827 84.8417C133.021 84.8325 133.206 84.8232 133.4 84.8048L133.991 83.9275C133.575 83.5305 133.197 83.1796 132.855 82.8748L133.206 82.3762C133.28 82.4316 133.363 82.487 133.437 82.5516L134.296 81.1665ZM135.441 85.7744C135.561 86.1807 135.653 86.587 135.718 86.9748C135.875 86.6701 136.004 86.3654 136.096 86.0514C136.336 85.248 136.447 84.4446 136.438 83.6413V82.2469H135.939V81.6467H138.349L138.525 81.5543C138.589 81.5543 138.645 81.582 138.7 81.619L139.07 81.8683C139.116 81.9052 139.144 81.9422 139.144 81.9699C139.144 82.053 139.088 82.1269 138.968 82.1915L138.432 83.8721H138.987C139.042 83.8352 139.07 83.8167 139.088 83.8167C139.125 83.8167 139.18 83.8352 139.227 83.8814L139.55 84.1861C139.55 84.1861 139.614 84.26 139.614 84.3154C139.614 84.3708 139.55 84.4262 139.411 84.5093C139.134 85.682 138.83 86.5316 138.479 87.0579C138.46 87.0856 138.442 87.1226 138.423 87.1595C138.516 87.2518 138.608 87.3349 138.7 87.4088C138.959 87.6212 139.31 87.7966 139.734 87.9259L139.208 88.5631C138.802 88.3507 138.442 88.1106 138.146 87.8151C138.1 87.7597 138.054 87.7043 138.008 87.6489C137.648 88.0183 137.186 88.3138 136.641 88.5631L136.235 87.9629C136.641 87.8244 136.983 87.6674 137.232 87.4919C137.371 87.3903 137.5 87.2795 137.62 87.1595C137.528 87.0117 137.435 86.8548 137.352 86.6978C137.177 86.3377 137.029 85.9406 136.909 85.4973C136.863 85.7282 136.816 85.9498 136.752 86.1622C136.53 86.9563 136.189 87.6581 135.727 88.2676L135.08 87.9167C135.284 87.6674 135.459 87.4181 135.607 87.1595L135.164 87.2518C135.08 86.7624 134.988 86.3007 134.868 85.8852L135.431 85.7651L135.441 85.7744ZM137.084 83.8629H137.777L138.303 82.2469H137.084V83.8629ZM137.269 84.5C137.306 84.7771 137.361 85.0356 137.435 85.2942C137.528 85.682 137.675 86.0514 137.869 86.4023C137.915 86.4946 137.971 86.5777 138.026 86.6516C138.072 86.5685 138.119 86.4854 138.155 86.3931C138.368 85.9775 138.571 85.3496 138.765 84.5H137.269Z" fill="#231815"/>
<path d="M140.824 83.5121C141.249 83.7984 141.6 84.1123 141.886 84.4355L141.452 84.9342C141.111 84.6017 140.751 84.297 140.354 84.0107L140.824 83.5029V83.5121ZM141.794 85.7283L142.21 86.2731C141.859 86.9934 141.489 87.6675 141.092 88.3046C141.092 88.4709 141.046 88.554 140.945 88.554L140.381 88.0461C140.908 87.3628 141.379 86.5871 141.794 85.7283ZM141.148 81.3236C141.582 81.5914 141.942 81.8684 142.237 82.1454L141.794 82.6533C141.452 82.3486 141.083 82.0808 140.677 81.8315L141.148 81.3236ZM143.17 83.706H146.614V85.008H147.168V85.6452H146.614V86.9103H145.091V87.6398C145.091 88.0646 144.989 88.3323 144.777 88.4339C144.629 88.517 144.213 88.5632 143.53 88.5632L143.336 87.8983C143.872 87.8983 144.195 87.8983 144.278 87.8799C144.37 87.8614 144.417 87.7783 144.417 87.649V86.9195H143.179V86.2824H144.417V85.6452H142.274V85.008H144.417V84.3432H143.179V83.706H143.17ZM146.707 81.7668C146.624 81.7668 146.513 81.7761 146.383 81.7945C145.285 81.9331 144.14 82.0346 142.939 82.0993L142.496 81.4529C143.308 81.4344 143.992 81.4067 144.555 81.3513C145.072 81.3144 145.709 81.2405 146.467 81.1389L146.919 81.6191C146.919 81.6191 146.965 81.693 146.965 81.7484C146.965 81.7853 146.937 81.8038 146.873 81.8038L146.697 81.7668H146.707ZM142.967 82.247C143.216 82.4871 143.465 82.7918 143.706 83.1704L143.115 83.586C142.921 83.2351 142.717 82.9304 142.496 82.6718L142.967 82.2563V82.247ZM144.555 82.1177C144.804 82.3671 145.054 82.6903 145.294 83.0781L144.74 83.4844C144.555 83.1058 144.343 82.7734 144.121 82.5056L144.564 82.127L144.555 82.1177ZM145.091 85.008H145.94V84.3432H145.091V85.008ZM145.091 86.2731H145.94V85.636H145.091V86.2731ZM146.476 81.9885L146.974 82.2378C147.058 82.2655 147.104 82.3024 147.104 82.3301C147.104 82.3948 147.058 82.4409 146.974 82.4871C146.781 82.8749 146.559 83.1889 146.328 83.4475L145.765 83.0689C146.042 82.7641 146.273 82.3948 146.476 81.9792" fill="#231815"/>
<path d="M158.276 81.9236C158.23 81.9236 158.165 81.9421 158.082 81.9698C157.879 82.0622 157.676 82.1453 157.463 82.2099V83.6412H158.636V84.3061H157.648C157.925 84.8601 158.248 85.3126 158.636 85.6727L158.11 86.2729C157.879 85.9313 157.657 85.5619 157.463 85.1556V88.5538H156.817V85.4049C156.752 85.6173 156.688 85.802 156.632 85.9497C156.466 86.3561 156.245 86.7808 155.967 87.2148L155.386 86.6423C155.681 86.2914 155.94 85.9036 156.152 85.4788C156.281 85.2387 156.438 84.8416 156.605 84.2968H155.533V83.632H156.826V82.3946C156.558 82.4592 156.3 82.5146 156.032 82.5516L155.589 81.8867C156.088 81.859 156.512 81.7851 156.863 81.6836C157.177 81.6189 157.565 81.4712 158.036 81.2588L158.525 81.7759C158.525 81.7759 158.572 81.8498 158.572 81.8959C158.572 81.9421 158.544 81.9606 158.479 81.9606L158.285 81.9236H158.276ZM160.797 81.268L161.416 81.3234C161.536 81.3234 161.591 81.3604 161.591 81.4342C161.591 81.4712 161.554 81.5266 161.471 81.6189V85.645C161.73 85.5619 161.988 85.4788 162.238 85.3865V86.0883L161.471 86.3191V88.563H160.797V86.5223L159.089 87.0302C159.015 87.2056 158.941 87.2887 158.885 87.2887C158.839 87.2887 158.802 87.2425 158.784 87.1594L158.535 86.4392C159.292 86.2729 160.049 86.0698 160.797 85.8482V81.2588V81.268ZM159.209 84.0198C159.569 84.2784 159.91 84.5831 160.234 84.9432L159.763 85.4234C159.421 85.0263 159.089 84.7124 158.765 84.4723L159.209 84.0198ZM159.329 82.0622C159.698 82.3022 160.058 82.5977 160.409 82.9394L159.938 83.4196C159.578 83.0317 159.227 82.727 158.876 82.4962L159.319 82.0622H159.329Z" fill="#231815"/>
<path d="M163.06 82.5332H164.205V81.1389L164.934 81.2312C165.017 81.2404 165.054 81.2682 165.054 81.3236C165.054 81.3882 164.999 81.4713 164.879 81.5452V82.524H165.728V83.2166H164.879V84.9434C165.193 84.7956 165.516 84.6386 165.821 84.4817V85.1742L164.879 85.6267V87.6767C164.879 88.0091 164.796 88.24 164.629 88.3877C164.491 88.5447 164.14 88.6278 163.586 88.6278L163.318 87.8983H163.882C164.075 87.8983 164.186 87.7783 164.195 87.5474V85.9499L163.429 86.3193C163.355 86.4855 163.281 86.5778 163.226 86.5778C163.18 86.5778 163.152 86.5316 163.124 86.4485L162.875 85.719C163.318 85.5805 163.761 85.4143 164.205 85.2389V83.2166H163.06V82.524V82.5332ZM165.941 82.3393H167.381V81.1296L168 81.185C168.12 81.1943 168.175 81.2312 168.175 81.2866C168.175 81.3236 168.138 81.3882 168.055 81.4805V82.3393H169.588V83.0042H168.055V84.3062H168.905C168.988 84.2416 169.043 84.2139 169.053 84.2139C169.099 84.2139 169.145 84.2416 169.2 84.297L169.542 84.6479C169.542 84.6479 169.607 84.7402 169.607 84.7956C169.607 84.8418 169.542 84.9064 169.404 84.9803C169.09 85.9591 168.748 86.6979 168.369 87.1873C168.757 87.5012 169.265 87.806 169.875 88.1199L169.339 88.7201C168.757 88.3785 168.277 88.0368 167.889 87.6859C167.418 88.1015 166.79 88.4339 166.015 88.6924L165.571 88.0553C166.079 87.9352 166.486 87.7967 166.79 87.6305C167.021 87.5012 167.234 87.3627 167.427 87.215C167.344 87.1134 167.261 87.0118 167.187 86.9102C166.827 86.4485 166.569 85.7929 166.412 84.9434H166.061V84.3062H167.354V83.0042H165.913V82.3393H165.941ZM167.03 84.9434C167.169 85.6175 167.409 86.1623 167.751 86.5593C167.797 86.6147 167.843 86.6702 167.898 86.7256C167.926 86.6886 167.945 86.6609 167.963 86.624C168.231 86.2546 168.471 85.6913 168.702 84.9341H167.03V84.9434Z" fill="#231815"/>
<path d="M147.795 83.0317H150.39V83.558C150.178 85.1094 149.467 86.4299 148.257 87.5195L147.703 86.9285C148.165 86.5776 148.58 86.1159 148.95 85.5249C149.319 84.9339 149.559 84.3245 149.661 83.6873H147.795V83.0317ZM151.009 81.3511H151.785V82.7454C151.997 83.3826 152.219 83.8351 152.431 84.1213C153.059 83.5857 153.595 82.9855 154.029 82.293L154.61 82.7731C153.982 83.595 153.382 84.2414 152.828 84.7123C152.828 84.8047 153.022 85.0632 153.419 85.5157C153.816 85.9682 154.315 86.4022 154.924 86.8269L154.453 87.5103C153.234 86.4945 152.339 85.4233 151.775 84.2783V87.5934C151.775 87.935 151.729 88.1751 151.628 88.2952C151.535 88.4245 151.332 88.4983 151.027 88.4983H149.993L149.818 87.7688L150.732 87.8058C150.907 87.8058 151 87.7227 151 87.5564V81.3511H151.009Z" fill="#231815"/>
</g>
</g>
<defs>
<filter id="filter0_d_225_18664" x="0.947266" y="0" width="238" height="160" filterUnits="userSpaceOnUse" color-interpolation-filters="sRGB">
<feFlood flood-opacity="0" result="BackgroundImageFix"/>
<feColorMatrix in="SourceAlpha" type="matrix" values="0 0 0 0 0 0 0 0 0 0 0 0 0 0 0 0 0 0 127 0" result="hardAlpha"/>
<feOffset dy="1"/>
<feGaussianBlur stdDeviation="10"/>
<feComposite in2="hardAlpha" operator="out"/>
<feColorMatrix type="matrix" values="0 0 0 0 0 0 0 0 0 0 0 0 0 0 0 0 0 0 0.08 0"/>
<feBlend mode="normal" in2="BackgroundImageFix" result="effect1_dropShadow_225_18664"/>
<feBlend mode="normal" in="SourceGraphic" in2="effect1_dropShadow_225_18664" result="shape"/>
</filter>
<radialGradient id="paint0_radial_225_18664" cx="0" cy="0" r="1" gradientUnits="userSpaceOnUse" gradientTransform="translate(86.6279 76.4846) scale(14.6454 14.6454)">
<stop stop-color="white"/>
<stop offset="0.04" stop-color="#F3FBFE"/>
<stop offset="0.12" stop-color="#D4F2FB"/>
<stop offset="0.23" stop-color="#A1E3F8"/>
<stop offset="0.36" stop-color="#5CCFF3"/>
<stop offset="0.48" stop-color="#13BAEE"/>
<stop offset="0.84" stop-color="#152E81"/>
</radialGradient>
<clipPath id="clip0_225_18664">
<rect x="20.9473" y="19" width="198" height="120" rx="7.02062" fill="white"/>
</clipPath>
</defs>
</svg>
