<svg width="240" height="160" viewBox="0 0 240 160" fill="none" xmlns="http://www.w3.org/2000/svg">
<g filter="url(#filter0_d_226_20461)">
<g clip-path="url(#clip0_226_20461)">
<rect x="20.4736" y="19" width="199" height="120" rx="7.02062" fill="white"/>
<rect x="20.4736" y="19" width="199" height="120" fill="white"/>
<g clip-path="url(#clip1_226_20461)">
<mask id="mask0_226_20461" style="mask-type:luminance" maskUnits="userSpaceOnUse" x="66" y="60" width="116" height="40">
<path d="M181.69 60H66.7998V99.31H181.69V60Z" fill="white"/>
</mask>
<g mask="url(#mask0_226_20461)">
<path d="M181.7 60H66.8096V99.31H181.7V60Z" fill="#113362"/>
<path d="M122.82 80.9501C123.27 80.9201 123.5 80.6901 123.5 80.2601C123.5 80.1201 123.47 79.9801 123.42 79.8601C123.3 79.5901 123.08 79.4601 122.78 79.4801C122.77 79.4801 122.75 79.4801 122.72 79.4801L121.62 79.5601L121.74 78.0701L122.01 78.0501C122.46 78.0201 122.68 77.7701 122.68 77.3101C122.68 77.1501 122.64 77.0001 122.57 76.8701C122.3 76.3701 121.46 76.5701 121.01 76.6101C120.44 76.6701 119.86 76.7301 119.29 76.7801C119.25 76.7801 119.08 76.7901 119.08 76.7901L119.06 75.8701C119.06 75.8701 119.5 75.9001 119.73 75.8401C120.62 75.6101 121.38 74.9501 121.77 74.1301C121.89 73.8801 122.24 73.1901 122.04 72.9101C121.86 72.6601 121.55 73.2101 121.48 73.3401C121.01 74.2601 119.95 74.6901 118.95 74.5801C118.46 74.5301 118 74.3201 117.55 74.1501C117.12 73.9901 116.68 73.8801 116.24 73.9601C115.84 74.0301 115.48 74.2401 115.2 74.5401C114.96 74.7901 114.47 75.4501 114.58 75.8201C114.68 76.1401 115.39 75.3901 115.54 75.3001C116.18 74.9301 116.83 75.2201 117.45 75.5401V76.9301L114.48 77.1901C114.03 77.2201 113.81 77.4601 113.81 77.9001C113.81 78.1101 113.86 78.2901 113.97 78.4301C114.09 78.5901 114.25 78.6601 114.46 78.6601C114.48 78.6601 114.51 78.6601 114.57 78.6601L114.89 78.6401L115.01 80.0301L114.26 80.0801C113.81 80.1101 113.59 80.3601 113.59 80.8201C113.59 81.0201 113.65 81.1901 113.76 81.3201C113.89 81.4601 114.06 81.5301 114.27 81.5301C114.3 81.5301 114.32 81.5301 114.34 81.5301L115.13 81.4801L115.27 82.9601L114.62 83.0001C114.17 83.0201 113.95 83.2801 113.95 83.7601C113.95 83.9601 114 84.1301 114.09 84.2601C114.21 84.4201 114.38 84.5001 114.6 84.5001C114.6 84.5001 114.63 84.5001 114.67 84.5001L117.42 84.3501V85.7501L114.44 85.8901C113.97 85.9101 113.74 86.1801 113.74 86.7001C113.74 86.9501 113.81 87.1501 113.95 87.3001C114.09 87.4401 114.26 87.5101 114.46 87.5001H114.5L122.45 87.1901C122.92 87.1701 123.15 86.8901 123.15 86.3401C123.15 85.9001 122.99 85.6501 122.67 85.5801C122.52 85.5401 122.43 85.5301 122.39 85.5301L119.09 85.6801V84.2601L122.15 84.0901C122.59 84.0701 122.8 83.8101 122.81 83.3101C122.81 83.0501 122.73 82.8501 122.57 82.7001C122.45 82.5901 122.29 82.5401 122.1 82.5601L121.39 82.6001L121.51 81.0601L122.83 80.9701L122.82 80.9501ZM117.43 82.8201L116.69 82.8601L116.59 81.3601L117.43 81.3101V82.8201ZM117.44 79.8501L116.5 79.9201L116.41 78.5001L117.44 78.4201V79.8501ZM119.9 82.6701L119.07 82.7201V81.2001L119.99 81.1401L119.91 82.6701H119.9ZM120.07 79.6701L119.08 79.7401V78.2901L120.15 78.2101L120.07 79.6801V79.6701Z" fill="white" stroke="#231815" stroke-width="0.89" stroke-miterlimit="10"/>
<path d="M112.4 74.7302C112.31 74.7302 112.2 74.7302 112.07 74.7502L110.53 74.9502C110.38 74.7602 110.15 74.6702 109.85 74.6702C109.67 74.6702 109.51 74.7102 109.37 74.8002C109.17 74.9202 109.07 75.1002 109.07 75.3402L109.04 85.3102C109.04 85.4502 109.07 85.5702 109.14 85.6702C109.28 85.8902 109.51 86.0002 109.82 86.0002C110.17 86.0002 110.41 85.8802 110.54 85.6302C110.58 85.5402 110.61 85.4402 110.61 85.3102L111.92 85.2002V85.3402C111.92 85.4802 111.95 85.6002 112.02 85.7002C112.17 85.9102 112.39 86.0102 112.68 86.0102C112.9 86.0102 113.09 85.9502 113.24 85.8202C113.38 85.7002 113.45 85.5402 113.45 85.3502L113.48 76.0302C113.48 75.1702 113.12 74.7502 112.39 74.7402L112.4 74.7302ZM111.93 83.6302L110.62 83.7402V82.1802L111.93 82.0502V83.6302ZM111.94 80.6502L110.63 80.7702V79.3702L111.94 79.2302V80.6502ZM111.95 77.8402L110.64 77.9802V76.5102L111.59 76.4002C111.6 76.4002 111.62 76.4002 111.66 76.4002C111.86 76.4002 111.96 76.5102 111.95 76.7402V77.8502V77.8402Z" fill="white" stroke="#231815" stroke-width="0.89" stroke-miterlimit="10"/>
<path d="M89.0597 74.5501C89.7197 75.1201 90.1997 75.6001 90.5097 75.9901C90.6797 76.1901 90.8797 76.2901 91.1197 76.3001C91.4297 76.3001 91.6697 76.1701 91.8497 75.9201C91.9797 75.7401 92.0497 75.5501 92.0497 75.3501C92.0497 75.0701 91.9297 74.8201 91.6997 74.6101C91.5297 74.4601 91.3097 74.3001 91.0197 74.1201C90.1597 73.5901 89.5797 73.3301 89.2997 73.3301C89.1097 73.3301 88.9497 73.4001 88.8397 73.5301C88.7397 73.6501 88.6797 73.7801 88.6797 73.9301C88.6797 74.1401 88.7997 74.3501 89.0497 74.5601L89.0597 74.5501Z" fill="white" stroke="#231815" stroke-width="0.89" stroke-miterlimit="10"/>
<path d="M103.86 83.1501C103.62 83.2401 103.45 83.4601 103.29 83.6201C102.93 83.9701 102.57 84.3001 102.14 84.5801C101.26 85.1501 100.21 85.5101 99.1201 85.6401C97.3001 85.8501 95.7701 85.2001 94.0901 84.6301C93.1801 84.3201 92.2301 84.0701 91.2601 84.0501C91.5301 83.7401 91.7401 83.4001 91.9001 83.2401C92.1701 82.9601 92.3101 82.6901 92.3101 82.4401C92.3101 82.2201 92.2001 82.0301 91.9701 81.8701C91.8601 81.7901 91.6801 81.6901 91.4301 81.5701C91.2301 81.4701 91.1301 81.3501 91.1301 81.2201C91.1301 80.9601 91.3801 80.4501 91.8701 79.6701C92.0701 79.3501 92.1701 79.0801 92.1701 78.8601C92.1701 78.6001 92.0701 78.4001 91.8601 78.2701C91.7001 78.1701 91.5101 78.1201 91.2801 78.1201C91.1701 78.1201 91.0601 78.1201 90.9501 78.1501L88.7601 78.5401C88.3701 78.6101 88.1701 78.8501 88.1701 79.2801C88.1701 79.3801 88.1901 79.5001 88.2401 79.6401C88.3601 79.9601 88.5601 80.1201 88.8501 80.1201C88.9401 80.1201 89.0301 80.1101 89.1301 80.0801L90.1801 79.8301C89.8201 80.5701 89.6501 81.1101 89.6501 81.4501C89.6501 81.7501 89.8201 81.9901 90.1801 82.1701C90.3901 82.2701 90.4901 82.3901 90.4901 82.5201C90.4901 82.8101 90.5501 83.4501 89.9301 84.1801C88.8501 84.4301 87.8901 85.0001 87.3501 85.8701C87.2501 86.0401 87.2101 86.2401 87.3001 86.3401C87.3601 86.4101 87.4801 86.4301 87.6701 86.3801C88.2901 86.2201 88.8301 85.8901 89.4601 85.7401C91.3701 85.2701 93.1601 86.3301 94.8501 87.0001C95.2701 87.1601 95.7101 87.3101 96.1701 87.4301C96.6301 87.5501 97.1201 87.6301 97.6101 87.6501H97.9801L98.3501 87.6401C98.6001 87.6401 98.8301 87.5901 99.0701 87.5601C100.18 87.3901 101.28 86.8201 102.16 86.2401C102.91 85.7401 103.72 85.0701 104.03 84.2601C104.1 84.0701 104.55 82.9001 103.89 83.1501H103.86Z" fill="white" stroke="#231815" stroke-width="0.89" stroke-miterlimit="10"/>
<path d="M93.4 75.78C93.4 75.78 93.43 75.78 93.48 75.78L94.55 75.7C94.75 76.1 94.91 76.47 95.04 76.8C95.06 76.85 95.08 76.9 95.09 76.94L94.4 76.99C94.23 76.84 94.02 76.77 93.79 76.77C93.61 76.77 93.44 76.82 93.29 76.91C93.06 77.04 92.95 77.24 92.95 77.51L92.93 83.56C92.93 83.69 92.96 83.81 93.02 83.92C93.16 84.15 93.41 84.26 93.76 84.26C94.02 84.26 94.24 84.19 94.4 84.06C94.55 83.94 94.62 83.77 94.62 83.56L94.64 78.21L96.72 78.05C96.61 78.17 96.56 78.31 96.56 78.47V78.82L95.42 78.92C95.06 78.95 94.88 79.15 94.88 79.52C94.88 79.65 94.91 79.76 94.96 79.85C95.07 80.02 95.23 80.09 95.42 80.08H95.5L96.55 79.99V80.67L96.31 80.69C96.19 80.59 96.03 80.53 95.83 80.53C95.39 80.53 95.18 80.7 95.18 81.04C95.18 81.05 95.18 81.07 95.18 81.11L95.38 83.25C95.42 83.64 95.63 83.84 96.02 83.84C96.36 83.84 96.56 83.71 96.64 83.45L98.89 83.31C99.25 83.29 99.44 83.11 99.44 82.79C99.44 82.61 99.38 82.47 99.26 82.37L99.46 81.41C99.48 81.34 99.48 81.26 99.48 81.17C99.48 80.71 99.22 80.48 98.69 80.48C98.62 80.48 98.58 80.48 98.55 80.48L98.06 80.53V79.87L99.25 79.77C99.62 79.74 99.81 79.54 99.81 79.17C99.81 78.97 99.74 78.82 99.61 78.73C99.49 78.64 99.35 78.6 99.19 78.61L98.06 78.7V78.47C98.06 78.26 97.97 78.09 97.78 77.96L99.67 77.81H99.69C99.95 77.78 100.08 77.92 100.08 78.22L100.06 83.32C100.06 83.52 99.98 83.62 99.83 83.62C99.66 83.62 99.49 83.6 99.32 83.55C99.2 83.52 99.09 83.5 99.02 83.5C98.71 83.5 98.55 83.64 98.55 83.93C98.55 84.18 98.7 84.39 99.01 84.54C99.72 84.89 100.54 84.93 101.17 84.38C101.57 84.03 101.69 83.62 101.73 83.11C101.77 82.53 101.79 81.94 101.8 81.35C101.81 80.2 101.78 79.06 101.79 77.91C101.79 77.48 101.73 77.17 101.61 76.96C101.46 76.68 101.14 76.54 100.66 76.54C100.6 76.54 100.52 76.54 100.4 76.55L99.55 76.61C99.75 76.18 99.92 75.73 100.06 75.27L101.1 75.2C101.51 75.16 101.72 74.93 101.72 74.49C101.72 73.98 101.49 73.73 101.03 73.73C101 73.73 100.98 73.73 100.98 73.73L98.09 73.95V73.32C98.09 73.11 98.02 72.93 97.88 72.8C97.7 72.63 97.48 72.54 97.21 72.54C97 72.54 96.82 72.59 96.66 72.69C96.43 72.83 96.32 73.04 96.32 73.32V74.09L93.37 74.31C92.95 74.34 92.75 74.59 92.75 75.05C92.75 75.27 92.81 75.44 92.93 75.57C93.05 75.71 93.21 75.77 93.41 75.77L93.4 75.78ZM97.81 81.55H97.84C97.98 81.52 98.05 81.59 98.05 81.74C98.05 81.78 98.05 81.8 98.05 81.8L97.96 82.3L96.58 82.4L96.53 81.67L97.81 81.56V81.55ZM98.4 75.39C98.27 75.85 98.13 76.29 97.98 76.71L96.53 76.81C96.38 76.26 96.24 75.84 96.12 75.56L98.4 75.39Z" fill="white" stroke="#231815" stroke-width="0.89" stroke-miterlimit="10"/>
<path d="M83.4798 78.5199C83.3698 78.5199 83.2598 78.5099 83.1498 78.5099L82.0598 78.5399C82.0598 78.2299 81.9398 77.9799 81.6698 77.7799C81.6498 77.7699 81.6298 77.7599 81.6098 77.7399C82.3598 77.1299 82.9898 76.4799 83.5098 75.7699C83.7398 75.4599 83.8698 75.1699 83.8898 74.9199C83.9298 74.3999 83.6098 74.1099 82.9398 74.0599C82.8498 74.0599 82.7698 74.0499 82.7198 74.0599L78.1698 74.1399C77.7098 74.1499 77.4598 74.3999 77.4198 74.8799C77.3998 75.1499 77.4698 75.3699 77.6298 75.5299C77.7598 75.6599 77.9298 75.7399 78.1498 75.7599C78.2098 75.7599 78.2498 75.7599 78.2898 75.7599L81.1798 75.6499C81.1798 75.6499 81.2598 75.6499 81.2898 75.6499C81.4098 75.6499 81.4698 75.6999 81.4698 75.7799C81.4498 75.9899 81.1198 76.3899 80.4698 76.9799C79.7198 76.5099 79.2298 76.2699 78.9898 76.2499C78.7898 76.2299 78.6298 76.2899 78.5198 76.4199C78.4198 76.5299 78.3698 76.6599 78.3598 76.8099C78.3398 77.0599 78.4698 77.2999 78.7398 77.5099C79.3698 77.9999 79.8198 78.3599 80.0898 78.5799L77.6898 78.6399C77.2398 78.6499 76.9898 78.8999 76.9498 79.3799C76.9398 79.5399 76.9498 79.6899 76.9998 79.8199C77.0998 80.1099 77.2998 80.2699 77.5898 80.2899C77.6298 80.2899 77.6798 80.2899 77.7198 80.2899L79.4398 80.2199C79.3898 81.1599 79.3398 82.0899 79.2698 83.0199C79.2298 83.5999 79.1798 84.1799 79.1298 84.7499C79.0898 85.1899 79.0998 85.6499 78.9498 86.0699C78.7998 86.4999 78.5198 86.6799 78.1298 86.8699C78.0698 86.8999 77.9998 86.9399 77.9898 87.0099C77.9898 87.0599 78.0098 87.1099 78.0498 87.1399C78.5798 87.5399 79.5898 87.4199 80.0698 87.0099C80.2098 86.8899 80.3198 86.7499 80.3998 86.5899C80.5998 86.2099 80.6598 85.7699 80.7198 85.3499C80.7898 84.8399 80.8398 84.3299 80.8898 83.8199C80.9598 82.9699 80.9898 82.1299 81.0598 81.2799C81.0798 80.8999 81.1198 80.5199 81.1498 80.1399L82.0598 80.0999C82.0598 80.0999 82.1198 80.0999 82.1798 80.0999C82.3198 80.1099 82.3898 80.1699 82.3798 80.2899C82.3798 80.3799 82.2598 80.6699 82.0298 81.1399C81.8298 81.5699 81.7198 81.8399 81.7198 81.9599C81.6998 82.1899 81.7698 82.3599 81.9298 82.4699C82.0398 82.5499 82.1498 82.5999 82.2498 82.5999C82.4898 82.6199 82.7498 82.4499 83.0298 82.0899C83.8998 80.9899 84.3598 80.0899 84.4198 79.3699C84.4598 78.8299 84.1498 78.5399 83.4898 78.4799L83.4798 78.5199Z" fill="white" stroke="#231815" stroke-width="0.89" stroke-miterlimit="10"/>
<path d="M76.0498 80.6199C76.4798 80.6199 76.7098 80.3699 76.7498 79.8999C76.7698 79.6699 76.7198 79.4799 76.5898 79.3299C76.4798 79.1899 76.3198 79.1099 76.1298 79.0999C76.0998 79.0999 76.0798 79.0999 76.0398 79.0999L74.4198 79.1399L74.4998 78.1899L75.4298 78.1699C75.8498 78.1699 76.0698 77.9299 76.1098 77.4699C76.1298 77.2399 76.0598 77.0499 75.9098 76.9199C75.7898 76.8099 75.6498 76.7399 75.4598 76.7299C75.4298 76.7299 75.3998 76.7299 75.3598 76.7299L72.2798 76.7999C72.9898 76.0999 73.5898 75.4199 74.0998 74.7599C74.4798 75.1199 75.0598 75.7399 75.8298 76.6199C76.0598 76.8899 76.2998 77.0299 76.5498 77.0499C76.8098 77.0699 77.0198 76.9999 77.1798 76.8299C77.3398 76.6699 77.4298 76.4899 77.4498 76.2899C77.4698 76.0199 77.3498 75.7699 77.0998 75.5299C77.0598 75.4999 76.9398 75.3899 76.7498 75.2099C75.9798 74.4699 75.3298 73.9299 74.7898 73.5999C74.8098 73.2599 74.6998 73.0099 74.4598 72.8399C74.3098 72.7299 74.1398 72.6699 73.9698 72.6499C73.6198 72.6199 73.3298 72.7999 73.0898 73.1799C72.0398 74.8199 71.0498 76.0499 70.0998 76.8699C69.8898 77.0499 69.7598 77.1699 69.7098 77.2099C69.5998 77.3399 69.5298 77.4699 69.5198 77.6199C69.5098 77.7899 69.5598 77.9399 69.6798 78.0899C69.7898 78.2299 69.9298 78.3099 70.0998 78.3199C70.2998 78.3399 70.5098 78.2599 70.7298 78.0999C70.8598 78.0099 71.0298 77.8799 71.2298 77.7299C71.2998 78.0599 71.4898 78.2299 71.7998 78.2599C71.8298 78.2599 71.8598 78.2599 71.8898 78.2599L72.7698 78.2399L72.6898 79.1899L70.4598 79.2499C70.0398 79.2599 69.8198 79.4899 69.7798 79.9099C69.7698 80.0599 69.7798 80.2099 69.8298 80.3399C69.9198 80.6099 70.1098 80.7499 70.3898 80.7699C70.4098 80.7699 70.4398 80.7699 70.4798 80.7699L72.5598 80.7099L72.4598 81.9699L71.7598 81.9999C71.6198 81.8799 71.4298 81.8099 71.1798 81.7899C70.6198 81.7499 70.3198 81.9499 70.2798 82.4099C70.2798 82.4299 70.2798 82.4499 70.2798 82.4899L70.3498 86.1699C70.3498 86.6399 70.6198 86.8899 71.1198 86.9299C71.5198 86.9599 71.8098 86.8299 71.9698 86.5299L75.3798 86.4299C75.8598 86.4199 76.1198 86.1899 76.1498 85.7399C76.1798 85.3999 76.0698 85.1599 75.8198 85.0199L76.2298 83.3099C76.2498 83.1999 76.2698 83.0899 76.2798 82.9899C76.3298 82.3099 76.0198 81.9399 75.3298 81.8799C75.2298 81.8799 75.1298 81.8699 75.0298 81.8799L74.1598 81.9099L74.2598 80.6799L75.9998 80.6299L76.0498 80.6199ZM74.1598 83.2899C74.1598 83.2899 74.2298 83.2899 74.2498 83.2899C74.4598 83.3099 74.5498 83.4099 74.5198 83.5899C74.5198 83.6199 74.5198 83.6499 74.4998 83.6999L74.2098 84.9899L72.0498 85.0499L72.0098 83.3299L74.1498 83.2899H74.1598Z" fill="white" stroke="#231815" stroke-width="0.89" stroke-miterlimit="10"/>
<path d="M143.169 86.32C143.119 86.24 143.029 86.2 142.949 86.16C141.849 85.63 141.199 85.67 141.009 84.52C140.819 83.4 140.709 82.3 140.519 81.2L141.529 81.11C141.989 81.07 142.219 80.81 142.219 80.32C142.219 80.07 142.159 79.87 142.029 79.72C141.889 79.56 141.689 79.48 141.449 79.48C141.409 79.48 141.369 79.48 141.329 79.48L140.189 79.59C140.019 79.01 139.749 78.44 139.349 78.07L140.779 77.95C141.239 77.92 141.469 77.67 141.469 77.22C141.469 76.91 141.369 76.69 141.169 76.55L141.589 74.89C141.639 74.71 141.659 74.55 141.659 74.41C141.659 73.79 141.289 73.48 140.529 73.47C140.429 73.47 140.329 73.47 140.229 73.48L134.269 74.02C133.799 74.06 133.569 74.31 133.569 74.76C133.569 75.2 133.759 75.44 134.139 75.5C134.139 75.99 134.139 76.48 134.139 76.97C134.139 78.06 134.139 79.16 134.139 80.25C134.139 81.38 134.139 82.52 134.139 83.65C134.139 84 134.139 84.35 134.139 84.69C134.139 85.26 134.019 85.9 134.399 86.39C134.649 86.71 135.059 86.87 135.459 86.9C135.789 86.93 136.139 86.93 136.469 86.86C136.659 86.82 137.379 86.61 137.289 86.32C137.249 86.16 136.959 86.14 136.829 86.09C136.679 86.04 136.559 85.96 136.429 85.86C136.169 85.65 135.909 85.33 135.859 84.99C135.789 84.57 135.869 84.12 135.879 83.69C135.879 83.22 135.879 82.76 135.879 82.29C135.879 82.06 135.879 81.83 135.879 81.6L138.839 81.34C139.029 82.34 139.019 83.38 139.209 84.38C139.379 85.29 139.789 86.74 140.849 86.95C141.209 87.02 141.579 86.97 141.949 86.92C142.179 86.89 143.459 86.74 143.209 86.31L143.169 86.32ZM135.839 75.37L139.359 75.06C139.359 75.06 139.399 75.06 139.409 75.06C139.579 75.06 139.669 75.12 139.669 75.28C139.669 75.31 139.669 75.34 139.669 75.39L139.459 76.58L135.829 76.89V75.38L135.839 75.37ZM135.829 80.01V78.35L137.109 78.25L137.649 78.21C137.759 78.35 137.899 78.48 137.939 78.58C138.099 78.96 138.239 79.36 138.369 79.76L137.269 79.87L135.819 80.01H135.829Z" fill="white" stroke="#231815" stroke-width="0.89" stroke-miterlimit="10"/>
<path d="M131.939 74.1699C131.839 74.1699 131.749 74.1699 131.669 74.1799L129.849 74.4099C129.679 74.1999 129.449 74.0999 129.149 74.0999C128.959 74.0999 128.799 74.1499 128.659 74.2399C128.459 74.3599 128.359 74.5499 128.349 74.7799L128.319 84.6899C128.319 84.8299 128.349 84.9499 128.419 85.0499C128.559 85.2699 128.789 85.3799 129.109 85.3799C129.449 85.3799 129.689 85.2699 129.829 85.0399C129.889 84.9399 129.919 84.8299 129.919 84.6999L131.449 84.5599V84.7199C131.449 84.8699 131.489 84.9999 131.569 85.1099C131.709 85.2999 131.919 85.3899 132.209 85.3899C132.439 85.3899 132.629 85.3299 132.779 85.1999C132.919 85.0799 132.989 84.9199 132.989 84.7299L133.019 75.4699C133.019 74.6099 132.659 74.1799 131.929 74.1799L131.939 74.1699ZM131.459 82.9799L129.929 83.1299V81.5699L131.459 81.4099V82.9699V82.9799ZM131.469 80.0399L129.939 80.1799V78.7999L131.469 78.6499V80.0399ZM131.469 77.2399L129.939 77.3799V75.9599L131.149 75.8099C131.179 75.8099 131.199 75.8099 131.209 75.8099C131.379 75.7999 131.469 75.8999 131.469 76.1399V77.2499V77.2399Z" fill="white" stroke="#231815" stroke-width="0.89" stroke-miterlimit="10"/>
<path d="M147.499 73.01C147.499 73.19 147.479 73.3 147.439 73.34C147.389 73.39 147.329 73.42 147.259 73.42C147.189 73.42 147.129 73.39 147.079 73.34C147.029 73.29 147.009 73.18 147.009 73V71.3L146.589 72.97C146.539 73.16 146.489 73.28 146.429 73.34C146.379 73.39 146.319 73.41 146.229 73.41C146.139 73.41 146.069 73.38 146.019 73.33C145.969 73.28 145.919 73.16 145.869 72.97L145.459 71.29V72.99C145.459 73.17 145.429 73.28 145.379 73.33C145.329 73.38 145.269 73.41 145.199 73.4C145.129 73.4 145.069 73.38 145.019 73.33C144.969 73.28 144.949 73.17 144.949 72.99V71.09C144.949 70.94 144.989 70.85 145.039 70.8C145.089 70.76 145.169 70.74 145.289 70.74H145.449C145.589 70.74 145.679 70.76 145.729 70.81C145.759 70.84 145.799 70.94 145.839 71.1L146.219 72.54L146.599 71.1C146.639 70.94 146.679 70.85 146.719 70.81C146.769 70.76 146.859 70.74 146.999 70.74H147.159C147.279 70.74 147.369 70.77 147.419 70.82C147.469 70.87 147.489 70.96 147.489 71.1V73L147.499 73.01Z" fill="white" stroke="#231815" stroke-width="0.89" stroke-miterlimit="10"/>
<path d="M144.459 70.95C144.459 71.05 144.419 71.12 144.329 71.14C144.299 71.14 144.219 71.15 144.089 71.15H143.609V72.97C143.609 73.17 143.579 73.29 143.529 73.34C143.469 73.39 143.409 73.42 143.349 73.41C143.229 73.41 143.149 73.36 143.109 73.28C143.089 73.24 143.079 73.13 143.079 72.97V71.15H142.599C142.479 71.15 142.399 71.15 142.359 71.13C142.279 71.1 142.229 71.04 142.229 70.95C142.229 70.86 142.269 70.79 142.349 70.76C142.379 70.75 142.469 70.74 142.599 70.74H144.089C144.259 70.74 144.359 70.76 144.389 70.8C144.439 70.85 144.459 70.9 144.459 70.95Z" fill="white" stroke="#231815" stroke-width="0.89" stroke-miterlimit="10"/>
<path d="M71.0693 65.63H72.2793C72.5193 65.63 72.6993 65.63 72.8193 65.61C72.9293 65.6 73.0393 65.58 73.1493 65.55C73.1793 65.55 73.2093 65.54 73.2293 65.54C73.3093 65.54 73.3793 65.58 73.4493 65.67C73.5493 65.81 73.6093 65.99 73.6093 66.19C73.6093 66.29 73.5893 66.37 73.5493 66.43C73.5093 66.49 73.4493 66.52 73.3693 66.52C73.3193 66.52 73.2793 66.51 73.2493 66.49C73.2193 66.47 73.1793 66.42 73.1293 66.35C73.0593 66.25 72.9693 66.17 72.8693 66.14C72.7593 66.1 72.5893 66.09 72.3493 66.09C72.1693 66.09 72.0593 66.12 72.0193 66.19C71.9993 66.22 71.9893 66.27 71.9793 66.33C71.9793 66.39 71.9793 66.54 71.9793 66.77C71.9793 66.86 71.9993 66.92 72.0293 66.95C72.0593 66.97 72.1393 66.98 72.2793 66.98C72.3493 66.98 72.3893 66.97 72.4193 66.94C72.4493 66.91 72.4693 66.86 72.4793 66.79C72.4893 66.7 72.4993 66.64 72.5093 66.6C72.5193 66.57 72.5393 66.54 72.5693 66.51C72.5993 66.48 72.6393 66.47 72.6893 66.47C72.7493 66.47 72.8093 66.5 72.8493 66.56C72.8793 66.61 72.9093 66.69 72.9293 66.8C72.9493 66.92 72.9593 67.04 72.9593 67.16C72.9593 67.41 72.9193 67.61 72.8393 67.77C72.7993 67.86 72.7293 67.9 72.6493 67.9C72.5993 67.9 72.5593 67.89 72.5393 67.86C72.5193 67.83 72.4993 67.78 72.4893 67.69C72.4693 67.51 72.3593 67.42 72.1793 67.42C72.1093 67.42 72.0593 67.44 72.0393 67.49C72.0093 67.53 71.9993 67.62 71.9993 67.74C71.9993 67.81 71.9993 67.91 72.0193 68.03C72.0293 68.15 72.0393 68.22 72.0493 68.26C72.0593 68.31 72.0993 68.34 72.1693 68.36C72.2393 68.38 72.3393 68.39 72.4993 68.39C72.7393 68.39 72.9093 68.36 73.0293 68.3C73.1493 68.24 73.2493 68.13 73.3193 67.97C73.3593 67.88 73.3993 67.82 73.4393 67.79C73.4793 67.76 73.5193 67.74 73.5793 67.74C73.6493 67.74 73.6993 67.77 73.7393 67.83C73.7793 67.89 73.7993 67.96 73.7993 68.05C73.7993 68.14 73.7793 68.26 73.7293 68.4C73.6793 68.54 73.6193 68.67 73.5493 68.78C73.5093 68.83 73.4793 68.87 73.4593 68.89C73.4393 68.91 73.4093 68.92 73.3693 68.92C73.3393 68.92 73.2993 68.92 73.2393 68.91C73.1393 68.89 73.0093 68.88 72.8393 68.87H70.8493C70.7693 68.87 70.7093 68.85 70.6593 68.82C70.6193 68.78 70.5893 68.74 70.5893 68.67C70.5893 68.62 70.5893 68.59 70.6193 68.57C70.6393 68.55 70.6793 68.52 70.7493 68.49C70.7993 68.47 70.8293 68.44 70.8493 68.41C70.8693 68.38 70.8893 68.34 70.8993 68.28C70.9493 68.04 70.9793 67.72 70.9793 67.32C70.9793 66.71 70.9393 66.33 70.8693 66.17C70.8493 66.14 70.8393 66.12 70.8193 66.1C70.7993 66.09 70.7593 66.07 70.6993 66.06C70.6093 66.03 70.5693 65.97 70.5693 65.88C70.5693 65.83 70.5793 65.79 70.6093 65.75C70.6393 65.71 70.6793 65.69 70.7293 65.67C70.7893 65.66 70.9093 65.65 71.0893 65.65L71.0693 65.63Z" fill="#D9A429"/>
<path d="M77.9193 67.21L78.3593 68.16C78.3993 68.25 78.4393 68.31 78.4693 68.33C78.4993 68.36 78.5393 68.38 78.5993 68.39C78.7093 68.41 78.7693 68.46 78.7693 68.56C78.7693 68.67 78.6993 68.76 78.5593 68.81C78.4193 68.86 78.1993 68.89 77.8793 68.89C77.5293 68.89 77.2593 68.88 77.0893 68.85C77.0093 68.84 76.9493 68.81 76.8993 68.76C76.8493 68.72 76.8293 68.66 76.8293 68.6C76.8293 68.55 76.8393 68.52 76.8693 68.49C76.8893 68.46 76.9393 68.44 77.0093 68.42C77.0793 68.4 77.1193 68.35 77.1193 68.29C77.1193 68.19 77.0593 68.12 76.9293 68.1C76.7893 68.08 76.5993 68.07 76.3493 68.07C76.1393 68.07 76.0193 68.08 75.9793 68.11C75.9493 68.13 75.9293 68.15 75.9093 68.19C75.8893 68.23 75.8793 68.27 75.8793 68.31C75.8793 68.34 75.8793 68.37 75.8993 68.38C75.9093 68.39 75.9593 68.41 76.0293 68.43C76.1293 68.46 76.1693 68.51 76.1693 68.6C76.1693 68.79 75.9493 68.88 75.4993 68.88C75.2493 68.88 75.0593 68.86 74.9393 68.83C74.8293 68.8 74.7793 68.73 74.7793 68.61C74.7793 68.56 74.7893 68.52 74.8193 68.5C74.8393 68.47 74.8893 68.45 74.9493 68.43C75.0493 68.39 75.1293 68.34 75.1793 68.28C75.2293 68.21 75.3093 68.08 75.3993 67.86L75.7293 67.13C75.8493 66.86 75.9293 66.66 75.9793 66.53C76.0193 66.4 76.0393 66.27 76.0393 66.14C76.0393 66.01 76.0393 65.91 76.0593 65.86C76.0693 65.81 76.1093 65.76 76.1593 65.71C76.2693 65.6 76.4093 65.55 76.5693 65.55C76.7293 65.55 76.8793 65.61 77.0193 65.74C77.2193 65.91 77.5093 66.4 77.8893 67.22L77.9193 67.21ZM76.2793 67.51H76.7393C76.8193 67.51 76.8693 67.49 76.8693 67.45C76.8693 67.4 76.8093 67.27 76.6893 67.07C76.6393 66.98 76.5993 66.92 76.5693 66.88C76.5393 66.85 76.5093 66.83 76.4793 66.83C76.4193 66.83 76.3793 66.88 76.3393 66.99C76.3393 67 76.3093 67.06 76.2693 67.16C76.1993 67.32 76.1693 67.42 76.1693 67.45C76.1693 67.49 76.2093 67.51 76.2793 67.51Z" fill="#D9A429"/>
<path d="M81.2391 65.5601C81.3991 65.5601 81.6091 65.6001 81.8691 65.6801C81.8991 65.6801 81.9291 65.6901 81.9491 65.6901C81.9691 65.6901 82.0091 65.6801 82.0891 65.6501C82.1191 65.6501 82.1391 65.6401 82.1691 65.6401C82.2791 65.6401 82.3891 65.7201 82.4991 65.8901C82.6191 66.0601 82.6791 66.2101 82.6791 66.3701C82.6791 66.4601 82.6491 66.5301 82.5991 66.5901C82.5491 66.6501 82.4791 66.6801 82.4091 66.6801C82.3491 66.6801 82.2991 66.6701 82.2591 66.6401C82.2191 66.6101 82.1291 66.5401 81.9991 66.4201C81.8091 66.2401 81.6291 66.1601 81.4391 66.1601C81.3491 66.1601 81.2791 66.1801 81.2291 66.2201C81.1791 66.2601 81.1491 66.3201 81.1491 66.3901C81.1491 66.5301 81.2691 66.6301 81.5091 66.7001C81.8291 66.8001 82.0391 66.8701 82.1291 66.9101C82.5291 67.1001 82.7291 67.3901 82.7291 67.7701C82.7291 68.1001 82.5891 68.3801 82.3191 68.5901C82.0391 68.8101 81.6791 68.9101 81.2291 68.9101C81.0291 68.9101 80.8191 68.8901 80.5991 68.8401C80.3791 68.7901 80.2191 68.7401 80.1191 68.6701C80.0391 68.6201 79.9791 68.5101 79.9191 68.3401C79.8591 68.1701 79.8291 68.0101 79.8291 67.8501C79.8291 67.7701 79.8491 67.7201 79.8791 67.6801C79.9191 67.6301 79.9691 67.6001 80.0291 67.6001C80.0891 67.6001 80.1491 67.6301 80.1991 67.6901C80.2291 67.7201 80.3091 67.8401 80.4291 68.0201C80.4891 68.1101 80.5791 68.1801 80.7091 68.2401C80.8391 68.3001 80.9691 68.3301 81.0991 68.3301C81.2191 68.3301 81.3091 68.3101 81.3791 68.2701C81.4491 68.2301 81.4891 68.1701 81.4891 68.1001C81.4891 68.0401 81.4591 67.9801 81.4091 67.9401C81.3491 67.8901 81.2591 67.8501 81.1291 67.8101C80.9091 67.7401 80.7291 67.6701 80.6191 67.6201C80.4991 67.5601 80.3891 67.4901 80.2891 67.4001C80.0391 67.1801 79.9191 66.9301 79.9191 66.6501C79.9191 66.5101 79.9491 66.3801 80.0191 66.2501C80.0791 66.1201 80.1791 66.0101 80.2891 65.9101C80.5491 65.6901 80.8691 65.5801 81.2491 65.5801L81.2391 65.5601Z" fill="#D9A429"/>
<path d="M84.3789 65.63H85.5889C85.8289 65.63 86.0089 65.63 86.1289 65.61C86.2389 65.6 86.3489 65.58 86.4589 65.55C86.4889 65.55 86.5189 65.54 86.5389 65.54C86.6189 65.54 86.6889 65.58 86.7589 65.67C86.8589 65.81 86.9189 65.99 86.9189 66.19C86.9189 66.29 86.8989 66.37 86.8589 66.43C86.8189 66.49 86.7589 66.52 86.6789 66.52C86.6289 66.52 86.5889 66.51 86.5589 66.49C86.5289 66.47 86.4889 66.42 86.4389 66.35C86.3689 66.25 86.2789 66.17 86.1789 66.14C86.0689 66.1 85.8989 66.09 85.6589 66.09C85.4789 66.09 85.3689 66.12 85.3289 66.19C85.3089 66.22 85.2989 66.27 85.2889 66.33C85.2889 66.39 85.2889 66.54 85.2889 66.77C85.2889 66.86 85.3089 66.92 85.3389 66.95C85.3689 66.97 85.4489 66.98 85.5889 66.98C85.6589 66.98 85.6989 66.97 85.7289 66.94C85.7589 66.91 85.7789 66.86 85.7889 66.79C85.7989 66.7 85.8089 66.64 85.8189 66.6C85.8289 66.57 85.8489 66.54 85.8789 66.51C85.9089 66.48 85.9489 66.47 85.9989 66.47C86.0589 66.47 86.1189 66.5 86.1589 66.56C86.1889 66.61 86.2189 66.69 86.2389 66.8C86.2589 66.92 86.2689 67.04 86.2689 67.16C86.2689 67.41 86.2289 67.61 86.1489 67.77C86.1089 67.86 86.0389 67.9 85.9589 67.9C85.9089 67.9 85.8689 67.89 85.8489 67.86C85.8289 67.83 85.8089 67.78 85.7989 67.69C85.7789 67.51 85.6689 67.42 85.4889 67.42C85.4189 67.42 85.3689 67.44 85.3489 67.49C85.3189 67.53 85.3089 67.62 85.3089 67.74C85.3089 67.81 85.3089 67.91 85.3289 68.03C85.3389 68.15 85.3489 68.22 85.3589 68.26C85.3689 68.31 85.4089 68.34 85.4789 68.36C85.5489 68.38 85.6489 68.39 85.8089 68.39C86.0489 68.39 86.2189 68.36 86.3389 68.3C86.4589 68.24 86.5589 68.13 86.6289 67.97C86.6689 67.88 86.7089 67.82 86.7489 67.79C86.7889 67.76 86.8289 67.74 86.8889 67.74C86.9589 67.74 87.0089 67.77 87.0489 67.83C87.0889 67.89 87.1089 67.96 87.1089 68.05C87.1089 68.14 87.0889 68.26 87.0389 68.4C86.9889 68.54 86.9289 68.67 86.8589 68.78C86.8189 68.83 86.7889 68.87 86.7689 68.89C86.7489 68.91 86.7189 68.92 86.6789 68.92C86.6489 68.92 86.6089 68.92 86.5489 68.91C86.4489 68.89 86.3189 68.88 86.1489 68.87H84.1589C84.0789 68.87 84.0189 68.85 83.9689 68.82C83.9289 68.78 83.8989 68.74 83.8989 68.67C83.8989 68.62 83.8989 68.59 83.9289 68.57C83.9489 68.55 83.9889 68.52 84.0589 68.49C84.1089 68.47 84.1389 68.44 84.1589 68.41C84.1789 68.38 84.1989 68.34 84.2089 68.28C84.2589 68.04 84.2889 67.72 84.2889 67.32C84.2889 66.71 84.2489 66.33 84.1789 66.17C84.1589 66.14 84.1489 66.12 84.1289 66.1C84.1089 66.09 84.0689 66.07 84.0089 66.06C83.9189 66.03 83.8789 65.97 83.8789 65.88C83.8789 65.83 83.8889 65.79 83.9189 65.75C83.9489 65.71 83.9889 65.69 84.0389 65.67C84.0989 65.66 84.2189 65.65 84.3989 65.65L84.3789 65.63Z" fill="#D9A429"/>
<path d="M91.7694 65.5601C91.9294 65.5601 92.1394 65.6001 92.3994 65.6801C92.4294 65.6801 92.4594 65.6901 92.4794 65.6901C92.4994 65.6901 92.5394 65.6801 92.6194 65.6501C92.6494 65.6501 92.6694 65.6401 92.6994 65.6401C92.8094 65.6401 92.9194 65.7201 93.0294 65.8901C93.1494 66.0601 93.2094 66.2101 93.2094 66.3701C93.2094 66.4601 93.1794 66.5301 93.1294 66.5901C93.0794 66.6501 93.0094 66.6801 92.9394 66.6801C92.8794 66.6801 92.8294 66.6701 92.7894 66.6401C92.7494 66.6101 92.6594 66.5401 92.5294 66.4201C92.3394 66.2401 92.1594 66.1601 91.9694 66.1601C91.8794 66.1601 91.8094 66.1801 91.7594 66.2201C91.7094 66.2601 91.6794 66.3201 91.6794 66.3901C91.6794 66.5301 91.7994 66.6301 92.0394 66.7001C92.3594 66.8001 92.5694 66.8701 92.6594 66.9101C93.0594 67.1001 93.2594 67.3901 93.2594 67.7701C93.2594 68.1001 93.1194 68.3801 92.8494 68.5901C92.5694 68.8101 92.2094 68.9101 91.7594 68.9101C91.5594 68.9101 91.3494 68.8901 91.1294 68.8401C90.9094 68.7901 90.7494 68.7401 90.6494 68.6701C90.5694 68.6201 90.5094 68.5101 90.4494 68.3401C90.3894 68.1701 90.3594 68.0101 90.3594 67.8501C90.3594 67.7701 90.3794 67.7201 90.4094 67.6801C90.4494 67.6301 90.4994 67.6001 90.5594 67.6001C90.6194 67.6001 90.6794 67.6301 90.7294 67.6901C90.7594 67.7201 90.8394 67.8401 90.9594 68.0201C91.0194 68.1101 91.1094 68.1801 91.2394 68.2401C91.3694 68.3001 91.4994 68.3301 91.6294 68.3301C91.7494 68.3301 91.8394 68.3101 91.9094 68.2701C91.9794 68.2301 92.0194 68.1701 92.0194 68.1001C92.0194 68.0401 91.9894 67.9801 91.9394 67.9401C91.8794 67.8901 91.7894 67.8501 91.6594 67.8101C91.4394 67.7401 91.2594 67.6701 91.1494 67.6201C91.0294 67.5601 90.9194 67.4901 90.8194 67.4001C90.5694 67.1801 90.4494 66.9301 90.4494 66.6501C90.4494 66.5101 90.4794 66.3801 90.5494 66.2501C90.6094 66.1201 90.7094 66.0101 90.8194 65.9101C91.0794 65.6901 91.3994 65.5801 91.7794 65.5801L91.7694 65.5601Z" fill="#D9A429"/>
<path d="M95.9289 66.6501V67.7301C95.9289 67.9701 95.9489 68.1301 95.9889 68.2001C96.0389 68.2801 96.1489 68.3201 96.3189 68.3201C96.4989 68.3201 96.6389 68.2801 96.7389 68.2001C96.8389 68.1201 96.9189 68.0001 96.9589 67.8301C96.9789 67.7301 97.0389 67.6801 97.1189 67.6801C97.1989 67.6801 97.2689 67.7201 97.3189 67.7901C97.3689 67.8601 97.3989 67.9601 97.3989 68.0801C97.3989 68.2701 97.3289 68.4801 97.1789 68.7001C97.1289 68.7701 97.0889 68.8201 97.0589 68.8401C97.0289 68.8701 96.9789 68.8801 96.9389 68.8801L96.4189 68.8201H94.7789C94.6689 68.8201 94.5989 68.8101 94.5489 68.7801C94.4889 68.7401 94.4489 68.6901 94.4489 68.6201C94.4489 68.5801 94.4589 68.5401 94.4789 68.5201C94.4989 68.5001 94.5489 68.4701 94.6289 68.4301C94.7189 68.3901 94.7789 68.3301 94.7989 68.2501C94.8189 68.1901 94.8289 68.0001 94.8289 67.6901C94.8289 67.5501 94.8289 67.3401 94.8189 67.0701C94.8189 66.8101 94.8089 66.6101 94.8089 66.4801C94.8089 66.3501 94.8089 66.2701 94.7789 66.2201C94.7589 66.1701 94.7189 66.1401 94.6589 66.1201C94.5589 66.0801 94.4889 66.0601 94.4589 66.0301C94.4089 65.9901 94.3789 65.9501 94.3789 65.9001C94.3789 65.7901 94.4689 65.7001 94.6589 65.6401C94.8189 65.5901 95.0389 65.5601 95.3089 65.5601C95.6089 65.5601 95.8389 65.5801 95.9889 65.6101C96.1789 65.6501 96.2789 65.7401 96.2789 65.8601C96.2789 65.9101 96.2689 65.9501 96.2389 65.9801C96.2089 66.0101 96.1489 66.0401 96.0489 66.0801C95.9889 66.1101 95.9489 66.1501 95.9389 66.2201C95.9189 66.2801 95.9189 66.4201 95.9189 66.6401L95.9289 66.6501Z" fill="#D9A429"/>
<path d="M98.9189 65.63H100.129C100.369 65.63 100.549 65.63 100.669 65.61C100.789 65.59 100.889 65.58 100.999 65.55C101.029 65.55 101.059 65.54 101.079 65.54C101.159 65.54 101.229 65.58 101.299 65.67C101.399 65.81 101.459 65.99 101.459 66.19C101.459 66.29 101.439 66.37 101.399 66.43C101.359 66.49 101.299 66.52 101.219 66.52C101.169 66.52 101.129 66.51 101.099 66.49C101.069 66.47 101.029 66.42 100.979 66.35C100.909 66.25 100.819 66.17 100.719 66.14C100.609 66.1 100.439 66.09 100.199 66.09C100.019 66.09 99.9089 66.12 99.8689 66.19C99.8489 66.22 99.8389 66.27 99.8289 66.33C99.8289 66.39 99.8289 66.54 99.8289 66.77C99.8289 66.86 99.8489 66.92 99.8789 66.95C99.9089 66.97 99.9889 66.98 100.129 66.98C100.199 66.98 100.239 66.97 100.269 66.94C100.299 66.91 100.319 66.86 100.329 66.79C100.339 66.7 100.349 66.64 100.359 66.6C100.369 66.57 100.389 66.54 100.419 66.51C100.449 66.48 100.489 66.47 100.539 66.47C100.599 66.47 100.659 66.5 100.699 66.56C100.729 66.61 100.759 66.69 100.779 66.8C100.799 66.92 100.809 67.04 100.809 67.16C100.809 67.41 100.769 67.61 100.689 67.77C100.649 67.86 100.579 67.9 100.499 67.9C100.449 67.9 100.409 67.89 100.389 67.86C100.369 67.83 100.349 67.78 100.339 67.69C100.319 67.51 100.209 67.42 100.029 67.42C99.9589 67.42 99.9089 67.44 99.8889 67.49C99.8589 67.53 99.8489 67.62 99.8489 67.74C99.8489 67.81 99.8489 67.91 99.8689 68.03C99.8789 68.15 99.8889 68.22 99.8989 68.26C99.9089 68.31 99.9489 68.34 100.019 68.36C100.089 68.38 100.189 68.39 100.349 68.39C100.589 68.39 100.759 68.36 100.879 68.3C100.999 68.24 101.099 68.13 101.169 67.97C101.209 67.88 101.249 67.82 101.289 67.79C101.329 67.76 101.369 67.74 101.429 67.74C101.499 67.74 101.549 67.77 101.589 67.83C101.629 67.89 101.649 67.96 101.649 68.05C101.649 68.14 101.629 68.26 101.579 68.4C101.529 68.54 101.469 68.67 101.399 68.78C101.359 68.83 101.329 68.87 101.309 68.89C101.289 68.91 101.259 68.92 101.219 68.92C101.189 68.92 101.149 68.92 101.089 68.91C100.989 68.89 100.859 68.88 100.689 68.87H98.6989C98.6189 68.87 98.5589 68.85 98.5089 68.82C98.4689 68.78 98.4389 68.74 98.4389 68.67C98.4389 68.62 98.4389 68.59 98.4689 68.57C98.4889 68.55 98.5289 68.52 98.5989 68.49C98.6489 68.47 98.6789 68.44 98.6989 68.41C98.7189 68.38 98.7389 68.34 98.7489 68.28C98.7989 68.04 98.8289 67.72 98.8289 67.32C98.8289 66.71 98.7889 66.33 98.7189 66.17C98.6989 66.14 98.6889 66.12 98.6689 66.1C98.6489 66.09 98.6089 66.07 98.5489 66.06C98.4589 66.03 98.4189 65.97 98.4189 65.88C98.4189 65.83 98.4289 65.79 98.4589 65.75C98.4889 65.71 98.5289 65.69 98.5789 65.67C98.6389 65.66 98.7589 65.65 98.9389 65.65L98.9189 65.63Z" fill="#D9A429"/>
<path d="M103.209 65.63H104.419C104.659 65.63 104.839 65.63 104.959 65.61C105.069 65.6 105.179 65.58 105.289 65.55C105.319 65.55 105.349 65.54 105.369 65.54C105.449 65.54 105.519 65.58 105.589 65.67C105.689 65.81 105.749 65.99 105.749 66.19C105.749 66.29 105.729 66.37 105.689 66.43C105.649 66.49 105.589 66.52 105.509 66.52C105.459 66.52 105.419 66.51 105.389 66.49C105.359 66.47 105.319 66.42 105.269 66.35C105.199 66.25 105.109 66.17 105.009 66.14C104.899 66.1 104.729 66.09 104.489 66.09C104.309 66.09 104.199 66.12 104.159 66.19C104.139 66.22 104.129 66.27 104.119 66.33C104.119 66.39 104.119 66.54 104.119 66.77C104.119 66.86 104.139 66.92 104.169 66.95C104.199 66.97 104.279 66.98 104.419 66.98C104.489 66.98 104.529 66.97 104.559 66.94C104.589 66.91 104.609 66.86 104.619 66.79C104.629 66.7 104.639 66.64 104.649 66.6C104.659 66.57 104.679 66.54 104.709 66.51C104.739 66.48 104.779 66.47 104.829 66.47C104.889 66.47 104.949 66.5 104.989 66.56C105.019 66.61 105.049 66.69 105.069 66.8C105.089 66.92 105.099 67.04 105.099 67.16C105.099 67.41 105.059 67.61 104.979 67.77C104.939 67.86 104.869 67.9 104.789 67.9C104.739 67.9 104.699 67.89 104.679 67.86C104.659 67.83 104.639 67.78 104.629 67.69C104.609 67.51 104.499 67.42 104.319 67.42C104.249 67.42 104.199 67.44 104.179 67.49C104.149 67.53 104.139 67.62 104.139 67.74C104.139 67.81 104.139 67.91 104.159 68.03C104.169 68.15 104.179 68.22 104.189 68.26C104.199 68.31 104.239 68.34 104.309 68.36C104.379 68.38 104.479 68.39 104.639 68.39C104.879 68.39 105.049 68.36 105.169 68.3C105.289 68.24 105.389 68.13 105.459 67.97C105.499 67.88 105.539 67.82 105.579 67.79C105.619 67.76 105.659 67.74 105.719 67.74C105.789 67.74 105.839 67.77 105.879 67.83C105.919 67.89 105.939 67.96 105.939 68.05C105.939 68.14 105.919 68.26 105.869 68.4C105.819 68.54 105.759 68.67 105.689 68.78C105.649 68.83 105.619 68.87 105.599 68.89C105.579 68.91 105.549 68.92 105.509 68.92C105.479 68.92 105.439 68.92 105.379 68.91C105.279 68.89 105.149 68.88 104.979 68.87H102.989C102.909 68.87 102.849 68.85 102.799 68.82C102.759 68.78 102.729 68.74 102.729 68.67C102.729 68.62 102.729 68.59 102.759 68.57C102.779 68.55 102.819 68.52 102.889 68.49C102.939 68.47 102.969 68.44 102.989 68.41C103.009 68.38 103.029 68.34 103.039 68.28C103.089 68.04 103.119 67.72 103.119 67.32C103.119 66.71 103.079 66.33 103.009 66.17C102.989 66.14 102.979 66.12 102.959 66.1C102.939 66.09 102.899 66.07 102.839 66.06C102.749 66.03 102.709 65.97 102.709 65.88C102.709 65.83 102.719 65.79 102.749 65.75C102.779 65.71 102.819 65.69 102.869 65.67C102.929 65.66 103.049 65.65 103.229 65.65L103.209 65.63Z" fill="#D9A429"/>
<path d="M107.409 67.7301V66.4901C107.409 66.3301 107.399 66.2301 107.379 66.1901C107.359 66.1501 107.299 66.1101 107.199 66.0901C107.059 66.0501 106.989 65.9801 106.989 65.8801C106.989 65.8101 107.019 65.7601 107.079 65.7201C107.139 65.6801 107.229 65.6601 107.339 65.6601C107.379 65.6601 107.469 65.6601 107.619 65.6601H107.759C108.019 65.6601 108.169 65.6601 108.219 65.6601C108.259 65.6601 108.419 65.6401 108.699 65.6201C108.789 65.6201 108.869 65.6101 108.949 65.6101C109.209 65.6101 109.439 65.6601 109.639 65.7701C109.989 65.9501 110.159 66.2401 110.159 66.6401C110.159 66.9601 110.039 67.2201 109.789 67.4101C109.559 67.5901 109.279 67.6801 108.949 67.6801C108.869 67.6801 108.759 67.6801 108.639 67.6601C108.579 67.6601 108.539 67.6601 108.519 67.6601C108.469 67.6601 108.449 67.6901 108.449 67.7401L108.469 68.1401C108.469 68.2201 108.489 68.2701 108.509 68.3101C108.529 68.3501 108.579 68.3801 108.659 68.4201C108.759 68.4701 108.809 68.5301 108.809 68.6001C108.809 68.7001 108.729 68.7701 108.579 68.8301C108.429 68.8801 108.219 68.9101 107.939 68.9101C107.359 68.9101 107.069 68.8101 107.069 68.6101C107.069 68.5601 107.079 68.5301 107.109 68.5001C107.139 68.4801 107.189 68.4401 107.289 68.3901C107.349 68.3601 107.379 68.3201 107.389 68.2701C107.389 68.2201 107.409 68.0501 107.409 67.7501V67.7301ZM108.469 66.1901V66.9901C108.469 67.0501 108.479 67.0901 108.509 67.1001C108.559 67.1201 108.609 67.1301 108.679 67.1301C108.779 67.1301 108.869 67.1001 108.939 67.0401C109.039 66.9601 109.089 66.8201 109.089 66.6201C109.089 66.4201 109.029 66.2701 108.909 66.1801C108.829 66.1201 108.739 66.0901 108.639 66.0901C108.519 66.0901 108.469 66.1201 108.469 66.1801V66.1901Z" fill="#D9A429"/>
<path d="M111.79 64.7901C111.72 64.6701 111.63 64.5801 111.52 64.5201C111.29 64.3901 111.04 64.3901 110.8 64.5201C110.68 64.5801 110.59 64.6701 110.53 64.7901C110.46 64.9101 110.43 65.0301 110.43 65.1601C110.43 65.2901 110.46 65.4101 110.53 65.5201C110.59 65.6401 110.69 65.7301 110.8 65.7901C110.92 65.8501 111.04 65.8901 111.16 65.8901C111.28 65.8901 111.41 65.8601 111.52 65.7901C111.64 65.7301 111.73 65.6301 111.79 65.5201C111.85 65.4001 111.89 65.2801 111.89 65.1601C111.89 65.0401 111.86 64.9101 111.79 64.7901ZM111.73 65.1601C111.73 65.2601 111.7 65.3601 111.65 65.4501C111.6 65.5401 111.53 65.6101 111.44 65.6601C111.35 65.7101 111.25 65.7401 111.15 65.7401C111.05 65.7401 110.95 65.7101 110.86 65.6601C110.77 65.6101 110.7 65.5401 110.65 65.4501C110.6 65.3601 110.57 65.2601 110.57 65.1601C110.57 65.0601 110.6 64.9601 110.65 64.8701C110.7 64.7801 110.77 64.7101 110.87 64.6601C110.96 64.6101 111.06 64.5901 111.15 64.5901C111.24 64.5901 111.34 64.6201 111.43 64.6601C111.52 64.7101 111.59 64.7801 111.65 64.8701C111.7 64.9601 111.73 65.0601 111.73 65.1601Z" fill="#D9A429"/>
<path d="M111.289 65.24C111.289 65.24 111.279 65.23 111.269 65.22C111.319 65.21 111.359 65.19 111.389 65.15C111.429 65.1 111.449 65.05 111.449 64.99C111.449 64.95 111.439 64.91 111.409 64.87C111.379 64.83 111.349 64.8 111.299 64.79C111.259 64.78 111.189 64.77 111.099 64.77H110.819V65.57H110.979V65.24H111.029C111.029 65.24 111.099 65.24 111.119 65.26C111.149 65.28 111.189 65.34 111.239 65.43L111.309 65.56H111.509L111.399 65.38C111.359 65.31 111.319 65.26 111.279 65.22L111.289 65.24ZM111.279 65.01C111.279 65.01 111.269 65.06 111.249 65.08C111.229 65.1 111.179 65.11 111.109 65.11H110.979V64.91H111.099C111.159 64.91 111.199 64.91 111.219 64.92C111.239 64.92 111.249 64.94 111.259 64.95C111.269 64.97 111.279 64.98 111.279 65V65.01Z" fill="#D9A429"/>
<path d="M182.5 63.1701L66 62.6401V62.1101L182.5 62.6401V63.1701Z" fill="#D9A429"/>
<path d="M182.5 63.8802L66 63.6502V63.4202L182.5 63.6502V63.8802Z" fill="#D9A429"/>
<path d="M182.5 96.9399L66 97.4699V97.9999L182.5 97.4699V96.9399Z" fill="#D9A429"/>
<path d="M182.5 96.22L66 96.46V96.69L182.5 96.46V96.22Z" fill="#D9A429"/>
<path d="M138.629 93.2702H136.469V93.8102C136.469 94.4702 136.339 94.9902 136.079 95.3802L135.939 95.2702C136.179 94.9202 136.299 94.4602 136.299 93.8902V92.4602H138.629V93.2702ZM138.459 93.0902V92.6302H136.469V93.0902H138.459ZM138.759 93.9002H137.729V94.3502H138.559V95.3902H138.389V95.2102H136.909V95.3902H136.739V94.3502H137.569V93.9002H136.589V93.7302H137.569V93.3902H137.739V93.7302H138.769V93.9002H138.759ZM138.389 95.0402V94.5302H136.909V95.0402H138.389Z" fill="white"/>
<path d="M143.729 95.0801L143.619 95.2301C143.219 95.0101 142.909 94.7301 142.709 94.4101C142.729 94.5001 142.729 94.6001 142.729 94.7101C142.729 95.0001 142.689 95.1801 142.599 95.2601C142.519 95.3401 142.379 95.3801 142.179 95.3801C142.119 95.3801 142.069 95.3801 142.019 95.3801L141.969 95.2001C142.039 95.2001 142.109 95.2101 142.179 95.2101C142.309 95.2101 142.399 95.2001 142.439 95.1701C142.479 95.1401 142.509 95.1001 142.539 95.0401C142.559 94.9801 142.569 94.8701 142.569 94.7101C142.569 94.6201 142.569 94.5201 142.549 94.4301C142.149 94.7701 141.649 95.0401 141.049 95.2401L140.959 95.0901C141.639 94.8601 142.159 94.5801 142.499 94.2301C142.479 94.1201 142.449 94.0301 142.409 93.9701C142.089 94.2301 141.659 94.4501 141.119 94.6101L141.029 94.4401C141.549 94.3101 141.989 94.1001 142.339 93.8001C142.309 93.7401 142.269 93.6701 142.209 93.6001C141.889 93.7701 141.559 93.8901 141.199 93.9701L141.109 93.8001C141.659 93.6801 142.079 93.5101 142.379 93.2801H141.439V93.1001H143.269V93.2801H142.629C142.559 93.3501 142.459 93.4301 142.339 93.5101C142.459 93.6701 142.549 93.8601 142.619 94.0901C142.949 93.9101 143.189 93.7201 143.349 93.5301L143.469 93.6601C143.299 93.8601 143.059 94.0401 142.759 94.2201C142.959 94.5901 143.279 94.8801 143.719 95.0901L143.729 95.0801ZM143.619 93.2501H143.449V92.8201H141.249V93.2501H141.079V92.6501H142.299C142.269 92.5601 142.239 92.4801 142.209 92.4001L142.369 92.3401C142.399 92.4101 142.439 92.5101 142.479 92.6501H143.609V93.2501H143.619Z" fill="white"/>
<path d="M148.669 93.6202H148.509V93.0302H147.379V93.7102H147.219V93.0302H146.169V93.6202H145.999V92.8702H147.219V92.6202H146.119V92.4602H148.569V92.6202H147.389V92.8702H148.679V93.6202H148.669ZM148.769 94.9702C148.759 95.1102 148.719 95.2102 148.669 95.2702C148.619 95.3302 148.529 95.3602 148.399 95.3702C148.269 95.3702 148.119 95.3802 147.959 95.3802C147.819 95.3802 147.679 95.3802 147.559 95.3702C147.429 95.3702 147.349 95.3402 147.299 95.2902C147.259 95.2502 147.229 95.1702 147.229 95.0802V94.8302H146.199V93.8402H148.419V94.8302H147.389V95.1002C147.389 95.1002 147.389 95.1502 147.419 95.1702C147.439 95.1802 147.509 95.2002 147.619 95.2002C147.729 95.2002 147.869 95.2102 148.009 95.2102C148.259 95.2102 148.409 95.2102 148.449 95.1902C148.489 95.1802 148.529 95.1402 148.549 95.0902C148.569 95.0302 148.579 94.9602 148.589 94.8802L148.759 94.9702H148.769ZM147.089 93.6002C146.829 93.6702 146.589 93.7202 146.359 93.7302L146.309 93.5702C146.549 93.5602 146.789 93.5202 147.029 93.4602L147.079 93.5902L147.089 93.6002ZM147.089 93.2502L147.039 93.4002C146.859 93.3502 146.629 93.3202 146.339 93.2902L146.409 93.1402C146.679 93.1602 146.909 93.2002 147.089 93.2502ZM147.219 94.2502V94.0002H146.359V94.2502H147.219ZM147.219 94.6702V94.4102H146.359V94.6702H147.219ZM148.249 94.2502V94.0002H147.389V94.2502H148.249ZM148.249 94.6702V94.4102H147.389V94.6702H148.249ZM148.349 93.6102L148.279 93.7502C148.049 93.6902 147.799 93.6402 147.519 93.6202L147.589 93.4802C147.919 93.5102 148.169 93.5502 148.349 93.6102ZM148.319 93.3002C148.049 93.3502 147.809 93.3802 147.589 93.4002L147.539 93.2602C147.759 93.2402 147.999 93.2102 148.259 93.1502L148.319 93.3002Z" fill="white"/>
<path d="M152.459 92.5201C152.299 92.5701 152.089 92.6101 151.809 92.6501V92.9201H152.449V93.0801H151.809V93.3301H152.399V94.3301H151.809V94.5701H152.399V94.7301H151.809V95.0801C151.999 95.0601 152.189 95.0401 152.399 95.0001V95.1701C151.819 95.2501 151.339 95.3101 150.939 95.3601L150.899 95.1801C151.129 95.1601 151.389 95.1301 151.659 95.1001V94.7301H151.069V94.5701H151.659V94.3301H151.069V93.3301H151.659V93.0801H150.959V92.9201H151.659V92.6801C151.479 92.7001 151.279 92.7001 151.069 92.7001L151.019 92.5401C151.509 92.5401 151.959 92.4901 152.389 92.3801L152.479 92.5201H152.459ZM151.659 93.7501V93.5101H151.229V93.7501H151.659ZM151.659 94.1801V93.9201H151.229V94.1801H151.659ZM152.239 93.7501V93.5101H151.809V93.7501H152.239ZM152.239 94.1801V93.9201H151.809V94.1801H152.239ZM153.569 93.0601C153.569 93.5701 153.569 94.0301 153.549 94.4401C153.529 94.8501 153.519 95.1001 153.499 95.1701C153.479 95.2401 153.439 95.2901 153.379 95.3301C153.319 95.3701 153.219 95.3901 153.059 95.3901C153.019 95.3901 152.979 95.3901 152.949 95.3901L152.899 95.2101C153.019 95.2101 153.119 95.2101 153.209 95.2101C153.249 95.2101 153.289 95.1901 153.319 95.1601C153.349 95.1301 153.369 95.0801 153.369 95.0101L153.399 94.3501C153.409 93.9801 153.419 93.6101 153.419 93.2301H153.079C153.079 94.0801 152.909 94.8001 152.589 95.4101L152.449 95.3301C152.749 94.7701 152.909 94.0701 152.929 93.2301H152.589V93.0601H152.939L152.949 92.3801H153.109C153.109 92.6601 153.109 92.8901 153.089 93.0501H153.579L153.569 93.0601Z" fill="white"/>
<path d="M158.66 92.8901H156.35V93.8501C156.35 94.4201 156.24 94.9301 156.03 95.4001L155.89 95.2701C156.09 94.8601 156.18 94.3401 156.18 93.7301V92.7201H157.39C157.34 92.6301 157.28 92.5401 157.21 92.4301L157.37 92.3601C157.43 92.4501 157.5 92.5601 157.58 92.7201H158.67V92.8901H158.66ZM158.72 94.9601L158.6 95.1101C158.22 94.8201 157.9 94.4101 157.63 93.8901V95.4001H157.46V93.8801C157.15 94.4301 156.82 94.8401 156.47 95.1201L156.34 94.9801C156.72 94.6801 157.06 94.2701 157.35 93.7301H156.49V93.5501H157.46V93.0401H157.63V93.5501H158.64V93.7301H157.75C158 94.2501 158.32 94.6601 158.73 94.9701L158.72 94.9601Z" fill="white"/>
<path d="M162.279 92.8101H161.329C161.199 92.9801 161.089 93.1001 161.009 93.1901L160.869 93.0901C161.119 92.8401 161.309 92.5901 161.419 92.3501L161.579 92.4201C161.539 92.5001 161.499 92.5701 161.449 92.6501H162.289V92.8101H162.279ZM163.559 94.2901C163.559 94.4001 163.549 94.5501 163.529 94.7401C163.509 94.9301 163.479 95.0401 163.439 95.0801C163.399 95.1201 163.369 95.1501 163.329 95.1601C163.299 95.1701 163.209 95.1801 163.069 95.1801C162.979 95.1801 162.879 95.1801 162.779 95.1701L162.719 94.9901C162.799 95.0001 162.969 95.0101 163.209 95.0101C163.279 95.0101 163.329 94.9701 163.349 94.8801C163.369 94.7901 163.389 94.6501 163.399 94.4501H162.389V95.3801H162.229V94.5201C161.909 94.8501 161.489 95.1101 160.969 95.2901L160.889 95.1301C161.409 94.9601 161.799 94.7301 162.069 94.4501H161.079L161.209 93.8001H162.239V93.4801H161.049V93.3201H163.479V93.9601H162.399V94.2801H163.579L163.559 94.2901ZM162.219 94.2901V93.9701H161.329L161.269 94.2901H162.219ZM161.919 93.1301L161.759 93.2001C161.709 93.1001 161.639 93.0101 161.569 92.9301L161.719 92.8501C161.799 92.9401 161.859 93.0401 161.909 93.1301H161.919ZM163.689 92.8101H162.659C162.559 92.9301 162.449 93.0501 162.309 93.1801L162.169 93.0701C162.409 92.8701 162.599 92.6301 162.739 92.3601L162.899 92.4301C162.869 92.5001 162.829 92.5701 162.769 92.6401H163.689V92.8001V92.8101ZM163.289 93.8001V93.4801H162.379V93.8001H163.289ZM163.249 93.1601L163.089 93.2201C163.039 93.1201 162.979 93.0201 162.909 92.9401L163.069 92.8701C163.159 92.9801 163.219 93.0701 163.259 93.1601H163.249Z" fill="white"/>
<path d="M168.66 93.91H165.88V93.72H168.66V93.91Z" fill="white"/>
<path d="M172.06 95.3802H171.89V95.1402H171.18V95.3802H171.01V93.8702H172.06V95.3802ZM171.89 94.9602V94.0502H171.18V94.9602H171.89ZM173.24 93.4802H171.35V92.4602H173.24V93.4802ZM173.07 93.3102V92.6302H171.51V93.3102H173.07ZM173.5 95.3802H173.33V95.1402H172.61V95.3802H172.44V93.8702H173.5V95.3802ZM173.33 94.9602V94.0502H172.61V94.9602H173.33Z" fill="white"/>
<path d="M176.79 95.3901H176.63V94.1101H176.23C176.21 94.6501 176.13 95.0701 175.99 95.4001L175.84 95.3201C176 94.9801 176.08 94.5601 176.08 94.0801V92.4201H176.24V93.2401H176.62V92.3901H176.78V93.4201H176.24V93.9501H176.81V95.4001L176.79 95.3901ZM178.63 94.7601H178.12V95.3901H177.96V94.7601H176.93V94.5801H177.96V94.0501H177.7C177.58 94.2601 177.4 94.4101 177.19 94.5201L177.08 94.3801C177.27 94.2901 177.41 94.1801 177.5 94.0601H177.04V92.7301H177.42C177.47 92.6501 177.53 92.5301 177.59 92.3701L177.76 92.4201C177.73 92.4901 177.68 92.5901 177.62 92.7301H178.48V94.0601H178.13V94.5901H178.64V94.7701L178.63 94.7601ZM177.66 92.8901H177.19V93.2901H177.65C177.65 93.1201 177.65 92.9901 177.65 92.8901H177.66ZM177.65 93.4501H177.19V93.8701H177.57C177.61 93.7301 177.63 93.5901 177.64 93.4501H177.65ZM178.3 93.8701V93.4501H177.82C177.8 93.6301 177.78 93.7701 177.75 93.8701H178.3ZM178.3 93.2801V92.8801H177.83C177.83 93.0001 177.83 93.1301 177.83 93.2801H178.31H178.3Z" fill="white"/>
<path d="M136.46 88.9599H137.35V89.11H136.64V89.54H137.3V89.69H136.64V90.19H137.39V90.34H136.46V88.95V88.9599Z" fill="white"/>
<path d="M137.729 90.35L138.279 88.95H138.439L138.989 90.35H138.799L138.629 89.93H138.089L137.919 90.35H137.729ZM138.359 89.2199L138.149 89.78H138.569L138.359 89.2199Z" fill="white"/>
<path d="M139.5 89.0599C139.58 88.9799 139.69 88.95 139.85 88.95C140.02 88.95 140.14 88.99 140.23 89.08C140.31 89.16 140.34 89.25 140.34 89.35H140.15C140.15 89.29 140.13 89.23 140.09 89.19C140.04 89.14 139.97 89.12 139.86 89.12C139.75 89.12 139.67 89.14 139.62 89.18C139.58 89.22 139.56 89.2599 139.56 89.3099C139.56 89.3599 139.57 89.39 139.59 89.42C139.62 89.45 139.67 89.47 139.74 89.5C139.86 89.55 140.01 89.62 140.16 89.69C140.2 89.71 140.24 89.73 140.28 89.77C140.34 89.83 140.37 89.8999 140.37 89.9799C140.37 90.0899 140.33 90.18 140.26 90.26C140.18 90.34 140.05 90.3799 139.86 90.3799C139.67 90.3799 139.54 90.3299 139.45 90.2299C139.38 90.1599 139.34 90.06 139.34 89.92H139.53C139.53 90.02 139.55 90.0899 139.59 90.1299C139.65 90.1899 139.74 90.2199 139.87 90.2199C139.98 90.2199 140.07 90.1899 140.12 90.1399C140.16 90.0999 140.18 90.05 140.18 90.01C140.18 89.96 140.16 89.9199 140.13 89.8899C140.1 89.8599 140.06 89.8399 140 89.8099C139.95 89.7799 139.88 89.7499 139.79 89.7099C139.69 89.6699 139.61 89.63 139.55 89.6C139.51 89.58 139.47 89.56 139.44 89.53C139.39 89.48 139.37 89.42 139.37 89.34C139.37 89.24 139.41 89.15 139.48 89.07L139.5 89.0599Z" fill="white"/>
<path d="M140.82 88.9599H141.71V89.11H141V89.54H141.66V89.69H141V90.19H141.75V90.34H140.82V88.95V88.9599Z" fill="white"/>
<path d="M142.13 89.5701H143.06V89.7001H142.13V89.5701Z" fill="white"/>
<path d="M143.58 89.0599C143.66 88.9799 143.77 88.95 143.93 88.95C144.1 88.95 144.22 88.99 144.31 89.08C144.39 89.16 144.42 89.25 144.42 89.35H144.23C144.23 89.29 144.21 89.23 144.17 89.19C144.12 89.14 144.05 89.12 143.94 89.12C143.83 89.12 143.75 89.14 143.7 89.18C143.66 89.22 143.64 89.2599 143.64 89.3099C143.64 89.3599 143.65 89.39 143.67 89.42C143.7 89.45 143.75 89.47 143.82 89.5C143.94 89.55 144.09 89.62 144.24 89.69C144.28 89.71 144.32 89.73 144.36 89.77C144.42 89.83 144.45 89.8999 144.45 89.9799C144.45 90.0899 144.41 90.18 144.34 90.26C144.26 90.34 144.13 90.3799 143.94 90.3799C143.75 90.3799 143.62 90.3299 143.53 90.2299C143.46 90.1599 143.42 90.06 143.42 89.92H143.61C143.61 90.02 143.63 90.0899 143.67 90.1299C143.73 90.1899 143.82 90.2199 143.95 90.2199C144.06 90.2199 144.15 90.1899 144.2 90.1399C144.24 90.0999 144.26 90.05 144.26 90.01C144.26 89.96 144.24 89.9199 144.21 89.8899C144.18 89.8599 144.14 89.8399 144.08 89.8099C144.03 89.7799 143.96 89.7499 143.87 89.7099C143.77 89.6699 143.69 89.63 143.63 89.6C143.59 89.58 143.55 89.56 143.52 89.53C143.47 89.48 143.45 89.42 143.45 89.34C143.45 89.24 143.49 89.15 143.56 89.07L143.58 89.0599Z" fill="white"/>
<path d="M144.94 88.9599H145.13V90.19H145.88V90.34H144.95V88.95L144.94 88.9599Z" fill="white"/>
<path d="M146.24 88.9599H147.13V89.11H146.42V89.54H147.08V89.69H146.42V90.19H147.17V90.34H146.24V88.95V88.9599Z" fill="white"/>
<path d="M147.62 88.9599H148.51V89.11H147.8V89.54H148.46V89.69H147.8V90.19H148.55V90.34H147.62V88.95V88.9599Z" fill="white"/>
<path d="M149 88.96H149.65C149.77 88.96 149.87 89 149.94 89.07C150.02 89.15 150.05 89.25 150.05 89.39C150.05 89.53 150.01 89.63 149.94 89.7C149.87 89.77 149.77 89.81 149.64 89.81H149.18V90.35H148.99V88.96H149ZM149.19 89.12V89.66H149.61C149.69 89.66 149.75 89.64 149.79 89.6C149.84 89.55 149.86 89.49 149.86 89.41C149.86 89.32 149.84 89.25 149.8 89.21C149.75 89.16 149.69 89.14 149.61 89.14H149.19V89.12Z" fill="white"/>
<path d="M151.22 90.35L151.77 88.95H151.93L152.48 90.35H152.29L152.12 89.93H151.58L151.41 90.35H151.22ZM151.86 89.2199L151.65 89.78H152.07L151.86 89.2199Z" fill="white"/>
<path d="M152.86 88.96H153.35C153.51 88.96 153.65 89.02 153.76 89.13C153.88 89.25 153.94 89.43 153.94 89.67C153.94 89.91 153.88 90.07 153.75 90.2C153.65 90.3 153.51 90.35 153.34 90.35H152.85V88.96H152.86ZM153.05 89.12V90.2H153.34C153.44 90.2 153.53 90.17 153.59 90.1C153.69 90 153.74 89.85 153.74 89.67C153.74 89.48 153.69 89.33 153.59 89.23C153.51 89.15 153.43 89.12 153.33 89.12H153.04H153.05Z" fill="white"/>
<path d="M155.07 88.9599H155.26V89.9599C155.26 90.0799 155.22 90.18 155.15 90.26C155.08 90.33 154.97 90.37 154.83 90.37C154.69 90.37 154.58 90.33 154.51 90.26C154.42 90.17 154.37 90.0199 154.37 89.8099H154.56C154.56 89.9699 154.59 90.0699 154.64 90.1299C154.68 90.1699 154.75 90.19 154.83 90.19C154.92 90.19 154.98 90.1699 155.02 90.1299C155.07 90.0799 155.09 90.02 155.09 89.94V88.95L155.07 88.9599Z" fill="white"/>
<path d="M155.76 88.96H155.95V89.93C155.95 90.01 155.97 90.07 156.02 90.12C156.08 90.18 156.17 90.21 156.28 90.21C156.39 90.21 156.48 90.18 156.54 90.12C156.59 90.07 156.61 90.01 156.61 89.93V88.96H156.8V89.94C156.8 90.06 156.76 90.16 156.69 90.23C156.6 90.32 156.47 90.36 156.28 90.36C156.09 90.36 155.96 90.32 155.87 90.23C155.79 90.15 155.76 90.06 155.76 89.94V88.96Z" fill="white"/>
<path d="M157.42 89.0599C157.5 88.9799 157.61 88.95 157.77 88.95C157.94 88.95 158.06 88.99 158.15 89.08C158.23 89.16 158.26 89.25 158.26 89.35H158.07C158.07 89.29 158.05 89.23 158.01 89.19C157.96 89.14 157.89 89.12 157.78 89.12C157.67 89.12 157.59 89.14 157.54 89.18C157.5 89.22 157.48 89.2599 157.48 89.3099C157.48 89.3599 157.49 89.39 157.51 89.42C157.54 89.45 157.59 89.47 157.66 89.5C157.78 89.55 157.93 89.62 158.08 89.69C158.12 89.71 158.16 89.73 158.2 89.77C158.26 89.83 158.29 89.8999 158.29 89.9799C158.29 90.0899 158.25 90.18 158.18 90.26C158.1 90.34 157.97 90.3799 157.78 90.3799C157.59 90.3799 157.46 90.3299 157.37 90.2299C157.3 90.1599 157.26 90.06 157.26 89.92H157.45C157.45 90.02 157.47 90.0899 157.51 90.1299C157.57 90.1899 157.66 90.2199 157.79 90.2199C157.9 90.2199 157.99 90.1899 158.04 90.1399C158.08 90.0999 158.1 90.05 158.1 90.01C158.1 89.96 158.08 89.9199 158.05 89.8899C158.02 89.8599 157.98 89.8399 157.92 89.8099C157.87 89.7799 157.8 89.7499 157.71 89.7099C157.61 89.6699 157.53 89.63 157.47 89.6C157.43 89.58 157.39 89.56 157.36 89.53C157.31 89.48 157.29 89.42 157.29 89.34C157.29 89.24 157.33 89.15 157.4 89.07L157.42 89.0599Z" fill="white"/>
<path d="M158.67 88.96H159.78V89.11H159.32V90.34H159.13V89.11H158.67V88.96Z" fill="white"/>
<path d="M160.07 90.35L160.62 88.95H160.78L161.33 90.35H161.14L160.97 89.93H160.43L160.26 90.35H160.07ZM160.7 89.2199L160.49 89.78H160.91L160.7 89.2199Z" fill="white"/>
<path d="M161.7 88.96H162.35C162.46 88.96 162.55 89 162.62 89.07C162.68 89.13 162.72 89.22 162.72 89.33C162.72 89.42 162.69 89.49 162.63 89.55C162.6 89.58 162.56 89.61 162.51 89.62C162.57 89.64 162.63 89.67 162.66 89.71C162.72 89.77 162.76 89.86 162.76 89.95C162.76 90.07 162.72 90.17 162.64 90.25C162.58 90.31 162.48 90.35 162.35 90.35H161.71V88.96H161.7ZM161.89 89.12V89.55H162.33C162.38 89.55 162.43 89.53 162.47 89.49C162.51 89.45 162.53 89.39 162.53 89.32C162.53 89.26 162.51 89.21 162.47 89.17C162.44 89.14 162.4 89.12 162.35 89.12H161.9H161.89ZM161.89 89.7V90.2H162.3C162.38 90.2 162.44 90.18 162.49 90.14C162.54 90.09 162.56 90.03 162.56 89.96C162.56 89.88 162.54 89.82 162.5 89.78C162.45 89.73 162.39 89.71 162.31 89.71H161.9L161.89 89.7Z" fill="white"/>
<path d="M163.26 88.9599H163.45V90.19H164.2V90.34H163.27V88.95L163.26 88.9599Z" fill="white"/>
<path d="M164.56 88.9599H165.45V89.11H164.74V89.54H165.4V89.69H164.74V90.19H165.49V90.34H164.56V88.95V88.9599Z" fill="white"/>
<path d="M166.79 88.96H167.04L167.41 90.04L167.78 88.96H168.03V90.35H167.84V89.29L167.47 90.35H167.34L166.97 89.29V90.35H166.78V88.96H166.79Z" fill="white"/>
<path d="M168.42 90.35L168.97 88.95H169.13L169.68 90.35H169.49L169.32 89.93H168.78L168.61 90.35H168.42ZM169.06 89.2199L168.85 89.78H169.27L169.06 89.2199Z" fill="white"/>
<path d="M169.979 88.96H171.089V89.11H170.629V90.34H170.439V89.11H169.979V88.96Z" fill="white"/>
<path d="M171.41 88.96H172.52V89.11H172.06V90.34H171.87V89.11H171.41V88.96Z" fill="white"/>
<path d="M172.96 88.9599H173.64C173.75 88.9599 173.84 89 173.91 89.07C173.98 89.14 174.02 89.24 174.02 89.36C174.02 89.48 173.98 89.58 173.91 89.65C173.87 89.69 173.82 89.7099 173.75 89.7199L174.07 90.34H173.87L173.58 89.74H173.16V90.34H172.97V88.95L172.96 88.9599ZM173.14 89.11V89.59H173.62C173.67 89.59 173.72 89.57 173.76 89.53C173.8 89.49 173.82 89.43 173.82 89.35C173.82 89.27 173.8 89.21 173.76 89.17C173.72 89.13 173.67 89.11 173.61 89.11H173.16H173.14Z" fill="white"/>
<path d="M174.43 88.9599H175.32V89.11H174.61V89.54H175.27V89.69H174.61V90.19H175.36V90.34H174.43V88.95V88.9599Z" fill="white"/>
<path d="M175.95 89.0599C176.03 88.9799 176.14 88.95 176.3 88.95C176.47 88.95 176.59 88.99 176.68 89.08C176.76 89.16 176.79 89.25 176.79 89.35H176.6C176.6 89.29 176.58 89.23 176.54 89.19C176.49 89.14 176.42 89.12 176.31 89.12C176.2 89.12 176.12 89.14 176.07 89.18C176.03 89.22 176.01 89.2599 176.01 89.3099C176.01 89.3599 176.02 89.39 176.04 89.42C176.07 89.45 176.12 89.47 176.19 89.5C176.31 89.55 176.46 89.62 176.61 89.69C176.65 89.71 176.69 89.73 176.73 89.77C176.79 89.83 176.82 89.8999 176.82 89.9799C176.82 90.0899 176.78 90.18 176.71 90.26C176.63 90.34 176.5 90.3799 176.31 90.3799C176.12 90.3799 175.99 90.3299 175.9 90.2299C175.83 90.1599 175.79 90.06 175.79 89.92H175.98C175.98 90.02 176 90.0899 176.04 90.1299C176.1 90.1899 176.19 90.2199 176.32 90.2199C176.43 90.2199 176.52 90.1899 176.57 90.1399C176.61 90.0999 176.63 90.05 176.63 90.01C176.63 89.96 176.61 89.9199 176.58 89.8899C176.55 89.8599 176.51 89.8399 176.45 89.8099C176.4 89.7799 176.33 89.7499 176.24 89.7099C176.14 89.6699 176.06 89.63 176 89.6C175.96 89.58 175.92 89.56 175.89 89.53C175.84 89.48 175.82 89.42 175.82 89.34C175.82 89.24 175.86 89.15 175.93 89.07L175.95 89.0599Z" fill="white"/>
<path d="M177.4 89.0599C177.48 88.9799 177.59 88.95 177.75 88.95C177.92 88.95 178.04 88.99 178.13 89.08C178.21 89.16 178.24 89.25 178.24 89.35H178.05C178.05 89.29 178.03 89.23 177.99 89.19C177.94 89.14 177.87 89.12 177.76 89.12C177.65 89.12 177.57 89.14 177.52 89.18C177.48 89.22 177.46 89.2599 177.46 89.3099C177.46 89.3599 177.47 89.39 177.49 89.42C177.52 89.45 177.57 89.47 177.64 89.5C177.76 89.55 177.91 89.62 178.06 89.69C178.1 89.71 178.14 89.73 178.18 89.77C178.24 89.83 178.27 89.8999 178.27 89.9799C178.27 90.0899 178.23 90.18 178.16 90.26C178.08 90.34 177.95 90.3799 177.76 90.3799C177.57 90.3799 177.44 90.3299 177.35 90.2299C177.28 90.1599 177.24 90.06 177.24 89.92H177.43C177.43 90.02 177.45 90.0899 177.49 90.1299C177.55 90.1899 177.64 90.2199 177.77 90.2199C177.88 90.2199 177.97 90.1899 178.02 90.1399C178.06 90.0999 178.08 90.05 178.08 90.01C178.08 89.96 178.06 89.9199 178.03 89.8899C178 89.8599 177.96 89.8399 177.9 89.8099C177.85 89.7799 177.78 89.7499 177.69 89.7099C177.59 89.6699 177.51 89.63 177.45 89.6C177.41 89.58 177.37 89.56 177.34 89.53C177.29 89.48 177.27 89.42 177.27 89.34C177.27 89.24 177.31 89.15 177.38 89.07L177.4 89.0599Z" fill="white"/>
<path d="M135.35 88.15L135.75 87.92L135.32 87.74L135.22 87.29L134.93 87.65L134.47 87.6L134.71 87.99L134.53 88.41L134.97 88.3L135.32 88.61L135.35 88.15Z" fill="white"/>
<path d="M137.32 87L137.56 86.86L137.3 86.75L137.24 86.47L137.05 86.69L136.77 86.66L136.92 86.9L136.81 87.17L137.08 87.1L137.3 87.29L137.32 87Z" fill="white"/>
</g>
</g>
</g>
</g>
<defs>
<filter id="filter0_d_226_20461" x="0.473633" y="0" width="239" height="160" filterUnits="userSpaceOnUse" color-interpolation-filters="sRGB">
<feFlood flood-opacity="0" result="BackgroundImageFix"/>
<feColorMatrix in="SourceAlpha" type="matrix" values="0 0 0 0 0 0 0 0 0 0 0 0 0 0 0 0 0 0 127 0" result="hardAlpha"/>
<feOffset dy="1"/>
<feGaussianBlur stdDeviation="10"/>
<feComposite in2="hardAlpha" operator="out"/>
<feColorMatrix type="matrix" values="0 0 0 0 0 0 0 0 0 0 0 0 0 0 0 0 0 0 0.08 0"/>
<feBlend mode="normal" in2="BackgroundImageFix" result="effect1_dropShadow_226_20461"/>
<feBlend mode="normal" in="SourceGraphic" in2="effect1_dropShadow_226_20461" result="shape"/>
</filter>
<clipPath id="clip0_226_20461">
<rect x="20.4736" y="19" width="199" height="120" rx="7.02062" fill="white"/>
</clipPath>
<clipPath id="clip1_226_20461">
<rect width="116.5" height="39.31" fill="white" transform="translate(66 60)"/>
</clipPath>
</defs>
</svg>
