<svg width="239" height="160" viewBox="0 0 239 160" fill="none" xmlns="http://www.w3.org/2000/svg">
<g filter="url(#filter0_d_226_20189)">
<g clip-path="url(#clip0_226_20189)">
<rect x="20.4736" y="19" width="198" height="120" rx="7.02062" fill="white"/>
<rect x="20.4736" y="19" width="198" height="198.333" fill="white"/>
<g clip-path="url(#clip1_226_20189)">
<path d="M103.85 75.0507C100.72 77.2807 98.5303 80.1807 98.1303 82.6007C97.9603 83.6107 98.1203 84.4707 98.6003 85.1407C99.0803 85.8107 99.8403 86.2407 100.85 86.4007C103.27 86.8007 106.72 85.6607 109.85 83.4307C114.4 80.1707 116.75 75.6507 115.1 73.3407C113.45 71.0307 108.4 71.8007 103.85 75.0507Z" fill="#006CB2"/>
<path d="M68.26 82.9487C68.26 82.8187 68.16 82.7387 67.94 82.7387H62V82.6087C62.2 82.6087 62.24 82.5287 62.24 82.3287V76.2987C62.24 76.0887 62.2 76.0187 62 76.0187V75.8887H63.87V76.0187C63.63 76.0187 63.59 76.0987 63.59 76.2987V81.6387H67.94C68.17 81.6387 68.26 81.5587 68.26 81.4087H68.39V82.9587H68.26" fill="#221714"/>
<path d="M87.6399 82.7389V82.6089C87.7599 82.6089 87.8099 82.5589 87.8099 82.5089C87.8099 82.4089 87.7299 82.2789 87.0899 80.9289H83.8599C83.3199 82.1589 83.1699 82.3389 83.1699 82.4689C83.1699 82.5589 83.2299 82.5989 83.3099 82.6089V82.7389H81.6299V82.6089C81.7999 82.6089 81.8499 82.5589 81.9899 82.2489L84.5599 76.4589C84.6099 76.3689 84.6599 76.2589 84.6599 76.1789C84.6599 76.0789 84.5799 76.0289 84.4599 76.0089V75.8789H86.5099V76.0089C86.3699 76.0289 86.3099 76.0889 86.3099 76.1489C86.3099 76.2289 86.3499 76.2989 86.3899 76.3989L89.1299 82.2489C89.2599 82.5389 89.2999 82.6089 89.4999 82.6089V82.7389H87.6199M84.2999 79.8589H86.5399L85.4099 77.3889L84.2999 79.8589Z" fill="#221714"/>
<path d="M123.96 82.7387V82.6087C124.19 82.6087 124.22 82.5287 124.22 82.3287V76.2987C124.22 76.0887 124.18 76.0187 123.96 76.0187V75.8887H128.52C130.12 75.8887 130.8 76.5487 130.8 77.7387C130.8 78.3387 130.49 78.8487 129.86 79.1587C130.57 79.4887 131.06 79.9987 131.06 80.8387C131.06 82.1287 130.05 82.7487 128.77 82.7487H123.96M125.56 81.6287H128.42C129.38 81.6287 129.71 81.2887 129.71 80.6287C129.71 80.0287 129.33 79.6987 128.38 79.6987H125.55V81.6287M125.56 78.5887H128.65C129.26 78.5887 129.49 78.1787 129.49 77.7887C129.49 77.1587 129.21 76.9887 128.53 76.9887H125.55V78.5887" fill="#221714"/>
<path d="M144.95 79.3093C144.95 77.0293 146.7 75.7793 148.88 75.7793C151.06 75.7793 152.81 77.0193 152.81 79.3093C152.81 81.5993 151.06 82.8293 148.88 82.8293C146.7 82.8293 144.95 81.5893 144.95 79.3093ZM146.29 79.3093C146.29 80.8793 147.45 81.7193 148.88 81.7193C150.31 81.7193 151.47 80.8793 151.47 79.3093C151.47 77.7393 150.31 76.8993 148.88 76.8993C147.45 76.8993 146.29 77.7293 146.29 79.3093Z" fill="#221714"/>
<path d="M169.22 82.7387V82.6087C169.41 82.6087 169.45 82.5287 169.45 82.3287V79.7887L166.86 76.3687C166.72 76.1787 166.63 76.0187 166.4 76.0187V75.8887H168.45V76.0187C168.38 76.0187 168.33 76.0587 168.33 76.0987C168.33 76.1687 168.39 76.2187 168.46 76.3287L170.14 78.6387L171.87 76.2787C171.91 76.2187 171.95 76.1687 171.95 76.1387C171.95 76.0787 171.88 76.0287 171.81 76.0187V75.8887H173.74V76.0187C173.54 76.0187 173.38 76.1787 173.25 76.3687L170.79 79.7887V82.3287C170.79 82.5387 170.84 82.6087 171.02 82.6087V82.7387H169.22Z" fill="#221714"/>
<path d="M177.03 77.1793C177.03 76.5593 177.5 76.0893 178.1 76.0893C178.7 76.0893 179.16 76.5593 179.16 77.1793C179.16 77.7993 178.69 78.2793 178.1 78.2793C177.51 78.2793 177.03 77.8193 177.03 77.1793ZM178.1 78.4993C178.81 78.4993 179.43 77.9393 179.43 77.1793C179.43 76.4193 178.82 75.8693 178.1 75.8693C177.38 75.8693 176.76 76.4293 176.76 77.1793C176.76 77.9293 177.37 78.4993 178.1 78.4993ZM177.82 77.2893H178.09L178.49 77.9493H178.75L178.32 77.2793C178.54 77.2493 178.71 77.1393 178.71 76.8693C178.71 76.5693 178.53 76.4393 178.17 76.4393H177.59V77.9493H177.82V77.2893ZM177.82 77.0893V76.6193H178.13C178.29 76.6193 178.46 76.6593 178.46 76.8393C178.46 77.0693 178.29 77.0893 178.09 77.0893H177.82Z" fill="#221714"/>
<path d="M110 82.98C110 82.82 109.91 82.74 109.68 82.74H103.25V82.65L107.7 77H103.7C103.48 77 103.38 77.08 103.38 77.25H103.25V75.66H103.38C103.38 75.82 103.47 75.9 103.7 75.9H110.13V76L105.7 81.65H109.67C109.9 81.65 109.99 81.57 109.99 81.4H110.12V83H109.99" fill="white"/>
</g>
</g>
</g>
<defs>
<filter id="filter0_d_226_20189" x="0.473633" y="0" width="238" height="160" filterUnits="userSpaceOnUse" color-interpolation-filters="sRGB">
<feFlood flood-opacity="0" result="BackgroundImageFix"/>
<feColorMatrix in="SourceAlpha" type="matrix" values="0 0 0 0 0 0 0 0 0 0 0 0 0 0 0 0 0 0 127 0" result="hardAlpha"/>
<feOffset dy="1"/>
<feGaussianBlur stdDeviation="10"/>
<feComposite in2="hardAlpha" operator="out"/>
<feColorMatrix type="matrix" values="0 0 0 0 0 0 0 0 0 0 0 0 0 0 0 0 0 0 0.08 0"/>
<feBlend mode="normal" in2="BackgroundImageFix" result="effect1_dropShadow_226_20189"/>
<feBlend mode="normal" in="SourceGraphic" in2="effect1_dropShadow_226_20189" result="shape"/>
</filter>
<clipPath id="clip0_226_20189">
<rect x="20.4736" y="19" width="198" height="120" rx="7.02062" fill="white"/>
</clipPath>
<clipPath id="clip1_226_20189">
<rect width="117.43" height="14.48" fill="white" transform="translate(62 72)"/>
</clipPath>
</defs>
</svg>
