<svg width="240" height="160" viewBox="0 0 240 160" fill="none" xmlns="http://www.w3.org/2000/svg">
<g filter="url(#filter0_d_226_20248)">
<g clip-path="url(#clip0_226_20248)">
<rect x="20.4736" y="19" width="199" height="120" rx="7.02062" fill="white"/>
<rect x="20.4736" y="19" width="199" height="120" fill="white"/>
<g clip-path="url(#clip1_226_20248)">
<path d="M106.9 79.78V72.46H104.92V77.82V78.07H103.25C103.29 79.94 102.93 83.57 101.51 84.23H104.09C104.49 83.47 104.75 82.59 104.93 81.73V90.07H106.91V81.54C107.47 82.46 107.94 83.44 108.07 84.23H110.06C109.89 82.63 108.9 80.91 108.12 79.77H106.9V79.78Z" fill="#867F77"/>
<path d="M151.8 73.92V73.8H141.88C141.97 73.4 142.04 72.96 142.04 72.46H140.1C140.1 73 139.99 73.45 139.87 73.8H129.64V75.73V79.27H131.57V75.73H149.86V79.27H151.79V73.92H151.8Z" fill="#867F77"/>
<path d="M119.9 72.46H117.96C117.94 73.5 117.59 74.2 117.39 74.5H113.02C113.36 73.77 113.52 73.06 113.58 72.46H111.59C111.52 72.96 111.32 73.74 110.75 74.51H110.72V74.55C110.23 75.2 109.47 75.84 108.3 76.3V78.4C109.26 78.1 110.06 77.7 110.72 77.23V90.08L123.63 90.06V88.24H119.06V85.04H123.63V83.11H119.06V80.75H123.63V78.82H119.06V76.44H123.63V74.51H119.52C119.72 73.97 119.88 73.28 119.89 72.47L119.9 72.46ZM117.1 88.24H112.71V85.04H117.1V88.24ZM117.1 83.11H112.71V80.75H117.1V83.11ZM117.1 78.82H112.71V76.44H117.1V78.82Z" fill="#867F77"/>
<path d="M151.78 88.47C151.78 86.63 151.8 84.04 151.8 84.04H141.67V83H148.76V76.75H132.69V83H139.78V84.04H129.65V90.08H131.52V85.99H139.78V87.13H133.88V89.19H145.22C146.63 89.19 147.7 87.95 147.58 86.56H145.52C145.54 86.78 145.53 87.13 145.23 87.13H141.69V85.99H149.95V88.41H148.74V90.08C148.96 90.08 149.46 90.08 150.19 90.08C151.08 90.08 151.8 89.36 151.8 88.47H151.78ZM141.67 79.16V78.17H146.82V79.16H141.67ZM139.77 79.16H134.62V78.17H139.77V79.16ZM139.77 80.57V81.58H134.62V80.57H139.77ZM141.67 80.57H146.82V81.58H141.67V80.57Z" fill="#867F77"/>
<path d="M93.9198 90.2H51.0498V87L93.9198 86.48V90.2Z" fill="url(#paint0_linear_226_20248)"/>
<path d="M93.92 72.07L72.46 67L51 72.07V76.43H74.6L51.05 78.56V83.42L74.19 83.14L51.05 85.23V88.42L63.14 87.33L93.92 84.55V79.7L70.67 79.98L93.92 77.88V72.07Z" fill="#867F77"/>
<path d="M160.45 86.26C160.22 86.26 160.04 86.19 159.89 86.05C159.74 85.91 159.67 85.72 159.67 85.49C159.67 85.26 159.74 85.07 159.89 84.93C160.04 84.79 160.23 84.72 160.46 84.72C160.66 84.72 160.82 84.78 160.95 84.9L160.83 85.02C160.72 84.92 160.6 84.88 160.46 84.88C160.29 84.88 160.15 84.93 160.05 85.04C159.95 85.15 159.9 85.3 159.9 85.48C159.9 85.66 159.95 85.82 160.05 85.93C160.15 86.04 160.29 86.09 160.45 86.09C160.6 86.09 160.74 86.03 160.86 85.92L160.98 86.04C160.84 86.18 160.65 86.25 160.43 86.25L160.45 86.26Z" fill="#867F77"/>
<path d="M161.98 86.26C161.55 86.26 161.34 86.05 161.34 85.62V84.74H161.57V85.62C161.57 85.93 161.71 86.09 161.98 86.09C162.25 86.09 162.41 85.93 162.41 85.62V84.74H162.63V85.62C162.63 86.05 162.42 86.26 161.99 86.26H161.98Z" fill="#867F77"/>
<path d="M163.62 86.26C163.37 86.26 163.16 86.19 162.99 86.04L163.12 85.91C163.26 86.03 163.43 86.09 163.62 86.09C163.74 86.09 163.83 86.07 163.9 86.02C163.97 85.98 164 85.92 164 85.84C164 85.8 164 85.77 163.98 85.74C163.97 85.71 163.94 85.69 163.91 85.67C163.88 85.65 163.85 85.63 163.82 85.62C163.79 85.61 163.75 85.59 163.7 85.57L163.44 85.48C163.2 85.39 163.08 85.27 163.08 85.1C163.08 84.99 163.13 84.89 163.24 84.82C163.35 84.75 163.48 84.71 163.64 84.71C163.85 84.71 164.02 84.77 164.17 84.89L164.05 85.01C163.93 84.92 163.79 84.87 163.64 84.87C163.54 84.87 163.46 84.89 163.4 84.93C163.34 84.97 163.31 85.02 163.31 85.09C163.31 85.12 163.31 85.14 163.33 85.17C163.34 85.19 163.36 85.21 163.37 85.23C163.39 85.24 163.41 85.26 163.44 85.28C163.47 85.3 163.5 85.31 163.52 85.32C163.54 85.32 163.57 85.34 163.61 85.35L163.87 85.44C163.99 85.48 164.08 85.53 164.14 85.59C164.2 85.65 164.23 85.73 164.23 85.83C164.23 85.95 164.17 86.05 164.06 86.13C163.95 86.21 163.8 86.25 163.62 86.25V86.26Z" fill="#867F77"/>
<path d="M164.95 86.23V84.9H164.41V84.74H165.72V84.9H165.18V86.23H164.95Z" fill="#867F77"/>
<path d="M167.24 86.05C167.1 86.19 166.92 86.26 166.69 86.26C166.46 86.26 166.28 86.19 166.14 86.05C166 85.91 165.93 85.72 165.93 85.48C165.93 85.24 166 85.06 166.14 84.92C166.28 84.78 166.47 84.71 166.69 84.71C166.91 84.71 167.1 84.78 167.24 84.92C167.38 85.06 167.45 85.25 167.45 85.48C167.45 85.71 167.38 85.91 167.24 86.05ZM166.3 85.93C166.4 86.04 166.53 86.1 166.69 86.1C166.85 86.1 166.98 86.04 167.08 85.93C167.18 85.82 167.23 85.67 167.23 85.49C167.23 85.31 167.18 85.16 167.08 85.05C166.98 84.94 166.85 84.89 166.69 84.89C166.53 84.89 166.4 84.94 166.3 85.05C166.2 85.16 166.16 85.31 166.16 85.49C166.16 85.67 166.21 85.82 166.31 85.93H166.3Z" fill="#867F77"/>
<path d="M167.88 86.23V84.74H168.15L168.49 85.54L168.62 85.85H168.63L168.75 85.54L169.09 84.74H169.36V86.23H169.15V85.4C169.15 85.32 169.15 85.17 169.18 84.96L169.04 85.3L168.7 86.07H168.55L168.21 85.3L168.07 84.96C168.09 85.2 168.1 85.35 168.1 85.4V86.23H167.9H167.88Z" fill="#867F77"/>
<path d="M169.91 86.23V84.74H170.14V86.23H169.91Z" fill="#867F77"/>
<path d="M170.55 86.23V86.12L171.49 84.9H170.63V84.74H171.77V84.85L170.83 86.07H171.78V86.23H170.55Z" fill="#867F77"/>
<path d="M172.19 86.23V84.74H173.22V84.9H172.42V85.37H173.1V85.53H172.42V86.07H173.25V86.23H172.19Z" fill="#867F77"/>
<path d="M174.56 86.23V85.65L174.02 84.74H174.26L174.49 85.16C174.49 85.16 174.53 85.23 174.57 85.31C174.61 85.39 174.64 85.44 174.67 85.49C174.75 85.36 174.81 85.25 174.85 85.16L175.08 84.74H175.32L174.78 85.65V86.23H174.55H174.56Z" fill="#867F77"/>
<path d="M176.79 86.05C176.65 86.19 176.47 86.26 176.24 86.26C176.01 86.26 175.83 86.19 175.69 86.05C175.55 85.91 175.48 85.72 175.48 85.48C175.48 85.24 175.55 85.06 175.69 84.92C175.83 84.78 176.02 84.71 176.24 84.71C176.46 84.71 176.65 84.78 176.79 84.92C176.93 85.06 177 85.25 177 85.48C177 85.71 176.93 85.91 176.79 86.05ZM175.85 85.93C175.95 86.04 176.08 86.1 176.24 86.1C176.4 86.1 176.53 86.04 176.63 85.93C176.73 85.82 176.78 85.67 176.78 85.49C176.78 85.31 176.73 85.16 176.63 85.05C176.53 84.94 176.4 84.89 176.24 84.89C176.08 84.89 175.95 84.94 175.85 85.05C175.75 85.16 175.71 85.31 175.71 85.49C175.71 85.67 175.76 85.82 175.86 85.93H175.85Z" fill="#867F77"/>
<path d="M178.07 86.26C177.64 86.26 177.43 86.05 177.43 85.62V84.74H177.66V85.62C177.66 85.93 177.8 86.09 178.07 86.09C178.34 86.09 178.5 85.93 178.5 85.62V84.74H178.72V85.62C178.72 86.05 178.51 86.26 178.08 86.26H178.07Z" fill="#867F77"/>
<path d="M180.48 86.23H180.22L179.79 85.6H179.47V86.23H179.24V84.74H179.8C180.22 84.74 180.42 84.88 180.42 85.16C180.42 85.27 180.38 85.36 180.31 85.43C180.24 85.5 180.14 85.55 180.01 85.57L180.47 86.22L180.48 86.23ZM179.47 84.9V85.45H179.77C180.06 85.45 180.2 85.35 180.2 85.16C180.2 85.06 180.16 85 180.09 84.96C180.02 84.92 179.91 84.9 179.76 84.9H179.46H179.47Z" fill="#867F77"/>
<path d="M181.43 86.23V84.74H181.66V85.37H182.49V84.74H182.71V86.23H182.49V85.53H181.66V86.23H181.43Z" fill="#867F77"/>
<path d="M184.47 86.05C184.33 86.19 184.15 86.26 183.92 86.26C183.69 86.26 183.51 86.19 183.37 86.05C183.23 85.91 183.16 85.72 183.16 85.48C183.16 85.24 183.23 85.06 183.37 84.92C183.51 84.78 183.7 84.71 183.92 84.71C184.14 84.71 184.33 84.78 184.47 84.92C184.61 85.06 184.68 85.25 184.68 85.48C184.68 85.71 184.61 85.91 184.47 86.05ZM183.53 85.93C183.63 86.04 183.76 86.1 183.92 86.1C184.08 86.1 184.21 86.04 184.31 85.93C184.41 85.82 184.46 85.67 184.46 85.49C184.46 85.31 184.41 85.16 184.31 85.05C184.21 84.94 184.08 84.89 183.92 84.89C183.76 84.89 183.63 84.94 183.53 85.05C183.43 85.16 183.39 85.31 183.39 85.49C183.39 85.67 183.44 85.82 183.54 85.93H183.53Z" fill="#867F77"/>
<path d="M185.11 86.23V84.74H185.38L185.72 85.54L185.85 85.85H185.86L185.98 85.54L186.32 84.74H186.59V86.23H186.38V85.4C186.38 85.32 186.38 85.17 186.41 84.96L186.27 85.3L185.93 86.07H185.78L185.44 85.3L185.3 84.96C185.32 85.2 185.33 85.35 185.33 85.4V86.23H185.13H185.11Z" fill="#867F77"/>
<path d="M187.14 86.23V84.74H188.17V84.9H187.37V85.37H188.05V85.53H187.37V86.07H188.2V86.23H187.14Z" fill="#867F77"/>
<path d="M162.25 77.62C161.97 77.9 161.61 78.04 161.16 78.04C160.71 78.04 160.35 77.9 160.07 77.62C159.79 77.34 159.65 76.97 159.65 76.5C159.65 76.03 159.79 75.67 160.07 75.39C160.35 75.12 160.71 74.98 161.16 74.98C161.61 74.98 161.97 75.12 162.25 75.39C162.53 75.66 162.67 76.03 162.67 76.5C162.67 76.97 162.53 77.34 162.25 77.62ZM160.4 77.38C160.59 77.6 160.85 77.71 161.16 77.71C161.47 77.71 161.73 77.6 161.92 77.38C162.11 77.16 162.21 76.87 162.21 76.5C162.21 76.13 162.11 75.84 161.92 75.63C161.73 75.42 161.47 75.31 161.16 75.31C160.85 75.31 160.59 75.42 160.4 75.63C160.21 75.84 160.12 76.13 160.12 76.5C160.12 76.87 160.22 77.16 160.41 77.38H160.4Z" fill="#867F77" stroke="#867F77" stroke-width="0.25" stroke-miterlimit="10"/>
<path d="M163.52 77.98V75.04H163.99L165.27 76.89L165.65 77.5H165.67C165.63 77.02 165.61 76.71 165.61 76.57V75.04H166.03V77.98H165.57L164.28 76.12L163.9 75.51H163.88C163.88 75.57 163.89 75.67 163.9 75.79C163.91 75.91 163.92 76.03 163.93 76.13C163.93 76.23 163.93 76.33 163.93 76.42V77.96H163.5L163.52 77.98Z" fill="#867F77" stroke="#867F77" stroke-width="0.25" stroke-miterlimit="10"/>
<path d="M169.01 77.98V75.35H167.94V75.04H170.53V75.35H169.46V77.98H169.01Z" fill="#867F77" stroke="#867F77" stroke-width="0.25" stroke-miterlimit="10"/>
<path d="M171.25 77.98V75.04H171.7V76.28H173.35V75.04H173.79V77.98H173.35V76.59H171.7V77.98H171.25Z" fill="#867F77" stroke="#867F77" stroke-width="0.25" stroke-miterlimit="10"/>
<path d="M174.85 77.98V75.04H176.89V75.35H175.3V76.28H176.64V76.6H175.3V77.67H176.94V77.99H174.85V77.98Z" fill="#867F77" stroke="#867F77" stroke-width="0.25" stroke-miterlimit="10"/>
<path d="M179.34 77.98L178.59 75.04H179.05L179.42 76.64C179.44 76.74 179.48 76.9 179.52 77.11C179.57 77.32 179.6 77.48 179.62 77.59H179.64L179.89 76.64L180.38 75.04H180.78L181.27 76.64C181.37 77.03 181.46 77.34 181.52 77.59H181.54C181.57 77.47 181.6 77.3 181.65 77.08C181.7 76.86 181.73 76.71 181.74 76.64L182.11 75.04H182.54L181.81 77.98H181.27L180.73 76.2L180.56 75.53H180.54C180.52 75.59 180.5 75.7 180.46 75.85C180.42 76 180.39 76.12 180.37 76.2L179.84 77.98H179.31H179.34Z" fill="#867F77" stroke="#867F77" stroke-width="0.25" stroke-miterlimit="10"/>
<path d="M185.24 77.98L184.9 77.08H183.61L183.27 77.98H182.82L184.02 75.04H184.52L185.72 77.98H185.25H185.24ZM183.72 76.79H184.79L184.62 76.34C184.54 76.15 184.43 75.82 184.26 75.34H184.24C184.13 75.67 184.01 76 183.89 76.34L183.72 76.79Z" fill="#867F77" stroke="#867F77" stroke-width="0.25" stroke-miterlimit="10"/>
<path d="M186.81 77.98V76.84L185.75 75.04H186.23L186.69 75.87C186.69 75.87 186.77 76.02 186.85 76.16C186.93 76.31 186.99 76.42 187.04 76.51H187.06C187.21 76.25 187.33 76.03 187.41 75.87L187.87 75.04H188.34L187.28 76.84V77.98H186.83H186.81Z" fill="#867F77" stroke="#867F77" stroke-width="0.25" stroke-miterlimit="10"/>
<path d="M159.86 82.64V79.7H160.31V80.94H161.96V79.7H162.4V82.64H161.96V81.25H160.31V82.64H159.86Z" fill="#867F77" stroke="#867F77" stroke-width="0.25" stroke-miterlimit="10"/>
<path d="M165.85 82.28C165.57 82.56 165.21 82.7 164.76 82.7C164.31 82.7 163.95 82.56 163.67 82.28C163.39 82 163.25 81.63 163.25 81.16C163.25 80.69 163.39 80.33 163.67 80.05C163.95 79.78 164.31 79.64 164.76 79.64C165.21 79.64 165.57 79.78 165.85 80.05C166.13 80.32 166.27 80.69 166.27 81.16C166.27 81.63 166.13 82 165.85 82.28ZM164 82.04C164.19 82.26 164.45 82.37 164.76 82.37C165.07 82.37 165.33 82.26 165.52 82.04C165.71 81.82 165.81 81.53 165.81 81.16C165.81 80.79 165.71 80.5 165.52 80.29C165.33 80.08 165.07 79.97 164.76 79.97C164.45 79.97 164.19 80.08 164 80.29C163.81 80.5 163.72 80.79 163.72 81.16C163.72 81.53 163.82 81.82 164.01 82.04H164Z" fill="#867F77" stroke="#867F77" stroke-width="0.25" stroke-miterlimit="10"/>
<path d="M167.12 82.64V79.7H167.66L168.34 81.28L168.59 81.89H168.61L168.85 81.28L169.52 79.7H170.06V82.64H169.64V81.01C169.64 80.85 169.66 80.56 169.7 80.14H169.68L169.4 80.81L168.73 82.34H168.43L167.76 80.81L167.48 80.14H167.46C167.49 80.61 167.51 80.9 167.51 81.01V82.64H167.11H167.12Z" fill="#867F77" stroke="#867F77" stroke-width="0.25" stroke-miterlimit="10"/>
<path d="M171.13 82.64V79.7H173.17V80.01H171.58V80.94H172.92V81.26H171.58V82.33H173.22V82.65H171.13V82.64Z" fill="#867F77" stroke="#867F77" stroke-width="0.25" stroke-miterlimit="10"/>
</g>
</g>
</g>
<defs>
<filter id="filter0_d_226_20248" x="0.473633" y="0" width="239" height="160" filterUnits="userSpaceOnUse" color-interpolation-filters="sRGB">
<feFlood flood-opacity="0" result="BackgroundImageFix"/>
<feColorMatrix in="SourceAlpha" type="matrix" values="0 0 0 0 0 0 0 0 0 0 0 0 0 0 0 0 0 0 127 0" result="hardAlpha"/>
<feOffset dy="1"/>
<feGaussianBlur stdDeviation="10"/>
<feComposite in2="hardAlpha" operator="out"/>
<feColorMatrix type="matrix" values="0 0 0 0 0 0 0 0 0 0 0 0 0 0 0 0 0 0 0.08 0"/>
<feBlend mode="normal" in2="BackgroundImageFix" result="effect1_dropShadow_226_20248"/>
<feBlend mode="normal" in="SourceGraphic" in2="effect1_dropShadow_226_20248" result="shape"/>
</filter>
<linearGradient id="paint0_linear_226_20248" x1="51.0498" y1="88.34" x2="93.9198" y2="88.34" gradientUnits="userSpaceOnUse">
<stop stop-color="#F2F2F2"/>
<stop offset="1" stop-color="#877F77"/>
</linearGradient>
<clipPath id="clip0_226_20248">
<rect x="20.4736" y="19" width="199" height="120" rx="7.02062" fill="white"/>
</clipPath>
<clipPath id="clip1_226_20248">
<rect width="137.53" height="23.2" fill="white" transform="translate(51 67)"/>
</clipPath>
</defs>
</svg>
