<svg width="240" height="160" viewBox="0 0 240 160" fill="none" xmlns="http://www.w3.org/2000/svg">
<g filter="url(#filter0_d_226_19994)">
<rect x="20.4736" y="19" width="199" height="120" rx="7.02062" fill="white"/>
<g clip-path="url(#clip0_226_19994)">
<path fill-rule="evenodd" clip-rule="evenodd" d="M136.496 91.5154C136.649 91.5154 136.923 91.6695 137.32 91.9932C137.778 92.3323 138.007 92.5635 138.007 92.6868C138.007 92.7947 137.915 92.9026 137.732 93.0104C137.579 93.1029 137.488 93.1954 137.457 93.2725V95.0912C137.457 95.2608 137.228 95.3995 136.771 95.4765C136.588 95.5074 136.435 95.5074 136.344 95.5074C136.115 95.5074 135.993 95.3841 135.993 95.1375V94.9217H134.528V96.9562H136.038C136.038 96.9562 136.222 96.7404 136.481 96.3859C136.801 95.9543 136.984 95.7386 137.045 95.7386C137.213 95.7386 137.473 95.9543 137.839 96.3705C138.205 96.7867 138.388 97.0487 138.388 97.1257C138.388 97.249 138.312 97.3261 138.144 97.3261H134.513V99.4223H135.672C135.886 99.1294 136.084 98.8982 136.267 98.6825C136.405 98.4821 136.527 98.3896 136.633 98.3896C136.756 98.3896 137.03 98.5283 137.442 98.8058C137.915 99.1449 138.159 99.376 138.159 99.4994C138.159 99.6381 138.068 99.7768 137.854 99.9155C137.717 100.039 137.656 100.162 137.656 100.316V101.596C137.656 102.043 137.671 102.644 137.701 103.414C137.701 103.584 137.473 103.707 137 103.8C136.786 103.815 136.633 103.83 136.542 103.83C136.298 103.83 136.176 103.676 136.176 103.399V102.921H132.85V102.551H136.176V99.7768H132.85V99.4069H133.14V97.3107H132.85V96.9562H133.14V94.9217H132.85V94.5518H135.993V92.6868H132.85V92.3323H135.688C135.855 92.1011 136.008 91.9161 136.13 91.762C136.267 91.5924 136.389 91.5154 136.496 91.5154ZM132.85 102.936H131.721V103.476C131.721 103.661 131.507 103.784 131.08 103.861C130.882 103.892 130.745 103.907 130.668 103.907C130.394 103.907 130.256 103.769 130.256 103.476C130.287 102.998 130.302 102.52 130.302 102.043V100.702C130.302 100.023 130.272 99.376 130.195 98.7441C130.79 98.8982 131.416 99.1294 132.041 99.4377H132.835V99.8076H131.706V102.582H132.835V102.952L132.85 102.936ZM132.85 97.3261H131.63C130.897 97.3261 130.379 97.3415 130.073 97.3878L129.875 96.8483C130.272 96.9254 130.867 96.9716 131.645 96.9716H132.865V97.3261H132.85ZM132.85 94.9371V94.5672H129.707V92.7022H132.85V92.3477H129.906C129.463 92.1165 128.853 91.8853 128.105 91.6387C128.212 92.3939 128.273 93.6424 128.273 95.3841C128.273 97.7114 128.166 99.4685 127.968 100.625C127.8 101.596 127.51 102.597 127.053 103.676L127.312 103.8C127.892 103.152 128.349 102.489 128.7 101.811C129.097 100.979 129.372 100.085 129.539 99.114C129.661 98.0505 129.723 96.8021 129.723 95.3841V94.9371H132.865H132.85Z" fill="#7D797B"/>
<path fill-rule="evenodd" clip-rule="evenodd" d="M155.916 91.4229C156.542 91.4845 157.152 91.577 157.732 91.6849C158.098 91.7003 158.281 91.8082 158.281 91.9931C158.281 92.0548 158.174 92.1319 157.976 92.2397C157.747 92.363 157.625 92.4864 157.625 92.6251V93.1799H160.691C160.875 93.0104 161.012 92.8717 161.119 92.7638C161.286 92.5788 161.424 92.4864 161.515 92.4864C161.637 92.4864 161.912 92.6713 162.354 93.072C162.751 93.4111 162.949 93.6577 162.949 93.7965C162.949 93.9044 162.858 93.9814 162.659 94.0277C162.431 94.0277 162.293 94.0431 162.248 94.0739C161.897 94.3051 161.5 94.5209 161.042 94.7521C161.195 94.9524 161.286 95.0757 161.286 95.122C161.286 95.2761 161.21 95.3532 161.103 95.3532H157.396C156.969 95.7385 156.557 96.0622 156.191 96.3088C156.847 96.8483 157.32 97.3723 157.579 97.8655C157.64 97.9734 157.686 98.0505 157.732 98.1429C158.159 97.8809 158.54 97.5881 158.876 97.2952C159.395 96.8328 159.761 96.4013 159.959 95.9851C160.341 96.2163 160.676 96.4167 160.966 96.5708C161.363 96.802 161.561 96.9716 161.561 97.0949C161.561 97.2028 161.454 97.2644 161.256 97.2952C161.027 97.2952 160.875 97.3415 160.844 97.4185C160.478 97.6343 160.096 97.8193 159.685 97.9888C159.303 98.143 158.739 98.2971 157.991 98.4666C158.54 99.0369 159.09 99.4993 159.639 99.8692C160.615 100.455 161.592 100.871 162.568 101.102L162.522 101.426C162.156 101.549 161.897 101.827 161.744 102.243C161.653 102.551 161.546 102.705 161.424 102.705C161.241 102.705 160.829 102.443 160.173 101.935C159.486 101.441 158.845 100.794 158.25 100.008C158.25 100.116 158.25 100.239 158.25 100.362C158.25 101.333 158.159 102.058 157.976 102.52C157.778 103.029 157.518 103.399 157.228 103.63C156.954 103.861 156.755 103.985 156.603 103.985C156.496 103.985 156.389 103.83 156.298 103.507C156.145 103.152 155.672 102.844 154.848 102.597L154.894 102.382C155.504 102.412 155.916 102.428 156.115 102.428C156.42 102.428 156.633 102.289 156.725 102.042C156.801 101.811 156.847 101.364 156.847 100.702C156.221 101.087 155.565 101.411 154.894 101.688C153.994 102.042 152.819 102.412 151.34 102.767L151.233 102.489C152.285 102.058 153.186 101.611 153.948 101.148C154.787 100.686 155.733 100.008 156.786 99.0986C156.771 98.8828 156.74 98.6824 156.71 98.4666C156.038 98.929 155.352 99.3143 154.635 99.6226C153.826 99.9771 152.758 100.301 151.446 100.64L151.34 100.378C152.255 99.9771 153.048 99.5455 153.719 99.0677C154.482 98.6208 155.337 97.958 156.267 97.0794C156.16 96.8637 156.038 96.6787 155.901 96.5246C155.825 96.5862 155.733 96.6325 155.642 96.6787C155.077 96.987 154.437 97.249 153.704 97.4802C152.987 97.7114 152.194 97.9118 151.324 98.0813L151.217 97.8039C152.072 97.5264 152.88 97.1719 153.613 96.7558C154.299 96.355 154.864 95.8926 155.352 95.3686H154.436C153.704 95.3686 153.186 95.384 152.896 95.4302L152.682 94.8908C153.094 94.9524 153.674 94.9833 154.436 94.9833H159.196C159.196 94.9833 159.364 94.8137 159.593 94.4901C159.883 94.1201 160.066 93.9198 160.112 93.9198C160.234 93.9198 160.402 94.0277 160.615 94.2589C160.722 94.0277 160.813 93.7811 160.92 93.5499H152.88C152.88 94.3051 152.743 94.7983 152.453 95.0295C152.24 95.2607 151.95 95.3686 151.614 95.3686C151.431 95.3686 151.279 95.3069 151.156 95.1682C151.065 95.0295 151.004 94.8754 151.004 94.7367C151.004 94.6596 151.217 94.4438 151.675 94.0893C152.102 93.6886 152.346 93.1645 152.377 92.548L152.621 92.5018C152.728 92.7484 152.789 92.9796 152.85 93.1954H156.099V92.7484C156.099 92.3168 156.038 91.8852 155.932 91.4229H155.916Z" fill="#7D797B"/>
<path fill-rule="evenodd" clip-rule="evenodd" d="M84.3204 102.012V99.5456L84.4272 99.5918L84.595 99.6997L84.8086 99.8384L85.0374 100.054L85.251 100.362L85.312 100.563L85.3578 100.763V100.979V101.179L85.312 101.38L85.2052 101.58L85.0984 101.719L84.9306 101.888L84.7781 101.981L84.6102 102.027H84.3051L84.3204 102.012ZM84.3204 99.0369H86.1816V101.904L86.1358 101.996L86.1053 102.042L86.0748 102.089L86.029 102.135L85.9985 102.166L85.907 102.212L85.8002 102.258L85.6782 102.305H85.5561L85.4035 102.351L84.656 102.305L85.0374 102.52L85.251 102.705L85.4035 102.921L85.4646 103.014L85.5103 103.137L85.5714 103.538L85.6324 103.723L85.7239 103.846L85.8307 103.923L86.029 104H86.2731H86.4715L86.624 103.954L86.7766 103.907L86.8986 103.861L87.0512 103.769L87.2038 103.63L87.4021 103.383L87.5394 103.183L87.6004 103.06L87.6462 102.936L87.6919 102.813V102.674L87.7072 99.0524H89.6752L89.7515 99.0215L89.8125 98.9907H89.8278V98.9599V98.9136L89.843 98.852V98.7903L89.782 98.7133L89.6294 98.5437L89.4616 98.3742L89.2786 98.22L89.0802 98.0659L89.004 98.0197L88.9277 97.9889H88.8514L88.7904 97.958H88.7141L88.6531 97.9889L88.592 98.0351L88.531 98.0813L88.409 98.2046L88.1954 98.4512L87.9818 98.7133H87.7225V97.3877L87.753 97.2953V97.249L87.7987 97.2028L87.8292 97.172L87.8598 97.1411L87.8903 97.0949V97.0641L87.9055 97.0178V96.9562L87.875 96.9099L87.8292 96.8637L87.7682 96.8175L87.6919 96.7866L87.5851 96.7558L87.219 96.5863L86.8834 96.463H89.3396H89.4769H89.5989L89.6905 96.4321L89.7515 96.4013V96.3705L89.7973 96.3551V96.3242V96.2934V96.2472L89.782 96.2163L89.7362 96.1239L89.5989 95.9852L89.4464 95.831L89.2633 95.6769L89.065 95.5228L88.9429 95.4303L88.8209 95.384L88.7141 95.3532H88.6683H88.6226H88.5768L88.531 95.3686H88.4853L88.4395 95.4149L88.409 95.4457L88.3632 95.4919L88.2869 95.5998L88.0428 95.8773L87.8292 96.1085H86.1816V93.966H89.2175L89.2938 93.9352L89.3396 93.9044L89.3701 93.8736V93.8273V93.7657V93.704L89.3243 93.6424L89.248 93.5345L89.1718 93.442L89.0802 93.3495L88.9887 93.257L88.8056 93.0721L88.592 92.918L88.4853 92.8255L88.3785 92.7638L88.2717 92.7176H88.1649H88.0733L87.9818 92.7484L87.9055 92.8101L87.814 92.8871L87.7072 93.0258L87.4478 93.3187L87.1732 93.6115H86.1816V92.4864L86.2274 92.3785L86.2579 92.3323L86.3036 92.286L86.4104 92.2244L86.4562 92.1781V92.1473L86.4867 92.1011V92.0394L86.4104 91.9469L86.1969 91.7928L85.9375 91.6695L85.5256 91.5462L85.19 91.4691L84.7475 91.4075V92.5789V93.5807H84.3204V93.9198H84.7475V96.0622H84.3204V96.4013H86.1816V98.6516H84.3204V98.9907V99.0369ZM81.0861 94.336H80.6437V94.675H82.8253L82.9016 94.6442L82.9321 94.6134L82.9626 94.5826L82.9931 94.5209V94.4747V94.4284L82.9626 94.3668L82.9321 94.3205L82.8558 94.2281L82.7795 94.151L82.7032 94.0739L82.627 94.0123L82.4591 93.8736L82.2913 93.7503L82.0777 93.627H82.0015L81.9404 93.5807H81.8794H81.8184L81.7726 93.6115L81.7269 93.6578L81.5438 93.8427L81.3302 94.0893L81.1166 94.336H81.0861ZM84.3204 93.627V93.966H83.1762L82.9778 93.627H84.3204ZM84.3204 96.1085V96.4475H82.032L81.8642 96.2163H80.6589V95.8618H80.842L81.2234 95.4303L81.3607 95.2916L81.3912 95.2607L81.437 95.2299L81.5133 95.1837H81.5896L81.6658 95.1528H81.7421L81.8184 95.1991L81.8947 95.2453L81.971 95.307L82.093 95.4149L82.1998 95.5228L82.2913 95.6307L82.3829 95.7385L82.5507 95.9389L82.7185 96.1239H84.2899L84.3204 96.1085ZM84.3204 98.6979V99.0369H82.3066L82.154 98.6979H84.3204ZM84.3204 99.5456V102.012H84.2746L84.122 101.965L84.0153 101.904L83.9695 101.796L83.9237 101.626V101.441V101.272V100.887L83.878 100.624L83.8322 100.409L83.7712 100.178L83.6491 99.9309L83.4966 99.6843L83.2677 99.4531L83.6033 99.4223H83.9237L84.2593 99.4993L84.3356 99.5302L84.3204 99.5456ZM80.6589 102.659H81.0251V102.952L81.0709 103.229L81.1166 103.291L81.2234 103.368L81.3912 103.414H81.5896L81.9099 103.306L82.1693 103.137L82.3676 102.906L82.4134 102.644V100.332L82.5812 100.162L82.6727 100.1L82.7032 100.054V100.023L82.749 99.9617V99.8384L82.7032 99.7768L82.6575 99.7151L82.5964 99.6381L81.3912 98.9445L80.8725 99.5302H80.6589V99.7922H81.0251V102.305H80.6589V102.628V102.659ZM80.6589 97.9426V97.5881H80.903L81.1166 97.3415L81.3455 97.0641L81.3912 97.0024L81.4523 96.9408L81.498 96.8945L81.559 96.8637L81.6201 96.8329H81.6811L81.7421 96.802H81.8489L81.9099 96.8329L82.032 96.8791L82.154 96.9562L82.2761 97.0641L82.4439 97.2182L82.5964 97.3723L82.749 97.5419L82.8863 97.696V97.7577L82.9168 97.8039V97.8501L82.8863 97.881H82.8558L82.81 97.9272H82.749L82.6727 97.9426H80.6589ZM80.6589 92.918V92.5789H80.903L81.1166 92.3323L81.3455 92.0856L81.5285 91.8853L81.5896 91.839L81.6506 91.7928H81.7116L81.7726 91.7774H81.8337L81.8947 91.8082L81.9557 91.839L82.0167 91.8853L82.3066 92.1319L82.5049 92.3168L82.7185 92.5635L82.7795 92.6251L82.81 92.6868V92.7484V92.7946H82.7948L82.7795 92.8409L82.7338 92.8717H82.6575L82.5507 92.918H80.6589ZM80.6589 94.336H78.0654L78.218 94.675H80.6589V94.336ZM80.6589 92.5635V92.9025H78.5079L78.3705 92.5635H80.6589ZM80.6589 95.8618V96.2163H78.4926L78.3095 95.8618H80.6589ZM80.6589 97.5881V97.9426H78.5384L78.3858 97.5881H80.6589ZM80.6589 99.5456V99.8076H79.7283V102.32H80.6589V102.644H79.7283V103.091L79.6673 103.353L79.591 103.491L79.4385 103.599L79.2096 103.753L78.8587 103.846H78.6757L78.4773 103.8L78.4011 103.769L78.34 103.676L78.279 103.383V99.0524H78.4926L78.7062 99.0832L78.9045 99.1294L79.1028 99.1911L79.3012 99.2527L79.4842 99.3298L79.6673 99.4223L79.8504 99.5147H80.6589V99.5456Z" fill="#7D797B"/>
<path fill-rule="evenodd" clip-rule="evenodd" d="M108.395 95.1991H114.344L114.405 95.1529L114.421 95.1221V95.0758V95.0296L114.39 94.9679L114.344 94.9063L114.283 94.8446L114.1 94.6443L113.902 94.4439L113.688 94.2589L113.46 94.0586L113.383 93.9969L113.322 93.9507L113.246 93.9199H113.185L113.109 93.9044H113.048L112.971 93.9507L112.91 94.0123L112.697 94.2589L112.453 94.5672L112.178 94.86H109.066V93.4575H112.773L112.849 93.4112H112.865L112.88 93.3804V93.3342V93.2879L112.834 93.2263L112.788 93.1646L112.727 93.103L112.315 92.7022L111.919 92.3169L111.842 92.2552L111.766 92.209L111.69 92.1782H111.614L111.537 92.1628H111.461L111.385 92.2244L111.308 92.2861L111.141 92.4864L110.881 92.7793L110.622 93.0875H109.081V92.4864L109.127 92.4248V92.394L109.188 92.3631L109.356 92.2861L109.401 92.2398L109.432 92.1936V92.1473L109.447 92.1011V92.0703L109.386 92.024L109.325 91.9932L109.249 91.947L109.051 91.8391L108.7 91.7004L108.379 91.5925V95.1529L108.395 95.1991ZM108.395 100.655V100.255H110.683V98.775H108.395V98.3742H110.683V96.7867H108.395V96.4168H110.515L110.774 96.0777L111.064 95.7694L111.385 95.8773L111.705 96.0469L111.903 96.1856L112.132 96.3551L112.3 96.5401L112.392 96.6788L112.437 96.7867V96.8483V96.91V96.9562L112.392 97.0025L112.27 97.0949L112.086 97.2953V102.412L112.056 102.628L112.025 102.859L111.964 103.075L111.934 103.183L111.888 103.291L111.827 103.399L111.766 103.507L111.69 103.615L111.614 103.707L111.476 103.83L111.4 103.892L111.278 103.938L111.08 103.969H110.881L110.683 103.938L110.53 103.892L110.378 103.8L110.241 103.63L110.134 103.445L110.073 103.26L110.042 103.014L109.966 102.859L109.874 102.767L109.722 102.628L109.554 102.551L109.401 102.459L109.157 102.351H110.057H110.332H110.439L110.485 102.32H110.53L110.561 102.258L110.591 102.227L110.622 102.181V102.135L110.652 101.981V101.58V100.686H108.364L108.395 100.655ZM107.662 94.8446H105.938V93.2109L105.984 93.1492L106.015 93.103L106.045 93.0567L106.182 92.9797L106.243 92.9334H106.274L106.289 92.8872V92.8409L106.304 92.7947V92.7485L106.243 92.7022L106.182 92.656L106.106 92.6252L105.74 92.4556L105.557 92.3785L105.359 92.3015L105.16 92.2398L104.947 92.1936L104.733 92.1628H104.52V94.8909H102.46L102.567 95.2454H108.395V91.685H108.364L108.013 91.5771L107.83 91.5308L107.647 91.5V94.9063L107.662 94.8446ZM108.395 96.4168V96.7867H106.106V98.3742H108.395V98.775H106.106V100.255H108.395V100.655H106.106V103.353L106.076 103.491V103.568L106.015 103.63L105.938 103.676L105.862 103.723L105.282 103.923L105.084 103.969H104.901L104.825 103.923L104.764 103.877L104.703 103.753L104.672 103.661V103.491V103.183V95.9081H104.84H105.023L105.191 95.939L105.374 95.9852L105.542 96.0469L105.709 96.1393L105.877 96.2472L106.045 96.3705H108.379L108.395 96.4168Z" fill="#7D797B"/>
<path d="M187.359 54.6473H53.6406V86.1671H187.359V54.6473Z" fill="#051C2C" stroke="#051C2C" stroke-width="0.84"/>
<path d="M68.0418 63.2941C67.1723 62.8317 66.3942 62.5851 65.6924 62.5851C64.9907 62.5851 64.4109 62.8317 63.9075 63.3403C63.4193 63.849 63.1752 64.4501 63.1752 65.1591C63.1752 65.6677 63.3125 66.1918 63.6176 66.7621C63.9075 67.3323 64.5787 68.2417 65.6009 69.5056C66.623 70.754 67.4164 71.8484 67.9503 72.7731C68.4995 73.6979 68.7589 74.746 68.7589 75.9482C68.7589 77.4433 68.3165 78.6455 67.4316 79.5703C66.5468 80.4951 65.3873 80.9575 63.9685 80.9575C63.1752 80.9575 62.2141 80.7263 61.0851 80.2485V77.844C61.0851 77.844 61.1462 77.8749 61.1767 77.8903C61.3292 78.0136 61.6649 78.1831 62.153 78.4143C62.6412 78.6455 63.1447 78.7688 63.6176 78.7688C64.3957 78.7688 65.0364 78.5068 65.5399 77.9828C66.0433 77.4587 66.2874 76.796 66.2874 75.9791C66.2874 75.4088 66.1654 74.8847 65.906 74.4069C65.6467 73.9291 65.189 73.2664 64.5177 72.4495L62.7328 70.23C62.0463 69.3669 61.5276 68.5808 61.1919 67.8718C60.8563 67.1628 60.6885 66.3151 60.6885 65.3286C60.6885 63.8798 61.1004 62.693 61.9395 61.7836C62.7785 60.8743 63.8617 60.4119 65.2042 60.4119C66.1349 60.4119 67.0807 60.6431 68.0266 61.1209V63.2941H68.0418Z" fill="white"/>
<path d="M80.3689 80.3563C79.5756 80.7416 78.7823 80.942 77.9738 80.942C76.3719 80.942 74.9988 80.3255 73.8394 79.077C72.6799 77.8286 72.085 75.2238 72.085 71.278C72.085 66.9932 72.6647 64.0955 73.8394 62.6159C74.9988 61.1362 76.4177 60.381 78.0653 60.381C78.6908 60.381 79.4536 60.4889 80.3689 60.6892V63.1399C79.774 62.8933 79.2095 62.7854 78.6755 62.7854C77.6381 62.7854 76.7533 63.3249 76.021 64.373C75.2887 65.4365 74.9226 67.5326 74.9226 70.6615C74.9226 72.5265 74.9988 73.9907 75.1667 75.0388C75.3345 76.0869 75.7006 76.9346 76.2804 77.5511C76.8601 78.1677 77.5924 78.4913 78.462 78.4913C78.9807 78.4913 79.6214 78.3218 80.3689 77.9981V80.3717V80.3563Z" fill="white"/>
<path d="M94.2365 80.7108H91.6583L90.9412 76.7651H86.7459L86.0136 80.7108H83.4658L87.7375 60.7201H89.9191L94.2213 80.7108H94.2365ZM90.5904 74.7306L88.8512 65.2515H88.7902L87.1425 74.7306H90.5904Z" fill="white"/>
<path d="M107.036 80.7108H104.946L99.8966 66.9932H99.8356V80.7108H97.4404V60.7201H99.561L104.626 74.4377H104.687V60.7201H107.036V80.7108Z" fill="white"/>
<path d="M124.489 80.7108H117.334V60.7201H120.004V78.4605H124.489V80.6954V80.7108Z" fill="white"/>
<path d="M128.364 60.7201H131.034V80.7108H128.364V60.7201Z" fill="white"/>
<path d="M134.314 60.7201H136.892L139.379 75.8249L142.049 60.7201H144.581L140.416 80.7108H138.311L134.299 60.7201H134.314Z" fill="white"/>
<path d="M147.907 60.7201H150.577V80.7108H147.907V60.7201Z" fill="white"/>
<path d="M164.459 80.7108H162.369L157.319 66.9932H157.258V80.7108H154.863V60.7201H156.999L162.064 74.4377H162.125V60.7201H164.475V80.7108H164.459Z" fill="white"/>
<path d="M178.785 73.6363C178.785 75.9328 178.403 77.7207 177.625 79C176.847 80.2639 175.474 80.9112 173.506 80.9112C171.752 80.9112 170.47 80.2485 169.692 78.9384C168.899 77.6283 168.518 75.1005 168.518 71.3706C168.518 70.939 168.563 69.7676 168.655 67.8718C168.746 65.976 168.884 64.6813 169.067 64.0185C169.25 63.3403 169.555 62.7084 169.982 62.1381C170.409 61.5524 170.943 61.1209 171.599 60.8434C172.255 60.5506 173.018 60.4119 173.903 60.4119C175.139 60.4119 176.222 60.7972 177.122 61.5524C178.022 62.3077 178.525 63.3095 178.617 64.558L176.1 65.4828C175.886 63.5561 175.154 62.6005 173.918 62.6005C172.957 62.6005 172.286 63.0937 171.904 64.0956C171.523 65.0974 171.34 66.7466 171.34 69.0586V70.0759C171.34 71.4168 171.386 72.6961 171.462 73.9137C171.538 75.1313 171.63 76.0253 171.691 76.5956C171.767 77.1659 171.92 77.6129 172.148 77.9519C172.377 78.291 172.621 78.5068 172.866 78.6301C173.125 78.7534 173.415 78.7997 173.766 78.7997C174.406 78.7997 174.91 78.5993 175.261 78.1985C175.612 77.7978 175.856 77.2275 175.993 76.4723C176.13 75.7325 176.191 74.4532 176.191 72.6498H173.766V70.2916H178.831V73.6671L178.785 73.6363Z" fill="white"/>
<path d="M185.132 56.8359H55.8682V83.8551H185.132V56.8359Z" stroke="white" stroke-width="1.26"/>
<path d="M114.191 70.9698C114.191 72.2337 113.077 73.3588 111.826 73.3588C110.575 73.3588 109.416 72.357 109.416 70.9698C109.416 69.5826 110.438 68.5499 111.826 68.5499C113.215 68.5499 114.191 69.7213 114.191 70.9698Z" fill="white"/>
</g>
</g>
<defs>
<filter id="filter0_d_226_19994" x="0.473633" y="0" width="239" height="160" filterUnits="userSpaceOnUse" color-interpolation-filters="sRGB">
<feFlood flood-opacity="0" result="BackgroundImageFix"/>
<feColorMatrix in="SourceAlpha" type="matrix" values="0 0 0 0 0 0 0 0 0 0 0 0 0 0 0 0 0 0 127 0" result="hardAlpha"/>
<feOffset dy="1"/>
<feGaussianBlur stdDeviation="10"/>
<feComposite in2="hardAlpha" operator="out"/>
<feColorMatrix type="matrix" values="0 0 0 0 0 0 0 0 0 0 0 0 0 0 0 0 0 0 0.08 0"/>
<feBlend mode="normal" in2="BackgroundImageFix" result="effect1_dropShadow_226_19994"/>
<feBlend mode="normal" in="SourceGraphic" in2="effect1_dropShadow_226_19994" result="shape"/>
</filter>
<clipPath id="clip0_226_19994">
<rect width="135" height="50" fill="white" transform="translate(53 54)"/>
</clipPath>
</defs>
</svg>
