<svg width="199" height="120" viewBox="0 0 199 120" fill="none" xmlns="http://www.w3.org/2000/svg">
<g clip-path="url(#clip0_225_19232)">
<rect x="0.473633" width="198" height="120" fill="white"/>
<g clip-path="url(#clip1_225_19232)">
<path d="M161.377 67.5999H37.7627V41.9999H161.377V67.5999ZM38.9607 66.4099H160.179V43.1899H38.9607V66.4199V66.4099Z" fill="#030000"/>
<path d="M158.699 44.7792H40.4102V64.8692H158.699V44.7792Z" fill="#030000"/>
<path d="M47.1251 48.3791V48.5191C46.1284 48.4791 46.0378 48.8691 46.0378 49.8791V55.2491L53.6284 48.9991C53.6989 48.9391 53.86 48.8291 53.86 48.6891C53.86 48.4691 53.4573 48.5091 53.3465 48.5091V48.3691H56.0949V48.5091C55.4204 48.5291 54.7861 48.7591 54.0714 49.3491L47.4673 54.7591L54.0613 60.2491C54.0613 60.2491 54.1318 60.3091 54.1519 60.3091C54.464 60.5591 54.8465 60.8491 54.9976 60.9691C56.0949 61.7691 56.6284 62.2391 57.5043 62.2391V62.3791H53.1452V62.2391C53.3969 62.2391 53.7291 62.2591 53.7291 62.0991C53.7291 61.9791 53.4976 61.7691 53.2559 61.5691L46.0378 55.5491V60.7491C46.0378 61.7591 46.0378 62.2991 47.1049 62.2291V62.3691H43.4707V62.2291C44.5378 62.2891 44.568 61.8391 44.568 60.8091V49.9591C44.568 48.7491 44.4573 48.4791 43.4707 48.5191V48.3791H47.1251Z" fill="white"/>
<path d="M61.5915 48.5208C61.4103 48.5008 60.6351 48.4808 60.6351 49.2608C60.615 49.3808 60.615 49.8808 60.615 49.9808V60.7208C60.615 61.8308 60.615 62.2608 61.5915 62.2408V62.3808H58.1787V62.2408C59.1049 62.2008 59.1351 61.9508 59.1351 60.7408V50.1008C59.1351 49.0708 59.1351 48.4608 58.1787 48.5208V48.3808H61.5915V48.5208Z" fill="white"/>
<path d="M75.8356 48.3808V48.5208C75.1208 48.5408 74.8389 48.7408 74.8389 49.8108V62.5608L64.6409 50.6708V61.0208C64.6409 62.1308 64.8725 62.1708 65.5671 62.2508V62.3908H63.1107V62.2508C64.0872 62.2108 64.0872 61.9008 64.0872 60.7708V51.2908C64.0872 50.3408 64.0872 48.4508 62.3154 48.5308V48.3908H64.7114L74.2953 59.5608V49.6708C74.2953 48.6408 73.9127 48.5208 73.3691 48.5208V48.3808H75.8456H75.8356Z" fill="white"/>
<path d="M89.6486 62.3796H84.4942C83.5479 62.3796 81.9875 62.3796 80.3264 61.2496C78.3432 59.8896 77.0244 57.6296 77.0244 55.2596C77.0244 52.1296 79.6016 48.1796 84.2325 48.1796C85.6217 48.1796 86.9003 48.5096 88.209 49.0896L88.7425 50.6996H88.6217C87.7358 49.4696 86.0949 48.5396 84.2123 48.5396C80.5882 48.5396 78.5748 51.9996 78.5748 55.6496C78.5748 59.0196 80.2761 60.5696 81.1721 61.1196C82.5613 61.9796 84.5143 62.0196 84.8063 62.0196L85.5009 61.9996C86.9405 61.9596 87.2425 61.8996 87.2425 60.7896V58.6696C87.2425 57.7696 86.8499 57.6396 86.3264 57.6596V57.5196H89.6385V57.6596C88.7727 57.6796 88.7123 58.1096 88.7123 58.8096V61.0096C88.7123 61.8696 88.8633 62.2596 89.4573 62.2596H89.6385V62.3996L89.6486 62.3796Z" fill="white"/>
<path d="M118.822 48.3791V48.5191C117.826 48.4791 117.745 48.8691 117.745 49.8791V55.2491L125.336 48.9991C125.406 48.9391 125.567 48.8291 125.567 48.6891C125.567 48.4691 125.155 48.5091 125.044 48.5091V48.3691H127.802V48.5091C127.128 48.5291 126.493 48.7591 125.779 49.3491L119.165 54.7591L125.759 60.2491C125.759 60.2491 125.829 60.3091 125.839 60.3091C126.161 60.5591 126.534 60.8491 126.695 60.9691C127.792 61.7691 128.326 62.2391 129.202 62.2391V62.3791H124.853V62.2391C125.104 62.2391 125.446 62.2591 125.446 62.0991C125.446 61.9791 125.215 61.7691 124.963 61.5691L117.745 55.5491V60.7491C117.745 61.7591 117.745 62.2991 118.812 62.2291V62.3691H115.168V62.2291C116.235 62.2891 116.275 61.8391 116.275 60.8091V49.9591C116.275 48.7491 116.165 48.4791 115.168 48.5191V48.3791H118.832H118.822Z" fill="white"/>
<path d="M134.124 62.5999C130.43 62.5999 128.084 59.5799 128.084 56.1399C128.084 52.6999 130.389 48.1699 135.242 48.1699C138.956 48.1699 141.352 50.9999 141.352 54.4399C141.352 58.7399 138.755 62.5999 134.124 62.5999ZM134.054 48.9099C131.708 48.9099 129.06 51.0599 129.06 54.3799C129.06 58.2899 131.99 61.8499 135.191 61.8499C137.93 61.8499 140.557 59.3399 140.557 56.1499C140.557 51.6199 136.571 48.9099 134.054 48.9099Z" fill="white"/>
<path d="M145.954 48.5208C145.773 48.5008 144.997 48.4808 144.997 49.2608C144.977 49.3808 144.977 49.8808 144.977 49.9808V60.7208C144.977 61.8308 144.977 62.2608 145.954 62.2408V62.3808H142.541V62.2408C143.467 62.2008 143.497 61.9508 143.497 60.7408V50.1008C143.497 49.0708 143.497 48.4608 142.541 48.5208V48.3808H145.954V48.5208Z" fill="white"/>
<path d="M146.769 62.2408C147.635 62.2408 147.726 61.8508 147.726 61.1508V49.6908C147.726 48.6408 147.464 48.5408 146.749 48.5208V48.3808H150.182V48.5208C149.205 48.5008 149.205 49.0108 149.205 49.7908V59.6208C149.205 61.3508 149.91 61.9208 151.662 61.9208H153.222C154.984 61.9208 155.377 60.9108 155.467 59.0208H155.588V62.3908H146.779V62.2508L146.769 62.2408Z" fill="white"/>
<mask id="mask0_225_19232" style="mask-type:luminance" maskUnits="userSpaceOnUse" x="107" y="50" width="2" height="2">
<path d="M107.789 50.9698C107.789 51.1798 108.061 51.3498 108.393 51.3498C108.725 51.3498 108.987 51.1798 108.987 50.9698C108.987 50.7598 108.715 50.5898 108.393 50.5898C108.071 50.5898 107.789 50.7598 107.789 50.9698Z" fill="white"/>
</mask>
<g mask="url(#mask0_225_19232)">
<path d="M108.987 50.5898H107.789V51.3498H108.987V50.5898Z" fill="url(#paint0_linear_225_19232)"/>
</g>
<mask id="mask1_225_19232" style="mask-type:luminance" maskUnits="userSpaceOnUse" x="113" y="53" width="2" height="2">
<path d="M113.446 53.8604C113.446 54.0704 113.718 54.2404 114.05 54.2404C114.383 54.2404 114.644 54.0704 114.644 53.8604C114.644 53.6504 114.383 53.4804 114.05 53.4804C113.718 53.4804 113.446 53.6504 113.446 53.8604Z" fill="white"/>
</mask>
<g mask="url(#mask1_225_19232)">
<path d="M114.644 53.4804H113.446V54.2404H114.644V53.4804Z" fill="url(#paint1_linear_225_19232)"/>
</g>
<mask id="mask2_225_19232" style="mask-type:luminance" maskUnits="userSpaceOnUse" x="91" y="50" width="23" height="10">
<path d="M102.534 50.3691C102.534 56.3591 99.9269 57.1291 96.8463 51.6191C98.4772 55.8191 96.7155 58.0291 91.249 54.5091L96.2222 59.2591H108.856L113.83 54.5091C108.353 58.0291 106.591 55.8191 108.232 51.6191C105.142 57.1291 102.544 56.3491 102.544 50.3691H102.534Z" fill="white"/>
</mask>
<g mask="url(#mask2_225_19232)">
<path d="M113.83 50.3691H91.249V59.2691H113.83V50.3691Z" fill="url(#paint2_linear_225_19232)"/>
</g>
<mask id="mask3_225_19232" style="mask-type:luminance" maskUnits="userSpaceOnUse" x="96" y="50" width="2" height="2">
<path d="M96.0918 50.9698C96.0918 51.1798 96.3636 51.3498 96.6958 51.3498C97.028 51.3498 97.2898 51.1798 97.2898 50.9698C97.2898 50.7598 97.028 50.5898 96.6958 50.5898C96.3636 50.5898 96.0918 50.7598 96.0918 50.9698Z" fill="white"/>
</mask>
<g mask="url(#mask3_225_19232)">
<path d="M97.2898 50.5898H96.0918V51.3498H97.2898V50.5898Z" fill="url(#paint3_linear_225_19232)"/>
</g>
<mask id="mask4_225_19232" style="mask-type:luminance" maskUnits="userSpaceOnUse" x="101" y="49" width="3" height="2">
<path d="M101.94 49.7198C101.94 49.9298 102.202 50.0998 102.534 50.0998C102.867 50.0998 103.138 49.9298 103.138 49.7198C103.138 49.5098 102.867 49.3398 102.534 49.3398C102.202 49.3398 101.94 49.5098 101.94 49.7198Z" fill="white"/>
</mask>
<g mask="url(#mask4_225_19232)">
<path d="M103.138 49.3398H101.94V50.0998H103.138V49.3398Z" fill="url(#paint4_linear_225_19232)"/>
</g>
<mask id="mask5_225_19232" style="mask-type:luminance" maskUnits="userSpaceOnUse" x="90" y="53" width="2" height="2">
<path d="M90.4229 53.8604C90.4229 54.0704 90.6947 54.2404 91.0168 54.2404C91.339 54.2404 91.6208 54.0704 91.6208 53.8604C91.6208 53.6504 91.3591 53.4804 91.0168 53.4804C90.6745 53.4804 90.4229 53.6504 90.4229 53.8604Z" fill="white"/>
</mask>
<g mask="url(#mask5_225_19232)">
<path d="M91.6208 53.4804H90.4229V54.2404H91.6208V53.4804Z" fill="url(#paint5_linear_225_19232)"/>
</g>
<path d="M109.077 59.6093H96V60.2293H109.077V59.6093Z" fill="url(#paint6_linear_225_19232)"/>
<path d="M157.007 60.5195C157.48 60.5195 157.863 60.9395 157.863 61.4695C157.863 61.9995 157.48 62.4295 157.007 62.4295C156.534 62.4295 156.151 62.0095 156.151 61.4695C156.151 60.9295 156.534 60.5195 157.007 60.5195ZM157.007 60.6695C156.625 60.6695 156.312 61.0295 156.312 61.4695C156.312 61.9095 156.625 62.2795 157.007 62.2795C157.4 62.2795 157.702 61.9295 157.702 61.4795C157.702 61.0295 157.4 60.6795 157.007 60.6795V60.6695ZM156.846 62.0195H156.695V60.9595C156.776 60.9595 156.846 60.9395 156.967 60.9395C157.118 60.9395 157.208 60.9795 157.269 61.0195C157.329 61.0695 157.359 61.1395 157.359 61.2395C157.359 61.3795 157.279 61.4695 157.168 61.4995C157.249 61.5195 157.309 61.6095 157.329 61.7695C157.349 61.9295 157.38 61.9995 157.39 62.0295H157.229C157.229 62.0295 157.178 61.8995 157.158 61.7595C157.138 61.6195 157.078 61.5695 156.947 61.5695H156.836V62.0295L156.846 62.0195ZM156.846 61.4395H156.957C157.088 61.4395 157.188 61.3895 157.188 61.2595C157.188 61.1595 157.118 61.0695 156.957 61.0695C156.906 61.0695 156.876 61.0695 156.846 61.0695V61.4295V61.4395Z" fill="white"/>
<path d="M44.3261 75.3095L44.8999 75.2495C44.9301 75.4995 44.9905 75.7095 45.0912 75.8695C45.1919 76.0295 45.3429 76.1695 45.5543 76.2695C45.7657 76.3695 46.0073 76.4195 46.259 76.4195C46.4905 76.4195 46.7019 76.3795 46.8731 76.3095C47.0543 76.2295 47.1852 76.1295 47.2758 75.9995C47.3664 75.8695 47.4066 75.7195 47.4066 75.5595C47.4066 75.3995 47.3664 75.2595 47.2758 75.1395C47.1952 75.0195 47.0442 74.9195 46.8529 74.8395C46.7321 74.7895 46.4603 74.6995 46.0274 74.5895C45.6046 74.4795 45.3026 74.3695 45.1315 74.2795C44.91 74.1495 44.7489 73.9895 44.6382 73.8095C44.5274 73.6195 44.4771 73.4095 44.4771 73.1795C44.4771 72.9195 44.5476 72.6795 44.6784 72.4595C44.8093 72.2295 45.0006 72.0695 45.2623 71.9495C45.514 71.8295 45.806 71.7695 46.108 71.7695C46.4503 71.7695 46.7523 71.8295 47.014 71.9495C47.2758 72.0695 47.4771 72.2495 47.618 72.4895C47.759 72.7195 47.8395 72.9895 47.8496 73.2895L47.2556 73.3395C47.2254 73.0195 47.1147 72.7795 46.9335 72.6095C46.7523 72.4495 46.4805 72.3695 46.1281 72.3695C45.7456 72.3695 45.4838 72.4495 45.3127 72.5895C45.1415 72.7395 45.061 72.9195 45.061 73.1295C45.061 73.3095 45.1214 73.4595 45.2422 73.5795C45.363 73.6995 45.665 73.8095 46.1684 73.9395C46.6617 74.0595 47.014 74.1695 47.1952 74.2595C47.467 74.3995 47.6583 74.5695 47.7892 74.7795C47.9201 74.9895 47.9805 75.2295 47.9805 75.4995C47.9805 75.7695 47.91 76.0295 47.7691 76.2695C47.6281 76.5095 47.4268 76.6895 47.155 76.8195C46.8932 76.9595 46.6013 77.0195 46.2691 77.0195C45.8462 77.0195 45.4939 76.9495 45.212 76.8195C44.9301 76.6895 44.7087 76.4895 44.5476 76.2095C44.3865 75.9395 44.306 75.6395 44.2959 75.2995" fill="#030000"/>
<path d="M54.6951 71.8691H54.0811V76.9391H54.6951V71.8691Z" fill="#030000"/>
<path d="M60.8975 76.9391V71.8691H61.5216L63.9579 75.8491V71.8691H64.5418V76.9391H63.9176L61.4814 72.9591V76.9391H60.8975Z" fill="#030000"/>
<path d="M73.9937 75.1595L74.6078 75.3295C74.4769 75.8795 74.2453 76.3095 73.9131 76.5895C73.5809 76.8795 73.1782 77.0295 72.695 77.0295C72.2118 77.0295 71.789 76.9195 71.4769 76.6895C71.1648 76.4695 70.9333 76.1495 70.7621 75.7195C70.601 75.2995 70.5205 74.8495 70.5205 74.3595C70.5205 73.8295 70.6111 73.3695 70.7923 72.9795C70.9735 72.5895 71.2453 72.2895 71.5776 72.0795C71.9198 71.8795 72.2923 71.7695 72.7051 71.7695C73.1682 71.7695 73.5507 71.8995 73.8729 72.1595C74.1849 72.4195 74.4165 72.7795 74.5373 73.2495L73.9333 73.3995C73.8326 73.0295 73.6715 72.7695 73.4702 72.5995C73.2688 72.4395 73.0071 72.3495 72.7051 72.3495C72.3427 72.3495 72.0507 72.4395 71.8091 72.6295C71.5675 72.8195 71.4064 73.0695 71.3057 73.3795C71.2151 73.6895 71.1648 74.0195 71.1648 74.3495C71.1648 74.7795 71.2252 75.1595 71.3359 75.4795C71.4467 75.7995 71.6279 76.0395 71.8695 76.1995C72.1111 76.3595 72.3729 76.4395 72.6547 76.4395C72.997 76.4395 73.289 76.3295 73.5205 76.1195C73.7521 75.8995 73.9131 75.5795 74.0037 75.1495" fill="#030000"/>
<path d="M80.5068 76.9391V71.8691H83.8592V72.4691H81.1209V74.0191H83.678V74.6091H81.1209V76.3391H83.9599V76.9391H80.5068Z" fill="#030000"/>
<path d="M95.3058 76.9398H94.7421V72.9698C94.6011 73.1198 94.43 73.2598 94.1985 73.3998C93.977 73.5498 93.7756 73.6498 93.6045 73.7198V73.1098C93.9166 72.9498 94.1984 72.7498 94.4401 72.5198C94.6716 72.2898 94.8427 72.0598 94.9434 71.8398H95.3058V76.9298V76.9398Z" fill="#030000"/>
<path d="M102.765 74.1995C102.534 74.0995 102.353 73.9695 102.242 73.7895C102.121 73.6195 102.071 73.4095 102.071 73.1595C102.071 72.7895 102.192 72.4795 102.433 72.2295C102.675 71.9795 102.997 71.8495 103.4 71.8495C103.802 71.8495 104.125 71.9795 104.376 72.2295C104.628 72.4895 104.749 72.7995 104.749 73.1695C104.749 73.3995 104.688 73.6095 104.578 73.7795C104.467 73.9595 104.296 74.0895 104.064 74.1895C104.346 74.2895 104.567 74.4495 104.708 74.6795C104.859 74.9095 104.93 75.1695 104.93 75.4895C104.93 75.9295 104.789 76.2895 104.517 76.5795C104.235 76.8795 103.863 77.0195 103.41 77.0195C102.957 77.0195 102.584 76.8695 102.302 76.5695C102.021 76.2695 101.89 75.9095 101.89 75.4595C101.89 75.1295 101.97 74.8495 102.121 74.6295C102.272 74.4095 102.494 74.2595 102.776 74.1795M102.463 75.4795C102.463 75.6595 102.504 75.8295 102.584 75.9895C102.665 76.1595 102.776 76.2895 102.927 76.3795C103.078 76.4695 103.239 76.5195 103.42 76.5195C103.692 76.5195 103.913 76.4195 104.094 76.2295C104.265 76.0395 104.356 75.7895 104.356 75.4995C104.356 75.2095 104.265 74.9595 104.084 74.7595C103.903 74.5695 103.682 74.4695 103.4 74.4695C103.118 74.4695 102.906 74.5595 102.735 74.7595C102.564 74.9495 102.474 75.1995 102.474 75.4895M102.655 73.1295C102.655 73.3695 102.725 73.5695 102.866 73.7195C103.007 73.8695 103.188 73.9495 103.41 73.9495C103.631 73.9495 103.802 73.8695 103.953 73.7195C104.094 73.5695 104.165 73.3795 104.165 73.1695C104.165 72.9395 104.094 72.7495 103.943 72.5895C103.802 72.4395 103.621 72.3595 103.4 72.3595C103.178 72.3595 103.007 72.4395 102.856 72.5895C102.715 72.7395 102.645 72.9195 102.645 73.1295" fill="#030000"/>
<path d="M110.699 75.7598L111.242 75.6998C111.293 75.9798 111.373 76.1898 111.504 76.3098C111.635 76.4398 111.806 76.4998 112.007 76.4998C112.179 76.4998 112.33 76.4598 112.471 76.3698C112.601 76.2798 112.712 76.1598 112.793 76.0198C112.873 75.8698 112.944 75.6698 113.004 75.4298C113.064 75.1798 113.085 74.9298 113.085 74.6698V74.5498C112.974 74.7398 112.813 74.9098 112.622 75.0298C112.43 75.1598 112.209 75.2198 111.987 75.2198C111.605 75.2198 111.283 75.0698 111.011 74.7598C110.749 74.4498 110.618 74.0498 110.618 73.5498C110.618 73.0498 110.759 72.6198 111.031 72.3098C111.313 71.9998 111.655 71.8398 112.068 71.8398C112.37 71.8398 112.642 71.9298 112.893 72.1098C113.145 72.2898 113.336 72.5398 113.457 72.8698C113.588 73.1898 113.658 73.6698 113.658 74.2898C113.658 74.9098 113.588 75.4498 113.457 75.8398C113.336 76.2198 113.145 76.5198 112.883 76.7098C112.632 76.9098 112.33 77.0198 111.987 77.0198C111.625 77.0198 111.333 76.9098 111.101 76.6898C110.87 76.4698 110.739 76.1598 110.689 75.7598M113.024 73.5298C113.024 73.1698 112.934 72.8898 112.762 72.6798C112.591 72.4698 112.38 72.3698 112.138 72.3698C111.897 72.3698 111.665 72.4798 111.474 72.7098C111.283 72.9398 111.192 73.2298 111.192 73.5898C111.192 73.9098 111.273 74.1798 111.454 74.3798C111.635 74.5798 111.846 74.6798 112.118 74.6798C112.39 74.6798 112.591 74.5798 112.762 74.3798C112.924 74.1798 113.014 73.8998 113.014 73.5398" fill="#030000"/>
<path d="M120.213 74.1995C119.981 74.0995 119.8 73.9695 119.689 73.7895C119.568 73.6195 119.518 73.4095 119.518 73.1595C119.518 72.7895 119.639 72.4795 119.881 72.2295C120.122 71.9795 120.444 71.8495 120.847 71.8495C121.25 71.8495 121.582 71.9795 121.823 72.2295C122.065 72.4895 122.196 72.7995 122.196 73.1695C122.196 73.3995 122.136 73.6095 122.025 73.7795C121.914 73.9595 121.743 74.0895 121.511 74.1895C121.793 74.2895 122.015 74.4495 122.156 74.6795C122.307 74.9095 122.377 75.1695 122.377 75.4895C122.377 75.9295 122.236 76.2895 121.964 76.5795C121.683 76.8795 121.31 77.0195 120.857 77.0195C120.404 77.0195 120.032 76.8695 119.75 76.5695C119.468 76.2695 119.337 75.9095 119.337 75.4595C119.337 75.1295 119.417 74.8495 119.568 74.6295C119.719 74.4095 119.941 74.2595 120.223 74.1795M119.911 75.4795C119.911 75.6595 119.951 75.8295 120.021 75.9895C120.102 76.1595 120.213 76.2895 120.364 76.3795C120.515 76.4695 120.676 76.5195 120.847 76.5195C121.119 76.5195 121.34 76.4195 121.521 76.2295C121.693 76.0395 121.783 75.7895 121.783 75.4995C121.783 75.2095 121.693 74.9595 121.511 74.7595C121.33 74.5695 121.109 74.4695 120.827 74.4695C120.545 74.4695 120.334 74.5595 120.152 74.7595C119.981 74.9495 119.891 75.1995 119.891 75.4895M120.092 73.1295C120.092 73.3695 120.162 73.5695 120.313 73.7195C120.454 73.8695 120.626 73.9495 120.857 73.9495C121.089 73.9495 121.26 73.8695 121.401 73.7195C121.542 73.5695 121.612 73.3795 121.612 73.1695C121.612 72.9395 121.542 72.7495 121.401 72.5895C121.25 72.4395 121.079 72.3595 120.867 72.3595C120.656 72.3595 120.475 72.4395 120.323 72.5895C120.183 72.7395 120.102 72.9195 120.102 73.1295" fill="#030000"/>
<path d="M134.789 71.8691H135.403V74.7991C135.403 75.3091 135.343 75.7191 135.242 76.0191C135.142 76.3191 134.95 76.5591 134.668 76.7491C134.397 76.9391 134.034 77.0291 133.581 77.0291C133.128 77.0291 132.796 76.9491 132.514 76.7891C132.242 76.6191 132.051 76.3891 131.92 76.0791C131.799 75.7691 131.749 75.3491 131.749 74.8091V71.8791H132.363V74.8091C132.363 75.2491 132.403 75.5791 132.474 75.7791C132.554 75.9891 132.685 76.1491 132.866 76.2591C133.048 76.3691 133.269 76.4291 133.531 76.4291C133.984 76.4291 134.306 76.3191 134.497 76.0991C134.689 75.8691 134.789 75.4391 134.789 74.8091V71.8791V71.8691Z" fill="#030000"/>
<path d="M141.343 75.3095L141.917 75.2495C141.947 75.4995 142.007 75.7095 142.108 75.8695C142.209 76.0295 142.36 76.1695 142.571 76.2695C142.782 76.3695 143.024 76.4195 143.276 76.4195C143.507 76.4195 143.719 76.3795 143.9 76.3095C144.071 76.2295 144.212 76.1295 144.292 75.9995C144.373 75.8695 144.423 75.7195 144.423 75.5595C144.423 75.3995 144.383 75.2595 144.292 75.1395C144.212 75.0195 144.061 74.9195 143.87 74.8395C143.749 74.7895 143.477 74.6995 143.044 74.5895C142.621 74.4795 142.319 74.3695 142.148 74.2795C141.927 74.1495 141.766 73.9895 141.655 73.8095C141.544 73.6195 141.494 73.4095 141.494 73.1795C141.494 72.9195 141.564 72.6795 141.695 72.4595C141.826 72.2295 142.017 72.0695 142.279 71.9495C142.531 71.8295 142.823 71.7695 143.125 71.7695C143.467 71.7695 143.769 71.8295 144.031 71.9495C144.292 72.0695 144.494 72.2495 144.635 72.4895C144.776 72.7195 144.856 72.9895 144.866 73.2895L144.282 73.3395C144.252 73.0195 144.141 72.7795 143.96 72.6095C143.779 72.4495 143.507 72.3695 143.155 72.3695C142.803 72.3695 142.521 72.4495 142.349 72.5895C142.178 72.7395 142.098 72.9195 142.098 73.1295C142.098 73.3095 142.158 73.4595 142.279 73.5795C142.4 73.6995 142.712 73.8095 143.205 73.9395C143.709 74.0595 144.051 74.1695 144.232 74.2595C144.504 74.3995 144.705 74.5695 144.836 74.7795C144.967 74.9895 145.027 75.2295 145.027 75.4995C145.027 75.7695 144.957 76.0295 144.816 76.2695C144.675 76.5095 144.474 76.6895 144.212 76.8195C143.95 76.9595 143.648 77.0195 143.316 77.0195C142.893 77.0195 142.541 76.9495 142.259 76.8195C141.977 76.6895 141.756 76.4895 141.594 76.2095C141.433 75.9395 141.353 75.6395 141.343 75.2995" fill="#030000"/>
<path d="M150.483 76.9391L152.255 71.8691H152.92L154.812 76.9391H154.108L153.574 75.3991H151.641L151.128 76.9391H150.483ZM151.812 74.8491H153.373L152.889 73.4491C152.738 73.0191 152.638 72.6691 152.567 72.3991C152.507 72.7191 152.426 73.0491 152.316 73.3691L151.812 74.8491Z" fill="#030000"/>
</g>
</g>
<defs>
<linearGradient id="paint0_linear_225_19232" x1="108.624" y1="60.9454" x2="109.818" y2="60.9454" gradientUnits="userSpaceOnUse">
<stop stop-color="#FCD100"/>
<stop offset="0.16" stop-color="#B79100"/>
<stop offset="0.21" stop-color="#C39C00"/>
<stop offset="0.32" stop-color="#E2B900"/>
<stop offset="0.43" stop-color="#F5CA00"/>
<stop offset="0.5" stop-color="#FCD100"/>
<stop offset="0.85" stop-color="#FFF165"/>
<stop offset="1" stop-color="#FCD100"/>
</linearGradient>
<linearGradient id="paint1_linear_225_19232" x1="113.575" y1="55.3349" x2="114.769" y2="55.3349" gradientUnits="userSpaceOnUse">
<stop stop-color="#FCD100"/>
<stop offset="0.16" stop-color="#B79100"/>
<stop offset="0.21" stop-color="#C39C00"/>
<stop offset="0.32" stop-color="#E2B900"/>
<stop offset="0.43" stop-color="#F5CA00"/>
<stop offset="0.5" stop-color="#FCD100"/>
<stop offset="0.85" stop-color="#FFF165"/>
<stop offset="1" stop-color="#FCD100"/>
</linearGradient>
<linearGradient id="paint2_linear_225_19232" x1="91.9628" y1="61.2161" x2="114.567" y2="61.2161" gradientUnits="userSpaceOnUse">
<stop stop-color="#FCD100"/>
<stop offset="0.16" stop-color="#B79100"/>
<stop offset="0.21" stop-color="#C39C00"/>
<stop offset="0.32" stop-color="#E2B900"/>
<stop offset="0.43" stop-color="#F5CA00"/>
<stop offset="0.5" stop-color="#FCD100"/>
<stop offset="0.85" stop-color="#FFF165"/>
<stop offset="1" stop-color="#FCD100"/>
</linearGradient>
<linearGradient id="paint3_linear_225_19232" x1="96.341" y1="53.8993" x2="97.5347" y2="53.8993" gradientUnits="userSpaceOnUse">
<stop stop-color="#FCD100"/>
<stop offset="0.16" stop-color="#B79100"/>
<stop offset="0.21" stop-color="#C39C00"/>
<stop offset="0.32" stop-color="#E2B900"/>
<stop offset="0.43" stop-color="#F5CA00"/>
<stop offset="0.5" stop-color="#FCD100"/>
<stop offset="0.85" stop-color="#FFF165"/>
<stop offset="1" stop-color="#FCD100"/>
</linearGradient>
<linearGradient id="paint4_linear_225_19232" x1="102.572" y1="57.0589" x2="103.766" y2="57.0589" gradientUnits="userSpaceOnUse">
<stop stop-color="#FCD100"/>
<stop offset="0.16" stop-color="#B79100"/>
<stop offset="0.21" stop-color="#C39C00"/>
<stop offset="0.32" stop-color="#E2B900"/>
<stop offset="0.43" stop-color="#F5CA00"/>
<stop offset="0.5" stop-color="#FCD100"/>
<stop offset="0.85" stop-color="#FFF165"/>
<stop offset="1" stop-color="#FCD100"/>
</linearGradient>
<linearGradient id="paint5_linear_225_19232" x1="90.8179" y1="58.2642" x2="92.0116" y2="58.2642" gradientUnits="userSpaceOnUse">
<stop stop-color="#FCD100"/>
<stop offset="0.16" stop-color="#B79100"/>
<stop offset="0.21" stop-color="#C39C00"/>
<stop offset="0.32" stop-color="#E2B900"/>
<stop offset="0.43" stop-color="#F5CA00"/>
<stop offset="0.5" stop-color="#FCD100"/>
<stop offset="0.85" stop-color="#FFF165"/>
<stop offset="1" stop-color="#FCD100"/>
</linearGradient>
<linearGradient id="paint6_linear_225_19232" x1="95.6099" y1="56.3093" x2="108.625" y2="56.3093" gradientUnits="userSpaceOnUse">
<stop stop-color="#FCD100"/>
<stop offset="0.16" stop-color="#B79100"/>
<stop offset="0.21" stop-color="#C39C00"/>
<stop offset="0.32" stop-color="#E2B900"/>
<stop offset="0.43" stop-color="#F5CA00"/>
<stop offset="0.5" stop-color="#FCD100"/>
<stop offset="0.85" stop-color="#FFF165"/>
<stop offset="1" stop-color="#FCD100"/>
</linearGradient>
<clipPath id="clip0_225_19232">
<rect x="0.473633" width="198" height="120" rx="7.02062" fill="white"/>
</clipPath>
<clipPath id="clip1_225_19232">
<rect width="152.039" height="114.145" fill="white" transform="translate(24.2061 3.388)"/>
</clipPath>
</defs>
</svg>
