<svg width="240" height="160" viewBox="0 0 240 160" fill="none" xmlns="http://www.w3.org/2000/svg">
<g filter="url(#filter0_d_226_20254)">
<g clip-path="url(#clip0_226_20254)">
<rect x="20.4736" y="19" width="199" height="120" rx="7.02062" fill="white"/>
<rect x="20.4736" y="19" width="199" height="120" fill="white"/>
<g clip-path="url(#clip1_226_20254)">
<path d="M58.0703 69.1501C58.8403 69.3801 59.5103 69.5701 60.0703 69.7301C60.8103 69.9301 61.1803 70.1101 61.1803 70.2701C61.1803 70.4701 60.9503 70.6001 60.4903 70.6501C61.5903 71.0401 62.3903 71.3901 62.9003 71.7201C63.4503 72.1101 63.7403 72.4601 63.7403 72.7701C63.7403 72.9701 63.7203 73.1601 63.6703 73.3301C64.3303 73.4201 65.2103 73.4601 66.3103 73.4601H67.5303V71.8501C66.2403 71.9301 65.0203 71.9701 63.8403 71.9801L63.6503 71.4901C65.7603 71.1501 67.3303 70.8001 68.3503 70.4401C69.4203 70.1401 70.5203 69.6901 71.6503 69.0801C72.3503 69.6001 72.9203 70.0001 73.3403 70.3001C73.9903 70.7601 74.3103 71.0901 74.3103 71.2901C74.3103 71.4701 74.2003 71.5701 73.9703 71.5701L72.8303 71.4901C71.8203 71.5701 70.8203 71.6501 69.8503 71.7201V73.4601H71.5703C71.6303 73.4301 71.8603 73.1501 72.2803 72.6001C72.8103 71.9701 73.1203 71.6601 73.2003 71.6601C73.4603 71.6601 73.8803 71.9701 74.4703 72.5801C75.0603 73.2001 75.3503 73.5701 75.3503 73.7201C75.3503 73.9301 75.2103 74.0401 74.9203 74.0401H69.8603V75.8401H71.0403C71.3703 75.5201 71.6703 75.2401 71.9403 74.9801C72.1603 74.7601 72.3503 74.6601 72.5203 74.6601C72.6803 74.6601 73.0803 74.8501 73.7203 75.2401C74.4703 75.7401 74.8403 76.0901 74.8403 76.2901C74.8403 76.4701 74.6803 76.6701 74.3503 76.8701C74.1103 77.0601 73.9903 77.2501 73.9903 77.4701V79.8901C73.9903 80.4901 74.0203 81.3201 74.0803 82.3601C74.0803 82.6401 73.7303 82.8601 73.0503 83.0001C72.7303 83.0301 72.5003 83.0401 72.3603 83.0401C71.9403 83.0401 71.7403 82.8501 71.7403 82.4601H69.8703V84.6901H71.5003C71.5003 84.6901 71.7303 84.4301 72.0603 84.0001C72.4603 83.4801 72.7003 83.2101 72.7703 83.2101C73.0103 83.2101 73.3703 83.4801 73.8603 84.0001C74.3303 84.5201 74.5703 84.8301 74.5703 84.9301C74.5703 85.1701 74.4603 85.2901 74.2503 85.2901H69.8703V87.7601H71.3303C71.3803 87.7601 71.6303 87.4501 72.0603 86.8801C72.5603 86.2101 72.8603 85.8801 72.9603 85.8801C73.2303 85.8801 73.6603 86.2001 74.2703 86.8701C74.8803 87.5001 75.1903 87.8901 75.1903 88.0501C75.1903 88.2801 75.0403 88.3901 74.7403 88.3901H65.3003C64.0603 88.3901 63.1703 88.4201 62.6403 88.4701L62.3203 87.6101C63.0103 87.7101 64.0003 87.7601 65.3003 87.7601H67.5503V85.2901H66.4103C65.1703 85.2901 64.2803 85.3201 63.7503 85.3801L63.4003 84.5201C64.1003 84.6301 65.1003 84.7001 66.4003 84.7001H67.5403V82.4701H66.0003V82.7201C66.0003 82.9901 65.6703 83.2001 65.0103 83.3501C64.7103 83.4001 64.4903 83.4101 64.3403 83.4101C63.8803 83.4101 63.6603 83.1801 63.6603 82.7201C63.6903 82.4701 63.7003 82.2101 63.7003 81.9701C63.6703 81.9801 63.6403 81.9901 63.6103 81.9901C63.3403 82.0201 63.1903 82.0501 63.1603 82.1001C62.5003 83.2101 61.6903 84.2201 60.7403 85.1001L60.5903 84.9301C60.9703 83.5701 61.2503 82.0801 61.4503 80.4701C62.0503 80.6801 62.6403 80.9001 63.2103 81.1101C63.4403 81.1901 63.6203 81.2801 63.7503 81.3601V77.8001C63.7503 76.8001 63.6903 75.8301 63.5803 74.8801C64.4703 75.1201 65.3603 75.4401 66.2603 75.8301H67.5503V74.0301H66.3303C65.0803 74.0301 64.2003 74.0601 63.6703 74.1201L63.5203 73.7301C63.4603 73.8101 63.4003 73.9001 63.3503 73.9701C63.1103 74.3101 62.8103 74.4801 62.4703 74.4801C62.2503 74.4801 62.0503 74.4301 61.8703 74.3301C61.7103 74.2001 61.5303 73.8201 61.3303 73.1901C61.1403 72.5601 60.6503 71.8301 59.8503 70.9801C59.2903 72.1201 58.7003 73.0501 58.0703 73.7501C57.3403 74.6801 56.3803 75.5801 55.1803 76.4501L55.0303 76.1101C55.5603 75.3701 56.1403 74.3601 56.7703 73.0901C57.2703 72.0501 57.7103 70.7301 58.1003 69.1401L58.0703 69.1501ZM56.8903 75.2601C57.4603 75.3801 58.2903 75.4301 59.3803 75.4301C59.4203 75.4001 59.6303 75.1601 60.0003 74.7001C60.4703 74.1401 60.7403 73.8601 60.8203 73.8601C61.0703 73.8601 61.4203 74.1301 61.8903 74.6801C62.3803 75.2201 62.6203 75.5501 62.6203 75.6701C62.6203 75.9101 62.5103 76.0301 62.3003 76.0301H60.4103V78.8601C60.5103 78.7301 60.6903 78.5001 60.9503 78.1701C61.4203 77.6001 61.6903 77.3101 61.7603 77.3101C62.0203 77.3101 62.4003 77.5901 62.9003 78.1401C63.4003 78.7101 63.6503 79.0601 63.6503 79.1901C63.6503 79.4101 63.5403 79.5101 63.3303 79.5101H60.4103V85.9001C61.4803 85.7701 62.5103 85.6201 63.4803 85.4501L63.5703 85.7101C61.6103 86.9101 59.5303 87.7801 57.3203 88.3301C57.0803 88.3601 56.9603 88.4401 56.9603 88.5501C56.9503 88.6001 56.9303 88.6801 56.9203 88.7801C56.8703 88.9701 56.8103 89.0601 56.7203 89.0601C56.4503 89.0601 56.1303 88.5901 55.7603 87.6501C55.6603 87.4101 55.4903 86.9901 55.2503 86.4001C56.2903 86.3301 57.2903 86.2501 58.2503 86.1701V79.5201C57.0103 79.5201 56.1303 79.5501 55.6103 79.6101L55.2503 78.7701C55.9503 78.8801 56.9503 78.9501 58.2503 78.9501V76.0501C57.8203 76.0601 57.4803 76.0801 57.2203 76.1101L56.9003 75.2501L56.8903 75.2601ZM56.0103 80.6701C56.6403 81.1301 57.1303 81.6201 57.4903 82.1501C57.8203 82.6901 57.9803 83.2001 57.9803 83.6801C57.9803 84.2101 57.8803 84.5601 57.6803 84.7501C57.4103 85.0701 57.1203 85.2201 56.8003 85.2201C56.5703 85.2201 56.3903 85.1101 56.2403 84.9001C56.1303 84.7401 56.0703 84.3001 56.0703 83.5701C56.0703 82.7701 55.9703 81.8301 55.7703 80.7601L56.0103 80.6701ZM65.9803 78.6801H67.5203V76.4701H65.9803V78.6801ZM65.9803 81.8701H67.5203V79.2901H65.9803V81.8701ZM69.8503 76.4601V78.6701H71.7203V76.4601H69.8503ZM69.8503 79.3001V81.8801H71.7203V79.3001H69.8503Z" fill="#8C5E33"/>
<path d="M93.8598 71.04C93.3498 71.11 92.8398 71.17 92.3398 71.23C92.8798 71.4 93.3598 71.55 93.7698 71.66C94.5298 71.86 94.9098 72.06 94.9098 72.24C94.9098 72.47 94.6898 72.61 94.2498 72.67C93.8898 72.73 93.6798 72.81 93.6298 72.93C93.2298 73.37 92.8198 73.73 92.3998 74C92.1198 74.2 91.7898 74.39 91.4098 74.58H93.4498C93.7198 74.32 93.9498 74.1 94.1598 73.92C94.4598 73.62 94.6698 73.46 94.7998 73.46C95.0298 73.46 95.5198 73.78 96.2598 74.43C96.9598 74.97 97.3098 75.37 97.3098 75.61C97.3098 75.78 97.1398 75.89 96.7998 75.93C96.4098 75.93 96.1798 75.97 96.1098 76.04C95.5798 76.37 94.9598 76.7 94.2398 77.03C94.7698 77.21 95.1798 77.4 95.4798 77.59C96.0098 77.97 96.2698 78.43 96.2698 78.96C96.2698 79.34 96.0898 79.73 95.7298 80.12C95.4998 80.36 95.1898 80.48 94.7898 80.48C94.4498 80.48 94.1398 80.16 93.8698 79.51C93.5398 78.58 92.9298 77.67 92.0498 76.78L92.2398 76.46C92.5998 76.53 92.9298 76.61 93.2498 76.69C93.4498 76.18 93.6198 75.67 93.7598 75.17H80.0098C79.9798 75.84 79.9298 76.35 79.8598 76.67C79.7298 77.24 79.4998 77.65 79.1698 77.89C78.9998 78.02 78.7998 78.08 78.5898 78.08C78.1298 78.08 77.7498 77.95 77.4298 77.67C77.1598 77.45 77.0198 77.11 77.0198 76.68C77.0198 76.5 77.2598 76.26 77.7298 75.98C78.2498 75.72 78.6398 75.41 78.9098 75.06C79.1898 74.74 79.4298 74.27 79.6198 73.62L80.0298 73.71V74.57H82.0898C81.9598 74.41 81.8598 74.15 81.7898 73.8C81.6798 73.22 81.3798 72.53 80.9098 71.74H79.1698L79.0798 71.21C81.7798 71.06 84.1398 70.83 86.1598 70.5C88.2798 70.23 90.5198 69.73 92.8998 69C93.4998 69.37 94.0498 69.74 94.5498 70.09C95.0598 70.48 95.3198 70.8 95.3198 71.04C95.2798 71.15 95.0998 71.21 94.7798 71.21L93.8398 71.04H93.8598ZM83.9398 80.95C83.4398 80.82 83.0998 80.57 82.9098 80.2C82.7698 79.94 82.6898 79.47 82.6898 78.78V78.18C82.6898 77.39 82.6398 76.61 82.5398 75.84C83.1998 75.9 83.9398 76 84.7698 76.16C85.5698 76.27 85.9698 76.42 85.9698 76.61C85.9698 76.87 85.7598 77.07 85.3498 77.21C85.0898 77.31 84.9598 77.48 84.9398 77.73V78.18C84.9398 78.64 85.0698 78.91 85.3298 79C85.8398 79.08 86.6398 79.13 87.7098 79.13C88.3698 79.13 88.8998 79.09 89.3198 79C89.6498 78.93 89.8598 78.81 89.9598 78.66C90.0598 78.56 90.1698 78.34 90.2998 78.01C90.4398 77.59 90.5998 77.01 90.7698 76.3L91.2798 76.38C91.3198 77.15 91.3398 77.65 91.3398 77.86C91.3398 78.33 91.4898 78.68 91.7898 78.89C92.1898 79.14 92.3898 79.35 92.3898 79.54C92.3898 79.97 92.1598 80.31 91.6998 80.57C91.3398 80.78 90.9598 80.92 90.5398 80.97C89.8198 81.1 88.8698 81.17 87.6898 81.17H86.6998C86.3398 81.63 86.0098 82.02 85.7098 82.37H89.8098C89.9898 82.21 90.2098 82.05 90.4498 81.89C90.8198 81.58 91.0898 81.42 91.2698 81.42C91.5698 81.42 92.0598 81.66 92.7298 82.15C93.4598 82.69 93.8198 83.12 93.8198 83.41C93.8198 83.6 93.5898 83.72 93.1098 83.78C92.7498 83.81 92.5098 83.88 92.3798 83.99C91.6598 84.66 90.9398 85.26 90.1898 85.77C90.2598 85.78 90.3298 85.8 90.3898 85.81C91.9098 86.14 94.1498 86.4 97.1098 86.58L96.9298 87.09C96.3298 87.28 95.9098 87.69 95.6698 88.31C95.5398 88.81 95.4198 89.06 95.3098 89.06C94.5398 89.06 93.4598 88.89 92.0898 88.55C90.3698 88.16 88.9898 87.72 87.9498 87.22C87.8898 87.2 87.8298 87.18 87.7798 87.15C86.8098 87.57 85.7098 87.94 84.4798 88.27C82.0998 88.77 79.6698 89.06 77.1798 89.15L77.0098 88.7C79.5998 88.37 81.8198 87.89 83.6598 87.24C84.5598 86.87 85.3498 86.5 86.0398 86.13C85.7398 85.9 85.4598 85.65 85.1998 85.4C84.7298 84.93 84.3298 84.43 83.9998 83.92C83.4398 84.34 82.8298 84.71 82.1598 85.04C81.1698 85.54 80.0798 85.97 78.8998 86.33L78.7498 85.97C79.8698 85.35 80.8998 84.58 81.8598 83.63C82.6598 82.84 83.3498 81.95 83.9198 80.95H83.9398ZM81.3498 76.46L81.8398 76.52C81.8398 77.78 81.7498 78.72 81.5598 79.33C81.3998 79.97 81.1198 80.44 80.7198 80.75C80.4198 81.02 80.1098 81.16 79.7998 81.16C79.3298 81.16 78.9198 81.01 78.5698 80.71C78.2898 80.51 78.1398 80.24 78.1398 79.89C78.1398 79.54 78.4798 79.17 79.1498 78.77C80.0398 78.29 80.7698 77.51 81.3398 76.45L81.3498 76.46ZM83.4298 74.57H86.9898C86.9898 74.57 86.9598 74.54 86.9498 74.53C86.8198 74.41 86.7098 74.13 86.6098 73.67C86.4998 73.1 86.2498 72.43 85.8598 71.67C84.7598 71.7 83.5198 71.71 82.1498 71.71C82.5798 71.87 82.9398 72.03 83.2298 72.21C83.8198 72.57 84.1098 72.89 84.1098 73.17C84.1098 73.71 83.9098 74.16 83.5098 74.51C83.4998 74.51 83.4798 74.54 83.4498 74.57H83.4298ZM87.6998 85.11C88.3698 84.61 89.1198 83.9 89.9298 82.99H85.1698C85.0398 83.11 84.9098 83.21 84.7798 83.31C84.7198 83.37 84.6698 83.42 84.6098 83.46C85.3698 84.01 86.1398 84.46 86.9098 84.79C87.1398 84.91 87.3998 85.01 87.7098 85.11H87.6998ZM86.2398 75.43C87.4498 75.66 88.2998 75.9 88.7898 76.16C89.2098 76.41 89.4098 76.72 89.4098 77.06C89.4098 77.4 89.2598 77.76 88.9398 78.09C88.7398 78.31 88.4698 78.41 88.1198 78.41C87.8498 78.41 87.6098 78.17 87.4098 77.7C87.1498 77.03 86.6998 76.38 86.0598 75.75L86.2298 75.43H86.2398ZM88.1098 74.57H90.2298C90.4898 74.19 90.7598 73.68 91.0498 73.07C91.2798 72.6 91.4898 72.01 91.6698 71.29C90.1098 71.46 88.6498 71.59 87.2698 71.66C87.5698 71.79 87.8098 71.92 87.9998 72.05C88.5998 72.44 88.8998 72.79 88.8998 73.1C88.8998 73.64 88.6998 74.09 88.2998 74.43C88.2398 74.48 88.1698 74.54 88.0998 74.58L88.1098 74.57Z" fill="#8C5E33"/>
<path d="M99.0898 77.81C100.4 77.99 101.6 78.09 102.69 78.09H114.71C114.78 78.06 115.06 77.74 115.54 77.13C116.14 76.4 116.49 76.04 116.59 76.04C116.91 76.04 117.39 76.39 118.03 77.09C118.69 77.78 119.02 78.2 119.02 78.36C119.02 78.57 118.87 78.68 118.57 78.68H102.37C101.19 78.68 100.21 78.74 99.4298 78.87L99.0898 77.82V77.81Z" fill="#8C5E33"/>
<path d="M124.84 70.89C125.67 71.1 126.46 71.33 127.2 71.55C127.93 71.77 128.3 72 128.3 72.24C128.3 72.48 128.09 72.63 127.68 72.69C127.29 72.76 127.07 72.84 127.01 72.92C126.8 73.48 126.58 74 126.34 74.49H130.01V72.77C130.01 71.46 129.92 70.28 129.75 69.23C130.44 69.32 131.32 69.46 132.39 69.66C133.27 69.79 133.7 69.93 133.7 70.09C133.7 70.34 133.46 70.55 132.99 70.74C132.66 70.84 132.5 71.03 132.5 71.3V74.5H135.24C135.24 74.5 135.51 74.23 135.97 73.69C136.6 72.92 137.01 72.53 137.22 72.53C137.41 72.53 137.96 72.95 138.87 73.77C139.42 74.29 139.69 74.6 139.69 74.74C139.69 74.97 139.53 75.08 139.2 75.08H132.51V80.68H134.65C134.71 80.65 134.97 80.33 135.44 79.72C136.01 78.98 136.35 78.6 136.45 78.6C136.75 78.6 137.22 78.95 137.86 79.65C138.52 80.36 138.85 80.78 138.85 80.94C138.85 81.16 138.71 81.26 138.42 81.26H132.5V87.64H136.53C136.6 87.61 136.89 87.27 137.39 86.63C138.02 85.87 138.39 85.49 138.5 85.49C138.82 85.49 139.31 85.85 139.98 86.56C140.65 87.29 140.99 87.73 140.99 87.87C140.99 88.11 140.84 88.23 140.54 88.23H124.43C123.19 88.23 122.3 88.26 121.77 88.31L121.41 87.45C122.11 87.57 123.12 87.63 124.43 87.63H130.01V81.25H126.73C125.49 81.25 124.6 81.28 124.07 81.34L123.75 80.49C124.44 80.62 125.43 80.68 126.73 80.68H130.01V75.08H126.06C125.7 75.77 125.31 76.38 124.9 76.91C124.16 77.97 123.16 79.05 121.92 80.17L121.6 79.83C122.48 78.33 123.16 76.95 123.63 75.71C124.12 74.37 124.52 72.77 124.83 70.9L124.84 70.89Z" fill="#8C5E33"/>
<path d="M150.68 69.15C151.52 69.41 152.25 69.63 152.85 69.81C153.65 70.03 154.05 70.23 154.05 70.44C154.05 70.67 153.82 70.81 153.37 70.86C153.04 70.92 152.84 71.01 152.77 71.12C152.52 71.44 152.28 71.72 152.04 71.98H156.54C156.8 71.76 157.05 71.55 157.29 71.32C157.68 70.98 157.97 70.81 158.17 70.81C158.41 70.81 158.96 71.14 159.82 71.79C160.66 72.49 161.09 72.95 161.09 73.19C161.09 73.36 160.8 73.53 160.23 73.69C159.65 73.79 159.34 73.88 159.28 73.97C157.81 75.76 156.36 77.15 154.95 78.15C153.47 79.22 151.97 80.1 150.44 80.77L150.61 80.85H158.17C158.51 80.44 158.84 80.09 159.15 79.8C159.38 79.51 159.59 79.37 159.77 79.37C159.97 79.37 160.43 79.59 161.14 80.04C161.96 80.6 162.36 80.97 162.36 81.18C162.36 81.39 162.19 81.61 161.87 81.84C161.61 82.02 161.48 82.24 161.48 82.48V85.48C161.48 86.18 161.51 87.15 161.57 88.4C161.57 88.67 161.17 88.88 160.39 89.02C160.03 89.06 159.77 89.08 159.6 89.08C159.21 89.08 159.02 88.85 159.02 88.39V87.53H150.5V88.39C150.5 88.66 150.14 88.87 149.41 89.01C149.11 89.05 148.87 89.07 148.7 89.07C148.19 89.07 147.93 88.84 147.93 88.38C148.06 87.34 148.12 86.28 148.12 85.2V81.72C146.53 82.34 144.89 82.86 143.21 83.29L143.04 82.88C145.69 81.69 148.16 80.38 150.47 78.93C150.83 78.69 151.16 78.45 151.46 78.22C151.43 78.24 151.4 78.25 151.37 78.25C151.04 78.25 150.75 77.97 150.49 77.41C150.19 76.64 149.62 75.88 148.8 75.16L148.99 74.8C150.44 75.1 151.44 75.4 152.01 75.7C152.51 76.02 152.77 76.37 152.77 76.77C152.77 76.97 152.72 77.16 152.64 77.35C153.31 76.81 153.86 76.3 154.27 75.83C155.17 74.81 155.96 73.73 156.63 72.59H151.48C150.82 73.27 150.14 73.84 149.44 74.33C148.12 75.35 146.36 76.34 144.16 77.31L143.9 76.96C145.09 76.13 146.36 75 147.72 73.57C148.83 72.38 149.82 70.9 150.68 69.13V69.15ZM150.5 86.91H159.02V81.42H150.5V86.91Z" fill="#8C5E33"/>
<path d="M174.19 69.0799C175.17 69.1699 176.1 69.2799 176.98 69.4199C177.54 69.4499 177.82 69.5899 177.82 69.8499C177.82 69.9499 177.65 70.0799 177.32 70.2399C176.96 70.4099 176.79 70.6299 176.79 70.8799V72.1499H180.22C180.22 72.1499 180.5 71.8799 180.97 71.3299C181.59 70.5599 182 70.1699 182.19 70.1699C182.38 70.1699 182.92 70.5999 183.84 71.4499C184.4 71.9499 184.68 72.2799 184.68 72.4199C184.68 72.6499 184.51 72.7599 184.16 72.7599H169.31V77.7999C169.31 79.7199 169.2 81.3899 168.99 82.8199C168.75 84.1099 168.32 85.3099 167.7 86.4199C167.17 87.2899 166.45 88.1699 165.54 89.0599L165.17 88.8899C165.84 87.4299 166.3 86.0799 166.54 84.8199C166.83 83.2699 166.97 80.9299 166.97 77.7999C166.97 74.6699 166.89 72.3899 166.73 71.0199C168 71.3999 169 71.7799 169.71 72.1399H174.35V70.9599C174.35 70.3399 174.29 69.7199 174.18 69.0699L174.19 69.0799ZM169.73 77.2399C170.43 77.3599 171.44 77.4099 172.76 77.4099H175.15C175.15 75.9399 175.07 74.6499 174.91 73.5499C175.58 73.6099 176.43 73.7199 177.46 73.8699C178.16 73.9599 178.51 74.1099 178.51 74.3199C178.51 74.5599 178.3 74.7499 177.89 74.8699C177.62 74.9699 177.48 75.1599 177.48 75.4299V77.3999H180.49C180.55 77.3699 180.8 77.0699 181.24 76.4799C181.78 75.7799 182.11 75.4299 182.21 75.4299C182.5 75.4299 182.94 75.7699 183.56 76.4399C184.19 77.0999 184.5 77.4999 184.5 77.6399C184.5 77.8799 184.36 77.9999 184.09 77.9999H177.83C178.8 79.8799 179.89 81.2699 181.11 82.1899C182.37 83.1199 183.62 83.7799 184.87 84.1599L184.78 84.6099C184.18 84.7999 183.73 85.2099 183.43 85.8599C183.27 86.3399 183.12 86.5899 182.98 86.5899C182.75 86.5899 182.24 86.2299 181.44 85.5099C180.61 84.6999 179.82 83.6899 179.06 82.5099C178.45 81.3799 177.92 80.1799 177.49 78.8999V88.4699C177.49 88.7599 177.14 88.9599 176.44 89.0899C176.13 89.1399 175.9 89.1499 175.77 89.1499C175.25 89.1499 175 88.9299 175 88.4599C175.1 87.0899 175.15 85.8299 175.15 84.6899V81.3599C174.91 81.7199 174.66 82.0399 174.42 82.2999C173.62 83.2299 172.7 84.0499 171.65 84.7699C170.62 85.4699 169.47 86.0799 168.22 86.5699L168.03 86.2299C169.36 85.3299 170.6 84.1999 171.74 82.8399C172.89 81.4399 173.85 79.8199 174.64 77.9899H172.77C171.53 77.9899 170.64 78.0199 170.11 78.0799L169.74 77.2199L169.73 77.2399Z" fill="#8C5E33"/>
</g>
</g>
</g>
<defs>
<filter id="filter0_d_226_20254" x="0.473633" y="0" width="239" height="160" filterUnits="userSpaceOnUse" color-interpolation-filters="sRGB">
<feFlood flood-opacity="0" result="BackgroundImageFix"/>
<feColorMatrix in="SourceAlpha" type="matrix" values="0 0 0 0 0 0 0 0 0 0 0 0 0 0 0 0 0 0 127 0" result="hardAlpha"/>
<feOffset dy="1"/>
<feGaussianBlur stdDeviation="10"/>
<feComposite in2="hardAlpha" operator="out"/>
<feColorMatrix type="matrix" values="0 0 0 0 0 0 0 0 0 0 0 0 0 0 0 0 0 0 0.08 0"/>
<feBlend mode="normal" in2="BackgroundImageFix" result="effect1_dropShadow_226_20254"/>
<feBlend mode="normal" in="SourceGraphic" in2="effect1_dropShadow_226_20254" result="shape"/>
</filter>
<clipPath id="clip0_226_20254">
<rect x="20.4736" y="19" width="199" height="120" rx="7.02062" fill="white"/>
</clipPath>
<clipPath id="clip1_226_20254">
<rect width="129.86" height="20.16" fill="white" transform="translate(55 69)"/>
</clipPath>
</defs>
</svg>
