<svg width="239" height="160" viewBox="0 0 239 160" fill="none" xmlns="http://www.w3.org/2000/svg">
<g filter="url(#filter0_d_225_19231)">
<g clip-path="url(#clip0_225_19231)">
<g clip-path="url(#clip1_225_19231)">
<rect x="20.4736" y="19" width="198" height="120" fill="white"/>
<g clip-path="url(#clip2_225_19231)">
<path d="M181.377 86.5999H57.7627V60.9999H181.377V86.5999ZM58.9607 85.4099H180.179V62.1899H58.9607V85.4199V85.4099Z" fill="#030000"/>
<path d="M178.699 63.7792H60.4102V83.8692H178.699V63.7792Z" fill="#030000"/>
<path d="M67.1251 67.3791V67.5191C66.1284 67.4791 66.0378 67.8691 66.0378 68.8791V74.2491L73.6284 67.9991C73.6989 67.9391 73.86 67.8291 73.86 67.6891C73.86 67.4691 73.4573 67.5091 73.3465 67.5091V67.3691H76.0949V67.5091C75.4204 67.5291 74.7861 67.7591 74.0714 68.3491L67.4673 73.7591L74.0613 79.2491C74.0613 79.2491 74.1318 79.3091 74.1519 79.3091C74.464 79.5591 74.8465 79.8491 74.9976 79.9691C76.0949 80.7691 76.6284 81.2391 77.5043 81.2391V81.3791H73.1452V81.2391C73.3969 81.2391 73.7291 81.2591 73.7291 81.0991C73.7291 80.9791 73.4976 80.7691 73.2559 80.5691L66.0378 74.5491V79.7491C66.0378 80.7591 66.0378 81.2991 67.1049 81.2291V81.3691H63.4707V81.2291C64.5378 81.2891 64.568 80.8391 64.568 79.8091V68.9591C64.568 67.7491 64.4573 67.4791 63.4707 67.5191V67.3791H67.1251Z" fill="white"/>
<path d="M81.5915 67.5208C81.4103 67.5008 80.6351 67.4808 80.6351 68.2608C80.615 68.3808 80.615 68.8808 80.615 68.9808V79.7208C80.615 80.8308 80.615 81.2608 81.5915 81.2408V81.3808H78.1787V81.2408C79.1049 81.2008 79.1351 80.9508 79.1351 79.7408V69.1008C79.1351 68.0708 79.1351 67.4608 78.1787 67.5208V67.3808H81.5915V67.5208Z" fill="white"/>
<path d="M95.8356 67.3808V67.5208C95.1208 67.5408 94.8389 67.7408 94.8389 68.8108V81.5608L84.6409 69.6708V80.0208C84.6409 81.1308 84.8725 81.1708 85.5671 81.2508V81.3908H83.1107V81.2508C84.0872 81.2108 84.0872 80.9008 84.0872 79.7708V70.2908C84.0872 69.3408 84.0872 67.4508 82.3154 67.5308V67.3908H84.7114L94.2953 78.5608V68.6708C94.2953 67.6408 93.9127 67.5208 93.3691 67.5208V67.3808H95.8456H95.8356Z" fill="white"/>
<path d="M109.649 81.3796H104.494C103.548 81.3796 101.987 81.3796 100.326 80.2496C98.3432 78.8896 97.0244 76.6296 97.0244 74.2596C97.0244 71.1296 99.6016 67.1796 104.232 67.1796C105.622 67.1796 106.9 67.5096 108.209 68.0896L108.743 69.6996H108.622C107.736 68.4696 106.095 67.5396 104.212 67.5396C100.588 67.5396 98.5748 70.9996 98.5748 74.6496C98.5748 78.0196 100.276 79.5696 101.172 80.1196C102.561 80.9796 104.514 81.0196 104.806 81.0196L105.501 80.9996C106.941 80.9596 107.243 80.8996 107.243 79.7896V77.6696C107.243 76.7696 106.85 76.6396 106.326 76.6596V76.5196H109.639V76.6596C108.773 76.6796 108.712 77.1096 108.712 77.8096V80.0096C108.712 80.8696 108.863 81.2596 109.457 81.2596H109.639V81.3996L109.649 81.3796Z" fill="white"/>
<path d="M138.822 67.3791V67.5191C137.826 67.4791 137.745 67.8691 137.745 68.8791V74.2491L145.336 67.9991C145.406 67.9391 145.567 67.8291 145.567 67.6891C145.567 67.4691 145.155 67.5091 145.044 67.5091V67.3691H147.802V67.5091C147.128 67.5291 146.493 67.7591 145.779 68.3491L139.165 73.7591L145.759 79.2491C145.759 79.2491 145.829 79.3091 145.839 79.3091C146.161 79.5591 146.534 79.8491 146.695 79.9691C147.792 80.7691 148.326 81.2391 149.202 81.2391V81.3791H144.853V81.2391C145.104 81.2391 145.446 81.2591 145.446 81.0991C145.446 80.9791 145.215 80.7691 144.963 80.5691L137.745 74.5491V79.7491C137.745 80.7591 137.745 81.2991 138.812 81.2291V81.3691H135.168V81.2291C136.235 81.2891 136.275 80.8391 136.275 79.8091V68.9591C136.275 67.7491 136.165 67.4791 135.168 67.5191V67.3791H138.832H138.822Z" fill="white"/>
<path d="M154.124 81.5999C150.43 81.5999 148.084 78.5799 148.084 75.1399C148.084 71.6999 150.389 67.1699 155.242 67.1699C158.956 67.1699 161.352 69.9999 161.352 73.4399C161.352 77.7399 158.755 81.5999 154.124 81.5999ZM154.054 67.9099C151.708 67.9099 149.06 70.0599 149.06 73.3799C149.06 77.2899 151.99 80.8499 155.191 80.8499C157.93 80.8499 160.557 78.3399 160.557 75.1499C160.557 70.6199 156.571 67.9099 154.054 67.9099Z" fill="white"/>
<path d="M165.954 67.5208C165.773 67.5008 164.997 67.4808 164.997 68.2608C164.977 68.3808 164.977 68.8808 164.977 68.9808V79.7208C164.977 80.8308 164.977 81.2608 165.954 81.2408V81.3808H162.541V81.2408C163.467 81.2008 163.497 80.9508 163.497 79.7408V69.1008C163.497 68.0708 163.497 67.4608 162.541 67.5208V67.3808H165.954V67.5208Z" fill="white"/>
<path d="M166.769 81.2408C167.635 81.2408 167.726 80.8508 167.726 80.1508V68.6908C167.726 67.6408 167.464 67.5408 166.749 67.5208V67.3808H170.182V67.5208C169.205 67.5008 169.205 68.0108 169.205 68.7908V78.6208C169.205 80.3508 169.91 80.9208 171.662 80.9208H173.222C174.984 80.9208 175.377 79.9108 175.467 78.0208H175.588V81.3908H166.779V81.2508L166.769 81.2408Z" fill="white"/>
<mask id="mask0_225_19231" style="mask-type:luminance" maskUnits="userSpaceOnUse" x="127" y="69" width="2" height="2">
<path d="M127.789 69.9698C127.789 70.1798 128.061 70.3498 128.393 70.3498C128.725 70.3498 128.987 70.1798 128.987 69.9698C128.987 69.7598 128.715 69.5898 128.393 69.5898C128.071 69.5898 127.789 69.7598 127.789 69.9698Z" fill="white"/>
</mask>
<g mask="url(#mask0_225_19231)">
<path d="M128.987 69.5898H127.789V70.3498H128.987V69.5898Z" fill="url(#paint0_linear_225_19231)"/>
</g>
<mask id="mask1_225_19231" style="mask-type:luminance" maskUnits="userSpaceOnUse" x="133" y="72" width="2" height="2">
<path d="M133.446 72.8604C133.446 73.0704 133.718 73.2404 134.05 73.2404C134.383 73.2404 134.644 73.0704 134.644 72.8604C134.644 72.6504 134.383 72.4804 134.05 72.4804C133.718 72.4804 133.446 72.6504 133.446 72.8604Z" fill="white"/>
</mask>
<g mask="url(#mask1_225_19231)">
<path d="M134.644 72.4804H133.446V73.2404H134.644V72.4804Z" fill="url(#paint1_linear_225_19231)"/>
</g>
<mask id="mask2_225_19231" style="mask-type:luminance" maskUnits="userSpaceOnUse" x="111" y="69" width="23" height="10">
<path d="M122.534 69.3691C122.534 75.3591 119.927 76.1291 116.846 70.6191C118.477 74.8191 116.715 77.0291 111.249 73.5091L116.222 78.2591H128.856L133.83 73.5091C128.353 77.0291 126.591 74.8191 128.232 70.6191C125.142 76.1291 122.544 75.3491 122.544 69.3691H122.534Z" fill="white"/>
</mask>
<g mask="url(#mask2_225_19231)">
<path d="M133.83 69.3691H111.249V78.2691H133.83V69.3691Z" fill="url(#paint2_linear_225_19231)"/>
</g>
<mask id="mask3_225_19231" style="mask-type:luminance" maskUnits="userSpaceOnUse" x="116" y="69" width="2" height="2">
<path d="M116.092 69.9698C116.092 70.1798 116.364 70.3498 116.696 70.3498C117.028 70.3498 117.29 70.1798 117.29 69.9698C117.29 69.7598 117.028 69.5898 116.696 69.5898C116.364 69.5898 116.092 69.7598 116.092 69.9698Z" fill="white"/>
</mask>
<g mask="url(#mask3_225_19231)">
<path d="M117.29 69.5898H116.092V70.3498H117.29V69.5898Z" fill="url(#paint3_linear_225_19231)"/>
</g>
<mask id="mask4_225_19231" style="mask-type:luminance" maskUnits="userSpaceOnUse" x="121" y="68" width="3" height="2">
<path d="M121.94 68.7198C121.94 68.9298 122.202 69.0998 122.534 69.0998C122.867 69.0998 123.138 68.9298 123.138 68.7198C123.138 68.5098 122.867 68.3398 122.534 68.3398C122.202 68.3398 121.94 68.5098 121.94 68.7198Z" fill="white"/>
</mask>
<g mask="url(#mask4_225_19231)">
<path d="M123.138 68.3398H121.94V69.0998H123.138V68.3398Z" fill="url(#paint4_linear_225_19231)"/>
</g>
<mask id="mask5_225_19231" style="mask-type:luminance" maskUnits="userSpaceOnUse" x="110" y="72" width="2" height="2">
<path d="M110.423 72.8604C110.423 73.0704 110.695 73.2404 111.017 73.2404C111.339 73.2404 111.621 73.0704 111.621 72.8604C111.621 72.6504 111.359 72.4804 111.017 72.4804C110.675 72.4804 110.423 72.6504 110.423 72.8604Z" fill="white"/>
</mask>
<g mask="url(#mask5_225_19231)">
<path d="M111.621 72.4804H110.423V73.2404H111.621V72.4804Z" fill="url(#paint5_linear_225_19231)"/>
</g>
<path d="M129.077 78.6093H116V79.2293H129.077V78.6093Z" fill="url(#paint6_linear_225_19231)"/>
<path d="M177.007 79.5195C177.48 79.5195 177.863 79.9395 177.863 80.4695C177.863 80.9995 177.48 81.4295 177.007 81.4295C176.534 81.4295 176.151 81.0095 176.151 80.4695C176.151 79.9295 176.534 79.5195 177.007 79.5195ZM177.007 79.6695C176.625 79.6695 176.312 80.0295 176.312 80.4695C176.312 80.9095 176.625 81.2795 177.007 81.2795C177.4 81.2795 177.702 80.9295 177.702 80.4795C177.702 80.0295 177.4 79.6795 177.007 79.6795V79.6695ZM176.846 81.0195H176.695V79.9595C176.776 79.9595 176.846 79.9395 176.967 79.9395C177.118 79.9395 177.208 79.9795 177.269 80.0195C177.329 80.0695 177.359 80.1395 177.359 80.2395C177.359 80.3795 177.279 80.4695 177.168 80.4995C177.249 80.5195 177.309 80.6095 177.329 80.7695C177.349 80.9295 177.38 80.9995 177.39 81.0295H177.229C177.229 81.0295 177.178 80.8995 177.158 80.7595C177.138 80.6195 177.078 80.5695 176.947 80.5695H176.836V81.0295L176.846 81.0195ZM176.846 80.4395H176.957C177.088 80.4395 177.188 80.3895 177.188 80.2595C177.188 80.1595 177.118 80.0695 176.957 80.0695C176.906 80.0695 176.876 80.0695 176.846 80.0695V80.4295V80.4395Z" fill="white"/>
<path d="M64.3261 94.3095L64.8999 94.2495C64.9301 94.4995 64.9905 94.7095 65.0912 94.8695C65.1919 95.0295 65.3429 95.1695 65.5543 95.2695C65.7657 95.3695 66.0073 95.4195 66.259 95.4195C66.4905 95.4195 66.7019 95.3795 66.8731 95.3095C67.0543 95.2295 67.1852 95.1295 67.2758 94.9995C67.3664 94.8695 67.4066 94.7195 67.4066 94.5595C67.4066 94.3995 67.3664 94.2595 67.2758 94.1395C67.1952 94.0195 67.0442 93.9195 66.8529 93.8395C66.7321 93.7895 66.4603 93.6995 66.0274 93.5895C65.6046 93.4795 65.3026 93.3695 65.1315 93.2795C64.91 93.1495 64.7489 92.9895 64.6382 92.8095C64.5274 92.6195 64.4771 92.4095 64.4771 92.1795C64.4771 91.9195 64.5476 91.6795 64.6784 91.4595C64.8093 91.2295 65.0006 91.0695 65.2623 90.9495C65.514 90.8295 65.806 90.7695 66.108 90.7695C66.4503 90.7695 66.7523 90.8295 67.014 90.9495C67.2758 91.0695 67.4771 91.2495 67.618 91.4895C67.759 91.7195 67.8395 91.9895 67.8496 92.2895L67.2556 92.3395C67.2254 92.0195 67.1147 91.7795 66.9335 91.6095C66.7523 91.4495 66.4805 91.3695 66.1281 91.3695C65.7456 91.3695 65.4838 91.4495 65.3127 91.5895C65.1415 91.7395 65.061 91.9195 65.061 92.1295C65.061 92.3095 65.1214 92.4595 65.2422 92.5795C65.363 92.6995 65.665 92.8095 66.1684 92.9395C66.6617 93.0595 67.014 93.1695 67.1952 93.2595C67.467 93.3995 67.6583 93.5695 67.7892 93.7795C67.9201 93.9895 67.9805 94.2295 67.9805 94.4995C67.9805 94.7695 67.91 95.0295 67.7691 95.2695C67.6281 95.5095 67.4268 95.6895 67.155 95.8195C66.8932 95.9595 66.6013 96.0195 66.2691 96.0195C65.8462 96.0195 65.4939 95.9495 65.212 95.8195C64.9301 95.6895 64.7087 95.4895 64.5476 95.2095C64.3865 94.9395 64.306 94.6395 64.2959 94.2995" fill="#030000"/>
<path d="M74.6951 90.8691H74.0811V95.9391H74.6951V90.8691Z" fill="#030000"/>
<path d="M80.8975 95.9391V90.8691H81.5216L83.9579 94.8491V90.8691H84.5418V95.9391H83.9176L81.4814 91.9591V95.9391H80.8975Z" fill="#030000"/>
<path d="M93.9937 94.1595L94.6078 94.3295C94.4769 94.8795 94.2453 95.3095 93.9131 95.5895C93.5809 95.8795 93.1782 96.0295 92.695 96.0295C92.2118 96.0295 91.789 95.9195 91.4769 95.6895C91.1648 95.4695 90.9333 95.1495 90.7621 94.7195C90.601 94.2995 90.5205 93.8495 90.5205 93.3595C90.5205 92.8295 90.6111 92.3695 90.7923 91.9795C90.9735 91.5895 91.2453 91.2895 91.5776 91.0795C91.9198 90.8795 92.2923 90.7695 92.7051 90.7695C93.1682 90.7695 93.5507 90.8995 93.8729 91.1595C94.1849 91.4195 94.4165 91.7795 94.5373 92.2495L93.9333 92.3995C93.8326 92.0295 93.6715 91.7695 93.4702 91.5995C93.2688 91.4395 93.0071 91.3495 92.7051 91.3495C92.3427 91.3495 92.0507 91.4395 91.8091 91.6295C91.5675 91.8195 91.4064 92.0695 91.3057 92.3795C91.2151 92.6895 91.1648 93.0195 91.1648 93.3495C91.1648 93.7795 91.2252 94.1595 91.3359 94.4795C91.4467 94.7995 91.6279 95.0395 91.8695 95.1995C92.1111 95.3595 92.3729 95.4395 92.6547 95.4395C92.997 95.4395 93.289 95.3295 93.5205 95.1195C93.7521 94.8995 93.9131 94.5795 94.0037 94.1495" fill="#030000"/>
<path d="M100.507 95.9391V90.8691H103.859V91.4691H101.121V93.0191H103.678V93.6091H101.121V95.3391H103.96V95.9391H100.507Z" fill="#030000"/>
<path d="M115.306 95.9398H114.742V91.9698C114.601 92.1198 114.43 92.2598 114.198 92.3998C113.977 92.5498 113.776 92.6498 113.604 92.7198V92.1098C113.917 91.9498 114.198 91.7498 114.44 91.5198C114.672 91.2898 114.843 91.0598 114.943 90.8398H115.306V95.9298V95.9398Z" fill="#030000"/>
<path d="M122.765 93.1995C122.534 93.0995 122.353 92.9695 122.242 92.7895C122.121 92.6195 122.071 92.4095 122.071 92.1595C122.071 91.7895 122.192 91.4795 122.433 91.2295C122.675 90.9795 122.997 90.8495 123.4 90.8495C123.802 90.8495 124.125 90.9795 124.376 91.2295C124.628 91.4895 124.749 91.7995 124.749 92.1695C124.749 92.3995 124.688 92.6095 124.578 92.7795C124.467 92.9595 124.296 93.0895 124.064 93.1895C124.346 93.2895 124.567 93.4495 124.708 93.6795C124.859 93.9095 124.93 94.1695 124.93 94.4895C124.93 94.9295 124.789 95.2895 124.517 95.5795C124.235 95.8795 123.863 96.0195 123.41 96.0195C122.957 96.0195 122.584 95.8695 122.302 95.5695C122.021 95.2695 121.89 94.9095 121.89 94.4595C121.89 94.1295 121.97 93.8495 122.121 93.6295C122.272 93.4095 122.494 93.2595 122.776 93.1795M122.463 94.4795C122.463 94.6595 122.504 94.8295 122.584 94.9895C122.665 95.1595 122.776 95.2895 122.927 95.3795C123.078 95.4695 123.239 95.5195 123.42 95.5195C123.692 95.5195 123.913 95.4195 124.094 95.2295C124.265 95.0395 124.356 94.7895 124.356 94.4995C124.356 94.2095 124.265 93.9595 124.084 93.7595C123.903 93.5695 123.682 93.4695 123.4 93.4695C123.118 93.4695 122.906 93.5595 122.735 93.7595C122.564 93.9495 122.474 94.1995 122.474 94.4895M122.655 92.1295C122.655 92.3695 122.725 92.5695 122.866 92.7195C123.007 92.8695 123.188 92.9495 123.41 92.9495C123.631 92.9495 123.802 92.8695 123.953 92.7195C124.094 92.5695 124.165 92.3795 124.165 92.1695C124.165 91.9395 124.094 91.7495 123.943 91.5895C123.802 91.4395 123.621 91.3595 123.4 91.3595C123.178 91.3595 123.007 91.4395 122.856 91.5895C122.715 91.7395 122.645 91.9195 122.645 92.1295" fill="#030000"/>
<path d="M130.699 94.7598L131.242 94.6998C131.293 94.9798 131.373 95.1898 131.504 95.3098C131.635 95.4398 131.806 95.4998 132.007 95.4998C132.179 95.4998 132.33 95.4598 132.471 95.3698C132.601 95.2798 132.712 95.1598 132.793 95.0198C132.873 94.8698 132.944 94.6698 133.004 94.4298C133.064 94.1798 133.085 93.9298 133.085 93.6698V93.5498C132.974 93.7398 132.813 93.9098 132.622 94.0298C132.43 94.1598 132.209 94.2198 131.987 94.2198C131.605 94.2198 131.283 94.0698 131.011 93.7598C130.749 93.4498 130.618 93.0498 130.618 92.5498C130.618 92.0498 130.759 91.6198 131.031 91.3098C131.313 90.9998 131.655 90.8398 132.068 90.8398C132.37 90.8398 132.642 90.9298 132.893 91.1098C133.145 91.2898 133.336 91.5398 133.457 91.8698C133.588 92.1898 133.658 92.6698 133.658 93.2898C133.658 93.9098 133.588 94.4498 133.457 94.8398C133.336 95.2198 133.145 95.5198 132.883 95.7098C132.632 95.9098 132.33 96.0198 131.987 96.0198C131.625 96.0198 131.333 95.9098 131.101 95.6898C130.87 95.4698 130.739 95.1598 130.689 94.7598M133.024 92.5298C133.024 92.1698 132.934 91.8898 132.762 91.6798C132.591 91.4698 132.38 91.3698 132.138 91.3698C131.897 91.3698 131.665 91.4798 131.474 91.7098C131.283 91.9398 131.192 92.2298 131.192 92.5898C131.192 92.9098 131.273 93.1798 131.454 93.3798C131.635 93.5798 131.846 93.6798 132.118 93.6798C132.39 93.6798 132.591 93.5798 132.762 93.3798C132.924 93.1798 133.014 92.8998 133.014 92.5398" fill="#030000"/>
<path d="M140.213 93.1995C139.981 93.0995 139.8 92.9695 139.689 92.7895C139.568 92.6195 139.518 92.4095 139.518 92.1595C139.518 91.7895 139.639 91.4795 139.881 91.2295C140.122 90.9795 140.444 90.8495 140.847 90.8495C141.25 90.8495 141.582 90.9795 141.823 91.2295C142.065 91.4895 142.196 91.7995 142.196 92.1695C142.196 92.3995 142.136 92.6095 142.025 92.7795C141.914 92.9595 141.743 93.0895 141.511 93.1895C141.793 93.2895 142.015 93.4495 142.156 93.6795C142.307 93.9095 142.377 94.1695 142.377 94.4895C142.377 94.9295 142.236 95.2895 141.964 95.5795C141.683 95.8795 141.31 96.0195 140.857 96.0195C140.404 96.0195 140.032 95.8695 139.75 95.5695C139.468 95.2695 139.337 94.9095 139.337 94.4595C139.337 94.1295 139.417 93.8495 139.568 93.6295C139.719 93.4095 139.941 93.2595 140.223 93.1795M139.911 94.4795C139.911 94.6595 139.951 94.8295 140.021 94.9895C140.102 95.1595 140.213 95.2895 140.364 95.3795C140.515 95.4695 140.676 95.5195 140.847 95.5195C141.119 95.5195 141.34 95.4195 141.521 95.2295C141.693 95.0395 141.783 94.7895 141.783 94.4995C141.783 94.2095 141.693 93.9595 141.511 93.7595C141.33 93.5695 141.109 93.4695 140.827 93.4695C140.545 93.4695 140.334 93.5595 140.152 93.7595C139.981 93.9495 139.891 94.1995 139.891 94.4895M140.092 92.1295C140.092 92.3695 140.162 92.5695 140.313 92.7195C140.454 92.8695 140.626 92.9495 140.857 92.9495C141.089 92.9495 141.26 92.8695 141.401 92.7195C141.542 92.5695 141.612 92.3795 141.612 92.1695C141.612 91.9395 141.542 91.7495 141.401 91.5895C141.25 91.4395 141.079 91.3595 140.867 91.3595C140.656 91.3595 140.475 91.4395 140.323 91.5895C140.183 91.7395 140.102 91.9195 140.102 92.1295" fill="#030000"/>
<path d="M154.789 90.8691H155.403V93.7991C155.403 94.3091 155.343 94.7191 155.242 95.0191C155.142 95.3191 154.95 95.5591 154.668 95.7491C154.397 95.9391 154.034 96.0291 153.581 96.0291C153.128 96.0291 152.796 95.9491 152.514 95.7891C152.242 95.6191 152.051 95.3891 151.92 95.0791C151.799 94.7691 151.749 94.3491 151.749 93.8091V90.8791H152.363V93.8091C152.363 94.2491 152.403 94.5791 152.474 94.7791C152.554 94.9891 152.685 95.1491 152.866 95.2591C153.048 95.3691 153.269 95.4291 153.531 95.4291C153.984 95.4291 154.306 95.3191 154.497 95.0991C154.689 94.8691 154.789 94.4391 154.789 93.8091V90.8791V90.8691Z" fill="#030000"/>
<path d="M161.343 94.3095L161.917 94.2495C161.947 94.4995 162.007 94.7095 162.108 94.8695C162.209 95.0295 162.36 95.1695 162.571 95.2695C162.782 95.3695 163.024 95.4195 163.276 95.4195C163.507 95.4195 163.719 95.3795 163.9 95.3095C164.071 95.2295 164.212 95.1295 164.292 94.9995C164.373 94.8695 164.423 94.7195 164.423 94.5595C164.423 94.3995 164.383 94.2595 164.292 94.1395C164.212 94.0195 164.061 93.9195 163.87 93.8395C163.749 93.7895 163.477 93.6995 163.044 93.5895C162.621 93.4795 162.319 93.3695 162.148 93.2795C161.927 93.1495 161.766 92.9895 161.655 92.8095C161.544 92.6195 161.494 92.4095 161.494 92.1795C161.494 91.9195 161.564 91.6795 161.695 91.4595C161.826 91.2295 162.017 91.0695 162.279 90.9495C162.531 90.8295 162.823 90.7695 163.125 90.7695C163.467 90.7695 163.769 90.8295 164.031 90.9495C164.292 91.0695 164.494 91.2495 164.635 91.4895C164.776 91.7195 164.856 91.9895 164.866 92.2895L164.282 92.3395C164.252 92.0195 164.141 91.7795 163.96 91.6095C163.779 91.4495 163.507 91.3695 163.155 91.3695C162.803 91.3695 162.521 91.4495 162.349 91.5895C162.178 91.7395 162.098 91.9195 162.098 92.1295C162.098 92.3095 162.158 92.4595 162.279 92.5795C162.4 92.6995 162.712 92.8095 163.205 92.9395C163.709 93.0595 164.051 93.1695 164.232 93.2595C164.504 93.3995 164.705 93.5695 164.836 93.7795C164.967 93.9895 165.027 94.2295 165.027 94.4995C165.027 94.7695 164.957 95.0295 164.816 95.2695C164.675 95.5095 164.474 95.6895 164.212 95.8195C163.95 95.9595 163.648 96.0195 163.316 96.0195C162.893 96.0195 162.541 95.9495 162.259 95.8195C161.977 95.6895 161.756 95.4895 161.594 95.2095C161.433 94.9395 161.353 94.6395 161.343 94.2995" fill="#030000"/>
<path d="M170.483 95.9391L172.255 90.8691H172.92L174.812 95.9391H174.108L173.574 94.3991H171.641L171.128 95.9391H170.483ZM171.812 93.8491H173.373L172.889 92.4491C172.738 92.0191 172.638 91.6691 172.567 91.3991C172.507 91.7191 172.426 92.0491 172.316 92.3691L171.812 93.8491Z" fill="#030000"/>
</g>
</g>
</g>
</g>
<defs>
<filter id="filter0_d_225_19231" x="0.473633" y="0" width="238" height="160" filterUnits="userSpaceOnUse" color-interpolation-filters="sRGB">
<feFlood flood-opacity="0" result="BackgroundImageFix"/>
<feColorMatrix in="SourceAlpha" type="matrix" values="0 0 0 0 0 0 0 0 0 0 0 0 0 0 0 0 0 0 127 0" result="hardAlpha"/>
<feOffset dy="1"/>
<feGaussianBlur stdDeviation="10"/>
<feComposite in2="hardAlpha" operator="out"/>
<feColorMatrix type="matrix" values="0 0 0 0 0 0 0 0 0 0 0 0 0 0 0 0 0 0 0.08 0"/>
<feBlend mode="normal" in2="BackgroundImageFix" result="effect1_dropShadow_225_19231"/>
<feBlend mode="normal" in="SourceGraphic" in2="effect1_dropShadow_225_19231" result="shape"/>
</filter>
<linearGradient id="paint0_linear_225_19231" x1="128.624" y1="79.9454" x2="129.818" y2="79.9454" gradientUnits="userSpaceOnUse">
<stop stop-color="#FCD100"/>
<stop offset="0.16" stop-color="#B79100"/>
<stop offset="0.21" stop-color="#C39C00"/>
<stop offset="0.32" stop-color="#E2B900"/>
<stop offset="0.43" stop-color="#F5CA00"/>
<stop offset="0.5" stop-color="#FCD100"/>
<stop offset="0.85" stop-color="#FFF165"/>
<stop offset="1" stop-color="#FCD100"/>
</linearGradient>
<linearGradient id="paint1_linear_225_19231" x1="133.575" y1="74.3349" x2="134.769" y2="74.3349" gradientUnits="userSpaceOnUse">
<stop stop-color="#FCD100"/>
<stop offset="0.16" stop-color="#B79100"/>
<stop offset="0.21" stop-color="#C39C00"/>
<stop offset="0.32" stop-color="#E2B900"/>
<stop offset="0.43" stop-color="#F5CA00"/>
<stop offset="0.5" stop-color="#FCD100"/>
<stop offset="0.85" stop-color="#FFF165"/>
<stop offset="1" stop-color="#FCD100"/>
</linearGradient>
<linearGradient id="paint2_linear_225_19231" x1="111.963" y1="80.2161" x2="134.567" y2="80.2161" gradientUnits="userSpaceOnUse">
<stop stop-color="#FCD100"/>
<stop offset="0.16" stop-color="#B79100"/>
<stop offset="0.21" stop-color="#C39C00"/>
<stop offset="0.32" stop-color="#E2B900"/>
<stop offset="0.43" stop-color="#F5CA00"/>
<stop offset="0.5" stop-color="#FCD100"/>
<stop offset="0.85" stop-color="#FFF165"/>
<stop offset="1" stop-color="#FCD100"/>
</linearGradient>
<linearGradient id="paint3_linear_225_19231" x1="116.341" y1="72.8993" x2="117.535" y2="72.8993" gradientUnits="userSpaceOnUse">
<stop stop-color="#FCD100"/>
<stop offset="0.16" stop-color="#B79100"/>
<stop offset="0.21" stop-color="#C39C00"/>
<stop offset="0.32" stop-color="#E2B900"/>
<stop offset="0.43" stop-color="#F5CA00"/>
<stop offset="0.5" stop-color="#FCD100"/>
<stop offset="0.85" stop-color="#FFF165"/>
<stop offset="1" stop-color="#FCD100"/>
</linearGradient>
<linearGradient id="paint4_linear_225_19231" x1="122.572" y1="76.0589" x2="123.766" y2="76.0589" gradientUnits="userSpaceOnUse">
<stop stop-color="#FCD100"/>
<stop offset="0.16" stop-color="#B79100"/>
<stop offset="0.21" stop-color="#C39C00"/>
<stop offset="0.32" stop-color="#E2B900"/>
<stop offset="0.43" stop-color="#F5CA00"/>
<stop offset="0.5" stop-color="#FCD100"/>
<stop offset="0.85" stop-color="#FFF165"/>
<stop offset="1" stop-color="#FCD100"/>
</linearGradient>
<linearGradient id="paint5_linear_225_19231" x1="110.818" y1="77.2642" x2="112.012" y2="77.2642" gradientUnits="userSpaceOnUse">
<stop stop-color="#FCD100"/>
<stop offset="0.16" stop-color="#B79100"/>
<stop offset="0.21" stop-color="#C39C00"/>
<stop offset="0.32" stop-color="#E2B900"/>
<stop offset="0.43" stop-color="#F5CA00"/>
<stop offset="0.5" stop-color="#FCD100"/>
<stop offset="0.85" stop-color="#FFF165"/>
<stop offset="1" stop-color="#FCD100"/>
</linearGradient>
<linearGradient id="paint6_linear_225_19231" x1="115.61" y1="75.3093" x2="128.625" y2="75.3093" gradientUnits="userSpaceOnUse">
<stop stop-color="#FCD100"/>
<stop offset="0.16" stop-color="#B79100"/>
<stop offset="0.21" stop-color="#C39C00"/>
<stop offset="0.32" stop-color="#E2B900"/>
<stop offset="0.43" stop-color="#F5CA00"/>
<stop offset="0.5" stop-color="#FCD100"/>
<stop offset="0.85" stop-color="#FFF165"/>
<stop offset="1" stop-color="#FCD100"/>
</linearGradient>
<clipPath id="clip0_225_19231">
<rect x="20.4736" y="19" width="198" height="120" rx="7.02062" fill="white"/>
</clipPath>
<clipPath id="clip1_225_19231">
<rect x="20.4736" y="19" width="198" height="120" rx="7.02062" fill="white"/>
</clipPath>
<clipPath id="clip2_225_19231">
<rect width="152.039" height="114.145" fill="white" transform="translate(44.2061 22.388)"/>
</clipPath>
</defs>
</svg>
