<svg width="240" height="160" viewBox="0 0 240 160" fill="none" xmlns="http://www.w3.org/2000/svg">
<g filter="url(#filter0_d_226_20260)">
<g clip-path="url(#clip0_226_20260)">
<rect x="20.4746" y="19" width="199" height="120" rx="7.02062" fill="white"/>
<rect x="20.4746" y="19" width="199" height="120" fill="white"/>
<g clip-path="url(#clip1_226_20260)">
<g filter="url(#filter1_d_226_20260)">
<g clip-path="url(#clip2_226_20260)">
<rect x="35" y="35" width="175" height="93" rx="7.02062" fill="white"/>
<rect x="35" y="35" width="175" height="120" fill="white"/>
<g clip-path="url(#clip3_226_20260)">
<path d="M103.82 87.3401C104 87.3601 104.2 87.3901 104.4 87.4401C104.61 87.4901 104.81 87.5801 105.02 87.6901C105.23 87.8101 105.41 87.9601 105.59 88.1501C105.77 88.3401 105.91 88.5701 106.03 88.8301C106.14 89.1001 106.2 89.4201 106.2 89.8001C106.2 90.2201 106.12 90.6001 105.96 90.9301C105.8 91.2601 105.58 91.5501 105.29 91.7801C105 92.0101 104.67 92.1901 104.29 92.3101C103.91 92.4301 103.5 92.4901 103.06 92.4901C102.2 92.4901 101.52 92.2701 101.01 91.8301C100.5 91.3901 100.25 90.7701 100.25 89.9901C100.25 89.5401 100.33 89.1501 100.5 88.8101C100.67 88.4701 100.89 88.1901 101.18 87.9701C101.46 87.7501 101.78 87.5901 102.13 87.4801C102.48 87.3701 102.85 87.3201 103.22 87.3201C103.45 87.3201 103.65 87.3201 103.83 87.3401H103.82ZM104.29 88.6101C104.16 88.4201 104 88.2701 103.81 88.1701C103.62 88.0701 103.39 88.0201 103.13 88.0201C102.68 88.0201 102.34 88.1801 102.11 88.5101C101.88 88.8301 101.77 89.2501 101.77 89.7501C101.77 90.3601 101.91 90.8501 102.19 91.2301C102.47 91.6101 102.84 91.8001 103.3 91.8001C103.71 91.8001 104.03 91.6501 104.29 91.3601C104.54 91.0701 104.67 90.6401 104.67 90.0701C104.67 89.4701 104.55 88.9801 104.3 88.6201L104.29 88.6101Z" fill="#EB6633"/>
<path d="M106.391 87.4001C106.451 87.4001 106.771 87.4001 107.351 87.3801C107.961 87.3801 108.291 87.3601 108.351 87.3601C109.151 87.3601 109.771 87.4101 110.211 87.5001C110.651 87.6001 111.021 87.8301 111.331 88.2001C111.531 88.4301 111.661 88.6801 111.731 88.9501C111.801 89.2301 111.841 89.4901 111.841 89.7401C111.841 90.3301 111.681 90.8401 111.381 91.2701C111.071 91.6901 110.661 92.0001 110.141 92.1801C109.911 92.2701 109.631 92.3201 109.321 92.3501C109.011 92.3801 108.621 92.3901 108.181 92.3901H106.401V87.3801L106.391 87.4001ZM107.831 91.7201H108.171C108.531 91.7201 108.821 91.7101 109.041 91.6801C109.261 91.6501 109.471 91.5801 109.661 91.4701C109.851 91.3601 110.001 91.1601 110.121 90.9001C110.231 90.6301 110.291 90.2701 110.291 89.8101C110.291 89.3901 110.231 89.0601 110.121 88.8101C110.011 88.5601 109.861 88.3801 109.691 88.2801C109.511 88.1701 109.341 88.1101 109.161 88.0801C108.981 88.0501 108.781 88.0401 108.541 88.0401H108.221C108.081 88.0401 107.951 88.0401 107.831 88.0401V91.7101V91.7201Z" fill="#EB6633"/>
<path d="M115.959 87.4001V88.1501H113.489V89.4101H115.689V90.1501H113.489V91.6101H116.059V92.4101H112.039V87.4001H115.959Z" fill="#EB6633"/>
<path d="M117.749 92.4101H116.369V87.4001C116.629 87.4001 117.019 87.4001 117.539 87.3801C117.959 87.3801 118.209 87.3601 118.289 87.3601H118.549C118.969 87.3601 119.299 87.3801 119.559 87.4301C119.819 87.4801 120.039 87.5801 120.239 87.7501C120.379 87.8701 120.499 88.0201 120.579 88.2001C120.659 88.3801 120.709 88.5701 120.709 88.7701C120.709 88.8901 120.689 89.0201 120.659 89.1501C120.629 89.2701 120.569 89.4001 120.479 89.5201C120.399 89.6401 120.279 89.7601 120.119 89.8601C119.959 89.9601 119.769 90.0401 119.539 90.1101C119.629 90.2901 119.739 90.4701 119.849 90.6401C119.959 90.8201 120.089 91.0001 120.239 91.1901C120.389 91.3801 120.559 91.5401 120.739 91.6801C120.919 91.8201 121.099 91.9101 121.279 91.9401L121.309 91.9801L121.269 92.3101C121.269 92.3801 121.229 92.4201 121.179 92.4301C121.089 92.4501 120.979 92.4801 120.859 92.5001C120.739 92.5201 120.609 92.5301 120.489 92.5301C120.249 92.5301 120.029 92.5001 119.829 92.4301C119.629 92.3601 119.439 92.2501 119.259 92.0801C119.079 91.9201 118.889 91.6901 118.709 91.4101C118.519 91.1201 118.329 90.7601 118.119 90.3101H117.759V92.4201L117.749 92.4101ZM117.749 89.6401H117.799C118.009 89.6501 118.169 89.6601 118.269 89.6601C118.569 89.6601 118.799 89.6001 118.959 89.4801C119.109 89.3501 119.189 89.1301 119.189 88.8001C119.189 88.5101 119.109 88.3201 118.959 88.2201C118.799 88.1201 118.579 88.0701 118.279 88.0701H117.759V89.6601L117.749 89.6401Z" fill="#EB6633"/>
<path d="M121.23 87.4001C121.3 87.4001 121.7 87.4001 122.42 87.3801C122.92 87.3801 123.21 87.3601 123.29 87.3601C123.73 87.3601 124.07 87.3801 124.31 87.4201C124.55 87.4601 124.76 87.5401 124.93 87.6601C125.07 87.7701 125.16 87.8901 125.22 88.0501C125.28 88.2001 125.31 88.3401 125.31 88.4601C125.31 88.6101 125.28 88.7401 125.22 88.8601C125.15 88.9801 125.08 89.0801 124.99 89.1701C124.89 89.2601 124.79 89.3301 124.69 89.3801C124.59 89.4301 124.47 89.4701 124.33 89.5101C124.61 89.5501 124.85 89.6301 125.03 89.7401C125.21 89.8501 125.35 89.9801 125.44 90.1101C125.53 90.2401 125.59 90.3701 125.61 90.4901C125.64 90.6101 125.65 90.7201 125.65 90.8201C125.65 91.1001 125.58 91.3601 125.44 91.5701C125.3 91.7801 125.14 91.9501 124.96 92.0601C124.78 92.1801 124.54 92.2601 124.27 92.3201C123.99 92.3701 123.59 92.4001 123.05 92.4001H121.24V87.3901L121.23 87.4001ZM122.63 89.4401H122.75C122.95 89.4401 123.1 89.4401 123.21 89.4201C123.32 89.4201 123.42 89.3801 123.51 89.3401C123.6 89.3001 123.67 89.2201 123.72 89.1201C123.77 89.0101 123.8 88.8701 123.8 88.6901C123.8 88.5501 123.78 88.4301 123.75 88.3401C123.72 88.2501 123.68 88.1801 123.63 88.1401C123.58 88.0901 123.54 88.0601 123.49 88.0501C123.44 88.0401 123.4 88.0201 123.34 88.0201C123.3 88.0201 123.24 88.0201 123.16 88.0101C123.08 88.0101 122.9 88.0101 122.62 88.0101V89.4501L122.63 89.4401ZM122.63 91.7301C123 91.7301 123.22 91.7301 123.3 91.7301C123.36 91.7301 123.4 91.7301 123.43 91.7301C123.46 91.7301 123.49 91.7301 123.53 91.7101C123.72 91.6701 123.86 91.5901 123.96 91.4701C124.06 91.3501 124.11 91.1501 124.11 90.8801C124.11 90.7101 124.08 90.5701 124.03 90.4601C123.98 90.3501 123.91 90.2701 123.81 90.2101C123.72 90.1501 123.61 90.1201 123.49 90.1101C123.37 90.1001 123.14 90.0901 122.78 90.0901H122.63V91.7401V91.7301Z" fill="#EB6633"/>
<path d="M128.78 87.4001L130.82 92.4101H129.19L128.73 91.1501H126.9L126.39 92.4101H125.25L127.66 87.4001H128.78ZM128.5 90.4301L127.88 88.6901L127.19 90.4301H128.51H128.5Z" fill="#EB6633"/>
<path d="M132.071 87.4001V90.1901C132.071 90.4301 132.071 90.6301 132.101 90.7701C132.121 90.9201 132.161 91.0501 132.231 91.1701C132.301 91.2901 132.411 91.3901 132.571 91.4601C132.731 91.5301 132.941 91.5701 133.221 91.5701C133.521 91.5701 133.761 91.5301 133.931 91.4601C134.101 91.3901 134.221 91.2801 134.301 91.1401C134.371 91.0001 134.421 90.8401 134.431 90.6601C134.441 90.4801 134.451 90.2101 134.451 89.8601V87.4101H135.531L135.471 90.1201C135.471 90.3401 135.451 90.5301 135.441 90.6901C135.421 90.8501 135.391 91.0301 135.331 91.2101C135.271 91.3901 135.181 91.5701 135.051 91.7301C134.921 91.8901 134.751 92.0301 134.541 92.1401C134.291 92.2701 134.011 92.3601 133.721 92.4201C133.431 92.4801 133.131 92.5001 132.821 92.5001C132.311 92.5001 131.891 92.4301 131.591 92.2901C131.291 92.1501 131.061 91.9701 130.931 91.7401C130.801 91.5101 130.711 91.2901 130.681 91.0601C130.651 90.8301 130.631 90.5601 130.631 90.2301V87.4001H132.071Z" fill="#EB6633"/>
<path d="M141.89 87.4001V88.1501H139.36V89.4301H141.49V90.1801H139.36V92.4101H137.92V87.4001H141.89Z" fill="#EB6633"/>
<path d="M143.58 87.4001V90.1901C143.58 90.4301 143.58 90.6301 143.61 90.7701C143.63 90.9201 143.67 91.0501 143.74 91.1701C143.81 91.2901 143.92 91.3901 144.08 91.4601C144.24 91.5301 144.45 91.5701 144.73 91.5701C145.03 91.5701 145.27 91.5301 145.44 91.4601C145.61 91.3901 145.73 91.2801 145.81 91.1401C145.88 91.0001 145.93 90.8401 145.94 90.6601C145.96 90.4801 145.96 90.2101 145.96 89.8601V87.4101H147.04L146.98 90.1201C146.98 90.3401 146.96 90.5301 146.95 90.6901C146.93 90.8501 146.9 91.0301 146.83 91.2101C146.77 91.3901 146.68 91.5701 146.55 91.7301C146.43 91.8901 146.26 92.0301 146.05 92.1401C145.8 92.2701 145.53 92.3601 145.23 92.4201C144.94 92.4801 144.64 92.5001 144.33 92.5001C143.81 92.5001 143.4 92.4301 143.1 92.2901C142.8 92.1501 142.58 91.9701 142.44 91.7401C142.31 91.5101 142.22 91.2901 142.19 91.0601C142.16 90.8301 142.14 90.5601 142.14 90.2301V87.4001H143.58Z" fill="#EB6633"/>
<path d="M148.68 92.4101H147.3V87.4001C147.56 87.4001 147.95 87.4001 148.47 87.3801C148.89 87.3801 149.14 87.3601 149.22 87.3601H149.48C149.9 87.3601 150.23 87.3801 150.49 87.4301C150.75 87.4801 150.97 87.5801 151.17 87.7501C151.31 87.8701 151.42 88.0201 151.51 88.2001C151.59 88.3801 151.64 88.5701 151.64 88.7701C151.64 88.8901 151.62 89.0201 151.59 89.1501C151.55 89.2701 151.49 89.4001 151.41 89.5201C151.33 89.6401 151.21 89.7601 151.05 89.8601C150.89 89.9601 150.7 90.0401 150.47 90.1101C150.56 90.2901 150.67 90.4701 150.78 90.6401C150.89 90.8201 151.02 91.0001 151.18 91.1901C151.33 91.3801 151.5 91.5401 151.68 91.6801C151.86 91.8201 152.04 91.9101 152.23 91.9401L152.25 91.9801L152.21 92.3101C152.21 92.3801 152.18 92.4201 152.12 92.4301C152.03 92.4501 151.93 92.4801 151.8 92.5001C151.67 92.5201 151.55 92.5301 151.43 92.5301C151.19 92.5301 150.97 92.5001 150.77 92.4301C150.57 92.3601 150.38 92.2501 150.2 92.0801C150.02 91.9201 149.83 91.6901 149.65 91.4101C149.46 91.1201 149.27 90.7601 149.06 90.3101H148.7V92.4201L148.68 92.4101ZM148.68 89.6401H148.73C148.94 89.6501 149.1 89.6601 149.2 89.6601C149.51 89.6601 149.74 89.6001 149.89 89.4801C150.04 89.3501 150.12 89.1301 150.12 88.8001C150.12 88.5101 150.04 88.3201 149.89 88.2201C149.73 88.1201 149.5 88.0701 149.2 88.0701H148.68V89.6601V89.6401Z" fill="#EB6633"/>
<path d="M153.38 87.4001L156.13 90.4701L156.07 87.4001H157.11L157.06 92.3401L156.13 92.4901L153.13 89.1701L153.22 92.4101H152.18L152.22 87.4001H153.38Z" fill="#EB6633"/>
<path d="M158.87 87.4001V92.4101H157.43V87.4001H158.87Z" fill="#EB6633"/>
<path d="M164.3 87.4001V88.1501H162.42V92.4001H160.98V88.1501H159.1V87.4001H164.3Z" fill="#EB6633"/>
<path d="M165.94 87.4001V90.1901C165.94 90.4301 165.94 90.6301 165.97 90.7701C165.99 90.9201 166.03 91.0501 166.1 91.1701C166.17 91.2901 166.29 91.3901 166.44 91.4601C166.6 91.5301 166.81 91.5701 167.09 91.5701C167.39 91.5701 167.63 91.5301 167.79 91.4601C167.96 91.3901 168.08 91.2801 168.16 91.1401C168.24 91.0001 168.28 90.8401 168.29 90.6601C168.31 90.4801 168.32 90.2101 168.32 89.8601V87.4101H169.4L169.34 90.1201C169.34 90.3401 169.32 90.5301 169.31 90.6901C169.29 90.8501 169.26 91.0301 169.19 91.2101C169.13 91.3901 169.04 91.5701 168.91 91.7301C168.78 91.8901 168.62 92.0301 168.4 92.1401C168.15 92.2701 167.88 92.3601 167.58 92.4201C167.29 92.4801 166.99 92.5001 166.68 92.5001C166.16 92.5001 165.75 92.4301 165.45 92.2901C165.15 92.1501 164.93 91.9701 164.79 91.7401C164.66 91.5101 164.57 91.2901 164.54 91.0601C164.51 90.8301 164.49 90.5601 164.49 90.2301V87.4001H165.93H165.94Z" fill="#EB6633"/>
<path d="M171.04 92.4101H169.66V87.4001C169.92 87.4001 170.31 87.4001 170.83 87.3801C171.25 87.3801 171.5 87.3601 171.58 87.3601H171.84C172.26 87.3601 172.59 87.3801 172.85 87.4301C173.11 87.4801 173.33 87.5801 173.53 87.7501C173.67 87.8701 173.78 88.0201 173.87 88.2001C173.95 88.3801 174 88.5701 174 88.7701C174 88.8901 173.98 89.0201 173.95 89.1501C173.92 89.2701 173.86 89.4001 173.77 89.5201C173.69 89.6401 173.57 89.7601 173.41 89.8601C173.26 89.9601 173.06 90.0401 172.83 90.1101C172.92 90.2901 173.03 90.4701 173.14 90.6401C173.25 90.8201 173.38 91.0001 173.54 91.1901C173.69 91.3801 173.86 91.5401 174.04 91.6801C174.22 91.8201 174.4 91.9101 174.59 91.9401L174.61 91.9801L174.57 92.3101C174.57 92.3801 174.54 92.4201 174.48 92.4301C174.39 92.4501 174.28 92.4801 174.16 92.5001C174.04 92.5201 173.91 92.5301 173.79 92.5301C173.55 92.5301 173.33 92.5001 173.13 92.4301C172.93 92.3601 172.74 92.2501 172.56 92.0801C172.38 91.9201 172.2 91.6901 172.01 91.4101C171.82 91.1201 171.63 90.7601 171.42 90.3101H171.06V92.4201L171.04 92.4101ZM171.04 89.6401H171.09C171.31 89.6501 171.46 89.6601 171.56 89.6601C171.87 89.6601 172.1 89.6001 172.25 89.4801C172.4 89.3501 172.48 89.1301 172.48 88.8001C172.48 88.5101 172.4 88.3201 172.25 88.2201C172.1 88.1201 171.87 88.0701 171.57 88.0701H171.05V89.6601L171.04 89.6401Z" fill="#EB6633"/>
<path d="M178.5 87.4001V88.1501H176.03V89.4101H178.23V90.1501H176.03V91.6101H178.6V92.4101H174.58V87.4001H178.5Z" fill="#EB6633"/>
<path d="M109.331 73.3799H102.491V83.3499H108.951V83.8499C109.761 83.0599 110.371 82.1799 110.771 81.2099C111.211 80.1399 111.431 78.8299 111.451 77.2799V76.2399H113.031V77.2799C113.031 78.4499 113.281 79.6599 113.801 80.8699C114.361 82.2399 115.131 83.3799 116.111 84.3199L115.071 85.2999C114.261 84.4099 113.691 83.6399 113.371 82.9799C112.901 82.0999 112.561 81.1299 112.381 80.0799C112.111 81.1799 111.791 82.1199 111.401 82.8899C110.941 83.7699 110.301 84.5799 109.481 85.3499L108.451 84.5399H102.501V85.3499H101.051V72.2399H109.341V73.3799H109.331ZM105.771 77.7899V82.5999H103.071V77.7899H105.771ZM108.671 74.1299V77.1599H103.411V74.1299H108.671ZM104.851 78.9399H104.011V81.4599H104.851V78.9399ZM107.361 75.0399H104.731V76.2399H107.361V75.0399ZM109.061 77.7899V82.5999H106.431V77.7899H109.061ZM108.151 78.9399H107.361V81.4599H108.151V78.9399ZM110.261 77.9099L108.951 77.0999C110.011 75.7799 110.671 74.0699 110.921 71.9399L112.371 72.1199C112.271 72.8199 112.131 73.4799 112.001 74.0699H115.931C115.811 75.5099 115.681 76.4699 115.511 76.9799C115.341 77.6599 115.071 78.3399 114.681 79.0499L113.621 78.1899C113.941 77.5599 114.181 76.6099 114.341 75.3299H111.631C111.261 76.4099 110.801 77.2799 110.271 77.9099H110.261Z" fill="#EB6633"/>
<path d="M121.641 72.8099C120.491 74.0699 119.061 75.1999 117.361 76.1899L116.301 74.9899C117.871 74.1699 119.271 73.1599 120.511 71.9399L121.641 72.8099ZM121.701 76.0799C121.161 77.0599 120.621 77.8799 120.051 78.5599V85.2399H118.471V80.0699C117.961 80.5099 117.411 80.9299 116.831 81.3399L116.291 79.6799C117.121 79.1099 117.841 78.5099 118.471 77.8899C119.111 77.3399 119.721 76.5599 120.321 75.4999L121.701 76.0699V76.0799ZM131.241 78.2499V79.3399H129.471V80.1999H131.651V81.3999H129.471V83.9199C129.471 84.4199 129.331 84.7699 129.071 84.9799C128.841 85.1799 128.391 85.2999 127.751 85.2999H125.781L125.441 83.9199C126.211 83.9899 126.851 84.0399 127.361 84.0399C127.751 84.0399 127.951 83.9199 127.951 83.6899V81.3999H120.841V80.1999H127.951V79.3399H121.291V78.2499H131.231H131.241ZM130.861 72.4699V77.3899H122.031V72.4699H130.861ZM125.381 83.4099L123.951 83.9799C123.511 83.2799 123.061 82.6499 122.551 82.0899L124.001 81.6899C124.541 82.2199 124.991 82.7899 125.381 83.4099ZM129.341 74.4699V73.4999H123.541V74.4699H129.341ZM129.341 75.4499H123.541V76.3599H129.341V75.4499Z" fill="#EB6633"/>
<path d="M135.711 73.1599V71.8999H137.291V73.1599H139.131V74.2999H137.291V75.5599H135.711V74.2999H131.821V73.1599H135.711ZM136.101 75.8399C135.761 76.6499 135.441 77.3399 135.121 77.9099V85.3599H133.671V79.8799C133.251 80.3499 132.811 80.7899 132.351 81.2299L131.811 79.6299C132.401 79.0399 132.921 78.4299 133.391 77.7999C133.851 77.2399 134.281 76.4199 134.711 75.3399L136.091 75.8499L136.101 75.8399ZM146.041 75.8399V79.3899H141.961V80.4299H147.041V81.5699H143.411C143.881 82.0399 144.301 82.3899 144.691 82.5999C145.301 82.9799 146.141 83.3299 147.241 83.6799L146.571 84.9399C145.221 84.3699 144.241 83.8399 143.601 83.3099C143.101 82.9399 142.551 82.3599 142.021 81.5699H141.971V85.3499H140.451V81.5999C140.101 82.1699 139.711 82.6399 139.291 83.0199C138.601 83.6499 137.611 84.2699 136.311 84.8799L135.521 83.7399C136.801 83.2299 137.691 82.7599 138.221 82.3199C138.491 82.1199 138.761 81.8699 139.001 81.5699H135.731V80.4299H140.471V79.3899H136.781V75.8399H146.071H146.041ZM144.531 76.9299H138.271V78.3099H144.531V76.9299ZM141.701 73.1599V71.8999H143.221V73.1599H147.181V74.3599H143.221V75.4499H141.701V74.3599H139.931V73.1599H141.701Z" fill="#EB6633"/>
<path d="M160.39 75.2099V76.4099H156.87C156.42 76.7299 155.96 76.9999 155.51 77.2299C156.1 77.8899 156.54 78.5399 156.81 79.1499C158.04 78.6799 159.22 77.9799 160.33 77.0399L161.51 78.0199C160.8 78.5899 160.04 79.0799 159.23 79.4699C159.6 80.2299 160.07 80.9399 160.61 81.5799C161.13 82.1999 161.87 82.8599 162.84 83.5599L161.78 84.7599C160.7 83.9099 159.82 83.0299 159.18 82.1499C158.69 81.5499 158.27 80.8399 157.93 80.0499C157.66 80.1699 157.42 80.2499 157.19 80.3299C157.34 80.9599 157.43 81.5799 157.43 82.1899C157.43 83.2999 157.25 84.0799 156.87 84.5699C156.47 85.0799 155.27 85.3499 153.28 85.3499L152.76 83.9099C152.79 83.9799 153.11 84.0299 153.69 84.0299C154.57 84.0299 155.14 83.9299 155.38 83.7499C155.65 83.4699 155.8 82.9599 155.8 82.1999C155.8 81.9999 155.78 81.7699 155.75 81.5599C154.8 82.1999 153.95 82.6999 153.17 83.0299C151.94 83.5899 150.4 84.1299 148.55 84.6699L147.69 83.4099C149.53 82.9799 151.13 82.4699 152.51 81.8699C153.61 81.3999 154.59 80.8399 155.46 80.1999C155.43 80.0799 155.38 79.9499 155.34 79.8199C155.29 79.6899 155.24 79.5599 155.17 79.4099C154.26 79.9799 153.43 80.4099 152.71 80.6799C151.63 81.1199 150.26 81.5599 148.61 81.9699L147.82 80.7699C149.44 80.4499 150.87 80.0499 152.1 79.5799C153.01 79.2399 153.84 78.8499 154.58 78.3799C154.45 78.2099 154.31 78.0099 154.16 77.8199C152.69 78.3799 150.99 78.8399 149.07 79.2299L148.21 78.0299C150.3 77.6799 151.95 77.3099 153.15 76.9299C153.66 76.7699 154.13 76.5899 154.56 76.4099H149.86V75.2099H160.4H160.39ZM155.84 72.9899H162.43V75.9599H160.91V74.2499H149.4V75.9599H147.88V72.9899H154.1C153.9 72.6999 153.7 72.3999 153.48 72.1299L155.25 71.9099C155.45 72.2299 155.64 72.5999 155.84 72.9899Z" fill="#EB6633"/>
<path d="M176.581 81.28H178.431V82.48H173.571C175.071 82.98 176.451 83.55 177.701 84.2L176.711 85.58C175.261 84.67 173.761 83.97 172.221 83.47L172.961 82.49H168.021L169.071 83.06C168.341 83.62 167.651 84.04 167.011 84.36C166.231 84.73 165.261 85.09 164.061 85.46L163.131 84.1C164.041 83.92 164.901 83.65 165.731 83.29C166.251 83.09 166.781 82.81 167.281 82.48H163.001V81.28H164.851V72.47H176.571V81.28H176.581ZM174.941 74.64V73.61H166.511V74.64H174.941ZM174.941 76.87V75.73H166.511V76.87H174.941ZM174.941 78.99V77.97H166.511V78.99H174.941ZM174.941 81.28V80.08H166.511V81.28H174.941Z" fill="#EB6633"/>
<path d="M89.96 79.27C89.75 79.12 89.53 78.98 89.31 78.85C88.87 78.59 88.4 78.36 87.91 78.18C87.68 78.1 87.44 78.02 87.21 77.95C87.18 77.95 87.16 77.93 87.13 77.93C86.9 77.87 86.67 77.82 86.43 77.77C86.4 77.77 86.36 77.76 86.32 77.75C86.08 77.71 85.85 77.67 85.61 77.65C85.58 77.65 85.55 77.65 85.52 77.65C85.27 77.63 85.01 77.62 84.76 77.62H73.24V78.98C73.24 79.78 73.43 80.53 73.75 81.2C73.96 81.62 74.21 82.01 74.52 82.36C74.52 82.37 74.54 82.38 74.55 82.39C74.76 82.63 74.99 82.84 75.24 83.03C75.28 83.06 75.32 83.09 75.36 83.12C75.43 83.17 75.5 83.22 75.57 83.26C75.63 83.3 75.7 83.34 75.76 83.38C75.85 83.43 75.94 83.48 76.03 83.52C76.11 83.56 76.19 83.6 76.28 83.64C76.33 83.66 76.39 83.68 76.44 83.71C76.53 83.75 76.62 83.78 76.72 83.81C76.77 83.83 76.81 83.84 76.85 83.86C76.99 83.9 77.13 83.94 77.27 83.97C77.31 83.97 77.35 83.98 77.39 83.99C77.5 84.01 77.62 84.03 77.74 84.04C77.78 84.04 77.83 84.04 77.87 84.06C78.02 84.07 78.18 84.08 78.34 84.08H83.79C83.92 84.08 84.36 84.08 84.5 84.08H84.67C86.03 84.13 87.13 85.24 87.13 86.62C87.13 88 86.08 89.07 84.76 89.15H84.74C84.69 89.15 73.43 89.15 73.43 89.15C73.21 89.15 73 89.11 72.81 89.04C72.71 89.01 72.62 88.96 72.54 88.92C72.54 88.92 72.54 88.92 72.53 88.92C72.29 88.79 72.07 88.61 71.9 88.4C71.88 88.38 71.86 88.36 71.85 88.33C71.81 88.28 71.78 88.23 71.75 88.18C71.72 88.13 71.69 88.08 71.67 88.03C71.65 87.98 71.63 87.94 71.61 87.89C71.59 87.82 71.56 87.75 71.54 87.67C71.54 87.63 71.52 87.59 71.51 87.55C71.49 87.43 71.47 87.31 71.47 87.19V74.1C71.47 71.28 69.18 69 66.36 69H65V93.65C65 94.73 65.88 95.61 66.96 95.61H84.93C89.82 95.51 93.75 91.52 93.75 86.61C93.75 83.58 92.25 80.9 89.96 79.27Z" fill="#EB6633"/>
</g>
</g>
</g>
</g>
</g>
</g>
<defs>
<filter id="filter0_d_226_20260" x="0.474609" y="0" width="239" height="160" filterUnits="userSpaceOnUse" color-interpolation-filters="sRGB">
<feFlood flood-opacity="0" result="BackgroundImageFix"/>
<feColorMatrix in="SourceAlpha" type="matrix" values="0 0 0 0 0 0 0 0 0 0 0 0 0 0 0 0 0 0 127 0" result="hardAlpha"/>
<feOffset dy="1"/>
<feGaussianBlur stdDeviation="10"/>
<feComposite in2="hardAlpha" operator="out"/>
<feColorMatrix type="matrix" values="0 0 0 0 0 0 0 0 0 0 0 0 0 0 0 0 0 0 0.08 0"/>
<feBlend mode="normal" in2="BackgroundImageFix" result="effect1_dropShadow_226_20260"/>
<feBlend mode="normal" in="SourceGraphic" in2="effect1_dropShadow_226_20260" result="shape"/>
</filter>
<filter id="filter1_d_226_20260" x="15" y="16" width="215" height="133" filterUnits="userSpaceOnUse" color-interpolation-filters="sRGB">
<feFlood flood-opacity="0" result="BackgroundImageFix"/>
<feColorMatrix in="SourceAlpha" type="matrix" values="0 0 0 0 0 0 0 0 0 0 0 0 0 0 0 0 0 0 127 0" result="hardAlpha"/>
<feOffset dy="1"/>
<feGaussianBlur stdDeviation="10"/>
<feComposite in2="hardAlpha" operator="out"/>
<feColorMatrix type="matrix" values="0 0 0 0 0 0 0 0 0 0 0 0 0 0 0 0 0 0 0.08 0"/>
<feBlend mode="normal" in2="BackgroundImageFix" result="effect1_dropShadow_226_20260"/>
<feBlend mode="normal" in="SourceGraphic" in2="effect1_dropShadow_226_20260" result="shape"/>
</filter>
<clipPath id="clip0_226_20260">
<rect x="20.4746" y="19" width="199" height="120" rx="7.02062" fill="white"/>
</clipPath>
<clipPath id="clip1_226_20260">
<rect width="169" height="88" fill="white" transform="translate(35 35)"/>
</clipPath>
<clipPath id="clip2_226_20260">
<rect x="35" y="35" width="175" height="93" rx="7.02062" fill="white"/>
</clipPath>
<clipPath id="clip3_226_20260">
<rect width="113.6" height="26.61" fill="white" transform="translate(65 69)"/>
</clipPath>
</defs>
</svg>
