<svg width="239" height="160" viewBox="0 0 239 160" fill="none" xmlns="http://www.w3.org/2000/svg">
<g filter="url(#filter0_d_225_19199)">
<g clip-path="url(#clip0_225_19199)">
<rect x="20.4746" y="19" width="198" height="198.333" fill="white"/>
<g clip-path="url(#clip1_225_19199)">
<path d="M123.321 61.3176C124.339 64.1151 119.681 68.3427 112.934 70.7644C106.177 73.1861 99.8917 72.8834 98.8739 70.0859C97.8562 67.2884 102.515 63.0608 109.262 60.6391C116.019 58.2174 122.304 58.5201 123.321 61.3176Z" fill="url(#paint0_radial_225_19199)"/>
<path d="M123.07 61.1722C123.994 63.7087 119.324 67.7066 112.662 70.097C105.988 72.4874 99.8398 72.3726 98.927 69.8361C98.0037 67.2995 102.673 63.3016 109.336 60.9112C116.009 58.5208 122.157 58.6356 123.07 61.1722Z" fill="white"/>
<path d="M110.363 62.4247C110.363 63.5729 109.271 64.502 107.928 64.502C106.585 64.502 105.494 63.5729 105.494 62.4247C105.494 61.2765 106.585 60.3475 107.928 60.3475C109.271 60.3475 110.363 61.2765 110.363 62.4247Z" fill="url(#paint1_radial_225_19199)"/>
<path d="M105.023 63.6875C105.023 63.6875 100.857 65.8274 101.56 68.8545C101.56 68.8545 101.98 70.9213 104.561 71.0048C104.561 71.0048 106.272 71.151 106.712 69.3869C106.712 69.3869 106.954 67.9881 105.306 67.6437C105.306 67.6437 104.205 67.2992 104.184 66.0466C104.184 66.0466 103.974 65.0132 105.023 63.6875Z" fill="#801C21"/>
<path d="M107.007 66.9856C107.007 66.9856 109.126 63.9167 113.732 62.2048C113.732 62.2048 116.681 61.0461 118.79 61.8603C118.79 61.8603 120.269 62.4553 119.671 64.543C119.671 64.543 119.566 64.971 118.045 66.1401C118.045 66.1401 116.754 66.9647 117.604 67.7893C117.604 67.7893 115.925 68.0086 116.114 66.4845C116.114 66.4845 116.177 66.1401 116.293 65.9731C116.293 65.9731 116.628 65.4094 116.03 65.1797C116.03 65.1797 115.065 65.0127 114.792 65.8896C114.792 65.8896 114.299 67.0482 115.537 67.852C115.537 67.852 116.303 68.2695 116.817 68.28C116.817 68.28 112.012 70.806 109.609 71.0044C109.609 71.0044 106.912 70.2006 106.839 68.4783C106.839 68.4783 106.587 67.7893 107.017 66.9752L107.007 66.9856Z" fill="#801C21"/>
<path d="M110.793 71.3901C110.793 71.3901 115.168 72.6636 119.512 70.1897C119.512 70.1897 120.992 69.7722 122.093 70.4403C122.093 70.4403 126.815 72.9663 130.257 71.3797C130.257 71.3797 134.485 69.8139 136.195 66.8912C136.195 66.8912 132.187 69.5739 128.672 69.5321C128.672 69.5321 125.388 69.8139 124.58 68.1125C124.58 68.1125 123.835 66.411 126.784 65.6595C126.784 65.6595 128.704 65.315 129.501 65.7952C129.501 65.7952 128.725 64.6365 125.776 64.9914C125.776 64.9914 124.349 65.221 122.513 66.3901C122.513 66.3901 118.788 68.6448 118.274 68.1542C118.274 68.1542 114.518 70.4611 110.803 71.4006L110.793 71.3901Z" fill="url(#paint2_radial_225_19199)"/>
<path d="M60 85.8158V75.5235H65.8024C66.8201 75.5235 67.6071 75.5548 68.1422 75.6174C68.8976 75.701 69.5272 75.8575 70.0413 76.0976C70.5555 76.3377 70.9647 76.6613 71.2689 77.0893C71.5837 77.5172 71.7306 77.987 71.7306 78.488C71.7306 79.3648 71.3109 80.106 70.482 80.7114C69.6531 81.3168 68.1422 81.6195 65.9702 81.6195H62.0251V85.8053H60V85.8158ZM62.0251 80.4296H66.0017C67.3133 80.4296 68.2471 80.2625 68.8032 79.9389C69.3593 79.6049 69.6321 79.1456 69.6321 78.5506C69.6321 78.1227 69.4747 77.7469 69.1495 77.4442C68.8242 77.1415 68.394 76.9327 67.8694 76.8387C67.5231 76.7761 66.8936 76.7448 65.9702 76.7448H62.0251V80.44V80.4296Z" fill="#231815"/>
<path d="M73.3887 82.0901C73.3887 80.7123 73.9658 79.6893 75.1094 79.0317C76.0643 78.4784 77.2289 78.207 78.6034 78.207C80.1353 78.207 81.384 78.5411 82.3493 79.2091C83.3146 79.8772 83.8077 80.8062 83.8077 81.9857C83.8077 82.9461 83.5979 83.6976 83.1677 84.2509C82.7375 84.8041 82.1079 85.2216 81.2895 85.5348C80.4711 85.8375 79.5688 85.9941 78.6034 85.9941C77.0506 85.9941 75.7915 85.6601 74.8261 84.992C73.8608 84.3239 73.3887 83.3636 73.3887 82.1006V82.0901ZM75.3298 82.0797C75.3298 83.0296 75.6446 83.7394 76.2636 84.2196C76.8827 84.6893 77.6591 84.9294 78.6034 84.9294C79.5478 84.9294 80.3137 84.6893 80.9328 84.2196C81.5518 83.7394 81.8666 83.0191 81.8666 82.0484C81.8666 81.1298 81.5518 80.4304 80.9328 79.9607C80.3137 79.491 79.5373 79.2509 78.6034 79.2509C77.6696 79.2509 76.8827 79.491 76.2636 79.9607C75.6446 80.4304 75.3298 81.1402 75.3298 82.0901V82.0797Z" fill="#231815"/>
<path d="M88.0453 85.8144L84.6562 78.351H86.6288L88.3916 82.662L89.0421 84.2591C89.0736 84.1756 89.2625 83.6745 89.6297 82.7246L91.4239 78.3405H93.344L95.0228 82.6725L95.5685 84.0921L96.198 82.6516L98.1181 78.3301H99.9543L96.4603 85.7935H94.5192L92.7565 81.3259L92.3053 80.0524L90.0179 85.7935H88.0558L88.0453 85.8144Z" fill="#231815"/>
<path d="M109.147 83.3943L111.088 83.5717C110.784 84.3337 110.217 84.9287 109.378 85.3462C108.549 85.7638 107.489 85.983 106.198 85.983C104.572 85.983 103.281 85.6489 102.337 84.9809C101.382 84.3128 100.91 83.3734 100.91 82.1625C100.91 80.9517 101.393 79.9391 102.358 79.2502C103.323 78.5613 104.572 78.2168 106.104 78.2168C107.636 78.2168 108.801 78.5508 109.745 79.2293C110.689 79.9078 111.161 80.8577 111.161 82.0894C111.161 82.1625 111.161 82.2773 111.151 82.4235H102.862C102.935 83.2377 103.281 83.864 103.901 84.3024C104.52 84.7408 105.296 84.9496 106.219 84.9496C106.912 84.9496 107.499 84.8243 107.993 84.5842C108.486 84.3441 108.863 83.9475 109.157 83.4151L109.147 83.3943ZM102.946 81.3588H109.157C109.073 80.7429 108.832 80.2732 108.444 79.9705C107.846 79.4903 107.069 79.2502 106.104 79.2502C105.233 79.2502 104.509 79.4381 103.922 79.8243C103.334 80.2105 103.009 80.722 102.946 81.3588Z" fill="#231815"/>
<path d="M113.438 85.8173V78.3538H115.127V79.4916C115.557 78.9593 115.966 78.6148 116.333 78.4478C116.701 78.2808 117.11 78.1973 117.551 78.1973C118.191 78.1973 118.841 78.333 119.502 78.5939L118.852 79.763C118.39 79.5856 117.928 79.4916 117.467 79.4916C117.057 79.4916 116.68 79.5751 116.354 79.7422C116.029 79.9092 115.788 80.1388 115.651 80.4311C115.442 80.8799 115.337 81.3705 115.337 81.9029V85.8069H113.448L113.438 85.8173Z" fill="#231815"/>
<path d="M126.134 82.5176L128.065 82.4027C128.159 82.9247 128.369 83.3422 128.694 83.6762C129.03 84.0103 129.544 84.2817 130.237 84.48C130.929 84.6888 131.716 84.7827 132.587 84.7827C133.364 84.7827 134.046 84.7096 134.633 84.5531C135.221 84.3965 135.672 84.1877 135.955 83.9163C136.249 83.6449 136.385 83.3526 136.385 83.029C136.385 82.7055 136.249 82.4236 135.976 82.1835C135.703 81.9435 135.242 81.7451 134.602 81.5781C134.193 81.4737 133.28 81.3067 131.863 81.0771C130.447 80.8474 129.46 80.6387 128.894 80.4299C128.159 80.1689 127.614 79.8558 127.246 79.4696C126.89 79.0833 126.701 78.6554 126.701 78.1856C126.701 77.6637 126.921 77.1835 127.362 76.7242C127.803 76.2754 128.443 75.9309 129.293 75.6908C130.142 75.4612 131.076 75.3359 132.115 75.3359C133.259 75.3359 134.255 75.4612 135.137 75.7013C136.008 75.9414 136.679 76.3067 137.141 76.7764C137.613 77.2566 137.865 77.789 137.896 78.3944L135.955 78.4883C135.85 77.8412 135.494 77.361 134.885 77.027C134.276 76.6929 133.385 76.5364 132.199 76.5364C131.013 76.5364 130.069 76.6825 129.502 76.9852C128.936 77.2879 128.652 77.6533 128.652 78.0812C128.652 78.4466 128.852 78.7597 129.251 78.9998C129.639 79.2399 130.667 79.48 132.325 79.7305C133.983 79.981 135.116 80.2002 135.724 80.3881C136.616 80.6595 137.277 81.0144 137.697 81.432C138.127 81.8599 138.337 82.3401 138.337 82.8933C138.337 83.4466 138.106 83.9581 137.634 84.4382C137.162 84.9184 136.49 85.2942 135.619 85.5656C134.738 85.837 133.752 85.9727 132.661 85.9727C131.276 85.9727 130.1 85.837 129.167 85.5656C128.222 85.2942 127.488 84.8871 126.953 84.3443C126.418 83.8015 126.134 83.1856 126.113 82.4967L126.134 82.5176Z" fill="#231815"/>
<path d="M140.855 85.8157V75.5234H142.744V85.8157H140.855Z" fill="#231815"/>
<path d="M153.278 83.3943L155.219 83.5717C154.914 84.3337 154.348 84.9287 153.508 85.3462C152.68 85.7638 151.62 85.983 150.329 85.983C148.703 85.983 147.412 85.6489 146.468 84.9809C145.513 84.3128 145.041 83.3734 145.041 82.1625C145.041 80.9517 145.524 79.9391 146.489 79.2502C147.454 78.5613 148.703 78.2168 150.235 78.2168C151.767 78.2168 152.931 78.5508 153.876 79.2293C154.82 79.9078 155.292 80.8577 155.292 82.0894C155.292 82.1625 155.292 82.2773 155.292 82.4235H147.003C147.077 83.2377 147.423 83.864 148.042 84.3024C148.661 84.7408 149.437 84.9496 150.361 84.9496C151.053 84.9496 151.641 84.8243 152.134 84.5842C152.627 84.3441 153.005 83.9475 153.299 83.4151L153.278 83.3943ZM147.087 81.3588H153.299C153.215 80.7429 152.973 80.2732 152.585 79.9705C151.987 79.4903 151.211 79.2502 150.245 79.2502C149.374 79.2502 148.65 79.4381 148.063 79.8243C147.475 80.2105 147.15 80.722 147.087 81.3588Z" fill="#231815"/>
<path d="M165.217 83.3943L167.158 83.5717C166.854 84.3337 166.287 84.9287 165.448 85.3462C164.619 85.7638 163.559 85.983 162.269 85.983C160.642 85.983 159.352 85.6489 158.407 84.9809C157.453 84.3128 156.98 83.3734 156.98 82.1625C156.98 80.9517 157.463 79.9391 158.428 79.2502C159.394 78.5613 160.642 78.2168 162.174 78.2168C163.706 78.2168 164.871 78.5508 165.815 79.2293C166.759 79.9078 167.232 80.8577 167.232 82.0894C167.232 82.1625 167.232 82.2773 167.221 82.4235H158.932C159.006 83.2377 159.352 83.864 159.971 84.3024C160.59 84.7408 161.366 84.9496 162.29 84.9496C162.982 84.9496 163.57 84.8243 164.063 84.5842C164.556 84.3441 164.934 83.9475 165.228 83.4151L165.217 83.3943ZM159.027 81.3588H165.238C165.154 80.7429 164.913 80.2732 164.525 79.9705C163.927 79.4903 163.15 79.2502 162.185 79.2502C161.314 79.2502 160.59 79.4381 160.002 79.8243C159.415 80.2105 159.089 80.722 159.027 81.3588Z" fill="#231815"/>
<path d="M169.531 88.667V78.3538H171.263V79.3351C171.672 78.9593 172.123 78.6774 172.637 78.4791C173.151 78.2912 173.76 78.1973 174.494 78.1973C175.449 78.1973 176.278 78.3643 177.012 78.6879C177.736 79.0115 178.282 79.4812 178.66 80.0762C179.027 80.6712 179.216 81.3288 179.216 82.0386C179.216 82.8006 179.016 83.4895 178.607 84.095C178.198 84.7004 177.6 85.1701 176.824 85.4937C176.047 85.8173 175.229 85.9843 174.368 85.9843C173.739 85.9843 173.172 85.8904 172.679 85.7129C172.175 85.5355 171.766 85.3058 171.451 85.0344V88.667H169.563H169.531ZM171.242 82.1221C171.242 83.0824 171.535 83.7818 172.112 84.2411C172.689 84.7004 173.392 84.93 174.211 84.93C175.029 84.93 175.764 84.69 176.362 84.2202C176.96 83.7505 177.254 83.0094 177.254 82.0177C177.254 81.0261 176.96 80.358 176.383 79.8883C175.795 79.4186 175.103 79.1785 174.295 79.1785C173.487 79.1785 172.784 79.429 172.165 79.93C171.546 80.4311 171.242 81.1618 171.242 82.1221Z" fill="#231815"/>
<path d="M95.1918 91.3084C95.2758 91.3398 95.3177 91.3815 95.3177 91.4337C95.3177 91.4755 95.2233 91.5172 95.0345 91.5798C94.9715 91.8304 94.9085 92.06 94.8456 92.2688H97.007V92.989H95.8319C95.8319 93.584 95.8004 94.1059 95.7794 94.5339H97.3533V95.2542H95.9578C96.0837 95.703 96.2306 96.0892 96.388 96.4128C96.6083 96.8512 96.9126 97.2479 97.2798 97.5924L96.5139 98.1874C96.2621 97.8742 96.0312 97.5297 95.8634 97.1226C95.7479 96.893 95.643 96.6216 95.5486 96.3084C95.4437 96.7991 95.2968 97.2479 95.0974 97.6341C94.8456 98.1352 94.5098 98.5736 94.0691 98.9807L93.3452 98.2604C93.7649 97.9995 94.1006 97.655 94.321 97.2375C94.5308 96.8826 94.6882 96.4441 94.8036 95.9013C94.8351 95.7135 94.8771 95.5047 94.9085 95.2646H93.3137V94.5444H94.982C95.0135 94.0955 95.0345 93.5736 95.0449 92.9995H94.5833C94.5833 92.9995 94.5623 93.0308 94.5623 93.0412C94.3839 93.4274 94.1846 93.7823 93.9642 94.0955L93.2402 93.6466C93.5235 93.2813 93.7544 92.916 93.9327 92.5402C94.1111 92.1748 94.2685 91.6842 94.4154 91.0684L95.1918 91.3189V91.3084ZM100.91 92.1122V98.3753H100.123V97.5193H98.455V98.6153H97.6576V92.1122H100.91ZM100.123 96.8304V92.8325H98.455V96.8304H100.123Z" fill="#231815"/>
<path d="M106.513 92.4555V93.1548H103.848V92.4555H106.513ZM106.408 96.0045V98.8229H105.684V98.4784H104.687V98.9586H103.963V96.0045H106.418H106.408ZM106.345 93.6663V94.3135H103.995V93.6663H106.345ZM106.345 94.8354V95.4826H103.995V94.8354H106.345ZM106.313 91.3281V91.9753H104.026V91.3281H106.313ZM105.684 97.8312V96.6934H104.687V97.8312H105.684ZM107.898 93.6663L107.373 93.9795H108.013L108.727 92.6016L109.293 92.9043C109.377 92.9461 109.419 92.9878 109.419 93.0191C109.419 93.0922 109.377 93.1444 109.283 93.1861L108.79 93.9795H109.577C109.545 93.1757 109.535 92.1945 109.524 91.0254L110.311 91.1611C110.395 91.182 110.447 91.2133 110.447 91.2655C110.447 91.3281 110.384 91.4116 110.28 91.5369C110.28 92.5076 110.28 93.3218 110.311 93.9795H111.811V94.6684H110.332C110.353 95.2008 110.374 95.5974 110.416 95.8271C110.447 96.0985 110.489 96.349 110.542 96.5786C110.72 96.1611 110.899 95.6496 111.056 95.0442L111.759 95.3573C111.811 95.3886 111.843 95.4408 111.843 95.493C111.843 95.5452 111.769 95.587 111.633 95.6392C111.371 96.4534 111.119 97.0484 110.909 97.445C110.878 97.4972 110.846 97.5494 110.825 97.5912C110.92 97.873 111.014 98.0087 111.087 98.0087C111.161 98.0087 111.287 97.7373 111.465 97.1945L112.053 97.6747C111.707 98.5724 111.413 99.0212 111.182 99.0212C111.025 99.0212 110.867 98.9377 110.699 98.7707C110.563 98.6454 110.437 98.468 110.332 98.2488C110.301 98.2801 110.29 98.301 110.269 98.3218C110.059 98.5515 109.818 98.7707 109.535 98.9899L108.978 98.4367C109.052 98.3845 109.115 98.3427 109.178 98.301H107.468V98.6454H106.744V95.1694H109.398V98.1235C109.535 98.0191 109.65 97.9043 109.765 97.779C109.849 97.6955 109.944 97.6016 110.028 97.4868C109.891 97.0484 109.776 96.5369 109.713 95.9523C109.681 95.66 109.64 95.2425 109.629 94.6788H106.544V93.9899H107.321C107.153 93.635 106.974 93.2801 106.786 92.9252L107.415 92.612C107.614 92.9774 107.782 93.3323 107.929 93.6767L107.898 93.6663ZM108.359 91.1089C108.496 91.1298 108.559 91.1611 108.559 91.2237C108.559 91.255 108.506 91.3177 108.422 91.3907V91.8083H109.419V92.4555H106.66V91.8083H107.656V91.0463L108.359 91.1089ZM108.664 96.422V95.7957H107.457V96.422H108.664ZM108.664 97.6225V97.0066H107.457V97.6225H108.664ZM111.811 93.0087L111.182 93.5515C110.899 92.9043 110.626 92.3719 110.363 91.9753L110.909 91.4534C111.224 91.8813 111.518 92.4033 111.811 92.9983V93.0087Z" fill="#231815"/>
<path d="M116.995 91.36V98.6252H116.271V98.1032H115.337V98.6252H114.613V91.36H116.995ZM116.271 93.3955V92.0594H115.337V93.3955H116.271ZM116.271 95.4206V94.0427H115.337V95.4206H116.271ZM116.271 97.4561V96.0782H115.337V97.4561H116.271ZM121.717 91.7358C121.203 91.8402 120.699 91.9237 120.185 91.9863V92.7379H122.294V93.4268H121.601V94.5646H122.504V95.2536H121.601V96.4227H122.22V97.1116H120.185V97.9362H122.43V98.6252H117.247V97.9362H119.429V97.1116H117.425V96.4227H118.055V95.2536H117.152V94.5646H118.055V93.4268H117.362V92.7379H119.429V92.0907C118.894 92.1638 118.349 92.216 117.803 92.2473L117.32 91.6001C118.223 91.5688 118.999 91.5166 119.65 91.4227C120.237 91.36 120.951 91.2348 121.811 91.0469L122.346 91.5375C122.346 91.5375 122.399 91.621 122.399 91.6732C122.399 91.7149 122.367 91.7358 122.294 91.7358L122.094 91.7045C121.99 91.7045 121.864 91.7254 121.727 91.7358H121.717ZM118.768 94.5646H119.419V93.4268H118.768V94.5646ZM118.768 96.4227H119.419V95.2536H118.768V96.4227ZM120.877 93.4268H120.185V94.5646H120.877V93.4268ZM120.877 95.2536H120.185V96.4227H120.877V95.2536Z" fill="#231815"/>
<path d="M127.835 91.4656V98.4176H127.111V97.7704H126.04V98.7308H125.316V91.4761H127.835V91.4656ZM127.1 93.3237V92.1546H126.03V93.3237H127.1ZM127.1 95.1817V93.9709H126.03V95.1817H127.1ZM127.1 97.0711V95.8289H126.03V97.0711H127.1ZM132.598 91.3926V93.8039H131.213C131.213 94.2631 131.213 94.6702 131.234 95.0147H132.703V95.7036H131.266C131.266 95.9228 131.297 96.1107 131.308 96.2464C131.381 96.7788 131.517 97.2277 131.748 97.5721C131.906 97.854 132.042 98.0001 132.137 98.0001C132.21 98.0001 132.304 97.7078 132.451 97.1128L133.081 97.5617C132.986 97.9479 132.871 98.2611 132.735 98.5325C132.588 98.8247 132.42 98.9709 132.21 98.9709C131.906 98.9709 131.612 98.783 131.318 98.4385C130.972 98.021 130.741 97.4677 130.615 96.7788C130.563 96.4865 130.531 96.1316 130.51 95.7036H129.199V97.8644C129.639 97.7391 130.08 97.6034 130.521 97.426V98.0418C130.07 98.2402 129.356 98.522 128.401 98.8665C128.349 98.95 128.286 99.0126 128.233 99.0126C128.17 99.0126 128.139 98.9709 128.139 98.8769L127.961 98.1462C128.118 98.1149 128.275 98.0836 128.443 98.0523V91.403H132.598V91.3926ZM131.843 93.1149V92.0711H129.209V93.1149H131.843ZM130.458 93.8039H129.209V95.0147H130.479C130.458 94.6494 130.447 94.2527 130.447 93.8039H130.458Z" fill="#231815"/>
<path d="M138.116 91.2245C138.2 91.2558 138.242 91.308 138.242 91.3602C138.242 91.4019 138.168 91.4437 138.042 91.4645C138.021 91.4854 138.011 91.4959 138.011 91.5167C138.357 91.9238 138.766 92.2683 139.228 92.5293V91.9447H141.064V91.047L141.788 91.1096C141.924 91.1305 141.987 91.1618 141.987 91.2245C141.987 91.2662 141.945 91.3393 141.851 91.4228V91.9447H143.813V93.6984H143.089V92.6023H139.941V93.667H139.217V92.9259L138.945 93.2182C138.819 93.1347 138.703 93.0407 138.598 92.9468V93.3956H136.794V93.1347C136.636 93.2913 136.447 93.4583 136.248 93.6357L135.629 93.1242C136.017 92.8737 136.363 92.571 136.678 92.2161C136.961 91.903 137.245 91.4854 137.528 90.9844L138.126 91.2349L138.116 91.2245ZM139.07 93.8758V96.5898H136.961V97.9155C137.35 97.832 137.727 97.7172 138.095 97.6023C137.979 97.4771 137.885 97.3622 137.79 97.2787L138.304 96.7986C138.672 97.1535 139.028 97.571 139.375 98.0616L138.829 98.5835C138.703 98.3956 138.598 98.2286 138.493 98.0929C138 98.2913 137.245 98.5418 136.237 98.8549C136.175 98.9384 136.112 99.0011 136.059 99.0011C136.007 99.0011 135.975 98.9593 135.975 98.8654L135.786 98.1347C135.933 98.1138 136.091 98.0929 136.237 98.0512V93.8654H139.07V93.8758ZM138.346 94.9405V94.4604H136.961V94.9405H138.346ZM138.346 96.0053V95.4833H136.961V96.0053H138.346ZM138.441 92.8111C138.158 92.5606 137.906 92.2787 137.696 91.9969C137.539 92.2265 137.381 92.4249 137.245 92.6232C137.192 92.6963 137.14 92.7589 137.087 92.8215H138.441V92.8111ZM143.016 93.427V95.5564H140.728V96.2453H143.456V98.7192H142.732V98.4478H140.728V98.8967H140.004V93.427H143.016ZM142.281 94.9405V94.0428H140.728V94.9405H142.281ZM142.732 97.7902V96.8925H140.728V97.7902H142.732Z" fill="#231815"/>
</g>
</g>
</g>
<defs>
<filter id="filter0_d_225_19199" x="0.474609" y="0" width="238" height="160" filterUnits="userSpaceOnUse" color-interpolation-filters="sRGB">
<feFlood flood-opacity="0" result="BackgroundImageFix"/>
<feColorMatrix in="SourceAlpha" type="matrix" values="0 0 0 0 0 0 0 0 0 0 0 0 0 0 0 0 0 0 127 0" result="hardAlpha"/>
<feOffset dy="1"/>
<feGaussianBlur stdDeviation="10"/>
<feComposite in2="hardAlpha" operator="out"/>
<feColorMatrix type="matrix" values="0 0 0 0 0 0 0 0 0 0 0 0 0 0 0 0 0 0 0.08 0"/>
<feBlend mode="normal" in2="BackgroundImageFix" result="effect1_dropShadow_225_19199"/>
<feBlend mode="normal" in="SourceGraphic" in2="effect1_dropShadow_225_19199" result="shape"/>
</filter>
<radialGradient id="paint0_radial_225_19199" cx="0" cy="0" r="1" gradientUnits="userSpaceOnUse" gradientTransform="translate(151.867 63.0642) rotate(1.60171) scale(20.0714 21.3521)">
<stop stop-color="#801C21"/>
<stop offset="0.57" stop-color="white"/>
<stop offset="1" stop-color="#801C21"/>
</radialGradient>
<radialGradient id="paint1_radial_225_19199" cx="0" cy="0" r="1" gradientUnits="userSpaceOnUse" gradientTransform="translate(106.585 61.4331) scale(4.82655 4.80167)">
<stop stop-color="white"/>
<stop offset="0.59" stop-color="#801C21"/>
</radialGradient>
<radialGradient id="paint2_radial_225_19199" cx="0" cy="0" r="1" gradientUnits="userSpaceOnUse" gradientTransform="translate(133.593 70.0958) scale(22.1707 22.0564)">
<stop stop-color="white"/>
<stop offset="0.59" stop-color="#801C21"/>
</radialGradient>
<clipPath id="clip0_225_19199">
<rect x="20.4746" y="19" width="198" height="120" rx="7.02062" fill="white"/>
</clipPath>
<clipPath id="clip1_225_19199">
<rect width="150" height="40" fill="white" transform="translate(45 59)"/>
</clipPath>
</defs>
</svg>
